<?xml version="1.0" encoding="UTF-8" standalone="no"?>
<!-- Created with Inkscape (http://www.inkscape.org/) -->

<svg
   width="13.159416mm"
   height="17.556067mm"
   viewBox="0 0 13.159416 17.556067"
   version="1.1"
   id="svg44706"
   inkscape:version="1.2.2 (732a01da63, 2022-12-09)"
   sodipodi:docname="1.svg"
   xmlns:inkscape="http://www.inkscape.org/namespaces/inkscape"
   xmlns:sodipodi="http://sodipodi.sourceforge.net/DTD/sodipodi-0.dtd"
   xmlns="http://www.w3.org/2000/svg"
   xmlns:svg="http://www.w3.org/2000/svg">
  <sodipodi:namedview
     id="namedview44708"
     pagecolor="#ffffff"
     bordercolor="#000000"
     borderopacity="0.25"
     inkscape:showpageshadow="2"
     inkscape:pageopacity="0.0"
     inkscape:pagecheckerboard="0"
     inkscape:deskcolor="#d1d1d1"
     inkscape:document-units="mm"
     showgrid="false"
     inkscape:zoom="0.76880612"
     inkscape:cx="39.021542"
     inkscape:cy="-107.9596"
     inkscape:window-width="1920"
     inkscape:window-height="1017"
     inkscape:window-x="-8"
     inkscape:window-y="-8"
     inkscape:window-maximized="1"
     inkscape:current-layer="layer1" />
  <defs
     id="defs44703">
    <clipPath
       clipPathUnits="userSpaceOnUse"
       id="clipPath35286">
      <path
         d="M -1.5259e-5,792 H 612 V 2.4414e-4 L -6.8665e-5,1.2207e-4"
         clip-rule="evenodd"
         id="path35284" />
    </clipPath>
    <clipPath
       clipPathUnits="userSpaceOnUse"
       id="clipPath35296">
      <path
         d="M -1.5259e-5,792 H 612 V 2.4414e-4 L -6.8665e-5,1.2207e-4"
         clip-rule="evenodd"
         id="path35294" />
    </clipPath>
    <clipPath
       clipPathUnits="userSpaceOnUse"
       id="clipPath35308">
      <path
         d="M -7.629e-6,792 H 612 V 0 L 6.1035e-5,6.1035e-5"
         clip-rule="evenodd"
         id="path35306" />
    </clipPath>
    <clipPath
       clipPathUnits="userSpaceOnUse"
       id="clipPath35318">
      <path
         d="M -7.629e-6,792 H 612 V 0 L 6.1035e-5,6.1035e-5"
         clip-rule="evenodd"
         id="path35316" />
    </clipPath>
    <clipPath
       clipPathUnits="userSpaceOnUse"
       id="clipPath35330">
      <path
         d="M -7.629e-6,792 H 612 V 0 L 6.1035e-5,6.1035e-5"
         clip-rule="evenodd"
         id="path35328" />
    </clipPath>
    <clipPath
       clipPathUnits="userSpaceOnUse"
       id="clipPath35340">
      <path
         d="M -7.629e-6,792 H 612 V 0 L 6.1035e-5,6.1035e-5"
         clip-rule="evenodd"
         id="path35338" />
    </clipPath>
  </defs>
  <g
     inkscape:label="Layer 1"
     inkscape:groupmode="layer"
     id="layer1"
     transform="translate(-94.599899,-177.06205)">
    <g
       id="g35264"
       transform="matrix(0.35277777,0,0,-0.35277777,73.554588,398.05095)">
      <path
         d="m 66.118,590.42 h 6.165 m 0,0 12.319,12.32 m -4.03,-22.89 H 60.016"
         style="fill:none;stroke:#ff0000;stroke-width:0.72;stroke-linecap:round;stroke-linejoin:round;stroke-miterlimit:10;stroke-dasharray:2.16, 2.16;stroke-dashoffset:0;stroke-opacity:1"
         id="path35266" />
    </g>
    <path
       d="m 96.879549,189.7639 c 0,0.27517 -0.223662,0.50094 -0.499887,0.50094 -0.276224,0 -0.500238,-0.22577 -0.500238,-0.50094 0,-0.27517 0.224014,-0.50095 0.500238,-0.50095 0.276225,0 0.499887,0.22578 0.499887,0.50095 z"
       style="fill:#000000;fill-opacity:1;fill-rule:evenodd;stroke:none;stroke-width:0.352778"
       id="path35268" />
    <path
       d="m 96.879549,189.7639 c 0,0.27517 -0.223662,0.50094 -0.499887,0.50094 -0.276224,0 -0.500238,-0.22577 -0.500238,-0.50094 0,-0.27517 0.224014,-0.50095 0.500238,-0.50095 0.276225,0 0.499887,0.22578 0.499887,0.50095 z m -2.15265,4.72722 v -1.99672 m 8.673391,-7.07672 3.40501,-3.40431 m -4.8267,-1.99672 v 13.47611 m 4.8267,-11.47939 c 1.10385,-1.10419 1.10385,-2.89278 -3.5e-4,-3.99697 -1.10419,-1.1042 -2.89419,-1.1042 -3.99838,0 -0.53023,0.52917 -0.82797,1.24883 -0.82797,2.00025"
       style="fill:none;stroke:#000000;stroke-width:0.254;stroke-linecap:round;stroke-linejoin:round;stroke-miterlimit:10;stroke-dasharray:none;stroke-opacity:1"
       id="path35270" />
    <g
       id="g35272"
       transform="matrix(0.35277777,0,0,-0.35277777,73.554588,398.05095)">
      <path
         d="m 66.118,590.42 h 6.165 m 0,0 12.319,12.32 m -4.03,-22.89 H 60.016"
         style="fill:none;stroke:#ff0000;stroke-width:0.72;stroke-linecap:round;stroke-linejoin:round;stroke-miterlimit:10;stroke-dasharray:2.16, 2.16;stroke-dashoffset:0;stroke-opacity:1"
         id="path35274" />
    </g>
    <path
       d="m 96.879549,189.7639 c 0,0.27517 -0.223662,0.50094 -0.499887,0.50094 -0.276224,0 -0.500238,-0.22577 -0.500238,-0.50094 0,-0.27517 0.224014,-0.50095 0.500238,-0.50095 0.276225,0 0.499887,0.22578 0.499887,0.50095 z"
       style="fill:#000000;fill-opacity:1;fill-rule:evenodd;stroke:none;stroke-width:0.352778"
       id="path35276" />
    <path
       d="m 96.879549,189.7639 c 0,0.27517 -0.223662,0.50094 -0.499887,0.50094 -0.276224,0 -0.500238,-0.22577 -0.500238,-0.50094 0,-0.27517 0.224014,-0.50095 0.500238,-0.50095 0.276225,0 0.499887,0.22578 0.499887,0.50095 z m -2.15265,4.72722 v -1.99672 m 8.673391,-7.07672 3.40501,-3.40431 m -4.8267,-1.99672 v 13.47611 m 4.8267,-11.47939 c 1.10385,-1.10419 1.10385,-2.89278 -3.5e-4,-3.99697 -1.10419,-1.1042 -2.89419,-1.1042 -3.99838,0 -0.53023,0.52917 -0.82797,1.24883 -0.82797,2.00025"
       style="fill:none;stroke:#000000;stroke-width:0.254;stroke-linecap:round;stroke-linejoin:round;stroke-miterlimit:10;stroke-dasharray:none;stroke-opacity:1"
       id="path35278" />
    <g
       id="g35280"
       transform="matrix(0.35277777,0,0,-0.35277777,73.554588,398.05095)">
      <g
         id="g35282"
         clip-path="url(#clipPath35286)">
        <path
           d="m 90.777,602 -1.626,-1.62 -8.95,3.25 5.692,5.7 3.258,-8.95 z m 3.252,3.25 -1.626,-1.62 -5.114,1.86 3.253,3.25 1.861,-5.11 z"
           style="fill:#ff0000;fill-opacity:1;fill-rule:evenodd;stroke:none"
           id="path35288" />
      </g>
    </g>
    <g
       id="g35290"
       transform="matrix(0.35277777,0,0,-0.35277777,73.554588,398.05095)">
      <g
         id="g35292"
         clip-path="url(#clipPath35296)">
        <path
           d="m 90.777,602 -1.626,-1.62 -8.95,3.25 5.692,5.7 3.258,-8.95 m 4.878,4.87 -1.626,-1.62 -5.114,1.86 3.253,3.25 1.861,-5.11 m -2.381,-4.13 4.879,4.88"
           style="fill:none;stroke:#000000;stroke-width:0.36;stroke-linecap:round;stroke-linejoin:round;stroke-miterlimit:10;stroke-dasharray:none;stroke-opacity:1"
           id="path35298" />
      </g>
    </g>
    <path
       d="m 103.33926,187.69309 0.20391,-0.0247 c 0.006,0.0529 0.024,0.0917 0.0526,0.11994 0.0282,0.0247 0.0628,0.0388 0.10337,0.0388 0.0434,0 0.0801,-0.0141 0.10971,-0.0494 0.0296,-0.0317 0.0445,-0.0776 0.0445,-0.13406 0,-0.0529 -0.0141,-0.0917 -0.0427,-0.12347 -0.0286,-0.0317 -0.0631,-0.0459 -0.10407,-0.0459 -0.0272,0 -0.0593,0.004 -0.0967,0.0141 l 0.0233,-0.17286 c 0.0568,0.004 0.10019,-0.0106 0.13017,-0.0353 0.03,-0.0282 0.0452,-0.06 0.0452,-0.10583 0,-0.0353 -0.0109,-0.067 -0.0332,-0.0882 -0.0219,-0.0212 -0.0512,-0.0317 -0.0875,-0.0317 -0.036,0 -0.0667,0.0106 -0.0921,0.0353 -0.0258,0.0282 -0.0413,0.0635 -0.0466,0.10936 l -0.19403,-0.0317 c 0.0134,-0.067 0.0339,-0.11994 0.061,-0.15875 0.0272,-0.0388 0.0653,-0.0705 0.11395,-0.0952 0.0487,-0.0212 0.10301,-0.0318 0.16368,-0.0318 0.10337,0 0.18627,0.0318 0.24871,0.0988 0.0515,0.0529 0.0773,0.11289 0.0773,0.18345 0,0.0952 -0.0529,0.17286 -0.15804,0.2293 0.0628,0.0141 0.11324,0.0423 0.15099,0.0917 0.0377,0.0459 0.0564,0.10231 0.0564,0.16934 0,0.0952 -0.0353,0.17991 -0.10583,0.24694 -0.0702,0.067 -0.15805,0.10231 -0.26282,0.10231 -0.0995,0 -0.18168,-0.0282 -0.2473,-0.0882 -0.0653,-0.0564 -0.10336,-0.13052 -0.11395,-0.22225 z m 0.7867,0.31045 0.27199,-1.13595 h 0.15804 l -0.27481,1.13595 z m 0.90381,-0.0212 v -0.21872 h -0.44979 v -0.18345 l 0.4766,-0.6985 h 0.17675 v 0.69498 h 0.13652 v 0.18697 h -0.13652 v 0.21872 z m 0,-0.40569 v -0.37395 l -0.25259,0.37395 z"
       style="fill:#ff0000;fill-opacity:1;fill-rule:nonzero;stroke:none;stroke-width:0.352778"
       id="path35300" />
    <g
       id="g35302"
       transform="matrix(0.35277777,0,0,-0.35277777,73.554588,398.05095)">
      <g
         id="g35304"
         clip-path="url(#clipPath35308)">
        <path
           d="m 84.871,611.92 2.834,0.65 -0.545,-2.29 z"
           style="fill:#000000;fill-opacity:1;fill-rule:evenodd;stroke:none"
           id="path35310" />
      </g>
    </g>
    <g
       id="g35312"
       transform="matrix(0.35277777,0,0,-0.35277777,73.554588,398.05095)">
      <g
         id="g35314"
         clip-path="url(#clipPath35318)">
        <path
           d="m 90.974,609.3 c -1.703,1.5 -3.842,2.42 -6.103,2.62 m 0,0 2.834,0.65 -0.545,-2.29 z"
           style="fill:none;stroke:#000000;stroke-width:0.36;stroke-linecap:butt;stroke-linejoin:miter;stroke-miterlimit:2;stroke-dasharray:none;stroke-opacity:1"
           id="path35320" />
      </g>
    </g>
    <path
       d="m 103.76824,181.30782 h -0.21026 v -0.79375 c -0.0773,0.0705 -0.16792,0.12347 -0.27199,0.15875 v -0.1905 c 0.0547,-0.0176 0.1143,-0.0529 0.17886,-0.10231 0.0646,-0.0494 0.10866,-0.10936 0.13265,-0.17639 h 0.17074 z m 0.24059,0.0176 0.272,-1.13594 h 0.15804 l -0.27481,1.13594 z m 0.90382,-0.0176 v -0.22225 h -0.44979 v -0.18345 l 0.4766,-0.6985 h 0.17674 v 0.6985 h 0.13653 v 0.18345 h -0.13653 v 0.22225 z m 0,-0.4057 v -0.37747 l -0.25259,0.37747 z"
       style="fill:#ff0000;fill-opacity:1;fill-rule:nonzero;stroke:none;stroke-width:0.352778"
       id="path35322" />
    <g
       id="g35324"
       transform="matrix(0.35277777,0,0,-0.35277777,73.554588,398.05095)">
      <g
         id="g35326"
         clip-path="url(#clipPath35330)">
        <path
           d="m 84.871,611.92 2.834,0.65 -0.545,-2.29 z"
           style="fill:#000000;fill-opacity:1;fill-rule:evenodd;stroke:none"
           id="path35332" />
      </g>
    </g>
    <g
       id="g35334"
       transform="matrix(0.35277777,0,0,-0.35277777,73.554588,398.05095)">
      <g
         id="g35336"
         clip-path="url(#clipPath35340)">
        <path
           d="m 90.974,609.3 c -1.703,1.5 -3.842,2.42 -6.103,2.62 m 0,0 2.834,0.65 -0.545,-2.29 z"
           style="fill:none;stroke:#000000;stroke-width:0.36;stroke-linecap:butt;stroke-linejoin:miter;stroke-miterlimit:2;stroke-dasharray:none;stroke-opacity:1"
           id="path35342" />
      </g>
    </g>
    <path
       d="m 103.76824,181.30782 h -0.21026 v -0.79375 c -0.0773,0.0705 -0.16792,0.12347 -0.27199,0.15875 v -0.1905 c 0.0547,-0.0176 0.1143,-0.0529 0.17886,-0.10231 0.0646,-0.0494 0.10866,-0.10936 0.13265,-0.17639 h 0.17074 z m 0.24059,0.0176 0.272,-1.13594 h 0.15804 l -0.27481,1.13594 z m 0.90382,-0.0176 v -0.22225 h -0.44979 v -0.18345 l 0.4766,-0.6985 h 0.17674 v 0.6985 h 0.13653 v 0.18345 h -0.13653 v 0.22225 z m 0,-0.4057 v -0.37747 l -0.25259,0.37747 z"
       style="fill:#ff0000;fill-opacity:1;fill-rule:nonzero;stroke:none;stroke-width:0.352778"
       id="path35344" />
    <path
       d="m 103.91641,189.2947 -0.54399,0.86784 -0.43497,-0.70556 z"
       style="fill:#000000;fill-opacity:1;fill-rule:evenodd;stroke:none;stroke-width:0.352778"
       id="path35346" />
    <path
       d="m 100.00128,189.5099 c 1.16522,0.94897 2.86209,0.85725 3.91513,-0.2152 m 0,0 -0.54399,0.86784 -0.43497,-0.70556 z"
       style="fill:none;stroke:#000000;stroke-width:0.127;stroke-linecap:butt;stroke-linejoin:miter;stroke-miterlimit:2;stroke-dasharray:none;stroke-opacity:1"
       id="path35348" />
  </g>
</svg>
