<?xml version="1.0" encoding="UTF-8" standalone="no"?>
<!-- Created with Inkscape (http://www.inkscape.org/) -->

<svg
   width="16.233871mm"
   height="19.693544mm"
   viewBox="0 0 16.233871 19.69354"
   version="1.1"
   id="svg15577"
   inkscape:version="1.2.2 (732a01da63, 2022-12-09)"
   sodipodi:docname="1.svg"
   xml:space="preserve"
   xmlns:inkscape="http://www.inkscape.org/namespaces/inkscape"
   xmlns:sodipodi="http://sodipodi.sourceforge.net/DTD/sodipodi-0.dtd"
   xmlns="http://www.w3.org/2000/svg"
   xmlns:svg="http://www.w3.org/2000/svg"><sodipodi:namedview
     id="namedview15579"
     pagecolor="#ffffff"
     bordercolor="#000000"
     borderopacity="0.25"
     inkscape:showpageshadow="2"
     inkscape:pageopacity="0.0"
     inkscape:pagecheckerboard="true"
     inkscape:deskcolor="#d1d1d1"
     inkscape:document-units="mm"
     showgrid="false"
     showborder="false"
     inkscape:zoom="2.9825758"
     inkscape:cx="265.87757"
     inkscape:cy="114.33071"
     inkscape:window-width="1920"
     inkscape:window-height="1017"
     inkscape:window-x="1912"
     inkscape:window-y="-8"
     inkscape:window-maximized="1"
     inkscape:current-layer="layer1" /><defs
     id="defs15574" /><g
     inkscape:label="Layer 1"
     inkscape:groupmode="layer"
     id="layer1"
     transform="translate(-17.059654,-66.302582)"><g
       id="g15014"
       transform="matrix(0.26458333,0,0,0.26458333,49.253236,55.298379)" /><g
       id="g13720"
       transform="matrix(0.26458333,0,0,0.26458333,18.006939,-99.253542)" /><g
       id="g18168"
       transform="matrix(0.26458333,0,0,0.26458333,27.213146,49.421226)" /><g
       id="g38511"
       transform="matrix(0.26458333,0,0,0.26458333,-2.4062913,8.9764745)"><path
         d="M 88.160004,268.79999 H 96.32"
         style="fill:none;stroke:#ff0000;stroke-width:0.96;stroke-linecap:round;stroke-linejoin:round;stroke-miterlimit:10;stroke-dasharray:2.88, 2.88;stroke-dashoffset:0;stroke-opacity:1"
         id="path38513" /></g><g
       id="g38515"
       transform="matrix(0.26458333,0,0,0.26458333,-2.4062913,8.9764745)"><path
         d="M 96.32,268.79999 112.8,252.32001"
         style="fill:none;stroke:#ff0000;stroke-width:0.96;stroke-linecap:round;stroke-linejoin:round;stroke-miterlimit:10;stroke-dasharray:2.88, 2.88;stroke-dashoffset:0;stroke-opacity:1"
         id="path38517" /></g><g
       id="g38519"
       transform="matrix(0.26458333,0,0,0.26458333,-2.4062913,8.9764745)"><path
         d="M 107.36,282.88 H 80"
         style="fill:none;stroke:#ff0000;stroke-width:0.96;stroke-linecap:round;stroke-linejoin:round;stroke-miterlimit:10;stroke-dasharray:2.88, 2.88;stroke-dashoffset:0;stroke-opacity:1"
         id="path38521" /></g><g
       id="g38523"
       transform="matrix(0.26458333,0,0,0.26458333,20.919376,80.096471)"><path
         d="m 0,0 c 0,0.96 -0.8,1.92 -1.92,1.92 -0.96,0 -1.92,-0.96 -1.92,-1.92 0,-1.12 0.96,-1.92 1.92,-1.92 C -0.8,-1.92 0,-1.12 0,0 Z"
         style="fill:#000000;fill-opacity:1;fill-rule:evenodd;stroke:none"
         id="path38525" /></g><g
       id="g38527"
       transform="matrix(0.26458333,0,0,0.26458333,20.919376,80.096471)"><path
         d="m 0,0 c 0,0.96 -0.8,1.92 -1.92,1.92 -0.96,0 -1.92,-0.96 -1.92,-1.92 0,-1.12 0.96,-1.92 1.92,-1.92 C -0.8,-1.92 0,-1.12 0,0 Z"
         style="fill:none;stroke:#000000;stroke-width:0.96;stroke-linecap:round;stroke-linejoin:round;stroke-miterlimit:10;stroke-dasharray:none;stroke-opacity:1"
         id="path38529" /></g><g
       id="g38531"
       transform="matrix(0.26458333,0,0,0.26458333,-2.4062913,8.9764745)"><path
         d="m 80,286.56 v -7.51999"
         style="fill:none;stroke:#000000;stroke-width:0.96;stroke-linecap:round;stroke-linejoin:round;stroke-miterlimit:10;stroke-dasharray:none;stroke-opacity:1"
         id="path38533" /></g><g
       id="g38535"
       transform="matrix(0.26458333,0,0,0.26458333,-2.4062913,8.9764745)"><path
         d="M 112.8,252.32001 125.6,239.52"
         style="fill:none;stroke:#000000;stroke-width:0.96;stroke-linecap:round;stroke-linejoin:round;stroke-miterlimit:10;stroke-dasharray:none;stroke-opacity:1"
         id="path38537" /></g><g
       id="g38539"
       transform="matrix(0.26458333,0,0,0.26458333,-2.4062913,8.9764745)"><path
         d="m 107.36,232 v 50.88"
         style="fill:none;stroke:#000000;stroke-width:0.96;stroke-linecap:round;stroke-linejoin:round;stroke-miterlimit:10;stroke-dasharray:none;stroke-opacity:1"
         id="path38541" /></g><g
       id="g38543"
       transform="matrix(0.26458333,0,0,0.26458333,30.825375,72.349474)"><path
         d="m 0,0 c 4.32,-4.16 4.32,-11.04 0,-15.2 -4.16,-4.160001 -10.88,-4.160001 -15.04,0 -2.080001,2.08 -3.2,4.8 -3.2,7.68"
         style="fill:none;stroke:#000000;stroke-width:0.96;stroke-linecap:round;stroke-linejoin:round;stroke-miterlimit:10;stroke-dasharray:none;stroke-opacity:1"
         id="path38545" /></g><g
       id="g38547"
       transform="matrix(0.26458333,0,0,0.26458333,-2.4062913,8.9764745)"><path
         d="M 88.160004,268.79999 H 96.32"
         style="fill:none;stroke:#ff0000;stroke-width:0.96;stroke-linecap:round;stroke-linejoin:round;stroke-miterlimit:10;stroke-dasharray:2.88, 2.88;stroke-dashoffset:0;stroke-opacity:1"
         id="path38549" /></g><g
       id="g38551"
       transform="matrix(0.26458333,0,0,0.26458333,-2.4062913,8.9764745)"><path
         d="M 96.32,268.79999 112.8,252.32001"
         style="fill:none;stroke:#ff0000;stroke-width:0.96;stroke-linecap:round;stroke-linejoin:round;stroke-miterlimit:10;stroke-dasharray:2.88, 2.88;stroke-dashoffset:0;stroke-opacity:1"
         id="path38553" /></g><g
       id="g38555"
       transform="matrix(0.26458333,0,0,0.26458333,-2.4062913,8.9764745)"><path
         d="M 107.36,282.88 H 80"
         style="fill:none;stroke:#ff0000;stroke-width:0.96;stroke-linecap:round;stroke-linejoin:round;stroke-miterlimit:10;stroke-dasharray:2.88, 2.88;stroke-dashoffset:0;stroke-opacity:1"
         id="path38557" /></g><g
       id="g38559"
       transform="matrix(0.26458333,0,0,0.26458333,20.919376,80.096471)"><path
         d="m 0,0 c 0,0.96 -0.8,1.92 -1.92,1.92 -0.96,0 -1.92,-0.96 -1.92,-1.92 0,-1.12 0.96,-1.92 1.92,-1.92 C -0.8,-1.92 0,-1.12 0,0 Z"
         style="fill:#000000;fill-opacity:1;fill-rule:evenodd;stroke:none"
         id="path38561" /></g><g
       id="g38563"
       transform="matrix(0.26458333,0,0,0.26458333,20.919376,80.096471)"><path
         d="m 0,0 c 0,0.96 -0.8,1.92 -1.92,1.92 -0.96,0 -1.92,-0.96 -1.92,-1.92 0,-1.12 0.96,-1.92 1.92,-1.92 C -0.8,-1.92 0,-1.12 0,0 Z"
         style="fill:none;stroke:#000000;stroke-width:0.96;stroke-linecap:round;stroke-linejoin:round;stroke-miterlimit:10;stroke-dasharray:none;stroke-opacity:1"
         id="path38565" /></g><g
       id="g38567"
       transform="matrix(0.26458333,0,0,0.26458333,-2.4062913,8.9764745)"><path
         d="m 80,286.56 v -7.51999"
         style="fill:none;stroke:#000000;stroke-width:0.96;stroke-linecap:round;stroke-linejoin:round;stroke-miterlimit:10;stroke-dasharray:none;stroke-opacity:1"
         id="path38569" /></g><g
       id="g38571"
       transform="matrix(0.26458333,0,0,0.26458333,-2.4062913,8.9764745)"><path
         d="M 112.8,252.32001 125.6,239.52"
         style="fill:none;stroke:#000000;stroke-width:0.96;stroke-linecap:round;stroke-linejoin:round;stroke-miterlimit:10;stroke-dasharray:none;stroke-opacity:1"
         id="path38573" /></g><g
       id="g38575"
       transform="matrix(0.26458333,0,0,0.26458333,-2.4062913,8.9764745)"><path
         d="m 107.36,232 v 50.88"
         style="fill:none;stroke:#000000;stroke-width:0.96;stroke-linecap:round;stroke-linejoin:round;stroke-miterlimit:10;stroke-dasharray:none;stroke-opacity:1"
         id="path38577" /></g><g
       id="g38579"
       transform="matrix(0.26458333,0,0,0.26458333,30.825375,72.349474)"><path
         d="m 0,0 c 4.32,-4.16 4.32,-11.04 0,-15.2 -4.16,-4.160001 -10.88,-4.160001 -15.04,0 -2.080001,2.08 -3.2,4.8 -3.2,7.68"
         style="fill:none;stroke:#000000;stroke-width:0.96;stroke-linecap:round;stroke-linejoin:round;stroke-miterlimit:10;stroke-dasharray:none;stroke-opacity:1"
         id="path38581" /></g><g
       id="g38583"
       transform="matrix(0.26458333,0,0,0.26458333,29.597708,75.99014)"><path
         d="m 0,0 -2.08,2.24 -12,-4.32 7.68,-7.68 4.32,12 z m 4.48,-4.32 -2.24,2.24 -6.88,-2.56 4.48,-4.32 2.4,6.88 z"
         style="fill:#ff0000;fill-opacity:1;fill-rule:evenodd;stroke:none"
         id="path38585" /></g><g
       id="g38587"
       transform="matrix(0.26458333,0,0,0.26458333,-2.4062913,8.9764745)"><path
         d="m 120.96,253.28 -2.08,2.24 -12,-4.32 7.68,-7.68 4.32,12"
         style="fill:none;stroke:#000000;stroke-width:0.48;stroke-linecap:round;stroke-linejoin:round;stroke-miterlimit:10;stroke-dasharray:none;stroke-opacity:1"
         id="path38589" /></g><g
       id="g38591"
       transform="matrix(0.26458333,0,0,0.26458333,-2.4062913,8.9764745)"><path
         d="m 125.44,248.96001 -2.24,2.23999 -6.88,-2.56 4.48,-4.31999 2.4,6.87999"
         style="fill:none;stroke:#000000;stroke-width:0.48;stroke-linecap:round;stroke-linejoin:round;stroke-miterlimit:10;stroke-dasharray:none;stroke-opacity:1"
         id="path38593" /></g><g
       id="g38595"
       transform="matrix(0.26458333,0,0,0.26458333,-2.4062913,8.9764745)"><path
         d="M 120,256.64001 126.56,250.08"
         style="fill:none;stroke:#000000;stroke-width:0.48;stroke-linecap:round;stroke-linejoin:round;stroke-miterlimit:10;stroke-dasharray:none;stroke-opacity:1"
         id="path38597" /></g><g
       id="g38599"
       transform="matrix(0.26458333,0,0,0.26458333,27.396375,78.022138)"><path
         d="m 0,0 0.64,-0.16 c 0.16,0.32 0.16,0.32 0.32,0.48 0,0.16 0.16,0.16 0.32,0.16 0.16,0 0.32,0 0.48,-0.16 C 1.76,0.16 1.92,0 1.92,-0.16 1.92,-0.48 1.76,-0.48 1.76,-0.64 1.6,-0.8 1.44,-0.8 1.28,-0.8 c 0,0 -0.16,0 -0.32,0 l 0.16,-0.64 c 0.16,0 0.32,0 0.48,-0.16 0,-0.16 0.16,-0.16 0.16,-0.32 C 1.76,-2.08 1.6,-2.24 1.6,-2.24 1.44,-2.4 1.44,-2.4 1.28,-2.4 c -0.16,0 -0.32,0 -0.32,0.16 -0.16,0 -0.16,0.16 -0.16,0.32 L 0,-2.08 c 0,-0.16 0.16,-0.32 0.16,-0.48 0.16,-0.16 0.32,-0.32 0.48,-0.48 0.16,0 0.48,0 0.64,0 0.32,0 0.64,0 0.96,0.32 0.16,0.16 0.32,0.48 0.32,0.64 0,0.48 -0.32,0.64 -0.64,0.96 0.16,0 0.48,0.16 0.48,0.32 0.16,0.16 0.32,0.32 0.32,0.64 C 2.72,0.16 2.56,0.48 2.24,0.8 2.08,0.96 1.76,1.12 1.28,1.12 0.96,1.12 0.64,1.12 0.32,0.8 0.16,0.64 0,0.32 0,0 Z M 2.88,1.12 4,-3.2 H 4.48 L 3.52,1.12 Z m 3.52,0 V 0.32 H 4.64 v -0.8 L 6.4,-3.04 h 0.64 v 2.56 h 0.64 v 0.8 H 7.04 v 0.8 z m 0,-1.6 v -1.44 l -0.96,1.44 z"
         style="fill:#ff0000;fill-opacity:1;fill-rule:nonzero;stroke:none"
         id="path38601" /></g><g
       id="g38603"
       transform="matrix(0.26458333,0,0,0.26458333,-2.4062913,8.9764745)"><path
         d="m 113.12,240.16 3.84,-0.96 -0.8,3.04 z"
         style="fill:#000000;fill-opacity:1;fill-rule:evenodd;stroke:none"
         id="path38605" /></g><g
       id="g38607"
       transform="matrix(0.26458333,0,0,0.26458333,-2.4062913,8.9764745)"><path
         d="m 121.28,243.52 c -2.24,-1.91999 -5.12,-3.19999 -8.16,-3.36"
         style="fill:none;stroke:#000000;stroke-width:0.48;stroke-linecap:butt;stroke-linejoin:miter;stroke-miterlimit:2;stroke-dasharray:none;stroke-opacity:1"
         id="path38609" /></g><g
       id="g38611"
       transform="matrix(0.26458333,0,0,0.26458333,-2.4062913,8.9764745)"><path
         d="m 113.12,240.16 3.84,-0.96 -0.8,3.04 z"
         style="fill:none;stroke:#000000;stroke-width:0.48;stroke-linecap:butt;stroke-linejoin:miter;stroke-miterlimit:2;stroke-dasharray:none;stroke-opacity:1"
         id="path38613" /></g><g
       id="g38615"
       transform="matrix(0.26458333,0,0,0.26458333,27.819708,71.629807)"><path
         d="m 0,0 h -0.8 v -3.04 c -0.32,0.32 -0.64,0.48 -1.12,0.64 v -0.64 c 0.32,-0.16 0.48,-0.32 0.8,-0.48 0.16,-0.16 0.32,-0.32 0.48,-0.64 H 0 Z M 0.8,0 1.92,-4.16 H 2.56 L 1.44,0 Z M 4.32,0 V -0.8 H 2.56 v -0.8 l 1.76,-2.56 h 0.8 V -1.6 H 5.6 v 0.8 H 5.12 V 0 Z m 0,-1.6 V -2.88 L 3.36,-1.6 Z"
         style="fill:#ff0000;fill-opacity:1;fill-rule:nonzero;stroke:none"
         id="path38617" /></g><g
       id="g38619"
       transform="matrix(0.26458333,0,0,0.26458333,-2.4062913,8.9764745)"><path
         d="m 113.12,240.16 3.84,-0.96 -0.8,3.04 z"
         style="fill:#000000;fill-opacity:1;fill-rule:evenodd;stroke:none"
         id="path38621" /></g><g
       id="g38623"
       transform="matrix(0.26458333,0,0,0.26458333,-2.4062913,8.9764745)"><path
         d="m 121.28,243.52 c -2.24,-1.91999 -5.12,-3.19999 -8.16,-3.36"
         style="fill:none;stroke:#000000;stroke-width:0.48;stroke-linecap:butt;stroke-linejoin:miter;stroke-miterlimit:2;stroke-dasharray:none;stroke-opacity:1"
         id="path38625" /></g><g
       id="g38627"
       transform="matrix(0.26458333,0,0,0.26458333,-2.4062913,8.9764745)"><path
         d="m 113.12,240.16 3.84,-0.96 -0.8,3.04 z"
         style="fill:none;stroke:#000000;stroke-width:0.48;stroke-linecap:butt;stroke-linejoin:miter;stroke-miterlimit:2;stroke-dasharray:none;stroke-opacity:1"
         id="path38629" /></g><g
       id="g38631"
       transform="matrix(0.26458333,0,0,0.26458333,27.819708,71.629807)"><path
         d="m 0,0 h -0.8 v -3.04 c -0.32,0.32 -0.64,0.48 -1.12,0.64 v -0.64 c 0.32,-0.16 0.48,-0.32 0.8,-0.48 0.16,-0.16 0.32,-0.32 0.48,-0.64 H 0 Z M 0.8,0 1.92,-4.16 H 2.56 L 1.44,0 Z M 4.32,0 V -0.8 H 2.56 v -0.8 l 1.76,-2.56 h 0.8 V -1.6 H 5.6 v 0.8 H 5.12 V 0 Z m 0,-1.6 V -2.88 L 3.36,-1.6 Z"
         style="fill:#ff0000;fill-opacity:1;fill-rule:nonzero;stroke:none"
         id="path38633" /></g><g
       id="g38635"
       transform="matrix(0.26458333,0,0,0.26458333,-2.4062913,8.9764745)"><path
         d="m 114.72,267.04001 -2.08,3.19998 -1.6,-2.56 z"
         style="fill:#000000;fill-opacity:1;fill-rule:evenodd;stroke:none"
         id="path38637" /></g><g
       id="g38639"
       transform="matrix(0.26458333,0,0,0.26458333,-2.4062913,8.9764745)"><path
         d="m 100,267.84 c 4.32,3.51999 10.72,3.20001 14.72,-0.79999"
         style="fill:none;stroke:#000000;stroke-width:0.48;stroke-linecap:butt;stroke-linejoin:miter;stroke-miterlimit:2;stroke-dasharray:none;stroke-opacity:1"
         id="path38641" /></g><g
       id="g38643"
       transform="matrix(0.26458333,0,0,0.26458333,-2.4062913,8.9764745)"><path
         d="m 114.72,267.04001 -2.08,3.19998 -1.6,-2.56 z"
         style="fill:none;stroke:#000000;stroke-width:0.48;stroke-linecap:butt;stroke-linejoin:miter;stroke-miterlimit:2;stroke-dasharray:none;stroke-opacity:1"
         id="path38645" /></g></g></svg>
