<?xml version="1.0" encoding="UTF-8" standalone="no"?>
<!-- Created with Inkscape (http://www.inkscape.org/) -->

<svg
   width="19.161287mm"
   height="20.669355mm"
   viewBox="0 0 19.161287 20.669351"
   version="1.1"
   id="svg15577"
   inkscape:version="1.2.2 (732a01da63, 2022-12-09)"
   sodipodi:docname="2.svg"
   xml:space="preserve"
   xmlns:inkscape="http://www.inkscape.org/namespaces/inkscape"
   xmlns:sodipodi="http://sodipodi.sourceforge.net/DTD/sodipodi-0.dtd"
   xmlns="http://www.w3.org/2000/svg"
   xmlns:svg="http://www.w3.org/2000/svg"><sodipodi:namedview
     id="namedview15579"
     pagecolor="#ffffff"
     bordercolor="#000000"
     borderopacity="0.25"
     inkscape:showpageshadow="2"
     inkscape:pageopacity="0.0"
     inkscape:pagecheckerboard="true"
     inkscape:deskcolor="#d1d1d1"
     inkscape:document-units="mm"
     showgrid="false"
     showborder="false"
     inkscape:zoom="2.9825758"
     inkscape:cx="291.69418"
     inkscape:cy="88.514097"
     inkscape:window-width="1920"
     inkscape:window-height="1017"
     inkscape:window-x="1912"
     inkscape:window-y="-8"
     inkscape:window-maximized="1"
     inkscape:current-layer="layer1" /><defs
     id="defs15574" /><g
     inkscape:label="Layer 1"
     inkscape:groupmode="layer"
     id="layer1"
     transform="translate(-10.229009,-73.133224)"><g
       id="g15014"
       transform="matrix(0.26458333,0,0,0.26458333,49.253236,55.298379)" /><g
       id="g13720"
       transform="matrix(0.26458333,0,0,0.26458333,18.006939,-99.253542)" /><g
       id="g18168"
       transform="matrix(0.26458333,0,0,0.26458333,27.213146,49.421226)" /><g
       id="g38647"
       transform="matrix(0.26458333,0,0,0.26458333,-10.75097,-2.7882825)"><path
         d="M 142.88,352 H 113.6"
         style="fill:none;stroke:#ff0000;stroke-width:0.96;stroke-linecap:round;stroke-linejoin:round;stroke-miterlimit:10;stroke-dasharray:6.72, 4.8;stroke-dashoffset:0;stroke-opacity:1"
         id="path38649" /></g><g
       id="g38651"
       transform="matrix(0.26458333,0,0,0.26458333,-10.75097,-2.7882825)"><path
         d="m 113.6,352 c -13.12,0 -23.680002,-10.56 -23.680002,-23.67999 0,-12.96002 10.560002,-23.52002 23.680002,-23.52002"
         style="fill:none;stroke:#ff0000;stroke-width:0.96;stroke-linecap:round;stroke-linejoin:round;stroke-miterlimit:10;stroke-dasharray:6.72, 4.8;stroke-dashoffset:0;stroke-opacity:1"
         id="path38653" /></g><g
       id="g38655"
       transform="matrix(0.26458333,0,0,0.26458333,-10.75097,-2.7882825)"><path
         d="m 113.6,304.79999 c 12.96,0 23.51999,10.56 23.51999,23.52002 C 137.11999,341.44 126.56,352 113.6,352"
         style="fill:none;stroke:#ff0000;stroke-width:0.96;stroke-linecap:round;stroke-linejoin:round;stroke-miterlimit:10;stroke-dasharray:6.72, 4.8;stroke-dashoffset:0;stroke-opacity:1"
         id="path38657" /></g><g
       id="g38659"
       transform="matrix(0.26458333,0,0,0.26458333,-10.75097,-2.7882825)"><path
         d="M 113.6,352 H 85.120003"
         style="fill:none;stroke:#ff0000;stroke-width:0.96;stroke-linecap:round;stroke-linejoin:round;stroke-miterlimit:10;stroke-dasharray:6.72, 4.8;stroke-dashoffset:0;stroke-opacity:1"
         id="path38661" /></g><g
       id="g38663"
       transform="matrix(0.26458333,0,0,0.26458333,-10.75097,-2.7882825)"><path
         d="m 94.559998,309.44 4.800003,4.79999"
         style="fill:none;stroke:#000000;stroke-width:0.96;stroke-linecap:round;stroke-linejoin:round;stroke-miterlimit:10;stroke-dasharray:none;stroke-opacity:1"
         id="path38665" /></g><g
       id="g38667"
       transform="matrix(0.26458333,0,0,0.26458333,-10.75097,-2.7882825)"><path
         d="m 132.48,309.44 -4.8,4.79999"
         style="fill:none;stroke:#000000;stroke-width:0.96;stroke-linecap:round;stroke-linejoin:round;stroke-miterlimit:10;stroke-dasharray:none;stroke-opacity:1"
         id="path38669" /></g><g
       id="g38671"
       transform="matrix(0.26458333,0,0,0.26458333,27.052696,90.34505)"><path
         d="m 0,0 c 0,-0.96 0.8,-1.92 1.76,-1.92 1.12,0 1.92,0.96 1.92,1.92 0,1.12 -0.8,1.92 -1.92,1.92 C 0.8,1.92 0,1.12 0,0 Z"
         style="fill:#000000;fill-opacity:1;fill-rule:evenodd;stroke:none"
         id="path38673" /></g><g
       id="g38675"
       transform="matrix(0.26458333,0,0,0.26458333,27.052696,90.34505)"><path
         d="m 0,0 c 0,-0.96 0.8,-1.92 1.76,-1.92 1.12,0 1.92,0.96 1.92,1.92 0,1.12 -0.8,1.92 -1.92,1.92 C 0.8,1.92 0,1.12 0,0 Z"
         style="fill:none;stroke:#000000;stroke-width:0.96;stroke-linecap:round;stroke-linejoin:round;stroke-miterlimit:10;stroke-dasharray:none;stroke-opacity:1"
         id="path38677" /></g><g
       id="g38679"
       transform="matrix(0.26458333,0,0,0.26458333,-10.75097,-2.7882825)"><path
         d="M 85.120003,359.51999 V 344.48001"
         style="fill:none;stroke:#000000;stroke-width:0.96;stroke-linecap:round;stroke-linejoin:round;stroke-miterlimit:10;stroke-dasharray:none;stroke-opacity:1"
         id="path38681" /></g><g
       id="g38683"
       transform="matrix(0.26458333,0,0,0.26458333,-10.75097,-2.7882825)"><path
         d="M 142.88,352 H 113.6"
         style="fill:none;stroke:#ff0000;stroke-width:0.96;stroke-linecap:round;stroke-linejoin:round;stroke-miterlimit:10;stroke-dasharray:6.72, 4.8;stroke-dashoffset:0;stroke-opacity:1"
         id="path38685" /></g><g
       id="g38687"
       transform="matrix(0.26458333,0,0,0.26458333,-10.75097,-2.7882825)"><path
         d="m 113.6,352 c -13.12,0 -23.680002,-10.56 -23.680002,-23.67999 0,-12.96002 10.560002,-23.52002 23.680002,-23.52002"
         style="fill:none;stroke:#ff0000;stroke-width:0.96;stroke-linecap:round;stroke-linejoin:round;stroke-miterlimit:10;stroke-dasharray:6.72, 4.8;stroke-dashoffset:0;stroke-opacity:1"
         id="path38689" /></g><g
       id="g38691"
       transform="matrix(0.26458333,0,0,0.26458333,-10.75097,-2.7882825)"><path
         d="m 113.6,304.79999 c 12.96,0 23.51999,10.56 23.51999,23.52002 C 137.11999,341.44 126.56,352 113.6,352"
         style="fill:none;stroke:#ff0000;stroke-width:0.96;stroke-linecap:round;stroke-linejoin:round;stroke-miterlimit:10;stroke-dasharray:6.72, 4.8;stroke-dashoffset:0;stroke-opacity:1"
         id="path38693" /></g><g
       id="g38695"
       transform="matrix(0.26458333,0,0,0.26458333,-10.75097,-2.7882825)"><path
         d="M 113.6,352 H 85.120003"
         style="fill:none;stroke:#ff0000;stroke-width:0.96;stroke-linecap:round;stroke-linejoin:round;stroke-miterlimit:10;stroke-dasharray:6.72, 4.8;stroke-dashoffset:0;stroke-opacity:1"
         id="path38697" /></g><g
       id="g38699"
       transform="matrix(0.26458333,0,0,0.26458333,-10.75097,-2.7882825)"><path
         d="m 94.559998,309.44 4.800003,4.79999"
         style="fill:none;stroke:#000000;stroke-width:0.96;stroke-linecap:round;stroke-linejoin:round;stroke-miterlimit:10;stroke-dasharray:none;stroke-opacity:1"
         id="path38701" /></g><g
       id="g38703"
       transform="matrix(0.26458333,0,0,0.26458333,-10.75097,-2.7882825)"><path
         d="m 132.48,309.44 -4.8,4.79999"
         style="fill:none;stroke:#000000;stroke-width:0.96;stroke-linecap:round;stroke-linejoin:round;stroke-miterlimit:10;stroke-dasharray:none;stroke-opacity:1"
         id="path38705" /></g><g
       id="g38707"
       transform="matrix(0.26458333,0,0,0.26458333,27.052696,90.34505)"><path
         d="m 0,0 c 0,-0.96 0.8,-1.92 1.76,-1.92 1.12,0 1.92,0.96 1.92,1.92 0,1.12 -0.8,1.92 -1.92,1.92 C 0.8,1.92 0,1.12 0,0 Z"
         style="fill:#000000;fill-opacity:1;fill-rule:evenodd;stroke:none"
         id="path38709" /></g><g
       id="g38711"
       transform="matrix(0.26458333,0,0,0.26458333,27.052696,90.34505)"><path
         d="m 0,0 c 0,-0.96 0.8,-1.92 1.76,-1.92 1.12,0 1.92,0.96 1.92,1.92 0,1.12 -0.8,1.92 -1.92,1.92 C 0.8,1.92 0,1.12 0,0 Z"
         style="fill:none;stroke:#000000;stroke-width:0.96;stroke-linecap:round;stroke-linejoin:round;stroke-miterlimit:10;stroke-dasharray:none;stroke-opacity:1"
         id="path38713" /></g><g
       id="g38715"
       transform="matrix(0.26458333,0,0,0.26458333,-10.75097,-2.7882825)"><path
         d="M 85.120003,359.51999 V 344.48001"
         style="fill:none;stroke:#000000;stroke-width:0.96;stroke-linecap:round;stroke-linejoin:round;stroke-miterlimit:10;stroke-dasharray:none;stroke-opacity:1"
         id="path38717" /></g><g
       id="g38719"
       transform="matrix(0.26458333,0,0,0.26458333,-10.75097,-2.7882825)"><path
         d="m 104.32,296.95999 4.32,1.28 -2.4,2.56 z"
         style="fill:#000000;fill-opacity:1;fill-rule:evenodd;stroke:none"
         id="path38721" /></g><g
       id="g38723"
       transform="matrix(0.26458333,0,0,0.26458333,-10.75097,-2.7882825)"><path
         d="m 110.4,305.12 c -0.96,-3.35999 -3.2,-6.24 -6.08,-8.16001"
         style="fill:none;stroke:#000000;stroke-width:0.48;stroke-linecap:butt;stroke-linejoin:miter;stroke-miterlimit:2;stroke-dasharray:none;stroke-opacity:1"
         id="path38725" /></g><g
       id="g38727"
       transform="matrix(0.26458333,0,0,0.26458333,-10.75097,-2.7882825)"><path
         d="m 104.32,296.95999 4.32,1.28 -2.4,2.56 z"
         style="fill:none;stroke:#000000;stroke-width:0.48;stroke-linecap:butt;stroke-linejoin:miter;stroke-miterlimit:2;stroke-dasharray:none;stroke-opacity:1"
         id="path38729" /></g><g
       id="g38731"
       transform="matrix(0.26458333,0,0,0.26458333,17.866363,75.316719)"><path
         d="m 0,0 h 0.96 c 0,0.16 0,0.32 0.16,0.48 0.16,0.16 0.32,0.16 0.48,0.16 0.16,0 0.32,0 0.48,-0.16 0.16,-0.16 0.16,-0.32 0.16,-0.64 0,-0.16 0,-0.48 -0.16,-0.48 C 1.92,-0.8 1.76,-0.96 1.6,-0.96 c -0.16,0 -0.16,0 -0.32,0.16 v -0.8 c 0.32,0 0.48,0 0.64,-0.16 0.16,-0.16 0.16,-0.32 0.16,-0.48 0,-0.16 0,-0.32 -0.16,-0.32 -0.16,-0.16 -0.16,-0.16 -0.32,-0.16 -0.16,0 -0.32,0 -0.48,0.16 0,0.16 -0.16,0.32 -0.16,0.48 l -0.8,-0.16 c 0,-0.32 0.16,-0.48 0.16,-0.64 0.16,-0.16 0.32,-0.32 0.48,-0.48 0.32,0 0.48,-0.16 0.8,-0.16 0.48,0 0.8,0.16 1.12,0.48 0.16,0.16 0.32,0.48 0.32,0.8 0,0.48 -0.32,0.8 -0.8,0.96 0.32,0.16 0.48,0.16 0.8,0.48 0.16,0.16 0.16,0.32 0.16,0.64 0,0.48 -0.16,0.8 -0.48,1.12 C 2.4,1.28 2.08,1.44 1.6,1.44 1.12,1.44 0.8,1.28 0.48,0.96 0.32,0.8 0.16,0.48 0,0 Z M 3.52,1.28 4.8,-0.48 3.52,-2.08 h 1.12 l 0.64,0.96 0.64,-0.96 h 1.12 l -1.28,1.6 1.28,1.76 H 5.92 L 5.28,0.16 4.64,1.28 Z m 5.76,0 V 0.32 H 7.2 v -0.8 l 2.08,-3.04 h 0.8 v 3.04 h 0.64 v 0.8 h -0.64 v 0.96 z m 0,-1.76 v -1.6 l -1.12,1.6 z"
         style="fill:#ff0000;fill-opacity:1;fill-rule:nonzero;stroke:none"
         id="path38733" /></g><g
       id="g38735"
       transform="matrix(0.26458333,0,0,0.26458333,-10.75097,-2.7882825)"><path
         d="m 104.32,296.95999 4.32,1.28 -2.4,2.56 z"
         style="fill:#000000;fill-opacity:1;fill-rule:evenodd;stroke:none"
         id="path38737" /></g><g
       id="g38739"
       transform="matrix(0.26458333,0,0,0.26458333,-10.75097,-2.7882825)"><path
         d="m 110.4,305.12 c -0.96,-3.35999 -3.2,-6.24 -6.08,-8.16001"
         style="fill:none;stroke:#000000;stroke-width:0.48;stroke-linecap:butt;stroke-linejoin:miter;stroke-miterlimit:2;stroke-dasharray:none;stroke-opacity:1"
         id="path38741" /></g><g
       id="g38743"
       transform="matrix(0.26458333,0,0,0.26458333,-10.75097,-2.7882825)"><path
         d="m 104.32,296.95999 4.32,1.28 -2.4,2.56 z"
         style="fill:none;stroke:#000000;stroke-width:0.48;stroke-linecap:butt;stroke-linejoin:miter;stroke-miterlimit:2;stroke-dasharray:none;stroke-opacity:1"
         id="path38745" /></g><g
       id="g38747"
       transform="matrix(0.26458333,0,0,0.26458333,17.866363,75.316719)"><path
         d="m 0,0 h 0.96 c 0,0.16 0,0.32 0.16,0.48 0.16,0.16 0.32,0.16 0.48,0.16 0.16,0 0.32,0 0.48,-0.16 0.16,-0.16 0.16,-0.32 0.16,-0.64 0,-0.16 0,-0.48 -0.16,-0.48 C 1.92,-0.8 1.76,-0.96 1.6,-0.96 c -0.16,0 -0.16,0 -0.32,0.16 v -0.8 c 0.32,0 0.48,0 0.64,-0.16 0.16,-0.16 0.16,-0.32 0.16,-0.48 0,-0.16 0,-0.32 -0.16,-0.32 -0.16,-0.16 -0.16,-0.16 -0.32,-0.16 -0.16,0 -0.32,0 -0.48,0.16 0,0.16 -0.16,0.32 -0.16,0.48 l -0.8,-0.16 c 0,-0.32 0.16,-0.48 0.16,-0.64 0.16,-0.16 0.32,-0.32 0.48,-0.48 0.32,0 0.48,-0.16 0.8,-0.16 0.48,0 0.8,0.16 1.12,0.48 0.16,0.16 0.32,0.48 0.32,0.8 0,0.48 -0.32,0.8 -0.8,0.96 0.32,0.16 0.48,0.16 0.8,0.48 0.16,0.16 0.16,0.32 0.16,0.64 0,0.48 -0.16,0.8 -0.48,1.12 C 2.4,1.28 2.08,1.44 1.6,1.44 1.12,1.44 0.8,1.28 0.48,0.96 0.32,0.8 0.16,0.48 0,0 Z M 3.52,1.28 4.8,-0.48 3.52,-2.08 h 1.12 l 0.64,0.96 0.64,-0.96 h 1.12 l -1.28,1.6 1.28,1.76 H 5.92 L 5.28,0.16 4.64,1.28 Z m 5.76,0 V 0.32 H 7.2 v -0.8 l 2.08,-3.04 h 0.8 v 3.04 h 0.64 v 0.8 h -0.64 v 0.96 z m 0,-1.76 v -1.6 l -1.12,1.6 z"
         style="fill:#ff0000;fill-opacity:1;fill-rule:nonzero;stroke:none"
         id="path38749" /></g><g
       id="g38751"
       transform="matrix(0.26458333,0,0,0.26458333,-10.75097,-2.7882825)"><path
         d="m 120.64,315.67999 -3.04,-0.79999 -1.92,-10.23999 8.48,2.23999 -6.56,8 z"
         style="fill:#ff0000;fill-opacity:1;fill-rule:evenodd;stroke:none"
         id="path38753" /></g><g
       id="g38755"
       transform="matrix(0.26458333,0,0,0.26458333,-10.75097,-2.7882825)"><path
         d="m 120.64,315.67999 -3.04,-0.79999 -1.92,-10.23999 8.48,2.23999 -6.56,8"
         style="fill:none;stroke:#000000;stroke-width:0.48;stroke-linecap:round;stroke-linejoin:round;stroke-miterlimit:10;stroke-dasharray:none;stroke-opacity:1"
         id="path38757" /></g><g
       id="g38759"
       transform="matrix(0.26458333,0,0,0.26458333,21.591696,81.37038)"><path
         d="m 0,0 0.96,-0.16 c 0,0.32 0,0.48 0.16,0.64 0.16,0 0.32,0.16 0.48,0.16 0.16,0 0.32,-0.16 0.48,-0.32 C 2.24,0.16 2.24,0 2.24,-0.16 c 0,-0.32 0,-0.48 -0.16,-0.64 -0.16,-0.16 -0.32,-0.16 -0.48,-0.16 -0.16,0 -0.16,0 -0.32,0 V -1.6 c 0.32,0 0.48,-0.16 0.64,-0.16 0.16,-0.16 0.16,-0.32 0.16,-0.48 0,-0.16 0,-0.32 -0.16,-0.32 -0.16,-0.16 -0.16,-0.16 -0.32,-0.16 -0.16,0 -0.32,0 -0.48,0.16 -0.16,0 -0.16,0.16 -0.16,0.48 l -0.8,-0.16 c 0,-0.32 0.16,-0.64 0.16,-0.8 0.16,-0.16 0.32,-0.32 0.48,-0.32 0.32,-0.16 0.48,-0.16 0.8,-0.16 0.48,0 0.8,0.16 1.12,0.48 0.16,0.16 0.32,0.48 0.32,0.8 0,0.32 -0.32,0.64 -0.8,0.96 0.32,0 0.48,0.16 0.64,0.32 0.16,0.32 0.32,0.48 0.32,0.8 0,0.48 -0.16,0.8 -0.48,1.12 C 2.4,1.12 2.08,1.28 1.6,1.28 1.12,1.28 0.8,1.28 0.48,0.96 0.16,0.64 0,0.32 0,0 Z m 3.52,1.28 1.12,-4.8 h 0.64 l -1.12,4.8 z m 4,0 V 0.32 H 5.44 v -0.8 l 2.08,-3.04 h 0.8 v 3.04 h 0.64 v 0.8 H 8.32 v 0.96 z m 0,-1.76 v -1.6 l -1.12,1.6 z"
         style="fill:#ff0000;fill-opacity:1;fill-rule:nonzero;stroke:none"
         id="path38761" /></g></g></svg>
