<?xml version="1.0" standalone="no"?>
<!DOCTYPE svg PUBLIC "-//W3C//DTD SVG 1.2//EN" "http://www.w3.org/Graphics/SVG/1.2/DTD/svg12.dtd">
<svg xmlns="http://www.w3.org/2000/svg" version="1.2" baseProfile="tiny" id="selectedFigureSvg" width="100px" height="100px" viewBox="-11.13 -124.01 119.63 257.39"><g id="sequence"><g id="figure-2"><path d="M 0,0 m -4,0 a4,4 0 1 1 0,0.01" style="stroke: black; stroke-width: 1px; fill: black;"/><path d="M 4,0 l 32,0" style="stroke-dasharray: 10, 8; stroke: red; stroke-width: 3px; fill: none; " class="line" id="figure-2-entry"/><path d="M 36,0 l 16.97,-16.97" style="stroke-dasharray: 10, 8; stroke: red; stroke-width: 3px; fill: none; " class="line" id="figure-2-roll0-gap0"/><path d="M 52.97,-16.97 m 11.84,11.84 l 5.66,-5.66 " style="stroke: black; stroke-width: 3px; fill: none;"/><path d="M 52.97,-16.97 m 11.31,11.31 l -10.18,-23.76 l -13.58,13.58 z" style="stroke: black; stroke-width: 1.5px; fill: red;"/><text style="font-family: Arial, Sans; font-size: 20px; font-weight: bold; fill: red;" text-anchor="middle" x="86.3" y="9.83">3/4</text><path d="M 57.21,-21.21 l 9.62,-9.62" style="stroke-dasharray: 10, 8; stroke: red; stroke-width: 3px; fill: none; " class="line"/><path d="M 66.83,-30.83 m 19.23,7.92 l -20.93,20.93" style="stroke: black; stroke-width: 3px; fill: none;"/><path d="M 66.83,-30.83 m 11.84,11.84 l 5.66,-5.66 " style="stroke: black; stroke-width: 3px; fill: none;"/><path d="M 66.83,-30.83 m 11.31,11.31 l -5.66,-16.97 l -11.31,11.31 z" style="stroke: black; stroke-width: 1.5px; fill: red;"/><path d="M 71.07,-35.07 l 11.31,-11.31" style="stroke-dasharray: 10, 8; stroke: red; stroke-width: 3px; fill: none; " class="line" id="figure-2-roll0-gap1"/><path d="M 82.38,-46.38 m -16.38,-5.73 l 8.45,-3.31 l -2.07,7.73 z" style="stroke: black; stroke-width: 2px; fill: black;"/><path d="M 82.38,-46.38 m -16.38,-5.73 a 20,20 0 0 1 16.38,5.73 " style="stroke: black; stroke-width: 3px; fill: none;"/><text style="font-family: Arial, Sans; font-size: 20px; font-weight: bold; fill: red;" text-anchor="middle" x="56.12" y="-60.59">1/4</text><path d="M 82.38,-46.38 l 11.31,-11.31" style="stroke: black; stroke-width: 3px; fill: none;" class="line" id="figure-2-roll0-gap2"/><path d="M 93.69,-57.69 a32,32 0 1 0 -54.63,-22.63" style="stroke: black; stroke-width: 3px; fill: none;"/><path d="M 39.06,-80.32 l 0,136" style="stroke: black; stroke-width: 3px; fill: none;" class="line" id="figure-2-roll1-gap0"/><path d="M 39.06,55.68 m 15.64,-7.53 l -3.64,8.31 l -4,-6.93 z" style="stroke: black; stroke-width: 2px; fill: black;"/><path d="M 39.06,55.68 m 15.64,-7.53 a 20,20 0 0 1 -25.64,4.85 " style="stroke: black; stroke-width: 3px; fill: none;"/><path d="M 39.06,55.68 l 0,56" style="stroke: black; stroke-width: 3px; fill: none;" class="line" id="figure-2-roll1-gap1"/><path d="M 39.06,111.68 l -32,0" style="stroke-dasharray: 10, 8; stroke: red; stroke-width: 3px; fill: none; " class="line" id="figure-2-exit"/><path d="M 7.06,111.68 l 0,-10 l 0,20" style="stroke: black; stroke-width: 3px; fill: none;"/></g></g></svg>