<?xml version="1.0" encoding="UTF-8" standalone="no"?>
<!-- Created with Inkscape (http://www.inkscape.org/) -->

<svg
   width="16.588709mm"
   height="17.387094mm"
   viewBox="0 0 16.588709 17.387091"
   version="1.1"
   id="svg15577"
   inkscape:version="1.2.2 (732a01da63, 2022-12-09)"
   sodipodi:docname="3.svg"
   xml:space="preserve"
   xmlns:inkscape="http://www.inkscape.org/namespaces/inkscape"
   xmlns:sodipodi="http://sodipodi.sourceforge.net/DTD/sodipodi-0.dtd"
   xmlns="http://www.w3.org/2000/svg"
   xmlns:svg="http://www.w3.org/2000/svg"><sodipodi:namedview
     id="namedview15579"
     pagecolor="#ffffff"
     bordercolor="#000000"
     borderopacity="0.25"
     inkscape:showpageshadow="2"
     inkscape:pageopacity="0.0"
     inkscape:pagecheckerboard="true"
     inkscape:deskcolor="#d1d1d1"
     inkscape:document-units="mm"
     showgrid="false"
     showborder="false"
     inkscape:zoom="2.9825758"
     inkscape:cx="259.17196"
     inkscape:cy="96.896114"
     inkscape:window-width="1920"
     inkscape:window-height="1017"
     inkscape:window-x="1912"
     inkscape:window-y="-8"
     inkscape:window-maximized="1"
     inkscape:current-layer="layer1" /><defs
     id="defs15574" /><g
     inkscape:label="Layer 1"
     inkscape:groupmode="layer"
     id="layer1"
     transform="translate(-18.833847,-70.915482)"><g
       id="g15014"
       transform="matrix(0.26458333,0,0,0.26458333,49.253236,55.298379)" /><g
       id="g13720"
       transform="matrix(0.26458333,0,0,0.26458333,18.006939,-99.253542)" /><g
       id="g18168"
       transform="matrix(0.26458333,0,0,0.26458333,27.213146,49.421226)" /><g
       id="g38763"
       transform="matrix(0.26458333,0,0,0.26458333,-2.9429409,-25.304192)"><path
         d="M 131.2,407.51999 H 109.6"
         style="fill:none;stroke:#ff0000;stroke-width:0.96;stroke-linecap:round;stroke-linejoin:round;stroke-miterlimit:10;stroke-dasharray:2.88, 2.88;stroke-dashoffset:0;stroke-opacity:1"
         id="path38765" /></g><g
       id="g38767"
       transform="matrix(0.26458333,0,0,0.26458333,-2.9429409,-25.304192)"><path
         d="M 109.6,407.51999 V 382.72"
         style="fill:none;stroke:#ff0000;stroke-width:0.96;stroke-linecap:round;stroke-linejoin:round;stroke-miterlimit:10;stroke-dasharray:2.88, 2.88;stroke-dashoffset:0;stroke-opacity:1"
         id="path38769" /></g><g
       id="g38771"
       transform="matrix(0.26458333,0,0,0.26458333,-2.9429409,-25.304192)"><path
         d="m 109.6,382.72 c 0,-4 3.2,-7.20001 7.2,-7.20001 4,0 7.2,3.20001 7.2,7.20001"
         style="fill:none;stroke:#ff0000;stroke-width:0.96;stroke-linecap:round;stroke-linejoin:round;stroke-miterlimit:10;stroke-dasharray:2.88, 2.88;stroke-dashoffset:0;stroke-opacity:1"
         id="path38773" /></g><g
       id="g38775"
       transform="matrix(0.26458333,0,0,0.26458333,-2.9429409,-25.304192)"><path
         d="m 124,382.72 v 24.79999"
         style="fill:none;stroke:#ff0000;stroke-width:0.96;stroke-linecap:round;stroke-linejoin:round;stroke-miterlimit:10;stroke-dasharray:2.88, 2.88;stroke-dashoffset:0;stroke-opacity:1"
         id="path38777" /></g><g
       id="g38779"
       transform="matrix(0.26458333,0,0,0.26458333,-2.9429409,-25.304192)"><path
         d="m 124,407.51999 c 0,8 -6.56,14.40002 -14.4,14.40002 -8,0 -14.400003,-6.40002 -14.400003,-14.40002"
         style="fill:none;stroke:#ff0000;stroke-width:0.96;stroke-linecap:round;stroke-linejoin:round;stroke-miterlimit:10;stroke-dasharray:2.88, 2.88;stroke-dashoffset:0;stroke-opacity:1"
         id="path38781" /></g><g
       id="g38783"
       transform="matrix(0.26458333,0,0,0.26458333,-2.9429409,-25.304192)"><path
         d="m 95.199997,407.51999 v -34.56"
         style="fill:none;stroke:#ff0000;stroke-width:0.96;stroke-linecap:round;stroke-linejoin:round;stroke-miterlimit:10;stroke-dasharray:2.88, 2.88;stroke-dashoffset:0;stroke-opacity:1"
         id="path38785" /></g><g
       id="g38787"
       transform="matrix(0.26458333,0,0,0.26458333,31.770392,82.518804)"><path
         d="m 0,0 c 0,-1.12 0.8,-1.92 1.92,-1.92 0.96,0 1.76,0.8 1.76,1.92 0,0.96 -0.8,1.92 -1.76,1.92 C 0.8,1.92 0,0.96 0,0 Z"
         style="fill:#000000;fill-opacity:1;fill-rule:evenodd;stroke:none"
         id="path38789" /></g><g
       id="g38791"
       transform="matrix(0.26458333,0,0,0.26458333,31.770392,82.518804)"><path
         d="m 0,0 c 0,-1.12 0.8,-1.92 1.92,-1.92 0.96,0 1.76,0.8 1.76,1.92 0,0.96 -0.8,1.92 -1.76,1.92 C 0.8,1.92 0,0.96 0,0 Z"
         style="fill:none;stroke:#000000;stroke-width:0.96;stroke-linecap:round;stroke-linejoin:round;stroke-miterlimit:10;stroke-dasharray:none;stroke-opacity:1"
         id="path38793" /></g><g
       id="g38795"
       transform="matrix(0.26458333,0,0,0.26458333,-2.9429409,-25.304192)"><path
         d="M 138.39999,376.79999 V 369.12"
         style="fill:none;stroke:#000000;stroke-width:0.96;stroke-linecap:round;stroke-linejoin:round;stroke-miterlimit:10;stroke-dasharray:none;stroke-opacity:1"
         id="path38797" /></g><g
       id="g38799"
       transform="matrix(0.26458333,0,0,0.26458333,-2.9429409,-25.304192)"><path
         d="M 95.199997,372.95999 H 138.39999"
         style="fill:none;stroke:#000000;stroke-width:0.96;stroke-linecap:round;stroke-linejoin:round;stroke-miterlimit:10;stroke-dasharray:none;stroke-opacity:1"
         id="path38801" /></g><g
       id="g38803"
       transform="matrix(0.26458333,0,0,0.26458333,-2.9429409,-25.304192)"><path
         d="M 131.2,407.51999 H 109.6"
         style="fill:none;stroke:#ff0000;stroke-width:0.96;stroke-linecap:round;stroke-linejoin:round;stroke-miterlimit:10;stroke-dasharray:2.88, 2.88;stroke-dashoffset:0;stroke-opacity:1"
         id="path38805" /></g><g
       id="g38807"
       transform="matrix(0.26458333,0,0,0.26458333,-2.9429409,-25.304192)"><path
         d="M 109.6,407.51999 V 382.72"
         style="fill:none;stroke:#ff0000;stroke-width:0.96;stroke-linecap:round;stroke-linejoin:round;stroke-miterlimit:10;stroke-dasharray:2.88, 2.88;stroke-dashoffset:0;stroke-opacity:1"
         id="path38809" /></g><g
       id="g38811"
       transform="matrix(0.26458333,0,0,0.26458333,-2.9429409,-25.304192)"><path
         d="m 109.6,382.72 c 0,-4 3.2,-7.20001 7.2,-7.20001 4,0 7.2,3.20001 7.2,7.20001"
         style="fill:none;stroke:#ff0000;stroke-width:0.96;stroke-linecap:round;stroke-linejoin:round;stroke-miterlimit:10;stroke-dasharray:2.88, 2.88;stroke-dashoffset:0;stroke-opacity:1"
         id="path38813" /></g><g
       id="g38815"
       transform="matrix(0.26458333,0,0,0.26458333,-2.9429409,-25.304192)"><path
         d="m 124,382.72 v 24.79999"
         style="fill:none;stroke:#ff0000;stroke-width:0.96;stroke-linecap:round;stroke-linejoin:round;stroke-miterlimit:10;stroke-dasharray:2.88, 2.88;stroke-dashoffset:0;stroke-opacity:1"
         id="path38817" /></g><g
       id="g38819"
       transform="matrix(0.26458333,0,0,0.26458333,-2.9429409,-25.304192)"><path
         d="m 124,407.51999 c 0,8 -6.56,14.40002 -14.4,14.40002 -8,0 -14.400003,-6.40002 -14.400003,-14.40002"
         style="fill:none;stroke:#ff0000;stroke-width:0.96;stroke-linecap:round;stroke-linejoin:round;stroke-miterlimit:10;stroke-dasharray:2.88, 2.88;stroke-dashoffset:0;stroke-opacity:1"
         id="path38821" /></g><g
       id="g38823"
       transform="matrix(0.26458333,0,0,0.26458333,-2.9429409,-25.304192)"><path
         d="m 95.199997,407.51999 v -34.56"
         style="fill:none;stroke:#ff0000;stroke-width:0.96;stroke-linecap:round;stroke-linejoin:round;stroke-miterlimit:10;stroke-dasharray:2.88, 2.88;stroke-dashoffset:0;stroke-opacity:1"
         id="path38825" /></g><g
       id="g38827"
       transform="matrix(0.26458333,0,0,0.26458333,31.770392,82.518804)"><path
         d="m 0,0 c 0,-1.12 0.8,-1.92 1.92,-1.92 0.96,0 1.76,0.8 1.76,1.92 0,0.96 -0.8,1.92 -1.76,1.92 C 0.8,1.92 0,0.96 0,0 Z"
         style="fill:#000000;fill-opacity:1;fill-rule:evenodd;stroke:none"
         id="path38829" /></g><g
       id="g38831"
       transform="matrix(0.26458333,0,0,0.26458333,31.770392,82.518804)"><path
         d="m 0,0 c 0,-1.12 0.8,-1.92 1.92,-1.92 0.96,0 1.76,0.8 1.76,1.92 0,0.96 -0.8,1.92 -1.76,1.92 C 0.8,1.92 0,0.96 0,0 Z"
         style="fill:none;stroke:#000000;stroke-width:0.96;stroke-linecap:round;stroke-linejoin:round;stroke-miterlimit:10;stroke-dasharray:none;stroke-opacity:1"
         id="path38833" /></g><g
       id="g38835"
       transform="matrix(0.26458333,0,0,0.26458333,-2.9429409,-25.304192)"><path
         d="M 138.39999,376.79999 V 369.12"
         style="fill:none;stroke:#000000;stroke-width:0.96;stroke-linecap:round;stroke-linejoin:round;stroke-miterlimit:10;stroke-dasharray:none;stroke-opacity:1"
         id="path38837" /></g><g
       id="g38839"
       transform="matrix(0.26458333,0,0,0.26458333,-2.9429409,-25.304192)"><path
         d="M 95.199997,372.95999 H 138.39999"
         style="fill:none;stroke:#000000;stroke-width:0.96;stroke-linecap:round;stroke-linejoin:round;stroke-miterlimit:10;stroke-dasharray:none;stroke-opacity:1"
         id="path38841" /></g><g
       id="g38843"
       transform="matrix(0.26458333,0,0,0.26458333,-2.9429409,-25.304192)"><path
         d="m 115.84,397.12 v -4"
         style="fill:none;stroke:#000000;stroke-width:0.48;stroke-linecap:round;stroke-linejoin:round;stroke-miterlimit:10;stroke-dasharray:none;stroke-opacity:1"
         id="path38845" /></g><g
       id="g38847"
       transform="matrix(0.26458333,0,0,0.26458333,27.537059,79.640143)"><path
         d="m 0,0 -1.44,-2.4 -1.12,1.92 z m 0,-2.88 -1.44,-2.4 -1.12,1.92 z"
         style="fill:#000000;fill-opacity:1;fill-rule:evenodd;stroke:none"
         id="path38849" /></g><g
       id="g38851"
       transform="matrix(0.26458333,0,0,0.26458333,-2.9429409,-25.304192)"><path
         d="m 104.8,396 c 1.44,-1.12 3.04,-1.60001 4.64,-1.76001 2.08,0.16 4.16,0.96002 5.76,2.40002"
         style="fill:none;stroke:#000000;stroke-width:0.48;stroke-linecap:butt;stroke-linejoin:miter;stroke-miterlimit:2;stroke-dasharray:none;stroke-opacity:1"
         id="path38853" /></g><g
       id="g38855"
       transform="matrix(0.26458333,0,0,0.26458333,-2.9429409,-25.304192)"><path
         d="m 109.44,391.35999 c 2.08,0.16 4.16,0.96002 5.76,2.40002"
         style="fill:none;stroke:#000000;stroke-width:0.48;stroke-linecap:butt;stroke-linejoin:miter;stroke-miterlimit:2;stroke-dasharray:none;stroke-opacity:1"
         id="path38857" /></g><g
       id="g38859"
       transform="matrix(0.26458333,0,0,0.26458333,-2.9429409,-25.304192)"><path
         d="m 115.2,396.64001 -1.44,-2.40002 -1.12,1.92001 z"
         style="fill:none;stroke:#000000;stroke-width:0.48;stroke-linecap:butt;stroke-linejoin:miter;stroke-miterlimit:2;stroke-dasharray:none;stroke-opacity:1"
         id="path38861" /></g><g
       id="g38863"
       transform="matrix(0.26458333,0,0,0.26458333,-2.9429409,-25.304192)"><path
         d="m 115.2,393.76001 -1.44,-2.40002 -1.12,1.92001 z"
         style="fill:none;stroke:#000000;stroke-width:0.48;stroke-linecap:butt;stroke-linejoin:miter;stroke-miterlimit:2;stroke-dasharray:none;stroke-opacity:1"
         id="path38865" /></g><g
       id="g38867"
       transform="matrix(0.00322977,0,0,0.00322977,-2.9429409,-25.304192)"><text
         xml:space="preserve"
         transform="translate(8414.8799,31929.1)"
         style="font-variant:normal;font-weight:normal;font-size:327.68px;font-family:F1;-inkscape-font-specification:F1;writing-mode:lr-tb;fill:#ff0000;fill-opacity:1;fill-rule:nonzero;stroke:none"
         id="text38871"><tspan
           x="0 183.50079 367.00159"
           y="0"
           sodipodi:role="line"
           id="tspan38869">5x4</tspan></text></g><g
       id="g38873"
       transform="matrix(0.26458333,0,0,0.26458333,-2.9429409,-25.304192)"><path
         d="m 115.84,397.12 v -4"
         style="fill:none;stroke:#000000;stroke-width:0.48;stroke-linecap:round;stroke-linejoin:round;stroke-miterlimit:10;stroke-dasharray:none;stroke-opacity:1"
         id="path38875" /></g><g
       id="g38877"
       transform="matrix(0.26458333,0,0,0.26458333,27.537059,79.640143)"><path
         d="m 0,0 -1.44,-2.4 -1.12,1.92 z m 0,-2.88 -1.44,-2.4 -1.12,1.92 z"
         style="fill:#000000;fill-opacity:1;fill-rule:evenodd;stroke:none"
         id="path38879" /></g><g
       id="g38881"
       transform="matrix(0.26458333,0,0,0.26458333,-2.9429409,-25.304192)"><path
         d="m 104.8,396 c 1.44,-1.12 3.04,-1.60001 4.64,-1.76001 2.08,0.16 4.16,0.96002 5.76,2.40002"
         style="fill:none;stroke:#000000;stroke-width:0.48;stroke-linecap:butt;stroke-linejoin:miter;stroke-miterlimit:2;stroke-dasharray:none;stroke-opacity:1"
         id="path38883" /></g><g
       id="g38885"
       transform="matrix(0.26458333,0,0,0.26458333,-2.9429409,-25.304192)"><path
         d="m 109.44,391.35999 c 2.08,0.16 4.16,0.96002 5.76,2.40002"
         style="fill:none;stroke:#000000;stroke-width:0.48;stroke-linecap:butt;stroke-linejoin:miter;stroke-miterlimit:2;stroke-dasharray:none;stroke-opacity:1"
         id="path38887" /></g><g
       id="g38889"
       transform="matrix(0.26458333,0,0,0.26458333,-2.9429409,-25.304192)"><path
         d="m 115.2,396.64001 -1.44,-2.40002 -1.12,1.92001 z"
         style="fill:none;stroke:#000000;stroke-width:0.48;stroke-linecap:butt;stroke-linejoin:miter;stroke-miterlimit:2;stroke-dasharray:none;stroke-opacity:1"
         id="path38891" /></g><g
       id="g38893"
       transform="matrix(0.26458333,0,0,0.26458333,-2.9429409,-25.304192)"><path
         d="m 115.2,393.76001 -1.44,-2.40002 -1.12,1.92001 z"
         style="fill:none;stroke:#000000;stroke-width:0.48;stroke-linecap:butt;stroke-linejoin:miter;stroke-miterlimit:2;stroke-dasharray:none;stroke-opacity:1"
         id="path38895" /></g><g
       id="g38897"
       transform="matrix(0.00322977,0,0,0.00322977,-2.9429409,-25.304192)"><text
         xml:space="preserve"
         transform="translate(8414.8799,31929.1)"
         style="font-variant:normal;font-weight:normal;font-size:327.68px;font-family:F1;-inkscape-font-specification:F1;writing-mode:lr-tb;fill:#ff0000;fill-opacity:1;fill-rule:nonzero;stroke:none"
         id="text38901"><tspan
           x="0 183.50079 367.00159"
           y="0"
           sodipodi:role="line"
           id="tspan38899">5x4</tspan></text></g><g
       id="g38903"
       transform="matrix(0.26458333,0,0,0.26458333,21.060059,78.878143)"><path
         d="M 0,0 V 2.24 L 8.16,5.92 V -1.6 L 0,2.24 Z m 0,-4.16 v 2.08 L 4.64,0 V -4.16 L 0,-2.08 Z"
         style="fill:#ff0000;fill-opacity:1;fill-rule:evenodd;stroke:none"
         id="path38905" /></g><g
       id="g38907"
       transform="matrix(0.26458333,0,0,0.26458333,-2.9429409,-25.304192)"><path
         d="M 90.720001,393.76001 V 396 l 8.159996,3.67999 V 392.16 L 90.720001,396"
         style="fill:none;stroke:#000000;stroke-width:0.48;stroke-linecap:round;stroke-linejoin:round;stroke-miterlimit:10;stroke-dasharray:none;stroke-opacity:1"
         id="path38909" /></g><g
       id="g38911"
       transform="matrix(0.26458333,0,0,0.26458333,-2.9429409,-25.304192)"><path
         d="m 90.720001,389.60001 v 2.07998 l 4.64,2.08002 v -4.16 l -4.64,2.07998"
         style="fill:none;stroke:#000000;stroke-width:0.48;stroke-linecap:round;stroke-linejoin:round;stroke-miterlimit:10;stroke-dasharray:none;stroke-opacity:1"
         id="path38913" /></g><g
       id="g38915"
       transform="matrix(0.26458333,0,0,0.26458333,-2.9429409,-25.304192)"><path
         d="m 89.599998,396 v -6.39999"
         style="fill:none;stroke:#000000;stroke-width:0.48;stroke-linecap:round;stroke-linejoin:round;stroke-miterlimit:10;stroke-dasharray:none;stroke-opacity:1"
         id="path38917" /></g><g
       id="g38919"
       transform="matrix(0.00322977,0,0,0.00322977,-2.9429409,-25.304192)"><text
         xml:space="preserve"
         transform="translate(7117.2798,32833.602)"
         style="font-variant:normal;font-weight:normal;font-size:327.68px;font-family:F1;-inkscape-font-specification:F1;writing-mode:lr-tb;fill:#ff0000;fill-opacity:1;fill-rule:nonzero;stroke:none"
         id="text38923"><tspan
           x="0 183.50079 275.25119"
           y="0"
           sodipodi:role="line"
           id="tspan38921">1/4</tspan></text></g><g
       id="g38925"
       transform="matrix(0.26458333,0,0,0.26458333,31.389389,78.878143)"><path
         d="M 0,0 -1.44,2.24 -2.56,0.32 Z M 0,2.88 -1.44,5.12 -2.56,3.2 Z"
         style="fill:#000000;fill-opacity:1;fill-rule:evenodd;stroke:none"
         id="path38927" /></g><g
       id="g38929"
       transform="matrix(0.26458333,0,0,0.26458333,-2.9429409,-25.304192)"><path
         d="m 119.36,394.23999 c 1.28,1.12 2.88,1.76001 4.64,1.76001 2.08,-0.16 4.16,-0.95999 5.75999,-2.23999"
         style="fill:none;stroke:#000000;stroke-width:0.48;stroke-linecap:butt;stroke-linejoin:miter;stroke-miterlimit:2;stroke-dasharray:none;stroke-opacity:1"
         id="path38931" /></g><g
       id="g38933"
       transform="matrix(0.26458333,0,0,0.26458333,-2.9429409,-25.304192)"><path
         d="m 119.36,397.12 c 1.28,1.11999 2.88,1.76 4.64,1.76 2.08,-0.16 4.16,-0.95999 5.75999,-2.23999"
         style="fill:none;stroke:#000000;stroke-width:0.48;stroke-linecap:butt;stroke-linejoin:miter;stroke-miterlimit:2;stroke-dasharray:none;stroke-opacity:1"
         id="path38935" /></g><g
       id="g38937"
       transform="matrix(0.26458333,0,0,0.26458333,-2.9429409,-25.304192)"><path
         d="M 129.75999,393.76001 128.32001,396 127.2,394.07999 Z"
         style="fill:none;stroke:#000000;stroke-width:0.48;stroke-linecap:butt;stroke-linejoin:miter;stroke-miterlimit:2;stroke-dasharray:none;stroke-opacity:1"
         id="path38939" /></g><g
       id="g38941"
       transform="matrix(0.26458333,0,0,0.26458333,-2.9429409,-25.304192)"><path
         d="M 129.75999,396.64001 128.32001,398.88 127.2,396.95999 Z"
         style="fill:none;stroke:#000000;stroke-width:0.48;stroke-linecap:butt;stroke-linejoin:miter;stroke-miterlimit:2;stroke-dasharray:none;stroke-opacity:1"
         id="path38943" /></g><g
       id="g38945"
       transform="matrix(0.26458333,0,0,0.26458333,-2.9429409,-25.304192)"><path
         d="m 130.24,393.12 v 4"
         style="fill:none;stroke:#000000;stroke-width:0.48;stroke-linecap:round;stroke-linejoin:round;stroke-miterlimit:10;stroke-dasharray:none;stroke-opacity:1"
         id="path38947" /></g><g
       id="g38949"
       transform="matrix(0.26458333,0,0,0.26458333,31.389389,78.878143)"><path
         d="M 0,0 -1.44,2.24 -2.56,0.32 Z M 0,2.88 -1.44,5.12 -2.56,3.2 Z"
         style="fill:#000000;fill-opacity:1;fill-rule:evenodd;stroke:none"
         id="path38951" /></g><g
       id="g38953"
       transform="matrix(0.26458333,0,0,0.26458333,-2.9429409,-25.304192)"><path
         d="m 119.36,394.23999 c 1.28,1.12 2.88,1.76001 4.64,1.76001 2.08,-0.16 4.16,-0.95999 5.75999,-2.23999"
         style="fill:none;stroke:#000000;stroke-width:0.48;stroke-linecap:butt;stroke-linejoin:miter;stroke-miterlimit:2;stroke-dasharray:none;stroke-opacity:1"
         id="path38955" /></g><g
       id="g38957"
       transform="matrix(0.26458333,0,0,0.26458333,-2.9429409,-25.304192)"><path
         d="m 119.36,397.12 c 1.28,1.11999 2.88,1.76 4.64,1.76 2.08,-0.16 4.16,-0.95999 5.75999,-2.23999"
         style="fill:none;stroke:#000000;stroke-width:0.48;stroke-linecap:butt;stroke-linejoin:miter;stroke-miterlimit:2;stroke-dasharray:none;stroke-opacity:1"
         id="path38959" /></g><g
       id="g38961"
       transform="matrix(0.26458333,0,0,0.26458333,-2.9429409,-25.304192)"><path
         d="M 129.75999,393.76001 128.32001,396 127.2,394.07999 Z"
         style="fill:none;stroke:#000000;stroke-width:0.48;stroke-linecap:butt;stroke-linejoin:miter;stroke-miterlimit:2;stroke-dasharray:none;stroke-opacity:1"
         id="path38963" /></g><g
       id="g38965"
       transform="matrix(0.26458333,0,0,0.26458333,-2.9429409,-25.304192)"><path
         d="M 129.75999,396.64001 128.32001,398.88 127.2,396.95999 Z"
         style="fill:none;stroke:#000000;stroke-width:0.48;stroke-linecap:butt;stroke-linejoin:miter;stroke-miterlimit:2;stroke-dasharray:none;stroke-opacity:1"
         id="path38967" /></g><g
       id="g38969"
       transform="matrix(0.26458333,0,0,0.26458333,-2.9429409,-25.304192)"><path
         d="m 130.24,393.12 v 4"
         style="fill:none;stroke:#000000;stroke-width:0.48;stroke-linecap:round;stroke-linejoin:round;stroke-miterlimit:10;stroke-dasharray:none;stroke-opacity:1"
         id="path38971" /></g></g></svg>
