<?xml version="1.0" standalone="no"?>
<!DOCTYPE svg PUBLIC "-//W3C//DTD SVG 1.2//EN" "http://www.w3.org/Graphics/SVG/1.2/DTD/svg12.dtd">
<svg xmlns="http://www.w3.org/2000/svg" version="1.2" baseProfile="tiny" id="selectedFigureSvg" width="100px" height="100px" viewBox="-130.56 -127.95 144.3 144.52"><g id="sequence"><g id="figure-2"><path d="M 0,0 m -4,0 a4,4 0 1 1 0,0.01" style="stroke: black; stroke-width: 1px; fill: black;"/><path d="M -4,0 l -60,0" style="stroke-dasharray: 10, 8; stroke: red; stroke-width: 3px; fill: none; " class="line" id="figure-2-entry"/><path d="M -64,0 a40,40 0 0 1 -28.28,-68.28" style="stroke-dasharray: 10, 8; stroke: red; stroke-width: 3px; fill: none; "/><path d="M -92.28,-68.28 l -5.3,-5.3 l 10.6,10.6" style="stroke: black; stroke-width: 3px; fill: none;"/><path d="M -92.28,-68.28 a40,40 0 0 1 28.28,-11.72" style="stroke-dasharray: 10, 8; stroke: red; stroke-width: 3px; fill: none; "/><path d="M -64,-80 a40,40 0 0 1 28.28,11.72" style="stroke-dasharray: 10, 8; stroke: red; stroke-width: 3px; fill: none; "/><path d="M -35.72,-68.28 l 5.3,-5.3 l -10.6,10.6" style="stroke: black; stroke-width: 3px; fill: none;"/><path d="M -35.72,-68.28 a40,40 0 0 1 -28.28,68.28" style="stroke-dasharray: 10, 8; stroke: red; stroke-width: 3px; fill: none; "/><path d="M -73,-80 m -7.53,-15.64 l 8.31,3.64 l -6.93,4 z" style="stroke: black; stroke-width: 2px; fill: black;"/><path d="M -73,-80 m -7.53,-15.64 a 20,20 0 0 1 7.53,15.64 " style="stroke: black; stroke-width: 3px; fill: none;"/><text style="font-family: Arial, Sans; font-size: 20px; font-weight: bold; fill: red;" text-anchor="middle" x="-73" y="-103">3x4</text><path d="M -61,-80 m 0,16.75 l 8,0 " style="stroke: black; stroke-width: 3px; fill: none;"/><path d="M -61,-80 m 0,16 l 8,-16 l -16,0 z" style="stroke: black; stroke-width: 1.5px; fill: red;"/><text style="font-family: Arial, Sans; font-size: 20px; font-weight: bold; fill: red;" text-anchor="middle" x="-55" y="-43">3/4</text><path d="M -64,0 l -60,0" style="stroke-dasharray: 10, 8; stroke: red; stroke-width: 3px; fill: none; " class="line" id="figure-2-exit"/><path d="M -124,0 l 0,-10 l 0,20" style="stroke: black; stroke-width: 3px; fill: none;"/></g></g></svg>