<?xml version="1.0" standalone="no"?>
<!DOCTYPE svg PUBLIC "-//W3C//DTD SVG 1.2//EN" "http://www.w3.org/Graphics/SVG/1.2/DTD/svg12.dtd">
<svg xmlns="http://www.w3.org/2000/svg" version="1.2" baseProfile="tiny" id="selectedFigureSvg" width="600px" height="600px" viewBox="-64.9 -215.07 195.84 386.15"><g id="sequence"><g id="figure-2"><text style="font-family: Verdana, Helvetica, Sans; font-size: 16px; font-weight: bold; fill: black;" text-anchor="middle" x="0" y="-8" class="figNr">4</text><path d="M 0,0 m -4,0 a4,4 0 1 1 0,0.01" style="stroke: black; stroke-width: 1px; fill: black;"/><path d="M 4,0 l 60,0" style="stroke-dasharray: 5, 3; stroke: red; stroke-width: 5px; fill: none; vector-effect: non-scaling-stroke;" class="line" id="figure-2-entry"/><path d="M 64,0 l 0,-80" style="stroke-dasharray: 5, 3; stroke: red; stroke-width: 5px; fill: none; vector-effect: non-scaling-stroke;" class="line" id="figure-2-roll0-gap0"/><path d="M 64,-80 m 15.64,7.53 l -3.64,-8.31 l -4,6.93 z" style="stroke: black; stroke-width: 1px; fill: black;"/><path d="M 64,-80 m 15.64,7.53 a 20,20 0 0 0 -25.64,-4.85 " style="stroke: black; stroke-width: 5px; fill: none; vector-effect: non-scaling-stroke;"/><text style="font-family: Arial, Sans; font-size: 20px; font-weight: bold; fill: red;" text-anchor="middle" x="105.14" y="-73">5x4</text><path d="M 64,-80 l 0,-10" style="stroke-dasharray: 5, 3; stroke: red; stroke-width: 5px; fill: none; vector-effect: non-scaling-stroke;" class="line"/><path d="M 64,-90 m 19.05,9 l 0,10" style="stroke: black; stroke-width: 5px; fill: none; vector-effect: non-scaling-stroke;"/><path d="M 64,-90 m 15.64,7.53 l -3.64,-8.31 l -4,6.93 z" style="stroke: black; stroke-width: 1px; fill: black;"/><path d="M 64,-90 m 15.64,7.53 a 20,20 0 0 0 -15.64,-7.53 " style="stroke: black; stroke-width: 5px; fill: none; vector-effect: non-scaling-stroke;"/><path d="M 64,-90 l 0,-80" style="stroke-dasharray: 5, 3; stroke: red; stroke-width: 5px; fill: none; vector-effect: non-scaling-stroke;" class="line" id="figure-2-roll0-gap1"/><path d="M 64,-170 a11.18,21.7 -14.67 0 0 -24.25,-14" style="stroke-dasharray: 5, 3; stroke: red; stroke-width: 5px; fill: none; vector-effect: non-scaling-stroke;"/><path d="M 39.75,-184 l 0,70" style="stroke-dasharray: 5, 3; stroke: red; stroke-width: 5px; fill: none; vector-effect: non-scaling-stroke;" class="line" id="figure-2-roll1-gap0"/><path d="M 39.75,-114 m -15.64,-7.53 l 3.64,8.31 l 4,-6.93 z" style="stroke: black; stroke-width: 1px; fill: black;"/><path d="M 39.75,-114 m -15.64,-7.53 a 20,20 0 0 0 25.64,4.85 " style="stroke: black; stroke-width: 5px; fill: none; vector-effect: non-scaling-stroke;"/><path d="M 39.75,-114 l 0,10" style="stroke-dasharray: 5, 3; stroke: red; stroke-width: 5px; fill: none; vector-effect: non-scaling-stroke;" class="line"/><path d="M 39.75,-104 m -19.05,-9 l 0,-10" style="stroke: black; stroke-width: 5px; fill: none; vector-effect: non-scaling-stroke;"/><path d="M 39.75,-104 m -15.64,-7.53 l 3.64,8.31 l 4,-6.93 z" style="stroke: black; stroke-width: 1px; fill: black;"/><path d="M 39.75,-104 m -15.64,-7.53 a 20,20 0 0 0 25.64,4.85 " style="stroke: black; stroke-width: 5px; fill: none; vector-effect: non-scaling-stroke;"/><path d="M 39.75,-104 l 0,230" style="stroke-dasharray: 5, 3; stroke: red; stroke-width: 5px; fill: none; vector-effect: non-scaling-stroke;" class="line" id="figure-2-roll1-gap1"/><path d="M 39.75,126 a11.18,21.7 -14.67 0 0 24.25,14" style="stroke-dasharray: 5, 3; stroke: red; stroke-width: 5px; fill: none; vector-effect: non-scaling-stroke;"/><path d="M 64,140 l 0,-50" style="stroke-dasharray: 5, 3; stroke: red; stroke-width: 5px; fill: none; vector-effect: non-scaling-stroke;" class="line" id="figure-2-roll2-gap0"/><path d="M 64,90 m 16.75,0 l 0,-8 " style="stroke: black; stroke-width: 5px; fill: none; vector-effect: non-scaling-stroke;"/><path d="M 64,90 m 16,0 l -24,-9.6 l 0,19.2 z" style="stroke: black; stroke-width: 1.5px; fill: red;"/><text style="font-family: Arial, Sans; font-size: 20px; font-weight: bold; fill: red;" text-anchor="middle" x="105.14" y="91">1/4</text><path d="M 64,84 l 0,-13.6" style="stroke-dasharray: 5, 3; stroke: red; stroke-width: 5px; fill: none; vector-effect: non-scaling-stroke;" class="line"/><path d="M 64,70.4 m 19.2,-8 l 0,29.6" style="stroke: black; stroke-width: 5px; fill: none; vector-effect: non-scaling-stroke;"/><path d="M 64,70.4 m 16.75,0 l 0,-8 " style="stroke: black; stroke-width: 5px; fill: none; vector-effect: non-scaling-stroke;"/><path d="M 64,70.4 m 16,0 l -16,-8 l 0,16 z" style="stroke: black; stroke-width: 1.5px; fill: red;"/><path d="M 64,64.4 l 0,-20" style="stroke-dasharray: 5, 3; stroke: red; stroke-width: 5px; fill: none; vector-effect: non-scaling-stroke;" class="line" id="figure-2-roll2-gap1"/><path d="M 64,44.4 l -120,0" style="stroke: black; stroke-width: 5px; fill: none; vector-effect: non-scaling-stroke;" class="line" id="figure-2-exit"/><path d="M -56,44.4 l 0,10 l 0,-20" style="stroke: black; stroke-width: 5px; fill: none; vector-effect: non-scaling-stroke;"/></g></g></svg>