<?xml version="1.0" encoding="UTF-8" standalone="no"?>
<!-- Created with Inkscape (http://www.inkscape.org/) -->

<svg
   width="18.451611mm"
   height="19.693544mm"
   viewBox="0 0 18.451611 19.69354"
   version="1.1"
   id="svg15577"
   inkscape:version="1.2.2 (732a01da63, 2022-12-09)"
   sodipodi:docname="4.svg"
   xml:space="preserve"
   xmlns:inkscape="http://www.inkscape.org/namespaces/inkscape"
   xmlns:sodipodi="http://sodipodi.sourceforge.net/DTD/sodipodi-0.dtd"
   xmlns="http://www.w3.org/2000/svg"
   xmlns:svg="http://www.w3.org/2000/svg"><sodipodi:namedview
     id="namedview15579"
     pagecolor="#ffffff"
     bordercolor="#000000"
     borderopacity="0.25"
     inkscape:showpageshadow="2"
     inkscape:pageopacity="0.0"
     inkscape:pagecheckerboard="true"
     inkscape:deskcolor="#d1d1d1"
     inkscape:document-units="mm"
     showgrid="false"
     showborder="false"
     inkscape:zoom="2.9825758"
     inkscape:cx="266.21285"
     inkscape:cy="112.31902"
     inkscape:window-width="1920"
     inkscape:window-height="1017"
     inkscape:window-x="1912"
     inkscape:window-y="-8"
     inkscape:window-maximized="1"
     inkscape:current-layer="layer1" /><defs
     id="defs15574" /><g
     inkscape:label="Layer 1"
     inkscape:groupmode="layer"
     id="layer1"
     transform="translate(-16.970943,-66.834839)"><g
       id="g15014"
       transform="matrix(0.26458333,0,0,0.26458333,49.253236,55.298379)" /><g
       id="g13720"
       transform="matrix(0.26458333,0,0,0.26458333,18.006939,-99.253542)" /><g
       id="g18168"
       transform="matrix(0.26458333,0,0,0.26458333,27.213146,49.421226)" /><g
       id="g38973"
       transform="matrix(0.26458333,0,0,0.26458333,-4.0479611,-46.984777)"><path
         d="m 133.60001,439.20001 v 57.59998"
         style="fill:none;stroke:#ff0000;stroke-width:0.96;stroke-linecap:round;stroke-linejoin:round;stroke-miterlimit:10;stroke-dasharray:2.88, 2.88;stroke-dashoffset:0;stroke-opacity:1"
         id="path38975" /></g><g
       id="g38977"
       transform="matrix(0.26458333,0,0,0.26458333,-4.0479611,-46.984777)"><path
         d="M 133.60001,496.79999 99.839996,462.88"
         style="fill:none;stroke:#ff0000;stroke-width:0.96;stroke-linecap:round;stroke-linejoin:round;stroke-miterlimit:10;stroke-dasharray:2.88, 2.88;stroke-dashoffset:0;stroke-opacity:1"
         id="path38979" /></g><g
       id="g38981"
       transform="matrix(0.26458333,0,0,0.26458333,19.108371,69.220224)"><path
         d="m 0,0 c 0,0.96 -0.8,1.92 -1.76,1.92 -1.12,0 -1.92,-0.96 -1.92,-1.92 0,-1.12 0.8,-1.92 1.92,-1.92 C -0.8,-1.92 0,-1.12 0,0 Z"
         style="fill:#000000;fill-opacity:1;fill-rule:evenodd;stroke:none"
         id="path38983" /></g><g
       id="g38985"
       transform="matrix(0.26458333,0,0,0.26458333,19.108371,69.220224)"><path
         d="m 0,0 c 0,0.96 -0.8,1.92 -1.76,1.92 -1.12,0 -1.92,-0.96 -1.92,-1.92 0,-1.12 0.8,-1.92 1.92,-1.92 C -0.8,-1.92 0,-1.12 0,0 Z"
         style="fill:none;stroke:#000000;stroke-width:0.96;stroke-linecap:round;stroke-linejoin:round;stroke-miterlimit:10;stroke-dasharray:none;stroke-opacity:1"
         id="path38987" /></g><g
       id="g38989"
       transform="matrix(0.26458333,0,0,0.26458333,-4.0479611,-46.984777)"><path
         d="M 128.96001,459.20001 V 466.72"
         style="fill:none;stroke:#000000;stroke-width:0.96;stroke-linecap:round;stroke-linejoin:round;stroke-miterlimit:10;stroke-dasharray:none;stroke-opacity:1"
         id="path38991" /></g><g
       id="g38993"
       transform="matrix(0.26458333,0,0,0.26458333,-4.0479611,-46.984777)"><path
         d="M 87.519997,439.20001 H 133.60001"
         style="fill:none;stroke:#000000;stroke-width:0.96;stroke-linecap:round;stroke-linejoin:round;stroke-miterlimit:10;stroke-dasharray:none;stroke-opacity:1"
         id="path38995" /></g><g
       id="g38997"
       transform="matrix(0.26458333,0,0,0.26458333,-4.0479611,-46.984777)"><path
         d="M 99.839996,462.88 H 128.96001"
         style="fill:none;stroke:#000000;stroke-width:0.96;stroke-linecap:round;stroke-linejoin:round;stroke-miterlimit:10;stroke-dasharray:none;stroke-opacity:1"
         id="path38999" /></g><g
       id="g39001"
       transform="matrix(0.26458333,0,0,0.26458333,-4.0479611,-46.984777)"><path
         d="m 133.60001,439.20001 v 57.59998"
         style="fill:none;stroke:#ff0000;stroke-width:0.96;stroke-linecap:round;stroke-linejoin:round;stroke-miterlimit:10;stroke-dasharray:2.88, 2.88;stroke-dashoffset:0;stroke-opacity:1"
         id="path39003" /></g><g
       id="g39005"
       transform="matrix(0.26458333,0,0,0.26458333,-4.0479611,-46.984777)"><path
         d="M 133.60001,496.79999 99.839996,462.88"
         style="fill:none;stroke:#ff0000;stroke-width:0.96;stroke-linecap:round;stroke-linejoin:round;stroke-miterlimit:10;stroke-dasharray:2.88, 2.88;stroke-dashoffset:0;stroke-opacity:1"
         id="path39007" /></g><g
       id="g39009"
       transform="matrix(0.26458333,0,0,0.26458333,19.108371,69.220224)"><path
         d="m 0,0 c 0,0.96 -0.8,1.92 -1.76,1.92 -1.12,0 -1.92,-0.96 -1.92,-1.92 0,-1.12 0.8,-1.92 1.92,-1.92 C -0.8,-1.92 0,-1.12 0,0 Z"
         style="fill:#000000;fill-opacity:1;fill-rule:evenodd;stroke:none"
         id="path39011" /></g><g
       id="g39013"
       transform="matrix(0.26458333,0,0,0.26458333,19.108371,69.220224)"><path
         d="m 0,0 c 0,0.96 -0.8,1.92 -1.76,1.92 -1.12,0 -1.92,-0.96 -1.92,-1.92 0,-1.12 0.8,-1.92 1.92,-1.92 C -0.8,-1.92 0,-1.12 0,0 Z"
         style="fill:none;stroke:#000000;stroke-width:0.96;stroke-linecap:round;stroke-linejoin:round;stroke-miterlimit:10;stroke-dasharray:none;stroke-opacity:1"
         id="path39015" /></g><g
       id="g39017"
       transform="matrix(0.26458333,0,0,0.26458333,-4.0479611,-46.984777)"><path
         d="M 128.96001,459.20001 V 466.72"
         style="fill:none;stroke:#000000;stroke-width:0.96;stroke-linecap:round;stroke-linejoin:round;stroke-miterlimit:10;stroke-dasharray:none;stroke-opacity:1"
         id="path39019" /></g><g
       id="g39021"
       transform="matrix(0.26458333,0,0,0.26458333,-4.0479611,-46.984777)"><path
         d="M 87.519997,439.20001 H 133.60001"
         style="fill:none;stroke:#000000;stroke-width:0.96;stroke-linecap:round;stroke-linejoin:round;stroke-miterlimit:10;stroke-dasharray:none;stroke-opacity:1"
         id="path39023" /></g><g
       id="g39025"
       transform="matrix(0.26458333,0,0,0.26458333,-4.0479611,-46.984777)"><path
         d="M 99.839996,462.88 H 128.96001"
         style="fill:none;stroke:#000000;stroke-width:0.96;stroke-linecap:round;stroke-linejoin:round;stroke-miterlimit:10;stroke-dasharray:none;stroke-opacity:1"
         id="path39027" /></g><g
       id="g39029"
       transform="matrix(0.26458333,0,0,0.26458333,33.120705,70.617224)"><path
         d="M 0,0 V -2.72 H -12.32 V 3.36 L 0,-2.72 Z M 0,3.36 V 0.64 H -6.88 V 4 L 0,0.64 Z"
         style="fill:#ffffff;fill-opacity:1;fill-rule:evenodd;stroke:none"
         id="path39031" /></g><g
       id="g39033"
       transform="matrix(0.26458333,0,0,0.26458333,-4.0479611,-46.984777)"><path
         d="m 140.48,444.48001 v -2.72 H 128.16 V 447.84 l 12.32,-6.07999"
         style="fill:none;stroke:#000000;stroke-width:0.48;stroke-linecap:round;stroke-linejoin:round;stroke-miterlimit:10;stroke-dasharray:none;stroke-opacity:1"
         id="path39035" /></g><g
       id="g39037"
       transform="matrix(0.26458333,0,0,0.26458333,-4.0479611,-46.984777)"><path
         d="m 140.48,447.84 v -2.72 h -6.87999 v 3.36001 L 140.48,445.12"
         style="fill:none;stroke:#000000;stroke-width:0.48;stroke-linecap:round;stroke-linejoin:round;stroke-miterlimit:10;stroke-dasharray:none;stroke-opacity:1"
         id="path39039" /></g><g
       id="g39041"
       transform="matrix(0.26458333,0,0,0.26458333,-4.0479611,-46.984777)"><path
         d="M 141.75999,441.76001 V 447.84"
         style="fill:none;stroke:#000000;stroke-width:0.48;stroke-linecap:round;stroke-linejoin:round;stroke-miterlimit:10;stroke-dasharray:none;stroke-opacity:1"
         id="path39043" /></g><g
       id="g39045"
       transform="matrix(0.00387562,0,0,0.00387562,-4.0479611,-46.984777)"><text
         xml:space="preserve"
         transform="translate(9360.7998,30026.4)"
         style="font-variant:normal;font-weight:normal;font-size:327.68px;font-family:F1;-inkscape-font-specification:F1;writing-mode:lr-tb;fill:#ff0000;fill-opacity:1;fill-rule:nonzero;stroke:none"
         id="text39049"><tspan
           x="0 186.7776 271.9744"
           y="0"
           sodipodi:role="line"
           id="tspan39047">3/4</tspan></text></g><g
       id="g39051"
       transform="matrix(0.26458333,0,0,0.26458333,-4.0479611,-46.984777)"><path
         d="m 126.88,451.67999 1.76,2.72 1.28,-2.23999 z"
         style="fill:#000000;fill-opacity:1;fill-rule:evenodd;stroke:none"
         id="path39053" /></g><g
       id="g39055"
       transform="matrix(0.26458333,0,0,0.26458333,-4.0479611,-46.984777)"><path
         d="M 133.60001,454.39999 C 131.2,454.23999 128.8,453.28 126.88,451.67999"
         style="fill:none;stroke:#000000;stroke-width:0.48;stroke-linecap:butt;stroke-linejoin:miter;stroke-miterlimit:2;stroke-dasharray:none;stroke-opacity:1"
         id="path39057" /></g><g
       id="g39059"
       transform="matrix(0.26458333,0,0,0.26458333,-4.0479611,-46.984777)"><path
         d="m 126.88,451.67999 1.76,2.72 1.28,-2.23999 z"
         style="fill:none;stroke:#000000;stroke-width:0.48;stroke-linecap:butt;stroke-linejoin:miter;stroke-miterlimit:2;stroke-dasharray:none;stroke-opacity:1"
         id="path39061" /></g><g
       id="g39063"
       transform="matrix(0.00387562,0,0,0.00387562,-4.0479611,-46.984777)"><text
         xml:space="preserve"
         transform="translate(8115.52,31195.199)"
         style="font-variant:normal;font-weight:normal;font-size:327.68px;font-family:F1;-inkscape-font-specification:F1;writing-mode:lr-tb;fill:#ff0000;fill-opacity:1;fill-rule:nonzero;stroke:none"
         id="text39067"><tspan
           x="0 186.7776 271.9744"
           y="0"
           sodipodi:role="line"
           id="tspan39065">3/4</tspan></text></g><g
       id="g39069"
       transform="matrix(0.26458333,0,0,0.26458333,-4.0479611,-46.984777)"><path
         d="m 126.88,451.67999 1.76,2.72 1.28,-2.23999 z"
         style="fill:#000000;fill-opacity:1;fill-rule:evenodd;stroke:none"
         id="path39071" /></g><g
       id="g39073"
       transform="matrix(0.26458333,0,0,0.26458333,-4.0479611,-46.984777)"><path
         d="M 133.60001,454.39999 C 131.2,454.23999 128.8,453.28 126.88,451.67999"
         style="fill:none;stroke:#000000;stroke-width:0.48;stroke-linecap:butt;stroke-linejoin:miter;stroke-miterlimit:2;stroke-dasharray:none;stroke-opacity:1"
         id="path39075" /></g><g
       id="g39077"
       transform="matrix(0.26458333,0,0,0.26458333,-4.0479611,-46.984777)"><path
         d="m 126.88,451.67999 1.76,2.72 1.28,-2.23999 z"
         style="fill:none;stroke:#000000;stroke-width:0.48;stroke-linecap:butt;stroke-linejoin:miter;stroke-miterlimit:2;stroke-dasharray:none;stroke-opacity:1"
         id="path39079" /></g><g
       id="g39081"
       transform="matrix(0.00387562,0,0,0.00387562,-4.0479611,-46.984777)"><text
         xml:space="preserve"
         transform="translate(8115.52,31195.199)"
         style="font-variant:normal;font-weight:normal;font-size:327.68px;font-family:F1;-inkscape-font-specification:F1;writing-mode:lr-tb;fill:#ff0000;fill-opacity:1;fill-rule:nonzero;stroke:none"
         id="text39085"><tspan
           x="0 186.7776 271.9744"
           y="0"
           sodipodi:role="line"
           id="tspan39083">3/4</tspan></text></g><g
       id="g39087"
       transform="matrix(0.26458333,0,0,0.26458333,-4.0479611,-46.984777)"><path
         d="m 124.96,478.72 -3.04,-0.79999 0.64,2.56 z"
         style="fill:#000000;fill-opacity:1;fill-rule:evenodd;stroke:none"
         id="path39089" /></g><g
       id="g39091"
       transform="matrix(0.26458333,0,0,0.26458333,-4.0479611,-46.984777)"><path
         d="M 118.24,481.60001 C 120.16,479.84 122.56,478.88 124.96,478.72"
         style="fill:none;stroke:#000000;stroke-width:0.48;stroke-linecap:butt;stroke-linejoin:miter;stroke-miterlimit:2;stroke-dasharray:none;stroke-opacity:1"
         id="path39093" /></g><g
       id="g39095"
       transform="matrix(0.26458333,0,0,0.26458333,-4.0479611,-46.984777)"><path
         d="m 124.96,478.72 -3.04,-0.79999 0.64,2.56 z"
         style="fill:none;stroke:#000000;stroke-width:0.48;stroke-linecap:butt;stroke-linejoin:miter;stroke-miterlimit:2;stroke-dasharray:none;stroke-opacity:1"
         id="path39097" /></g><g
       id="g39099"
       transform="matrix(0.26458333,0,0,0.26458333,-4.0479611,-46.984777)"><path
         d="m 124.96,478.72 -3.04,-0.79999 0.64,2.56 z"
         style="fill:#000000;fill-opacity:1;fill-rule:evenodd;stroke:none"
         id="path39101" /></g><g
       id="g39103"
       transform="matrix(0.26458333,0,0,0.26458333,-4.0479611,-46.984777)"><path
         d="M 118.24,481.60001 C 120.16,479.84 122.56,478.88 124.96,478.72"
         style="fill:none;stroke:#000000;stroke-width:0.48;stroke-linecap:butt;stroke-linejoin:miter;stroke-miterlimit:2;stroke-dasharray:none;stroke-opacity:1"
         id="path39105" /></g><g
       id="g39107"
       transform="matrix(0.26458333,0,0,0.26458333,-4.0479611,-46.984777)"><path
         d="m 124.96,478.72 -3.04,-0.79999 0.64,2.56 z"
         style="fill:none;stroke:#000000;stroke-width:0.48;stroke-linecap:butt;stroke-linejoin:miter;stroke-miterlimit:2;stroke-dasharray:none;stroke-opacity:1"
         id="path39109" /></g><g
       id="g39111"
       transform="matrix(0.26458333,0,0,0.26458333,-4.0479611,-46.984777)"><path
         d="m 112.32,485.12 -0.64,-3.19999 2.56,0.63999 z"
         style="fill:#000000;fill-opacity:1;fill-rule:evenodd;stroke:none"
         id="path39113" /></g><g
       id="g39115"
       transform="matrix(0.26458333,0,0,0.26458333,-4.0479611,-46.984777)"><path
         d="m 115.2,478.39999 c -1.6,1.92002 -2.56,4.16001 -2.88,6.72001"
         style="fill:none;stroke:#000000;stroke-width:0.48;stroke-linecap:butt;stroke-linejoin:miter;stroke-miterlimit:2;stroke-dasharray:none;stroke-opacity:1"
         id="path39117" /></g><g
       id="g39119"
       transform="matrix(0.26458333,0,0,0.26458333,-4.0479611,-46.984777)"><path
         d="m 112.32,485.12 -0.64,-3.19999 2.56,0.63999 z"
         style="fill:none;stroke:#000000;stroke-width:0.48;stroke-linecap:butt;stroke-linejoin:miter;stroke-miterlimit:2;stroke-dasharray:none;stroke-opacity:1"
         id="path39121" /></g><g
       id="g39123"
       transform="matrix(0.26458333,0,0,0.26458333,24.019039,80.311555)"><path
         d="m 0,0 v 0.64 h -2.4 c 0,-0.16 0.16,-0.48 0.32,-0.64 0,-0.16 0.32,-0.48 0.64,-0.8 0.32,-0.32 0.48,-0.48 0.64,-0.64 0,-0.16 0.16,-0.16 0.16,-0.32 0,-0.16 -0.16,-0.32 -0.16,-0.32 -0.16,-0.16 -0.16,-0.16 -0.32,-0.16 -0.16,0 -0.32,0 -0.32,0.16 -0.16,0 -0.16,0.16 -0.16,0.32 h -0.64 c 0,-0.32 0.16,-0.64 0.32,-0.8 0.16,-0.16 0.48,-0.32 0.8,-0.32 0.32,0 0.64,0.16 0.8,0.32 0.16,0.16 0.32,0.48 0.32,0.64 0,0.16 -0.16,0.32 -0.16,0.48 0,0.16 -0.16,0.32 -0.32,0.48 0,0.16 -0.16,0.16 -0.32,0.48 -0.16,0.16 -0.32,0.32 -0.48,0.32 0,0 0,0.16 0,0.16 z m 0.32,0.64 0.8,-1.28 -0.8,-1.28 h 0.8 l 0.48,0.8 0.48,-0.8 h 0.64 l -0.8,1.28 0.96,1.28 H 2.08 L 1.6,-0.16 1.12,0.64 Z m 4,0 V 0 H 2.88 v -0.64 l 1.44,-2.24 h 0.64 v 2.24 H 5.28 V 0 H 4.96 v 0.64 z m 0,-1.28 v -1.12 l -0.8,1.12 z"
         style="fill:#ff0000;fill-opacity:1;fill-rule:nonzero;stroke:none"
         id="path39125" /></g><g
       id="g39127"
       transform="matrix(0.26458333,0,0,0.26458333,-4.0479611,-46.984777)"><path
         d="m 112.32,485.12 -0.64,-3.19999 2.56,0.63999 z"
         style="fill:#000000;fill-opacity:1;fill-rule:evenodd;stroke:none"
         id="path39129" /></g><g
       id="g39131"
       transform="matrix(0.26458333,0,0,0.26458333,-4.0479611,-46.984777)"><path
         d="m 115.2,478.39999 c -1.6,1.92002 -2.56,4.16001 -2.88,6.72001"
         style="fill:none;stroke:#000000;stroke-width:0.48;stroke-linecap:butt;stroke-linejoin:miter;stroke-miterlimit:2;stroke-dasharray:none;stroke-opacity:1"
         id="path39133" /></g><g
       id="g39135"
       transform="matrix(0.26458333,0,0,0.26458333,-4.0479611,-46.984777)"><path
         d="m 112.32,485.12 -0.64,-3.19999 2.56,0.63999 z"
         style="fill:none;stroke:#000000;stroke-width:0.48;stroke-linecap:butt;stroke-linejoin:miter;stroke-miterlimit:2;stroke-dasharray:none;stroke-opacity:1"
         id="path39137" /></g><g
       id="g39139"
       transform="matrix(0.26458333,0,0,0.26458333,24.019039,80.311555)"><path
         d="m 0,0 v 0.64 h -2.4 c 0,-0.16 0.16,-0.48 0.32,-0.64 0,-0.16 0.32,-0.48 0.64,-0.8 0.32,-0.32 0.48,-0.48 0.64,-0.64 0,-0.16 0.16,-0.16 0.16,-0.32 0,-0.16 -0.16,-0.32 -0.16,-0.32 -0.16,-0.16 -0.16,-0.16 -0.32,-0.16 -0.16,0 -0.32,0 -0.32,0.16 -0.16,0 -0.16,0.16 -0.16,0.32 h -0.64 c 0,-0.32 0.16,-0.64 0.32,-0.8 0.16,-0.16 0.48,-0.32 0.8,-0.32 0.32,0 0.64,0.16 0.8,0.32 0.16,0.16 0.32,0.48 0.32,0.64 0,0.16 -0.16,0.32 -0.16,0.48 0,0.16 -0.16,0.32 -0.32,0.48 0,0.16 -0.16,0.16 -0.32,0.48 -0.16,0.16 -0.32,0.32 -0.48,0.32 0,0 0,0.16 0,0.16 z m 0.32,0.64 0.8,-1.28 -0.8,-1.28 h 0.8 l 0.48,0.8 0.48,-0.8 h 0.64 l -0.8,1.28 0.96,1.28 H 2.08 L 1.6,-0.16 1.12,0.64 Z m 4,0 V 0 H 2.88 v -0.64 l 1.44,-2.24 h 0.64 v 2.24 H 5.28 V 0 H 4.96 v 0.64 z m 0,-1.28 v -1.12 l -0.8,1.12 z"
         style="fill:#ff0000;fill-opacity:1;fill-rule:nonzero;stroke:none"
         id="path39141" /></g></g></svg>
