<?xml version="1.0" standalone="no"?>
<!DOCTYPE svg PUBLIC "-//W3C//DTD SVG 1.2//EN" "http://www.w3.org/Graphics/SVG/1.2/DTD/svg12.dtd">
<svg xmlns="http://www.w3.org/2000/svg" version="1.2" baseProfile="tiny" id="selectedFigureSvg" width="100px" height="100px" viewBox="-45.1 -153.09 156.26 265.38"><g id="sequence"><g id="figure-2"><path d="M 0,0 m -4,0 a4,4 0 1 1 0,0.01" style="stroke: black; stroke-width: 1px; fill: black;"/><path d="M 4,0 l 42,0" style="stroke-dasharray: 10, 8; stroke: red; stroke-width: 3px; fill: none; " class="line" id="figure-2-entry"/><path d="M 46,0 l 0,-56" style="stroke-dasharray: 10, 8; stroke: red; stroke-width: 3px; fill: none; " class="line" id="figure-2-roll0-gap0"/><path d="M 46,-56 m 15.64,7.53 l -3.64,-8.31 l -4,6.93 z" style="stroke: black; stroke-width: 2px; fill: black;"/><path d="M 46,-56 m 15.64,7.53 a 20,20 0 0 0 -25.64,-4.85 " style="stroke: black; stroke-width: 3px; fill: none;"/><text style="font-family: Arial, Sans; font-size: 20px; font-weight: bold; fill: red;" text-anchor="middle" x="87.14" y="-49">5x4</text><path d="M 46,-56 l 0,-10" style="stroke-dasharray: 10, 8; stroke: red; stroke-width: 3px; fill: none; " class="line"/><path d="M 46,-66 m 19.05,9 l 0,10" style="stroke: black; stroke-width: 3px; fill: none;"/><path d="M 46,-66 m 15.64,7.53 l -3.64,-8.31 l -4,6.93 z" style="stroke: black; stroke-width: 2px; fill: black;"/><path d="M 46,-66 m 15.64,7.53 a 20,20 0 0 0 -15.64,-7.53 " style="stroke: black; stroke-width: 3px; fill: none;"/><path d="M 46,-66 l 0,-56" style="stroke-dasharray: 10, 8; stroke: red; stroke-width: 3px; fill: none; " class="line" id="figure-2-roll0-gap1"/><path d="M 46,-122 a7.83,15.19 -14.67 0 0 -16.97,-9.8" style="stroke-dasharray: 10, 8; stroke: red; stroke-width: 3px; fill: none; "/><path d="M 29.03,-131.8 l 0,42" style="stroke-dasharray: 10, 8; stroke: red; stroke-width: 3px; fill: none; " class="line" id="figure-2-roll1-gap0"/><path d="M 29.03,-89.8 m -15.64,-7.53 l 3.64,8.31 l 4,-6.93 z" style="stroke: black; stroke-width: 2px; fill: black;"/><path d="M 29.03,-89.8 m -15.64,-7.53 a 20,20 0 0 0 25.64,4.85 " style="stroke: black; stroke-width: 3px; fill: none;"/><path d="M 29.03,-89.8 l 0,10" style="stroke-dasharray: 10, 8; stroke: red; stroke-width: 3px; fill: none; " class="line"/><path d="M 29.03,-79.8 m -19.05,-9 l 0,-10" style="stroke: black; stroke-width: 3px; fill: none;"/><path d="M 29.03,-79.8 m -15.64,-7.53 l 3.64,8.31 l 4,-6.93 z" style="stroke: black; stroke-width: 2px; fill: black;"/><path d="M 29.03,-79.8 m -15.64,-7.53 a 20,20 0 0 0 25.64,4.85 " style="stroke: black; stroke-width: 3px; fill: none;"/><path d="M 29.03,-79.8 l 0,161" style="stroke-dasharray: 10, 8; stroke: red; stroke-width: 3px; fill: none; " class="line" id="figure-2-roll1-gap1"/><path d="M 29.03,81.2 a7.83,15.19 -14.67 0 0 16.97,9.8" style="stroke-dasharray: 10, 8; stroke: red; stroke-width: 3px; fill: none; "/><path d="M 46,91 l 0,-35" style="stroke-dasharray: 10, 8; stroke: red; stroke-width: 3px; fill: none; " class="line" id="figure-2-roll2-gap0"/><path d="M 46,56 m 16.75,0 l 0,-8 " style="stroke: black; stroke-width: 3px; fill: none;"/><path d="M 46,56 m 16,0 l -24,-9.6 l 0,19.2 z" style="stroke: black; stroke-width: 1.5px; fill: red;"/><text style="font-family: Arial, Sans; font-size: 20px; font-weight: bold; fill: red;" text-anchor="middle" x="87.14" y="57">1/4</text><path d="M 46,50 l 0,-13.6" style="stroke-dasharray: 10, 8; stroke: red; stroke-width: 3px; fill: none; " class="line"/><path d="M 46,36.4 m 19.2,-8 l 0,29.6" style="stroke: black; stroke-width: 3px; fill: none;"/><path d="M 46,36.4 m 16.75,0 l 0,-8 " style="stroke: black; stroke-width: 3px; fill: none;"/><path d="M 46,36.4 m 16,0 l -16,-8 l 0,16 z" style="stroke: black; stroke-width: 1.5px; fill: red;"/><path d="M 46,30.4 l 0,-14" style="stroke-dasharray: 10, 8; stroke: red; stroke-width: 3px; fill: none; " class="line" id="figure-2-roll2-gap1"/><path d="M 46,16.4 l -84,0" style="stroke: black; stroke-width: 3px; fill: none;" class="line" id="figure-2-exit"/><path d="M -38,16.4 l 0,10 l 0,-20" style="stroke: black; stroke-width: 3px; fill: none;"/></g></g></svg>