<?xml version="1.0" standalone="no"?>
<!DOCTYPE svg PUBLIC "-//W3C//DTD SVG 1.2//EN" "http://www.w3.org/Graphics/SVG/1.2/DTD/svg12.dtd">
<svg xmlns="http://www.w3.org/2000/svg" version="1.2" baseProfile="tiny" id="selectedFigureSvg" width="100px" height="100px" viewBox="-61.07 -30.62 149.03 164.08"><g id="sequence"><g id="figure-2"><path d="M 0,0 m -4,0 a4,4 0 1 1 0,0.01" style="stroke: black; stroke-width: 1px; fill: black;"/><path d="M 4,0 l 20,0" style="stroke: black; stroke-width: 3px; fill: none;" class="line" id="figure-2-entry"/><path d="M 24,0 l 0,5" style="stroke-dasharray: 10, 8; stroke: red; stroke-width: 3px; fill: none; " class="line" id="figure-2-roll0-gap0"/><path d="M 24,5 m 15.25,0 l 0,8 " style="stroke: black; stroke-width: 3px; fill: none;"/><path d="M 24,5 m 16,0 l -24,12 l 0,-12 z" style="stroke: black; stroke-width: 1.5px; fill: white;"/><text style="font-family: Arial, Sans; font-size: 20px; font-weight: bold; fill: red;" text-anchor="middle" x="65.14" y="20">3/4</text><path d="M 24,13 l 0,5" style="stroke-dasharray: 10, 8; stroke: red; stroke-width: 3px; fill: none; " class="line"/><path d="M 24,18 m 19.2,8 l 0,-21" style="stroke: black; stroke-width: 3px; fill: none;"/><path d="M 24,18 m 15.25,0 l 0,8 " style="stroke: black; stroke-width: 3px; fill: none;"/><path d="M 24,18 m 16,0 l -16,8 l 0,-8 z" style="stroke: black; stroke-width: 1.5px; fill: white;"/><path d="M 24,26 l 0,15" style="stroke-dasharray: 10, 8; stroke: red; stroke-width: 3px; fill: none; " class="line" id="figure-2-roll0-gap1"/><path d="M 24,41 m -15.64,-7.53 l 3.64,8.31 l 4,-6.93 z" style="stroke: black; stroke-width: 2px; fill: black;"/><path d="M 24,41 m -15.64,-7.53 a 20,20 0 0 0 15.64,7.53 " style="stroke: black; stroke-width: 3px; fill: none;"/><text style="font-family: Arial, Sans; font-size: 20px; font-weight: bold; fill: red;" text-anchor="middle" x="-13.14" y="48">3/4</text><path d="M 24,41 l 0,85" style="stroke-dasharray: 10, 8; stroke: red; stroke-width: 3px; fill: none; " class="line" id="figure-2-roll0-gap2"/><path d="M 24,126 l -28.28,-28.28" style="stroke-dasharray: 10, 8; stroke: red; stroke-width: 3px; fill: none; " class="line" id="figure-2-roll1-gap0"/><path d="M -4.28,97.72 m 16.38,-5.73 l -8.45,-3.31 l 2.07,7.73 z" style="stroke: black; stroke-width: 2px; fill: black;"/><path d="M -4.28,97.72 m 16.38,-5.73 a 20,20 0 0 0 -16.38,5.73 " style="stroke: black; stroke-width: 3px; fill: none;"/><path d="M -4.28,97.72 l -7.07,-7.07" style="stroke: black; stroke-width: 3px; fill: none;" class="line" id="figure-2-roll1-gap1"/><path d="M -11.35,90.65 m -5.73,16.38 l -3.31,-8.45 l 7.73,2.07 z" style="stroke: black; stroke-width: 2px; fill: black;"/><path d="M -11.35,90.65 m -5.73,16.38 a 20,20 0 0 1 5.73,-16.38 " style="stroke: black; stroke-width: 3px; fill: none;"/><text style="font-family: Arial, Sans; font-size: 20px; font-weight: bold; fill: red;" text-anchor="middle" x="-37.61" y="118.86">2x4</text><path d="M -11.35,90.65 l -24.75,-24.75" style="stroke-dasharray: 10, 8; stroke: red; stroke-width: 3px; fill: none; " class="line" id="figure-2-roll1-gap2"/><path d="M -36.1,65.9 l 45,0" style="stroke: black; stroke-width: 3px; fill: none;" class="line" id="figure-2-exit"/><path d="M 8.9,65.9 l 0,-10 l 0,20" style="stroke: black; stroke-width: 3px; fill: none;"/></g></g></svg>