<?xml version="1.0" encoding="UTF-8" standalone="no"?>
<!-- Created with Inkscape (http://www.inkscape.org/) -->

<svg
   width="21.201612mm"
   height="12.596784mm"
   viewBox="0 0 21.201612 12.596781"
   version="1.1"
   id="svg15577"
   inkscape:version="1.2.2 (732a01da63, 2022-12-09)"
   sodipodi:docname="6.svg"
   xml:space="preserve"
   xmlns:inkscape="http://www.inkscape.org/namespaces/inkscape"
   xmlns:sodipodi="http://sodipodi.sourceforge.net/DTD/sodipodi-0.dtd"
   xmlns="http://www.w3.org/2000/svg"
   xmlns:svg="http://www.w3.org/2000/svg"><sodipodi:namedview
     id="namedview15579"
     pagecolor="#ffffff"
     bordercolor="#000000"
     borderopacity="0.25"
     inkscape:showpageshadow="2"
     inkscape:pageopacity="0.0"
     inkscape:pagecheckerboard="true"
     inkscape:deskcolor="#d1d1d1"
     inkscape:document-units="mm"
     showgrid="false"
     showborder="false"
     inkscape:zoom="2.9825758"
     inkscape:cx="226.31445"
     inkscape:cy="37.886716"
     inkscape:window-width="1920"
     inkscape:window-height="1017"
     inkscape:window-x="1912"
     inkscape:window-y="-8"
     inkscape:window-maximized="1"
     inkscape:current-layer="layer1" /><defs
     id="defs15574" /><g
     inkscape:label="Layer 1"
     inkscape:groupmode="layer"
     id="layer1"
     transform="translate(-27.527395,-86.528381)"><g
       id="g15014"
       transform="matrix(0.26458333,0,0,0.26458333,49.253236,55.298379)" /><g
       id="g13720"
       transform="matrix(0.26458333,0,0,0.26458333,18.006939,-99.253542)" /><g
       id="g18168"
       transform="matrix(0.26458333,0,0,0.26458333,27.213146,49.421226)" /><g
       id="g39255"
       transform="matrix(0.26458333,0,0,0.26458333,8.1633831,-69.347498)"><path
         d="m 139.84,628.96002 h -8.48"
         style="fill:none;stroke:#ff0000;stroke-width:0.96;stroke-linecap:round;stroke-linejoin:round;stroke-miterlimit:10;stroke-dasharray:2.88, 2.88;stroke-dashoffset:0;stroke-opacity:1"
         id="path39257" /></g><g
       id="g39259"
       transform="matrix(0.26458333,0,0,0.26458333,8.1633831,-69.347498)"><path
         d="M 131.36,628.96002 101.12,598.71997"
         style="fill:none;stroke:#ff0000;stroke-width:0.96;stroke-linecap:round;stroke-linejoin:round;stroke-miterlimit:10;stroke-dasharray:2.88, 2.88;stroke-dashoffset:0;stroke-opacity:1"
         id="path39261" /></g><g
       id="g39263"
       transform="matrix(0.26458333,0,0,0.26458333,8.1633831,-69.347498)"><path
         d="m 92.160004,620.47998 h 0.959999"
         style="fill:none;stroke:#ff0000;stroke-width:0.96;stroke-linecap:round;stroke-linejoin:round;stroke-miterlimit:10;stroke-dasharray:2.88, 2.88;stroke-dashoffset:0;stroke-opacity:1"
         id="path39265" /></g><g
       id="g39267"
       transform="matrix(0.26458333,0,0,0.26458333,45.162716,97.064839)"><path
         d="M 0,0 C 0,1.12 0.96,1.92 1.92,1.92 3.04,1.92 3.84,1.12 3.84,0 3.84,-0.96 3.04,-1.92 1.92,-1.92 0.96,-1.92 0,-0.96 0,0 Z"
         style="fill:#000000;fill-opacity:1;fill-rule:evenodd;stroke:none"
         id="path39269" /></g><g
       id="g39271"
       transform="matrix(0.26458333,0,0,0.26458333,45.162716,97.064839)"><path
         d="M 0,0 C 0,1.12 0.96,1.92 1.92,1.92 3.04,1.92 3.84,1.12 3.84,0 3.84,-0.96 3.04,-1.92 1.92,-1.92 0.96,-1.92 0,-0.96 0,0 Z"
         style="fill:none;stroke:#000000;stroke-width:0.96;stroke-linecap:round;stroke-linejoin:round;stroke-miterlimit:10;stroke-dasharray:none;stroke-opacity:1"
         id="path39273" /></g><g
       id="g39275"
       transform="matrix(0.26458333,0,0,0.26458333,8.1633831,-69.347498)"><path
         d="m 147.52,624.32001 v -7.68"
         style="fill:none;stroke:#000000;stroke-width:0.96;stroke-linecap:round;stroke-linejoin:round;stroke-miterlimit:10;stroke-dasharray:none;stroke-opacity:1"
         id="path39277" /></g><g
       id="g39279"
       transform="matrix(0.26458333,0,0,0.26458333,34.918049,89.063825)"><path
         d="m 0,0 c -4.96,-4.96 -12.96,-4.96 -18.08,0 -4.960001,4.96 -4.960001,13.12 0,18.08 2.4,2.4 5.76,3.68 9.12,3.68"
         style="fill:none;stroke:#000000;stroke-width:0.96;stroke-linecap:round;stroke-linejoin:round;stroke-miterlimit:10;stroke-dasharray:none;stroke-opacity:1"
         id="path39281" /></g><g
       id="g39283"
       transform="matrix(0.26458333,0,0,0.26458333,8.1633831,-69.347498)"><path
         d="M 93.120003,620.47998 H 147.52"
         style="fill:none;stroke:#000000;stroke-width:0.96;stroke-linecap:round;stroke-linejoin:round;stroke-miterlimit:10;stroke-dasharray:none;stroke-opacity:1"
         id="path39285" /></g><g
       id="g39287"
       transform="matrix(0.26458333,0,0,0.26458333,8.1633831,-69.347498)"><path
         d="m 139.84,628.96002 h -8.48"
         style="fill:none;stroke:#ff0000;stroke-width:0.96;stroke-linecap:round;stroke-linejoin:round;stroke-miterlimit:10;stroke-dasharray:2.88, 2.88;stroke-dashoffset:0;stroke-opacity:1"
         id="path39289" /></g><g
       id="g39291"
       transform="matrix(0.26458333,0,0,0.26458333,8.1633831,-69.347498)"><path
         d="M 131.36,628.96002 101.12,598.71997"
         style="fill:none;stroke:#ff0000;stroke-width:0.96;stroke-linecap:round;stroke-linejoin:round;stroke-miterlimit:10;stroke-dasharray:2.88, 2.88;stroke-dashoffset:0;stroke-opacity:1"
         id="path39293" /></g><g
       id="g39295"
       transform="matrix(0.26458333,0,0,0.26458333,8.1633831,-69.347498)"><path
         d="m 92.160004,620.47998 h 0.959999"
         style="fill:none;stroke:#ff0000;stroke-width:0.96;stroke-linecap:round;stroke-linejoin:round;stroke-miterlimit:10;stroke-dasharray:2.88, 2.88;stroke-dashoffset:0;stroke-opacity:1"
         id="path39297" /></g><g
       id="g39299"
       transform="matrix(0.26458333,0,0,0.26458333,45.162716,97.064839)"><path
         d="M 0,0 C 0,1.12 0.96,1.92 1.92,1.92 3.04,1.92 3.84,1.12 3.84,0 3.84,-0.96 3.04,-1.92 1.92,-1.92 0.96,-1.92 0,-0.96 0,0 Z"
         style="fill:#000000;fill-opacity:1;fill-rule:evenodd;stroke:none"
         id="path39301" /></g><g
       id="g39303"
       transform="matrix(0.26458333,0,0,0.26458333,45.162716,97.064839)"><path
         d="M 0,0 C 0,1.12 0.96,1.92 1.92,1.92 3.04,1.92 3.84,1.12 3.84,0 3.84,-0.96 3.04,-1.92 1.92,-1.92 0.96,-1.92 0,-0.96 0,0 Z"
         style="fill:none;stroke:#000000;stroke-width:0.96;stroke-linecap:round;stroke-linejoin:round;stroke-miterlimit:10;stroke-dasharray:none;stroke-opacity:1"
         id="path39305" /></g><g
       id="g39307"
       transform="matrix(0.26458333,0,0,0.26458333,8.1633831,-69.347498)"><path
         d="m 147.52,624.32001 v -7.68"
         style="fill:none;stroke:#000000;stroke-width:0.96;stroke-linecap:round;stroke-linejoin:round;stroke-miterlimit:10;stroke-dasharray:none;stroke-opacity:1"
         id="path39309" /></g><g
       id="g39311"
       transform="matrix(0.26458333,0,0,0.26458333,34.918049,89.063825)"><path
         d="m 0,0 c -4.96,-4.96 -12.96,-4.96 -18.08,0 -4.960001,4.96 -4.960001,13.12 0,18.08 2.4,2.4 5.76,3.68 9.12,3.68"
         style="fill:none;stroke:#000000;stroke-width:0.96;stroke-linecap:round;stroke-linejoin:round;stroke-miterlimit:10;stroke-dasharray:none;stroke-opacity:1"
         id="path39313" /></g><g
       id="g39315"
       transform="matrix(0.26458333,0,0,0.26458333,8.1633831,-69.347498)"><path
         d="M 93.120003,620.47998 H 147.52"
         style="fill:none;stroke:#000000;stroke-width:0.96;stroke-linecap:round;stroke-linejoin:round;stroke-miterlimit:10;stroke-dasharray:none;stroke-opacity:1"
         id="path39317" /></g><g
       id="g39319"
       transform="matrix(0.26458333,0,0,0.26458333,8.1633831,-69.347498)"><path
         d="m 121.76,609.28003 -2.88,-0.64002 0.48,2.39997 z"
         style="fill:#000000;fill-opacity:1;fill-rule:evenodd;stroke:none"
         id="path39321" /></g><g
       id="g39323"
       transform="matrix(0.26458333,0,0,0.26458333,8.1633831,-69.347498)"><path
         d="m 113.28,616.96002 c 0.16,-1.92004 0.96,-3.52002 2.24,-4.96002 1.76,-1.59998 3.84,-2.56 6.24,-2.71997"
         style="fill:none;stroke:#000000;stroke-width:0.48;stroke-linecap:butt;stroke-linejoin:miter;stroke-miterlimit:2;stroke-dasharray:none;stroke-opacity:1"
         id="path39325" /></g><g
       id="g39327"
       transform="matrix(0.26458333,0,0,0.26458333,8.1633831,-69.347498)"><path
         d="m 121.76,609.28003 -2.88,-0.64002 0.48,2.39997 z"
         style="fill:none;stroke:#000000;stroke-width:0.48;stroke-linecap:butt;stroke-linejoin:miter;stroke-miterlimit:2;stroke-dasharray:none;stroke-opacity:1"
         id="path39329" /></g><g
       id="g39331"
       transform="matrix(0.26458333,0,0,0.26458333,41.141049,92.916175)"><path
         d="M 0,0 V -0.64 H -1.28 V -1.12 L 0,-3.2 h 0.64 v 2.08 h 0.32 v 0.48 H 0.64 V 0 Z m 0,-1.12 v -1.12 l -0.8,1.12 z"
         style="fill:#ff0000;fill-opacity:1;fill-rule:nonzero;stroke:none"
         id="path39333" /></g><g
       id="g39335"
       transform="matrix(0.26458333,0,0,0.26458333,8.1633831,-69.347498)"><path
         d="m 89.919998,627.52002 h 4.480004"
         style="fill:none;stroke:#000000;stroke-width:0.48;stroke-linecap:round;stroke-linejoin:round;stroke-miterlimit:10;stroke-dasharray:none;stroke-opacity:1"
         id="path39337" /></g><g
       id="g39339"
       transform="matrix(0.26458333,0,0,0.26458333,32.124049,96.5145)"><path
         d="M 0,0 2.56,-1.6 0.48,-2.88 Z M 3.2,0 5.76,-1.6 3.68,-2.88 Z"
         style="fill:#000000;fill-opacity:1;fill-rule:evenodd;stroke:none"
         id="path39341" /></g><g
       id="g39343"
       transform="matrix(0.26458333,0,0,0.26458333,8.1633831,-69.347498)"><path
         d="m 91.199997,615.35998 c 1.280006,1.44001 1.920006,3.20002 1.920006,5.12 C 92.959999,622.88 92.160004,625.12 90.559998,626.88"
         style="fill:none;stroke:#000000;stroke-width:0.48;stroke-linecap:butt;stroke-linejoin:miter;stroke-miterlimit:2;stroke-dasharray:none;stroke-opacity:1"
         id="path39345" /></g><g
       id="g39347"
       transform="matrix(0.26458333,0,0,0.26458333,8.1633831,-69.347498)"><path
         d="M 96.32,620.47998 C 96.160004,622.88 95.360001,625.12 93.760002,626.88"
         style="fill:none;stroke:#000000;stroke-width:0.48;stroke-linecap:butt;stroke-linejoin:miter;stroke-miterlimit:2;stroke-dasharray:none;stroke-opacity:1"
         id="path39349" /></g><g
       id="g39351"
       transform="matrix(0.26458333,0,0,0.26458333,8.1633831,-69.347498)"><path
         d="M 90.559998,626.88 93.120003,625.28003 91.040001,624 Z"
         style="fill:none;stroke:#000000;stroke-width:0.48;stroke-linecap:butt;stroke-linejoin:miter;stroke-miterlimit:2;stroke-dasharray:none;stroke-opacity:1"
         id="path39353" /></g><g
       id="g39355"
       transform="matrix(0.26458333,0,0,0.26458333,8.1633831,-69.347498)"><path
         d="M 93.760002,626.88 96.32,625.28003 94.239998,624 Z"
         style="fill:none;stroke:#000000;stroke-width:0.48;stroke-linecap:butt;stroke-linejoin:miter;stroke-miterlimit:2;stroke-dasharray:none;stroke-opacity:1"
         id="path39357" /></g><g
       id="g39359"
       transform="matrix(0.00361738,0,0,0.00361738,8.1633831,-69.347498)"><text
         xml:space="preserve"
         transform="translate(6120.6401,45957.102)"
         style="font-variant:normal;font-weight:normal;font-size:327.68px;font-family:F1;-inkscape-font-specification:F1;writing-mode:lr-tb;fill:#ff0000;fill-opacity:1;fill-rule:nonzero;stroke:none"
         id="text39363"><tspan
           x="0 186.7776 268.6976"
           y="0"
           sodipodi:role="line"
           id="tspan39361">1/4</tspan></text></g><g
       id="g39365"
       transform="matrix(0.26458333,0,0,0.26458333,8.1633831,-69.347498)"><path
         d="m 89.919998,627.52002 h 4.480004"
         style="fill:none;stroke:#000000;stroke-width:0.48;stroke-linecap:round;stroke-linejoin:round;stroke-miterlimit:10;stroke-dasharray:none;stroke-opacity:1"
         id="path39367" /></g><g
       id="g39369"
       transform="matrix(0.26458333,0,0,0.26458333,32.124049,96.5145)"><path
         d="M 0,0 2.56,-1.6 0.48,-2.88 Z M 3.2,0 5.76,-1.6 3.68,-2.88 Z"
         style="fill:#000000;fill-opacity:1;fill-rule:evenodd;stroke:none"
         id="path39371" /></g><g
       id="g39373"
       transform="matrix(0.26458333,0,0,0.26458333,8.1633831,-69.347498)"><path
         d="m 91.199997,615.35998 c 1.280006,1.44001 1.920006,3.20002 1.920006,5.12 C 92.959999,622.88 92.160004,625.12 90.559998,626.88"
         style="fill:none;stroke:#000000;stroke-width:0.48;stroke-linecap:butt;stroke-linejoin:miter;stroke-miterlimit:2;stroke-dasharray:none;stroke-opacity:1"
         id="path39375" /></g><g
       id="g39377"
       transform="matrix(0.26458333,0,0,0.26458333,8.1633831,-69.347498)"><path
         d="M 96.32,620.47998 C 96.160004,622.88 95.360001,625.12 93.760002,626.88"
         style="fill:none;stroke:#000000;stroke-width:0.48;stroke-linecap:butt;stroke-linejoin:miter;stroke-miterlimit:2;stroke-dasharray:none;stroke-opacity:1"
         id="path39379" /></g><g
       id="g39381"
       transform="matrix(0.26458333,0,0,0.26458333,8.1633831,-69.347498)"><path
         d="M 90.559998,626.88 93.120003,625.28003 91.040001,624 Z"
         style="fill:none;stroke:#000000;stroke-width:0.48;stroke-linecap:butt;stroke-linejoin:miter;stroke-miterlimit:2;stroke-dasharray:none;stroke-opacity:1"
         id="path39383" /></g><g
       id="g39385"
       transform="matrix(0.26458333,0,0,0.26458333,8.1633831,-69.347498)"><path
         d="M 93.760002,626.88 96.32,625.28003 94.239998,624 Z"
         style="fill:none;stroke:#000000;stroke-width:0.48;stroke-linecap:butt;stroke-linejoin:miter;stroke-miterlimit:2;stroke-dasharray:none;stroke-opacity:1"
         id="path39387" /></g><g
       id="g39389"
       transform="matrix(0.00361738,0,0,0.00361738,8.1633831,-69.347498)"><text
         xml:space="preserve"
         transform="translate(6120.6401,45957.102)"
         style="font-variant:normal;font-weight:normal;font-size:327.68px;font-family:F1;-inkscape-font-specification:F1;writing-mode:lr-tb;fill:#ff0000;fill-opacity:1;fill-rule:nonzero;stroke:none"
         id="text39393"><tspan
           x="0 186.7776 268.6976"
           y="0"
           sodipodi:role="line"
           id="tspan39391">1/4</tspan></text></g><g
       id="g39395"
       transform="matrix(0.26458333,0,0,0.26458333,35.849383,93.466495)"><path
         d="M 0,0 H -2.4 L -6.56,8.96 H 1.76 L -2.4,0 Z M 4.64,0 H 2.24 L 0,5.12 H 4.64 L 2.24,0 Z"
         style="fill:#ffffff;fill-opacity:1;fill-rule:evenodd;stroke:none"
         id="path39397" /></g><g
       id="g39399"
       transform="matrix(0.26458333,0,0,0.26458333,8.1633831,-69.347498)"><path
         d="m 104.64,615.35998 h -2.4 l -4.159998,8.96003 H 106.4 l -4.16,-8.96003"
         style="fill:none;stroke:#000000;stroke-width:0.48;stroke-linecap:round;stroke-linejoin:round;stroke-miterlimit:10;stroke-dasharray:none;stroke-opacity:1"
         id="path39401" /></g><g
       id="g39403"
       transform="matrix(0.26458333,0,0,0.26458333,8.1633831,-69.347498)"><path
         d="m 109.28,615.35998 h -2.4 l -2.24,5.12 h 4.64 l -2.4,-5.12"
         style="fill:none;stroke:#000000;stroke-width:0.48;stroke-linecap:round;stroke-linejoin:round;stroke-miterlimit:10;stroke-dasharray:none;stroke-opacity:1"
         id="path39405" /></g><g
       id="g39407"
       transform="matrix(0.26458333,0,0,0.26458333,8.1633831,-69.347498)"><path
         d="m 102.24,614.08002 h 7.04"
         style="fill:none;stroke:#000000;stroke-width:0.48;stroke-linecap:round;stroke-linejoin:round;stroke-miterlimit:10;stroke-dasharray:none;stroke-opacity:1"
         id="path39409" /></g><g
       id="g39411"
       transform="matrix(0.00361738,0,0,0.00361738,8.1633831,-69.347498)"><text
         xml:space="preserve"
         transform="translate(6951.52,45021)"
         style="font-variant:normal;font-weight:normal;font-size:327.68px;font-family:F1;-inkscape-font-specification:F1;writing-mode:lr-tb;fill:#ff0000;fill-opacity:1;fill-rule:nonzero;stroke:none"
         id="text39415"><tspan
           x="0 186.7776 268.6976"
           y="0"
           sodipodi:role="line"
           id="tspan39413">1/4</tspan></text></g></g></svg>
