<?xml version="1.0" standalone="no"?>
<!DOCTYPE svg PUBLIC "-//W3C//DTD SVG 1.2//EN" "http://www.w3.org/Graphics/SVG/1.2/DTD/svg12.dtd">
<svg xmlns="http://www.w3.org/2000/svg" version="1.2" baseProfile="tiny" id="selectedFigureSvg" width="100px" height="100px" viewBox="-164.12 -36.11 178.25 257.51"><g id="sequence"><g id="figure-2"><path d="M 0,0 m -4,0 a4,4 0 1 1 0,0.01" style="stroke: black; stroke-width: 1px; fill: black;"/><path d="M -4,0 l -42,0" style="stroke: black; stroke-width: 3px; fill: none;" class="line" id="figure-2-roll0-gap0"/><path d="M -46,0 m 0,-16.75 l -8,0 " style="stroke: black; stroke-width: 3px; fill: none;"/><path d="M -46,0 m 0,-16 l -9.6,24 l 19.2,0 z" style="stroke: black; stroke-width: 1.5px; fill: white;"/><path d="M -52,0 l -13.6,0" style="stroke: black; stroke-width: 3px; fill: none;" class="line"/><path d="M -65.6,0 m -8,-19.2 l 29.6,0" style="stroke: black; stroke-width: 3px; fill: none;"/><path d="M -65.6,0 m 0,-16.75 l -8,0 " style="stroke: black; stroke-width: 3px; fill: none;"/><path d="M -65.6,0 m 0,-16 l -8,16 l 16,0 z" style="stroke: black; stroke-width: 1.5px; fill: white;"/><path d="M -71.6,0 l -0.42,0" style="stroke-dasharray: 10, 8; stroke: red; stroke-width: 3px; fill: none; " class="line" id="figure-2-roll0-gap1"/><path d="M -72.02,0 a84,84 0 0 0 0,168" style="stroke: black; stroke-width: 3px; fill: none;"/><path d="M -72.02,168 l 0.42,0" style="stroke: black; stroke-width: 3px; fill: none;" class="line" id="figure-2-roll1-gap0"/><path d="M -71.6,168 m -7.53,15.64 l 8.31,-3.64 l -6.93,-4 z" style="stroke: black; stroke-width: 2px; fill: black;"/><path d="M -71.6,168 m -7.53,15.64 a 20,20 0 0 0 7.53,-15.64 " style="stroke: black; stroke-width: 3px; fill: none;"/><text style="font-family: Arial, Sans; font-size: 20px; font-weight: bold; fill: red;" text-anchor="middle" x="-71.6" y="205">4x8</text><path d="M -71.6,168 l 21,0" style="stroke-dasharray: 10, 8; stroke: red; stroke-width: 3px; fill: none; " class="line" id="figure-2-roll1-gap0"/><path d="M -50.6,168 m -7.53,-15.64 l 8.31,3.64 l -6.93,4 z" style="stroke: black; stroke-width: 2px; fill: black;"/><path d="M -50.6,168 m -7.53,-15.64 a 20,20 0 0 1 4.85,25.64 " style="stroke: black; stroke-width: 3px; fill: none;"/><path d="M -50.6,168 l 42,0" style="stroke-dasharray: 10, 8; stroke: red; stroke-width: 3px; fill: none; " class="line" id="figure-2-exit"/><path d="M -8.6,168 l 0,10 l 0,-20" style="stroke: black; stroke-width: 3px; fill: none;"/></g></g></svg>