<?xml version="1.0" encoding="UTF-8" standalone="no"?>
<!-- Created with Inkscape (http://www.inkscape.org/) -->

<svg
   width="21.911289mm"
   height="17.741934mm"
   viewBox="0 0 21.911289 17.74193"
   version="1.1"
   id="svg15577"
   inkscape:version="1.2.2 (732a01da63, 2022-12-09)"
   sodipodi:docname="7.svg"
   xml:space="preserve"
   xmlns:inkscape="http://www.inkscape.org/namespaces/inkscape"
   xmlns:sodipodi="http://sodipodi.sourceforge.net/DTD/sodipodi-0.dtd"
   xmlns="http://www.w3.org/2000/svg"
   xmlns:svg="http://www.w3.org/2000/svg"><sodipodi:namedview
     id="namedview15579"
     pagecolor="#ffffff"
     bordercolor="#000000"
     borderopacity="0.25"
     inkscape:showpageshadow="2"
     inkscape:pageopacity="0.0"
     inkscape:pagecheckerboard="true"
     inkscape:deskcolor="#d1d1d1"
     inkscape:document-units="mm"
     showgrid="false"
     showborder="false"
     inkscape:zoom="2.9825758"
     inkscape:cx="296.72339"
     inkscape:cy="107.6251"
     inkscape:window-width="1920"
     inkscape:window-height="1017"
     inkscape:window-x="1912"
     inkscape:window-y="-8"
     inkscape:window-maximized="1"
     inkscape:current-layer="layer1" /><defs
     id="defs15574" /><g
     inkscape:label="Layer 1"
     inkscape:groupmode="layer"
     id="layer1"
     transform="translate(-8.8983631,-68.076767)"><g
       id="g15014"
       transform="matrix(0.26458333,0,0,0.26458333,49.253236,55.298379)" /><g
       id="g13720"
       transform="matrix(0.26458333,0,0,0.26458333,18.006939,-99.253542)" /><g
       id="g18168"
       transform="matrix(0.26458333,0,0,0.26458333,27.213146,49.421226)" /><g
       id="g39417"
       transform="matrix(0.26458333,0,0,0.26458333,-10.110976,-104.87027)"><path
         d="M 137.92,698.40002 120.16,680.47998"
         style="fill:none;stroke:#ff0000;stroke-width:0.96;stroke-linecap:round;stroke-linejoin:round;stroke-miterlimit:10;stroke-dasharray:6.72, 4.8;stroke-dashoffset:0;stroke-opacity:1"
         id="path39419" /></g><g
       id="g39421"
       transform="matrix(0.26458333,0,0,0.26458333,-10.110976,-104.87027)"><path
         d="m 104.48,664.79999 c -5.439999,-5.27997 -13.920002,-5.27997 -19.359997,0 -5.280007,5.28003 -5.280007,13.91998 0,19.20001"
         style="fill:none;stroke:#ff0000;stroke-width:0.96;stroke-linecap:round;stroke-linejoin:round;stroke-miterlimit:10;stroke-dasharray:6.72, 4.8;stroke-dashoffset:0;stroke-opacity:1"
         id="path39423" /></g><g
       id="g39425"
       transform="matrix(0.26458333,0,0,0.26458333,-10.110976,-104.87027)"><path
         d="M 85.120003,684 109.12,708"
         style="fill:none;stroke:#ff0000;stroke-width:0.96;stroke-linecap:round;stroke-linejoin:round;stroke-miterlimit:10;stroke-dasharray:6.72, 4.8;stroke-dashoffset:0;stroke-opacity:1"
         id="path39427" /></g><g
       id="g39429"
       transform="matrix(0.26458333,0,0,0.26458333,-10.110976,-104.87027)"><path
         d="m 109.12,708 h 38.4"
         style="fill:none;stroke:#ff0000;stroke-width:0.96;stroke-linecap:round;stroke-linejoin:round;stroke-miterlimit:10;stroke-dasharray:6.72, 4.8;stroke-dashoffset:0;stroke-opacity:1"
         id="path39431" /></g><g
       id="g39433"
       transform="matrix(0.26458333,0,0,0.26458333,11.140357,79.914733)"><path
         d="m 0,0 c 0,0.96 -0.8,1.92 -1.76,1.92 -1.12,0 -1.92,-0.96 -1.92,-1.92 0,-1.12 0.8,-1.92 1.92,-1.92 C -0.8,-1.92 0,-1.12 0,0 Z"
         style="fill:#000000;fill-opacity:1;fill-rule:evenodd;stroke:none"
         id="path39435" /></g><g
       id="g39437"
       transform="matrix(0.26458333,0,0,0.26458333,11.140357,79.914733)"><path
         d="m 0,0 c 0,0.96 -0.8,1.92 -1.76,1.92 -1.12,0 -1.92,-0.96 -1.92,-1.92 0,-1.12 0.8,-1.92 1.92,-1.92 C -0.8,-1.92 0,-1.12 0,0 Z"
         style="fill:none;stroke:#000000;stroke-width:0.96;stroke-linecap:round;stroke-linejoin:round;stroke-miterlimit:10;stroke-dasharray:none;stroke-opacity:1"
         id="path39439" /></g><g
       id="g39441"
       transform="matrix(0.26458333,0,0,0.26458333,-10.110976,-104.87027)"><path
         d="M 147.52,715.52002 V 700.47998"
         style="fill:none;stroke:#000000;stroke-width:0.96;stroke-linecap:round;stroke-linejoin:round;stroke-miterlimit:10;stroke-dasharray:none;stroke-opacity:1"
         id="path39443" /></g><g
       id="g39445"
       transform="matrix(0.26458333,0,0,0.26458333,-10.110976,-104.87027)"><path
         d="m 80.32,698.40002 h 57.6"
         style="fill:none;stroke:#000000;stroke-width:0.96;stroke-linecap:round;stroke-linejoin:round;stroke-miterlimit:10;stroke-dasharray:none;stroke-opacity:1"
         id="path39447" /></g><g
       id="g39449"
       transform="matrix(0.26458333,0,0,0.26458333,-10.110976,-104.87027)"><path
         d="M 120.16,680.47998 104.48,664.79999"
         style="fill:none;stroke:#000000;stroke-width:0.96;stroke-linecap:round;stroke-linejoin:round;stroke-miterlimit:10;stroke-dasharray:none;stroke-opacity:1"
         id="path39451" /></g><g
       id="g39453"
       transform="matrix(0.26458333,0,0,0.26458333,-10.110976,-104.87027)"><path
         d="M 137.92,698.40002 120.16,680.47998"
         style="fill:none;stroke:#ff0000;stroke-width:0.96;stroke-linecap:round;stroke-linejoin:round;stroke-miterlimit:10;stroke-dasharray:6.72, 4.8;stroke-dashoffset:0;stroke-opacity:1"
         id="path39455" /></g><g
       id="g39457"
       transform="matrix(0.26458333,0,0,0.26458333,-10.110976,-104.87027)"><path
         d="m 104.48,664.79999 c -5.439999,-5.27997 -13.920002,-5.27997 -19.359997,0 -5.280007,5.28003 -5.280007,13.91998 0,19.20001"
         style="fill:none;stroke:#ff0000;stroke-width:0.96;stroke-linecap:round;stroke-linejoin:round;stroke-miterlimit:10;stroke-dasharray:6.72, 4.8;stroke-dashoffset:0;stroke-opacity:1"
         id="path39459" /></g><g
       id="g39461"
       transform="matrix(0.26458333,0,0,0.26458333,-10.110976,-104.87027)"><path
         d="M 85.120003,684 109.12,708"
         style="fill:none;stroke:#ff0000;stroke-width:0.96;stroke-linecap:round;stroke-linejoin:round;stroke-miterlimit:10;stroke-dasharray:6.72, 4.8;stroke-dashoffset:0;stroke-opacity:1"
         id="path39463" /></g><g
       id="g39465"
       transform="matrix(0.26458333,0,0,0.26458333,-10.110976,-104.87027)"><path
         d="m 109.12,708 h 38.4"
         style="fill:none;stroke:#ff0000;stroke-width:0.96;stroke-linecap:round;stroke-linejoin:round;stroke-miterlimit:10;stroke-dasharray:6.72, 4.8;stroke-dashoffset:0;stroke-opacity:1"
         id="path39467" /></g><g
       id="g39469"
       transform="matrix(0.26458333,0,0,0.26458333,11.140357,79.914733)"><path
         d="m 0,0 c 0,0.96 -0.8,1.92 -1.76,1.92 -1.12,0 -1.92,-0.96 -1.92,-1.92 0,-1.12 0.8,-1.92 1.92,-1.92 C -0.8,-1.92 0,-1.12 0,0 Z"
         style="fill:#000000;fill-opacity:1;fill-rule:evenodd;stroke:none"
         id="path39471" /></g><g
       id="g39473"
       transform="matrix(0.26458333,0,0,0.26458333,11.140357,79.914733)"><path
         d="m 0,0 c 0,0.96 -0.8,1.92 -1.76,1.92 -1.12,0 -1.92,-0.96 -1.92,-1.92 0,-1.12 0.8,-1.92 1.92,-1.92 C -0.8,-1.92 0,-1.12 0,0 Z"
         style="fill:none;stroke:#000000;stroke-width:0.96;stroke-linecap:round;stroke-linejoin:round;stroke-miterlimit:10;stroke-dasharray:none;stroke-opacity:1"
         id="path39475" /></g><g
       id="g39477"
       transform="matrix(0.26458333,0,0,0.26458333,-10.110976,-104.87027)"><path
         d="M 147.52,715.52002 V 700.47998"
         style="fill:none;stroke:#000000;stroke-width:0.96;stroke-linecap:round;stroke-linejoin:round;stroke-miterlimit:10;stroke-dasharray:none;stroke-opacity:1"
         id="path39479" /></g><g
       id="g39481"
       transform="matrix(0.26458333,0,0,0.26458333,-10.110976,-104.87027)"><path
         d="m 80.32,698.40002 h 57.6"
         style="fill:none;stroke:#000000;stroke-width:0.96;stroke-linecap:round;stroke-linejoin:round;stroke-miterlimit:10;stroke-dasharray:none;stroke-opacity:1"
         id="path39483" /></g><g
       id="g39485"
       transform="matrix(0.26458333,0,0,0.26458333,-10.110976,-104.87027)"><path
         d="M 120.16,680.47998 104.48,664.79999"
         style="fill:none;stroke:#000000;stroke-width:0.96;stroke-linecap:round;stroke-linejoin:round;stroke-miterlimit:10;stroke-dasharray:none;stroke-opacity:1"
         id="path39487" /></g><g
       id="g39489"
       transform="matrix(0.26458333,0,0,0.26458333,-10.110976,-104.87027)"><path
         d="m 124.8,675.84003 2.08,2.23999 -4.16,11.51996 -7.2,-7.35999 11.36,-4.15997 z"
         style="fill:#ff0000;fill-opacity:1;fill-rule:evenodd;stroke:none"
         id="path39491" /></g><g
       id="g39493"
       transform="matrix(0.26458333,0,0,0.26458333,-10.110976,-104.87027)"><path
         d="m 124.8,675.84003 2.08,2.23999 -4.16,11.51996 -7.2,-7.35999 11.36,-4.15997"
         style="fill:none;stroke:#000000;stroke-width:0.48;stroke-linecap:round;stroke-linejoin:round;stroke-miterlimit:10;stroke-dasharray:none;stroke-opacity:1"
         id="path39495" /></g><g
       id="g39497"
       transform="matrix(0.26458333,0,0,0.26458333,-10.110976,-104.87027)"><path
         d="m 123.84,673.12 -3.68,-0.79999 0.64,2.88 z"
         style="fill:#000000;fill-opacity:1;fill-rule:evenodd;stroke:none"
         id="path39499" /></g><g
       id="g39501"
       transform="matrix(0.26458333,0,0,0.26458333,-10.110976,-104.87027)"><path
         d="m 116,676.47998 c 2.24,-1.91998 4.96,-3.19995 7.84,-3.35998"
         style="fill:none;stroke:#000000;stroke-width:0.48;stroke-linecap:butt;stroke-linejoin:miter;stroke-miterlimit:2;stroke-dasharray:none;stroke-opacity:1"
         id="path39503" /></g><g
       id="g39505"
       transform="matrix(0.26458333,0,0,0.26458333,-10.110976,-104.87027)"><path
         d="m 123.84,673.12 -3.68,-0.79999 0.64,2.88 z"
         style="fill:none;stroke:#000000;stroke-width:0.48;stroke-linecap:butt;stroke-linejoin:miter;stroke-miterlimit:2;stroke-dasharray:none;stroke-opacity:1"
         id="path39507" /></g><g
       id="g39509"
       transform="matrix(0.26458333,0,0,0.26458333,-10.110976,-104.87027)"><path
         d="m 123.84,673.12 -3.68,-0.79999 0.64,2.88 z"
         style="fill:#000000;fill-opacity:1;fill-rule:evenodd;stroke:none"
         id="path39511" /></g><g
       id="g39513"
       transform="matrix(0.26458333,0,0,0.26458333,-10.110976,-104.87027)"><path
         d="m 116,676.47998 c 2.24,-1.91998 4.96,-3.19995 7.84,-3.35998"
         style="fill:none;stroke:#000000;stroke-width:0.48;stroke-linecap:butt;stroke-linejoin:miter;stroke-miterlimit:2;stroke-dasharray:none;stroke-opacity:1"
         id="path39515" /></g><g
       id="g39517"
       transform="matrix(0.26458333,0,0,0.26458333,-10.110976,-104.87027)"><path
         d="m 123.84,673.12 -3.68,-0.79999 0.64,2.88 z"
         style="fill:none;stroke:#000000;stroke-width:0.48;stroke-linecap:butt;stroke-linejoin:miter;stroke-miterlimit:2;stroke-dasharray:none;stroke-opacity:1"
         id="path39519" /></g><g
       id="g39521"
       transform="matrix(0.26458333,0,0,0.26458333,-10.110976,-104.87027)"><path
         d="M 96.480003,684.32001 97.440002,688 l -3.04,-0.79999 z"
         style="fill:#000000;fill-opacity:1;fill-rule:evenodd;stroke:none"
         id="path39523" /></g><g
       id="g39525"
       transform="matrix(0.26458333,0,0,0.26458333,-10.110976,-104.87027)"><path
         d="m 87.040001,694.88 c 2.400001,-0.16003 4.479996,-1.11999 6.239998,-2.72003 1.919998,-2.23999 3.040001,-4.95996 3.200004,-7.83996"
         style="fill:none;stroke:#000000;stroke-width:0.48;stroke-linecap:butt;stroke-linejoin:miter;stroke-miterlimit:2;stroke-dasharray:none;stroke-opacity:1"
         id="path39527" /></g><g
       id="g39529"
       transform="matrix(0.26458333,0,0,0.26458333,-10.110976,-104.87027)"><path
         d="M 96.480003,684.32001 97.440002,688 l -3.04,-0.79999 z"
         style="fill:none;stroke:#000000;stroke-width:0.48;stroke-linecap:butt;stroke-linejoin:miter;stroke-miterlimit:2;stroke-dasharray:none;stroke-opacity:1"
         id="path39531" /></g><g
       id="g39533"
       transform="matrix(0.26458333,0,0,0.26458333,14.865691,75.554389)"><path
         d="m 0,0 v 0.8 h -2.56 c 0,-0.32 0,-0.64 0.16,-0.8 0.16,-0.32 0.48,-0.64 0.96,-0.96 0.32,-0.32 0.48,-0.64 0.64,-0.64 0,-0.16 0.16,-0.32 0.16,-0.48 0,-0.16 -0.16,-0.32 -0.16,-0.48 -0.16,0 -0.32,-0.16 -0.48,-0.16 -0.16,0 -0.16,0.16 -0.32,0.16 0,0.16 -0.16,0.32 -0.16,0.48 h -0.8 c 0.16,-0.48 0.16,-0.8 0.48,-0.96 0.16,-0.16 0.48,-0.16 0.96,-0.16 0.32,0 0.64,0 0.8,0.32 C 0,-2.72 0,-2.56 0,-2.24 c 0,0.32 0,0.48 0,0.64 -0.16,0.16 -0.16,0.32 -0.32,0.48 -0.16,0.16 -0.32,0.32 -0.48,0.48 -0.32,0.16 -0.48,0.32 -0.48,0.48 0,0 -0.16,0.16 -0.16,0.16 z"
         style="fill:#ff0000;fill-opacity:1;fill-rule:nonzero;stroke:none"
         id="path39535" /></g></g></svg>
