<?xml version="1.0" standalone="no"?>
<!DOCTYPE svg PUBLIC "-//W3C//DTD SVG 1.2//EN" "http://www.w3.org/Graphics/SVG/1.2/DTD/svg12.dtd">
<svg xmlns="http://www.w3.org/2000/svg" version="1.2" baseProfile="tiny" id="selectedFigureSvg" width="100px" height="100px" viewBox="-186.43 -102.8 204.39 137.15"><g id="sequence"><g id="figure-2"><path d="M 0,0 m -4,0 a4,4 0 1 1 0,0.01" style="stroke: black; stroke-width: 1px; fill: black;"/><path d="M -4,0 l -20,0" style="stroke-dasharray: 10, 8; stroke: red; stroke-width: 3px; fill: none; " class="line" id="figure-2-entry"/><path d="M -24,0 l -63.64,-63.64" style="stroke-dasharray: 10, 8; stroke: red; stroke-width: 3px; fill: none; " class="line" id="figure-2-roll0-gap0"/><path d="M -87.64,-63.64 m 16.38,-5.73 l -8.45,-3.31 l 2.07,7.73 z" style="stroke: black; stroke-width: 2px; fill: black;"/><path d="M -87.64,-63.64 m 16.38,-5.73 a 20,20 0 0 0 -21.56,14.7 " style="stroke: black; stroke-width: 3px; fill: none;"/><text style="font-family: Arial, Sans; font-size: 20px; font-weight: bold; fill: red;" text-anchor="middle" x="-69.46" y="-77.85">4</text><path d="M -87.64,-63.64 l -21.21,-21.21" style="stroke-dasharray: 10, 8; stroke: red; stroke-width: 3px; fill: none; " class="line" id="figure-2-roll0-gap1"/><path d="M -108.85,-84.85 a40,40 0 1 0 -28.28,68.28" style="stroke: black; stroke-width: 3px; fill: none;"/><path d="M -137.13,-16.57 l 0.2,0" style="stroke: black; stroke-width: 3px; fill: none;" class="line" id="figure-2-roll1-gap0"/><path d="M -136.93,-16.57 m -7.53,-15.64 l 8.31,3.64 l -6.93,4 z" style="stroke: black; stroke-width: 2px; fill: black;"/><path d="M -136.93,-16.57 m -7.53,-15.64 a 20,20 0 0 1 4.85,25.64 " style="stroke: black; stroke-width: 3px; fill: none;"/><text style="font-family: Arial, Sans; font-size: 20px; font-weight: bold; fill: red;" text-anchor="middle" x="-136.93" y="-43.57">1/4</text><path d="M -136.93,-16.57 l 10,0" style="stroke: black; stroke-width: 3px; fill: none;" class="line"/><path d="M -126.93,-16.57 m -9,-19.05 l -10,0" style="stroke: black; stroke-width: 3px; fill: none;"/><path d="M -126.93,-16.57 m -7.53,-15.64 l 8.31,3.64 l -6.93,4 z" style="stroke: black; stroke-width: 2px; fill: black;"/><path d="M -126.93,-16.57 m -7.53,-15.64 a 20,20 0 0 1 7.53,15.64 " style="stroke: black; stroke-width: 3px; fill: none;"/><path d="M -126.93,-16.57 l 20,0" style="stroke: black; stroke-width: 3px; fill: none;" class="line" id="figure-2-roll1-gap0"/><path d="M -106.93,-16.57 m 0,16.75 l 8,0 " style="stroke: black; stroke-width: 3px; fill: none;"/><path d="M -106.93,-16.57 m 0,16 l 9.6,-24 l -19.2,0 z" style="stroke: black; stroke-width: 1.5px; fill: white;"/><text style="font-family: Arial, Sans; font-size: 20px; font-weight: bold; fill: red;" text-anchor="middle" x="-100.93" y="24.43">1/4</text><path d="M -100.93,-16.57 l 13.6,0" style="stroke: black; stroke-width: 3px; fill: none;" class="line"/><path d="M -87.33,-16.57 m 8,19.2 l -29.6,0" style="stroke: black; stroke-width: 3px; fill: none;"/><path d="M -87.33,-16.57 m 0,16.75 l 8,0 " style="stroke: black; stroke-width: 3px; fill: none;"/><path d="M -87.33,-16.57 m 0,16 l 8,-16 l -16,0 z" style="stroke: black; stroke-width: 1.5px; fill: white;"/><path d="M -81.33,-16.57 l 90,0" style="stroke: black; stroke-width: 3px; fill: none;" class="line" id="figure-2-exit"/><path d="M 8.67,-16.57 l 0,-10 l 0,20" style="stroke: black; stroke-width: 3px; fill: none;"/></g></g></svg>