<?xml version="1.0" encoding="UTF-8" standalone="no"?>
<!-- Created with Inkscape (http://www.inkscape.org/) -->

<svg
   width="10.379033mm"
   height="19.427418mm"
   viewBox="0 0 10.379033 19.427414"
   version="1.1"
   id="svg15577"
   inkscape:version="1.2.2 (732a01da63, 2022-12-09)"
   sodipodi:docname="8.svg"
   xml:space="preserve"
   xmlns:inkscape="http://www.inkscape.org/namespaces/inkscape"
   xmlns:sodipodi="http://sodipodi.sourceforge.net/DTD/sodipodi-0.dtd"
   xmlns="http://www.w3.org/2000/svg"
   xmlns:svg="http://www.w3.org/2000/svg"><sodipodi:namedview
     id="namedview15579"
     pagecolor="#ffffff"
     bordercolor="#000000"
     borderopacity="0.25"
     inkscape:showpageshadow="2"
     inkscape:pageopacity="0.0"
     inkscape:pagecheckerboard="true"
     inkscape:deskcolor="#d1d1d1"
     inkscape:document-units="mm"
     showgrid="false"
     showborder="false"
     inkscape:zoom="2.9825758"
     inkscape:cx="260.51308"
     inkscape:cy="94.549149"
     inkscape:window-width="1920"
     inkscape:window-height="1017"
     inkscape:window-x="1912"
     inkscape:window-y="-8"
     inkscape:window-maximized="1"
     inkscape:current-layer="layer1" /><defs
     id="defs15574" /><g
     inkscape:label="Layer 1"
     inkscape:groupmode="layer"
     id="layer1"
     transform="translate(-18.479008,-71.536446)"><g
       id="g15014"
       transform="matrix(0.26458333,0,0,0.26458333,49.253236,55.298379)" /><g
       id="g13720"
       transform="matrix(0.26458333,0,0,0.26458333,18.006939,-99.253542)" /><g
       id="g18168"
       transform="matrix(0.26458333,0,0,0.26458333,27.213146,49.421226)" /><g
       id="g39537"
       transform="matrix(0.26458333,0,0,0.26458333,-4.9664999,-118.38777)"><path
         d="M 98.080002,759.52002 H 115.68 v -35.04004"
         style="fill:none;stroke:#ff0000;stroke-width:0.96;stroke-linecap:round;stroke-linejoin:round;stroke-miterlimit:10;stroke-dasharray:2.88, 2.88;stroke-dashoffset:0;stroke-opacity:1"
         id="path39539" /></g><g
       id="g39541"
       transform="matrix(0.26458333,0,0,0.26458333,-4.9664999,-118.38777)"><path
         d="M 115.68,781.76001 H 96.480003"
         style="fill:none;stroke:#ff0000;stroke-width:0.96;stroke-linecap:round;stroke-linejoin:round;stroke-miterlimit:10;stroke-dasharray:2.88, 2.88;stroke-dashoffset:0;stroke-opacity:1"
         id="path39543" /></g><g
       id="g39545"
       transform="matrix(0.26458333,0,0,0.26458333,20.983834,82.568566)"><path
         d="m 0,0 c 0,-0.96 -0.8,-1.92 -1.92,-1.92 -0.96,0 -1.92,0.96 -1.92,1.92 0,1.12 0.96,1.92 1.92,1.92 C -0.8,1.92 0,1.12 0,0 Z"
         style="fill:#000000;fill-opacity:1;fill-rule:evenodd;stroke:none"
         id="path39547" /></g><g
       id="g39549"
       transform="matrix(0.26458333,0,0,0.26458333,20.983834,82.568566)"><path
         d="m 0,0 c 0,-0.96 -0.8,-1.92 -1.92,-1.92 -0.96,0 -1.92,0.96 -1.92,1.92 0,1.12 0.96,1.92 1.92,1.92 C -0.8,1.92 0,1.12 0,0 Z"
         style="fill:none;stroke:#000000;stroke-width:0.96;stroke-linecap:round;stroke-linejoin:round;stroke-miterlimit:10;stroke-dasharray:none;stroke-opacity:1"
         id="path39551" /></g><g
       id="g39553"
       transform="matrix(0.26458333,0,0,0.26458333,-4.9664999,-118.38777)"><path
         d="m 96.480003,785.59998 v -7.68"
         style="fill:none;stroke:#000000;stroke-width:0.96;stroke-linecap:round;stroke-linejoin:round;stroke-miterlimit:10;stroke-dasharray:none;stroke-opacity:1"
         id="path39555" /></g><g
       id="g39557"
       transform="matrix(0.26458333,0,0,0.26458333,-4.9664999,-118.38777)"><path
         d="m 115.68,759.52002 v 22.23999"
         style="fill:none;stroke:#000000;stroke-width:0.96;stroke-linecap:round;stroke-linejoin:round;stroke-miterlimit:10;stroke-dasharray:none;stroke-opacity:1"
         id="path39559" /></g><g
       id="g39561"
       transform="matrix(0.26458333,0,0,0.26458333,-4.9664999,-118.38777)"><path
         d="m 115.68,724.47998 2.24,4.64002"
         style="fill:none;stroke:#000000;stroke-width:0.96;stroke-linecap:round;stroke-linejoin:round;stroke-miterlimit:10;stroke-dasharray:none;stroke-opacity:1"
         id="path39563" /></g><g
       id="g39565"
       transform="matrix(0.26458333,0,0,0.26458333,-4.9664999,-118.38777)"><path
         d="M 98.080002,759.52002 H 115.68 v -35.04004"
         style="fill:none;stroke:#ff0000;stroke-width:0.96;stroke-linecap:round;stroke-linejoin:round;stroke-miterlimit:10;stroke-dasharray:2.88, 2.88;stroke-dashoffset:0;stroke-opacity:1"
         id="path39567" /></g><g
       id="g39569"
       transform="matrix(0.26458333,0,0,0.26458333,-4.9664999,-118.38777)"><path
         d="M 115.68,781.76001 H 96.480003"
         style="fill:none;stroke:#ff0000;stroke-width:0.96;stroke-linecap:round;stroke-linejoin:round;stroke-miterlimit:10;stroke-dasharray:2.88, 2.88;stroke-dashoffset:0;stroke-opacity:1"
         id="path39571" /></g><g
       id="g39573"
       transform="matrix(0.26458333,0,0,0.26458333,20.983834,82.568566)"><path
         d="m 0,0 c 0,-0.96 -0.8,-1.92 -1.92,-1.92 -0.96,0 -1.92,0.96 -1.92,1.92 0,1.12 0.96,1.92 1.92,1.92 C -0.8,1.92 0,1.12 0,0 Z"
         style="fill:#000000;fill-opacity:1;fill-rule:evenodd;stroke:none"
         id="path39575" /></g><g
       id="g39577"
       transform="matrix(0.26458333,0,0,0.26458333,20.983834,82.568566)"><path
         d="m 0,0 c 0,-0.96 -0.8,-1.92 -1.92,-1.92 -0.96,0 -1.92,0.96 -1.92,1.92 0,1.12 0.96,1.92 1.92,1.92 C -0.8,1.92 0,1.12 0,0 Z"
         style="fill:none;stroke:#000000;stroke-width:0.96;stroke-linecap:round;stroke-linejoin:round;stroke-miterlimit:10;stroke-dasharray:none;stroke-opacity:1"
         id="path39579" /></g><g
       id="g39581"
       transform="matrix(0.26458333,0,0,0.26458333,-4.9664999,-118.38777)"><path
         d="m 96.480003,785.59998 v -7.68"
         style="fill:none;stroke:#000000;stroke-width:0.96;stroke-linecap:round;stroke-linejoin:round;stroke-miterlimit:10;stroke-dasharray:none;stroke-opacity:1"
         id="path39583" /></g><g
       id="g39585"
       transform="matrix(0.26458333,0,0,0.26458333,-4.9664999,-118.38777)"><path
         d="m 115.68,759.52002 v 22.23999"
         style="fill:none;stroke:#000000;stroke-width:0.96;stroke-linecap:round;stroke-linejoin:round;stroke-miterlimit:10;stroke-dasharray:none;stroke-opacity:1"
         id="path39587" /></g><g
       id="g39589"
       transform="matrix(0.26458333,0,0,0.26458333,-4.9664999,-118.38777)"><path
         d="m 115.68,724.47998 2.24,4.64002"
         style="fill:none;stroke:#000000;stroke-width:0.96;stroke-linecap:round;stroke-linejoin:round;stroke-miterlimit:10;stroke-dasharray:none;stroke-opacity:1"
         id="path39591" /></g><g
       id="g39593"
       transform="matrix(0.26458333,0,0,0.26458333,-4.9664999,-118.38777)"><path
         d="m 121.44,741.91998 v 1.92005 l -5.76,2.71997 v -5.44 l 5.76,2.72003 z"
         style="fill:#ff0000;fill-opacity:1;fill-rule:evenodd;stroke:none"
         id="path39595" /></g><g
       id="g39597"
       transform="matrix(0.26458333,0,0,0.26458333,-4.9664999,-118.38777)"><path
         d="m 121.44,741.91998 v 1.92005 l -5.76,2.71997 v -5.44 l 5.76,2.72003"
         style="fill:none;stroke:#000000;stroke-width:0.48;stroke-linecap:round;stroke-linejoin:round;stroke-miterlimit:10;stroke-dasharray:none;stroke-opacity:1"
         id="path39599" /></g><g
       id="g39601"
       transform="matrix(0.00335889,0,0,0.00335889,-4.9664999,-118.38777)"><text
         xml:space="preserve"
         transform="translate(9338.8799,58238.898)"
         style="font-variant:normal;font-weight:normal;font-size:327.68px;font-family:F1;-inkscape-font-specification:F1;writing-mode:lr-tb;fill:#ff0000;fill-opacity:1;fill-rule:nonzero;stroke:none"
         id="text39605"><tspan
           x="0 176.94719 265.42081"
           y="0"
           sodipodi:role="line"
           id="tspan39603">3/4</tspan></text></g><g
       id="g39607"
       transform="matrix(0.26458333,0,0,0.26458333,-4.9664999,-118.38777)"><path
         d="m 109.76,738.08002 1.44,-2.40003 1.28,1.91999 z"
         style="fill:#000000;fill-opacity:1;fill-rule:evenodd;stroke:none"
         id="path39609" /></g><g
       id="g39611"
       transform="matrix(0.26458333,0,0,0.26458333,-4.9664999,-118.38777)"><path
         d="m 115.68,735.67999 c -2.24,0.16004 -4.32,0.96002 -5.92,2.40003"
         style="fill:none;stroke:#000000;stroke-width:0.48;stroke-linecap:butt;stroke-linejoin:miter;stroke-miterlimit:2;stroke-dasharray:none;stroke-opacity:1"
         id="path39613" /></g><g
       id="g39615"
       transform="matrix(0.26458333,0,0,0.26458333,-4.9664999,-118.38777)"><path
         d="m 109.76,738.08002 1.44,-2.40003 1.28,1.91999 z"
         style="fill:none;stroke:#000000;stroke-width:0.48;stroke-linecap:butt;stroke-linejoin:miter;stroke-miterlimit:2;stroke-dasharray:none;stroke-opacity:1"
         id="path39617" /></g><g
       id="g39619"
       transform="matrix(0.00335889,0,0,0.00335889,-4.9664999,-118.38777)"><text
         xml:space="preserve"
         transform="translate(8381.1201,57785.102)"
         style="font-variant:normal;font-weight:normal;font-size:327.68px;font-family:F1;-inkscape-font-specification:F1;writing-mode:lr-tb;fill:#ff0000;fill-opacity:1;fill-rule:nonzero;stroke:none"
         id="text39623"><tspan
           x="0 176.94719 367.00159"
           y="0"
           sodipodi:role="line"
           id="tspan39621">2x8</tspan></text></g><g
       id="g39625"
       transform="matrix(0.26458333,0,0,0.26458333,-4.9664999,-118.38777)"><path
         d="m 109.76,738.08002 1.44,-2.40003 1.28,1.91999 z"
         style="fill:#000000;fill-opacity:1;fill-rule:evenodd;stroke:none"
         id="path39627" /></g><g
       id="g39629"
       transform="matrix(0.26458333,0,0,0.26458333,-4.9664999,-118.38777)"><path
         d="m 115.68,735.67999 c -2.24,0.16004 -4.32,0.96002 -5.92,2.40003"
         style="fill:none;stroke:#000000;stroke-width:0.48;stroke-linecap:butt;stroke-linejoin:miter;stroke-miterlimit:2;stroke-dasharray:none;stroke-opacity:1"
         id="path39631" /></g><g
       id="g39633"
       transform="matrix(0.26458333,0,0,0.26458333,-4.9664999,-118.38777)"><path
         d="m 109.76,738.08002 1.44,-2.40003 1.28,1.91999 z"
         style="fill:none;stroke:#000000;stroke-width:0.48;stroke-linecap:butt;stroke-linejoin:miter;stroke-miterlimit:2;stroke-dasharray:none;stroke-opacity:1"
         id="path39635" /></g><g
       id="g39637"
       transform="matrix(0.00335889,0,0,0.00335889,-4.9664999,-118.38777)"><text
         xml:space="preserve"
         transform="translate(8381.1201,57785.102)"
         style="font-variant:normal;font-weight:normal;font-size:327.68px;font-family:F1;-inkscape-font-specification:F1;writing-mode:lr-tb;fill:#ff0000;fill-opacity:1;fill-rule:nonzero;stroke:none"
         id="text39641"><tspan
           x="0 176.94719 367.00159"
           y="0"
           sodipodi:role="line"
           id="tspan39639">2x8</tspan></text></g><g
       id="g39643"
       transform="matrix(0.26458333,0,0,0.26458333,24.1165,84.219563)"><path
         d="M 0,0 1.44,2.24 2.56,0.32 Z M 0,2.88 1.44,5.12 2.56,3.36 Z"
         style="fill:#000000;fill-opacity:1;fill-rule:evenodd;stroke:none"
         id="path39645" /></g><g
       id="g39647"
       transform="matrix(0.26458333,0,0,0.26458333,-4.9664999,-118.38777)"><path
         d="M 120.32,766.23999 C 119.04,767.35998 117.44,768 115.68,768 c -2.08,-0.15997 -4.16,-0.96002 -5.76,-2.23999"
         style="fill:none;stroke:#000000;stroke-width:0.48;stroke-linecap:butt;stroke-linejoin:miter;stroke-miterlimit:2;stroke-dasharray:none;stroke-opacity:1"
         id="path39649" /></g><g
       id="g39651"
       transform="matrix(0.26458333,0,0,0.26458333,-4.9664999,-118.38777)"><path
         d="m 115.68,770.88 c -2.08,0 -4.16,-0.96002 -5.76,-2.23999"
         style="fill:none;stroke:#000000;stroke-width:0.48;stroke-linecap:butt;stroke-linejoin:miter;stroke-miterlimit:2;stroke-dasharray:none;stroke-opacity:1"
         id="path39653" /></g><g
       id="g39655"
       transform="matrix(0.26458333,0,0,0.26458333,-4.9664999,-118.38777)"><path
         d="m 109.92,765.76001 1.44,2.23999 1.12,-1.91998 z"
         style="fill:none;stroke:#000000;stroke-width:0.48;stroke-linecap:butt;stroke-linejoin:miter;stroke-miterlimit:2;stroke-dasharray:none;stroke-opacity:1"
         id="path39657" /></g><g
       id="g39659"
       transform="matrix(0.26458333,0,0,0.26458333,-4.9664999,-118.38777)"><path
         d="m 109.92,768.64001 1.44,2.23999 1.12,-1.76 z"
         style="fill:none;stroke:#000000;stroke-width:0.48;stroke-linecap:butt;stroke-linejoin:miter;stroke-miterlimit:2;stroke-dasharray:none;stroke-opacity:1"
         id="path39661" /></g><g
       id="g39663"
       transform="matrix(0.26458333,0,0,0.26458333,-4.9664999,-118.38777)"><path
         d="m 109.28,765.12 v 4.16003"
         style="fill:none;stroke:#000000;stroke-width:0.48;stroke-linecap:round;stroke-linejoin:round;stroke-miterlimit:10;stroke-dasharray:none;stroke-opacity:1"
         id="path39665" /></g><g
       id="g39667"
       transform="matrix(0.26458333,0,0,0.26458333,24.1165,84.219563)"><path
         d="M 0,0 1.44,2.24 2.56,0.32 Z M 0,2.88 1.44,5.12 2.56,3.36 Z"
         style="fill:#000000;fill-opacity:1;fill-rule:evenodd;stroke:none"
         id="path39669" /></g><g
       id="g39671"
       transform="matrix(0.26458333,0,0,0.26458333,-4.9664999,-118.38777)"><path
         d="M 120.32,766.23999 C 119.04,767.35998 117.44,768 115.68,768 c -2.08,-0.15997 -4.16,-0.96002 -5.76,-2.23999"
         style="fill:none;stroke:#000000;stroke-width:0.48;stroke-linecap:butt;stroke-linejoin:miter;stroke-miterlimit:2;stroke-dasharray:none;stroke-opacity:1"
         id="path39673" /></g><g
       id="g39675"
       transform="matrix(0.26458333,0,0,0.26458333,-4.9664999,-118.38777)"><path
         d="m 115.68,770.88 c -2.08,0 -4.16,-0.96002 -5.76,-2.23999"
         style="fill:none;stroke:#000000;stroke-width:0.48;stroke-linecap:butt;stroke-linejoin:miter;stroke-miterlimit:2;stroke-dasharray:none;stroke-opacity:1"
         id="path39677" /></g><g
       id="g39679"
       transform="matrix(0.26458333,0,0,0.26458333,-4.9664999,-118.38777)"><path
         d="m 109.92,765.76001 1.44,2.23999 1.12,-1.91998 z"
         style="fill:none;stroke:#000000;stroke-width:0.48;stroke-linecap:butt;stroke-linejoin:miter;stroke-miterlimit:2;stroke-dasharray:none;stroke-opacity:1"
         id="path39681" /></g><g
       id="g39683"
       transform="matrix(0.26458333,0,0,0.26458333,-4.9664999,-118.38777)"><path
         d="m 109.92,768.64001 1.44,2.23999 1.12,-1.76 z"
         style="fill:none;stroke:#000000;stroke-width:0.48;stroke-linecap:butt;stroke-linejoin:miter;stroke-miterlimit:2;stroke-dasharray:none;stroke-opacity:1"
         id="path39685" /></g><g
       id="g39687"
       transform="matrix(0.26458333,0,0,0.26458333,-4.9664999,-118.38777)"><path
         d="m 109.28,765.12 v 4.16003"
         style="fill:none;stroke:#000000;stroke-width:0.48;stroke-linecap:round;stroke-linejoin:round;stroke-miterlimit:10;stroke-dasharray:none;stroke-opacity:1"
         id="path39689" /></g></g></svg>
