<?xml version="1.0" standalone="no"?>
<!DOCTYPE svg PUBLIC "-//W3C//DTD SVG 1.2//EN" "http://www.w3.org/Graphics/SVG/1.2/DTD/svg12.dtd">
<svg xmlns="http://www.w3.org/2000/svg" version="1.2" baseProfile="tiny" id="selectedFigureSvg" width="100px" height="100px" viewBox="-58.95 -81.26 136.35 126.72"><g id="sequence"><g id="figure-2"><path d="M 0,0 m -4,0 a4,4 0 1 1 0,0.01" style="stroke: black; stroke-width: 1px; fill: black;"/><path d="M 4,0 l 64,0" style="stroke: black; stroke-width: 3px; fill: none;" class="line" id="figure-2-entry"/><path d="M 68,0 l -28.28,-28.28" style="stroke-dasharray: 10, 8; stroke: red; stroke-width: 3px; fill: none; " class="line" id="figure-2-roll0-gap0"/><path d="M 39.72,-28.28 m -11.84,11.84 l -5.66,-5.66 " style="stroke: black; stroke-width: 3px; fill: none;"/><path d="M 39.72,-28.28 m -11.31,11.31 l 10.18,-23.76 l 13.58,13.58 z" style="stroke: black; stroke-width: 1.5px; fill: red;"/><path d="M 35.48,-32.52 l -11.31,-11.31" style="stroke-dasharray: 10, 8; stroke: red; stroke-width: 3px; fill: none; " class="line" id="figure-2-roll0-gap1"/><path d="M 24.17,-43.83 m 16.38,-5.73 l -8.45,-3.31 l 2.07,7.73 z" style="stroke: black; stroke-width: 2px; fill: black;"/><path d="M 24.17,-43.83 m 16.38,-5.73 a 20,20 0 0 0 -16.38,5.73 " style="stroke: black; stroke-width: 3px; fill: none;"/><path d="M 24.17,-43.83 l -22.63,-22.63" style="stroke: black; stroke-width: 3px; fill: none;" class="line" id="figure-2-roll0-gap2"/><path d="M 1.54,-66.46 a32,32 0 0 0 -45.25,45.25" style="stroke-dasharray: 10, 8; stroke: red; stroke-width: 3px; fill: none; "/><path d="M -43.71,-21.21 l 16.97,16.97" style="stroke-dasharray: 10, 8; stroke: red; stroke-width: 3px; fill: none; " class="line" id="figure-2-roll1-gap0"/><path d="M -26.74,-4.24 m 5.73,-16.38 l 3.31,8.45 l -7.73,-2.07 z" style="stroke: black; stroke-width: 2px; fill: black;"/><path d="M -26.74,-4.24 m 5.73,-16.38 a 20,20 0 0 1 -14.7,21.56 " style="stroke: black; stroke-width: 3px; fill: none;"/><text style="font-family: Arial, Sans; font-size: 20px; font-weight: bold; fill: red;" text-anchor="middle" x="-8.56" y="-18.45">2</text><path d="M -26.74,-4.24 l 33.94,33.94" style="stroke-dasharray: 10, 8; stroke: red; stroke-width: 3px; fill: none; " class="line" id="figure-2-roll1-gap1"/><path d="M 7.2,29.7 l 64,0" style="stroke-dasharray: 10, 8; stroke: red; stroke-width: 3px; fill: none; " class="line" id="figure-2-exit"/><path d="M 71.2,29.7 l 0,10 l 0,-20" style="stroke: black; stroke-width: 3px; fill: none;"/></g></g></svg>