<?xml version="1.0" encoding="UTF-8" standalone="no"?>
<!-- Created with Inkscape (http://www.inkscape.org/) -->

<svg
   width="20.758066mm"
   height="19.604832mm"
   viewBox="0 0 20.758066 19.604828"
   version="1.1"
   id="svg15577"
   inkscape:version="1.2.2 (732a01da63, 2022-12-09)"
   sodipodi:docname="9.svg"
   xml:space="preserve"
   xmlns:inkscape="http://www.inkscape.org/namespaces/inkscape"
   xmlns:sodipodi="http://sodipodi.sourceforge.net/DTD/sodipodi-0.dtd"
   xmlns="http://www.w3.org/2000/svg"
   xmlns:svg="http://www.w3.org/2000/svg"><sodipodi:namedview
     id="namedview15579"
     pagecolor="#ffffff"
     bordercolor="#000000"
     borderopacity="0.25"
     inkscape:showpageshadow="2"
     inkscape:pageopacity="0.0"
     inkscape:pagecheckerboard="true"
     inkscape:deskcolor="#d1d1d1"
     inkscape:document-units="mm"
     showgrid="false"
     showborder="false"
     inkscape:zoom="2.9825758"
     inkscape:cx="220.61468"
     inkscape:cy="28.163576"
     inkscape:window-width="1920"
     inkscape:window-height="1017"
     inkscape:window-x="1912"
     inkscape:window-y="-8"
     inkscape:window-maximized="1"
     inkscape:current-layer="layer1" /><defs
     id="defs15574" /><g
     inkscape:label="Layer 1"
     inkscape:groupmode="layer"
     id="layer1"
     transform="translate(-29.03546,-89.100967)"><g
       id="g15014"
       transform="matrix(0.26458333,0,0,0.26458333,49.253236,55.298379)" /><g
       id="g13720"
       transform="matrix(0.26458333,0,0,0.26458333,18.006939,-99.253542)" /><g
       id="g18168"
       transform="matrix(0.26458333,0,0,0.26458333,27.213146,49.421226)" /><g
       id="g39691"
       transform="matrix(0.26458333,0,0,0.26458333,8.8327006,-120.57984)"><path
         d="M 144.32001,856.79999 H 109.92"
         style="fill:none;stroke:#ff0000;stroke-width:0.96;stroke-linecap:round;stroke-linejoin:round;stroke-miterlimit:10;stroke-dasharray:6.72, 4.8;stroke-dashoffset:0;stroke-opacity:1"
         id="path39693" /></g><g
       id="g39695"
       transform="matrix(0.26458333,0,0,0.26458333,8.8327006,-120.57984)"><path
         d="M 109.92,856.79999 V 816.64001"
         style="fill:none;stroke:#ff0000;stroke-width:0.96;stroke-linecap:round;stroke-linejoin:round;stroke-miterlimit:10;stroke-dasharray:6.72, 4.8;stroke-dashoffset:0;stroke-opacity:1"
         id="path39697" /></g><g
       id="g39699"
       transform="matrix(0.26458333,0,0,0.26458333,8.8327006,-120.57984)"><path
         d="m 109.92,816.64001 c 0,-9.60003 7.68,-17.28003 17.28,-17.28003"
         style="fill:none;stroke:#ff0000;stroke-width:0.96;stroke-linecap:round;stroke-linejoin:round;stroke-miterlimit:10;stroke-dasharray:6.72, 4.8;stroke-dashoffset:0;stroke-opacity:1"
         id="path39701" /></g><g
       id="g39703"
       transform="matrix(0.26458333,0,0,0.26458333,8.8327006,-120.57984)"><path
         d="m 127.2,799.35998 c 9.44,0 17.12001,7.68 17.12001,17.28003 0,9.44001 -7.68001,17.12 -17.12001,17.12"
         style="fill:none;stroke:#ff0000;stroke-width:0.96;stroke-linecap:round;stroke-linejoin:round;stroke-miterlimit:10;stroke-dasharray:6.72, 4.8;stroke-dashoffset:0;stroke-opacity:1"
         id="path39705" /></g><g
       id="g39707"
       transform="matrix(0.26458333,0,0,0.26458333,47.017369,106.11515)"><path
         d="m 0,0 c 0,-1.12 0.96,-1.92 1.92,-1.92 1.12,0 1.92,0.8 1.92,1.92 0,0.96 -0.8,1.92 -1.92,1.92 C 0.96,1.92 0,0.96 0,0 Z"
         style="fill:#000000;fill-opacity:1;fill-rule:evenodd;stroke:none"
         id="path39709" /></g><g
       id="g39711"
       transform="matrix(0.26458333,0,0,0.26458333,47.017369,106.11515)"><path
         d="m 0,0 c 0,-1.12 0.96,-1.92 1.92,-1.92 1.12,0 1.92,0.8 1.92,1.92 0,0.96 -0.8,1.92 -1.92,1.92 C 0.96,1.92 0,0.96 0,0 Z"
         style="fill:none;stroke:#000000;stroke-width:0.96;stroke-linecap:round;stroke-linejoin:round;stroke-miterlimit:10;stroke-dasharray:none;stroke-opacity:1"
         id="path39713" /></g><g
       id="g39715"
       transform="matrix(0.26458333,0,0,0.26458333,8.8327006,-120.57984)"><path
         d="M 83.68,841.44 V 826.23999"
         style="fill:none;stroke:#000000;stroke-width:0.96;stroke-linecap:round;stroke-linejoin:round;stroke-miterlimit:10;stroke-dasharray:none;stroke-opacity:1"
         id="path39717" /></g><g
       id="g39719"
       transform="matrix(0.26458333,0,0,0.26458333,8.8327006,-120.57984)"><path
         d="m 112.8,802.23999 4.64,4.64001"
         style="fill:none;stroke:#000000;stroke-width:0.96;stroke-linecap:round;stroke-linejoin:round;stroke-miterlimit:10;stroke-dasharray:none;stroke-opacity:1"
         id="path39721" /></g><g
       id="g39723"
       transform="matrix(0.26458333,0,0,0.26458333,8.8327006,-120.57984)"><path
         d="M 136.96001,806.88 141.44,802.23999"
         style="fill:none;stroke:#000000;stroke-width:0.96;stroke-linecap:round;stroke-linejoin:round;stroke-miterlimit:10;stroke-dasharray:none;stroke-opacity:1"
         id="path39725" /></g><g
       id="g39727"
       transform="matrix(0.26458333,0,0,0.26458333,8.8327006,-120.57984)"><path
         d="M 127.2,833.76001 H 83.68"
         style="fill:none;stroke:#000000;stroke-width:0.96;stroke-linecap:round;stroke-linejoin:round;stroke-miterlimit:10;stroke-dasharray:none;stroke-opacity:1"
         id="path39729" /></g><g
       id="g39731"
       transform="matrix(0.26458333,0,0,0.26458333,8.8327006,-120.57984)"><path
         d="m 127.2,799.35998 c 9.44,0 17.12001,7.68 17.12001,17.28003 0,9.44001 -7.68001,17.12 -17.12001,17.12"
         style="fill:none;stroke:#000000;stroke-width:0.96;stroke-linecap:round;stroke-linejoin:round;stroke-miterlimit:10;stroke-dasharray:none;stroke-opacity:1"
         id="path39733" /></g><g
       id="g39735"
       transform="matrix(0.26458333,0,0,0.26458333,8.8327006,-120.57984)"><path
         d="M 144.32001,856.79999 H 109.92"
         style="fill:none;stroke:#ff0000;stroke-width:0.96;stroke-linecap:round;stroke-linejoin:round;stroke-miterlimit:10;stroke-dasharray:6.72, 4.8;stroke-dashoffset:0;stroke-opacity:1"
         id="path39737" /></g><g
       id="g39739"
       transform="matrix(0.26458333,0,0,0.26458333,8.8327006,-120.57984)"><path
         d="M 109.92,856.79999 V 816.64001"
         style="fill:none;stroke:#ff0000;stroke-width:0.96;stroke-linecap:round;stroke-linejoin:round;stroke-miterlimit:10;stroke-dasharray:6.72, 4.8;stroke-dashoffset:0;stroke-opacity:1"
         id="path39741" /></g><g
       id="g39743"
       transform="matrix(0.26458333,0,0,0.26458333,8.8327006,-120.57984)"><path
         d="m 109.92,816.64001 c 0,-9.60003 7.68,-17.28003 17.28,-17.28003"
         style="fill:none;stroke:#ff0000;stroke-width:0.96;stroke-linecap:round;stroke-linejoin:round;stroke-miterlimit:10;stroke-dasharray:6.72, 4.8;stroke-dashoffset:0;stroke-opacity:1"
         id="path39745" /></g><g
       id="g39747"
       transform="matrix(0.26458333,0,0,0.26458333,8.8327006,-120.57984)"><path
         d="m 127.2,799.35998 c 9.44,0 17.12001,7.68 17.12001,17.28003 0,9.44001 -7.68001,17.12 -17.12001,17.12"
         style="fill:none;stroke:#ff0000;stroke-width:0.96;stroke-linecap:round;stroke-linejoin:round;stroke-miterlimit:10;stroke-dasharray:6.72, 4.8;stroke-dashoffset:0;stroke-opacity:1"
         id="path39749" /></g><g
       id="g39751"
       transform="matrix(0.26458333,0,0,0.26458333,47.017369,106.11515)"><path
         d="m 0,0 c 0,-1.12 0.96,-1.92 1.92,-1.92 1.12,0 1.92,0.8 1.92,1.92 0,0.96 -0.8,1.92 -1.92,1.92 C 0.96,1.92 0,0.96 0,0 Z"
         style="fill:#000000;fill-opacity:1;fill-rule:evenodd;stroke:none"
         id="path39753" /></g><g
       id="g39755"
       transform="matrix(0.26458333,0,0,0.26458333,47.017369,106.11515)"><path
         d="m 0,0 c 0,-1.12 0.96,-1.92 1.92,-1.92 1.12,0 1.92,0.8 1.92,1.92 0,0.96 -0.8,1.92 -1.92,1.92 C 0.96,1.92 0,0.96 0,0 Z"
         style="fill:none;stroke:#000000;stroke-width:0.96;stroke-linecap:round;stroke-linejoin:round;stroke-miterlimit:10;stroke-dasharray:none;stroke-opacity:1"
         id="path39757" /></g><g
       id="g39759"
       transform="matrix(0.26458333,0,0,0.26458333,8.8327006,-120.57984)"><path
         d="M 83.68,841.44 V 826.23999"
         style="fill:none;stroke:#000000;stroke-width:0.96;stroke-linecap:round;stroke-linejoin:round;stroke-miterlimit:10;stroke-dasharray:none;stroke-opacity:1"
         id="path39761" /></g><g
       id="g39763"
       transform="matrix(0.26458333,0,0,0.26458333,8.8327006,-120.57984)"><path
         d="m 112.8,802.23999 4.64,4.64001"
         style="fill:none;stroke:#000000;stroke-width:0.96;stroke-linecap:round;stroke-linejoin:round;stroke-miterlimit:10;stroke-dasharray:none;stroke-opacity:1"
         id="path39765" /></g><g
       id="g39767"
       transform="matrix(0.26458333,0,0,0.26458333,8.8327006,-120.57984)"><path
         d="M 136.96001,806.88 141.44,802.23999"
         style="fill:none;stroke:#000000;stroke-width:0.96;stroke-linecap:round;stroke-linejoin:round;stroke-miterlimit:10;stroke-dasharray:none;stroke-opacity:1"
         id="path39769" /></g><g
       id="g39771"
       transform="matrix(0.26458333,0,0,0.26458333,8.8327006,-120.57984)"><path
         d="M 127.2,833.76001 H 83.68"
         style="fill:none;stroke:#000000;stroke-width:0.96;stroke-linecap:round;stroke-linejoin:round;stroke-miterlimit:10;stroke-dasharray:none;stroke-opacity:1"
         id="path39773" /></g><g
       id="g39775"
       transform="matrix(0.26458333,0,0,0.26458333,8.8327006,-120.57984)"><path
         d="m 127.2,799.35998 c 9.44,0 17.12001,7.68 17.12001,17.28003 0,9.44001 -7.68001,17.12 -17.12001,17.12"
         style="fill:none;stroke:#000000;stroke-width:0.96;stroke-linecap:round;stroke-linejoin:round;stroke-miterlimit:10;stroke-dasharray:none;stroke-opacity:1"
         id="path39777" /></g><g
       id="g39779"
       transform="matrix(0.26458333,0,0,0.26458333,8.8327006,-120.57984)"><path
         d="m 119.52,824.47998 h 3.2 l 4.32,9.28003 h -8.64 l 4.32,-9.28003 z"
         style="fill:#ffffff;fill-opacity:1;fill-rule:evenodd;stroke:none"
         id="path39781" /></g><g
       id="g39783"
       transform="matrix(0.26458333,0,0,0.26458333,8.8327006,-120.57984)"><path
         d="m 119.52,824.47998 h 3.2 l 4.32,9.28003 h -8.64 l 4.32,-9.28003"
         style="fill:none;stroke:#000000;stroke-width:0.48;stroke-linecap:round;stroke-linejoin:round;stroke-miterlimit:10;stroke-dasharray:none;stroke-opacity:1"
         id="path39785" /></g><g
       id="g39787"
       transform="matrix(0.26458333,0,0,0.26458333,8.8327006,-120.57984)"><path
         d="m 117.12,842.88 -3.68,-2.40002 3.04,-1.76001 z"
         style="fill:#000000;fill-opacity:1;fill-rule:evenodd;stroke:none"
         id="path39789" /></g><g
       id="g39791"
       transform="matrix(0.26458333,0,0,0.26458333,8.8327006,-120.57984)"><path
         d="m 113.44,833.59998 c 0.16,3.36004 1.44,6.72003 3.68,9.28002"
         style="fill:none;stroke:#000000;stroke-width:0.48;stroke-linecap:butt;stroke-linejoin:miter;stroke-miterlimit:2;stroke-dasharray:none;stroke-opacity:1"
         id="path39793" /></g><g
       id="g39795"
       transform="matrix(0.26458333,0,0,0.26458333,8.8327006,-120.57984)"><path
         d="m 117.12,842.88 -3.68,-2.40002 3.04,-1.76001 z"
         style="fill:none;stroke:#000000;stroke-width:0.48;stroke-linecap:butt;stroke-linejoin:miter;stroke-miterlimit:2;stroke-dasharray:none;stroke-opacity:1"
         id="path39797" /></g><g
       id="g39799"
       transform="matrix(0.26458333,0,0,0.26458333,8.8327006,-120.57984)"><path
         d="m 117.12,842.88 -3.68,-2.40002 3.04,-1.76001 z"
         style="fill:#000000;fill-opacity:1;fill-rule:evenodd;stroke:none"
         id="path39801" /></g><g
       id="g39803"
       transform="matrix(0.26458333,0,0,0.26458333,8.8327006,-120.57984)"><path
         d="m 113.44,833.59998 c 0.16,3.36004 1.44,6.72003 3.68,9.28002"
         style="fill:none;stroke:#000000;stroke-width:0.48;stroke-linecap:butt;stroke-linejoin:miter;stroke-miterlimit:2;stroke-dasharray:none;stroke-opacity:1"
         id="path39805" /></g><g
       id="g39807"
       transform="matrix(0.26458333,0,0,0.26458333,8.8327006,-120.57984)"><path
         d="m 117.12,842.88 -3.68,-2.40002 3.04,-1.76001 z"
         style="fill:none;stroke:#000000;stroke-width:0.48;stroke-linecap:butt;stroke-linejoin:miter;stroke-miterlimit:2;stroke-dasharray:none;stroke-opacity:1"
         id="path39809" /></g><g
       id="g39811"
       transform="matrix(0.26458333,0,0,0.26458333,8.8327006,-120.57984)"><path
         d="m 123.52,808.47998 3.68,-2.23999 -3.04,-1.91998 z"
         style="fill:#000000;fill-opacity:1;fill-rule:evenodd;stroke:none"
         id="path39813" /></g><g
       id="g39815"
       transform="matrix(0.26458333,0,0,0.26458333,8.8327006,-120.57984)"><path
         d="m 127.2,799.20001 c -0.16,3.35999 -1.44,6.71997 -3.68,9.27997"
         style="fill:none;stroke:#000000;stroke-width:0.48;stroke-linecap:butt;stroke-linejoin:miter;stroke-miterlimit:2;stroke-dasharray:none;stroke-opacity:1"
         id="path39817" /></g><g
       id="g39819"
       transform="matrix(0.26458333,0,0,0.26458333,8.8327006,-120.57984)"><path
         d="m 123.52,808.47998 3.68,-2.23999 -3.04,-1.91998 z"
         style="fill:none;stroke:#000000;stroke-width:0.48;stroke-linecap:butt;stroke-linejoin:miter;stroke-miterlimit:2;stroke-dasharray:none;stroke-opacity:1"
         id="path39821" /></g><g
       id="g39823"
       transform="matrix(0.00529669,0,0,0.00529669,8.8327006,-120.57984)"><text
         xml:space="preserve"
         transform="translate(6361.7598,40488.5)"
         style="font-variant:normal;font-weight:normal;font-size:327.68px;font-family:F1;-inkscape-font-specification:F1;writing-mode:lr-tb;fill:#ff0000;fill-opacity:1;fill-rule:nonzero;stroke:none"
         id="text39827"><tspan
           x="0 183.50079 367.00159"
           y="0"
           sodipodi:role="line"
           id="tspan39825">2x4</tspan></text></g><g
       id="g39829"
       transform="matrix(0.26458333,0,0,0.26458333,8.8327006,-120.57984)"><path
         d="m 123.52,808.47998 3.68,-2.23999 -3.04,-1.91998 z"
         style="fill:#000000;fill-opacity:1;fill-rule:evenodd;stroke:none"
         id="path39831" /></g><g
       id="g39833"
       transform="matrix(0.26458333,0,0,0.26458333,8.8327006,-120.57984)"><path
         d="m 127.2,799.20001 c -0.16,3.35999 -1.44,6.71997 -3.68,9.27997"
         style="fill:none;stroke:#000000;stroke-width:0.48;stroke-linecap:butt;stroke-linejoin:miter;stroke-miterlimit:2;stroke-dasharray:none;stroke-opacity:1"
         id="path39835" /></g><g
       id="g39837"
       transform="matrix(0.26458333,0,0,0.26458333,8.8327006,-120.57984)"><path
         d="m 123.52,808.47998 3.68,-2.23999 -3.04,-1.91998 z"
         style="fill:none;stroke:#000000;stroke-width:0.48;stroke-linecap:butt;stroke-linejoin:miter;stroke-miterlimit:2;stroke-dasharray:none;stroke-opacity:1"
         id="path39839" /></g><g
       id="g39841"
       transform="matrix(0.00529669,0,0,0.00529669,8.8327006,-120.57984)"><text
         xml:space="preserve"
         transform="translate(6361.7598,40488.5)"
         style="font-variant:normal;font-weight:normal;font-size:327.68px;font-family:F1;-inkscape-font-specification:F1;writing-mode:lr-tb;fill:#ff0000;fill-opacity:1;fill-rule:nonzero;stroke:none"
         id="text39845"><tspan
           x="0 183.50079 367.00159"
           y="0"
           sodipodi:role="line"
           id="tspan39843">2x4</tspan></text></g></g></svg>
