<?xml version="1.0" standalone="no"?>
<!DOCTYPE svg PUBLIC "-//W3C//DTD SVG 1.2//EN" "http://www.w3.org/Graphics/SVG/1.2/DTD/svg12.dtd">
<svg xmlns="http://www.w3.org/2000/svg" version="1.2" baseProfile="tiny" id="selectedFigureSvg" width="100px" height="100px" viewBox="-156.62 -167.89 174.78 242"><g id="sequence"><g id="figure-2"><path d="M 0,0 m -4,0 a4,4 0 1 1 0,0.01" style="stroke: black; stroke-width: 1px; fill: black;"/><path d="M -4,0 l -48,0" style="stroke: black; stroke-width: 3px; fill: none;" class="line" id="figure-2-entry"/><path d="M -52,0 l -50.91,-50.91" style="stroke: black; stroke-width: 3px; fill: none;" class="line" id="figure-2-roll0-gap0"/><path d="M -102.91,-50.91 m -5.73,16.38 l -3.31,-8.45 l 7.73,2.07 z" style="stroke: black; stroke-width: 1px; fill: black;"/><path d="M -102.91,-50.91 m -5.73,16.38 a 20,20 0 0 1 14.7,-21.56 " style="stroke: black; stroke-width: 3px; fill: none;"/><text style="font-family: Arial, Sans; font-size: 20px; font-weight: bold; fill: red;" text-anchor="middle" x="-132" y="-19.87">3x2</text><path d="M -102.91,-50.91 l -7.07,-7.07" style="stroke: black; stroke-width: 3px; fill: none;" class="line"/><path d="M -109.98,-57.98 m -7.11,19.84 l 7.07,7.07" style="stroke: black; stroke-width: 3px; fill: none;"/><path d="M -109.98,-57.98 m -5.73,16.38 l -3.31,-8.45 l 7.73,2.07 z" style="stroke: black; stroke-width: 1px; fill: black;"/><path d="M -109.98,-57.98 m -5.73,16.38 a 20,20 0 0 1 5.73,-16.38 " style="stroke: black; stroke-width: 3px; fill: none;"/><path d="M -109.98,-57.98 l -16.97,-16.97" style="stroke-dasharray: 5, 3; stroke: red; stroke-width: 3px; fill: none;" class="line" id="figure-2-roll0-gap1"/><path d="M -126.95,-74.95 a48,48 0 1 1 81.94,-33.94" style="stroke-dasharray: 5, 3; stroke: red; stroke-width: 3px; fill: none;"/><path d="M -45.01,-108.89 l 0,24" style="stroke-dasharray: 5, 3; stroke: red; stroke-width: 3px; fill: none;" class="line" id="figure-2-roll1-gap0"/><path d="M -45.01,-84.89 m 15.64,-7.53 l -3.64,8.31 l -4,-6.93 z" style="stroke: black; stroke-width: 1px; fill: black;"/><path d="M -45.01,-84.89 m 15.64,-7.53 a 20,20 0 0 1 -15.64,7.53 " style="stroke: black; stroke-width: 3px; fill: none;"/><text style="font-family: Arial, Sans; font-size: 20px; font-weight: bold; fill: red;" text-anchor="middle" x="-7.87" y="-77.89">2x4</text><path d="M -45.01,-84.89 l 0,24" style="stroke-dasharray: 5, 3; stroke: red; stroke-width: 3px; fill: none;" class="line" id="figure-2-roll1-gap1"/><path d="M -45.01,-60.89 m 16.75,0 l 0,8 " style="stroke: black; stroke-width: 3px; fill: none;"/><path d="M -45.01,-60.89 m 16,0 l -24,9.6 l 0,-19.2 z" style="stroke: black; stroke-width: 3px; fill: red;"/><path d="M -45.01,-54.89 l 0,108" style="stroke-dasharray: 5, 3; stroke: red; stroke-width: 3px; fill: none;" class="line" id="figure-2-roll1-gap2"/><path d="M -45.01,53.11 l -48,0" style="stroke: black; stroke-width: 3px; fill: none;" class="line" id="figure-2-exit"/><path d="M -93.01,53.11 m 0,10 l 0,-20" style="stroke: black; stroke-width: 3px; fill: none;"/></g></g></svg>