<?xml version="1.0" standalone="no"?>
<!DOCTYPE svg PUBLIC "-//W3C//DTD SVG 1.2//EN" "http://www.w3.org/Graphics/SVG/1.2/DTD/svg12.dtd">
<svg xmlns="http://www.w3.org/2000/svg" version="1.2" baseProfile="tiny" id="selectedFigureSvg" width="200px" height="200px" viewBox="-15.64 -178.08 221.71 197.04"><g id="sequence"><g id="figure-2"><text style="font-family: Verdana, Helvetica, Sans; font-size: 16px; font-weight: bold; fill: black;" text-anchor="middle" x="0" y="-8" class="figNr">3</text><path d="M 0,0 m -4,0 a4,4 0 1 1 0,0.01" style="stroke: black; stroke-width: 2px; fill: black;"/><path d="M 4,0 l 96,0" style="stroke-dasharray: 10, 5; stroke: red; stroke-width: 3.0px; fill: none; vector-effect: non-scaling-stroke;" class="line" id="figure-2-entry"/><path d="M 100,0 a64,64 0 0 0 45.25,-109.25" style="stroke-dasharray: 10, 5; stroke: red; stroke-width: 3.0px; fill: none; vector-effect: non-scaling-stroke;"/><path d="M 145.25,-109.25 l 5.3,-5.3 l -10.6,10.6" style="stroke: black; stroke-width: 3.0px; fill: none; vector-effect: non-scaling-stroke;"/><path d="M 145.25,-109.25 a64,64 0 0 0 -45.25,-18.75" style="stroke-dasharray: 10, 5; stroke: red; stroke-width: 3.0px; fill: none; vector-effect: non-scaling-stroke;"/><path d="M 100,-128 a64,64 0 0 0 -45.25,18.75" style="stroke: black; stroke-width: 3.0px; fill: none; vector-effect: non-scaling-stroke;"/><path d="M 54.75,-109.25 l 5.3,5.3 l -10.6,-10.6" style="stroke: black; stroke-width: 3.0px; fill: none; vector-effect: non-scaling-stroke;"/><path d="M 54.75,-109.25 a64,64 0 0 0 45.25,109.25" style="stroke: black; stroke-width: 3.0px; fill: none; vector-effect: non-scaling-stroke;"/><path d="M 106,-128 m 7.53,-15.64 l -8.31,3.64 l 6.93,4 z" style="stroke: black; stroke-width: 2px; fill: black;"/><path d="M 106,-128 m 7.53,-15.64 a 20,20 0 0 0 -7.53,15.64 " style="stroke: black; stroke-width: 3.0px; fill: none; vector-effect: non-scaling-stroke;"/><text style="font-family: Arial, Sans; font-size: 20px; font-weight: bold; fill: red;" text-anchor="middle" x="106" y="-151">3x4</text><path d="M 94,-128 m 7.53,15.64 l -8.31,-3.64 l 6.93,-4 z" style="stroke: black; stroke-width: 2px; fill: black;"/><path d="M 94,-128 m 7.53,15.64 a 20,20 0 0 1 -7.53,-15.64 " style="stroke: black; stroke-width: 3.0px; fill: none; vector-effect: non-scaling-stroke;"/><text style="font-family: Arial, Sans; font-size: 20px; font-weight: bold; fill: red;" text-anchor="middle" x="94" y="-91">1/4</text><path d="M 100,0 l 96,0" style="stroke: black; stroke-width: 3.0px; fill: none; vector-effect: non-scaling-stroke;" class="line" id="figure-2-exit"/><path d="M 196,0 m 0,-10 l 0,20" style="stroke: black; stroke-width: 3.0px; fill: none; vector-effect: non-scaling-stroke;"/></g></g></svg>