<?xml version="1.0" standalone="no"?>
<!DOCTYPE svg PUBLIC "-//W3C//DTD SVG 1.2//EN" "http://www.w3.org/Graphics/SVG/1.2/DTD/svg12.dtd">
<svg xmlns="http://www.w3.org/2000/svg" version="1.2" baseProfile="tiny" id="selectedFigureSvg" width="200px" height="200px" viewBox="-178.23 -86.57 192.55 94.89"><g id="sequence"><g id="figure-2"><text style="font-family: Verdana, Helvetica, Sans; font-size: 16px; font-weight: bold; fill: black;" text-anchor="middle" x="0" y="-8" class="figNr">5</text><path d="M 0,0 m -4,0 a4,4 0 1 1 0,0.01" style="stroke: black; stroke-width: 2px; fill: black;"/><path d="M -4,0 l -104,0" style="stroke: black; stroke-width: 3.0px; fill: none; vector-effect: non-scaling-stroke;" class="line" id="figure-2-entry"/><path d="M -108,0 a 52,36.4 0 0 1 -36.78,-10.67" style="stroke: black; stroke-width: 3.0px; fill: none; vector-effect: non-scaling-stroke;"/><path d="M -144.78,-10.67 m 15.14,-8.49 l -8.9,-1.79 l 3.38,7.25 z" style="stroke: black; stroke-width: 2px; fill: black;"/><path d="M -144.78,-10.67 m 15.14,-8.49 a 20,20 0 0 0 -18.68,18.22 " style="stroke: black; stroke-width: 3.0px; fill: none; vector-effect: non-scaling-stroke;"/><path d="M -144.78,-10.67 a 52,36.4 0 0 1 -13.62,-16.75" style="stroke: black; stroke-width: 3.0px; fill: none; vector-effect: non-scaling-stroke;"/><path d="M -158.4,-27.42 a 52,36.4 0 0 1 -0.72,-15.7" style="stroke: black; stroke-width: 3.0px; fill: none; vector-effect: non-scaling-stroke;"/><path d="M -159.12,-43.12 m 13.15,11.32 l -1.36,-8.97 l -5.66,5.66 z" style="stroke: black; stroke-width: 2px; fill: black;"/><path d="M -159.12,-43.12 m 13.15,11.32 a 20,20 0 0 0 -23.51,-11.32 " style="stroke: black; stroke-width: 3.0px; fill: none; vector-effect: non-scaling-stroke;"/><path d="M -159.12,-43.12 a 52,36.4 0 0 1 11.18,-16.61" style="stroke: black; stroke-width: 3.0px; fill: none; vector-effect: non-scaling-stroke;"/><path d="M -147.94,-59.73 a 52,36.4 0 0 1 33.48,-12.8" style="stroke: black; stroke-width: 3.0px; fill: none; vector-effect: non-scaling-stroke;"/><path d="M -114.46,-72.53 m -6.14,16.23 l 7.97,-4.35 l -7.25,-3.38 z" style="stroke: black; stroke-width: 2px; fill: black;"/><path d="M -114.46,-72.53 m -6.14,16.23 a 20,20 0 0 0 2.6,-25.96 " style="stroke: black; stroke-width: 3.0px; fill: none; vector-effect: non-scaling-stroke;"/><path d="M -114.46,-72.53 a 52,36.4 0 0 1 39.54,8.04" style="stroke: black; stroke-width: 3.0px; fill: none; vector-effect: non-scaling-stroke;"/><path d="M -74.92,-64.49 a 52,36.4 0 0 1 -33.09,64.48" style="stroke-dasharray: 2, 6; stroke: black; stroke-width: 2px; fill: none; vector-effect: non-scaling-stroke;"/><path d="M -74.92,-64.49 l 63.05,36.4" style="stroke: black; stroke-width: 3.0px; fill: none; vector-effect: non-scaling-stroke;" class="line" id="figure-2-exit"/><path d="M -11.87,-28.09 m 10,0 l -20,0" style="stroke: black; stroke-width: 3.0px; fill: none; vector-effect: non-scaling-stroke;"/></g></g></svg>