<?xml version="1.0" encoding="UTF-8" standalone="no"?>
<!-- Created with Inkscape (http://www.inkscape.org/) -->

<svg
   width="21.112904mm"
   height="20.491938mm"
   viewBox="0 0 21.112904 20.491935"
   version="1.1"
   id="svg15577"
   inkscape:version="1.2.2 (732a01da63, 2022-12-09)"
   sodipodi:docname="0.svg"
   xml:space="preserve"
   xmlns:inkscape="http://www.inkscape.org/namespaces/inkscape"
   xmlns:sodipodi="http://sodipodi.sourceforge.net/DTD/sodipodi-0.dtd"
   xmlns="http://www.w3.org/2000/svg"
   xmlns:svg="http://www.w3.org/2000/svg"><sodipodi:namedview
     id="namedview15579"
     pagecolor="#ffffff"
     bordercolor="#000000"
     borderopacity="0.25"
     inkscape:showpageshadow="2"
     inkscape:pageopacity="0.0"
     inkscape:pagecheckerboard="true"
     inkscape:deskcolor="#d1d1d1"
     inkscape:document-units="mm"
     showgrid="false"
     showborder="false"
     inkscape:zoom="2.9825758"
     inkscape:cx="258.5014"
     inkscape:cy="84.155448"
     inkscape:window-width="1920"
     inkscape:window-height="1017"
     inkscape:window-x="1912"
     inkscape:window-y="-8"
     inkscape:window-maximized="1"
     inkscape:current-layer="layer1" /><defs
     id="defs15574" /><g
     inkscape:label="Layer 1"
     inkscape:groupmode="layer"
     id="layer1"
     transform="translate(-19.011265,-74.286461)"><g
       id="g15014"
       transform="matrix(0.26458333,0,0,0.26458333,49.253236,55.298379)" /><g
       id="g13720"
       transform="matrix(0.26458333,0,0,0.26458333,18.006939,-99.253542)" /><g
       id="g18168"
       transform="matrix(0.26458333,0,0,0.26458333,27.213146,49.421226)" /><g
       id="g31940"
       transform="matrix(0.26458333,0,0,0.26458333,-0.32865503,37.572752)"><path
         d="M 119.2,189.11999 128.32001,180"
         style="fill:none;stroke:#ff0000;stroke-width:0.96;stroke-linecap:round;stroke-linejoin:round;stroke-miterlimit:10;stroke-dasharray:6.72, 4.8;stroke-dashoffset:0;stroke-opacity:1"
         id="path31942" /></g><g
       id="g31944"
       transform="matrix(0.26458333,0,0,0.26458333,33.622681,85.197751)"><path
         d="m 0,0 c 7.68,-7.68 7.68,-20.16 0,-27.84 -7.68,-7.68 -20,-7.68 -27.68,0 -7.680001,7.68 -7.680001,20.16 0,27.84 3.68,3.68 8.639999,5.76 13.92,5.76"
         style="fill:none;stroke:#ff0000;stroke-width:0.96;stroke-linecap:round;stroke-linejoin:round;stroke-miterlimit:10;stroke-dasharray:6.72, 4.8;stroke-dashoffset:0;stroke-opacity:1"
         id="path31946" /></g><g
       id="g31948"
       transform="matrix(0.26458333,0,0,0.26458333,-0.32865503,37.572752)"><path
         d="m 114.56,185.75999 h -0.64"
         style="fill:none;stroke:#ff0000;stroke-width:0.96;stroke-linecap:round;stroke-linejoin:round;stroke-miterlimit:10;stroke-dasharray:6.72, 4.8;stroke-dashoffset:0;stroke-opacity:1"
         id="path31950" /></g><g
       id="g31952"
       transform="matrix(0.26458333,0,0,0.26458333,21.430678,92.817751)"><path
         d="m 0,0 c 0,-1.12 -0.8,-1.92 -1.76,-1.92 -1.12,0 -1.92,0.8 -1.92,1.92 0,0.96 0.8,1.92 1.92,1.92 C -0.8,1.92 0,0.96 0,0 Z"
         style="fill:#000000;fill-opacity:1;fill-rule:evenodd;stroke:none"
         id="path31954" /></g><g
       id="g31956"
       transform="matrix(0.26458333,0,0,0.26458333,21.430678,92.817751)"><path
         d="m 0,0 c 0,-1.12 -0.8,-1.92 -1.76,-1.92 -1.12,0 -1.92,0.8 -1.92,1.92 0,0.96 0.8,1.92 1.92,1.92 C -0.8,1.92 0,0.96 0,0 Z"
         style="fill:none;stroke:#000000;stroke-width:0.96;stroke-linecap:round;stroke-linejoin:round;stroke-miterlimit:10;stroke-dasharray:none;stroke-opacity:1"
         id="path31958" /></g><g
       id="g31960"
       transform="matrix(0.26458333,0,0,0.26458333,-0.32865503,37.572752)"><path
         d="M 145.60001,193.28 V 178.24"
         style="fill:none;stroke:#000000;stroke-width:0.96;stroke-linecap:round;stroke-linejoin:round;stroke-miterlimit:10;stroke-dasharray:none;stroke-opacity:1"
         id="path31962" /></g><g
       id="g31964"
       transform="matrix(0.26458333,0,0,0.26458333,-0.32865503,37.572752)"><path
         d="M 82.239998,208.8 H 99.519997"
         style="fill:none;stroke:#000000;stroke-width:0.96;stroke-linecap:round;stroke-linejoin:round;stroke-miterlimit:10;stroke-dasharray:none;stroke-opacity:1"
         id="path31966" /></g><g
       id="g31968"
       transform="matrix(0.26458333,0,0,0.26458333,-0.32865503,37.572752)"><path
         d="M 99.519997,208.8 119.2,189.11999"
         style="fill:none;stroke:#000000;stroke-width:0.96;stroke-linecap:round;stroke-linejoin:round;stroke-miterlimit:10;stroke-dasharray:none;stroke-opacity:1"
         id="path31970" /></g><g
       id="g31972"
       transform="matrix(0.26458333,0,0,0.26458333,-0.32865503,37.572752)"><path
         d="m 113.92,185.75999 h 31.68001"
         style="fill:none;stroke:#000000;stroke-width:0.96;stroke-linecap:round;stroke-linejoin:round;stroke-miterlimit:10;stroke-dasharray:none;stroke-opacity:1"
         id="path31974" /></g><g
       id="g31976"
       transform="matrix(0.26458333,0,0,0.26458333,-0.32865503,37.572752)"><path
         d="M 119.2,189.11999 128.32001,180"
         style="fill:none;stroke:#ff0000;stroke-width:0.96;stroke-linecap:round;stroke-linejoin:round;stroke-miterlimit:10;stroke-dasharray:6.72, 4.8;stroke-dashoffset:0;stroke-opacity:1"
         id="path31978" /></g><g
       id="g31980"
       transform="matrix(0.26458333,0,0,0.26458333,33.622681,85.197751)"><path
         d="m 0,0 c 7.68,-7.68 7.68,-20.16 0,-27.84 -7.68,-7.68 -20,-7.68 -27.68,0 -7.680001,7.68 -7.680001,20.16 0,27.84 3.68,3.68 8.639999,5.76 13.92,5.76"
         style="fill:none;stroke:#ff0000;stroke-width:0.96;stroke-linecap:round;stroke-linejoin:round;stroke-miterlimit:10;stroke-dasharray:6.72, 4.8;stroke-dashoffset:0;stroke-opacity:1"
         id="path31982" /></g><g
       id="g31984"
       transform="matrix(0.26458333,0,0,0.26458333,-0.32865503,37.572752)"><path
         d="m 114.56,185.75999 h -0.64"
         style="fill:none;stroke:#ff0000;stroke-width:0.96;stroke-linecap:round;stroke-linejoin:round;stroke-miterlimit:10;stroke-dasharray:6.72, 4.8;stroke-dashoffset:0;stroke-opacity:1"
         id="path31986" /></g><g
       id="g31988"
       transform="matrix(0.26458333,0,0,0.26458333,21.430678,92.817751)"><path
         d="m 0,0 c 0,-1.12 -0.8,-1.92 -1.76,-1.92 -1.12,0 -1.92,0.8 -1.92,1.92 0,0.96 0.8,1.92 1.92,1.92 C -0.8,1.92 0,0.96 0,0 Z"
         style="fill:#000000;fill-opacity:1;fill-rule:evenodd;stroke:none"
         id="path31990" /></g><g
       id="g31992"
       transform="matrix(0.26458333,0,0,0.26458333,21.430678,92.817751)"><path
         d="m 0,0 c 0,-1.12 -0.8,-1.92 -1.76,-1.92 -1.12,0 -1.92,0.8 -1.92,1.92 0,0.96 0.8,1.92 1.92,1.92 C -0.8,1.92 0,0.96 0,0 Z"
         style="fill:none;stroke:#000000;stroke-width:0.96;stroke-linecap:round;stroke-linejoin:round;stroke-miterlimit:10;stroke-dasharray:none;stroke-opacity:1"
         id="path31994" /></g><g
       id="g31996"
       transform="matrix(0.26458333,0,0,0.26458333,-0.32865503,37.572752)"><path
         d="M 145.60001,193.28 V 178.24"
         style="fill:none;stroke:#000000;stroke-width:0.96;stroke-linecap:round;stroke-linejoin:round;stroke-miterlimit:10;stroke-dasharray:none;stroke-opacity:1"
         id="path31998" /></g><g
       id="g32000"
       transform="matrix(0.26458333,0,0,0.26458333,-0.32865503,37.572752)"><path
         d="M 82.239998,208.8 H 99.519997"
         style="fill:none;stroke:#000000;stroke-width:0.96;stroke-linecap:round;stroke-linejoin:round;stroke-miterlimit:10;stroke-dasharray:none;stroke-opacity:1"
         id="path32002" /></g><g
       id="g32004"
       transform="matrix(0.26458333,0,0,0.26458333,-0.32865503,37.572752)"><path
         d="M 99.519997,208.8 119.2,189.11999"
         style="fill:none;stroke:#000000;stroke-width:0.96;stroke-linecap:round;stroke-linejoin:round;stroke-miterlimit:10;stroke-dasharray:none;stroke-opacity:1"
         id="path32006" /></g><g
       id="g32008"
       transform="matrix(0.26458333,0,0,0.26458333,-0.32865503,37.572752)"><path
         d="m 113.92,185.75999 h 31.68001"
         style="fill:none;stroke:#000000;stroke-width:0.96;stroke-linecap:round;stroke-linejoin:round;stroke-miterlimit:10;stroke-dasharray:none;stroke-opacity:1"
         id="path32010" /></g><g
       id="g32012"
       transform="matrix(0.26458333,0,0,0.26458333,-0.32865503,37.572752)"><path
         d="m 123.04,197.75999 0.96,-4 -3.2,0.80001 z"
         style="fill:#000000;fill-opacity:1;fill-rule:evenodd;stroke:none"
         id="path32014" /></g><g
       id="g32016"
       transform="matrix(0.26458333,0,0,0.26458333,-0.32865503,37.572752)"><path
         d="m 119.36,189.11999 c 2.08,2.40001 3.36,5.44001 3.68,8.64"
         style="fill:none;stroke:#000000;stroke-width:0.48;stroke-linecap:butt;stroke-linejoin:miter;stroke-miterlimit:2;stroke-dasharray:none;stroke-opacity:1"
         id="path32018" /></g><g
       id="g32020"
       transform="matrix(0.26458333,0,0,0.26458333,-0.32865503,37.572752)"><path
         d="m 123.04,197.75999 0.96,-4 -3.2,0.80001 z"
         style="fill:none;stroke:#000000;stroke-width:0.48;stroke-linecap:butt;stroke-linejoin:miter;stroke-miterlimit:2;stroke-dasharray:none;stroke-opacity:1"
         id="path32022" /></g><g
       id="g32024"
       transform="matrix(0.26458333,0,0,0.26458333,-0.32865503,37.572752)"><path
         d="m 127.68,192.32001 c 0,0.15999 0,0.15999 0,0.15999 -0.16,0.16 -0.16,0.16 -0.16,0.16 h -0.32 v 0.64 c 0,0 0,0 0,0.16 0,0 0,0 -0.16,0 0,0 0,0 0,0 -0.16,0 -0.16,0 -0.16,0 -0.16,0 -0.16,0 -0.32,0 0,0 0,0 0,0 -0.16,0 -0.16,0 -0.16,0 0,-0.16 0,-0.16 0,-0.16 v -0.64 h -1.44 c 0,0 0,0 -0.16,0 0,0 0,0 0,-0.16 0,0 0,0 0,0 0,-0.15999 0,-0.15999 0,-0.15999 0,-0.16001 0,-0.16001 0,-0.16001 0,-0.16 0,-0.16 0,-0.16 0,0 0,-0.16 0,-0.16 0,0 0,0 0,-0.16001 l 1.28,-2.07998 c 0,0 0,0 0,0 0,0 0.16,0 0.16,0 0,0 0.16,0 0.16,0 0,0 0.16,0 0.16,0 0.16,0 0.32,0 0.32,0 0,0 0.16,0 0.16,0 0,0 0.16,0 0.16,0 0,0 0,0 0,0 V 192 h 0.32 c 0,0 0,0 0.16,0 0,0.16 0,0.16 0,0.32001 z M 126.4,190.24 v 0 l -0.96,1.76 h 0.96 z m 3.99999,3.04 c 0,0 0,0 0,0 0,0.16 0,0.16 0,0.16 0,0 -0.15999,0 -0.15999,0 0,0 -0.16,0 -0.16,0 -0.16,0 -0.16,0 -0.32001,0 0,0 0,0 -0.15998,0 0,0 0,0 0,0 0,0 0,-0.16 0,-0.16 L 129.11999,192.32001 128.64,193.28 c 0,0 0,0.16 -0.16,0.16 0,0 0,0 0,0 0,0 0,0 -0.15999,0 0,0 0,0 -0.16001,0 -0.16,0 -0.16,0 -0.16,0 -0.16,0 -0.16,0 -0.16,0 0,0 0,0 0,-0.16 0,0 0,0 0,0 l 0.8,-1.28 -0.8,-1.28 c 0,0 0,0 0,-0.16 0,0 0,0 0,0 0.16,0 0.16,0 0.16,0 0,0 0.16,0 0.32001,0 0,0 0.15999,0 0.15999,0 0,0 0,0 0.16,0 0,0 0,0 0,0 0,0 0,0 0,0 l 0.47999,0.96 0.48002,-0.96 c 0,0 0,0 0,0 0,0 0.15998,0 0.15998,0 0,0 0,0 0,0 0.16001,0 0.16001,0 0.32001,0 0,0 0.16,0 0.16,0 0,0 0,0 0.15999,0 0,0 0,0 0,0 0,0.16 0,0.16 0,0.16 l -0.79998,1.28 z m 3.04001,-0.95999 c 0,0.15999 0,0.31999 0,0.47999 -0.16,0.16001 -0.16,0.31999 -0.32001,0.31999 C 132.96001,193.28 132.8,193.28 132.64,193.44 c -0.16,0 -0.31999,0 -0.48,0 -0.32,0 -0.48001,0 -0.64,0 -0.16,0 -0.32,-0.16 -0.48001,-0.16 0,-0.16001 -0.15999,-0.31999 -0.15999,-0.31999 -0.16,-0.16001 -0.16,-0.32001 -0.16,-0.48001 0,-0.15999 0,-0.15999 0.16,-0.32 0,-0.16 0,-0.16 0.15999,-0.32 0,0 0,-0.16001 0.16001,-0.16001 0.16,-0.15999 0.16,-0.15999 0.32,-0.15999 0,-0.16 -0.16,-0.16 -0.32,-0.16 0,-0.16 -0.16001,-0.16 -0.16001,-0.32001 0,0 -0.15999,-0.15999 -0.15999,-0.15999 0,-0.16 0,-0.32 0,-0.32 0,-0.16001 0,-0.32 0.15999,-0.48 0,-0.16 0,-0.16 0.16001,-0.32001 0.16,-0.15998 0.32,-0.15998 0.47999,-0.15998 C 131.84,189.44 132,189.44 132.16,189.44 c 0.16001,0 0.48,0 0.64,0.16001 0.16001,0 0.16001,0 0.31999,0.15998 0.16001,0 0.16001,0.16001 0.16001,0.32001 0.16,0 0.16,0.16 0.16,0.31999 0,0.16001 0,0.16001 -0.16,0.32001 0,0 0,0.16 0,0.16 -0.16001,0.15999 -0.16001,0.15999 -0.31999,0.32 0,0 -0.16001,0.16 -0.16001,0.16 0,0 0.16001,0.16 0.31999,0.16 0,0.15999 0.16001,0.15999 0.16001,0.32 0,0 0.16,0.16 0.16,0.16 0,0.16 0,0.32001 0,0.32001 z m -0.8,-1.76001 c 0,-0.16001 0,-0.16001 0,-0.32 0,0 -0.16,0 -0.16,0 0,-0.16 0,-0.16 -0.15999,-0.16 0,0 -0.16001,0 -0.16001,0 -0.16,0 -0.32,0 -0.48001,0.16 0,0 0,0.15999 0,0.32 0,0 0,0 0,0.16 0,0 0,0 0.16001,0.16 0,0 0,0 0.16,0 0,0.15999 0.16,0.15999 0.16,0.15999 0.16001,0 0.32,-0.15999 0.32,-0.15999 0.16,-0.16 0.16,-0.32 0.16,-0.32 z m 0.16,1.92 c 0,-0.15999 -0.16,-0.15999 -0.16,-0.32 0,0 0,0 0,-0.16 -0.16,0 -0.16,0 -0.31999,-0.16 0,0 -0.16001,0 -0.16001,-0.16001 C 132,191.84 132,191.84 131.84,191.84 c 0,0.16 -0.16001,0.16 -0.16001,0.16 0,0.16 0,0.16 -0.15999,0.16 0,0.16001 0,0.16001 0,0.32 0,0.16 0,0.16 0.15999,0.32 0.16001,0 0.32001,0.16001 0.48001,0.16001 0.16001,0 0.32,-0.16001 0.48,-0.16001 0,-0.16 0.16,-0.16 0.16,-0.32 z"
         style="fill:#ff0000;fill-opacity:1;fill-rule:nonzero;stroke:none"
         id="path32026" /></g><g
       id="g32028"
       transform="matrix(0.26458333,0,0,0.26458333,-0.32865503,37.572752)"><path
         d="m 123.04,197.75999 0.96,-4 -3.2,0.80001 z"
         style="fill:#000000;fill-opacity:1;fill-rule:evenodd;stroke:none"
         id="path32030" /></g><g
       id="g32032"
       transform="matrix(0.26458333,0,0,0.26458333,-0.32865503,37.572752)"><path
         d="m 119.36,189.11999 c 2.08,2.40001 3.36,5.44001 3.68,8.64"
         style="fill:none;stroke:#000000;stroke-width:0.48;stroke-linecap:butt;stroke-linejoin:miter;stroke-miterlimit:2;stroke-dasharray:none;stroke-opacity:1"
         id="path32034" /></g><g
       id="g32036"
       transform="matrix(0.26458333,0,0,0.26458333,-0.32865503,37.572752)"><path
         d="m 123.04,197.75999 0.96,-4 -3.2,0.80001 z"
         style="fill:none;stroke:#000000;stroke-width:0.48;stroke-linecap:butt;stroke-linejoin:miter;stroke-miterlimit:2;stroke-dasharray:none;stroke-opacity:1"
         id="path32038" /></g><g
       id="g32040"
       transform="matrix(0.26458333,0,0,0.26458333,-0.32865503,37.572752)"><path
         d="m 127.68,192.32001 c 0,0.15999 0,0.15999 0,0.15999 -0.16,0.16 -0.16,0.16 -0.16,0.16 h -0.32 v 0.64 c 0,0 0,0 0,0.16 0,0 0,0 -0.16,0 0,0 0,0 0,0 -0.16,0 -0.16,0 -0.16,0 -0.16,0 -0.16,0 -0.32,0 0,0 0,0 0,0 -0.16,0 -0.16,0 -0.16,0 0,-0.16 0,-0.16 0,-0.16 v -0.64 h -1.44 c 0,0 0,0 -0.16,0 0,0 0,0 0,-0.16 0,0 0,0 0,0 0,-0.15999 0,-0.15999 0,-0.15999 0,-0.16001 0,-0.16001 0,-0.16001 0,-0.16 0,-0.16 0,-0.16 0,0 0,-0.16 0,-0.16 0,0 0,0 0,-0.16001 l 1.28,-2.07998 c 0,0 0,0 0,0 0,0 0.16,0 0.16,0 0,0 0.16,0 0.16,0 0,0 0.16,0 0.16,0 0.16,0 0.32,0 0.32,0 0,0 0.16,0 0.16,0 0,0 0.16,0 0.16,0 0,0 0,0 0,0 V 192 h 0.32 c 0,0 0,0 0.16,0 0,0.16 0,0.16 0,0.32001 z M 126.4,190.24 v 0 l -0.96,1.76 h 0.96 z m 3.99999,3.04 c 0,0 0,0 0,0 0,0.16 0,0.16 0,0.16 0,0 -0.15999,0 -0.15999,0 0,0 -0.16,0 -0.16,0 -0.16,0 -0.16,0 -0.32001,0 0,0 0,0 -0.15998,0 0,0 0,0 0,0 0,0 0,-0.16 0,-0.16 L 129.11999,192.32001 128.64,193.28 c 0,0 0,0.16 -0.16,0.16 0,0 0,0 0,0 0,0 0,0 -0.15999,0 0,0 0,0 -0.16001,0 -0.16,0 -0.16,0 -0.16,0 -0.16,0 -0.16,0 -0.16,0 0,0 0,0 0,-0.16 0,0 0,0 0,0 l 0.8,-1.28 -0.8,-1.28 c 0,0 0,0 0,-0.16 0,0 0,0 0,0 0.16,0 0.16,0 0.16,0 0,0 0.16,0 0.32001,0 0,0 0.15999,0 0.15999,0 0,0 0,0 0.16,0 0,0 0,0 0,0 0,0 0,0 0,0 l 0.47999,0.96 0.48002,-0.96 c 0,0 0,0 0,0 0,0 0.15998,0 0.15998,0 0,0 0,0 0,0 0.16001,0 0.16001,0 0.32001,0 0,0 0.16,0 0.16,0 0,0 0,0 0.15999,0 0,0 0,0 0,0 0,0.16 0,0.16 0,0.16 l -0.79998,1.28 z m 3.04001,-0.95999 c 0,0.15999 0,0.31999 0,0.47999 -0.16,0.16001 -0.16,0.31999 -0.32001,0.31999 C 132.96001,193.28 132.8,193.28 132.64,193.44 c -0.16,0 -0.31999,0 -0.48,0 -0.32,0 -0.48001,0 -0.64,0 -0.16,0 -0.32,-0.16 -0.48001,-0.16 0,-0.16001 -0.15999,-0.31999 -0.15999,-0.31999 -0.16,-0.16001 -0.16,-0.32001 -0.16,-0.48001 0,-0.15999 0,-0.15999 0.16,-0.32 0,-0.16 0,-0.16 0.15999,-0.32 0,0 0,-0.16001 0.16001,-0.16001 0.16,-0.15999 0.16,-0.15999 0.32,-0.15999 0,-0.16 -0.16,-0.16 -0.32,-0.16 0,-0.16 -0.16001,-0.16 -0.16001,-0.32001 0,0 -0.15999,-0.15999 -0.15999,-0.15999 0,-0.16 0,-0.32 0,-0.32 0,-0.16001 0,-0.32 0.15999,-0.48 0,-0.16 0,-0.16 0.16001,-0.32001 0.16,-0.15998 0.32,-0.15998 0.47999,-0.15998 C 131.84,189.44 132,189.44 132.16,189.44 c 0.16001,0 0.48,0 0.64,0.16001 0.16001,0 0.16001,0 0.31999,0.15998 0.16001,0 0.16001,0.16001 0.16001,0.32001 0.16,0 0.16,0.16 0.16,0.31999 0,0.16001 0,0.16001 -0.16,0.32001 0,0 0,0.16 0,0.16 -0.16001,0.15999 -0.16001,0.15999 -0.31999,0.32 0,0 -0.16001,0.16 -0.16001,0.16 0,0 0.16001,0.16 0.31999,0.16 0,0.15999 0.16001,0.15999 0.16001,0.32 0,0 0.16,0.16 0.16,0.16 0,0.16 0,0.32001 0,0.32001 z m -0.8,-1.76001 c 0,-0.16001 0,-0.16001 0,-0.32 0,0 -0.16,0 -0.16,0 0,-0.16 0,-0.16 -0.15999,-0.16 0,0 -0.16001,0 -0.16001,0 -0.16,0 -0.32,0 -0.48001,0.16 0,0 0,0.15999 0,0.32 0,0 0,0 0,0.16 0,0 0,0 0.16001,0.16 0,0 0,0 0.16,0 0,0.15999 0.16,0.15999 0.16,0.15999 0.16001,0 0.32,-0.15999 0.32,-0.15999 0.16,-0.16 0.16,-0.32 0.16,-0.32 z m 0.16,1.92 c 0,-0.15999 -0.16,-0.15999 -0.16,-0.32 0,0 0,0 0,-0.16 -0.16,0 -0.16,0 -0.31999,-0.16 0,0 -0.16001,0 -0.16001,-0.16001 C 132,191.84 132,191.84 131.84,191.84 c 0,0.16 -0.16001,0.16 -0.16001,0.16 0,0.16 0,0.16 -0.15999,0.16 0,0.16001 0,0.16001 0,0.32 0,0.16 0,0.16 0.15999,0.32 0.16001,0 0.32001,0.16001 0.48001,0.16001 0.16001,0 0.32,-0.16001 0.48,-0.16001 0,-0.16 0.16,-0.16 0.16,-0.32 z"
         style="fill:#ff0000;fill-opacity:1;fill-rule:nonzero;stroke:none"
         id="path32042" /></g><g
       id="g32044"
       transform="matrix(0.26458333,0,0,0.26458333,29.685678,84.859085)"><path
         d="m 0,0 h -3.36 l -5.6,12.16 H 2.4 L -3.36,0 Z M 6.4,0 H 3.2 L 0,6.88 H 6.4 L 3.2,0 Z"
         style="fill:#ff0000;fill-opacity:1;fill-rule:evenodd;stroke:none"
         id="path32046" /></g><g
       id="g32048"
       transform="matrix(0.26458333,0,0,0.26458333,-0.32865503,37.572752)"><path
         d="m 113.44,178.72 h -3.36 l -5.6,12.16 h 11.36 l -5.76,-12.16"
         style="fill:none;stroke:#000000;stroke-width:0.48;stroke-linecap:round;stroke-linejoin:round;stroke-miterlimit:10;stroke-dasharray:none;stroke-opacity:1"
         id="path32050" /></g><g
       id="g32052"
       transform="matrix(0.26458333,0,0,0.26458333,-0.32865503,37.572752)"><path
         d="m 119.84,178.72 h -3.2 l -3.2,6.88001 h 6.4 l -3.2,-6.88001"
         style="fill:none;stroke:#000000;stroke-width:0.48;stroke-linecap:round;stroke-linejoin:round;stroke-miterlimit:10;stroke-dasharray:none;stroke-opacity:1"
         id="path32054" /></g><g
       id="g32056"
       transform="matrix(0.26458333,0,0,0.26458333,-0.32865503,37.572752)"><path
         d="m 110.08,176.96001 h 9.76"
         style="fill:none;stroke:#000000;stroke-width:0.48;stroke-linecap:round;stroke-linejoin:round;stroke-miterlimit:10;stroke-dasharray:none;stroke-opacity:1"
         id="path32058" /></g></g></svg>
