<?xml version="1.0" encoding="UTF-8" standalone="no"?>
<!-- Created with Inkscape (http://www.inkscape.org/) -->

<svg
   width="16.322578mm"
   height="17.120974mm"
   viewBox="0 0 16.322579 17.120971"
   version="1.1"
   id="svg15577"
   inkscape:version="1.2.2 (732a01da63, 2022-12-09)"
   sodipodi:docname="1.svg"
   xml:space="preserve"
   xmlns:inkscape="http://www.inkscape.org/namespaces/inkscape"
   xmlns:sodipodi="http://sodipodi.sourceforge.net/DTD/sodipodi-0.dtd"
   xmlns="http://www.w3.org/2000/svg"
   xmlns:svg="http://www.w3.org/2000/svg"><sodipodi:namedview
     id="namedview15579"
     pagecolor="#ffffff"
     bordercolor="#000000"
     borderopacity="0.25"
     inkscape:showpageshadow="2"
     inkscape:pageopacity="0.0"
     inkscape:pagecheckerboard="true"
     inkscape:deskcolor="#d1d1d1"
     inkscape:document-units="mm"
     showgrid="false"
     showborder="false"
     inkscape:zoom="2.9825758"
     inkscape:cx="250.45466"
     inkscape:cy="70.07366"
     inkscape:window-width="1920"
     inkscape:window-height="1017"
     inkscape:window-x="1912"
     inkscape:window-y="-8"
     inkscape:window-maximized="1"
     inkscape:current-layer="layer1" /><defs
     id="defs15574" /><g
     inkscape:label="Layer 1"
     inkscape:groupmode="layer"
     id="layer1"
     transform="translate(-21.140297,-78.012268)"><g
       id="g15014"
       transform="matrix(0.26458333,0,0,0.26458333,49.253236,55.298379)" /><g
       id="g13720"
       transform="matrix(0.26458333,0,0,0.26458333,18.006939,-99.253542)" /><g
       id="g18168"
       transform="matrix(0.26458333,0,0,0.26458333,27.213146,49.421226)" /><g
       id="g32060"
       transform="matrix(0.26458333,0,0,0.26458333,24.996905,87.578646)"><path
         d="m 0,0 c 0,0.96 -0.96,1.92 -1.92,1.92 -1.12,0 -1.92,-0.96 -1.92,-1.92 0,-1.12 0.8,-1.92 1.92,-1.92 0.96,0 1.92,0.8 1.92,1.92 z"
         style="fill:#000000;fill-opacity:1;fill-rule:evenodd;stroke:none"
         id="path32062" /></g><g
       id="g32064"
       transform="matrix(0.26458333,0,0,0.26458333,24.996905,87.578646)"><path
         d="m 0,0 c 0,0.96 -0.96,1.92 -1.92,1.92 -1.12,0 -1.92,-0.96 -1.92,-1.92 0,-1.12 0.8,-1.92 1.92,-1.92 0.96,0 1.92,0.8 1.92,1.92 z"
         style="fill:none;stroke:#000000;stroke-width:0.96;stroke-linecap:round;stroke-linejoin:round;stroke-miterlimit:10;stroke-dasharray:none;stroke-opacity:1"
         id="path32066" /></g><g
       id="g32068"
       transform="matrix(0.26458333,0,0,0.26458333,0.82457184,19.675978)"><path
         d="M 84.160004,280.79999 H 99.199997"
         style="fill:none;stroke:#000000;stroke-width:0.96;stroke-linecap:round;stroke-linejoin:round;stroke-miterlimit:10;stroke-dasharray:none;stroke-opacity:1"
         id="path32070" /></g><g
       id="g32072"
       transform="matrix(0.26458333,0,0,0.26458333,0.82457184,19.675978)"><path
         d="m 91.68,280.79999 10.08,-8.47998"
         style="fill:none;stroke:#000000;stroke-width:0.96;stroke-linecap:round;stroke-linejoin:round;stroke-miterlimit:10;stroke-dasharray:none;stroke-opacity:1"
         id="path32074" /></g><g
       id="g32076"
       transform="matrix(0.26458333,0,0,0.26458333,0.82457184,19.675978)"><path
         d="m 101.76,272.32001 v -31.36"
         style="fill:none;stroke:#000000;stroke-width:0.96;stroke-linecap:round;stroke-linejoin:round;stroke-miterlimit:10;stroke-dasharray:none;stroke-opacity:1"
         id="path32078" /></g><g
       id="g32080"
       transform="matrix(0.26458333,0,0,0.26458333,27.748572,83.42998)"><path
         d="m 0,0 c 0,-8.64 6.88,-15.52 15.52,-15.52 8.64,0 15.680001,6.88 15.680001,15.52 0,8.64 -7.040001,15.68 -15.680001,15.68"
         style="fill:none;stroke:#000000;stroke-width:0.96;stroke-linecap:round;stroke-linejoin:round;stroke-miterlimit:10;stroke-dasharray:none;stroke-opacity:1"
         id="path32082" /></g><g
       id="g32084"
       transform="matrix(0.26458333,0,0,0.26458333,0.82457184,19.675978)"><path
         d="M 117.28,256.64001 H 91.360001"
         style="fill:none;stroke:#000000;stroke-width:0.96;stroke-linecap:round;stroke-linejoin:round;stroke-miterlimit:10;stroke-dasharray:none;stroke-opacity:1"
         id="path32086" /></g><g
       id="g32088"
       transform="matrix(0.26458333,0,0,0.26458333,24.996905,87.578646)"><path
         d="m 0,0 c 0,0.96 -0.96,1.92 -1.92,1.92 -1.12,0 -1.92,-0.96 -1.92,-1.92 0,-1.12 0.8,-1.92 1.92,-1.92 0.96,0 1.92,0.8 1.92,1.92 z"
         style="fill:#000000;fill-opacity:1;fill-rule:evenodd;stroke:none"
         id="path32090" /></g><g
       id="g32092"
       transform="matrix(0.26458333,0,0,0.26458333,24.996905,87.578646)"><path
         d="m 0,0 c 0,0.96 -0.96,1.92 -1.92,1.92 -1.12,0 -1.92,-0.96 -1.92,-1.92 0,-1.12 0.8,-1.92 1.92,-1.92 0.96,0 1.92,0.8 1.92,1.92 z"
         style="fill:none;stroke:#000000;stroke-width:0.96;stroke-linecap:round;stroke-linejoin:round;stroke-miterlimit:10;stroke-dasharray:none;stroke-opacity:1"
         id="path32094" /></g><g
       id="g32096"
       transform="matrix(0.26458333,0,0,0.26458333,0.82457184,19.675978)"><path
         d="M 84.160004,280.79999 H 99.199997"
         style="fill:none;stroke:#000000;stroke-width:0.96;stroke-linecap:round;stroke-linejoin:round;stroke-miterlimit:10;stroke-dasharray:none;stroke-opacity:1"
         id="path32098" /></g><g
       id="g32100"
       transform="matrix(0.26458333,0,0,0.26458333,0.82457184,19.675978)"><path
         d="m 91.68,280.79999 10.08,-8.47998"
         style="fill:none;stroke:#000000;stroke-width:0.96;stroke-linecap:round;stroke-linejoin:round;stroke-miterlimit:10;stroke-dasharray:none;stroke-opacity:1"
         id="path32102" /></g><g
       id="g32104"
       transform="matrix(0.26458333,0,0,0.26458333,0.82457184,19.675978)"><path
         d="m 101.76,272.32001 v -31.36"
         style="fill:none;stroke:#000000;stroke-width:0.96;stroke-linecap:round;stroke-linejoin:round;stroke-miterlimit:10;stroke-dasharray:none;stroke-opacity:1"
         id="path32106" /></g><g
       id="g32108"
       transform="matrix(0.26458333,0,0,0.26458333,27.748572,83.42998)"><path
         d="m 0,0 c 0,-8.64 6.88,-15.52 15.52,-15.52 8.64,0 15.680001,6.88 15.680001,15.52 0,8.64 -7.040001,15.68 -15.680001,15.68"
         style="fill:none;stroke:#000000;stroke-width:0.96;stroke-linecap:round;stroke-linejoin:round;stroke-miterlimit:10;stroke-dasharray:none;stroke-opacity:1"
         id="path32110" /></g><g
       id="g32112"
       transform="matrix(0.26458333,0,0,0.26458333,0.82457184,19.675978)"><path
         d="M 117.28,256.64001 H 91.360001"
         style="fill:none;stroke:#000000;stroke-width:0.96;stroke-linecap:round;stroke-linejoin:round;stroke-miterlimit:10;stroke-dasharray:none;stroke-opacity:1"
         id="path32114" /></g><g
       id="g32116"
       transform="matrix(0.26458333,0,0,0.26458333,0.82457184,19.675978)"><path
         d="m 114.24,248.8 3.04,1.92 -2.56,1.60001 z"
         style="fill:#000000;fill-opacity:1;fill-rule:evenodd;stroke:none"
         id="path32118" /></g><g
       id="g32120"
       transform="matrix(0.26458333,0,0,0.26458333,0.82457184,19.675978)"><path
         d="m 114.88,262.88 c 1.44,-1.76 2.24,-4 2.4,-6.23999 -0.16,-2.88002 -1.28,-5.60002 -3.04,-7.84001"
         style="fill:none;stroke:#000000;stroke-width:0.48;stroke-linecap:butt;stroke-linejoin:miter;stroke-miterlimit:2;stroke-dasharray:none;stroke-opacity:1"
         id="path32122" /></g><g
       id="g32124"
       transform="matrix(0.26458333,0,0,0.26458333,0.82457184,19.675978)"><path
         d="m 114.24,248.8 3.04,1.92 -2.56,1.60001 z"
         style="fill:none;stroke:#000000;stroke-width:0.48;stroke-linecap:butt;stroke-linejoin:miter;stroke-miterlimit:2;stroke-dasharray:none;stroke-opacity:1"
         id="path32126" /></g><g
       id="g32128"
       transform="matrix(0.00439261,0,0,0.00439261,0.82457184,19.675978)"><text
         xml:space="preserve"
         transform="translate(7237.9199,15150.4)"
         style="font-variant:normal;font-weight:normal;font-size:327.68px;font-family:F4;-inkscape-font-specification:F4;writing-mode:lr-tb;fill:#ff0000;fill-opacity:1;fill-rule:nonzero;stroke:none"
         id="text32132"><tspan
           x="0"
           y="0"
           id="tspan32130">2</tspan></text></g><g
       id="g32134"
       transform="matrix(0.26458333,0,0,0.26458333,0.82457184,19.675978)"><path
         d="m 93.120003,245.92 v 5.44"
         style="fill:none;stroke:#000000;stroke-width:0.48;stroke-linecap:round;stroke-linejoin:round;stroke-miterlimit:10;stroke-dasharray:none;stroke-opacity:1"
         id="path32136" /></g><g
       id="g32138"
       transform="matrix(0.26458333,0,0,0.26458333,25.674238,84.953977)"><path
         d="M 0,0 1.92,3.2 3.52,0.64 Z M 0,4 1.92,7.04 3.52,4.48 Z"
         style="fill:#000000;fill-opacity:1;fill-rule:evenodd;stroke:none"
         id="path32140" /></g><g
       id="g32142"
       transform="matrix(0.26458333,0,0,0.26458333,0.82457184,19.675978)"><path
         d="m 108,247.52 c -1.92,1.44001 -4,2.23999 -6.24,2.4 -2.880003,-0.16001 -5.599996,-1.28 -7.840002,-3.2"
         style="fill:none;stroke:#000000;stroke-width:0.48;stroke-linecap:butt;stroke-linejoin:miter;stroke-miterlimit:2;stroke-dasharray:none;stroke-opacity:1"
         id="path32144" /></g><g
       id="g32146"
       transform="matrix(0.26458333,0,0,0.26458333,0.82457184,19.675978)"><path
         d="M 101.76,253.75999 C 98.879997,253.60001 96.160004,252.48 93.919998,250.72"
         style="fill:none;stroke:#000000;stroke-width:0.48;stroke-linecap:butt;stroke-linejoin:miter;stroke-miterlimit:2;stroke-dasharray:none;stroke-opacity:1"
         id="path32148" /></g><g
       id="g32150"
       transform="matrix(0.26458333,0,0,0.26458333,0.82457184,19.675978)"><path
         d="m 93.919998,246.72 1.919998,3.2 1.600006,-2.56 z"
         style="fill:none;stroke:#000000;stroke-width:0.48;stroke-linecap:butt;stroke-linejoin:miter;stroke-miterlimit:2;stroke-dasharray:none;stroke-opacity:1"
         id="path32152" /></g><g
       id="g32154"
       transform="matrix(0.26458333,0,0,0.26458333,0.82457184,19.675978)"><path
         d="m 93.919998,250.72 1.919998,3.03999 1.600006,-2.55999 z"
         style="fill:none;stroke:#000000;stroke-width:0.48;stroke-linecap:butt;stroke-linejoin:miter;stroke-miterlimit:2;stroke-dasharray:none;stroke-opacity:1"
         id="path32156" /></g><g
       id="g32158"
       transform="matrix(0.00439261,0,0,0.00439261,0.82457184,19.675978)"><text
         xml:space="preserve"
         transform="translate(5425.9199,14687.8)"
         style="font-variant:normal;font-weight:normal;font-size:327.68px;font-family:F1;-inkscape-font-specification:F1;writing-mode:lr-tb;fill:#ff0000;fill-opacity:1;fill-rule:nonzero;stroke:none"
         id="text32162"><tspan
           x="0 183.50079 278.52798"
           y="0"
           sodipodi:role="line"
           id="tspan32160">1/4</tspan></text></g><g
       id="g32164"
       transform="matrix(0.26458333,0,0,0.26458333,0.82457184,19.675978)"><path
         d="m 93.120003,245.92 v 5.44"
         style="fill:none;stroke:#000000;stroke-width:0.48;stroke-linecap:round;stroke-linejoin:round;stroke-miterlimit:10;stroke-dasharray:none;stroke-opacity:1"
         id="path32166" /></g><g
       id="g32168"
       transform="matrix(0.26458333,0,0,0.26458333,25.674238,84.953977)"><path
         d="M 0,0 1.92,3.2 3.52,0.64 Z M 0,4 1.92,7.04 3.52,4.48 Z"
         style="fill:#000000;fill-opacity:1;fill-rule:evenodd;stroke:none"
         id="path32170" /></g><g
       id="g32172"
       transform="matrix(0.26458333,0,0,0.26458333,0.82457184,19.675978)"><path
         d="m 108,247.52 c -1.92,1.44001 -4,2.23999 -6.24,2.4 -2.880003,-0.16001 -5.599996,-1.28 -7.840002,-3.2"
         style="fill:none;stroke:#000000;stroke-width:0.48;stroke-linecap:butt;stroke-linejoin:miter;stroke-miterlimit:2;stroke-dasharray:none;stroke-opacity:1"
         id="path32174" /></g><g
       id="g32176"
       transform="matrix(0.26458333,0,0,0.26458333,0.82457184,19.675978)"><path
         d="M 101.76,253.75999 C 98.879997,253.60001 96.160004,252.48 93.919998,250.72"
         style="fill:none;stroke:#000000;stroke-width:0.48;stroke-linecap:butt;stroke-linejoin:miter;stroke-miterlimit:2;stroke-dasharray:none;stroke-opacity:1"
         id="path32178" /></g><g
       id="g32180"
       transform="matrix(0.26458333,0,0,0.26458333,0.82457184,19.675978)"><path
         d="m 93.919998,246.72 1.919998,3.2 1.600006,-2.56 z"
         style="fill:none;stroke:#000000;stroke-width:0.48;stroke-linecap:butt;stroke-linejoin:miter;stroke-miterlimit:2;stroke-dasharray:none;stroke-opacity:1"
         id="path32182" /></g><g
       id="g32184"
       transform="matrix(0.26458333,0,0,0.26458333,0.82457184,19.675978)"><path
         d="m 93.919998,250.72 1.919998,3.03999 1.600006,-2.55999 z"
         style="fill:none;stroke:#000000;stroke-width:0.48;stroke-linecap:butt;stroke-linejoin:miter;stroke-miterlimit:2;stroke-dasharray:none;stroke-opacity:1"
         id="path32186" /></g><g
       id="g32188"
       transform="matrix(0.00439261,0,0,0.00439261,0.82457184,19.675978)"><text
         xml:space="preserve"
         transform="translate(5425.9199,14687.8)"
         style="font-variant:normal;font-weight:normal;font-size:327.68px;font-family:F1;-inkscape-font-specification:F1;writing-mode:lr-tb;fill:#ff0000;fill-opacity:1;fill-rule:nonzero;stroke:none"
         id="text32192"><tspan
           x="0 183.50079 278.52798"
           y="0"
           sodipodi:role="line"
           id="tspan32190">1/4</tspan></text></g></g></svg>
