<?xml version="1.0" standalone="no"?>
<!DOCTYPE svg PUBLIC "-//W3C//DTD SVG 1.2//EN" "http://www.w3.org/Graphics/SVG/1.2/DTD/svg12.dtd">
<svg xmlns="http://www.w3.org/2000/svg" version="1.2" baseProfile="tiny" id="selectedFigureSvg" width="100px" height="100px" viewBox="-65.57 -101 206.98 110.01"><g id="sequence"><g id="figure-2"><path d="M 0,0 m -4,0 a4,4 0 1 1 0,0.01" style="stroke: black; stroke-width: 1px; fill: black;"/><path d="M 4,0 l 128,0" style="stroke: black; stroke-width: 3px; fill: none;" class="line" id="figure-2-entry"/><path d="M 132,0 l 0,-64" style="stroke: black; stroke-width: 3px; fill: none;" class="line" id="figure-2-roll0-gap0"/><path d="M 132,-64 a32,32 0 0 0 -9.37,-22.63" style="stroke: black; stroke-width: 3px; fill: none;"/><path d="M 122.63,-86.63 a32,32 0 0 0 -22.63,-9.37" style="stroke: black; stroke-width: 3px; fill: none;"/><path d="M 100,-96 a32,32 0 0 0 -22.63,9.37" style="stroke: black; stroke-width: 3px; fill: none;"/><path d="M 77.37,-86.63 a32,32 0 0 0 -9.37,22.63" style="stroke: black; stroke-width: 3px; fill: none;"/><path d="M 68,-64 l 0,0.16" style="stroke: black; stroke-width: 3px; fill: none;" class="line" id="figure-2-roll1-gap0"/><path d="M 68,-63.84 a32,32 0 0 1 -32,32" style="stroke-dasharray: 10, 8; stroke: red; stroke-width: 3px; fill: none; "/><path d="M 36,-31.84 l -0.16,0" style="stroke-dasharray: 10, 8; stroke: red; stroke-width: 3px; fill: none; " class="line" id="figure-2-roll2-gap0"/><path d="M 35.84,-31.84 m 11.3,23.45 l -10.74,-6.45 l 6.93,-4 z" style="stroke: black; stroke-width: 2px; fill: black;"/><path d="M 35.84,-31.84 m 11.3,23.45 a 30,30 0 0 1 -7.28,-38.45 " style="stroke: black; stroke-width: 3px; fill: none;"/><path d="M 35.84,-31.84 l -10,0" style="stroke-dasharray: 10, 8; stroke: red; stroke-width: 3px; fill: none; " class="line"/><path d="M 25.84,-31.84 m 14,27.71 l 10,0" style="stroke: black; stroke-width: 3px; fill: none;"/><path d="M 25.84,-31.84 m 11.3,23.45 l -10.74,-6.45 l 6.93,-4 z" style="stroke: black; stroke-width: 2px; fill: black;"/><path d="M 25.84,-31.84 m 11.3,23.45 a 30,30 0 0 1 -11.3,-23.45 " style="stroke: black; stroke-width: 3px; fill: none;"/><path d="M 25.84,-31.84 l -72,0" style="stroke: black; stroke-width: 3px; fill: none;" class="line" id="figure-2-exit"/><path d="M -46.16,-31.84 l 0,10 l 0,-20" style="stroke: black; stroke-width: 3px; fill: none;"/><path d="M -46.16,-31.84 m -10,20 l 0,-40" style="stroke: black; stroke-width: 3px; fill: none;"/></g></g></svg>