<?xml version="1.0" standalone="no"?>
<!DOCTYPE svg PUBLIC "-//W3C//DTD SVG 1.2//EN" "http://www.w3.org/Graphics/SVG/1.2/DTD/svg12.dtd">
<svg xmlns="http://www.w3.org/2000/svg" version="1.2" baseProfile="tiny" id="selectedFigureSvg" width="100px" height="100px" viewBox="-16.89 -131.47 217.68 145.4"><g id="sequence"><g id="figure-2"><path d="M 0,0 m 3,-6 a7,7 0 1 1 -6,0" style="stroke: black; stroke-width: 0px; fill: none;"/><path d="M 0,0 m -4,0 a4,4 0 1 1 0,0.01" style="stroke: black; stroke-width: 1px; fill: black;"/><path d="M 4,0 l 40,0" style="stroke: black; stroke-width: 3px; fill: none;" class="line" id="figure-2-entry"/><path d="M 44,0 l 14.14,-14.14" style="stroke: black; stroke-width: 3px; fill: none;" class="line" id="figure-2-roll0-gap0"/><path d="M 58.14,-14.14 m -24.57,-8.6 l 12.16,-3.03 l -2.07,7.73 z" style="stroke: black; stroke-width: 2px; fill: black;"/><path d="M 58.14,-14.14 m -24.57,-8.6 a 30,30 0 0 1 24.57,8.6 " style="stroke: black; stroke-width: 3px; fill: none;"/><text style="font-family: Arial, Sans; font-size: 20px; font-weight: bold; fill: red;" text-anchor="middle" x="24.8" y="-35.42">4x8</text><path d="M 58.14,-14.14 l 42.43,-42.43" style="stroke-dasharray: 10, 8; stroke: red; stroke-width: 3px; fill: none; " class="line" id="figure-2-roll0-gap1"/><path d="M 100.57,-56.57 a40,40 0 0 0 0,-56.57" style="stroke-dasharray: 10, 8; stroke: red; stroke-width: 3px; fill: none; "/><path d="M 100.57,-113.14 a40,40 0 0 0 -28.28,-11.72" style="stroke-dasharray: 10, 8; stroke: red; stroke-width: 3px; fill: none; "/><path d="M 72.29,-124.86 a40,40 0 0 0 -28.28,11.72" style="stroke-dasharray: 10, 8; stroke: red; stroke-width: 3px; fill: none; "/><path d="M 44.01,-113.14 a40,40 0 0 0 28.28,68.28" style="stroke-dasharray: 10, 8; stroke: red; stroke-width: 3px; fill: none; "/><path d="M 72.29,-44.86 l 0.2,0" style="stroke-dasharray: 10, 8; stroke: red; stroke-width: 3px; fill: none; " class="line" id="figure-2-roll2-gap0"/><path d="M 72.49,-44.86 m 0,-24.75 l 12,0 " style="stroke: black; stroke-width: 3px; fill: none;"/><path d="M 72.49,-44.86 m 0,-24 l 14.4,36 l -28.8,0 z" style="stroke: black; stroke-width: 1.5px; fill: red;"/><path d="M 81.49,-44.86 l 20.4,0" style="stroke-dasharray: 10, 8; stroke: red; stroke-width: 3px; fill: none; " class="line"/><path d="M 101.89,-44.86 m 12,-28.8 l -44.4,0" style="stroke: black; stroke-width: 3px; fill: none;"/><path d="M 101.89,-44.86 m 0,-24.75 l 12,0 " style="stroke: black; stroke-width: 3px; fill: none;"/><path d="M 101.89,-44.86 m 0,-24 l 12,24 l -24,0 z" style="stroke: black; stroke-width: 1.5px; fill: red;"/><path d="M 110.89,-44.86 l 80,0" style="stroke: black; stroke-width: 3px; fill: none;" class="line" id="figure-2-exit"/><path d="M 190.89,-44.86 l 0,-10 l 0,20" style="stroke: black; stroke-width: 3px; fill: none;"/></g></g></svg>