<?xml version="1.0" encoding="UTF-8" standalone="no"?>
<!-- Created with Inkscape (http://www.inkscape.org/) -->

<svg
   width="23.951611mm"
   height="14.814518mm"
   viewBox="0 0 23.951611 14.814516"
   version="1.1"
   id="svg15577"
   inkscape:version="1.2.2 (732a01da63, 2022-12-09)"
   sodipodi:docname="2.svg"
   xml:space="preserve"
   xmlns:inkscape="http://www.inkscape.org/namespaces/inkscape"
   xmlns:sodipodi="http://sodipodi.sourceforge.net/DTD/sodipodi-0.dtd"
   xmlns="http://www.w3.org/2000/svg"
   xmlns:svg="http://www.w3.org/2000/svg"><sodipodi:namedview
     id="namedview15579"
     pagecolor="#ffffff"
     bordercolor="#000000"
     borderopacity="0.25"
     inkscape:showpageshadow="2"
     inkscape:pageopacity="0.0"
     inkscape:pagecheckerboard="true"
     inkscape:deskcolor="#d1d1d1"
     inkscape:document-units="mm"
     showgrid="false"
     showborder="false"
     inkscape:zoom="2.9825758"
     inkscape:cx="225.30861"
     inkscape:cy="1.005842"
     inkscape:window-width="1920"
     inkscape:window-height="1017"
     inkscape:window-x="1912"
     inkscape:window-y="-8"
     inkscape:window-maximized="1"
     inkscape:current-layer="layer1" /><defs
     id="defs15574" /><g
     inkscape:label="Layer 1"
     inkscape:groupmode="layer"
     id="layer1"
     transform="translate(-27.793522,-96.286461)"><g
       id="g15014"
       transform="matrix(0.26458333,0,0,0.26458333,49.253236,55.298379)" /><g
       id="g13720"
       transform="matrix(0.26458333,0,0,0.26458333,18.006939,-99.253542)" /><g
       id="g18168"
       transform="matrix(0.26458333,0,0,0.26458333,27.213146,49.421226)" /><g
       id="g31852"
       transform="matrix(0.26458333,0,0,0.26458333,9.6955393,18.190495)"><path
         d="m 108.8,331.51999 c 6.24,-3.03998 6.4,-8 0.32,-11.03998 -2.88,-1.60001 -7.04,-2.40002 -11.359998,-2.40002"
         style="fill:none;stroke:#000000;stroke-width:0.32;stroke-linecap:round;stroke-linejoin:round;stroke-miterlimit:10;stroke-dasharray:0.96;stroke-dashoffset:0;stroke-opacity:1"
         id="path31854" /></g><g
       id="g31856"
       transform="matrix(0.26458333,0,0,0.26458333,9.6955393,18.190495)"><path
         d="m 102.56,310.88 c 2.4,2.72001 3.52,6.4 2.72,9.91999"
         style="fill:none;stroke:#000000;stroke-width:0.96;stroke-linecap:round;stroke-linejoin:round;stroke-miterlimit:10;stroke-dasharray:none;stroke-opacity:1"
         id="path31858" /></g><g
       id="g31860"
       transform="matrix(0.26458333,0,0,0.26458333,9.6955393,18.190495)"><path
         d="m 98.080002,340.16 c -2.240006,-2.08001 -3.360001,-5.11999 -2.880005,-8.32"
         style="fill:none;stroke:#000000;stroke-width:0.96;stroke-linecap:round;stroke-linejoin:round;stroke-miterlimit:10;stroke-dasharray:none;stroke-opacity:1"
         id="path31862" /></g><g
       id="g31864"
       transform="matrix(0.26458333,0,0,0.26458333,9.6955393,18.190495)"><path
         d="m 80.32,313.28 c 4.319999,0.48001 8.319999,2.72 10.720001,6.39999"
         style="fill:none;stroke:#000000;stroke-width:0.96;stroke-linecap:round;stroke-linejoin:round;stroke-miterlimit:10;stroke-dasharray:none;stroke-opacity:1"
         id="path31866" /></g><g
       id="g31868"
       transform="matrix(0.26458333,0,0,0.26458333,9.6955393,18.190495)"><path
         d="m 102.72,318.39999 -0.16,7.52002 6.08,-4.32 z"
         style="fill:#000000;fill-opacity:1;fill-rule:evenodd;stroke:none"
         id="path31870" /></g><g
       id="g31872"
       transform="matrix(0.26458333,0,0,0.26458333,9.6955393,18.190495)"><path
         d="m 97.760002,334.23999 0.32,-7.51999 -6.240006,4.32001 z"
         style="fill:#000000;fill-opacity:1;fill-rule:evenodd;stroke:none"
         id="path31874" /></g><g
       id="g31876"
       transform="matrix(0.26458333,0,0,0.26458333,9.6955393,18.190495)"><path
         d="m 87.519997,320.16 5.600006,4.96 0.639999,-7.35999 z"
         style="fill:#000000;fill-opacity:1;fill-rule:evenodd;stroke:none"
         id="path31878" /></g><g
       id="g31880"
       transform="matrix(0.26458333,0,0,0.26458333,47.71087,101.29082)"><path
         d="M 0,0 C -0.64,-0.8 -0.32,-2.08 0.64,-2.56 1.6,-3.04 2.72,-2.72 3.2,-1.92 3.68,-0.96 3.52,0.16 2.56,0.8 1.6,1.28 0.48,0.96 0,0 Z"
         style="fill:#000000;fill-opacity:1;fill-rule:evenodd;stroke:none"
         id="path31882" /></g><g
       id="g31884"
       transform="matrix(0.26458333,0,0,0.26458333,47.71087,101.29082)"><path
         d="M 0,0 -34.880001,17.440001 C -37.759998,18.879999 -41.759998,19.84 -45.919998,19.84 c -8.640003,-0.16 -15.68,-3.68 -15.84,-8 0.16,-4.32 7.199997,-7.84 15.84,-7.84 H 3.84"
         style="fill:none;stroke:#000000;stroke-width:0.96;stroke-linecap:round;stroke-linejoin:round;stroke-miterlimit:10;stroke-dasharray:none;stroke-opacity:1"
         id="path31886" /></g><g
       id="g31888"
       transform="matrix(0.26458333,0,0,0.26458333,47.71087,101.29082)"><path
         d="M 0,0 C -0.64,-0.8 -0.32,-2.08 0.64,-2.56 1.6,-3.04 2.72,-2.72 3.2,-1.92 3.68,-0.96 3.52,0.16 2.56,0.8 1.6,1.28 0.48,0.96 0,0 Z"
         style="fill:none;stroke:#000000;stroke-width:0.96;stroke-linecap:round;stroke-linejoin:round;stroke-miterlimit:10;stroke-dasharray:none;stroke-opacity:1"
         id="path31890" /></g><g
       id="g31892"
       transform="matrix(0.26458333,0,0,0.26458333,9.6955393,18.190495)"><path
         d="m 147.52,321.92001 v -7.68002"
         style="fill:none;stroke:#000000;stroke-width:0.96;stroke-linecap:round;stroke-linejoin:round;stroke-miterlimit:10;stroke-dasharray:none;stroke-opacity:1"
         id="path31894" /></g><g
       id="g31896"
       transform="matrix(0.26458333,0,0,0.26458333,9.6955393,18.190495)"><path
         d="m 108.8,331.51999 c 6.24,-3.03998 6.4,-8 0.32,-11.03998 -2.88,-1.60001 -7.04,-2.40002 -11.359998,-2.40002"
         style="fill:none;stroke:#000000;stroke-width:0.32;stroke-linecap:round;stroke-linejoin:round;stroke-miterlimit:10;stroke-dasharray:0.96;stroke-dashoffset:0;stroke-opacity:1"
         id="path31898" /></g><g
       id="g31900"
       transform="matrix(0.26458333,0,0,0.26458333,9.6955393,18.190495)"><path
         d="m 102.56,310.88 c 2.4,2.72001 3.52,6.4 2.72,9.91999"
         style="fill:none;stroke:#000000;stroke-width:0.96;stroke-linecap:round;stroke-linejoin:round;stroke-miterlimit:10;stroke-dasharray:none;stroke-opacity:1"
         id="path31902" /></g><g
       id="g31904"
       transform="matrix(0.26458333,0,0,0.26458333,9.6955393,18.190495)"><path
         d="m 98.080002,340.16 c -2.240006,-2.08001 -3.360001,-5.11999 -2.880005,-8.32"
         style="fill:none;stroke:#000000;stroke-width:0.96;stroke-linecap:round;stroke-linejoin:round;stroke-miterlimit:10;stroke-dasharray:none;stroke-opacity:1"
         id="path31906" /></g><g
       id="g31908"
       transform="matrix(0.26458333,0,0,0.26458333,9.6955393,18.190495)"><path
         d="m 80.32,313.28 c 4.319999,0.48001 8.319999,2.72 10.720001,6.39999"
         style="fill:none;stroke:#000000;stroke-width:0.96;stroke-linecap:round;stroke-linejoin:round;stroke-miterlimit:10;stroke-dasharray:none;stroke-opacity:1"
         id="path31910" /></g><g
       id="g31912"
       transform="matrix(0.26458333,0,0,0.26458333,9.6955393,18.190495)"><path
         d="m 102.72,318.39999 -0.16,7.52002 6.08,-4.32 z"
         style="fill:#000000;fill-opacity:1;fill-rule:evenodd;stroke:none"
         id="path31914" /></g><g
       id="g31916"
       transform="matrix(0.26458333,0,0,0.26458333,9.6955393,18.190495)"><path
         d="m 97.760002,334.23999 0.32,-7.51999 -6.240006,4.32001 z"
         style="fill:#000000;fill-opacity:1;fill-rule:evenodd;stroke:none"
         id="path31918" /></g><g
       id="g31920"
       transform="matrix(0.26458333,0,0,0.26458333,9.6955393,18.190495)"><path
         d="m 87.519997,320.16 5.600006,4.96 0.639999,-7.35999 z"
         style="fill:#000000;fill-opacity:1;fill-rule:evenodd;stroke:none"
         id="path31922" /></g><g
       id="g31924"
       transform="matrix(0.26458333,0,0,0.26458333,47.71087,101.29082)"><path
         d="M 0,0 C -0.64,-0.8 -0.32,-2.08 0.64,-2.56 1.6,-3.04 2.72,-2.72 3.2,-1.92 3.68,-0.96 3.52,0.16 2.56,0.8 1.6,1.28 0.48,0.96 0,0 Z"
         style="fill:#000000;fill-opacity:1;fill-rule:evenodd;stroke:none"
         id="path31926" /></g><g
       id="g31928"
       transform="matrix(0.26458333,0,0,0.26458333,47.71087,101.29082)"><path
         d="M 0,0 -34.880001,17.440001 C -37.759998,18.879999 -41.759998,19.84 -45.919998,19.84 c -8.640003,-0.16 -15.68,-3.68 -15.84,-8 0.16,-4.32 7.199997,-7.84 15.84,-7.84 H 3.84"
         style="fill:none;stroke:#000000;stroke-width:0.96;stroke-linecap:round;stroke-linejoin:round;stroke-miterlimit:10;stroke-dasharray:none;stroke-opacity:1"
         id="path31930" /></g><g
       id="g31932"
       transform="matrix(0.26458333,0,0,0.26458333,47.71087,101.29082)"><path
         d="M 0,0 C -0.64,-0.8 -0.32,-2.08 0.64,-2.56 1.6,-3.04 2.72,-2.72 3.2,-1.92 3.68,-0.96 3.52,0.16 2.56,0.8 1.6,1.28 0.48,0.96 0,0 Z"
         style="fill:none;stroke:#000000;stroke-width:0.96;stroke-linecap:round;stroke-linejoin:round;stroke-miterlimit:10;stroke-dasharray:none;stroke-opacity:1"
         id="path31934" /></g><g
       id="g31936"
       transform="matrix(0.26458333,0,0,0.26458333,9.6955393,18.190495)"><path
         d="m 147.52,321.92001 v -7.68002"
         style="fill:none;stroke:#000000;stroke-width:0.96;stroke-linecap:round;stroke-linejoin:round;stroke-miterlimit:10;stroke-dasharray:none;stroke-opacity:1"
         id="path31938" /></g></g></svg>
