<?xml version="1.0" standalone="no"?>
<!DOCTYPE svg PUBLIC "-//W3C//DTD SVG 1.2//EN" "http://www.w3.org/Graphics/SVG/1.2/DTD/svg12.dtd">
<svg xmlns="http://www.w3.org/2000/svg" version="1.2" baseProfile="tiny" id="selectedFigureSvg" width="600px" height="600px" viewBox="-47.32 -28.88 251.11 119.18"><g id="sequence"><g id="figure-2"><text style="font-family: Verdana, Helvetica, Sans; font-size: 16px; font-weight: bold; fill: black;" text-anchor="middle" x="0" y="-8" class="figNr">3</text><path d="M 0,0 m -4,0 a4,4 0 1 1 0,0.01" style="stroke: black; stroke-width: 1px; fill: black;"/><path d="M 3.46,2 l 115.18,66.5" style="stroke: black; stroke-width: 5px; fill: none; vector-effect: non-scaling-stroke;" class="line" id="figure-2-entry"/><path d="M 118.64,68.5 a 40,28 0 0 0 30.41,6.18" style="stroke: black; stroke-width: 5px; fill: none; vector-effect: non-scaling-stroke;"/><path d="M 149.05,74.68 m -8.86,-14.92 l 8.6,2.9 l -6.55,4.59 z" style="stroke: black; stroke-width: 1px; fill: black;"/><path d="M 149.05,74.68 m -8.86,-14.92 a 20,20 0 0 1 7.07,25.12 " style="stroke: black; stroke-width: 5px; fill: none; vector-effect: non-scaling-stroke;"/><path d="M 149.05,74.68 a 40,28 0 0 0 25.75,-9.85" style="stroke: black; stroke-width: 5px; fill: none; vector-effect: non-scaling-stroke;"/><path d="M 174.8,64.83 a 40,28 0 0 0 8.6,-12.77" style="stroke: black; stroke-width: 5px; fill: none; vector-effect: non-scaling-stroke;"/><path d="M 183.4,52.06 m -17.05,3.23 l 5.66,-7.09 l 2.07,7.73 z" style="stroke: black; stroke-width: 1px; fill: black;"/><path d="M 183.4,52.06 m -17.05,3.23 a 20,20 0 0 1 26.02,1.95 " style="stroke: black; stroke-width: 5px; fill: none; vector-effect: non-scaling-stroke;"/><path d="M 183.4,52.06 a 40,28 0 0 0 -0.55,-12.07" style="stroke: black; stroke-width: 5px; fill: none; vector-effect: non-scaling-stroke;"/><path d="M 182.85,39.99 a 40,28 0 0 0 -10.47,-12.88" style="stroke: black; stroke-width: 5px; fill: none; vector-effect: non-scaling-stroke;"/><path d="M 172.38,27.11 m -2.8,17.13 l -4.73,-7.75 l 7.97,0.7 z" style="stroke: black; stroke-width: 1px; fill: black;"/><path d="M 172.38,27.11 m -2.8,17.13 a 20,20 0 0 1 10.73,-23.78 " style="stroke: black; stroke-width: 5px; fill: none; vector-effect: non-scaling-stroke;"/><path d="M 172.38,27.11 a 40,28 0 0 0 -28.29,-8.2" style="stroke: black; stroke-width: 5px; fill: none; vector-effect: non-scaling-stroke;"/><path d="M 144.09,18.91 a 40,28 0 0 0 -25.45,49.6" style="stroke-dasharray: 1, 3; stroke: black; stroke-width: 1px; fill: none; vector-effect: non-scaling-stroke;"/><path d="M 144.09,18.91 l -180,0" style="stroke: black; stroke-width: 5px; fill: none; vector-effect: non-scaling-stroke;" class="line" id="figure-2-exit"/><path d="M -35.91,18.91 l 0,10 l 0,-20" style="stroke: black; stroke-width: 5px; fill: none; vector-effect: non-scaling-stroke;"/></g></g></svg>