<?xml version="1.0" standalone="no"?>
<!DOCTYPE svg PUBLIC "-//W3C//DTD SVG 1.2//EN" "http://www.w3.org/Graphics/SVG/1.2/DTD/svg12.dtd">
<svg xmlns="http://www.w3.org/2000/svg" version="1.2" baseProfile="tiny" id="selectedFigureSvg" width="100px" height="100px" viewBox="-118.08 -79.43 129.67 163.46"><g id="sequence"><g id="figure-2"><path d="M 0,0 m -4,0 a4,4 0 1 1 0,0.01" style="stroke: black; stroke-width: 1px; fill: black;"/><path d="M -4,0 l -72,0" style="stroke: black; stroke-width: 3px; fill: none;" class="line" id="figure-2-roll0-gap0"/><path d="M -76,0 m 11.3,-23.45 l -10.74,6.45 l 6.93,4 z" style="stroke: black; stroke-width: 2px; fill: black;"/><path d="M -76,0 m 11.3,-23.45 a 30,30 0 0 0 -7.28,38.45 " style="stroke: black; stroke-width: 3px; fill: none;"/><text style="font-family: Arial, Sans; font-size: 20px; font-weight: bold; fill: red;" text-anchor="middle" x="-76" y="-33">2</text><path d="M -76,0 l -0.18,0" style="stroke: black; stroke-width: 3px; fill: none;" class="line" id="figure-2-roll0-gap1"/><path d="M -76.18,0 a36,36 0 0 1 -25.46,-61.46" style="stroke: black; stroke-width: 3px; fill: none;"/><path d="M -101.64,-61.46 a36,36 0 0 1 25.46,-10.54" style="stroke: black; stroke-width: 3px; fill: none;"/><path d="M -76.18,-72 a36,36 0 0 1 25.46,10.54" style="stroke: black; stroke-width: 3px; fill: none;"/><path d="M -50.72,-61.46 a36,36 0 0 1 10.54,25.46" style="stroke: black; stroke-width: 3px; fill: none;"/><path d="M -40.18,-36 l 0,72" style="stroke: black; stroke-width: 3px; fill: none;" class="line" id="figure-2-roll2-gap0"/><path d="M -40.18,36 m -23.45,-11.3 l 6.45,10.74 l 4,-6.93 z" style="stroke: black; stroke-width: 2px; fill: black;"/><path d="M -40.18,36 m -23.45,-11.3 a 30,30 0 0 0 38.45,7.28 " style="stroke: black; stroke-width: 3px; fill: none;"/><text style="font-family: Arial, Sans; font-size: 20px; font-weight: bold; fill: red;" text-anchor="middle" x="-91.32" y="43">1/4</text><path d="M -40.18,36 l 0,10" style="stroke: black; stroke-width: 3px; fill: none;" class="line"/><path d="M -40.18,46 m -27.71,-14 l 0,-10" style="stroke: black; stroke-width: 3px; fill: none;"/><path d="M -40.18,46 m -23.45,-11.3 l 6.45,10.74 l 4,-6.93 z" style="stroke: black; stroke-width: 2px; fill: black;"/><path d="M -40.18,46 m -23.45,-11.3 a 30,30 0 0 0 23.45,11.3 " style="stroke: black; stroke-width: 3px; fill: none;"/><path d="M -40.18,46 l 0,18" style="stroke: black; stroke-width: 3px; fill: none;" class="line" id="figure-2-roll2-gap1"/><path d="M -40.18,64 l 21.83,12.6" style="stroke: black; stroke-width: 3px; fill: none;" class="line" id="figure-2-exit"/><path d="M -18.35,76.6 l 10,0 l -20,0" style="stroke: black; stroke-width: 3px; fill: none;"/></g></g></svg>