<?xml version="1.0" encoding="UTF-8" standalone="no"?>
<!-- Created with Inkscape (http://www.inkscape.org/) -->

<svg
   width="11.709677mm"
   height="20.225811mm"
   viewBox="0 0 11.709677 20.225808"
   version="1.1"
   id="svg15577"
   inkscape:version="1.2.2 (732a01da63, 2022-12-09)"
   sodipodi:docname="3.svg"
   xml:space="preserve"
   xmlns:inkscape="http://www.inkscape.org/namespaces/inkscape"
   xmlns:sodipodi="http://sodipodi.sourceforge.net/DTD/sodipodi-0.dtd"
   xmlns="http://www.w3.org/2000/svg"
   xmlns:svg="http://www.w3.org/2000/svg"><sodipodi:namedview
     id="namedview15579"
     pagecolor="#ffffff"
     bordercolor="#000000"
     borderopacity="0.25"
     inkscape:showpageshadow="2"
     inkscape:pageopacity="0.0"
     inkscape:pagecheckerboard="true"
     inkscape:deskcolor="#d1d1d1"
     inkscape:document-units="mm"
     showgrid="false"
     showborder="false"
     inkscape:zoom="2.9825758"
     inkscape:cx="229.33198"
     inkscape:cy="90.525781"
     inkscape:window-width="1920"
     inkscape:window-height="1017"
     inkscape:window-x="1912"
     inkscape:window-y="-8"
     inkscape:window-maximized="1"
     inkscape:current-layer="layer1" /><defs
     id="defs15574" /><g
     inkscape:label="Layer 1"
     inkscape:groupmode="layer"
     id="layer1"
     transform="translate(-26.729006,-72.600967)"><g
       id="g15014"
       transform="matrix(0.26458333,0,0,0.26458333,49.253236,55.298379)" /><g
       id="g13720"
       transform="matrix(0.26458333,0,0,0.26458333,18.006939,-99.253542)" /><g
       id="g18168"
       transform="matrix(0.26458333,0,0,0.26458333,27.213146,49.421226)" /><g
       id="g32194"
       transform="matrix(0.26458333,0,0,0.26458333,4.442103,-22.039952)"><path
         d="M 112.64,422.39999 H 97.279999"
         style="fill:none;stroke:#ff0000;stroke-width:0.96;stroke-linecap:round;stroke-linejoin:round;stroke-miterlimit:10;stroke-dasharray:2.88, 2.88;stroke-dashoffset:0;stroke-opacity:1"
         id="path32196" /></g><g
       id="g32198"
       transform="matrix(0.26458333,0,0,0.26458333,29.122436,82.565711)"><path
         d="m 0,0 c 0,-1.12 -0.8,-1.92 -1.76,-1.92 -1.12,0 -1.92,0.8 -1.92,1.92 0,0.96 0.8,1.92 1.92,1.92 C -0.8,1.92 0,0.96 0,0 Z"
         style="fill:#000000;fill-opacity:1;fill-rule:evenodd;stroke:none"
         id="path32200" /></g><g
       id="g32202"
       transform="matrix(0.26458333,0,0,0.26458333,29.122436,82.565711)"><path
         d="m 0,0 c 0,-1.12 -0.8,-1.92 -1.76,-1.92 -1.12,0 -1.92,0.8 -1.92,1.92 0,0.96 0.8,1.92 1.92,1.92 C -0.8,1.92 0,0.96 0,0 Z"
         style="fill:none;stroke:#000000;stroke-width:0.96;stroke-linecap:round;stroke-linejoin:round;stroke-miterlimit:10;stroke-dasharray:none;stroke-opacity:1"
         id="path32204" /></g><g
       id="g32206"
       transform="matrix(0.26458333,0,0,0.26458333,4.442103,-22.039952)"><path
         d="M 97.279999,426.07999 V 418.56"
         style="fill:none;stroke:#000000;stroke-width:0.96;stroke-linecap:round;stroke-linejoin:round;stroke-miterlimit:10;stroke-dasharray:none;stroke-opacity:1"
         id="path32208" /></g><g
       id="g32210"
       transform="matrix(0.26458333,0,0,0.26458333,4.442103,-22.039952)"><path
         d="M 93.279999,395.35999 H 112.64 v -29.59998"
         style="fill:none;stroke:#000000;stroke-width:0.96;stroke-linecap:round;stroke-linejoin:round;stroke-miterlimit:10;stroke-dasharray:none;stroke-opacity:1"
         id="path32212" /></g><g
       id="g32214"
       transform="matrix(0.26458333,0,0,0.26458333,4.442103,-22.039952)"><path
         d="m 112.64,395.35999 v 27.04"
         style="fill:none;stroke:#000000;stroke-width:0.96;stroke-linecap:round;stroke-linejoin:round;stroke-miterlimit:10;stroke-dasharray:none;stroke-opacity:1"
         id="path32216" /></g><g
       id="g32218"
       transform="matrix(0.26458333,0,0,0.26458333,4.442103,-22.039952)"><path
         d="M 112.64,365.76001 115.2,370.88"
         style="fill:none;stroke:#000000;stroke-width:0.96;stroke-linecap:round;stroke-linejoin:round;stroke-miterlimit:10;stroke-dasharray:none;stroke-opacity:1"
         id="path32220" /></g><g
       id="g32222"
       transform="matrix(0.26458333,0,0,0.26458333,4.442103,-22.039952)"><path
         d="M 112.64,422.39999 H 97.279999"
         style="fill:none;stroke:#ff0000;stroke-width:0.96;stroke-linecap:round;stroke-linejoin:round;stroke-miterlimit:10;stroke-dasharray:2.88, 2.88;stroke-dashoffset:0;stroke-opacity:1"
         id="path32224" /></g><g
       id="g32226"
       transform="matrix(0.26458333,0,0,0.26458333,29.122436,82.565711)"><path
         d="m 0,0 c 0,-1.12 -0.8,-1.92 -1.76,-1.92 -1.12,0 -1.92,0.8 -1.92,1.92 0,0.96 0.8,1.92 1.92,1.92 C -0.8,1.92 0,0.96 0,0 Z"
         style="fill:#000000;fill-opacity:1;fill-rule:evenodd;stroke:none"
         id="path32228" /></g><g
       id="g32230"
       transform="matrix(0.26458333,0,0,0.26458333,29.122436,82.565711)"><path
         d="m 0,0 c 0,-1.12 -0.8,-1.92 -1.76,-1.92 -1.12,0 -1.92,0.8 -1.92,1.92 0,0.96 0.8,1.92 1.92,1.92 C -0.8,1.92 0,0.96 0,0 Z"
         style="fill:none;stroke:#000000;stroke-width:0.96;stroke-linecap:round;stroke-linejoin:round;stroke-miterlimit:10;stroke-dasharray:none;stroke-opacity:1"
         id="path32232" /></g><g
       id="g32234"
       transform="matrix(0.26458333,0,0,0.26458333,4.442103,-22.039952)"><path
         d="M 97.279999,426.07999 V 418.56"
         style="fill:none;stroke:#000000;stroke-width:0.96;stroke-linecap:round;stroke-linejoin:round;stroke-miterlimit:10;stroke-dasharray:none;stroke-opacity:1"
         id="path32236" /></g><g
       id="g32238"
       transform="matrix(0.26458333,0,0,0.26458333,4.442103,-22.039952)"><path
         d="M 93.279999,395.35999 H 112.64 v -29.59998"
         style="fill:none;stroke:#000000;stroke-width:0.96;stroke-linecap:round;stroke-linejoin:round;stroke-miterlimit:10;stroke-dasharray:none;stroke-opacity:1"
         id="path32240" /></g><g
       id="g32242"
       transform="matrix(0.26458333,0,0,0.26458333,4.442103,-22.039952)"><path
         d="m 112.64,395.35999 v 27.04"
         style="fill:none;stroke:#000000;stroke-width:0.96;stroke-linecap:round;stroke-linejoin:round;stroke-miterlimit:10;stroke-dasharray:none;stroke-opacity:1"
         id="path32244" /></g><g
       id="g32246"
       transform="matrix(0.26458333,0,0,0.26458333,4.442103,-22.039952)"><path
         d="M 112.64,365.76001 115.2,370.88"
         style="fill:none;stroke:#000000;stroke-width:0.96;stroke-linecap:round;stroke-linejoin:round;stroke-miterlimit:10;stroke-dasharray:none;stroke-opacity:1"
         id="path32248" /></g><g
       id="g32250"
       transform="matrix(0.26458333,0,0,0.26458333,4.442103,-22.039952)"><path
         d="m 119.2,382.23999 v 2.08002 l -6.4,3.03998 V 381.28 l 6.4,3.04001 z"
         style="fill:#ffffff;fill-opacity:1;fill-rule:evenodd;stroke:none"
         id="path32252" /></g><g
       id="g32254"
       transform="matrix(0.26458333,0,0,0.26458333,4.442103,-22.039952)"><path
         d="m 119.2,382.23999 v 2.08002 l -6.4,3.03998 V 381.28 l 6.4,3.04001"
         style="fill:none;stroke:#000000;stroke-width:0.48;stroke-linecap:round;stroke-linejoin:round;stroke-miterlimit:10;stroke-dasharray:none;stroke-opacity:1"
         id="path32256" /></g><g
       id="g32258"
       transform="matrix(0.00361738,0,0,0.00361738,4.442103,-22.039952)"><text
         xml:space="preserve"
         transform="translate(8484.6396,27747.5)"
         style="font-variant:normal;font-weight:normal;font-size:327.68px;font-family:F4;-inkscape-font-specification:F4;writing-mode:lr-tb;fill:#ff0000;fill-opacity:1;fill-rule:nonzero;stroke:none"
         id="text32262"><tspan
           x="0 163.84 314.57278"
           y="0"
           sodipodi:role="line"
           id="tspan32260">3/4</tspan></text></g><g
       id="g32264"
       transform="matrix(0.26458333,0,0,0.26458333,4.442103,-22.039952)"><path
         d="m 106.24,377.12 1.6,-2.56 1.28,2.08001 z"
         style="fill:#000000;fill-opacity:1;fill-rule:evenodd;stroke:none"
         id="path32266" /></g><g
       id="g32268"
       transform="matrix(0.26458333,0,0,0.26458333,4.442103,-22.039952)"><path
         d="m 112.64,374.56 c -2.4,0.16 -4.64,0.95999 -6.4,2.56"
         style="fill:none;stroke:#000000;stroke-width:0.48;stroke-linecap:butt;stroke-linejoin:miter;stroke-miterlimit:2;stroke-dasharray:none;stroke-opacity:1"
         id="path32270" /></g><g
       id="g32272"
       transform="matrix(0.26458333,0,0,0.26458333,4.442103,-22.039952)"><path
         d="m 106.24,377.12 1.6,-2.56 1.28,2.08001 z"
         style="fill:none;stroke:#000000;stroke-width:0.48;stroke-linecap:butt;stroke-linejoin:miter;stroke-miterlimit:2;stroke-dasharray:none;stroke-opacity:1"
         id="path32274" /></g><g
       id="g32276"
       transform="matrix(0.00361738,0,0,0.00361738,4.442103,-22.039952)"><text
         xml:space="preserve"
         transform="translate(7524.96,27220.801)"
         style="font-variant:normal;font-weight:normal;font-size:327.68px;font-family:F4;-inkscape-font-specification:F4;writing-mode:lr-tb;fill:#ff0000;fill-opacity:1;fill-rule:nonzero;stroke:none"
         id="text32280"><tspan
           x="0 163.84 314.57278"
           y="0"
           sodipodi:role="line"
           id="tspan32278">2x8</tspan></text></g><g
       id="g32282"
       transform="matrix(0.26458333,0,0,0.26458333,4.442103,-22.039952)"><path
         d="m 106.24,377.12 1.6,-2.56 1.28,2.08001 z"
         style="fill:#000000;fill-opacity:1;fill-rule:evenodd;stroke:none"
         id="path32284" /></g><g
       id="g32286"
       transform="matrix(0.26458333,0,0,0.26458333,4.442103,-22.039952)"><path
         d="m 112.64,374.56 c -2.4,0.16 -4.64,0.95999 -6.4,2.56"
         style="fill:none;stroke:#000000;stroke-width:0.48;stroke-linecap:butt;stroke-linejoin:miter;stroke-miterlimit:2;stroke-dasharray:none;stroke-opacity:1"
         id="path32288" /></g><g
       id="g32290"
       transform="matrix(0.26458333,0,0,0.26458333,4.442103,-22.039952)"><path
         d="m 106.24,377.12 1.6,-2.56 1.28,2.08001 z"
         style="fill:none;stroke:#000000;stroke-width:0.48;stroke-linecap:butt;stroke-linejoin:miter;stroke-miterlimit:2;stroke-dasharray:none;stroke-opacity:1"
         id="path32292" /></g><g
       id="g32294"
       transform="matrix(0.00361738,0,0,0.00361738,4.442103,-22.039952)"><text
         xml:space="preserve"
         transform="translate(7524.96,27220.801)"
         style="font-variant:normal;font-weight:normal;font-size:327.68px;font-family:F4;-inkscape-font-specification:F4;writing-mode:lr-tb;fill:#ff0000;fill-opacity:1;fill-rule:nonzero;stroke:none"
         id="text32298"><tspan
           x="0 163.84 314.57278"
           y="0"
           sodipodi:role="line"
           id="tspan32296">2x8</tspan></text></g><g
       id="g32300"
       transform="matrix(0.26458333,0,0,0.26458333,4.442103,-22.039952)"><path
         d="m 106.4,404.64001 1.6,2.56 1.28,-2.08001 z"
         style="fill:#000000;fill-opacity:1;fill-rule:evenodd;stroke:none"
         id="path32302" /></g><g
       id="g32304"
       transform="matrix(0.26458333,0,0,0.26458333,4.442103,-22.039952)"><path
         d="m 117.92,405.28 c -3.36,2.72 -8.48,2.39999 -11.52,-0.63999"
         style="fill:none;stroke:#000000;stroke-width:0.48;stroke-linecap:butt;stroke-linejoin:miter;stroke-miterlimit:2;stroke-dasharray:none;stroke-opacity:1"
         id="path32306" /></g><g
       id="g32308"
       transform="matrix(0.26458333,0,0,0.26458333,4.442103,-22.039952)"><path
         d="m 106.4,404.64001 1.6,2.56 1.28,-2.08001 z"
         style="fill:none;stroke:#000000;stroke-width:0.48;stroke-linecap:butt;stroke-linejoin:miter;stroke-miterlimit:2;stroke-dasharray:none;stroke-opacity:1"
         id="path32310" /></g></g></svg>
