<?xml version="1.0" standalone="no"?>
<!DOCTYPE svg PUBLIC "-//W3C//DTD SVG 1.2//EN" "http://www.w3.org/Graphics/SVG/1.2/DTD/svg12.dtd">
<svg xmlns="http://www.w3.org/2000/svg" version="1.2" baseProfile="tiny" id="selectedFigureSvg" width="600px" height="600px" viewBox="-100.3 -120.5 115.37 319"><g id="sequence"><g id="figure-2"><text style="font-family: Verdana, Helvetica, Sans; font-size: 16px; font-weight: bold; fill: black;" text-anchor="middle" x="0" y="-8" class="figNr">4</text><path d="M 0,0 m -4,0 a4,4 0 1 1 0,0.01" style="stroke: black; stroke-width: 1px; fill: black;"/><path d="M -4,0 l -40,0" style="stroke: black; stroke-width: 5px; fill: none; vector-effect: non-scaling-stroke;" class="line" id="figure-2-entry"/><path d="M -44,0 l 0,-40" style="stroke: black; stroke-width: 5px; fill: none; vector-effect: non-scaling-stroke;" class="line" id="figure-2-roll0-gap0"/><path d="M -44,-40 m -16.75,0 l 0,-8 " style="stroke: black; stroke-width: 5px; fill: none; vector-effect: non-scaling-stroke;"/><path d="M -44,-40 m -16,0 l 16,-8 l 0,16 z" style="stroke: black; stroke-width: 1.5px; fill: white;"/><text style="font-family: Arial, Sans; font-size: 20px; font-weight: bold; fill: red;" text-anchor="middle" x="-81.14" y="-39">3/4</text><path d="M -44,-46 l 0,-20" style="stroke: black; stroke-width: 5px; fill: none; vector-effect: non-scaling-stroke;" class="line" id="figure-2-roll0-gap1"/><path d="M -44,-66 m 15.64,7.53 l -3.64,-8.31 l -4,6.93 z" style="stroke: black; stroke-width: 1px; fill: black;"/><path d="M -44,-66 m 15.64,7.53 a 20,20 0 0 0 -15.64,-7.53 " style="stroke: black; stroke-width: 5px; fill: none; vector-effect: non-scaling-stroke;"/><text style="font-family: Arial, Sans; font-size: 20px; font-weight: bold; fill: red;" text-anchor="middle" x="-6.86" y="-59">2x8</text><path d="M -44,-66 l 0,-40" style="stroke: black; stroke-width: 5px; fill: none; vector-effect: non-scaling-stroke;" class="line" id="figure-2-roll0-gap2"/><path d="M -44,-106 l 10,10" style="stroke: black; stroke-width: 5px; fill: none; vector-effect: non-scaling-stroke;" class="hammerTip"/><path d="M -44,-6 l 0,40" style="stroke: black; stroke-width: 5px; fill: none; vector-effect: non-scaling-stroke;" class="line" id="figure-2-roll1-gap0"/><path d="M -44,34 m -15.64,-7.53 l 3.64,8.31 l 4,-6.93 z" style="stroke: black; stroke-width: 1px; fill: black;"/><path d="M -44,34 m -15.64,-7.53 a 20,20 0 0 0 25.64,4.85 " style="stroke: black; stroke-width: 5px; fill: none; vector-effect: non-scaling-stroke;"/><path d="M -44,34 l 0,140" style="stroke: black; stroke-width: 5px; fill: none; vector-effect: non-scaling-stroke;" class="line" id="figure-2-roll1-gap1"/><path d="M -44,174 l 40,0" style="stroke-dasharray: 5, 3; stroke: red; stroke-width: 5px; fill: none; vector-effect: non-scaling-stroke;" class="line" id="figure-2-exit"/><path d="M -4,174 l 0,10 l 0,-20" style="stroke: black; stroke-width: 5px; fill: none; vector-effect: non-scaling-stroke;"/></g></g></svg>