<?xml version="1.0" standalone="no"?>
<!DOCTYPE svg PUBLIC "-//W3C//DTD SVG 1.2//EN" "http://www.w3.org/Graphics/SVG/1.2/DTD/svg12.dtd">
<svg xmlns="http://www.w3.org/2000/svg" version="1.2" baseProfile="tiny" id="selectedFigureSvg" width="100px" height="100px" viewBox="-47.55 -30.06 256.04 125.75"><g id="sequence"><g id="figure-2"><path d="M 0,0 m -4,0 a4,4 0 1 1 0,0.01" style="stroke: black; stroke-width: 1px; fill: black;"/><path d="M 3.46,2 l 115.18,66.5" style="stroke: black; stroke-width: 3px; fill: none;" class="line" id="figure-2-entry"/><path d="M 118.64,68.5 a 40,28 0 0 0 30.41,6.18" style="stroke: black; stroke-width: 3px; fill: none;"/><path d="M 149.05,74.68 m -13.3,-22.38 l 11.26,5.49 l -6.55,4.59 z" style="stroke: black; stroke-width: 2px; fill: black;"/><path d="M 149.05,74.68 m -13.3,-22.38 a 30,30 0 0 1 10.6,37.67 " style="stroke: black; stroke-width: 3px; fill: none;"/><path d="M 149.05,74.68 a 40,28 0 0 0 25.75,-9.85" style="stroke: black; stroke-width: 3px; fill: none;"/><path d="M 174.8,64.83 a 40,28 0 0 0 8.6,-12.77" style="stroke: black; stroke-width: 3px; fill: none;"/><path d="M 183.4,52.06 m -25.58,4.84 l 9.01,-8.7 l 2.07,7.73 z" style="stroke: black; stroke-width: 2px; fill: black;"/><path d="M 183.4,52.06 m -25.58,4.84 a 30,30 0 0 1 39.03,2.92 " style="stroke: black; stroke-width: 3px; fill: none;"/><path d="M 183.4,52.06 a 40,28 0 0 0 -0.55,-12.07" style="stroke: black; stroke-width: 3px; fill: none;"/><path d="M 182.85,39.99 a 40,28 0 0 0 -10.47,-12.88" style="stroke: black; stroke-width: 3px; fill: none;"/><path d="M 172.38,27.11 m -4.2,25.69 l -5.1,-11.45 l 7.97,0.7 z" style="stroke: black; stroke-width: 2px; fill: black;"/><path d="M 172.38,27.11 m -4.2,25.69 a 30,30 0 0 1 16.1,-35.67 " style="stroke: black; stroke-width: 3px; fill: none;"/><path d="M 172.38,27.11 a 40,28 0 0 0 -28.29,-8.2" style="stroke: black; stroke-width: 3px; fill: none;"/><path d="M 144.09,18.91 a 40,28 0 0 0 -25.45,49.6" style="stroke-dasharray: 10, 5; stroke: black; stroke-width: 1px; fill: none;"/><path d="M 144.09,18.91 l -180,0" style="stroke: black; stroke-width: 3px; fill: none;" class="line" id="figure-2-exit"/><path d="M -35.91,18.91 l 0,10 l 0,-20" style="stroke: black; stroke-width: 3px; fill: none;"/></g></g></svg>