<?xml version="1.0" encoding="UTF-8" standalone="no"?>
<!-- Created with Inkscape (http://www.inkscape.org/) -->

<svg
   width="19.032364mm"
   height="16.618786mm"
   viewBox="0 0 19.032364 16.618786"
   version="1.1"
   id="svg31556"
   inkscape:version="1.2.2 (732a01da63, 2022-12-09)"
   sodipodi:docname="4.svg"
   xmlns:inkscape="http://www.inkscape.org/namespaces/inkscape"
   xmlns:sodipodi="http://sodipodi.sourceforge.net/DTD/sodipodi-0.dtd"
   xmlns="http://www.w3.org/2000/svg"
   xmlns:svg="http://www.w3.org/2000/svg">
  <sodipodi:namedview
     id="namedview31558"
     pagecolor="#ffffff"
     bordercolor="#000000"
     borderopacity="0.25"
     inkscape:showpageshadow="2"
     inkscape:pageopacity="0.0"
     inkscape:pagecheckerboard="0"
     inkscape:deskcolor="#d1d1d1"
     inkscape:document-units="mm"
     showgrid="false"
     inkscape:zoom="0.76880612"
     inkscape:cx="50.728004"
     inkscape:cy="88.448828"
     inkscape:window-width="1920"
     inkscape:window-height="1017"
     inkscape:window-x="-8"
     inkscape:window-y="-8"
     inkscape:window-maximized="1"
     inkscape:current-layer="layer1" />
  <defs
     id="defs31553">
    <clipPath
       clipPathUnits="userSpaceOnUse"
       id="clipPath23341">
      <path
         d="M -7.629e-6,792 H 612 V 0 H -7.629e-6"
         clip-rule="evenodd"
         id="path23339" />
    </clipPath>
    <clipPath
       clipPathUnits="userSpaceOnUse"
       id="clipPath23351">
      <path
         d="M -7.629e-6,792 H 612 V 0 H -7.629e-6"
         clip-rule="evenodd"
         id="path23349" />
    </clipPath>
    <clipPath
       clipPathUnits="userSpaceOnUse"
       id="clipPath23361">
      <path
         d="M 9.12e-6,0 H 612.00001 V 792 H 9.12e-6 Z"
         clip-rule="evenodd"
         id="path23359" />
    </clipPath>
  </defs>
  <g
     inkscape:label="Layer 1"
     inkscape:groupmode="layer"
     id="layer1"
     transform="translate(-91.663426,-124.876)">
    <g
       id="g23315"
       transform="matrix(0.35277777,0,0,-0.35277777,70.517926,287.94695)">
      <path
         d="M 110.7,421.17 H 85.5 m 0,0 c -9.278,0 -16.8,7.52 -16.8,16.8 0,9.27 7.522,16.8 16.8,16.8 m 0,0 c 9.278,0 16.8,-7.53 16.8,-16.8 0,-9.28 -7.522,-16.8 -16.8,-16.8 m 0,0 H 60.3"
         style="fill:none;stroke:#ff0000;stroke-width:0.72;stroke-linecap:round;stroke-linejoin:round;stroke-miterlimit:2;stroke-dasharray:5.04, 3.6;stroke-dashoffset:0;stroke-opacity:1"
         id="path23317" />
    </g>
    <path
       d="m 95.939092,128.69954 1.185333,1.18533 m 8.297335,-1.18533 -1.18533,1.18533"
       style="fill:none;stroke:#000000;stroke-width:0.254;stroke-linecap:round;stroke-linejoin:round;stroke-miterlimit:2;stroke-dasharray:none;stroke-opacity:1"
       id="path23319" />
    <path
       d="m 109.57043,139.36754 c 0,-0.27517 0.22225,-0.49742 0.50094,-0.49742 0.27517,0 0.49742,0.22225 0.49742,0.49742 0,0.27869 -0.22225,0.50094 -0.49742,0.50094 -0.27869,0 -0.50094,-0.22225 -0.50094,-0.50094 z"
       style="fill:#000000;fill-opacity:1;fill-rule:evenodd;stroke:none;stroke-width:0.352778"
       id="path23321" />
    <path
       d="m 109.57043,139.36754 c 0,-0.27517 0.22225,-0.49742 0.50094,-0.49742 0.27517,0 0.49742,0.22225 0.49742,0.49742 0,0.27869 -0.22225,0.50094 -0.49742,0.50094 -0.27869,0 -0.50094,-0.22225 -0.50094,-0.50094 z m -17.780004,2.00025 v -3.99698"
       style="fill:none;stroke:#000000;stroke-width:0.254;stroke-linecap:round;stroke-linejoin:round;stroke-miterlimit:2;stroke-dasharray:none;stroke-opacity:1"
       id="path23323" />
    <g
       id="g23325"
       transform="matrix(0.35277777,0,0,-0.35277777,70.517926,287.94695)">
      <path
         d="M 110.7,421.17 H 85.5 m 0,0 c -9.278,0 -16.8,7.52 -16.8,16.8 0,9.27 7.522,16.8 16.8,16.8 m 0,0 c 9.278,0 16.8,-7.53 16.8,-16.8 0,-9.28 -7.522,-16.8 -16.8,-16.8 m 0,0 H 60.3"
         style="fill:none;stroke:#ff0000;stroke-width:0.72;stroke-linecap:round;stroke-linejoin:round;stroke-miterlimit:2;stroke-dasharray:5.04, 3.6;stroke-dashoffset:0;stroke-opacity:1"
         id="path23327" />
    </g>
    <path
       d="m 95.939092,128.69954 1.185333,1.18533 m 8.297335,-1.18533 -1.18533,1.18533"
       style="fill:none;stroke:#000000;stroke-width:0.254;stroke-linecap:round;stroke-linejoin:round;stroke-miterlimit:2;stroke-dasharray:none;stroke-opacity:1"
       id="path23329" />
    <path
       d="m 109.57043,139.36754 c 0,-0.27517 0.22225,-0.49742 0.50094,-0.49742 0.27517,0 0.49742,0.22225 0.49742,0.49742 0,0.27869 -0.22225,0.50094 -0.49742,0.50094 -0.27869,0 -0.50094,-0.22225 -0.50094,-0.50094 z"
       style="fill:#000000;fill-opacity:1;fill-rule:evenodd;stroke:none;stroke-width:0.352778"
       id="path23331" />
    <path
       d="m 109.57043,139.36754 c 0,-0.27517 0.22225,-0.49742 0.50094,-0.49742 0.27517,0 0.49742,0.22225 0.49742,0.49742 0,0.27869 -0.22225,0.50094 -0.49742,0.50094 -0.27869,0 -0.50094,-0.22225 -0.50094,-0.50094 z m -17.780004,2.00025 v -3.99698"
       style="fill:none;stroke:#000000;stroke-width:0.254;stroke-linecap:round;stroke-linejoin:round;stroke-miterlimit:2;stroke-dasharray:none;stroke-opacity:1"
       id="path23333" />
    <g
       id="g23335"
       transform="matrix(0.35277777,0,0,-0.35277777,70.517926,287.94695)">
      <g
         id="g23337"
         clip-path="url(#clipPath23341)">
        <path
           d="m 82.873,460.83 2.541,-1.58 -2.065,-1.27 z"
           style="fill:#000000;fill-opacity:1;fill-rule:evenodd;stroke:none"
           id="path23343" />
      </g>
    </g>
    <g
       id="g23345"
       transform="matrix(0.35277777,0,0,-0.35277777,70.517926,287.94695)">
      <g
         id="g23347"
         clip-path="url(#clipPath23351)">
        <path
           d="m 83.508,449.4 c 1.161,1.45 1.829,3.23 1.906,5.08 -0.148,2.34 -1.038,4.56 -2.541,6.35 m 0,0 2.541,-1.58 -2.065,-1.27 z"
           style="fill:none;stroke:#000000;stroke-width:0.36;stroke-linecap:butt;stroke-linejoin:miter;stroke-miterlimit:2;stroke-dasharray:none;stroke-opacity:1"
           id="path23353" />
      </g>
    </g>
    <g
       id="g23355"
       transform="matrix(0.35277777,0,0,-0.35277777,70.517926,287.94695)">
      <g
         id="g23357"
         clip-path="url(#clipPath23361)">
        <text
           xml:space="preserve"
           transform="matrix(1,0,0,-1,77.952,459.43)"
           style="font-variant:normal;font-weight:bold;font-size:4.44px;font-family:Calibri;-inkscape-font-specification:Calibri-Bold;writing-mode:lr-tb;fill:#ff0000;fill-opacity:1;fill-rule:nonzero;stroke:none"
           id="text23365"><tspan
             x="0"
             y="0"
             id="tspan23363">4</tspan></text>
      </g>
    </g>
  </g>
</svg>
