<?xml version="1.0" standalone="no"?>
<!DOCTYPE svg PUBLIC "-//W3C//DTD SVG 1.2//EN" "http://www.w3.org/Graphics/SVG/1.2/DTD/svg12.dtd">
<svg xmlns="http://www.w3.org/2000/svg" version="1.2" baseProfile="tiny" id="selectedFigureSvg" width="100px" height="100px" viewBox="-38.74 -89.3 152.16 226.6"><g id="sequence"><g id="figure-2"><path d="M 0,0 m -4,0 a4,4 0 1 1 0,0.01" style="stroke: black; stroke-width: 1px; fill: black;"/><path d="M 4,0 l 28,0" style="stroke: black; stroke-width: 3px; fill: none;" class="line" id="figure-2-entry"/><path d="M 32,0 l 0,-28" style="stroke: black; stroke-width: 3px; fill: none;" class="line" id="figure-2-roll0-gap0"/><path d="M 32,-28 m 24.75,0 l 0,-12 " style="stroke: black; stroke-width: 3px; fill: none;"/><path d="M 32,-28 m 24,0 l -24,-12 l 0,24 z" style="stroke: black; stroke-width: 1.5px; fill: white;"/><text style="font-family: Arial, Sans; font-size: 20px; font-weight: bold; fill: red;" text-anchor="middle" x="90.93" y="-30">3/4</text><path d="M 32,-37 l 0,-14" style="stroke: black; stroke-width: 3px; fill: none;" class="line" id="figure-2-roll0-gap1"/><path d="M 32,-51 m -23.45,11.3 l 6.45,-10.74 l 4,6.93 z" style="stroke: black; stroke-width: 2px; fill: black;"/><path d="M 32,-51 m -23.45,11.3 a 30,30 0 0 1 23.45,-11.3 " style="stroke: black; stroke-width: 3px; fill: none;"/><text style="font-family: Arial, Sans; font-size: 20px; font-weight: bold; fill: red;" text-anchor="middle" x="-15.14" y="-44">2x8</text><path d="M 32,-51 l 0,-28" style="stroke: black; stroke-width: 3px; fill: none;" class="line" id="figure-2-roll0-gap2"/><path d="M 32,-79 l 7,7" style="stroke: black; stroke-width: 3px; fill: none;" class="hammerTip"/><path d="M 32,-9 l 0,28" style="stroke: black; stroke-width: 3px; fill: none;" class="line" id="figure-2-roll1-gap0"/><path d="M 32,19 m 23.45,-11.3 l -6.45,10.74 l -4,-6.93 z" style="stroke: black; stroke-width: 2px; fill: black;"/><path d="M 32,19 m 23.45,-11.3 a 30,30 0 0 1 -38.45,7.28 " style="stroke: black; stroke-width: 3px; fill: none;"/><path d="M 32,19 l 0,98" style="stroke: black; stroke-width: 3px; fill: none;" class="line" id="figure-2-roll1-gap1"/><path d="M 32,117 l -28,0" style="stroke-dasharray: 10, 8; stroke: red; stroke-width: 3px; fill: none; " class="line" id="figure-2-exit"/><path d="M 4,117 l 0,-10 l 0,20" style="stroke: black; stroke-width: 3px; fill: none;"/></g></g></svg>