<?xml version="1.0" encoding="UTF-8" standalone="no"?>
<!-- Created with Inkscape (http://www.inkscape.org/) -->

<svg
   width="18.62903mm"
   height="19.693542mm"
   viewBox="0 0 18.62903 19.693539"
   version="1.1"
   id="svg15577"
   inkscape:version="1.2.2 (732a01da63, 2022-12-09)"
   sodipodi:docname="5.svg"
   xml:space="preserve"
   xmlns:inkscape="http://www.inkscape.org/namespaces/inkscape"
   xmlns:sodipodi="http://sodipodi.sourceforge.net/DTD/sodipodi-0.dtd"
   xmlns="http://www.w3.org/2000/svg"
   xmlns:svg="http://www.w3.org/2000/svg"><sodipodi:namedview
     id="namedview15579"
     pagecolor="#ffffff"
     bordercolor="#000000"
     borderopacity="0.25"
     inkscape:showpageshadow="2"
     inkscape:pageopacity="0.0"
     inkscape:pagecheckerboard="true"
     inkscape:deskcolor="#d1d1d1"
     inkscape:document-units="mm"
     showgrid="false"
     showborder="false"
     inkscape:zoom="2.9825758"
     inkscape:cx="252.13106"
     inkscape:cy="113.32487"
     inkscape:window-width="1920"
     inkscape:window-height="1017"
     inkscape:window-x="1912"
     inkscape:window-y="-8"
     inkscape:window-maximized="1"
     inkscape:current-layer="layer1" /><defs
     id="defs15574" /><g
     inkscape:label="Layer 1"
     inkscape:groupmode="layer"
     id="layer1"
     transform="translate(-20.696749,-66.56871)"><g
       id="g15014"
       transform="matrix(0.26458333,0,0,0.26458333,49.253236,55.298379)" /><g
       id="g13720"
       transform="matrix(0.26458333,0,0,0.26458333,18.006939,-99.253542)" /><g
       id="g18168"
       transform="matrix(0.26458333,0,0,0.26458333,27.213146,49.421226)" /><g
       id="g32402"
       transform="matrix(0.26458333,0,0,0.26458333,0.42430852,-66.950397)"><path
         d="M 135.03999,552.79999 H 83.199997"
         style="fill:none;stroke:#ff0000;stroke-width:0.96;stroke-linecap:round;stroke-linejoin:round;stroke-miterlimit:10;stroke-dasharray:6.72, 4.8;stroke-dashoffset:0;stroke-opacity:1"
         id="path32404" /></g><g
       id="g32406"
       transform="matrix(0.26458333,0,0,0.26458333,0.42430852,-66.950397)"><path
         d="m 124.64,511.20001 v 55.51996"
         style="fill:none;stroke:#ff0000;stroke-width:0.96;stroke-linecap:round;stroke-linejoin:round;stroke-miterlimit:10;stroke-dasharray:6.72, 4.8;stroke-dashoffset:0;stroke-opacity:1"
         id="path32408" /></g><g
       id="g32410"
       transform="matrix(0.26458333,0,0,0.26458333,0.42430852,-66.950397)"><path
         d="m 124.64,566.71997 8.96001,5.12006"
         style="fill:none;stroke:#ff0000;stroke-width:0.96;stroke-linecap:round;stroke-linejoin:round;stroke-miterlimit:10;stroke-dasharray:6.72, 4.8;stroke-dashoffset:0;stroke-opacity:1"
         id="path32412" /></g><g
       id="g32414"
       transform="matrix(0.26458333,0,0,0.26458333,36.153639,79.311265)"><path
         d="M 0,0 C 0,0.96 0.8,1.76 1.92,1.76 2.88,1.76 3.84,0.96 3.84,0 3.84,-1.12 2.88,-1.92 1.92,-1.92 0.8,-1.92 0,-1.12 0,0 Z"
         style="fill:#000000;fill-opacity:1;fill-rule:evenodd;stroke:none"
         id="path32416" /></g><g
       id="g32418"
       transform="matrix(0.26458333,0,0,0.26458333,36.153639,79.311265)"><path
         d="M 0,0 C 0,0.96 0.8,1.76 1.92,1.76 2.88,1.76 3.84,0.96 3.84,0 3.84,-1.12 2.88,-1.92 1.92,-1.92 0.8,-1.92 0,-1.12 0,0 Z"
         style="fill:none;stroke:#000000;stroke-width:0.96;stroke-linecap:round;stroke-linejoin:round;stroke-miterlimit:10;stroke-dasharray:none;stroke-opacity:1"
         id="path32420" /></g><g
       id="g32422"
       transform="matrix(0.26458333,0,0,0.26458333,0.42430852,-66.950397)"><path
         d="M 141.11999,571.84003 H 126.08"
         style="fill:none;stroke:#000000;stroke-width:0.96;stroke-linecap:round;stroke-linejoin:round;stroke-miterlimit:10;stroke-dasharray:none;stroke-opacity:1"
         id="path32424" /></g><g
       id="g32426"
       transform="matrix(0.26458333,0,0,0.26458333,0.42430852,-66.950397)"><path
         d="M 83.199997,552.79999 124.64,511.20001"
         style="fill:none;stroke:#000000;stroke-width:0.96;stroke-linecap:round;stroke-linejoin:round;stroke-miterlimit:10;stroke-dasharray:none;stroke-opacity:1"
         id="path32428" /></g><g
       id="g32430"
       transform="matrix(0.26458333,0,0,0.26458333,0.42430852,-66.950397)"><path
         d="M 135.03999,552.79999 H 83.199997"
         style="fill:none;stroke:#ff0000;stroke-width:0.96;stroke-linecap:round;stroke-linejoin:round;stroke-miterlimit:10;stroke-dasharray:6.72, 4.8;stroke-dashoffset:0;stroke-opacity:1"
         id="path32432" /></g><g
       id="g32434"
       transform="matrix(0.26458333,0,0,0.26458333,0.42430852,-66.950397)"><path
         d="m 124.64,511.20001 v 55.51996"
         style="fill:none;stroke:#ff0000;stroke-width:0.96;stroke-linecap:round;stroke-linejoin:round;stroke-miterlimit:10;stroke-dasharray:6.72, 4.8;stroke-dashoffset:0;stroke-opacity:1"
         id="path32436" /></g><g
       id="g32438"
       transform="matrix(0.26458333,0,0,0.26458333,0.42430852,-66.950397)"><path
         d="m 124.64,566.71997 8.96001,5.12006"
         style="fill:none;stroke:#ff0000;stroke-width:0.96;stroke-linecap:round;stroke-linejoin:round;stroke-miterlimit:10;stroke-dasharray:6.72, 4.8;stroke-dashoffset:0;stroke-opacity:1"
         id="path32440" /></g><g
       id="g32442"
       transform="matrix(0.26458333,0,0,0.26458333,36.153639,79.311265)"><path
         d="M 0,0 C 0,0.96 0.8,1.76 1.92,1.76 2.88,1.76 3.84,0.96 3.84,0 3.84,-1.12 2.88,-1.92 1.92,-1.92 0.8,-1.92 0,-1.12 0,0 Z"
         style="fill:#000000;fill-opacity:1;fill-rule:evenodd;stroke:none"
         id="path32444" /></g><g
       id="g32446"
       transform="matrix(0.26458333,0,0,0.26458333,36.153639,79.311265)"><path
         d="M 0,0 C 0,0.96 0.8,1.76 1.92,1.76 2.88,1.76 3.84,0.96 3.84,0 3.84,-1.12 2.88,-1.92 1.92,-1.92 0.8,-1.92 0,-1.12 0,0 Z"
         style="fill:none;stroke:#000000;stroke-width:0.96;stroke-linecap:round;stroke-linejoin:round;stroke-miterlimit:10;stroke-dasharray:none;stroke-opacity:1"
         id="path32448" /></g><g
       id="g32450"
       transform="matrix(0.26458333,0,0,0.26458333,0.42430852,-66.950397)"><path
         d="M 141.11999,571.84003 H 126.08"
         style="fill:none;stroke:#000000;stroke-width:0.96;stroke-linecap:round;stroke-linejoin:round;stroke-miterlimit:10;stroke-dasharray:none;stroke-opacity:1"
         id="path32452" /></g><g
       id="g32454"
       transform="matrix(0.26458333,0,0,0.26458333,0.42430852,-66.950397)"><path
         d="M 83.199997,552.79999 124.64,511.20001"
         style="fill:none;stroke:#000000;stroke-width:0.96;stroke-linecap:round;stroke-linejoin:round;stroke-miterlimit:10;stroke-dasharray:none;stroke-opacity:1"
         id="path32456" /></g><g
       id="g32458"
       transform="matrix(0.26458333,0,0,0.26458333,0.42430852,-66.950397)"><path
         d="m 132.32001,543.84003 v -2.56 L 124.64,537.76001 v 7.03998 l 7.68001,-3.51996 z"
         style="fill:#ff0000;fill-opacity:1;fill-rule:evenodd;stroke:none"
         id="path32460" /></g><g
       id="g32462"
       transform="matrix(0.26458333,0,0,0.26458333,0.42430852,-66.950397)"><path
         d="m 132.32001,543.84003 v -2.56 L 124.64,537.76001 v 7.03998 l 7.68001,-3.51996"
         style="fill:none;stroke:#000000;stroke-width:0.48;stroke-linecap:round;stroke-linejoin:round;stroke-miterlimit:10;stroke-dasharray:none;stroke-opacity:1"
         id="path32464" /></g><g
       id="g32466"
       transform="matrix(0.00426323,0,0,0.00426323,0.42430852,-66.950397)"><text
         xml:space="preserve"
         transform="translate(8033.1201,33274.398)"
         style="font-variant:normal;font-weight:normal;font-size:327.68px;font-family:F4;-inkscape-font-specification:F4;writing-mode:lr-tb;fill:#ff0000;fill-opacity:1;fill-rule:nonzero;stroke:none"
         id="text32470"><tspan
           x="0 170.3936 308.0192"
           y="0"
           sodipodi:role="line"
           id="tspan32468">3/4</tspan></text></g><g
       id="g32472"
       transform="matrix(0.26458333,0,0,0.26458333,0.42430852,-66.950397)"><path
         d="m 95.839996,529.28003 -1.759994,1.91998 2.879997,7.83997 4.960001,-5.12 -7.839998,-2.71997 z"
         style="fill:#ffffff;fill-opacity:1;fill-rule:evenodd;stroke:none"
         id="path32474" /></g><g
       id="g32476"
       transform="matrix(0.26458333,0,0,0.26458333,0.42430852,-66.950397)"><path
         d="m 95.839996,529.28003 -1.759994,1.91998 2.879997,7.83997 4.960001,-5.12 -7.839998,-2.71997"
         style="fill:none;stroke:#000000;stroke-width:0.48;stroke-linecap:round;stroke-linejoin:round;stroke-miterlimit:10;stroke-dasharray:none;stroke-opacity:1"
         id="path32478" /></g><g
       id="g32480"
       transform="matrix(0.26458333,0,0,0.26458333,0.42430852,-66.950397)"><path
         d="m 108.64,538.40002 0.8,-3.52002 -2.88,0.64002 z"
         style="fill:#000000;fill-opacity:1;fill-rule:evenodd;stroke:none"
         id="path32482" /></g><g
       id="g32484"
       transform="matrix(0.26458333,0,0,0.26458333,0.42430852,-66.950397)"><path
         d="m 105.44,530.88 c 1.76,2.08002 2.88,4.79999 3.2,7.52002"
         style="fill:none;stroke:#000000;stroke-width:0.48;stroke-linecap:butt;stroke-linejoin:miter;stroke-miterlimit:2;stroke-dasharray:none;stroke-opacity:1"
         id="path32486" /></g><g
       id="g32488"
       transform="matrix(0.26458333,0,0,0.26458333,0.42430852,-66.950397)"><path
         d="m 108.64,538.40002 0.8,-3.52002 -2.88,0.64002 z"
         style="fill:none;stroke:#000000;stroke-width:0.48;stroke-linecap:butt;stroke-linejoin:miter;stroke-miterlimit:2;stroke-dasharray:none;stroke-opacity:1"
         id="path32490" /></g><g
       id="g32492"
       transform="matrix(0.26458333,0,0,0.26458333,0.42430852,-66.950397)"><path
         d="m 112.64,534.40002 c 0,0 -0.16,0 -0.16,0.15998 0,0 0,0 0,0 0,0 0,0 0,0 0,0 0,0 0,0 h -1.92 c -0.16,0 -0.16,0 -0.16,0 0,0 0,0 0,0 0,0 -0.16,0 -0.16,0 0,-0.15998 0,-0.15998 0,-0.15998 0,-0.16003 0,-0.16003 0,-0.16003 0,0 0,-0.15997 0.16,-0.15997 0,0 0,0 0,-0.16004 0,0 0,0 0,0 l 0.64,-0.63995 c 0.16,-0.16003 0.16,-0.32001 0.32,-0.32001 0,-0.16003 0.16,-0.16003 0.16,-0.32001 0,0 0,-0.16003 0,-0.16003 0,-0.15997 0.16,-0.15997 0.16,-0.32001 0,0 -0.16,0 -0.16,-0.15997 0,0 0,0 0,0 0,-0.15997 -0.16,-0.15997 -0.16,-0.15997 0,0 -0.16,0 -0.16,0 -0.16,0 -0.16,0 -0.32,0 0,0 -0.16,0 -0.16,0.15997 -0.16,0 -0.16,0 -0.16,0 0,0 -0.16,0 -0.16,0 0,0 0,0 0,0 0,0 0,0 0,0 0,0 0,0 0,-0.15997 0,0 0,0 0,-0.16004 0,0 0,0 0,0 0,0 0,0 0,-0.15997 0,0 0,0 0,0 0,0 0,0 0,0 0,0 0.16,-0.16004 0.16,-0.16004 0,0 0.16,0 0.16,0 0.16,-0.15997 0.16,-0.15997 0.32,-0.15997 0.16,0 0.16,0 0.32,0 0.16,0 0.32,0 0.48,0 0.16,0.15997 0.16,0.15997 0.32,0.32001 0.16,0 0.16,0.15997 0.16,0.15997 0.16,0.16004 0.16,0.32001 0.16,0.32001 0,0.15997 0,0.32001 -0.16,0.47998 0,0 0,0.16003 0,0.32001 -0.16,0 -0.16,0.16003 -0.32,0.32001 -0.16,0.16003 -0.32,0.32 -0.48,0.47998 l -0.48,0.48004 h 1.44 c 0,0 0,0 0,0 0,0 0,0 0,0 0,0.15997 0,0.15997 0,0.15997 0,0 0.16,0 0.16,0.16003 z m 2.56,0.15998 c 0,0 0,0 0,0 0,0 0,0 -0.16,0 0,0 0,0.15997 0,0.15997 -0.16,0 -0.16,0 -0.16,0 -0.16,0 -0.16,0 -0.32,0 0,0 0,0 0,-0.15997 -0.16,0 -0.16,0 -0.16,0 0,0 0,0 0,0 l -0.48,-0.79999 -0.32,0.79999 c 0,0 0,0 0,0 -0.16,0 -0.16,0 -0.16,0 0,0.15997 0,0.15997 -0.16,0.15997 0,0 0,0 -0.16,0 0,0 0,0 -0.16,0 0,0 0,-0.15997 0,-0.15997 -0.16,0 -0.16,0 -0.16,0 0,0 0,0 0.16,0 l 0.64,-1.27997 -0.64,-0.96002 c 0,0 0,-0.16004 0,-0.16004 0,0 0,0 0,0 0,0 0,0 0.16,0 0,0 0,0 0.16,0 0,0 0.16,0 0.16,0 0,0 0.16,0 0.16,0 0,0 0,0 0,0 0,0 0,0 0,0 l 0.48,0.80005 0.32,-0.80005 c 0,0 0.16,0 0.16,0 0,0 0,0 0,0 0,0 0,0 0,0 0.16,0 0.16,0 0.16,0 0.16,0 0.16,0 0.32,0 0,0 0,0 0,0 0,0 0,0 0,0 0,0 0,0 0,0.16004 l -0.48,0.96002 z m 2.56,-0.96002 c 0,0.16003 0,0.16003 0,0.32 0,0 0,0 0,0 h -0.32 V 534.56 c 0,0 0,0 0,0 -0.16,0 -0.16,0 -0.16,0 0,0 0,0.15997 0,0.15997 -0.16,0 -0.16,0 -0.16,0 -0.16,0 -0.16,0 -0.16,0 -0.16,0 -0.16,-0.15997 -0.16,-0.15997 0,0 0,0 0,0 0,0 0,0 0,0 v -0.64002 h -1.44 c 0,0 0,0 0,0 0,0 0,0 0,0 0,0 0,-0.15997 0,-0.15997 -0.16,0 -0.16,0 -0.16,-0.16003 0,0 0,0 0,-0.15998 0.16,0 0.16,0 0.16,0 0,-0.15997 0,-0.15997 0,-0.15997 0,0 0,0 0,-0.16003 l 1.12,-1.76002 c 0,0 0,0 0,0 0,-0.15997 0,-0.15997 0,-0.15997 0.16,0 0.16,0 0.16,0 0.16,0 0.16,0 0.32,0 0,0 0.16,0 0.16,0 0,0 0.16,0 0.16,0 0,0 0,0.15997 0,0.15997 0.16,0 0.16,0 0.16,0 V 533.44 h 0.32 c 0,0 0,0 0,0 0,0 0,0.15998 0,0.15998 z m -0.96,-1.75995 h -0.16 l -0.8,1.59997 h 0.96 z"
         style="fill:#ff0000;fill-opacity:1;fill-rule:nonzero;stroke:none"
         id="path32494" /></g><g
       id="g32496"
       transform="matrix(0.26458333,0,0,0.26458333,0.42430852,-66.950397)"><path
         d="m 108.64,538.40002 0.8,-3.52002 -2.88,0.64002 z"
         style="fill:#000000;fill-opacity:1;fill-rule:evenodd;stroke:none"
         id="path32498" /></g><g
       id="g32500"
       transform="matrix(0.26458333,0,0,0.26458333,0.42430852,-66.950397)"><path
         d="m 105.44,530.88 c 1.76,2.08002 2.88,4.79999 3.2,7.52002"
         style="fill:none;stroke:#000000;stroke-width:0.48;stroke-linecap:butt;stroke-linejoin:miter;stroke-miterlimit:2;stroke-dasharray:none;stroke-opacity:1"
         id="path32502" /></g><g
       id="g32504"
       transform="matrix(0.26458333,0,0,0.26458333,0.42430852,-66.950397)"><path
         d="m 108.64,538.40002 0.8,-3.52002 -2.88,0.64002 z"
         style="fill:none;stroke:#000000;stroke-width:0.48;stroke-linecap:butt;stroke-linejoin:miter;stroke-miterlimit:2;stroke-dasharray:none;stroke-opacity:1"
         id="path32506" /></g><g
       id="g32508"
       transform="matrix(0.26458333,0,0,0.26458333,0.42430852,-66.950397)"><path
         d="m 112.64,534.40002 c 0,0 -0.16,0 -0.16,0.15998 0,0 0,0 0,0 0,0 0,0 0,0 0,0 0,0 0,0 h -1.92 c -0.16,0 -0.16,0 -0.16,0 0,0 0,0 0,0 0,0 -0.16,0 -0.16,0 0,-0.15998 0,-0.15998 0,-0.15998 0,-0.16003 0,-0.16003 0,-0.16003 0,0 0,-0.15997 0.16,-0.15997 0,0 0,0 0,-0.16004 0,0 0,0 0,0 l 0.64,-0.63995 c 0.16,-0.16003 0.16,-0.32001 0.32,-0.32001 0,-0.16003 0.16,-0.16003 0.16,-0.32001 0,0 0,-0.16003 0,-0.16003 0,-0.15997 0.16,-0.15997 0.16,-0.32001 0,0 -0.16,0 -0.16,-0.15997 0,0 0,0 0,0 0,-0.15997 -0.16,-0.15997 -0.16,-0.15997 0,0 -0.16,0 -0.16,0 -0.16,0 -0.16,0 -0.32,0 0,0 -0.16,0 -0.16,0.15997 -0.16,0 -0.16,0 -0.16,0 0,0 -0.16,0 -0.16,0 0,0 0,0 0,0 0,0 0,0 0,0 0,0 0,0 0,-0.15997 0,0 0,0 0,-0.16004 0,0 0,0 0,0 0,0 0,0 0,-0.15997 0,0 0,0 0,0 0,0 0,0 0,0 0,0 0.16,-0.16004 0.16,-0.16004 0,0 0.16,0 0.16,0 0.16,-0.15997 0.16,-0.15997 0.32,-0.15997 0.16,0 0.16,0 0.32,0 0.16,0 0.32,0 0.48,0 0.16,0.15997 0.16,0.15997 0.32,0.32001 0.16,0 0.16,0.15997 0.16,0.15997 0.16,0.16004 0.16,0.32001 0.16,0.32001 0,0.15997 0,0.32001 -0.16,0.47998 0,0 0,0.16003 0,0.32001 -0.16,0 -0.16,0.16003 -0.32,0.32001 -0.16,0.16003 -0.32,0.32 -0.48,0.47998 l -0.48,0.48004 h 1.44 c 0,0 0,0 0,0 0,0 0,0 0,0 0,0.15997 0,0.15997 0,0.15997 0,0 0.16,0 0.16,0.16003 z m 2.56,0.15998 c 0,0 0,0 0,0 0,0 0,0 -0.16,0 0,0 0,0.15997 0,0.15997 -0.16,0 -0.16,0 -0.16,0 -0.16,0 -0.16,0 -0.32,0 0,0 0,0 0,-0.15997 -0.16,0 -0.16,0 -0.16,0 0,0 0,0 0,0 l -0.48,-0.79999 -0.32,0.79999 c 0,0 0,0 0,0 -0.16,0 -0.16,0 -0.16,0 0,0.15997 0,0.15997 -0.16,0.15997 0,0 0,0 -0.16,0 0,0 0,0 -0.16,0 0,0 0,-0.15997 0,-0.15997 -0.16,0 -0.16,0 -0.16,0 0,0 0,0 0.16,0 l 0.64,-1.27997 -0.64,-0.96002 c 0,0 0,-0.16004 0,-0.16004 0,0 0,0 0,0 0,0 0,0 0.16,0 0,0 0,0 0.16,0 0,0 0.16,0 0.16,0 0,0 0.16,0 0.16,0 0,0 0,0 0,0 0,0 0,0 0,0 l 0.48,0.80005 0.32,-0.80005 c 0,0 0.16,0 0.16,0 0,0 0,0 0,0 0,0 0,0 0,0 0.16,0 0.16,0 0.16,0 0.16,0 0.16,0 0.32,0 0,0 0,0 0,0 0,0 0,0 0,0 0,0 0,0 0,0.16004 l -0.48,0.96002 z m 2.56,-0.96002 c 0,0.16003 0,0.16003 0,0.32 0,0 0,0 0,0 h -0.32 V 534.56 c 0,0 0,0 0,0 -0.16,0 -0.16,0 -0.16,0 0,0 0,0.15997 0,0.15997 -0.16,0 -0.16,0 -0.16,0 -0.16,0 -0.16,0 -0.16,0 -0.16,0 -0.16,-0.15997 -0.16,-0.15997 0,0 0,0 0,0 0,0 0,0 0,0 v -0.64002 h -1.44 c 0,0 0,0 0,0 0,0 0,0 0,0 0,0 0,-0.15997 0,-0.15997 -0.16,0 -0.16,0 -0.16,-0.16003 0,0 0,0 0,-0.15998 0.16,0 0.16,0 0.16,0 0,-0.15997 0,-0.15997 0,-0.15997 0,0 0,0 0,-0.16003 l 1.12,-1.76002 c 0,0 0,0 0,0 0,-0.15997 0,-0.15997 0,-0.15997 0.16,0 0.16,0 0.16,0 0.16,0 0.16,0 0.32,0 0,0 0.16,0 0.16,0 0,0 0.16,0 0.16,0 0,0 0,0.15997 0,0.15997 0.16,0 0.16,0 0.16,0 V 533.44 h 0.32 c 0,0 0,0 0,0 0,0 0,0.15998 0,0.15998 z m -0.96,-1.75995 h -0.16 l -0.8,1.59997 h 0.96 z"
         style="fill:#ff0000;fill-opacity:1;fill-rule:nonzero;stroke:none"
         id="path32510" /></g></g></svg>
