<?xml version="1.0" standalone="no"?>
<!DOCTYPE svg PUBLIC "-//W3C//DTD SVG 1.2//EN" "http://www.w3.org/Graphics/SVG/1.2/DTD/svg12.dtd">
<svg xmlns="http://www.w3.org/2000/svg" version="1.2" baseProfile="tiny" id="selectedFigureSvg" width="100px" height="100px" viewBox="-155.68 -154.64 169.06 172.48"><g id="sequence"><g id="figure-2"><path d="M 0,0 m -4,0 a4,4 0 1 1 0,0.01" style="stroke: black; stroke-width: 1px; fill: black;"/><path d="M -4,0 l -72,0" style="stroke-dasharray: 10, 8; stroke: red; stroke-width: 3px; fill: none; " class="line" id="figure-2-entry"/><path d="M -76,0 a48,48 0 0 1 -33.94,-81.94" style="stroke-dasharray: 10, 8; stroke: red; stroke-width: 3px; fill: none; "/><path d="M -109.94,-81.94 l -5.3,-5.3 l 10.6,10.6" style="stroke: black; stroke-width: 3px; fill: none;"/><path d="M -109.94,-81.94 a48,48 0 0 1 33.94,-14.06" style="stroke-dasharray: 10, 8; stroke: red; stroke-width: 3px; fill: none; "/><path d="M -76,-96 a48,48 0 0 1 33.94,14.06" style="stroke-dasharray: 10, 8; stroke: red; stroke-width: 3px; fill: none; "/><path d="M -42.06,-81.94 l 5.3,-5.3 l -10.6,10.6" style="stroke: black; stroke-width: 3px; fill: none;"/><path d="M -42.06,-81.94 a48,48 0 0 1 -33.94,81.94" style="stroke-dasharray: 10, 8; stroke: red; stroke-width: 3px; fill: none; "/><path d="M -76,-96 m -11.3,-23.45 l 10.74,6.45 l -6.93,4 z" style="stroke: black; stroke-width: 2px; fill: black;"/><path d="M -76,-96 m -11.3,-23.45 a 30,30 0 0 1 7.28,38.45 " style="stroke: black; stroke-width: 3px; fill: none;"/><text style="font-family: Arial, Sans; font-size: 20px; font-weight: bold; fill: red;" text-anchor="middle" x="-76" y="-129">4</text><path d="M -76,0 l -72,0" style="stroke-dasharray: 10, 8; stroke: red; stroke-width: 3px; fill: none; " class="line" id="figure-2-exit"/><path d="M -148,0 l 0,-10 l 0,20" style="stroke: black; stroke-width: 3px; fill: none;"/></g></g></svg>