<?xml version="1.0" standalone="no"?>
<!DOCTYPE svg PUBLIC "-//W3C//DTD SVG 1.2//EN" "http://www.w3.org/Graphics/SVG/1.2/DTD/svg12.dtd">
<svg xmlns="http://www.w3.org/2000/svg" version="1.2" baseProfile="tiny" id="selectedFigureSvg" width="100px" height="100px" viewBox="-145.66 -109.92 190.56 205.66"><g id="sequence"><g id="figure-2"><path d="M 0,0 m -4,0 a4,4 0 1 1 0,0.01" style="stroke: black; stroke-width: 1px; fill: black;"/><path d="M -4,0 l -133,0" style="stroke-dasharray: 10, 8; stroke: red; stroke-width: 3px; fill: none; " class="line" id="figure-2-entry"/><path d="M -137,0 l 44.55,-44.55" style="stroke: black; stroke-width: 3px; fill: none;" class="line" id="figure-2-roll0-gap0"/><path d="M -92.45,-44.55 m 17.5,17.5 l 8.49,-8.49 " style="stroke: black; stroke-width: 3px; fill: none;"/><path d="M -92.45,-44.55 m 16.97,16.97 l -8.49,-25.46 l -16.97,16.97 z" style="stroke: black; stroke-width: 1.5px; fill: white;"/><path d="M -86.09,-50.91 l 9.9,-9.9" style="stroke-dasharray: 10, 8; stroke: red; stroke-width: 3px; fill: none; " class="line" id="figure-2-roll0-gap1"/><path d="M -76.19,-60.81 m -24.57,-8.6 l 12.16,-3.03 l -2.07,7.73 z" style="stroke: black; stroke-width: 2px; fill: black;"/><path d="M -76.19,-60.81 m -24.57,-8.6 a 30,30 0 0 1 24.57,8.6 " style="stroke: black; stroke-width: 3px; fill: none;"/><text style="font-family: Arial, Sans; font-size: 20px; font-weight: bold; fill: red;" text-anchor="middle" x="-109.53" y="-82.09">2x4</text><path d="M -76.19,-60.81 l 39.6,-39.6" style="stroke: black; stroke-width: 3px; fill: none;" class="line" id="figure-2-roll0-gap2"/><path d="M -36.59,-100.41 l 0,140" style="stroke-dasharray: 10, 8; stroke: red; stroke-width: 3px; fill: none; " class="line" id="figure-2-roll1-gap0"/><path d="M -36.59,39.59 m 24.75,0 l 0,12 " style="stroke: black; stroke-width: 3px; fill: none;"/><path d="M -36.59,39.59 m 24,0 l -24,12 l 0,-24 z" style="stroke: black; stroke-width: 1.5px; fill: red;"/><text style="font-family: Arial, Sans; font-size: 20px; font-weight: bold; fill: red;" text-anchor="middle" x="22.34" y="55.59">3/4</text><path d="M -36.59,48.59 l 0,28" style="stroke-dasharray: 10, 8; stroke: red; stroke-width: 3px; fill: none; " class="line" id="figure-2-roll1-gap1"/><path d="M -36.59,76.59 l 16.97,9.8" style="stroke-dasharray: 10, 8; stroke: red; stroke-width: 3px; fill: none; " class="line" id="figure-2-exit"/><path d="M -19.62,86.39 l -10,0 l 20,0" style="stroke: black; stroke-width: 3px; fill: none;"/></g></g></svg>