<?xml version="1.0" encoding="UTF-8" standalone="no"?>
<!-- Created with Inkscape (http://www.inkscape.org/) -->

<svg
   width="17.919352mm"
   height="17.919357mm"
   viewBox="0 0 17.919351 17.919354"
   version="1.1"
   id="svg15577"
   inkscape:version="1.2.2 (732a01da63, 2022-12-09)"
   sodipodi:docname="7.svg"
   xml:space="preserve"
   xmlns:inkscape="http://www.inkscape.org/namespaces/inkscape"
   xmlns:sodipodi="http://sodipodi.sourceforge.net/DTD/sodipodi-0.dtd"
   xmlns="http://www.w3.org/2000/svg"
   xmlns:svg="http://www.w3.org/2000/svg"><sodipodi:namedview
     id="namedview15579"
     pagecolor="#ffffff"
     bordercolor="#000000"
     borderopacity="0.25"
     inkscape:showpageshadow="2"
     inkscape:pageopacity="0.0"
     inkscape:pagecheckerboard="true"
     inkscape:deskcolor="#d1d1d1"
     inkscape:document-units="mm"
     showgrid="false"
     showborder="false"
     inkscape:zoom="2.9825758"
     inkscape:cx="205.86233"
     inkscape:cy="80.13208"
     inkscape:window-width="1920"
     inkscape:window-height="1017"
     inkscape:window-x="1912"
     inkscape:window-y="-8"
     inkscape:window-maximized="1"
     inkscape:current-layer="layer1" /><defs
     id="defs15574" /><g
     inkscape:label="Layer 1"
     inkscape:groupmode="layer"
     id="layer1"
     transform="translate(-32.938686,-75.350967)"><g
       id="g15014"
       transform="matrix(0.26458333,0,0,0.26458333,49.253236,55.298379)" /><g
       id="g13720"
       transform="matrix(0.26458333,0,0,0.26458333,18.006939,-99.253542)" /><g
       id="g18168"
       transform="matrix(0.26458333,0,0,0.26458333,27.213146,49.421226)" /><g
       id="g32904"
       transform="matrix(0.26458333,0,0,0.26458333,11.111447,-96.635097)"><path
         d="m 92.959999,659.03998 39.360011,0.16003"
         style="fill:none;stroke:#ff0000;stroke-width:0.96;stroke-linecap:round;stroke-linejoin:round;stroke-miterlimit:10;stroke-dasharray:2.88, 2.88;stroke-dashoffset:0;stroke-opacity:1"
         id="path32906" /></g><g
       id="g32908"
       transform="matrix(0.26458333,0,0,0.26458333,35.707113,77.735896)"><path
         d="m 0,0 c 0,0.96 -0.8,1.92 -1.92,1.92 -0.96,0 -1.92,-0.96 -1.92,-1.92 0,-1.12 0.96,-1.92 1.92,-1.92 C -0.8,-1.92 0,-1.12 0,0 Z"
         style="fill:#000000;fill-opacity:1;fill-rule:evenodd;stroke:none"
         id="path32910" /></g><g
       id="g32912"
       transform="matrix(0.26458333,0,0,0.26458333,35.707113,77.735896)"><path
         d="m 0,0 c 0,0.96 -0.8,1.92 -1.92,1.92 -0.96,0 -1.92,-0.96 -1.92,-1.92 0,-1.12 0.96,-1.92 1.92,-1.92 C -0.8,-1.92 0,-1.12 0,0 Z"
         style="fill:none;stroke:#000000;stroke-width:0.96;stroke-linecap:round;stroke-linejoin:round;stroke-miterlimit:10;stroke-dasharray:none;stroke-opacity:1"
         id="path32914" /></g><g
       id="g32916"
       transform="matrix(0.26458333,0,0,0.26458333,11.111447,-96.635097)"><path
         d="M 102.08,704.47998 V 712"
         style="fill:none;stroke:#000000;stroke-width:0.96;stroke-linecap:round;stroke-linejoin:round;stroke-miterlimit:10;stroke-dasharray:none;stroke-opacity:1"
         id="path32918" /></g><g
       id="g32920"
       transform="matrix(0.26458333,0,0,0.26458333,11.111447,-96.635097)"><path
         d="m 132.32001,659.20001 v 49.12"
         style="fill:none;stroke:#000000;stroke-width:0.96;stroke-linecap:round;stroke-linejoin:round;stroke-miterlimit:10;stroke-dasharray:none;stroke-opacity:1"
         id="path32922" /></g><g
       id="g32924"
       transform="matrix(0.26458333,0,0,0.26458333,11.111447,-96.635097)"><path
         d="M 132.32001,708.32001 H 102.08"
         style="fill:none;stroke:#000000;stroke-width:0.96;stroke-linecap:round;stroke-linejoin:round;stroke-miterlimit:10;stroke-dasharray:none;stroke-opacity:1"
         id="path32926" /></g><g
       id="g32928"
       transform="matrix(0.26458333,0,0,0.26458333,11.111447,-96.635097)"><path
         d="m 92.959999,659.03998 39.360011,0.16003"
         style="fill:none;stroke:#ff0000;stroke-width:0.96;stroke-linecap:round;stroke-linejoin:round;stroke-miterlimit:10;stroke-dasharray:2.88, 2.88;stroke-dashoffset:0;stroke-opacity:1"
         id="path32930" /></g><g
       id="g32932"
       transform="matrix(0.26458333,0,0,0.26458333,35.707113,77.735896)"><path
         d="m 0,0 c 0,0.96 -0.8,1.92 -1.92,1.92 -0.96,0 -1.92,-0.96 -1.92,-1.92 0,-1.12 0.96,-1.92 1.92,-1.92 C -0.8,-1.92 0,-1.12 0,0 Z"
         style="fill:#000000;fill-opacity:1;fill-rule:evenodd;stroke:none"
         id="path32934" /></g><g
       id="g32936"
       transform="matrix(0.26458333,0,0,0.26458333,35.707113,77.735896)"><path
         d="m 0,0 c 0,0.96 -0.8,1.92 -1.92,1.92 -0.96,0 -1.92,-0.96 -1.92,-1.92 0,-1.12 0.96,-1.92 1.92,-1.92 C -0.8,-1.92 0,-1.12 0,0 Z"
         style="fill:none;stroke:#000000;stroke-width:0.96;stroke-linecap:round;stroke-linejoin:round;stroke-miterlimit:10;stroke-dasharray:none;stroke-opacity:1"
         id="path32938" /></g><g
       id="g32940"
       transform="matrix(0.26458333,0,0,0.26458333,11.111447,-96.635097)"><path
         d="M 102.08,704.47998 V 712"
         style="fill:none;stroke:#000000;stroke-width:0.96;stroke-linecap:round;stroke-linejoin:round;stroke-miterlimit:10;stroke-dasharray:none;stroke-opacity:1"
         id="path32942" /></g><g
       id="g32944"
       transform="matrix(0.26458333,0,0,0.26458333,11.111447,-96.635097)"><path
         d="m 132.32001,659.20001 v 49.12"
         style="fill:none;stroke:#000000;stroke-width:0.96;stroke-linecap:round;stroke-linejoin:round;stroke-miterlimit:10;stroke-dasharray:none;stroke-opacity:1"
         id="path32946" /></g><g
       id="g32948"
       transform="matrix(0.26458333,0,0,0.26458333,11.111447,-96.635097)"><path
         d="M 132.32001,708.32001 H 102.08"
         style="fill:none;stroke:#000000;stroke-width:0.96;stroke-linecap:round;stroke-linejoin:round;stroke-miterlimit:10;stroke-dasharray:none;stroke-opacity:1"
         id="path32950" /></g><g
       id="g32952"
       transform="matrix(0.26458333,0,0,0.26458333,48.661113,79.471562)"><path
         d="M 0,0 V -3.68 H -16.959999 V 4.8 L 0,-3.68 Z M 0,4.8 V 0.96 h -9.44 v 4.8 L 0,0.96 Z"
         style="fill:#ff0000;fill-opacity:1;fill-rule:evenodd;stroke:none"
         id="path32954" /></g><g
       id="g32956"
       transform="matrix(0.26458333,0,0,0.26458333,11.111447,-96.635097)"><path
         d="m 141.92,665.59998 v -3.68 h -16.96 v 8.48004 l 16.96,-8.48004"
         style="fill:none;stroke:#000000;stroke-width:0.48;stroke-linecap:round;stroke-linejoin:round;stroke-miterlimit:10;stroke-dasharray:none;stroke-opacity:1"
         id="path32958" /></g><g
       id="g32960"
       transform="matrix(0.26458333,0,0,0.26458333,11.111447,-96.635097)"><path
         d="M 141.92,670.40002 V 666.56 h -9.44 v 4.79998 l 9.44,-4.79998"
         style="fill:none;stroke:#000000;stroke-width:0.48;stroke-linecap:round;stroke-linejoin:round;stroke-miterlimit:10;stroke-dasharray:none;stroke-opacity:1"
         id="path32962" /></g><g
       id="g32964"
       transform="matrix(0.26458333,0,0,0.26458333,11.111447,-96.635097)"><path
         d="m 143.84,661.91998 v 8.48004"
         style="fill:none;stroke:#000000;stroke-width:0.48;stroke-linecap:round;stroke-linejoin:round;stroke-miterlimit:10;stroke-dasharray:none;stroke-opacity:1"
         id="path32966" /></g><g
       id="g32968"
       transform="matrix(0.26458333,0,0,0.26458333,11.111447,-96.635097)"><path
         d="m 122.88,680.15997 2.24,3.84003 1.92,-3.03998 z"
         style="fill:#000000;fill-opacity:1;fill-rule:evenodd;stroke:none"
         id="path32970" /></g><g
       id="g32972"
       transform="matrix(0.26458333,0,0,0.26458333,11.111447,-96.635097)"><path
         d="M 132.32001,684 C 128.8,683.84003 125.44,682.40002 122.88,680.15997"
         style="fill:none;stroke:#000000;stroke-width:0.48;stroke-linecap:butt;stroke-linejoin:miter;stroke-miterlimit:2;stroke-dasharray:none;stroke-opacity:1"
         id="path32974" /></g><g
       id="g32976"
       transform="matrix(0.26458333,0,0,0.26458333,11.111447,-96.635097)"><path
         d="m 122.88,680.15997 2.24,3.84003 1.92,-3.03998 z"
         style="fill:none;stroke:#000000;stroke-width:0.48;stroke-linecap:butt;stroke-linejoin:miter;stroke-miterlimit:2;stroke-dasharray:none;stroke-opacity:1"
         id="path32978" /></g><g
       id="g32980"
       transform="matrix(0.00542607,0,0,0.00542607,11.111447,-96.635097)"><text
         xml:space="preserve"
         transform="translate(5750.0801,33735.398)"
         style="font-variant:normal;font-weight:normal;font-size:327.68px;font-family:F4;-inkscape-font-specification:F4;writing-mode:lr-tb;fill:#ff0000;fill-opacity:1;fill-rule:nonzero;stroke:none"
         id="text32984"><tspan
           x="0 163.84 311.29599"
           y="0"
           sodipodi:role="line"
           id="tspan32982">2x4</tspan></text></g><g
       id="g32986"
       transform="matrix(0.26458333,0,0,0.26458333,11.111447,-96.635097)"><path
         d="m 122.88,680.15997 2.24,3.84003 1.92,-3.03998 z"
         style="fill:#000000;fill-opacity:1;fill-rule:evenodd;stroke:none"
         id="path32988" /></g><g
       id="g32990"
       transform="matrix(0.26458333,0,0,0.26458333,11.111447,-96.635097)"><path
         d="M 132.32001,684 C 128.8,683.84003 125.44,682.40002 122.88,680.15997"
         style="fill:none;stroke:#000000;stroke-width:0.48;stroke-linecap:butt;stroke-linejoin:miter;stroke-miterlimit:2;stroke-dasharray:none;stroke-opacity:1"
         id="path32992" /></g><g
       id="g32994"
       transform="matrix(0.26458333,0,0,0.26458333,11.111447,-96.635097)"><path
         d="m 122.88,680.15997 2.24,3.84003 1.92,-3.03998 z"
         style="fill:none;stroke:#000000;stroke-width:0.48;stroke-linecap:butt;stroke-linejoin:miter;stroke-miterlimit:2;stroke-dasharray:none;stroke-opacity:1"
         id="path32996" /></g><g
       id="g32998"
       transform="matrix(0.00542607,0,0,0.00542607,11.111447,-96.635097)"><text
         xml:space="preserve"
         transform="translate(5750.0801,33735.398)"
         style="font-variant:normal;font-weight:normal;font-size:327.68px;font-family:F4;-inkscape-font-specification:F4;writing-mode:lr-tb;fill:#ff0000;fill-opacity:1;fill-rule:nonzero;stroke:none"
         id="text33002"><tspan
           x="0 163.84 311.29599"
           y="0"
           sodipodi:role="line"
           id="tspan33000">2x4</tspan></text></g></g></svg>
