<?xml version="1.0" standalone="no"?>
<!DOCTYPE svg PUBLIC "-//W3C//DTD SVG 1.2//EN" "http://www.w3.org/Graphics/SVG/1.2/DTD/svg12.dtd">
<svg xmlns="http://www.w3.org/2000/svg" version="1.2" baseProfile="tiny" id="selectedFigureSvg" width="100px" height="100px" viewBox="-69.62 -118.95 174.56 303.54"><g id="sequence"><g id="figure-2"><path d="M 0,0 m -4,0 a4,4 0 1 1 0,0.01" style="stroke: black; stroke-width: 1px; fill: black;"/><path d="M 3.46,2 l 29.1,16.8" style="stroke-dasharray: 10, 8; stroke: red; stroke-width: 3px; fill: none; " class="line" id="figure-2-entry"/><path d="M 32.56,18.8 l 0,-56" style="stroke-dasharray: 10, 8; stroke: red; stroke-width: 3px; fill: none; " class="line" id="figure-2-roll0-gap0"/><path d="M 32.56,-37.2 m 23.45,11.3 l -6.45,-10.74 l -4,6.93 z" style="stroke: black; stroke-width: 2px; fill: black;"/><path d="M 32.56,-37.2 m 23.45,11.3 a 30,30 0 0 0 -23.45,-11.3 " style="stroke: black; stroke-width: 3px; fill: none;"/><text style="font-family: Arial, Sans; font-size: 20px; font-weight: bold; fill: red;" text-anchor="middle" x="79.7" y="-30.2">4x8</text><path d="M 32.56,-37.2 l 0,-24" style="stroke-dasharray: 10, 8; stroke: red; stroke-width: 3px; fill: none; " class="line" id="figure-2-roll0-gap1"/><path d="M 32.56,-61.2 a17.89,34.72 -14.67 0 0 -38.8,-22.4" style="stroke: black; stroke-width: 3px; fill: none;"/><path d="M -6.24,-83.6 l 0,160" style="stroke: black; stroke-width: 3px; fill: none;" class="line" id="figure-2-roll1-gap0"/><path d="M -6.24,76.4 m 24.75,0 l 0,12 " style="stroke: black; stroke-width: 3px; fill: none;"/><path d="M -6.24,76.4 m 24,0 l -36,14.4 l 0,-28.8 z" style="stroke: black; stroke-width: 1.5px; fill: white;"/><text style="font-family: Arial, Sans; font-size: 20px; font-weight: bold; fill: red;" text-anchor="middle" x="57.69" y="92.4">1/4</text><path d="M -6.24,85.4 l 0,20.4" style="stroke: black; stroke-width: 3px; fill: none;" class="line"/><path d="M -6.24,105.8 m 28.8,12 l 0,-44.4" style="stroke: black; stroke-width: 3px; fill: none;"/><path d="M -6.24,105.8 m 24.75,0 l 0,12 " style="stroke: black; stroke-width: 3px; fill: none;"/><path d="M -6.24,105.8 m 24,0 l -24,12 l 0,-24 z" style="stroke: black; stroke-width: 1.5px; fill: white;"/><path d="M -6.24,114.8 l 0,40" style="stroke: black; stroke-width: 3px; fill: none;" class="line" id="figure-2-roll1-gap1"/><path d="M -6.24,154.8 a16,16 0 0 1 -32,0" style="stroke: black; stroke-width: 3px; fill: none;"/><path d="M -38.24,154.8 l 0,-56" style="stroke: black; stroke-width: 3px; fill: none;" class="line" id="figure-2-roll2-gap0"/><path d="M -38.24,98.8 m -23.45,11.3 l 6.45,-10.74 l 4,6.93 z" style="stroke: black; stroke-width: 2px; fill: black;"/><path d="M -38.24,98.8 m -23.45,11.3 a 30,30 0 0 1 38.45,-7.28 " style="stroke: black; stroke-width: 3px; fill: none;"/><path d="M -38.24,98.8 l 0,-48" style="stroke: black; stroke-width: 3px; fill: none;" class="line" id="figure-2-roll2-gap1"/><path d="M -38.24,50.8 l 48,0" style="stroke-dasharray: 10, 8; stroke: red; stroke-width: 3px; fill: none; " class="line" id="figure-2-exit"/><path d="M 9.76,50.8 l 0,10 l 0,-20" style="stroke: black; stroke-width: 3px; fill: none;"/></g></g></svg>