<?xml version="1.0" encoding="UTF-8" standalone="no"?>
<!-- Created with Inkscape (http://www.inkscape.org/) -->

<svg
   width="21.290321mm"
   height="13.572577mm"
   viewBox="0 0 21.290321 13.572575"
   version="1.1"
   id="svg15577"
   inkscape:version="1.2.2 (732a01da63, 2022-12-09)"
   sodipodi:docname="8.svg"
   xml:space="preserve"
   xmlns:inkscape="http://www.inkscape.org/namespaces/inkscape"
   xmlns:sodipodi="http://sodipodi.sourceforge.net/DTD/sodipodi-0.dtd"
   xmlns="http://www.w3.org/2000/svg"
   xmlns:svg="http://www.w3.org/2000/svg"><sodipodi:namedview
     id="namedview15579"
     pagecolor="#ffffff"
     bordercolor="#000000"
     borderopacity="0.25"
     inkscape:showpageshadow="2"
     inkscape:pageopacity="0.0"
     inkscape:pagecheckerboard="true"
     inkscape:deskcolor="#d1d1d1"
     inkscape:document-units="mm"
     showgrid="false"
     showborder="false"
     inkscape:zoom="2.9825758"
     inkscape:cx="141.15316"
     inkscape:cy="30.845822"
     inkscape:window-width="1920"
     inkscape:window-height="1017"
     inkscape:window-x="1912"
     inkscape:window-y="-8"
     inkscape:window-maximized="1"
     inkscape:current-layer="layer1" /><defs
     id="defs15574" /><g
     inkscape:label="Layer 1"
     inkscape:groupmode="layer"
     id="layer1"
     transform="translate(-50.059654,-88.391289)"><g
       id="g15014"
       transform="matrix(0.26458333,0,0,0.26458333,49.253236,55.298379)" /><g
       id="g13720"
       transform="matrix(0.26458333,0,0,0.26458333,18.006939,-99.253542)" /><g
       id="g18168"
       transform="matrix(0.26458333,0,0,0.26458333,27.213146,49.421226)" /><g
       id="g32662"
       transform="matrix(0.26458333,0,0,0.26458333,30.11423,-104.76778)"><path
         d="M 117.44,753.44 103.52,739.52002"
         style="fill:none;stroke:#ff0000;stroke-width:0.96;stroke-linecap:round;stroke-linejoin:round;stroke-miterlimit:10;stroke-dasharray:2.88, 2.88;stroke-dashoffset:0;stroke-opacity:1"
         id="path32664" /></g><g
       id="g32666"
       transform="matrix(0.26458333,0,0,0.26458333,30.11423,-104.76778)"><path
         d="M 94.400002,761.59998 H 94.239998"
         style="fill:none;stroke:#ff0000;stroke-width:0.96;stroke-linecap:round;stroke-linejoin:round;stroke-miterlimit:10;stroke-dasharray:2.88, 2.88;stroke-dashoffset:0;stroke-opacity:1"
         id="path32668" /></g><g
       id="g32670"
       transform="matrix(0.26458333,0,0,0.26458333,68.552896,99.490551)"><path
         d="M 0,0 C 0,1.12 0.96,1.92 1.92,1.92 3.04,1.92 3.84,1.12 3.84,0 3.84,-0.96 3.04,-1.92 1.92,-1.92 0.96,-1.92 0,-0.96 0,0 Z"
         style="fill:#000000;fill-opacity:1;fill-rule:evenodd;stroke:none"
         id="path32672" /></g><g
       id="g32674"
       transform="matrix(0.26458333,0,0,0.26458333,68.552896,99.490551)"><path
         d="M 0,0 C 0,1.12 0.96,1.92 1.92,1.92 3.04,1.92 3.84,1.12 3.84,0 3.84,-0.96 3.04,-1.92 1.92,-1.92 0.96,-1.92 0,-0.96 0,0 Z"
         style="fill:none;stroke:#000000;stroke-width:0.96;stroke-linecap:round;stroke-linejoin:round;stroke-miterlimit:10;stroke-dasharray:none;stroke-opacity:1"
         id="path32676" /></g><g
       id="g32678"
       transform="matrix(0.26458333,0,0,0.26458333,30.11423,-104.76778)"><path
         d="m 142.72,765.44 v -7.52002"
         style="fill:none;stroke:#000000;stroke-width:0.96;stroke-linecap:round;stroke-linejoin:round;stroke-miterlimit:10;stroke-dasharray:none;stroke-opacity:1"
         id="path32680" /></g><g
       id="g32682"
       transform="matrix(0.26458333,0,0,0.26458333,30.11423,-104.76778)"><path
         d="M 145.28,772 H 136"
         style="fill:none;stroke:#000000;stroke-width:0.96;stroke-linecap:round;stroke-linejoin:round;stroke-miterlimit:10;stroke-dasharray:none;stroke-opacity:1"
         id="path32684" /></g><g
       id="g32686"
       transform="matrix(0.26458333,0,0,0.26458333,30.11423,-104.76778)"><path
         d="M 136,772 117.44,753.44"
         style="fill:none;stroke:#000000;stroke-width:0.96;stroke-linecap:round;stroke-linejoin:round;stroke-miterlimit:10;stroke-dasharray:none;stroke-opacity:1"
         id="path32688" /></g><g
       id="g32690"
       transform="matrix(0.26458333,0,0,0.26458333,57.503896,90.896889)"><path
         d="m 0,0 c -4.96,-4.96 -13.12,-4.96 -18.24,0 -5.120001,5.12 -5.120001,13.28 0,18.4 2.4,2.399999 5.76,3.68 9.12,3.68"
         style="fill:none;stroke:#000000;stroke-width:0.96;stroke-linecap:round;stroke-linejoin:round;stroke-miterlimit:10;stroke-dasharray:none;stroke-opacity:1"
         id="path32692" /></g><g
       id="g32694"
       transform="matrix(0.26458333,0,0,0.26458333,30.11423,-104.76778)"><path
         d="M 94.239998,761.59998 H 142.72"
         style="fill:none;stroke:#000000;stroke-width:0.96;stroke-linecap:round;stroke-linejoin:round;stroke-miterlimit:10;stroke-dasharray:none;stroke-opacity:1"
         id="path32696" /></g><g
       id="g32698"
       transform="matrix(0.26458333,0,0,0.26458333,30.11423,-104.76778)"><path
         d="M 117.44,753.44 103.52,739.52002"
         style="fill:none;stroke:#ff0000;stroke-width:0.96;stroke-linecap:round;stroke-linejoin:round;stroke-miterlimit:10;stroke-dasharray:2.88, 2.88;stroke-dashoffset:0;stroke-opacity:1"
         id="path32700" /></g><g
       id="g32702"
       transform="matrix(0.26458333,0,0,0.26458333,30.11423,-104.76778)"><path
         d="M 94.400002,761.59998 H 94.239998"
         style="fill:none;stroke:#ff0000;stroke-width:0.96;stroke-linecap:round;stroke-linejoin:round;stroke-miterlimit:10;stroke-dasharray:2.88, 2.88;stroke-dashoffset:0;stroke-opacity:1"
         id="path32704" /></g><g
       id="g32706"
       transform="matrix(0.26458333,0,0,0.26458333,68.552896,99.490551)"><path
         d="M 0,0 C 0,1.12 0.96,1.92 1.92,1.92 3.04,1.92 3.84,1.12 3.84,0 3.84,-0.96 3.04,-1.92 1.92,-1.92 0.96,-1.92 0,-0.96 0,0 Z"
         style="fill:#000000;fill-opacity:1;fill-rule:evenodd;stroke:none"
         id="path32708" /></g><g
       id="g32710"
       transform="matrix(0.26458333,0,0,0.26458333,68.552896,99.490551)"><path
         d="M 0,0 C 0,1.12 0.96,1.92 1.92,1.92 3.04,1.92 3.84,1.12 3.84,0 3.84,-0.96 3.04,-1.92 1.92,-1.92 0.96,-1.92 0,-0.96 0,0 Z"
         style="fill:none;stroke:#000000;stroke-width:0.96;stroke-linecap:round;stroke-linejoin:round;stroke-miterlimit:10;stroke-dasharray:none;stroke-opacity:1"
         id="path32712" /></g><g
       id="g32714"
       transform="matrix(0.26458333,0,0,0.26458333,30.11423,-104.76778)"><path
         d="m 142.72,765.44 v -7.52002"
         style="fill:none;stroke:#000000;stroke-width:0.96;stroke-linecap:round;stroke-linejoin:round;stroke-miterlimit:10;stroke-dasharray:none;stroke-opacity:1"
         id="path32716" /></g><g
       id="g32718"
       transform="matrix(0.26458333,0,0,0.26458333,30.11423,-104.76778)"><path
         d="M 145.28,772 H 136"
         style="fill:none;stroke:#000000;stroke-width:0.96;stroke-linecap:round;stroke-linejoin:round;stroke-miterlimit:10;stroke-dasharray:none;stroke-opacity:1"
         id="path32720" /></g><g
       id="g32722"
       transform="matrix(0.26458333,0,0,0.26458333,30.11423,-104.76778)"><path
         d="M 136,772 117.44,753.44"
         style="fill:none;stroke:#000000;stroke-width:0.96;stroke-linecap:round;stroke-linejoin:round;stroke-miterlimit:10;stroke-dasharray:none;stroke-opacity:1"
         id="path32724" /></g><g
       id="g32726"
       transform="matrix(0.26458333,0,0,0.26458333,57.503896,90.896889)"><path
         d="m 0,0 c -4.96,-4.96 -13.12,-4.96 -18.24,0 -5.120001,5.12 -5.120001,13.28 0,18.4 2.4,2.399999 5.76,3.68 9.12,3.68"
         style="fill:none;stroke:#000000;stroke-width:0.96;stroke-linecap:round;stroke-linejoin:round;stroke-miterlimit:10;stroke-dasharray:none;stroke-opacity:1"
         id="path32728" /></g><g
       id="g32730"
       transform="matrix(0.26458333,0,0,0.26458333,30.11423,-104.76778)"><path
         d="M 94.239998,761.59998 H 142.72"
         style="fill:none;stroke:#000000;stroke-width:0.96;stroke-linecap:round;stroke-linejoin:round;stroke-miterlimit:10;stroke-dasharray:none;stroke-opacity:1"
         id="path32732" /></g><g
       id="g32734"
       transform="matrix(0.26458333,0,0,0.26458333,30.11423,-104.76778)"><path
         d="m 92.800003,769.44 2.879997,-1.91998 -2.400001,-1.44 z"
         style="fill:#000000;fill-opacity:1;fill-rule:evenodd;stroke:none"
         id="path32736" /></g><g
       id="g32738"
       transform="matrix(0.26458333,0,0,0.26458333,30.11423,-104.76778)"><path
         d="m 93.599998,756.15997 c 1.279999,1.60004 2.080002,3.68006 2.080002,5.92005 -0.160003,2.71997 -1.120002,5.27996 -2.879997,7.35998"
         style="fill:none;stroke:#000000;stroke-width:0.48;stroke-linecap:butt;stroke-linejoin:miter;stroke-miterlimit:2;stroke-dasharray:none;stroke-opacity:1"
         id="path32740" /></g><g
       id="g32742"
       transform="matrix(0.26458333,0,0,0.26458333,30.11423,-104.76778)"><path
         d="m 92.800003,769.44 2.879997,-1.91998 -2.400001,-1.44 z"
         style="fill:none;stroke:#000000;stroke-width:0.48;stroke-linecap:butt;stroke-linejoin:miter;stroke-miterlimit:2;stroke-dasharray:none;stroke-opacity:1"
         id="path32744" /></g><g
       id="g32746"
       transform="matrix(0.00426323,0,0,0.00426323,30.11423,-104.76778)"><text
         xml:space="preserve"
         transform="translate(5391.8398,47851.199)"
         style="font-variant:normal;font-weight:normal;font-size:327.68px;font-family:F1;-inkscape-font-specification:F1;writing-mode:lr-tb;fill:#ff0000;fill-opacity:1;fill-rule:nonzero;stroke:none"
         id="text32750"><tspan
           x="0"
           y="0"
           id="tspan32748">8</tspan></text></g><g
       id="g32752"
       transform="matrix(0.26458333,0,0,0.26458333,30.11423,-104.76778)"><path
         d="m 120.32,748.15997 2.08,2.08002 -3.84,10.72003 -6.88,-6.72003 10.72,-4 z"
         style="fill:#ffffff;fill-opacity:1;fill-rule:evenodd;stroke:none"
         id="path32754" /></g><g
       id="g32756"
       transform="matrix(0.26458333,0,0,0.26458333,30.11423,-104.76778)"><path
         d="m 120.32,748.15997 2.08,2.08002 -3.84,10.72003 -6.88,-6.72003 10.72,-4"
         style="fill:none;stroke:#000000;stroke-width:0.48;stroke-linecap:round;stroke-linejoin:round;stroke-miterlimit:10;stroke-dasharray:none;stroke-opacity:1"
         id="path32758" /></g><g
       id="g32760"
       transform="matrix(0.26458333,0,0,0.26458333,30.11423,-104.76778)"><path
         d="m 120.16,745.59998 -3.36,-0.63996 0.64,2.71997 z"
         style="fill:#000000;fill-opacity:1;fill-rule:evenodd;stroke:none"
         id="path32762" /></g><g
       id="g32764"
       transform="matrix(0.26458333,0,0,0.26458333,30.11423,-104.76778)"><path
         d="m 112.8,748.79999 c 2.08,-1.76001 4.64,-2.88001 7.36,-3.20001"
         style="fill:none;stroke:#000000;stroke-width:0.48;stroke-linecap:butt;stroke-linejoin:miter;stroke-miterlimit:2;stroke-dasharray:none;stroke-opacity:1"
         id="path32766" /></g><g
       id="g32768"
       transform="matrix(0.26458333,0,0,0.26458333,30.11423,-104.76778)"><path
         d="m 120.16,745.59998 -3.36,-0.63996 0.64,2.71997 z"
         style="fill:none;stroke:#000000;stroke-width:0.48;stroke-linecap:butt;stroke-linejoin:miter;stroke-miterlimit:2;stroke-dasharray:none;stroke-opacity:1"
         id="path32770" /></g><g
       id="g32772"
       transform="matrix(0.26458333,0,0,0.26458333,30.11423,-104.76778)"><path
         d="m 120.16,745.59998 -3.36,-0.63996 0.64,2.71997 z"
         style="fill:#000000;fill-opacity:1;fill-rule:evenodd;stroke:none"
         id="path32774" /></g><g
       id="g32776"
       transform="matrix(0.26458333,0,0,0.26458333,30.11423,-104.76778)"><path
         d="m 112.8,748.79999 c 2.08,-1.76001 4.64,-2.88001 7.36,-3.20001"
         style="fill:none;stroke:#000000;stroke-width:0.48;stroke-linecap:butt;stroke-linejoin:miter;stroke-miterlimit:2;stroke-dasharray:none;stroke-opacity:1"
         id="path32778" /></g><g
       id="g32780"
       transform="matrix(0.26458333,0,0,0.26458333,30.11423,-104.76778)"><path
         d="m 120.16,745.59998 -3.36,-0.63996 0.64,2.71997 z"
         style="fill:none;stroke:#000000;stroke-width:0.48;stroke-linecap:butt;stroke-linejoin:miter;stroke-miterlimit:2;stroke-dasharray:none;stroke-opacity:1"
         id="path32782" /></g></g></svg>
