<?xml version="1.0" standalone="no"?>
<!DOCTYPE svg PUBLIC "-//W3C//DTD SVG 1.2//EN" "http://www.w3.org/Graphics/SVG/1.2/DTD/svg12.dtd">
<svg xmlns="http://www.w3.org/2000/svg" version="1.2" baseProfile="tiny" id="selectedFigureSvg" width="100px" height="100px" viewBox="-82.52 -32.79 103.95 211.39"><g id="sequence"><g id="figure-2"><path d="M 0,0 m -4,0 a4,4 0 1 1 0,0.01" style="stroke: black; stroke-width: 1px; fill: black;"/><path d="M -4,0 l -45,0" style="stroke-dasharray: 10, 8; stroke: red; stroke-width: 3px; fill: none; " class="line" id="figure-2-entry"/><path d="M -49,0 l 0,5" style="stroke: black; stroke-width: 3px; fill: none;" class="line" id="figure-2-roll1-gap0"/><path d="M -49,5 m -23.25,0 l 0,12 " style="stroke: black; stroke-width: 3px; fill: none;"/><path d="M -49,5 m -24,0 l 36,18 l 0,-18 z" style="stroke: black; stroke-width: 1.5px; fill: red;"/><path d="M -49,17 l 0,5" style="stroke: black; stroke-width: 3px; fill: none;" class="line"/><path d="M -49,22 m -28.8,12 l 0,-29" style="stroke: black; stroke-width: 3px; fill: none;"/><path d="M -49,22 m -23.25,0 l 0,12 " style="stroke: black; stroke-width: 3px; fill: none;"/><path d="M -49,22 m -24,0 l 24,12 l 0,-12 z" style="stroke: black; stroke-width: 1.5px; fill: red;"/><path d="M -49,34 l 0,10" style="stroke: black; stroke-width: 3px; fill: none;" class="line" id="figure-2-roll1-gap1"/><path d="M -49,44 m 23.45,-11.3 l -6.45,10.74 l -4,-6.93 z" style="stroke: black; stroke-width: 2px; fill: black;"/><path d="M -49,44 m 23.45,-11.3 a 30,30 0 0 1 -23.45,11.3 " style="stroke: black; stroke-width: 3px; fill: none;"/><text style="font-family: Arial, Sans; font-size: 20px; font-weight: bold; fill: red;" text-anchor="middle" x="-1.86" y="51">2x4</text><path d="M -49,44 l 0,115" style="stroke: black; stroke-width: 3px; fill: none;" class="line" id="figure-2-roll1-gap2"/><path d="M -49,159 l 20,0" style="stroke: black; stroke-width: 3px; fill: none;" class="line" id="figure-2-exit"/><path d="M -29,159 l 0,-10 l 0,20" style="stroke: black; stroke-width: 3px; fill: none;"/></g></g></svg>