<?xml version="1.0" standalone="no"?>
<!DOCTYPE svg PUBLIC "-//W3C//DTD SVG 1.2//EN" "http://www.w3.org/Graphics/SVG/1.2/DTD/svg12.dtd">
<svg xmlns="http://www.w3.org/2000/svg" version="1.2" baseProfile="tiny" id="selectedFigureSvg" width="100px" height="100px" viewBox="-15.34 -111.75 212.5 121.27"><g id="sequence"><g id="figure-2"><path d="M 0,0 m -4,0 a4,4 0 1 1 0,0.01" style="stroke: black; stroke-width: 1px; fill: black;"/><path d="M 4,0 l 32,0" style="stroke: black; stroke-width: 3px; fill: none;" class="line" id="figure-2-entry"/><path d="M 36,0 l 56.57,-56.57" style="stroke: black; stroke-width: 3px; fill: none;" class="line" id="figure-2-roll0-gap0"/><path d="M 92.57,-56.57 m -17.5,-17.5 l 8.49,-8.49 " style="stroke: black; stroke-width: 3px; fill: none;"/><path d="M 92.57,-56.57 m -16.97,-16.97 l 35.64,15.27 l -20.36,20.36 z" style="stroke: black; stroke-width: 1.5px; fill: white;"/><path d="M 98.93,-62.93 l 11.31,-11.31" style="stroke: black; stroke-width: 3px; fill: none;" class="line" id="figure-2-roll0-gap1"/><path d="M 110.24,-74.24 m -24.57,-8.6 l 12.16,-3.03 l -2.07,7.73 z" style="stroke: black; stroke-width: 2px; fill: black;"/><path d="M 110.24,-74.24 m -24.57,-8.6 a 30,30 0 0 1 24.57,8.6 " style="stroke: black; stroke-width: 3px; fill: none;"/><path d="M 110.24,-74.24 l 22.63,-22.63" style="stroke-dasharray: 10, 8; stroke: red; stroke-width: 3px; fill: none; " class="line" id="figure-2-roll0-gap2"/><path d="M 132.87,-96.87 a32,32 0 1 1 22.63,54.63" style="stroke: black; stroke-width: 3px; fill: none;"/><path d="M 155.5,-42.24 l -0.16,0" style="stroke: black; stroke-width: 3px; fill: none;" class="line" id="figure-2-roll1-gap0"/><path d="M 155.34,-42.24 m 11.3,-23.45 l -10.74,6.45 l 6.93,4 z" style="stroke: black; stroke-width: 2px; fill: black;"/><path d="M 155.34,-42.24 m 11.3,-23.45 a 30,30 0 0 0 -7.28,38.45 " style="stroke: black; stroke-width: 3px; fill: none;"/><text style="font-family: Arial, Sans; font-size: 20px; font-weight: bold; fill: red;" text-anchor="middle" x="155.34" y="-75.24">8</text><path d="M 155.34,-42.24 l -152,0" style="stroke: black; stroke-width: 3px; fill: none;" class="line" id="figure-2-exit"/><path d="M 3.34,-42.24 l 0,10 l 0,-20" style="stroke: black; stroke-width: 3px; fill: none;"/></g></g></svg>