<?xml version="1.0" encoding="UTF-8" standalone="no"?>
<!-- Created with Inkscape (http://www.inkscape.org/) -->

<svg
   width="8.7762232mm"
   height="15.113mm"
   viewBox="0 0 8.7762232 15.113"
   version="1.1"
   id="svg13433"
   inkscape:version="1.2.2 (732a01da63, 2022-12-09)"
   sodipodi:docname="3.svg"
   xmlns:inkscape="http://www.inkscape.org/namespaces/inkscape"
   xmlns:sodipodi="http://sodipodi.sourceforge.net/DTD/sodipodi-0.dtd"
   xmlns="http://www.w3.org/2000/svg"
   xmlns:svg="http://www.w3.org/2000/svg">
  <sodipodi:namedview
     id="namedview13435"
     pagecolor="#ffffff"
     bordercolor="#000000"
     borderopacity="0.25"
     inkscape:showpageshadow="2"
     inkscape:pageopacity="0.0"
     inkscape:pagecheckerboard="0"
     inkscape:deskcolor="#d1d1d1"
     inkscape:document-units="mm"
     showgrid="false"
     inkscape:zoom="0.76880612"
     inkscape:cx="98.854572"
     inkscape:cy="-154.78545"
     inkscape:window-width="1920"
     inkscape:window-height="1017"
     inkscape:window-x="-8"
     inkscape:window-y="-8"
     inkscape:window-maximized="1"
     inkscape:current-layer="layer1" />
  <defs
     id="defs13430" />
  <g
     inkscape:label="Layer 1"
     inkscape:groupmode="layer"
     id="layer1"
     transform="translate(-78.895776,-189.29634)">
    <g
       id="g10399"
       transform="matrix(0.26458333,0,0,0.26458333,82.422666,189.80434)">
      <path
         d="M 0,0 V 2.88 L -0.16,3.2 -0.48,3.36 -0.8,3.2 -0.96,2.88 V 0 l 0.16,-0.32 0.32,-0.16 0.32,0.16 z M 0,5.76 V 8.64 L -0.16,8.96 -0.48,9.12 -0.8,8.96 -0.96,8.64 V 5.76 l 0.16,-0.32 0.32,-0.16 0.32,0.16 z m 0,5.76 v 2.88 l -0.16,0.32 -0.32,0.16 -0.32,-0.16 -0.16,-0.32 v -2.88 l 0.16,-0.32 0.32,-0.16 0.32,0.16 z m 0,5.760001 V 20.16 L -0.16,20.48 -0.48,20.639999 -0.8,20.48 -0.96,20.16 v -2.879999 l 0.16,-0.320002 0.32,-0.16 0.32,0.16 z m 0,5.76 V 25.92 l -0.16,0.32 -0.32,0.16 -0.32,-0.16 -0.16,-0.32 v -2.879999 l 0.16,-0.320002 0.32,-0.16 0.32,0.16 z m 0,5.759998 V 31.68 L -0.16,32 -0.48,32.16 -0.8,32 -0.96,31.68 V 28.799999 L -0.8,28.48 l 0.32,-0.16 0.32,0.16 z m 0,5.760002 v 2.879998 l -0.16,0.319999 -0.32,0.16 -0.32,-0.16 -0.16,-0.319999 v -2.879998 l 0.16,-0.319999 0.32,-0.16 0.32,0.16 z M 0,40.32 v 2.880001 L -0.16,43.52 -0.48,43.68 -0.8,43.52 -0.96,43.200001 V 40.32 L -0.8,40 -0.48,39.84 -0.16,40 Z m 0,5.760002 v 2.879997 l -0.16,0.32 -0.32,0.16 -0.32,-0.16 -0.16,-0.32 v -2.879997 l 0.16,-0.320004 0.32,-0.16 0.32,0.16 z M 0,51.84 v 2.880001 l -0.16,0.32 -0.32,0.16 -0.32,-0.16 -0.16,-0.32 V 51.84 L -0.8,51.52 -0.48,51.360001 -0.16,51.52 Z"
         style="fill:#ff0000;fill-opacity:1;fill-rule:nonzero;stroke:none"
         id="path10401" />
    </g>
    <g
       id="g10403"
       transform="matrix(0.26458333,0,0,0.26458333,86.698332,189.80434)">
      <path
         d="M 0,0 C 0,0.96 0.8,1.92 1.92,1.92 2.88,1.92 3.68,0.96 3.68,0 3.68,-1.12 2.88,-1.92 1.92,-1.92 0.8,-1.92 0,-1.12 0,0 Z"
         style="fill:#000000;fill-opacity:1;fill-rule:evenodd;stroke:none"
         id="path10405" />
    </g>
    <g
       id="g10411"
       transform="matrix(0.26458333,0,0,0.26458333,54.863666,111.78401)">
      <path
         d="m 95.360001,319.84 2.080001,3.36001 1.599999,-2.72 z"
         style="fill:#000000;fill-opacity:1;fill-rule:evenodd;stroke:none"
         id="path10413" />
    </g>
    <g
       id="g10415"
       transform="matrix(0.26458333,0,0,0.26458333,82.295666,197.29734)">
      <path
         d="m 0,0 c -3.04,-0.16 -6.08,-1.44 -8.32,-3.36 m 0,0 2.08,3.36 1.6,-2.72 z"
         style="fill:none;stroke:#000000;stroke-width:0.48;stroke-linecap:butt;stroke-linejoin:miter;stroke-miterlimit:2;stroke-dasharray:none;stroke-opacity:1"
         id="path10417" />
    </g>
    <g
       id="g10419"
       transform="matrix(0.00477996,0,0,0.00477996,54.863666,111.78401)">
      <text
         xml:space="preserve"
         transform="translate(5012.6401,18261.4)"
         style="font-variant:normal;font-weight:normal;font-size:327.68px;font-family:F1;-inkscape-font-specification:F1;writing-mode:lr-tb;fill:#ff0000;fill-opacity:1;fill-rule:nonzero;stroke:none"
         id="text10423"><tspan
           x="0 176.94719 353.89438"
           y="0"
           sodipodi:role="line"
           id="tspan10421">2x4</tspan></text>
    </g>
  </g>
</svg>
