<?xml version="1.0" encoding="UTF-8" standalone="no"?>
<!-- Created with Inkscape (http://www.inkscape.org/) -->

<svg
   width="16.370831mm"
   height="8.8354959mm"
   viewBox="0 0 16.370831 8.8354959"
   version="1.1"
   id="svg13530"
   inkscape:version="1.2.2 (732a01da63, 2022-12-09)"
   sodipodi:docname="3.svg"
   xmlns:inkscape="http://www.inkscape.org/namespaces/inkscape"
   xmlns:sodipodi="http://sodipodi.sourceforge.net/DTD/sodipodi-0.dtd"
   xmlns="http://www.w3.org/2000/svg"
   xmlns:svg="http://www.w3.org/2000/svg">
  <sodipodi:namedview
     id="namedview13532"
     pagecolor="#ffffff"
     bordercolor="#000000"
     borderopacity="0.25"
     inkscape:showpageshadow="2"
     inkscape:pageopacity="0.0"
     inkscape:pagecheckerboard="0"
     inkscape:deskcolor="#d1d1d1"
     inkscape:document-units="mm"
     showgrid="false"
     inkscape:zoom="0.74564394"
     inkscape:cx="217.26187"
     inkscape:cy="-41.574803"
     inkscape:window-width="1920"
     inkscape:window-height="1017"
     inkscape:window-x="-8"
     inkscape:window-y="-8"
     inkscape:window-maximized="1"
     inkscape:current-layer="layer1" />
  <defs
     id="defs13527" />
  <g
     inkscape:label="Layer 1"
     inkscape:groupmode="layer"
     id="layer1"
     transform="translate(-47.524262,-159.51773)">
    <g
       id="g10425"
       transform="matrix(0.26458333,0,0,0.26458333,55.398261,163.78123)">
      <path
         d="M 0,0 4.8,-4.64 4.96,-4.96 4.8,-5.44 4.48,-5.6 4,-5.44 -0.64,-0.64 V 0 Z m 8.16,-8.16 3.68,-3.68 0.16,-0.32 -0.16,-0.32 -0.32,-0.16 -0.32,0.16 L 7.52,-8.8 7.36,-8.48 7.52,-8.16 7.84,-8 Z M 19.84,8.48 H 20 L 20.32,8.32 20.48,8 20.32,7.52 H 20 19.84 19.52 L 19.360001,8 19.52,8.32 Z"
         style="fill:#ff0000;fill-opacity:1;fill-rule:nonzero;stroke:none"
         id="path10427" />
    </g>
    <g
       id="g10429"
       transform="matrix(0.26458333,0,0,0.26458333,48.667262,167.71823)">
      <path
         d="m 0,0 c 0,1.12 -0.8,1.92 -1.92,1.92 -0.96,0 -1.92,-0.8 -1.92,-1.92 0,-0.96 0.96,-1.92 1.92,-1.92 C -0.8,-1.92 0,-0.96 0,0 Z"
         style="fill:#000000;fill-opacity:1;fill-rule:evenodd;stroke:none"
         id="path10431" />
    </g>
    <g
       id="g10433"
       transform="matrix(0.26458333,0,0,0.26458333,48.667262,167.71823)">
      <path
         d="m 0,0 c 0,1.12 -0.8,1.92 -1.92,1.92 -0.96,0 -1.92,-0.8 -1.92,-1.92 0,-0.96 0.96,-1.92 1.92,-1.92 C -0.8,-1.92 0,-0.96 0,0 Z m 2.4,0.64 v -15.2 M 0,0 h 9.92 m 0,0 15.200001,-15.2 m 11.839998,-11.840001 c 4.639999,-4.639999 12,-4.639999 16.639999,0 4.640004,4.640001 4.640004,12.000001 0,16.640001 -2.239997,2.24 -5.119998,3.52 -8.319999,3.52 m 0.16,0 L 2.4,-6.88"
         style="fill:none;stroke:#000000;stroke-width:0.96;stroke-linecap:round;stroke-linejoin:round;stroke-miterlimit:10;stroke-dasharray:none;stroke-opacity:1"
         id="path10435" />
    </g>
    <g
       id="g10437"
       transform="matrix(0.26458333,0,0,0.26458333,26.230595,60.530233)">
      <path
         d="m 103.68,387.20001 2.88,-0.64001 -0.48,2.39999 z"
         style="fill:#000000;fill-opacity:1;fill-rule:evenodd;stroke:none"
         id="path10439" />
    </g>
    <g
       id="g10441"
       transform="matrix(0.26458333,0,0,0.26458333,55.313595,163.69657)">
      <path
         d="m 0,0 c -1.76,-1.6 -3.84,-2.4 -6.24,-2.72 m 0,0 2.88,-0.64 -0.48,2.4 z"
         style="fill:none;stroke:#000000;stroke-width:0.48;stroke-linecap:butt;stroke-linejoin:miter;stroke-miterlimit:2;stroke-dasharray:none;stroke-opacity:1"
         id="path10443" />
    </g>
    <g
       id="g10445"
       transform="matrix(0.26458333,0,0,0.26458333,26.230595,60.530233)">
      <path
         d="m 132.16,392 -2.55999,1.60001 2.07998,1.27999 z"
         style="fill:#000000;fill-opacity:1;fill-rule:evenodd;stroke:none"
         id="path10447" />
    </g>
    <g
       id="g10449"
       transform="matrix(0.26458333,0,0,0.26458333,61.028595,167.25256)">
      <path
         d="m 0,0 c -2.72,-3.36 -2.56,-8.32 0.64,-11.36 m 0,0 -2.56,1.6 2.08,1.28 z"
         style="fill:none;stroke:#000000;stroke-width:0.48;stroke-linecap:butt;stroke-linejoin:miter;stroke-miterlimit:2;stroke-dasharray:none;stroke-opacity:1"
         id="path10451" />
    </g>
  </g>
</svg>
