<?xml version="1.0" encoding="UTF-8" standalone="no"?>
<!-- Created with Inkscape (http://www.inkscape.org/) -->

<svg
   width="10.212835mm"
   height="16.933332mm"
   viewBox="0 0 10.212835 16.933332"
   version="1.1"
   id="svg13825"
   inkscape:version="1.2.2 (732a01da63, 2022-12-09)"
   sodipodi:docname="6.svg"
   xmlns:inkscape="http://www.inkscape.org/namespaces/inkscape"
   xmlns:sodipodi="http://sodipodi.sourceforge.net/DTD/sodipodi-0.dtd"
   xmlns="http://www.w3.org/2000/svg"
   xmlns:svg="http://www.w3.org/2000/svg">
  <sodipodi:namedview
     id="namedview13827"
     pagecolor="#ffffff"
     bordercolor="#000000"
     borderopacity="0.25"
     inkscape:showpageshadow="2"
     inkscape:pageopacity="0.0"
     inkscape:pagecheckerboard="0"
     inkscape:deskcolor="#d1d1d1"
     inkscape:document-units="mm"
     showgrid="false"
     inkscape:zoom="0.74564394"
     inkscape:cx="206.53289"
     inkscape:cy="116.67767"
     inkscape:window-width="1920"
     inkscape:window-height="1017"
     inkscape:window-x="-8"
     inkscape:window-y="-8"
     inkscape:window-maximized="1"
     inkscape:current-layer="layer1" />
  <defs
     id="defs13822" />
  <g
     inkscape:label="Layer 1"
     inkscape:groupmode="layer"
     id="layer1"
     transform="translate(-50.248422,-117.85591)">
    <g
       id="g10495"
       transform="matrix(0.26458333,0,0,0.26458333,55.04259,130.89458)">
      <path
         d="M 0,0 C -0.64,-0.96 -0.48,-2.08 0.48,-2.72 1.28,-3.2 2.4,-3.04 3.04,-2.24 3.68,-1.28 3.36,-0.16 2.56,0.48 1.76,0.96 0.48,0.8 0,0 Z"
         style="fill:#000000;fill-opacity:1;fill-rule:evenodd;stroke:none"
         id="path10497" />
    </g>
    <g
       id="g10499"
       transform="matrix(0.26458333,0,0,0.26458333,55.04259,130.89458)">
      <path
         d="M 0,0 C -0.64,-0.96 -0.48,-2.08 0.48,-2.72 1.28,-3.2 2.4,-3.04 3.04,-2.24 3.68,-1.28 3.36,-0.16 2.56,0.48 1.76,0.96 0.48,0.8 0,0 Z M 20,14.24 V -0.96 M 0,0 -10.4,7.2 m 0,0 v -45.760001 m 0,0 c 0,-5.599999 4.48,-10.239998 10.24,-10.239998 5.6,0 10.24,4.639999 10.24,10.239998 m 0,0 V 6.72 m 0,0 H 20"
         style="fill:none;stroke:#000000;stroke-width:0.96;stroke-linecap:round;stroke-linejoin:round;stroke-miterlimit:10;stroke-dasharray:none;stroke-opacity:1"
         id="path10501" />
    </g>
    <g
       id="g10503"
       transform="matrix(0.26458333,0,0,0.26458333,25.790257,-35.221425)">
      <path
         d="m 113.76,606.88 1.76,2.88001 1.44,-2.40003 z"
         style="fill:#000000;fill-opacity:1;fill-rule:evenodd;stroke:none"
         id="path10505" />
    </g>
    <g
       id="g10507"
       transform="matrix(0.26458333,0,0,0.26458333,57.794257,126.11091)">
      <path
         d="m 0,0 c -2.56,-0.16 -5.12,-1.12 -7.2,-2.88 m 0,0 L -5.44,0 -4,-2.4 Z"
         style="fill:none;stroke:#000000;stroke-width:0.48;stroke-linecap:butt;stroke-linejoin:miter;stroke-miterlimit:2;stroke-dasharray:none;stroke-opacity:1"
         id="path10509" />
    </g>
    <g
       id="g10511"
       transform="matrix(0.00413411,0,0,0.00413411,25.790257,-35.221425)">
      <text
         xml:space="preserve"
         transform="translate(7055.3599,38666.199)"
         style="font-variant:normal;font-weight:normal;font-size:327.68px;font-family:F1;-inkscape-font-specification:F1;writing-mode:lr-tb;fill:#ff0000;fill-opacity:1;fill-rule:nonzero;stroke:none"
         id="text10515"><tspan
           x="0 183.50079 275.25119"
           y="0"
           sodipodi:role="line"
           id="tspan10513">3/4</tspan></text>
    </g>
    <g
       id="g10517"
       transform="matrix(0.26458333,0,0,0.26458333,25.790257,-35.221425)">
      <path
         d="M 92.639999,610.08002 94.559998,607.20001 96,609.59998 Z"
         style="fill:#000000;fill-opacity:1;fill-rule:evenodd;stroke:none"
         id="path10519" />
    </g>
    <g
       id="g10521"
       transform="matrix(0.26458333,0,0,0.26458333,53.77259,126.02624)">
      <path
         d="m 0,0 c -3.84,-3.2 -9.6,-2.88 -13.12,0.64 m 0,0 1.92,-2.88 1.44,2.4 z"
         style="fill:none;stroke:#000000;stroke-width:0.48;stroke-linecap:butt;stroke-linejoin:miter;stroke-miterlimit:2;stroke-dasharray:none;stroke-opacity:1"
         id="path10523" />
    </g>
  </g>
</svg>
