<?xml version="1.0" encoding="UTF-8" standalone="no"?>
<!-- Created with Inkscape (http://www.inkscape.org/) -->

<svg
   width="19.049999mm"
   height="14.435666mm"
   viewBox="0 0 19.049999 14.435666"
   version="1.1"
   id="svg13936"
   inkscape:version="1.2.2 (732a01da63, 2022-12-09)"
   sodipodi:docname="7.svg"
   xmlns:inkscape="http://www.inkscape.org/namespaces/inkscape"
   xmlns:sodipodi="http://sodipodi.sourceforge.net/DTD/sodipodi-0.dtd"
   xmlns="http://www.w3.org/2000/svg"
   xmlns:svg="http://www.w3.org/2000/svg">
  <sodipodi:namedview
     id="namedview13938"
     pagecolor="#ffffff"
     bordercolor="#000000"
     borderopacity="0.25"
     inkscape:showpageshadow="2"
     inkscape:pageopacity="0.0"
     inkscape:pagecheckerboard="0"
     inkscape:deskcolor="#d1d1d1"
     inkscape:document-units="mm"
     showgrid="false"
     inkscape:zoom="0.74564394"
     inkscape:cx="9.3878588"
     inkscape:cy="-17.434595"
     inkscape:window-width="1920"
     inkscape:window-height="1017"
     inkscape:window-x="-8"
     inkscape:window-y="-8"
     inkscape:window-maximized="1"
     inkscape:current-layer="layer1" />
  <defs
     id="defs13933" />
  <g
     inkscape:label="Layer 1"
     inkscape:groupmode="layer"
     id="layer1"
     transform="translate(-102.60403,-153.16926)">
    <g
       id="g10525"
       transform="matrix(0.26458333,0,0,0.26458333,103.74703,166.96993)">
      <path
         d="m 0,0 c 0,-1.12 -0.8,-1.92 -1.92,-1.92 -0.96,0 -1.92,0.8 -1.92,1.92 0,0.96 0.96,1.92 1.92,1.92 C -0.8,1.92 0,0.96 0,0 Z"
         style="fill:#000000;fill-opacity:1;fill-rule:evenodd;stroke:none"
         id="path10527" />
    </g>
    <g
       id="g10529"
       transform="matrix(0.26458333,0,0,0.26458333,103.74703,166.96993)">
      <path
         d="m 0,0 c 0,-1.12 -0.8,-1.92 -1.92,-1.92 -0.96,0 -1.92,0.8 -1.92,1.92 0,0.96 0.96,1.92 1.92,1.92 C -0.8,1.92 0,0.96 0,0 Z m 67.199997,-44 v -7.68 M 0,0 h 8 m 0,0 47.84,-47.84 m 0,0 h 11.359997"
         style="fill:none;stroke:#000000;stroke-width:0.96;stroke-linecap:round;stroke-linejoin:round;stroke-miterlimit:10;stroke-dasharray:none;stroke-opacity:1"
         id="path10531" />
    </g>
    <g
       id="g10533"
       transform="matrix(0.26458333,0,0,0.26458333,82.453366,-20.355068)">
      <path
         d="m 111.36,677.28003 -2.24,2.23999 4.16,11.67999 7.36,-7.35998 -11.52,-4.32001 z"
         style="fill:#ffffff;fill-opacity:1;fill-rule:evenodd;stroke:none"
         id="path10535" />
    </g>
    <g
       id="g10537"
       transform="matrix(0.26458333,0,0,0.26458333,82.453366,-20.355068)">
      <path
         d="m 111.36,677.28003 -2.24,2.23999 4.16,11.67999 7.36,-7.35998 -11.52,-4.32001"
         style="fill:none;stroke:#000000;stroke-width:0.48;stroke-linecap:round;stroke-linejoin:round;stroke-miterlimit:10;stroke-dasharray:none;stroke-opacity:1"
         id="path10539" />
    </g>
  </g>
</svg>
