<?xml version="1.0" encoding="UTF-8" standalone="no"?>
<!-- Created with Inkscape (http://www.inkscape.org/) -->

<svg
   width="9.8424997mm"
   height="13.123333mm"
   viewBox="0 0 9.8424997 13.123333"
   version="1.1"
   id="svg14012"
   inkscape:version="1.2.2 (732a01da63, 2022-12-09)"
   sodipodi:docname="8.svg"
   xmlns:inkscape="http://www.inkscape.org/namespaces/inkscape"
   xmlns:sodipodi="http://sodipodi.sourceforge.net/DTD/sodipodi-0.dtd"
   xmlns="http://www.w3.org/2000/svg"
   xmlns:svg="http://www.w3.org/2000/svg">
  <sodipodi:namedview
     id="namedview14014"
     pagecolor="#ffffff"
     bordercolor="#000000"
     borderopacity="0.25"
     inkscape:showpageshadow="2"
     inkscape:pageopacity="0.0"
     inkscape:pagecheckerboard="0"
     inkscape:deskcolor="#d1d1d1"
     inkscape:document-units="mm"
     showgrid="false"
     inkscape:zoom="0.74564394"
     inkscape:cx="97.901956"
     inkscape:cy="-4.023368"
     inkscape:window-width="1920"
     inkscape:window-height="1017"
     inkscape:window-x="-8"
     inkscape:window-y="-8"
     inkscape:window-maximized="1"
     inkscape:current-layer="layer1" />
  <defs
     id="defs14009" />
  <g
     inkscape:label="Layer 1"
     inkscape:groupmode="layer"
     id="layer1"
     transform="translate(-79.175524,-149.56737)">
    <g
       id="g10541"
       transform="matrix(0.26458333,0,0,0.26458333,85.525524,150.07537)">
      <path
         d="M 0,0 V 6.72 L 0.16,7.04 0.48,7.2 0.96,7.04 V 6.72 0 -0.32 L 0.48,-0.48 0.16,-0.32 Z m 0,11.52 v 6.72 l 0.16,0.319999 0.32,0.16 0.48,-0.16 V 18.24 11.52 11.2 L 0.48,11.04 0.16,11.2 Z M 0,23.040001 V 29.76 l 0.16,0.32 0.32,0.16 0.48,-0.16 v -0.32 -6.719999 -0.320002 l -0.48,-0.16 -0.32,0.16 z m 0,11.52 v 6.719998 l 0.16,0.319999 0.32,0.16 0.48,-0.16 v -0.319999 -6.719998 -0.319999 l -0.48,-0.16 -0.32,0.16 z m 0,11.520001 v 1.119999 L 0.16,47.52 0.48,47.68 0.96,47.52 v -0.319999 -1.119999 -0.320004 l -0.48,-0.16 -0.32,0.16 z"
         style="fill:#ff0000;fill-opacity:1;fill-rule:nonzero;stroke:none"
         id="path10543" />
    </g>
    <g
       id="g10545"
       transform="matrix(0.26458333,0,0,0.26458333,80.191524,150.07537)">
      <path
         d="m 0,0 c 0,0.96 -0.96,1.92 -1.92,1.92 -1.12,0 -1.92,-0.96 -1.92,-1.92 0,-1.12 0.8,-1.92 1.92,-1.92 0.96,0 1.92,0.8 1.92,1.92 z"
         style="fill:#000000;fill-opacity:1;fill-rule:evenodd;stroke:none"
         id="path10547" />
    </g>
    <g
       id="g10553"
       transform="matrix(0.26458333,0,0,0.26458333,88.40419,153.03869)">
      <path
         d="M 0,0 V -4.16 H -18.719999 V 5.28 L 0,-4.16 Z M 0,5.28 V 1.12 H -10.4 V 6.24 L 0,1.12 Z"
         style="fill:#ffffff;fill-opacity:1;fill-rule:evenodd;stroke:none"
         id="path10555" />
    </g>
    <g
       id="g10557"
       transform="matrix(0.26458333,0,0,0.26458333,88.40419,153.03869)">
      <path
         d="M 0,0 V -4.16 H -18.719999 V 5.28 L 0,-4.16 M 0,5.28 V 1.12 H -10.4 V 6.24 L 0,1.12 m 2.08,-5.28 v 9.44"
         style="fill:none;stroke:#000000;stroke-width:0.48;stroke-linecap:round;stroke-linejoin:round;stroke-miterlimit:10;stroke-dasharray:none;stroke-opacity:1"
         id="path10559" />
    </g>
  </g>
</svg>
