<?xml version="1.0" standalone="no"?>
<!DOCTYPE svg PUBLIC "-//W3C//DTD SVG 1.2//EN" "http://www.w3.org/Graphics/SVG/1.2/DTD/svg12.dtd">
<svg xmlns="http://www.w3.org/2000/svg" version="1.2" baseProfile="tiny" id="selectedFigureSvg" width="100px" height="100px" viewBox="-130.8 -49 142.98 187.52"><g id="sequence"><g id="figure-2"><text style="font-family: Verdana, Helvetica, Sans; font-size: 16px; font-weight: bold; fill: black;" text-anchor="middle" x="0" y="-8" class="figNr">2</text><path d="M 0,0 m -4,0 a4,4 0 1 1 0,0.01" style="stroke: black; stroke-width: 1px; fill: black;"/><path d="M -4,0 l -60,0" style="stroke: black; stroke-width: 3.0px; fill: none; vector-effect: non-scaling-stroke;" class="line" id="figure-2-roll0-gap0"/><path d="M -64,0 m 7.53,-15.64 l -8.31,3.64 l 6.93,4 z" style="stroke: black; stroke-width: 1px; fill: black;"/><path d="M -64,0 m 7.53,-15.64 a 20,20 0 0 0 -4.85,25.64 " style="stroke: black; stroke-width: 3.0px; fill: none; vector-effect: non-scaling-stroke;"/><text style="font-family: Arial, Sans; font-size: 20px; font-weight: bold; fill: red;" text-anchor="middle" x="-64" y="-23">4</text><path d="M -64,0 l -0.3,0" style="stroke: black; stroke-width: 3.0px; fill: none; vector-effect: non-scaling-stroke;" class="line" id="figure-2-roll0-gap1"/><path d="M -64.3,0 a60,60 0 0 0 0,120" style="stroke-dasharray: 10, 5; stroke: red; stroke-width: 3.0px; fill: none; vector-effect: non-scaling-stroke;"/><path d="M -64.3,120 l 0.3,0" style="stroke-dasharray: 10, 5; stroke: red; stroke-width: 3.0px; fill: none; vector-effect: non-scaling-stroke;" class="line" id="figure-2-roll1-gap0"/><path d="M -64,120 m 0,-16.75 l 8,0 " style="stroke: black; stroke-width: 3.0px; fill: none; vector-effect: non-scaling-stroke;"/><path d="M -64,120 m 0,-16 l 9.6,24 l -19.2,0 z" style="stroke: black; stroke-width: 1.5px; fill: red;"/><path d="M -58,120 l 60,0" style="stroke-dasharray: 10, 5; stroke: red; stroke-width: 3.0px; fill: none; vector-effect: non-scaling-stroke;" class="line" id="figure-2-exit"/><path d="M 2,120 m 0,10 l 0,-20" style="stroke: black; stroke-width: 3.0px; fill: none; vector-effect: non-scaling-stroke;"/></g></g></svg>