<?xml version="1.0" standalone="no"?>
<!DOCTYPE svg PUBLIC "-//W3C//DTD SVG 1.2//EN" "http://www.w3.org/Graphics/SVG/1.2/DTD/svg12.dtd">
<svg xmlns="http://www.w3.org/2000/svg" version="1.2" baseProfile="tiny" id="selectedFigureSvg" width="100px" height="100px" viewBox="-142.92 -59.23 156.24 70.96"><g id="sequence"><g id="figure-2"><text style="font-family: Verdana, Helvetica, Sans; font-size: 16px; font-weight: bold; fill: black;" text-anchor="middle" x="0" y="-8" class="figNr">6</text><path d="M 0,0 m -4,0 a4,4 0 1 1 0,0.01" style="stroke: black; stroke-width: 1px; fill: black;"/><path d="M -4,0 l -60,0" style="stroke: black; stroke-width: 3.0px; fill: none; vector-effect: non-scaling-stroke;" class="line" id="figure-2-entry"/><path d="M -64,0 a 40,28 0 0 1 -14.3,-1.85" style="stroke: black; stroke-width: 3.0px; fill: none; vector-effect: non-scaling-stroke;"/><path d="M -78.3,-1.85 m 11.32,-13.15 l -8.97,1.36 l 5.66,5.66 z" style="stroke: black; stroke-width: 1px; fill: black;"/><path d="M -78.3,-1.85 m 11.32,-13.15 a 20,20 0 0 0 -11.32,23.51 " style="stroke: black; stroke-width: 3.0px; fill: none; vector-effect: non-scaling-stroke;"/><path d="M -78.3,-1.85 a 40,28 0 0 1 -11.15,-4.55" style="stroke: black; stroke-width: 3.0px; fill: none; vector-effect: non-scaling-stroke;"/><path d="M -89.45,-6.4 a 40,28 0 1 1 25.45,6.4" style="stroke-dasharray: 1, 3; stroke: black; stroke-width: 1px; fill: none; vector-effect: non-scaling-stroke;"/><path d="M -89.45,-6.4 l -36.37,-21" style="stroke: black; stroke-width: 3.0px; fill: none; vector-effect: non-scaling-stroke;" class="line" id="figure-2-exit"/><path d="M -125.82,-27.4 m -10,0 l 20,0" style="stroke: black; stroke-width: 3.0px; fill: none; vector-effect: non-scaling-stroke;"/></g></g></svg>