<?xml version="1.0" standalone="no"?>
<!DOCTYPE svg PUBLIC "-//W3C//DTD SVG 20010904//EN"
 "http://www.w3.org/TR/2001/REC-SVG-20010904/DTD/svg10.dtd">
<svg version="1.0" xmlns="http://www.w3.org/2000/svg"
 width="575.000000pt" height="563.000000pt" viewBox="0 0 575.000000 563.000000"
 preserveAspectRatio="xMidYMid meet">

<g transform="translate(0.000000,563.000000) scale(0.100000,-0.100000)"
fill="#000000" stroke="none">
<path d="M5100 5265 c-40 -22 -97 -68 -151 -121 l-85 -85 -196 22 c-108 12
-212 19 -231 15 -36 -7 -127 -62 -127 -77 0 -5 28 -9 63 -9 34 0 85 -6 112
-14 80 -21 229 -77 245 -92 12 -12 2 -32 -76 -146 l-91 -133 -65 -3 c-48 -2
-70 -8 -82 -21 -20 -22 -12 -30 53 -55 66 -26 98 -52 136 -112 19 -30 39 -54
45 -54 22 0 30 38 19 88 -7 27 -9 60 -5 73 9 35 209 241 227 234 8 -3 32 -33
53 -68 120 -191 128 -206 135 -257 3 -28 11 -51 16 -52 15 -2 55 82 55 117 0
16 -29 117 -65 223 -73 218 -74 190 8 310 66 97 115 253 80 252 -4 0 -37 -16
-73 -35z"/>
<path d="M4289 4148 c-1068 -1439 -2035 -2512 -2604 -2895 -312 -209 -554
-233 -640 -63 -32 65 -38 119 -20 202 42 205 256 477 526 671 109 78 342 197
444 226 159 45 331 55 455 25 l68 -17 55 59 c29 32 88 97 131 144 l76 85 -42
38 c-56 51 -153 104 -246 135 -71 23 -92 25 -262 26 -170 1 -194 -1 -292 -26
-553 -140 -1134 -586 -1348 -1033 -103 -215 -132 -478 -74 -660 60 -184 199
-336 379 -412 137 -58 362 -68 529 -24 373 99 864 517 1411 1201 409 512 863
1190 1317 1965 140 239 298 523 298 535 0 28 -29 -6 -161 -182z"/>
<path d="M3770 2788 c-11 -13 -107 -140 -213 -283 -588 -789 -1098 -1340
-1547 -1672 -199 -147 -403 -255 -580 -306 -64 -19 -100 -22 -240 -22 -142 0
-176 3 -243 23 -155 45 -271 119 -360 231 -44 55 -52 62 -55 43 -4 -26 45
-127 94 -193 196 -267 602 -355 967 -209 430 173 980 692 1574 1485 240 322
601 843 623 901 12 30 4 31 -20 2z"/>
</g>
</svg>
