<?xml version="1.0" encoding="UTF-8" standalone="no"?>
<!-- Created with Inkscape (http://www.inkscape.org/) -->

<svg
   width="14.34465mm"
   height="15.730363mm"
   viewBox="0 0 14.34465 15.730363"
   version="1.1"
   id="svg7205"
   inkscape:version="1.2.2 (732a01da63, 2022-12-09)"
   sodipodi:docname="1.svg"
   xmlns:inkscape="http://www.inkscape.org/namespaces/inkscape"
   xmlns:sodipodi="http://sodipodi.sourceforge.net/DTD/sodipodi-0.dtd"
   xmlns="http://www.w3.org/2000/svg"
   xmlns:svg="http://www.w3.org/2000/svg">
  <sodipodi:namedview
     id="namedview7207"
     pagecolor="#ffffff"
     bordercolor="#000000"
     borderopacity="0.25"
     inkscape:showpageshadow="2"
     inkscape:pageopacity="0.0"
     inkscape:pagecheckerboard="0"
     inkscape:deskcolor="#d1d1d1"
     inkscape:document-units="mm"
     showgrid="false"
     inkscape:zoom="0.74564394"
     inkscape:cx="284.31801"
     inkscape:cy="177.02819"
     inkscape:window-width="1920"
     inkscape:window-height="1017"
     inkscape:window-x="-8"
     inkscape:window-y="-8"
     inkscape:window-maximized="1"
     inkscape:current-layer="layer1" />
  <defs
     id="defs7202">
    <clipPath
       clipPathUnits="userSpaceOnUse"
       id="clipPath1781">
      <path
         d="M -1.5259e-5,792 H 612 V 1.8311e-4 L -6.1035e-5,1.2207e-4"
         clip-rule="evenodd"
         id="path1779" />
    </clipPath>
    <clipPath
       clipPathUnits="userSpaceOnUse"
       id="clipPath1791">
      <path
         d="M -1.5259e-5,792 H 612 V 1.8311e-4 L -6.1035e-5,1.2207e-4"
         clip-rule="evenodd"
         id="path1789" />
    </clipPath>
    <clipPath
       clipPathUnits="userSpaceOnUse"
       id="clipPath1801">
      <path
         d="M -1.5259e-5,792 H 612 V 1.8311e-4 L -6.1035e-5,1.2207e-4"
         clip-rule="evenodd"
         id="path1799" />
    </clipPath>
    <clipPath
       clipPathUnits="userSpaceOnUse"
       id="clipPath1811">
      <path
         d="M -1.5259e-5,792 H 612 V 1.8311e-4 L -6.1035e-5,1.2207e-4"
         clip-rule="evenodd"
         id="path1809" />
    </clipPath>
  </defs>
  <g
     inkscape:label="Layer 1"
     inkscape:groupmode="layer"
     id="layer1"
     transform="translate(-29.730901,-101.77998)">
    <g
       id="g1759"
       transform="matrix(0.35277777,0,0,-0.35277777,8.9484098,321.90625)">
      <path
         d="m 84.37,608.78 14.843,14.84"
         style="fill:none;stroke:#ff0000;stroke-width:0.72;stroke-linecap:round;stroke-linejoin:round;stroke-miterlimit:10;stroke-dasharray:5.04, 3.6;stroke-dashoffset:0;stroke-opacity:1"
         id="path1761" />
    </g>
    <path
       d="m 30.857673,112.37742 c 0,-0.27517 -0.223661,-0.49742 -0.499886,-0.49742 -0.276225,0 -0.499886,0.22225 -0.499886,0.49742 0,0.2787 0.223661,0.50095 0.499886,0.50095 0.276225,0 0.499886,-0.22225 0.499886,-0.50095 z"
       style="fill:#000000;fill-opacity:1;fill-rule:evenodd;stroke:none;stroke-width:0.352778"
       id="path1763" />
    <path
       d="m 30.857673,112.37742 c 0,-0.27517 -0.223661,-0.49742 -0.499886,-0.49742 -0.276225,0 -0.499886,0.22225 -0.499886,0.49742 0,0.2787 0.223661,0.50095 0.499886,0.50095 0.276225,0 0.499886,-0.22225 0.499886,-0.50095 z m 1.971322,5.00592 v -4.0005 m -1.971322,-1.00542 h 2.618317 m 0,0 5.23628,-5.23522 m 5.236281,-5.23522 v 13.47611 m 0,0 H 32.828995"
       style="fill:none;stroke:#000000;stroke-width:0.254;stroke-linecap:round;stroke-linejoin:round;stroke-miterlimit:10;stroke-dasharray:none;stroke-opacity:1"
       id="path1765" />
    <g
       id="g1767"
       transform="matrix(0.35277777,0,0,-0.35277777,8.9484098,321.90625)">
      <path
         d="m 84.37,608.78 14.843,14.84"
         style="fill:none;stroke:#ff0000;stroke-width:0.72;stroke-linecap:round;stroke-linejoin:round;stroke-miterlimit:10;stroke-dasharray:5.04, 3.6;stroke-dashoffset:0;stroke-opacity:1"
         id="path1769" />
    </g>
    <path
       d="m 30.857673,112.37742 c 0,-0.27517 -0.223661,-0.49742 -0.499886,-0.49742 -0.276225,0 -0.499886,0.22225 -0.499886,0.49742 0,0.2787 0.223661,0.50095 0.499886,0.50095 0.276225,0 0.499886,-0.22225 0.499886,-0.50095 z"
       style="fill:#000000;fill-opacity:1;fill-rule:evenodd;stroke:none;stroke-width:0.352778"
       id="path1771" />
    <path
       d="m 30.857673,112.37742 c 0,-0.27517 -0.223661,-0.49742 -0.499886,-0.49742 -0.276225,0 -0.499886,0.22225 -0.499886,0.49742 0,0.2787 0.223661,0.50095 0.499886,0.50095 0.276225,0 0.499886,-0.22225 0.499886,-0.50095 z m 1.971322,5.00592 v -4.0005 m -1.971322,-1.00542 h 2.618317 m 0,0 5.23628,-5.23522 m 5.236281,-5.23522 v 13.47611 m 0,0 H 32.828995"
       style="fill:none;stroke:#000000;stroke-width:0.254;stroke-linecap:round;stroke-linejoin:round;stroke-miterlimit:10;stroke-dasharray:none;stroke-opacity:1"
       id="path1773" />
    <g
       id="g1775"
       transform="matrix(0.35277777,0,0,-0.35277777,8.9484098,321.90625)">
      <g
         id="g1777"
         clip-path="url(#clipPath1781)">
        <path
           d="m 87.518,601.43 0.788,3.41 -2.756,-0.65 z"
           style="fill:#000000;fill-opacity:1;fill-rule:evenodd;stroke:none"
           id="path1783" />
      </g>
    </g>
    <g
       id="g1785"
       transform="matrix(0.35277777,0,0,-0.35277777,8.9484098,321.90625)">
      <g
         id="g1787"
         clip-path="url(#clipPath1791)">
        <path
           d="m 84.37,608.78 c 1.806,-2.05 2.909,-4.63 3.148,-7.35 m 0,0 0.788,3.41 -2.756,-0.65 z"
           style="fill:none;stroke:#000000;stroke-width:0.37701;stroke-linecap:butt;stroke-linejoin:miter;stroke-miterlimit:2;stroke-dasharray:none;stroke-opacity:1"
           id="path1793" />
      </g>
    </g>
    <g
       id="g1795"
       transform="matrix(0.35277777,0,0,-0.35277777,8.9484098,321.90625)">
      <g
         id="g1797"
         clip-path="url(#clipPath1801)">
        <path
           d="m 87.518,601.43 0.788,3.41 -2.756,-0.65 z"
           style="fill:#000000;fill-opacity:1;fill-rule:evenodd;stroke:none"
           id="path1803" />
      </g>
    </g>
    <g
       id="g1805"
       transform="matrix(0.35277777,0,0,-0.35277777,8.9484098,321.90625)">
      <g
         id="g1807"
         clip-path="url(#clipPath1811)">
        <path
           d="m 84.37,608.78 c 1.806,-2.05 2.909,-4.63 3.148,-7.35 m 0,0 0.788,3.41 -2.756,-0.65 z"
           style="fill:none;stroke:#000000;stroke-width:0.37701;stroke-linecap:butt;stroke-linejoin:miter;stroke-miterlimit:2;stroke-dasharray:none;stroke-opacity:1"
           id="path1813" />
      </g>
    </g>
  </g>
</svg>
