<?xml version="1.0" encoding="UTF-8" standalone="no"?>
<!-- Created with Inkscape (http://www.inkscape.org/) -->

<svg
   width="44.354843mm"
   height="35.661282mm"
   viewBox="0 0 44.354841 35.661278"
   version="1.1"
   id="svg15577"
   inkscape:version="1.2.2 (732a01da63, 2022-12-09)"
   sodipodi:docname="10.svg"
   xmlns:inkscape="http://www.inkscape.org/namespaces/inkscape"
   xmlns:sodipodi="http://sodipodi.sourceforge.net/DTD/sodipodi-0.dtd"
   xmlns="http://www.w3.org/2000/svg"
   xmlns:svg="http://www.w3.org/2000/svg">
  <sodipodi:namedview
     id="namedview15579"
     pagecolor="#ffffff"
     bordercolor="#000000"
     borderopacity="0.25"
     inkscape:showpageshadow="2"
     inkscape:pageopacity="0.0"
     inkscape:pagecheckerboard="true"
     inkscape:deskcolor="#d1d1d1"
     inkscape:document-units="mm"
     showgrid="false"
     showborder="false"
     inkscape:zoom="2.9825758"
     inkscape:cx="258.16612"
     inkscape:cy="45.933452"
     inkscape:window-width="1920"
     inkscape:window-height="1017"
     inkscape:window-x="1912"
     inkscape:window-y="-8"
     inkscape:window-maximized="1"
     inkscape:current-layer="layer1" />
  <defs
     id="defs15574" />
  <g
     inkscape:label="Layer 1"
     inkscape:groupmode="layer"
     id="layer1"
     transform="translate(-21.467823,-44.308556)">
    <g
       id="g15014"
       transform="matrix(0.26458333,0,0,0.26458333,49.253236,55.298379)" />
    <g
       id="g13720"
       transform="matrix(0.26458333,0,0,0.26458333,18.006939,-99.253542)" />
    <g
       id="g18168"
       transform="matrix(0.26458333,0,0,0.26458333,27.213146,49.421226)">
      <path
         d="m 100.95,23.32 c 0,-2.09 1.69,-3.78 3.78,-3.78 2.09,0 3.78,1.69 3.78,3.78 v 48.5 c 0,2.09 -1.69,3.78 -3.78,3.78 -2.09,0 -3.78,-1.69 -3.78,-3.78 z M 0,31.82 c 0,-2.09 1.69,-3.78 3.78,-3.78 2.09,0 3.78,1.69 3.78,3.78 v 31.49 c 0,2.09 -1.69,3.78 -3.78,3.78 C 1.69,67.09 0,65.4 0,63.31 Z m 14.42,-8.5 c 0,-2.09 1.69,-3.78 3.78,-3.78 2.09,0 3.78,1.69 3.78,3.78 v 48.5 c 0,2.09 -1.69,3.78 -3.78,3.78 -2.09,0 -3.78,-1.69 -3.78,-3.78 z M 28.9,13.9 c 0,-2.08 1.67,-3.76 3.72,-3.76 2.06,0 3.72,1.68 3.72,3.76 V 81.24 C 36.34,83.32 34.67,85 32.62,85 30.56,85 28.9,83.32 28.9,81.24 Z M 43.26,3.78 C 43.26,1.69 44.95,0 47.04,0 c 2.09,0 3.78,1.69 3.78,3.78 v 87.57 c 0,2.09 -1.69,3.78 -3.78,3.78 -2.09,0 -3.78,-1.69 -3.78,-3.78 z m 43.27,28.04 c 0,-2.09 1.69,-3.78 3.78,-3.78 2.09,0 3.78,1.69 3.78,3.78 v 31.49 c 0,2.09 -1.69,3.78 -3.78,3.78 -2.09,0 -3.78,-1.69 -3.78,-3.78 z m -14.42,-8.5 c 0,-2.09 1.69,-3.78 3.78,-3.78 2.09,0 3.78,1.69 3.78,3.78 v 48.5 c 0,2.09 -1.69,3.78 -3.78,3.78 -2.09,0 -3.78,-1.69 -3.78,-3.78 z M 57.74,13.9 c 0,-2.08 1.67,-3.76 3.72,-3.76 2.06,0 3.72,1.68 3.72,3.76 v 67.34 c 0,2.08 -1.67,3.76 -3.72,3.76 -2.06,0 -3.72,-1.68 -3.72,-3.76 V 13.9 Z m 57.69,0 c 0,-2.08 1.67,-3.76 3.72,-3.76 2.06,0 3.72,1.68 3.72,3.76 v 67.34 c 0,2.08 -1.67,3.76 -3.72,3.76 -2.06,0 -3.72,-1.68 -3.72,-3.76 z"
         id="path18166" />
    </g>
  </g>
</svg>
