<?xml version="1.0" standalone="no"?>
<!DOCTYPE svg PUBLIC "-//W3C//DTD SVG 1.2//EN" "http://www.w3.org/Graphics/SVG/1.2/DTD/svg12.dtd">
<svg xmlns="http://www.w3.org/2000/svg" version="1.2" baseProfile="tiny" id="selectedFigureSvg" width="100px" height="100px" viewBox="-14.99 -32.94 79.4 195.85"><g id="sequence"><g id="figure-2"><path d="M 0,0 m -4,0 a4,4 0 1 1 0,0.01" style="stroke: black; stroke-width: 1px; fill: black;"/><path d="M 4,0 l 28,0" style="stroke: black; stroke-width: 3px; fill: none;" class="line" id="figure-2-entry"/><path d="M 32,0 l 0,28" style="stroke-dasharray: 10, 8; stroke: red; stroke-width: 3px; fill: none; " class="line" id="figure-2-roll1-gap0"/><path d="M 32,28 m 23.25,0 l 0,12 " style="stroke: black; stroke-width: 3px; fill: none;"/><path d="M 32,28 m 24,0 l -36,18 l 0,-18 z" style="stroke: black; stroke-width: 1.5px; fill: white;"/><path d="M 32,40 l 0,5" style="stroke-dasharray: 10, 8; stroke: red; stroke-width: 3px; fill: none; " class="line"/><path d="M 32,45 m 28.8,12 l 0,-29" style="stroke: black; stroke-width: 3px; fill: none;"/><path d="M 32,45 m 23.25,0 l 0,12 " style="stroke: black; stroke-width: 3px; fill: none;"/><path d="M 32,45 m 24,0 l -24,12 l 0,-12 z" style="stroke: black; stroke-width: 1.5px; fill: white;"/><path d="M 32,57 l 0,77" style="stroke-dasharray: 10, 8; stroke: red; stroke-width: 3px; fill: none; " class="line" id="figure-2-roll1-gap1"/><path d="M 32,134 l -28,0" style="stroke: black; stroke-width: 3px; fill: none;" class="line" id="figure-2-exit"/><path d="M 4,134 l 0,10 l 0,-20" style="stroke: black; stroke-width: 3px; fill: none;"/><path d="M 4,134 m -10,20 l 0,-40" style="stroke: black; stroke-width: 3px; fill: none;"/></g></g></svg>