<?xml version="1.0" encoding="UTF-8" standalone="no"?>
<!-- Created with Inkscape (http://www.inkscape.org/) -->

<svg
   width="14.903224mm"
   height="16.499994mm"
   viewBox="0 0 14.903224 16.499992"
   version="1.1"
   id="svg15577"
   inkscape:version="1.2.2 (732a01da63, 2022-12-09)"
   sodipodi:docname="2.svg"
   xml:space="preserve"
   xmlns:inkscape="http://www.inkscape.org/namespaces/inkscape"
   xmlns:sodipodi="http://sodipodi.sourceforge.net/DTD/sodipodi-0.dtd"
   xmlns="http://www.w3.org/2000/svg"
   xmlns:svg="http://www.w3.org/2000/svg"><sodipodi:namedview
     id="namedview15579"
     pagecolor="#ffffff"
     bordercolor="#000000"
     borderopacity="0.25"
     inkscape:showpageshadow="2"
     inkscape:pageopacity="0.0"
     inkscape:pagecheckerboard="true"
     inkscape:deskcolor="#d1d1d1"
     inkscape:document-units="mm"
     showgrid="false"
     showborder="false"
     inkscape:zoom="2.9825758"
     inkscape:cx="212.90323"
     inkscape:cy="97.566675"
     inkscape:window-width="1920"
     inkscape:window-height="1017"
     inkscape:window-x="1912"
     inkscape:window-y="-8"
     inkscape:window-maximized="1"
     inkscape:current-layer="layer1" /><defs
     id="defs15574" /><g
     inkscape:label="Layer 1"
     inkscape:groupmode="layer"
     id="layer1"
     transform="translate(-30.782862,-70.54715)"><g
       id="g15014"
       transform="matrix(0.26458333,0,0,0.26458333,49.253236,55.298379)" /><g
       id="g13720"
       transform="matrix(0.26458333,0,0,0.26458333,18.006939,-99.253542)" /><g
       id="g18168"
       transform="matrix(0.26458333,0,0,0.26458333,27.213146,49.421226)" /><g
       id="g20027"
       transform="matrix(0.26458333,0,0,0.26458333,43.162267,82.121265)"><path
         d="m 0,0 c 0,-1.12 0.8,-1.92 1.76,-1.92 1.12,0 1.92,0.8 1.92,1.92 0,0.96 -0.8,1.76 -1.92,1.76 C 0.8,1.76 0,0.96 0,0 Z"
         style="fill:#000000;fill-opacity:1;fill-rule:evenodd;stroke:none"
         id="path20029" /></g><g
       id="g20031"
       transform="matrix(0.26458333,0,0,0.26458333,43.162267,82.121265)"><path
         d="m 0,0 c 0,-1.12 0.8,-1.92 1.76,-1.92 1.12,0 1.92,0.8 1.92,1.92 0,0.96 -0.8,1.76 -1.92,1.76 C 0.8,1.76 0,0.96 0,0 Z"
         style="fill:none;stroke:#000000;stroke-width:0.96;stroke-linecap:round;stroke-linejoin:round;stroke-miterlimit:10;stroke-dasharray:none;stroke-opacity:1"
         id="path20033" /></g><g
       id="g20035"
       transform="matrix(0.26458333,0,0,0.26458333,7.9832651,-7.3713978)"><path
         d="M 95.040001,351.35999 V 343.84"
         style="fill:none;stroke:#000000;stroke-width:0.96;stroke-linecap:round;stroke-linejoin:round;stroke-miterlimit:10;stroke-dasharray:none;stroke-opacity:1"
         id="path20037" /></g><g
       id="g20039"
       transform="matrix(0.26458333,0,0,0.26458333,7.9832651,-7.3713978)"><path
         d="M 132.96001,338.23999 H 104.48"
         style="fill:none;stroke:#000000;stroke-width:0.96;stroke-linecap:round;stroke-linejoin:round;stroke-miterlimit:10;stroke-dasharray:none;stroke-opacity:1"
         id="path20041" /></g><g
       id="g20043"
       transform="matrix(0.26458333,0,0,0.26458333,7.9832651,-7.3713978)"><path
         d="M 104.48,338.23999 V 309.76001"
         style="fill:none;stroke:#000000;stroke-width:0.96;stroke-linecap:round;stroke-linejoin:round;stroke-miterlimit:10;stroke-dasharray:none;stroke-opacity:1"
         id="path20045" /></g><g
       id="g20047"
       transform="matrix(0.26458333,0,0,0.26458333,7.9832651,-7.3713978)"><path
         d="m 104.48,309.76001 c 0,-5.12 4.32,-9.44 9.44,-9.44 5.28,0 9.6,4.32 9.6,9.44"
         style="fill:none;stroke:#000000;stroke-width:0.96;stroke-linecap:round;stroke-linejoin:round;stroke-miterlimit:10;stroke-dasharray:none;stroke-opacity:1"
         id="path20049" /></g><g
       id="g20051"
       transform="matrix(0.26458333,0,0,0.26458333,7.9832651,-7.3713978)"><path
         d="m 123.52,309.76001 v 37.91998"
         style="fill:none;stroke:#000000;stroke-width:0.96;stroke-linecap:round;stroke-linejoin:round;stroke-miterlimit:10;stroke-dasharray:none;stroke-opacity:1"
         id="path20053" /></g><g
       id="g20055"
       transform="matrix(0.26458333,0,0,0.26458333,7.9832651,-7.3713978)"><path
         d="M 123.52,347.67999 H 95.040001"
         style="fill:none;stroke:#000000;stroke-width:0.96;stroke-linecap:round;stroke-linejoin:round;stroke-miterlimit:10;stroke-dasharray:none;stroke-opacity:1"
         id="path20057" /></g><g
       id="g20059"
       transform="matrix(0.26458333,0,0,0.26458333,43.162267,82.121265)"><path
         d="m 0,0 c 0,-1.12 0.8,-1.92 1.76,-1.92 1.12,0 1.92,0.8 1.92,1.92 0,0.96 -0.8,1.76 -1.92,1.76 C 0.8,1.76 0,0.96 0,0 Z"
         style="fill:#000000;fill-opacity:1;fill-rule:evenodd;stroke:none"
         id="path20061" /></g><g
       id="g20063"
       transform="matrix(0.26458333,0,0,0.26458333,43.162267,82.121265)"><path
         d="m 0,0 c 0,-1.12 0.8,-1.92 1.76,-1.92 1.12,0 1.92,0.8 1.92,1.92 0,0.96 -0.8,1.76 -1.92,1.76 C 0.8,1.76 0,0.96 0,0 Z"
         style="fill:none;stroke:#000000;stroke-width:0.96;stroke-linecap:round;stroke-linejoin:round;stroke-miterlimit:10;stroke-dasharray:none;stroke-opacity:1"
         id="path20065" /></g><g
       id="g20067"
       transform="matrix(0.26458333,0,0,0.26458333,7.9832651,-7.3713978)"><path
         d="M 95.040001,351.35999 V 343.84"
         style="fill:none;stroke:#000000;stroke-width:0.96;stroke-linecap:round;stroke-linejoin:round;stroke-miterlimit:10;stroke-dasharray:none;stroke-opacity:1"
         id="path20069" /></g><g
       id="g20071"
       transform="matrix(0.26458333,0,0,0.26458333,7.9832651,-7.3713978)"><path
         d="M 132.96001,338.23999 H 104.48"
         style="fill:none;stroke:#000000;stroke-width:0.96;stroke-linecap:round;stroke-linejoin:round;stroke-miterlimit:10;stroke-dasharray:none;stroke-opacity:1"
         id="path20073" /></g><g
       id="g20075"
       transform="matrix(0.26458333,0,0,0.26458333,7.9832651,-7.3713978)"><path
         d="M 104.48,338.23999 V 309.76001"
         style="fill:none;stroke:#000000;stroke-width:0.96;stroke-linecap:round;stroke-linejoin:round;stroke-miterlimit:10;stroke-dasharray:none;stroke-opacity:1"
         id="path20077" /></g><g
       id="g20079"
       transform="matrix(0.26458333,0,0,0.26458333,7.9832651,-7.3713978)"><path
         d="m 104.48,309.76001 c 0,-5.12 4.32,-9.44 9.44,-9.44 5.28,0 9.6,4.32 9.6,9.44"
         style="fill:none;stroke:#000000;stroke-width:0.96;stroke-linecap:round;stroke-linejoin:round;stroke-miterlimit:10;stroke-dasharray:none;stroke-opacity:1"
         id="path20081" /></g><g
       id="g20083"
       transform="matrix(0.26458333,0,0,0.26458333,7.9832651,-7.3713978)"><path
         d="m 123.52,309.76001 v 37.91998"
         style="fill:none;stroke:#000000;stroke-width:0.96;stroke-linecap:round;stroke-linejoin:round;stroke-miterlimit:10;stroke-dasharray:none;stroke-opacity:1"
         id="path20085" /></g><g
       id="g20087"
       transform="matrix(0.26458333,0,0,0.26458333,7.9832651,-7.3713978)"><path
         d="M 123.52,347.67999 H 95.040001"
         style="fill:none;stroke:#000000;stroke-width:0.96;stroke-linecap:round;stroke-linejoin:round;stroke-miterlimit:10;stroke-dasharray:none;stroke-opacity:1"
         id="path20089" /></g></g></svg>
