<?xml version="1.0" encoding="UTF-8" standalone="no"?>
<!-- Created with Inkscape (http://www.inkscape.org/) -->

<svg
   width="11.254669mm"
   height="13.75481mm"
   viewBox="0 0 11.254669 13.75481"
   version="1.1"
   id="svg7369"
   inkscape:version="1.2.2 (732a01da63, 2022-12-09)"
   sodipodi:docname="2.svg"
   xmlns:inkscape="http://www.inkscape.org/namespaces/inkscape"
   xmlns:sodipodi="http://sodipodi.sourceforge.net/DTD/sodipodi-0.dtd"
   xmlns="http://www.w3.org/2000/svg"
   xmlns:svg="http://www.w3.org/2000/svg">
  <sodipodi:namedview
     id="namedview7371"
     pagecolor="#ffffff"
     bordercolor="#000000"
     borderopacity="0.25"
     inkscape:showpageshadow="2"
     inkscape:pageopacity="0.0"
     inkscape:pagecheckerboard="0"
     inkscape:deskcolor="#d1d1d1"
     inkscape:document-units="mm"
     showgrid="false"
     inkscape:zoom="0.74564394"
     inkscape:cx="333.93955"
     inkscape:cy="57.668275"
     inkscape:window-width="1920"
     inkscape:window-height="1017"
     inkscape:window-x="-8"
     inkscape:window-y="-8"
     inkscape:window-maximized="1"
     inkscape:current-layer="layer1" />
  <defs
     id="defs7366" />
  <g
     inkscape:label="Layer 1"
     inkscape:groupmode="layer"
     id="layer1"
     transform="translate(-16.727504,-133.28388)">
    <path
       d="m 26.854343,143.41213 c 0,-0.27516 0.224719,-0.50094 0.499886,-0.50094 0.275166,0 0.500944,0.22578 0.500944,0.50094 0,0.27517 -0.225778,0.50095 -0.500944,0.50095 -0.275167,0 -0.499886,-0.22578 -0.499886,-0.50095 z"
       style="fill:#000000;fill-opacity:1;fill-rule:evenodd;stroke:none;stroke-width:0.352778"
       id="path1723" />
    <path
       d="m 26.854343,143.41213 c 0,-0.27516 0.224719,-0.50094 0.499886,-0.50094 0.275166,0 0.500944,0.22578 0.500944,0.50094 0,0.27517 -0.225778,0.50095 -0.500944,0.50095 -0.275167,0 -0.499886,-0.22578 -0.499886,-0.50095 z m -9.999839,3.49956 v -2.00025 m 9.999839,-1.49931 h -7.500056 m 0,0 v -7.50005 m 0,0 c 0,-1.37936 1.119364,-2.5012 2.500136,-2.5012 1.380773,0 2.500136,1.12184 2.500136,2.5012 m 0,0 v 10.00125 m 0,0 h -7.500055"
       style="fill:none;stroke:#000000;stroke-width:0.254;stroke-linecap:round;stroke-linejoin:round;stroke-miterlimit:10;stroke-dasharray:none;stroke-opacity:1"
       id="path1725" />
    <path
       d="m 26.854343,143.41213 c 0,-0.27516 0.224719,-0.50094 0.499886,-0.50094 0.275166,0 0.500944,0.22578 0.500944,0.50094 0,0.27517 -0.225778,0.50095 -0.500944,0.50095 -0.275167,0 -0.499886,-0.22578 -0.499886,-0.50095 z"
       style="fill:#000000;fill-opacity:1;fill-rule:evenodd;stroke:none;stroke-width:0.352778"
       id="path1727" />
    <path
       d="m 26.854343,143.41213 c 0,-0.27516 0.224719,-0.50094 0.499886,-0.50094 0.275166,0 0.500944,0.22578 0.500944,0.50094 0,0.27517 -0.225778,0.50095 -0.500944,0.50095 -0.275167,0 -0.499886,-0.22578 -0.499886,-0.50095 z m -9.999839,3.49956 v -2.00025 m 9.999839,-1.49931 h -7.500056 m 0,0 v -7.50005 m 0,0 c 0,-1.37936 1.119364,-2.5012 2.500136,-2.5012 1.380773,0 2.500136,1.12184 2.500136,2.5012 m 0,0 v 10.00125 m 0,0 h -7.500055"
       style="fill:none;stroke:#000000;stroke-width:0.254;stroke-linecap:round;stroke-linejoin:round;stroke-miterlimit:10;stroke-dasharray:none;stroke-opacity:1"
       id="path1729" />
  </g>
</svg>
