<?xml version="1.0" encoding="UTF-8" standalone="no"?>
<!-- Created with Inkscape (http://www.inkscape.org/) -->

<svg
   width="21.467741mm"
   height="13.927416mm"
   viewBox="0 0 21.467741 13.927414"
   version="1.1"
   id="svg15577"
   inkscape:version="1.2.2 (732a01da63, 2022-12-09)"
   sodipodi:docname="4.svg"
   xml:space="preserve"
   xmlns:inkscape="http://www.inkscape.org/namespaces/inkscape"
   xmlns:sodipodi="http://sodipodi.sourceforge.net/DTD/sodipodi-0.dtd"
   xmlns="http://www.w3.org/2000/svg"
   xmlns:svg="http://www.w3.org/2000/svg"><sodipodi:namedview
     id="namedview15579"
     pagecolor="#ffffff"
     bordercolor="#000000"
     borderopacity="0.25"
     inkscape:showpageshadow="2"
     inkscape:pageopacity="0.0"
     inkscape:pagecheckerboard="true"
     inkscape:deskcolor="#d1d1d1"
     inkscape:document-units="mm"
     showgrid="false"
     showborder="false"
     inkscape:zoom="2.9825758"
     inkscape:cx="238.71984"
     inkscape:cy="91.531623"
     inkscape:window-width="1920"
     inkscape:window-height="1017"
     inkscape:window-x="1912"
     inkscape:window-y="-8"
     inkscape:window-maximized="1"
     inkscape:current-layer="layer1" /><defs
     id="defs15574" /><g
     inkscape:label="Layer 1"
     inkscape:groupmode="layer"
     id="layer1"
     transform="translate(-23.978846,-72.161285)"><g
       id="g15014"
       transform="matrix(0.26458333,0,0,0.26458333,49.253236,55.298379)" /><g
       id="g13720"
       transform="matrix(0.26458333,0,0,0.26458333,18.006939,-99.253542)" /><g
       id="g18168"
       transform="matrix(0.26458333,0,0,0.26458333,27.213146,49.421226)" /><g
       id="g19915"
       transform="matrix(0.26458333,0,0,0.26458333,26.12976,83.272357)"><path
         d="m 0,0 c 0,-1.12 -0.8,-1.92 -1.76,-1.92 -1.12,0 -1.92,0.8 -1.92,1.92 0,0.96 0.8,1.92 1.92,1.92 C -0.8,1.92 0,0.96 0,0 Z"
         style="fill:#000000;fill-opacity:1;fill-rule:evenodd;stroke:none"
         id="path19917" /></g><g
       id="g19919"
       transform="matrix(0.26458333,0,0,0.26458333,26.12976,83.272357)"><path
         d="m 0,0 c 0,-1.12 -0.8,-1.92 -1.76,-1.92 -1.12,0 -1.92,0.8 -1.92,1.92 0,0.96 0.8,1.92 1.92,1.92 C -0.8,1.92 0,0.96 0,0 Z"
         style="fill:none;stroke:#000000;stroke-width:0.96;stroke-linecap:round;stroke-linejoin:round;stroke-miterlimit:10;stroke-dasharray:none;stroke-opacity:1"
         id="path19921" /></g><g
       id="g19923"
       transform="matrix(0.26458333,0,0,0.26458333,4.8784269,-45.293977)"><path
         d="m 147.52,489.76001 v -7.68002"
         style="fill:none;stroke:#000000;stroke-width:0.96;stroke-linecap:round;stroke-linejoin:round;stroke-miterlimit:10;stroke-dasharray:none;stroke-opacity:1"
         id="path19925" /></g><g
       id="g19927"
       transform="matrix(0.26458333,0,0,0.26458333,4.8784269,-45.293977)"><path
         d="m 80.32,485.92001 h 31.36"
         style="fill:none;stroke:#000000;stroke-width:0.96;stroke-linecap:round;stroke-linejoin:round;stroke-miterlimit:10;stroke-dasharray:none;stroke-opacity:1"
         id="path19929" /></g><g
       id="g19931"
       transform="matrix(0.26458333,0,0,0.26458333,4.8784269,-45.293977)"><path
         d="m 111.68,485.92001 c 9.92,0 17.92001,-8 17.92001,-17.92001 0,-9.92001 -8.00001,-17.92001 -17.92001,-17.92001"
         style="fill:none;stroke:#000000;stroke-width:0.96;stroke-linecap:round;stroke-linejoin:round;stroke-miterlimit:10;stroke-dasharray:none;stroke-opacity:1"
         id="path19933" /></g><g
       id="g19935"
       transform="matrix(0.26458333,0,0,0.26458333,4.8784269,-45.293977)"><path
         d="m 111.68,450.07999 c -9.76,0 -17.919998,8 -17.919998,17.92001 0,9.92001 8.159998,17.92001 17.919998,17.92001"
         style="fill:none;stroke:#000000;stroke-width:0.96;stroke-linecap:round;stroke-linejoin:round;stroke-miterlimit:10;stroke-dasharray:none;stroke-opacity:1"
         id="path19937" /></g><g
       id="g19939"
       transform="matrix(0.26458333,0,0,0.26458333,4.8784269,-45.293977)"><path
         d="m 111.68,485.92001 h 35.84"
         style="fill:none;stroke:#000000;stroke-width:0.96;stroke-linecap:round;stroke-linejoin:round;stroke-miterlimit:10;stroke-dasharray:none;stroke-opacity:1"
         id="path19941" /></g><g
       id="g19943"
       transform="matrix(0.26458333,0,0,0.26458333,26.12976,83.272357)"><path
         d="m 0,0 c 0,-1.12 -0.8,-1.92 -1.76,-1.92 -1.12,0 -1.92,0.8 -1.92,1.92 0,0.96 0.8,1.92 1.92,1.92 C -0.8,1.92 0,0.96 0,0 Z"
         style="fill:#000000;fill-opacity:1;fill-rule:evenodd;stroke:none"
         id="path19945" /></g><g
       id="g19947"
       transform="matrix(0.26458333,0,0,0.26458333,26.12976,83.272357)"><path
         d="m 0,0 c 0,-1.12 -0.8,-1.92 -1.76,-1.92 -1.12,0 -1.92,0.8 -1.92,1.92 0,0.96 0.8,1.92 1.92,1.92 C -0.8,1.92 0,0.96 0,0 Z"
         style="fill:none;stroke:#000000;stroke-width:0.96;stroke-linecap:round;stroke-linejoin:round;stroke-miterlimit:10;stroke-dasharray:none;stroke-opacity:1"
         id="path19949" /></g><g
       id="g19951"
       transform="matrix(0.26458333,0,0,0.26458333,4.8784269,-45.293977)"><path
         d="m 147.52,489.76001 v -7.68002"
         style="fill:none;stroke:#000000;stroke-width:0.96;stroke-linecap:round;stroke-linejoin:round;stroke-miterlimit:10;stroke-dasharray:none;stroke-opacity:1"
         id="path19953" /></g><g
       id="g19955"
       transform="matrix(0.26458333,0,0,0.26458333,4.8784269,-45.293977)"><path
         d="m 80.32,485.92001 h 31.36"
         style="fill:none;stroke:#000000;stroke-width:0.96;stroke-linecap:round;stroke-linejoin:round;stroke-miterlimit:10;stroke-dasharray:none;stroke-opacity:1"
         id="path19957" /></g><g
       id="g19959"
       transform="matrix(0.26458333,0,0,0.26458333,4.8784269,-45.293977)"><path
         d="m 111.68,485.92001 c 9.92,0 17.92001,-8 17.92001,-17.92001 0,-9.92001 -8.00001,-17.92001 -17.92001,-17.92001"
         style="fill:none;stroke:#000000;stroke-width:0.96;stroke-linecap:round;stroke-linejoin:round;stroke-miterlimit:10;stroke-dasharray:none;stroke-opacity:1"
         id="path19961" /></g><g
       id="g19963"
       transform="matrix(0.26458333,0,0,0.26458333,4.8784269,-45.293977)"><path
         d="m 111.68,450.07999 c -9.76,0 -17.919998,8 -17.919998,17.92001 0,9.92001 8.159998,17.92001 17.919998,17.92001"
         style="fill:none;stroke:#000000;stroke-width:0.96;stroke-linecap:round;stroke-linejoin:round;stroke-miterlimit:10;stroke-dasharray:none;stroke-opacity:1"
         id="path19965" /></g><g
       id="g19967"
       transform="matrix(0.26458333,0,0,0.26458333,4.8784269,-45.293977)"><path
         d="m 111.68,485.92001 h 35.84"
         style="fill:none;stroke:#000000;stroke-width:0.96;stroke-linecap:round;stroke-linejoin:round;stroke-miterlimit:10;stroke-dasharray:none;stroke-opacity:1"
         id="path19969" /></g></g></svg>
