<?xml version="1.0" standalone="no"?>
<!DOCTYPE svg PUBLIC "-//W3C//DTD SVG 1.2//EN" "http://www.w3.org/Graphics/SVG/1.2/DTD/svg12.dtd">
<svg xmlns="http://www.w3.org/2000/svg" version="1.2" baseProfile="tiny" id="selectedFigureSvg" width="100px" height="100px" viewBox="-178.27 -75.03 207.11 148.34"><g id="sequence"><g id="figure-2"><path d="M 0,0 m -4,0 a4,4 0 1 1 0,0.01" style="stroke: black; stroke-width: 1px; fill: black;"/><path d="M -4,0 l -40,0" style="stroke: black; stroke-width: 3px; fill: none;" class="line" id="figure-2-entry"/><path d="M -44,0 l -42.43,-42.43" style="stroke: black; stroke-width: 3px; fill: none;" class="line" id="figure-2-roll0-gap0"/><path d="M -86.43,-42.43 m -8.6,24.57 l -3.03,-12.16 l 7.73,2.07 z" style="stroke: black; stroke-width: 2px; fill: black;"/><path d="M -86.43,-42.43 m -8.6,24.57 a 30,30 0 0 1 8.6,-24.57 " style="stroke: black; stroke-width: 3px; fill: none;"/><path d="M -86.43,-42.43 l -14.14,-14.14" style="stroke-dasharray: 10, 8; stroke: red; stroke-width: 3px; fill: none; " class="line" id="figure-2-roll0-gap1"/><path d="M -100.57,-56.57 a40,40 0 0 0 -56.57,56.57" style="stroke: black; stroke-width: 3px; fill: none;"/><path d="M -157.14,0 l 56.57,56.57" style="stroke: black; stroke-width: 3px; fill: none;" class="line" id="figure-2-roll1-gap0"/><path d="M -100.57,56.57 l 120,0" style="stroke: black; stroke-width: 3px; fill: none;" class="line" id="figure-2-exit"/><path d="M 19.43,56.57 l 0,-10 l 0,20" style="stroke: black; stroke-width: 3px; fill: none;"/></g></g></svg>