<?xml version="1.0" encoding="UTF-8" standalone="no"?>
<!-- Created with Inkscape (http://www.inkscape.org/) -->

<svg
   width="11.44355mm"
   height="18.451618mm"
   viewBox="0 0 11.44355 18.451615"
   version="1.1"
   id="svg15577"
   inkscape:version="1.2.2 (732a01da63, 2022-12-09)"
   sodipodi:docname="5.svg"
   xml:space="preserve"
   xmlns:inkscape="http://www.inkscape.org/namespaces/inkscape"
   xmlns:sodipodi="http://sodipodi.sourceforge.net/DTD/sodipodi-0.dtd"
   xmlns="http://www.w3.org/2000/svg"
   xmlns:svg="http://www.w3.org/2000/svg"><sodipodi:namedview
     id="namedview15579"
     pagecolor="#ffffff"
     bordercolor="#000000"
     borderopacity="0.25"
     inkscape:showpageshadow="2"
     inkscape:pageopacity="0.0"
     inkscape:pagecheckerboard="true"
     inkscape:deskcolor="#d1d1d1"
     inkscape:document-units="mm"
     showgrid="false"
     showborder="false"
     inkscape:zoom="2.9825758"
     inkscape:cx="162.61113"
     inkscape:cy="50.292101"
     inkscape:window-width="1920"
     inkscape:window-height="1017"
     inkscape:window-x="1912"
     inkscape:window-y="-8"
     inkscape:window-maximized="1"
     inkscape:current-layer="layer1" /><defs
     id="defs15574" /><g
     inkscape:label="Layer 1"
     inkscape:groupmode="layer"
     id="layer1"
     transform="translate(-44.14257,-83.089935)"><g
       id="g15014"
       transform="matrix(0.26458333,0,0,0.26458333,49.253236,55.298379)" /><g
       id="g13720"
       transform="matrix(0.26458333,0,0,0.26458333,18.006939,-99.253542)" /><g
       id="g18168"
       transform="matrix(0.26458333,0,0,0.26458333,27.213146,49.421226)" /><g
       id="g19971"
       transform="matrix(0.26458333,0,0,0.26458333,49.008292,89.492259)"><path
         d="m 0,0 c 0,-1.12 -0.8,-1.92 -1.76,-1.92 -1.12,0 -1.92,0.8 -1.92,1.92 0,0.96 0.8,1.92 1.92,1.92 C -0.8,1.92 0,0.96 0,0 Z"
         style="fill:#000000;fill-opacity:1;fill-rule:evenodd;stroke:none"
         id="path19973" /></g><g
       id="g19975"
       transform="matrix(0.26458333,0,0,0.26458333,49.008292,89.492259)"><path
         d="m 0,0 c 0,-1.12 -0.8,-1.92 -1.76,-1.92 -1.12,0 -1.92,0.8 -1.92,1.92 0,0.96 0.8,1.92 1.92,1.92 C -0.8,1.92 0,0.96 0,0 Z"
         style="fill:none;stroke:#000000;stroke-width:0.96;stroke-linecap:round;stroke-linejoin:round;stroke-miterlimit:10;stroke-dasharray:none;stroke-opacity:1"
         id="path19977" /></g><g
       id="g19979"
       transform="matrix(0.26458333,0,0,0.26458333,20.517959,-50.842745)"><path
         d="m 96.160004,572.64001 v -7.67999"
         style="fill:none;stroke:#000000;stroke-width:0.96;stroke-linecap:round;stroke-linejoin:round;stroke-miterlimit:10;stroke-dasharray:none;stroke-opacity:1"
         id="path19981" /></g><g
       id="g19983"
       transform="matrix(0.26458333,0,0,0.26458333,20.517959,-50.842745)"><path
         d="m 107.68,530.40002 h 14.4 v -19.20001"
         style="fill:none;stroke:#000000;stroke-width:0.96;stroke-linecap:round;stroke-linejoin:round;stroke-miterlimit:10;stroke-dasharray:none;stroke-opacity:1"
         id="path19985" /></g><g
       id="g19987"
       transform="matrix(0.26458333,0,0,0.26458333,20.517959,-50.842745)"><path
         d="m 122.08,530.40002 v 38.39997"
         style="fill:none;stroke:#000000;stroke-width:0.96;stroke-linecap:round;stroke-linejoin:round;stroke-miterlimit:10;stroke-dasharray:none;stroke-opacity:1"
         id="path19989" /></g><g
       id="g19991"
       transform="matrix(0.26458333,0,0,0.26458333,20.517959,-50.842745)"><path
         d="M 122.08,568.79999 H 96.160004"
         style="fill:none;stroke:#000000;stroke-width:0.96;stroke-linecap:round;stroke-linejoin:round;stroke-miterlimit:10;stroke-dasharray:none;stroke-opacity:1"
         id="path19993" /></g><g
       id="g19995"
       transform="matrix(0.26458333,0,0,0.26458333,20.517959,-50.842745)"><path
         d="m 122.08,511.20001 1.92,3.83997"
         style="fill:none;stroke:#000000;stroke-width:0.96;stroke-linecap:round;stroke-linejoin:round;stroke-miterlimit:10;stroke-dasharray:none;stroke-opacity:1"
         id="path19997" /></g><g
       id="g19999"
       transform="matrix(0.26458333,0,0,0.26458333,49.008292,89.492259)"><path
         d="m 0,0 c 0,-1.12 -0.8,-1.92 -1.76,-1.92 -1.12,0 -1.92,0.8 -1.92,1.92 0,0.96 0.8,1.92 1.92,1.92 C -0.8,1.92 0,0.96 0,0 Z"
         style="fill:#000000;fill-opacity:1;fill-rule:evenodd;stroke:none"
         id="path20001" /></g><g
       id="g20003"
       transform="matrix(0.26458333,0,0,0.26458333,49.008292,89.492259)"><path
         d="m 0,0 c 0,-1.12 -0.8,-1.92 -1.76,-1.92 -1.12,0 -1.92,0.8 -1.92,1.92 0,0.96 0.8,1.92 1.92,1.92 C -0.8,1.92 0,0.96 0,0 Z"
         style="fill:none;stroke:#000000;stroke-width:0.96;stroke-linecap:round;stroke-linejoin:round;stroke-miterlimit:10;stroke-dasharray:none;stroke-opacity:1"
         id="path20005" /></g><g
       id="g20007"
       transform="matrix(0.26458333,0,0,0.26458333,20.517959,-50.842745)"><path
         d="m 96.160004,572.64001 v -7.67999"
         style="fill:none;stroke:#000000;stroke-width:0.96;stroke-linecap:round;stroke-linejoin:round;stroke-miterlimit:10;stroke-dasharray:none;stroke-opacity:1"
         id="path20009" /></g><g
       id="g20011"
       transform="matrix(0.26458333,0,0,0.26458333,20.517959,-50.842745)"><path
         d="m 107.68,530.40002 h 14.4 v -19.20001"
         style="fill:none;stroke:#000000;stroke-width:0.96;stroke-linecap:round;stroke-linejoin:round;stroke-miterlimit:10;stroke-dasharray:none;stroke-opacity:1"
         id="path20013" /></g><g
       id="g20015"
       transform="matrix(0.26458333,0,0,0.26458333,20.517959,-50.842745)"><path
         d="m 122.08,530.40002 v 38.39997"
         style="fill:none;stroke:#000000;stroke-width:0.96;stroke-linecap:round;stroke-linejoin:round;stroke-miterlimit:10;stroke-dasharray:none;stroke-opacity:1"
         id="path20017" /></g><g
       id="g20019"
       transform="matrix(0.26458333,0,0,0.26458333,20.517959,-50.842745)"><path
         d="M 122.08,568.79999 H 96.160004"
         style="fill:none;stroke:#000000;stroke-width:0.96;stroke-linecap:round;stroke-linejoin:round;stroke-miterlimit:10;stroke-dasharray:none;stroke-opacity:1"
         id="path20021" /></g><g
       id="g20023"
       transform="matrix(0.26458333,0,0,0.26458333,20.517959,-50.842745)"><path
         d="m 122.08,511.20001 1.92,3.83997"
         style="fill:none;stroke:#000000;stroke-width:0.96;stroke-linecap:round;stroke-linejoin:round;stroke-miterlimit:10;stroke-dasharray:none;stroke-opacity:1"
         id="path20025" /></g></g></svg>
