<?xml version="1.0" encoding="UTF-8" standalone="no"?>
<!-- Created with Inkscape (http://www.inkscape.org/) -->

<svg
   width="9.1777945mm"
   height="16.548918mm"
   viewBox="0 0 9.1777945 16.548918"
   version="1.1"
   id="svg7717"
   inkscape:version="1.2.2 (732a01da63, 2022-12-09)"
   sodipodi:docname="6.svg"
   xmlns:inkscape="http://www.inkscape.org/namespaces/inkscape"
   xmlns:sodipodi="http://sodipodi.sourceforge.net/DTD/sodipodi-0.dtd"
   xmlns="http://www.w3.org/2000/svg"
   xmlns:svg="http://www.w3.org/2000/svg">
  <sodipodi:namedview
     id="namedview7719"
     pagecolor="#ffffff"
     bordercolor="#000000"
     borderopacity="0.25"
     inkscape:showpageshadow="2"
     inkscape:pageopacity="0.0"
     inkscape:pagecheckerboard="0"
     inkscape:deskcolor="#d1d1d1"
     inkscape:document-units="mm"
     showgrid="false"
     inkscape:zoom="0.74564394"
     inkscape:cx="234.69647"
     inkscape:cy="124.72441"
     inkscape:window-width="1920"
     inkscape:window-height="1017"
     inkscape:window-x="-8"
     inkscape:window-y="-8"
     inkscape:window-maximized="1"
     inkscape:current-layer="layer1" />
  <defs
     id="defs7714" />
  <g
     inkscape:label="Layer 1"
     inkscape:groupmode="layer"
     id="layer1"
     transform="translate(-42.95949,-115.56425)">
    <path
       d="m 51.010159,124.89181 c 0,0.27517 0.224014,0.50095 0.499886,0.50095 0.276225,0 0.500239,-0.22578 0.500239,-0.50095 0,-0.27516 -0.224014,-0.50094 -0.500239,-0.50094 -0.275872,0 -0.499886,0.22578 -0.499886,0.50094 z"
       style="fill:#000000;fill-opacity:1;fill-rule:evenodd;stroke:none;stroke-width:0.352778"
       id="path1871" />
    <path
       d="m 51.010159,124.89181 c 0,0.27517 0.224014,0.50095 0.499886,0.50095 0.276225,0 0.500239,-0.22578 0.500239,-0.50095 0,-0.27516 -0.224014,-0.50094 -0.500239,-0.50094 -0.275872,0 -0.499886,0.22578 -0.499886,0.50094 z m -0.762,7.09436 v -1.99672 m 0.762,-5.09764 h -1.524 m 0,0 -5.82048,-5.82083 m 3.38208,-1.40053 v 13.31736 m 0,0 h 3.2004 m -6.58248,-11.91683 c -0.773289,-0.77258 -0.773289,-2.02847 3.53e-4,-2.80106 0.773641,-0.77258 2.027766,-0.77258 2.801408,0 0.371475,0.37042 0.580319,0.87489 0.580319,1.40053"
       style="fill:none;stroke:#000000;stroke-width:0.254;stroke-linecap:round;stroke-linejoin:round;stroke-miterlimit:10;stroke-dasharray:none;stroke-opacity:1"
       id="path1873" />
    <path
       d="m 51.010159,124.89181 c 0,0.27517 0.224014,0.50095 0.499886,0.50095 0.276225,0 0.500239,-0.22578 0.500239,-0.50095 0,-0.27516 -0.224014,-0.50094 -0.500239,-0.50094 -0.275872,0 -0.499886,0.22578 -0.499886,0.50094 z"
       style="fill:#000000;fill-opacity:1;fill-rule:evenodd;stroke:none;stroke-width:0.352778"
       id="path1875" />
    <path
       d="m 51.010159,124.89181 c 0,0.27517 0.224014,0.50095 0.499886,0.50095 0.276225,0 0.500239,-0.22578 0.500239,-0.50095 0,-0.27516 -0.224014,-0.50094 -0.500239,-0.50094 -0.275872,0 -0.499886,0.22578 -0.499886,0.50094 z m -0.762,7.09436 v -1.99672 m 0.762,-5.09764 h -1.524 m 0,0 -5.82048,-5.82083 m 3.38208,-1.40053 v 13.31736 m 0,0 h 3.2004 m -6.58248,-11.91683 c -0.773289,-0.77258 -0.773289,-2.02847 3.53e-4,-2.80106 0.773641,-0.77258 2.027766,-0.77258 2.801408,0 0.371475,0.37042 0.580319,0.87489 0.580319,1.40053"
       style="fill:none;stroke:#000000;stroke-width:0.254;stroke-linecap:round;stroke-linejoin:round;stroke-miterlimit:10;stroke-dasharray:none;stroke-opacity:1"
       id="path1877" />
    <path
       d="m 45.523759,124.28151 0.381,0.6103 0.3048,-0.49389 z"
       style="fill:#000000;fill-opacity:1;fill-rule:evenodd;stroke:none;stroke-width:0.352778"
       id="path1879" />
    <path
       d="m 47.047759,124.89181 c -0.559858,-0.0353 -1.093964,-0.25047 -1.524,-0.6103 m 0,0 0.381,0.6103 0.3048,-0.49389 z"
       style="fill:none;stroke:#000000;stroke-width:0.127;stroke-linecap:butt;stroke-linejoin:miter;stroke-miterlimit:2;stroke-dasharray:none;stroke-opacity:1"
       id="path1881" />
    <path
       d="m 45.523759,124.28151 0.381,0.6103 0.3048,-0.49389 z"
       style="fill:#000000;fill-opacity:1;fill-rule:evenodd;stroke:none;stroke-width:0.352778"
       id="path1883" />
    <path
       d="m 47.047759,124.89181 c -0.559858,-0.0353 -1.093964,-0.25047 -1.524,-0.6103 m 0,0 0.381,0.6103 0.3048,-0.49389 z"
       style="fill:none;stroke:#000000;stroke-width:0.127;stroke-linecap:butt;stroke-linejoin:miter;stroke-miterlimit:2;stroke-dasharray:none;stroke-opacity:1"
       id="path1885" />
  </g>
</svg>
