<?xml version="1.0" encoding="UTF-8" standalone="no"?>
<!-- Created with Inkscape (http://www.inkscape.org/) -->

<svg
   width="11.620966mm"
   height="18.451622mm"
   viewBox="0 0 11.620966 18.451619"
   version="1.1"
   id="svg15577"
   inkscape:version="1.2.2 (732a01da63, 2022-12-09)"
   sodipodi:docname="6.svg"
   xml:space="preserve"
   xmlns:inkscape="http://www.inkscape.org/namespaces/inkscape"
   xmlns:sodipodi="http://sodipodi.sourceforge.net/DTD/sodipodi-0.dtd"
   xmlns="http://www.w3.org/2000/svg"
   xmlns:svg="http://www.w3.org/2000/svg"><sodipodi:namedview
     id="namedview15579"
     pagecolor="#ffffff"
     bordercolor="#000000"
     borderopacity="0.25"
     inkscape:showpageshadow="2"
     inkscape:pageopacity="0.0"
     inkscape:pagecheckerboard="true"
     inkscape:deskcolor="#d1d1d1"
     inkscape:document-units="mm"
     showgrid="false"
     showborder="false"
     inkscape:zoom="2.9825758"
     inkscape:cx="122.37744"
     inkscape:cy="5.6997714"
     inkscape:window-width="1920"
     inkscape:window-height="1017"
     inkscape:window-x="1912"
     inkscape:window-y="-8"
     inkscape:window-maximized="1"
     inkscape:current-layer="layer1" /><defs
     id="defs15574" /><g
     inkscape:label="Layer 1"
     inkscape:groupmode="layer"
     id="layer1"
     transform="translate(-54.814358,-94.905678)"><g
       id="g15014"
       transform="matrix(0.26458333,0,0,0.26458333,49.253236,55.298379)" /><g
       id="g13720"
       transform="matrix(0.26458333,0,0,0.26458333,18.006939,-99.253542)" /><g
       id="g18168"
       transform="matrix(0.26458333,0,0,0.26458333,27.213146,49.421226)" /><g
       id="g20327"
       transform="matrix(0.26458333,0,0,0.26458333,64.165277,105.372)"><path
         d="M 0,0 C 0,0.96 0.96,1.92 1.92,1.92 3.04,1.92 3.84,0.96 3.84,0 3.84,-1.12 3.04,-1.92 1.92,-1.92 0.96,-1.92 0,-1.12 0,0 Z"
         style="fill:#000000;fill-opacity:1;fill-rule:evenodd;stroke:none"
         id="path20329" /></g><g
       id="g20331"
       transform="matrix(0.26458333,0,0,0.26458333,64.165277,105.372)"><path
         d="M 0,0 C 0,0.96 0.96,1.92 1.92,1.92 3.04,1.92 3.84,0.96 3.84,0 3.84,-1.12 3.04,-1.92 1.92,-1.92 0.96,-1.92 0,-1.12 0,0 Z"
         style="fill:none;stroke:#000000;stroke-width:0.96;stroke-linecap:round;stroke-linejoin:round;stroke-miterlimit:10;stroke-dasharray:none;stroke-opacity:1"
         id="path20333" /></g><g
       id="g20335"
       transform="matrix(0.26458333,0,0,0.26458333,30.213941,-58.076998)"><path
         d="m 125.44,644.64001 v -7.67999"
         style="fill:none;stroke:#000000;stroke-width:0.96;stroke-linecap:round;stroke-linejoin:round;stroke-miterlimit:10;stroke-dasharray:none;stroke-opacity:1"
         id="path20337" /></g><g
       id="g20339"
       transform="matrix(0.26458333,0,0,0.26458333,30.213941,-58.076998)"><path
         d="M 128.32001,617.76001 H 122.56"
         style="fill:none;stroke:#000000;stroke-width:0.96;stroke-linecap:round;stroke-linejoin:round;stroke-miterlimit:10;stroke-dasharray:none;stroke-opacity:1"
         id="path20341" /></g><g
       id="g20343"
       transform="matrix(0.26458333,0,0,0.26458333,30.213941,-58.076998)"><path
         d="M 122.56,617.76001 100.64,595.67999"
         style="fill:none;stroke:#000000;stroke-width:0.96;stroke-linecap:round;stroke-linejoin:round;stroke-miterlimit:10;stroke-dasharray:none;stroke-opacity:1"
         id="path20345" /></g><g
       id="g20347"
       transform="matrix(0.26458333,0,0,0.26458333,30.213941,-58.076998)"><path
         d="m 113.44,590.40002 v 50.39997"
         style="fill:none;stroke:#000000;stroke-width:0.96;stroke-linecap:round;stroke-linejoin:round;stroke-miterlimit:10;stroke-dasharray:none;stroke-opacity:1"
         id="path20349" /></g><g
       id="g20351"
       transform="matrix(0.26458333,0,0,0.26458333,30.213941,-58.076998)"><path
         d="m 113.44,640.79999 h 12"
         style="fill:none;stroke:#000000;stroke-width:0.96;stroke-linecap:round;stroke-linejoin:round;stroke-miterlimit:10;stroke-dasharray:none;stroke-opacity:1"
         id="path20353" /></g><g
       id="g20355"
       transform="matrix(0.26458333,0,0,0.26458333,56.841607,99.529997)"><path
         d="m 0,0 c -2.88,-2.88 -2.88,-7.52 0,-10.56 2.88,-2.88 7.68,-2.88 10.56,0 1.44,1.44 2.24,3.36 2.24,5.28"
         style="fill:none;stroke:#000000;stroke-width:0.96;stroke-linecap:round;stroke-linejoin:round;stroke-miterlimit:10;stroke-dasharray:none;stroke-opacity:1"
         id="path20357" /></g><g
       id="g20359"
       transform="matrix(0.26458333,0,0,0.26458333,64.165277,105.372)"><path
         d="M 0,0 C 0,0.96 0.96,1.92 1.92,1.92 3.04,1.92 3.84,0.96 3.84,0 3.84,-1.12 3.04,-1.92 1.92,-1.92 0.96,-1.92 0,-1.12 0,0 Z"
         style="fill:#000000;fill-opacity:1;fill-rule:evenodd;stroke:none"
         id="path20361" /></g><g
       id="g20363"
       transform="matrix(0.26458333,0,0,0.26458333,64.165277,105.372)"><path
         d="M 0,0 C 0,0.96 0.96,1.92 1.92,1.92 3.04,1.92 3.84,0.96 3.84,0 3.84,-1.12 3.04,-1.92 1.92,-1.92 0.96,-1.92 0,-1.12 0,0 Z"
         style="fill:none;stroke:#000000;stroke-width:0.96;stroke-linecap:round;stroke-linejoin:round;stroke-miterlimit:10;stroke-dasharray:none;stroke-opacity:1"
         id="path20365" /></g><g
       id="g20367"
       transform="matrix(0.26458333,0,0,0.26458333,30.213941,-58.076998)"><path
         d="m 125.44,644.64001 v -7.67999"
         style="fill:none;stroke:#000000;stroke-width:0.96;stroke-linecap:round;stroke-linejoin:round;stroke-miterlimit:10;stroke-dasharray:none;stroke-opacity:1"
         id="path20369" /></g><g
       id="g20371"
       transform="matrix(0.26458333,0,0,0.26458333,30.213941,-58.076998)"><path
         d="M 128.32001,617.76001 H 122.56"
         style="fill:none;stroke:#000000;stroke-width:0.96;stroke-linecap:round;stroke-linejoin:round;stroke-miterlimit:10;stroke-dasharray:none;stroke-opacity:1"
         id="path20373" /></g><g
       id="g20375"
       transform="matrix(0.26458333,0,0,0.26458333,30.213941,-58.076998)"><path
         d="M 122.56,617.76001 100.64,595.67999"
         style="fill:none;stroke:#000000;stroke-width:0.96;stroke-linecap:round;stroke-linejoin:round;stroke-miterlimit:10;stroke-dasharray:none;stroke-opacity:1"
         id="path20377" /></g><g
       id="g20379"
       transform="matrix(0.26458333,0,0,0.26458333,30.213941,-58.076998)"><path
         d="m 113.44,590.40002 v 50.39997"
         style="fill:none;stroke:#000000;stroke-width:0.96;stroke-linecap:round;stroke-linejoin:round;stroke-miterlimit:10;stroke-dasharray:none;stroke-opacity:1"
         id="path20381" /></g><g
       id="g20383"
       transform="matrix(0.26458333,0,0,0.26458333,30.213941,-58.076998)"><path
         d="m 113.44,640.79999 h 12"
         style="fill:none;stroke:#000000;stroke-width:0.96;stroke-linecap:round;stroke-linejoin:round;stroke-miterlimit:10;stroke-dasharray:none;stroke-opacity:1"
         id="path20385" /></g><g
       id="g20387"
       transform="matrix(0.26458333,0,0,0.26458333,56.841607,99.529997)"><path
         d="m 0,0 c -2.88,-2.88 -2.88,-7.52 0,-10.56 2.88,-2.88 7.68,-2.88 10.56,0 1.44,1.44 2.24,3.36 2.24,5.28"
         style="fill:none;stroke:#000000;stroke-width:0.96;stroke-linecap:round;stroke-linejoin:round;stroke-miterlimit:10;stroke-dasharray:none;stroke-opacity:1"
         id="path20389" /></g><g
       id="g20391"
       transform="matrix(0.26458333,0,0,0.26458333,30.213941,-58.076998)"><path
         d="m 107.68,615.52002 1.44,2.23999 1.12,-1.91998 z"
         style="fill:#000000;fill-opacity:1;fill-rule:evenodd;stroke:none"
         id="path20393" /></g><g
       id="g20395"
       transform="matrix(0.26458333,0,0,0.26458333,30.213941,-58.076998)"><path
         d="m 113.44,617.76001 c -2.08,-0.16003 -4.16,-0.96002 -5.76,-2.23999"
         style="fill:none;stroke:#000000;stroke-width:0.48;stroke-linecap:butt;stroke-linejoin:miter;stroke-miterlimit:2;stroke-dasharray:none;stroke-opacity:1"
         id="path20397" /></g><g
       id="g20399"
       transform="matrix(0.26458333,0,0,0.26458333,30.213941,-58.076998)"><path
         d="m 107.68,615.52002 1.44,2.23999 1.12,-1.91998 z"
         style="fill:none;stroke:#000000;stroke-width:0.48;stroke-linecap:butt;stroke-linejoin:miter;stroke-miterlimit:2;stroke-dasharray:none;stroke-opacity:1"
         id="path20401" /></g><g
       id="g20403"
       transform="matrix(0.26458333,0,0,0.26458333,30.213941,-58.076998)"><path
         d="m 107.68,615.52002 1.44,2.23999 1.12,-1.91998 z"
         style="fill:#000000;fill-opacity:1;fill-rule:evenodd;stroke:none"
         id="path20405" /></g><g
       id="g20407"
       transform="matrix(0.26458333,0,0,0.26458333,30.213941,-58.076998)"><path
         d="m 113.44,617.76001 c -2.08,-0.16003 -4.16,-0.96002 -5.76,-2.23999"
         style="fill:none;stroke:#000000;stroke-width:0.48;stroke-linecap:butt;stroke-linejoin:miter;stroke-miterlimit:2;stroke-dasharray:none;stroke-opacity:1"
         id="path20409" /></g><g
       id="g20411"
       transform="matrix(0.26458333,0,0,0.26458333,30.213941,-58.076998)"><path
         d="m 107.68,615.52002 1.44,2.23999 1.12,-1.91998 z"
         style="fill:none;stroke:#000000;stroke-width:0.48;stroke-linecap:butt;stroke-linejoin:miter;stroke-miterlimit:2;stroke-dasharray:none;stroke-opacity:1"
         id="path20413" /></g></g></svg>
