<?xml version="1.0" encoding="UTF-8" standalone="no"?>
<!-- Created with Inkscape (http://www.inkscape.org/) -->

<svg
   width="21.024193mm"
   height="15.524193mm"
   viewBox="0 0 21.024193 15.52419"
   version="1.1"
   id="svg15577"
   inkscape:version="1.2.2 (732a01da63, 2022-12-09)"
   sodipodi:docname="7.svg"
   xml:space="preserve"
   xmlns:inkscape="http://www.inkscape.org/namespaces/inkscape"
   xmlns:sodipodi="http://sodipodi.sourceforge.net/DTD/sodipodi-0.dtd"
   xmlns="http://www.w3.org/2000/svg"
   xmlns:svg="http://www.w3.org/2000/svg"><sodipodi:namedview
     id="namedview15579"
     pagecolor="#ffffff"
     bordercolor="#000000"
     borderopacity="0.25"
     inkscape:showpageshadow="2"
     inkscape:pageopacity="0.0"
     inkscape:pagecheckerboard="true"
     inkscape:deskcolor="#d1d1d1"
     inkscape:document-units="mm"
     showgrid="false"
     showborder="false"
     inkscape:zoom="2.9825758"
     inkscape:cx="200.49784"
     inkscape:cy="72.420625"
     inkscape:window-width="1920"
     inkscape:window-height="1017"
     inkscape:window-x="1912"
     inkscape:window-y="-8"
     inkscape:window-maximized="1"
     inkscape:current-layer="layer1" /><defs
     id="defs15574" /><g
     inkscape:label="Layer 1"
     inkscape:groupmode="layer"
     id="layer1"
     transform="translate(-34.171635,-77.269806)"><g
       id="g15014"
       transform="matrix(0.26458333,0,0,0.26458333,49.253236,55.298379)" /><g
       id="g13720"
       transform="matrix(0.26458333,0,0,0.26458333,18.006939,-99.253542)" /><g
       id="g18168"
       transform="matrix(0.26458333,0,0,0.26458333,27.213146,49.421226)" /><g
       id="g20415"
       transform="matrix(0.26458333,0,0,0.26458333,14.627665,-95.738675)"><path
         d="m 108.16,679.52002 15.68,-15.67999"
         style="fill:none;stroke:#ff0000;stroke-width:0.96;stroke-linecap:round;stroke-linejoin:round;stroke-miterlimit:10;stroke-dasharray:6.72, 4.8;stroke-dashoffset:0;stroke-opacity:1"
         id="path20417" /></g><g
       id="g20419"
       transform="matrix(0.26458333,0,0,0.26458333,14.627665,-95.738675)"><path
         d="M 133.75999,687.52002 H 133.44"
         style="fill:none;stroke:#ff0000;stroke-width:0.96;stroke-linecap:round;stroke-linejoin:round;stroke-miterlimit:10;stroke-dasharray:6.72, 4.8;stroke-dashoffset:0;stroke-opacity:1"
         id="path20421" /></g><g
       id="g20423"
       transform="matrix(0.26458333,0,0,0.26458333,38.630665,86.167661)"><path
         d="m 0,0 c 0,1.12 -0.8,1.92 -1.92,1.92 -0.96,0 -1.92,-0.8 -1.92,-1.92 0,-0.96 0.96,-1.76 1.92,-1.76 C -0.8,-1.76 0,-0.96 0,0 Z"
         style="fill:#000000;fill-opacity:1;fill-rule:evenodd;stroke:none"
         id="path20425" /></g><g
       id="g20427"
       transform="matrix(0.26458333,0,0,0.26458333,38.630665,86.167661)"><path
         d="m 0,0 c 0,1.12 -0.8,1.92 -1.92,1.92 -0.96,0 -1.92,-0.8 -1.92,-1.92 0,-0.96 0.96,-1.76 1.92,-1.76 C -0.8,-1.76 0,-0.96 0,0 Z"
         style="fill:none;stroke:#000000;stroke-width:0.96;stroke-linecap:round;stroke-linejoin:round;stroke-miterlimit:10;stroke-dasharray:none;stroke-opacity:1"
         id="path20429" /></g><g
       id="g20431"
       transform="matrix(0.26458333,0,0,0.26458333,14.627665,-95.738675)"><path
         d="M 79.839996,704.64001 V 689.44"
         style="fill:none;stroke:#000000;stroke-width:0.96;stroke-linecap:round;stroke-linejoin:round;stroke-miterlimit:10;stroke-dasharray:none;stroke-opacity:1"
         id="path20433" /></g><g
       id="g20435"
       transform="matrix(0.26458333,0,0,0.26458333,14.627665,-95.738675)"><path
         d="M 79.839996,696.96002 H 90.720001"
         style="fill:none;stroke:#000000;stroke-width:0.96;stroke-linecap:round;stroke-linejoin:round;stroke-miterlimit:10;stroke-dasharray:none;stroke-opacity:1"
         id="path20437" /></g><g
       id="g20439"
       transform="matrix(0.26458333,0,0,0.26458333,14.627665,-95.738675)"><path
         d="M 90.720001,696.96002 108.16,679.52002"
         style="fill:none;stroke:#000000;stroke-width:0.96;stroke-linecap:round;stroke-linejoin:round;stroke-miterlimit:10;stroke-dasharray:none;stroke-opacity:1"
         id="path20441" /></g><g
       id="g20443"
       transform="matrix(0.26458333,0,0,0.26458333,47.393665,79.902331)"><path
         d="m 0,0 c 5.44,-5.44 14.24,-5.44 19.68,0 5.440001,5.44 5.440001,14.24 0,19.68 -2.559999,2.56 -6.08,4 -9.76,4"
         style="fill:none;stroke:#000000;stroke-width:0.96;stroke-linecap:round;stroke-linejoin:round;stroke-miterlimit:10;stroke-dasharray:none;stroke-opacity:1"
         id="path20445" /></g><g
       id="g20447"
       transform="matrix(0.26458333,0,0,0.26458333,14.627665,-95.738675)"><path
         d="M 133.44,687.52002 H 90.720001"
         style="fill:none;stroke:#000000;stroke-width:0.96;stroke-linecap:round;stroke-linejoin:round;stroke-miterlimit:10;stroke-dasharray:none;stroke-opacity:1"
         id="path20449" /></g><g
       id="g20451"
       transform="matrix(0.26458333,0,0,0.26458333,14.627665,-95.738675)"><path
         d="m 108.16,679.52002 15.68,-15.67999"
         style="fill:none;stroke:#ff0000;stroke-width:0.96;stroke-linecap:round;stroke-linejoin:round;stroke-miterlimit:10;stroke-dasharray:6.72, 4.8;stroke-dashoffset:0;stroke-opacity:1"
         id="path20453" /></g><g
       id="g20455"
       transform="matrix(0.26458333,0,0,0.26458333,14.627665,-95.738675)"><path
         d="M 133.75999,687.52002 H 133.44"
         style="fill:none;stroke:#ff0000;stroke-width:0.96;stroke-linecap:round;stroke-linejoin:round;stroke-miterlimit:10;stroke-dasharray:6.72, 4.8;stroke-dashoffset:0;stroke-opacity:1"
         id="path20457" /></g><g
       id="g20459"
       transform="matrix(0.26458333,0,0,0.26458333,38.630665,86.167661)"><path
         d="m 0,0 c 0,1.12 -0.8,1.92 -1.92,1.92 -0.96,0 -1.92,-0.8 -1.92,-1.92 0,-0.96 0.96,-1.76 1.92,-1.76 C -0.8,-1.76 0,-0.96 0,0 Z"
         style="fill:#000000;fill-opacity:1;fill-rule:evenodd;stroke:none"
         id="path20461" /></g><g
       id="g20463"
       transform="matrix(0.26458333,0,0,0.26458333,38.630665,86.167661)"><path
         d="m 0,0 c 0,1.12 -0.8,1.92 -1.92,1.92 -0.96,0 -1.92,-0.8 -1.92,-1.92 0,-0.96 0.96,-1.76 1.92,-1.76 C -0.8,-1.76 0,-0.96 0,0 Z"
         style="fill:none;stroke:#000000;stroke-width:0.96;stroke-linecap:round;stroke-linejoin:round;stroke-miterlimit:10;stroke-dasharray:none;stroke-opacity:1"
         id="path20465" /></g><g
       id="g20467"
       transform="matrix(0.26458333,0,0,0.26458333,14.627665,-95.738675)"><path
         d="M 79.839996,704.64001 V 689.44"
         style="fill:none;stroke:#000000;stroke-width:0.96;stroke-linecap:round;stroke-linejoin:round;stroke-miterlimit:10;stroke-dasharray:none;stroke-opacity:1"
         id="path20469" /></g><g
       id="g20471"
       transform="matrix(0.26458333,0,0,0.26458333,14.627665,-95.738675)"><path
         d="M 79.839996,696.96002 H 90.720001"
         style="fill:none;stroke:#000000;stroke-width:0.96;stroke-linecap:round;stroke-linejoin:round;stroke-miterlimit:10;stroke-dasharray:none;stroke-opacity:1"
         id="path20473" /></g><g
       id="g20475"
       transform="matrix(0.26458333,0,0,0.26458333,14.627665,-95.738675)"><path
         d="M 90.720001,696.96002 108.16,679.52002"
         style="fill:none;stroke:#000000;stroke-width:0.96;stroke-linecap:round;stroke-linejoin:round;stroke-miterlimit:10;stroke-dasharray:none;stroke-opacity:1"
         id="path20477" /></g><g
       id="g20479"
       transform="matrix(0.26458333,0,0,0.26458333,47.393665,79.902331)"><path
         d="m 0,0 c 5.44,-5.44 14.24,-5.44 19.68,0 5.440001,5.44 5.440001,14.24 0,19.68 -2.559999,2.56 -6.08,4 -9.76,4"
         style="fill:none;stroke:#000000;stroke-width:0.96;stroke-linecap:round;stroke-linejoin:round;stroke-miterlimit:10;stroke-dasharray:none;stroke-opacity:1"
         id="path20481" /></g><g
       id="g20483"
       transform="matrix(0.26458333,0,0,0.26458333,14.627665,-95.738675)"><path
         d="M 133.44,687.52002 H 90.720001"
         style="fill:none;stroke:#000000;stroke-width:0.96;stroke-linecap:round;stroke-linejoin:round;stroke-miterlimit:10;stroke-dasharray:none;stroke-opacity:1"
         id="path20485" /></g><g
       id="g20487"
       transform="matrix(0.26458333,0,0,0.26458333,14.627665,-95.738675)"><path
         d="m 104.16,671.03998 -0.96,4.32 3.52,-0.79998 z"
         style="fill:#000000;fill-opacity:1;fill-rule:evenodd;stroke:none"
         id="path20489" /></g><g
       id="g20491"
       transform="matrix(0.26458333,0,0,0.26458333,14.627665,-95.738675)"><path
         d="m 108.16,680.47998 c -2.24,-2.71997 -3.68,-5.91998 -4,-9.44"
         style="fill:none;stroke:#000000;stroke-width:0.64;stroke-linecap:butt;stroke-linejoin:miter;stroke-miterlimit:2;stroke-dasharray:none;stroke-opacity:1"
         id="path20493" /></g><g
       id="g20495"
       transform="matrix(0.26458333,0,0,0.26458333,14.627665,-95.738675)"><path
         d="m 104.16,671.03998 -0.96,4.32 3.52,-0.79998 z"
         style="fill:none;stroke:#000000;stroke-width:0.64;stroke-linecap:butt;stroke-linejoin:miter;stroke-miterlimit:2;stroke-dasharray:none;stroke-opacity:1"
         id="path20497" /></g><g
       id="g20499"
       transform="matrix(0.26458333,0,0,0.26458333,14.627665,-95.738675)"><path
         d="m 104.16,671.03998 -0.96,4.32 3.52,-0.79998 z"
         style="fill:#000000;fill-opacity:1;fill-rule:evenodd;stroke:none"
         id="path20501" /></g><g
       id="g20503"
       transform="matrix(0.26458333,0,0,0.26458333,14.627665,-95.738675)"><path
         d="m 108.16,680.47998 c -2.24,-2.71997 -3.68,-5.91998 -4,-9.44"
         style="fill:none;stroke:#000000;stroke-width:0.64;stroke-linecap:butt;stroke-linejoin:miter;stroke-miterlimit:2;stroke-dasharray:none;stroke-opacity:1"
         id="path20505" /></g><g
       id="g20507"
       transform="matrix(0.26458333,0,0,0.26458333,14.627665,-95.738675)"><path
         d="m 104.16,671.03998 -0.96,4.32 3.52,-0.79998 z"
         style="fill:none;stroke:#000000;stroke-width:0.64;stroke-linecap:butt;stroke-linejoin:miter;stroke-miterlimit:2;stroke-dasharray:none;stroke-opacity:1"
         id="path20509" /></g></g></svg>
