<?xml version="1.0" standalone="no"?>
<!DOCTYPE svg PUBLIC "-//W3C//DTD SVG 1.2//EN" "http://www.w3.org/Graphics/SVG/1.2/DTD/svg12.dtd">
<svg xmlns="http://www.w3.org/2000/svg" version="1.2" baseProfile="tiny" id="selectedFigureSvg" width="100px" height="100px" viewBox="-125.65 -137.65 137.6 234.3"><g id="sequence"><g id="figure-2"><path d="M 0,0 m -4,0 a4,4 0 1 1 0,0.01" style="stroke: black; stroke-width: 1px; fill: black;"/><path d="M -4,0 l -28,0" style="stroke: black; stroke-width: 3px; fill: none;" class="line" id="figure-2-entry"/><path d="M -32,0 l -79.2,-79.2" style="stroke: black; stroke-width: 3px; fill: none;" class="line" id="figure-2-roll0-gap0"/><path d="M -111.2,-79.2 a28,28 0 1 1 47.8,-19.8" style="stroke: black; stroke-width: 3px; fill: none;"/><path d="M -63.4,-99 l 0,105" style="stroke: black; stroke-width: 3px; fill: none;" class="line" id="figure-2-roll1-gap0"/><path d="M -63.4,6 m -23.45,-11.3 l 6.45,10.74 l 4,-6.93 z" style="stroke: black; stroke-width: 2px; fill: black;"/><path d="M -63.4,6 m -23.45,-11.3 a 30,30 0 0 0 23.45,11.3 " style="stroke: black; stroke-width: 3px; fill: none;"/><path d="M -63.4,6 l 0,70" style="stroke: black; stroke-width: 3px; fill: none;" class="line" id="figure-2-roll1-gap1"/><path d="M -63.4,76 l 28,0" style="stroke: black; stroke-width: 3px; fill: none;" class="line" id="figure-2-exit"/><path d="M -35.4,76 l 0,-10 l 0,20" style="stroke: black; stroke-width: 3px; fill: none;"/></g></g></svg>