<?xml version="1.0" encoding="UTF-8" standalone="no"?>
<!-- Created with Inkscape (http://www.inkscape.org/) -->

<svg
   width="15.435482mm"
   height="14.637107mm"
   viewBox="0 0 15.435482 14.637104"
   version="1.1"
   id="svg15577"
   inkscape:version="1.2.2 (732a01da63, 2022-12-09)"
   sodipodi:docname="8.svg"
   xml:space="preserve"
   xmlns:inkscape="http://www.inkscape.org/namespaces/inkscape"
   xmlns:sodipodi="http://sodipodi.sourceforge.net/DTD/sodipodi-0.dtd"
   xmlns="http://www.w3.org/2000/svg"
   xmlns:svg="http://www.w3.org/2000/svg"><sodipodi:namedview
     id="namedview15579"
     pagecolor="#ffffff"
     bordercolor="#000000"
     borderopacity="0.25"
     inkscape:showpageshadow="2"
     inkscape:pageopacity="0.0"
     inkscape:pagecheckerboard="true"
     inkscape:deskcolor="#d1d1d1"
     inkscape:document-units="mm"
     showgrid="false"
     showborder="false"
     inkscape:zoom="2.9825758"
     inkscape:cx="138.47092"
     inkscape:cy="12.405385"
     inkscape:window-width="1920"
     inkscape:window-height="1017"
     inkscape:window-x="1912"
     inkscape:window-y="-8"
     inkscape:window-maximized="1"
     inkscape:current-layer="layer1" /><defs
     id="defs15574" /><g
     inkscape:label="Layer 1"
     inkscape:groupmode="layer"
     id="layer1"
     transform="translate(-50.609554,-93.166191)"><g
       id="g15014"
       transform="matrix(0.26458333,0,0,0.26458333,49.253236,55.298379)" /><g
       id="g13720"
       transform="matrix(0.26458333,0,0,0.26458333,18.006939,-99.253542)" /><g
       id="g18168"
       transform="matrix(0.26458333,0,0,0.26458333,27.213146,49.421226)" /><g
       id="g20511"
       transform="matrix(0.26458333,0,0,0.26458333,61.958458,105.68449)"><path
         d="m 0,0 c 0,-0.96 0.8,-1.92 1.92,-1.92 0.96,0 1.92,0.96 1.92,1.92 0,1.12 -0.96,1.92 -1.92,1.92 C 0.8,1.92 0,1.12 0,0 Z"
         style="fill:#000000;fill-opacity:1;fill-rule:evenodd;stroke:none"
         id="path20513" /></g><g
       id="g20515"
       transform="matrix(0.26458333,0,0,0.26458333,61.958458,105.68449)"><path
         d="m 0,0 c 0,-0.96 0.8,-1.92 1.92,-1.92 0.96,0 1.92,0.96 1.92,1.92 0,1.12 -0.96,1.92 -1.92,1.92 C 0.8,1.92 0,1.12 0,0 Z"
         style="fill:none;stroke:#000000;stroke-width:0.96;stroke-linecap:round;stroke-linejoin:round;stroke-miterlimit:10;stroke-dasharray:none;stroke-opacity:1"
         id="path20517" /></g><g
       id="g20519"
       transform="matrix(0.26458333,0,0,0.26458333,28.049458,-99.335837)"><path
         d="m 137.60001,740.79999 v -7.51996"
         style="fill:none;stroke:#000000;stroke-width:0.96;stroke-linecap:round;stroke-linejoin:round;stroke-miterlimit:10;stroke-dasharray:none;stroke-opacity:1"
         id="path20521" /></g><g
       id="g20523"
       transform="matrix(0.26458333,0,0,0.26458333,28.049458,-99.335837)"><path
         d="M 128.16,774.88 H 109.28"
         style="fill:none;stroke:#000000;stroke-width:0.96;stroke-linecap:round;stroke-linejoin:round;stroke-miterlimit:10;stroke-dasharray:none;stroke-opacity:1"
         id="path20525" /></g><g
       id="g20527"
       transform="matrix(0.26458333,0,0,0.26458333,28.049458,-99.335837)"><path
         d="m 109.28,774.88 c -10.400003,0 -18.879998,-8.47998 -18.879998,-18.88 0,-10.40002 8.479995,-18.88 18.879998,-18.88"
         style="fill:none;stroke:#000000;stroke-width:0.96;stroke-linecap:round;stroke-linejoin:round;stroke-miterlimit:10;stroke-dasharray:none;stroke-opacity:1"
         id="path20529" /></g><g
       id="g20531"
       transform="matrix(0.26458333,0,0,0.26458333,28.049458,-99.335837)"><path
         d="m 109.28,737.12 h 28.32001"
         style="fill:none;stroke:#000000;stroke-width:0.96;stroke-linecap:round;stroke-linejoin:round;stroke-miterlimit:10;stroke-dasharray:none;stroke-opacity:1"
         id="path20533" /></g><g
       id="g20535"
       transform="matrix(0.26458333,0,0,0.26458333,61.958458,105.68449)"><path
         d="m 0,0 c 0,-0.96 0.8,-1.92 1.92,-1.92 0.96,0 1.92,0.96 1.92,1.92 0,1.12 -0.96,1.92 -1.92,1.92 C 0.8,1.92 0,1.12 0,0 Z"
         style="fill:#000000;fill-opacity:1;fill-rule:evenodd;stroke:none"
         id="path20537" /></g><g
       id="g20539"
       transform="matrix(0.26458333,0,0,0.26458333,61.958458,105.68449)"><path
         d="m 0,0 c 0,-0.96 0.8,-1.92 1.92,-1.92 0.96,0 1.92,0.96 1.92,1.92 0,1.12 -0.96,1.92 -1.92,1.92 C 0.8,1.92 0,1.12 0,0 Z"
         style="fill:none;stroke:#000000;stroke-width:0.96;stroke-linecap:round;stroke-linejoin:round;stroke-miterlimit:10;stroke-dasharray:none;stroke-opacity:1"
         id="path20541" /></g><g
       id="g20543"
       transform="matrix(0.26458333,0,0,0.26458333,28.049458,-99.335837)"><path
         d="m 137.60001,740.79999 v -7.51996"
         style="fill:none;stroke:#000000;stroke-width:0.96;stroke-linecap:round;stroke-linejoin:round;stroke-miterlimit:10;stroke-dasharray:none;stroke-opacity:1"
         id="path20545" /></g><g
       id="g20547"
       transform="matrix(0.26458333,0,0,0.26458333,28.049458,-99.335837)"><path
         d="M 128.16,774.88 H 109.28"
         style="fill:none;stroke:#000000;stroke-width:0.96;stroke-linecap:round;stroke-linejoin:round;stroke-miterlimit:10;stroke-dasharray:none;stroke-opacity:1"
         id="path20549" /></g><g
       id="g20551"
       transform="matrix(0.26458333,0,0,0.26458333,28.049458,-99.335837)"><path
         d="m 109.28,774.88 c -10.400003,0 -18.879998,-8.47998 -18.879998,-18.88 0,-10.40002 8.479995,-18.88 18.879998,-18.88"
         style="fill:none;stroke:#000000;stroke-width:0.96;stroke-linecap:round;stroke-linejoin:round;stroke-miterlimit:10;stroke-dasharray:none;stroke-opacity:1"
         id="path20553" /></g><g
       id="g20555"
       transform="matrix(0.26458333,0,0,0.26458333,28.049458,-99.335837)"><path
         d="m 109.28,737.12 h 28.32001"
         style="fill:none;stroke:#000000;stroke-width:0.96;stroke-linecap:round;stroke-linejoin:round;stroke-miterlimit:10;stroke-dasharray:none;stroke-opacity:1"
         id="path20557" /></g><g
       id="g20559"
       transform="matrix(0.26458333,0,0,0.26458333,28.049458,-99.335837)"><path
         d="m 105.44,746.56 3.84,-2.40003 -3.04,-1.91998 z"
         style="fill:#000000;fill-opacity:1;fill-rule:evenodd;stroke:none"
         id="path20561" /></g><g
       id="g20563"
       transform="matrix(0.26458333,0,0,0.26458333,28.049458,-99.335837)"><path
         d="m 109.28,737.12 c -0.16,3.52001 -1.6,6.72003 -3.84,9.44"
         style="fill:none;stroke:#000000;stroke-width:0.48;stroke-linecap:butt;stroke-linejoin:miter;stroke-miterlimit:2;stroke-dasharray:none;stroke-opacity:1"
         id="path20565" /></g><g
       id="g20567"
       transform="matrix(0.26458333,0,0,0.26458333,28.049458,-99.335837)"><path
         d="m 105.44,746.56 3.84,-2.40003 -3.04,-1.91998 z"
         style="fill:none;stroke:#000000;stroke-width:0.48;stroke-linecap:butt;stroke-linejoin:miter;stroke-miterlimit:2;stroke-dasharray:none;stroke-opacity:1"
         id="path20569" /></g><g
       id="g20571"
       transform="matrix(0.26458333,0,0,0.26458333,28.049458,-99.335837)"><path
         d="m 105.44,746.56 3.84,-2.40003 -3.04,-1.91998 z"
         style="fill:#000000;fill-opacity:1;fill-rule:evenodd;stroke:none"
         id="path20573" /></g><g
       id="g20575"
       transform="matrix(0.26458333,0,0,0.26458333,28.049458,-99.335837)"><path
         d="m 109.28,737.12 c -0.16,3.52001 -1.6,6.72003 -3.84,9.44"
         style="fill:none;stroke:#000000;stroke-width:0.48;stroke-linecap:butt;stroke-linejoin:miter;stroke-miterlimit:2;stroke-dasharray:none;stroke-opacity:1"
         id="path20577" /></g><g
       id="g20579"
       transform="matrix(0.26458333,0,0,0.26458333,28.049458,-99.335837)"><path
         d="m 105.44,746.56 3.84,-2.40003 -3.04,-1.91998 z"
         style="fill:none;stroke:#000000;stroke-width:0.48;stroke-linecap:butt;stroke-linejoin:miter;stroke-miterlimit:2;stroke-dasharray:none;stroke-opacity:1"
         id="path20581" /></g></g></svg>
