<?xml version="1.0" encoding="UTF-8" standalone="no"?>
<!-- Created with Inkscape (http://www.inkscape.org/) -->

<svg
   width="12.755385mm"
   height="11.75456mm"
   viewBox="0 0 12.755385 11.75456"
   version="1.1"
   id="svg7997"
   inkscape:version="1.2.2 (732a01da63, 2022-12-09)"
   sodipodi:docname="8.svg"
   xmlns:inkscape="http://www.inkscape.org/namespaces/inkscape"
   xmlns:sodipodi="http://sodipodi.sourceforge.net/DTD/sodipodi-0.dtd"
   xmlns="http://www.w3.org/2000/svg"
   xmlns:svg="http://www.w3.org/2000/svg">
  <sodipodi:namedview
     id="namedview7999"
     pagecolor="#ffffff"
     bordercolor="#000000"
     borderopacity="0.25"
     inkscape:showpageshadow="2"
     inkscape:pageopacity="0.0"
     inkscape:pagecheckerboard="0"
     inkscape:deskcolor="#d1d1d1"
     inkscape:document-units="mm"
     showgrid="false"
     inkscape:zoom="0.74564394"
     inkscape:cx="154.22911"
     inkscape:cy="108.63094"
     inkscape:window-width="1920"
     inkscape:window-height="1017"
     inkscape:window-x="-8"
     inkscape:window-y="-8"
     inkscape:window-maximized="1"
     inkscape:current-layer="layer1" />
  <defs
     id="defs7994">
    <clipPath
       clipPathUnits="userSpaceOnUse"
       id="clipPath1957">
      <path
         d="M 0,792 H 612 V 2.4414e-4 H 0"
         clip-rule="evenodd"
         id="path1955" />
    </clipPath>
    <clipPath
       clipPathUnits="userSpaceOnUse"
       id="clipPath1967">
      <path
         d="M 0,792 H 612 V 2.4414e-4 H 0"
         clip-rule="evenodd"
         id="path1965" />
    </clipPath>
    <clipPath
       clipPathUnits="userSpaceOnUse"
       id="clipPath1977">
      <path
         d="M 0,792 H 612 V 2.4414e-4 H 0"
         clip-rule="evenodd"
         id="path1975" />
    </clipPath>
    <clipPath
       clipPathUnits="userSpaceOnUse"
       id="clipPath1987">
      <path
         d="M 0,792 H 612 V 2.4414e-4 H 0"
         clip-rule="evenodd"
         id="path1985" />
    </clipPath>
  </defs>
  <g
     inkscape:label="Layer 1"
     inkscape:groupmode="layer"
     id="layer1"
     transform="translate(-64.235211,-120.09046)">
    <path
       d="m 74.362402,131.21707 c 0,-0.27516 0.223661,-0.49741 0.499886,-0.49741 0.276225,0 0.500239,0.22225 0.500239,0.49741 0,0.2787 -0.224014,0.50095 -0.500239,0.50095 -0.276225,0 -0.499886,-0.22225 -0.499886,-0.50095 z"
       style="fill:#000000;fill-opacity:1;fill-rule:evenodd;stroke:none;stroke-width:0.352778"
       id="path1943" />
    <path
       d="m 74.362402,131.21707 c 0,-0.27516 0.223661,-0.49741 0.499886,-0.49741 0.276225,0 0.500239,0.22225 0.500239,0.49741 0,0.2787 -0.224014,0.50095 -0.500239,0.50095 -0.276225,0 -0.499886,-0.22225 -0.499886,-0.50095 z m 2.501194,-8.99936 v -2.00025 m -2.501194,10.99961 h -4.999919 m 0,0 c -2.761545,0 -5.000272,-2.23661 -5.000272,-4.99886 0,-2.76225 2.238727,-4.99886 5.000272,-4.99886 m 0,0 h 7.501113"
       style="fill:none;stroke:#000000;stroke-width:0.254;stroke-linecap:round;stroke-linejoin:round;stroke-miterlimit:2;stroke-dasharray:none;stroke-opacity:1"
       id="path1945" />
    <path
       d="m 74.362402,131.21707 c 0,-0.27516 0.223661,-0.49741 0.499886,-0.49741 0.276225,0 0.500239,0.22225 0.500239,0.49741 0,0.2787 -0.224014,0.50095 -0.500239,0.50095 -0.276225,0 -0.499886,-0.22225 -0.499886,-0.50095 z"
       style="fill:#000000;fill-opacity:1;fill-rule:evenodd;stroke:none;stroke-width:0.352778"
       id="path1947" />
    <path
       d="m 74.362402,131.21707 c 0,-0.27516 0.223661,-0.49741 0.499886,-0.49741 0.276225,0 0.500239,0.22225 0.500239,0.49741 0,0.2787 -0.224014,0.50095 -0.500239,0.50095 -0.276225,0 -0.499886,-0.22225 -0.499886,-0.50095 z m 2.501194,-8.99936 v -2.00025 m -2.501194,10.99961 h -4.999919 m 0,0 c -2.761545,0 -5.000272,-2.23661 -5.000272,-4.99886 0,-2.76225 2.238727,-4.99886 5.000272,-4.99886 m 0,0 h 7.501113"
       style="fill:none;stroke:#000000;stroke-width:0.254;stroke-linecap:round;stroke-linejoin:round;stroke-miterlimit:2;stroke-dasharray:none;stroke-opacity:1"
       id="path1949" />
    <g
       id="g1951"
       transform="matrix(0.35277777,0,0,-0.35277777,40.449875,205.59321)">
      <g
         id="g1953"
         clip-path="url(#clipPath1957)">
        <path
           d="m 79.122,232.09 2.835,1.77 -2.303,1.42 z"
           style="fill:#000000;fill-opacity:1;fill-rule:evenodd;stroke:none"
           id="path1959" />
      </g>
    </g>
    <g
       id="g1961"
       transform="matrix(0.35277777,0,0,-0.35277777,40.449875,205.59321)">
      <g
         id="g1963"
         clip-path="url(#clipPath1967)">
        <path
           d="m 81.957,239.17 c -0.165,-2.6 -1.158,-5.08 -2.835,-7.08 m 0,0 2.835,1.77 -2.303,1.42 z"
           style="fill:none;stroke:#000000;stroke-width:0.36;stroke-linecap:butt;stroke-linejoin:miter;stroke-miterlimit:2;stroke-dasharray:none;stroke-opacity:1"
           id="path1969" />
      </g>
    </g>
    <g
       id="g1971"
       transform="matrix(0.35277777,0,0,-0.35277777,40.449875,205.59321)">
      <g
         id="g1973"
         clip-path="url(#clipPath1977)">
        <path
           d="m 79.122,232.09 2.835,1.77 -2.303,1.42 z"
           style="fill:#000000;fill-opacity:1;fill-rule:evenodd;stroke:none"
           id="path1979" />
      </g>
    </g>
    <g
       id="g1981"
       transform="matrix(0.35277777,0,0,-0.35277777,40.449875,205.59321)">
      <g
         id="g1983"
         clip-path="url(#clipPath1987)">
        <path
           d="m 81.957,239.17 c -0.165,-2.6 -1.158,-5.08 -2.835,-7.08 m 0,0 2.835,1.77 -2.303,1.42 z"
           style="fill:none;stroke:#000000;stroke-width:0.36;stroke-linecap:butt;stroke-linejoin:miter;stroke-miterlimit:2;stroke-dasharray:none;stroke-opacity:1"
           id="path1989" />
      </g>
    </g>
  </g>
</svg>
