<?xml version="1.0" encoding="UTF-8" standalone="no"?>
<!-- Created with Inkscape (http://www.inkscape.org/) -->

<svg
   width="12.241935mm"
   height="18.717747mm"
   viewBox="0 0 12.241935 18.717743"
   version="1.1"
   id="svg15577"
   inkscape:version="1.2.2 (732a01da63, 2022-12-09)"
   sodipodi:docname="9.svg"
   xml:space="preserve"
   xmlns:inkscape="http://www.inkscape.org/namespaces/inkscape"
   xmlns:sodipodi="http://sodipodi.sourceforge.net/DTD/sodipodi-0.dtd"
   xmlns="http://www.w3.org/2000/svg"
   xmlns:svg="http://www.w3.org/2000/svg"><sodipodi:namedview
     id="namedview15579"
     pagecolor="#ffffff"
     bordercolor="#000000"
     borderopacity="0.25"
     inkscape:showpageshadow="2"
     inkscape:pageopacity="0.0"
     inkscape:pagecheckerboard="true"
     inkscape:deskcolor="#d1d1d1"
     inkscape:document-units="mm"
     showgrid="false"
     showborder="false"
     inkscape:zoom="2.9825758"
     inkscape:cx="272.58319"
     inkscape:cy="109.3015"
     inkscape:window-width="1920"
     inkscape:window-height="1017"
     inkscape:window-x="1912"
     inkscape:window-y="-8"
     inkscape:window-maximized="1"
     inkscape:current-layer="layer1" /><defs
     id="defs15574" /><g
     inkscape:label="Layer 1"
     inkscape:groupmode="layer"
     id="layer1"
     transform="translate(-15.152312,-67.546448)"><g
       id="g15014"
       transform="matrix(0.26458333,0,0,0.26458333,49.253236,55.298379)" /><g
       id="g13720"
       transform="matrix(0.26458333,0,0,0.26458333,18.006939,-99.253542)" /><g
       id="g18168"
       transform="matrix(0.26458333,0,0,0.26458333,27.213146,49.421226)" /><g
       id="g20583"
       transform="matrix(0.26458333,0,0,0.26458333,-7.496494,-142.40881)"><path
         d="m 113.92,799.67999 v 56.64002"
         style="fill:none;stroke:#ff0000;stroke-width:0.96;stroke-linecap:round;stroke-linejoin:round;stroke-miterlimit:10;stroke-dasharray:2.88, 2.88;stroke-dashoffset:0;stroke-opacity:1"
         id="path20585" /></g><g
       id="g20587"
       transform="matrix(0.26458333,0,0,0.26458333,17.649506,69.173185)"><path
         d="m 0,0 c 0,0.96 -0.8,1.92 -1.76,1.92 -1.12,0 -1.92,-0.96 -1.92,-1.92 0,-1.12 0.8,-1.92 1.92,-1.92 C -0.8,-1.92 0,-1.12 0,0 Z"
         style="fill:#000000;fill-opacity:1;fill-rule:evenodd;stroke:none"
         id="path20589" /></g><g
       id="g20591"
       transform="matrix(0.26458333,0,0,0.26458333,17.649506,69.173185)"><path
         d="m 0,0 c 0,0.96 -0.8,1.92 -1.76,1.92 -1.12,0 -1.92,-0.96 -1.92,-1.92 0,-1.12 0.8,-1.92 1.92,-1.92 C -0.8,-1.92 0,-1.12 0,0 Z"
         style="fill:none;stroke:#000000;stroke-width:0.96;stroke-linecap:round;stroke-linejoin:round;stroke-miterlimit:10;stroke-dasharray:none;stroke-opacity:1"
         id="path20593" /></g><g
       id="g20595"
       transform="matrix(0.26458333,0,0,0.26458333,-7.496494,-142.40881)"><path
         d="m 95.040001,852.64001 v 7.51996"
         style="fill:none;stroke:#000000;stroke-width:0.96;stroke-linecap:round;stroke-linejoin:round;stroke-miterlimit:10;stroke-dasharray:none;stroke-opacity:1"
         id="path20597" /></g><g
       id="g20599"
       transform="matrix(0.26458333,0,0,0.26458333,-7.496494,-142.40881)"><path
         d="M 95.040001,799.67999 H 113.92"
         style="fill:none;stroke:#000000;stroke-width:0.96;stroke-linecap:round;stroke-linejoin:round;stroke-miterlimit:10;stroke-dasharray:none;stroke-opacity:1"
         id="path20601" /></g><g
       id="g20603"
       transform="matrix(0.26458333,0,0,0.26458333,-7.496494,-142.40881)"><path
         d="M 113.92,856.32001 H 95.040001"
         style="fill:none;stroke:#000000;stroke-width:0.96;stroke-linecap:round;stroke-linejoin:round;stroke-miterlimit:10;stroke-dasharray:none;stroke-opacity:1"
         id="path20605" /></g><g
       id="g20607"
       transform="matrix(0.26458333,0,0,0.26458333,-7.496494,-142.40881)"><path
         d="m 113.92,799.67999 v 56.64002"
         style="fill:none;stroke:#ff0000;stroke-width:0.96;stroke-linecap:round;stroke-linejoin:round;stroke-miterlimit:10;stroke-dasharray:2.88, 2.88;stroke-dashoffset:0;stroke-opacity:1"
         id="path20609" /></g><g
       id="g20611"
       transform="matrix(0.26458333,0,0,0.26458333,17.649506,69.173185)"><path
         d="m 0,0 c 0,0.96 -0.8,1.92 -1.76,1.92 -1.12,0 -1.92,-0.96 -1.92,-1.92 0,-1.12 0.8,-1.92 1.92,-1.92 C -0.8,-1.92 0,-1.12 0,0 Z"
         style="fill:#000000;fill-opacity:1;fill-rule:evenodd;stroke:none"
         id="path20613" /></g><g
       id="g20615"
       transform="matrix(0.26458333,0,0,0.26458333,17.649506,69.173185)"><path
         d="m 0,0 c 0,0.96 -0.8,1.92 -1.76,1.92 -1.12,0 -1.92,-0.96 -1.92,-1.92 0,-1.12 0.8,-1.92 1.92,-1.92 C -0.8,-1.92 0,-1.12 0,0 Z"
         style="fill:none;stroke:#000000;stroke-width:0.96;stroke-linecap:round;stroke-linejoin:round;stroke-miterlimit:10;stroke-dasharray:none;stroke-opacity:1"
         id="path20617" /></g><g
       id="g20619"
       transform="matrix(0.26458333,0,0,0.26458333,-7.496494,-142.40881)"><path
         d="m 95.040001,852.64001 v 7.51996"
         style="fill:none;stroke:#000000;stroke-width:0.96;stroke-linecap:round;stroke-linejoin:round;stroke-miterlimit:10;stroke-dasharray:none;stroke-opacity:1"
         id="path20621" /></g><g
       id="g20623"
       transform="matrix(0.26458333,0,0,0.26458333,-7.496494,-142.40881)"><path
         d="M 95.040001,799.67999 H 113.92"
         style="fill:none;stroke:#000000;stroke-width:0.96;stroke-linecap:round;stroke-linejoin:round;stroke-miterlimit:10;stroke-dasharray:none;stroke-opacity:1"
         id="path20625" /></g><g
       id="g20627"
       transform="matrix(0.26458333,0,0,0.26458333,-7.496494,-142.40881)"><path
         d="M 113.92,856.32001 H 95.040001"
         style="fill:none;stroke:#000000;stroke-width:0.96;stroke-linecap:round;stroke-linejoin:round;stroke-miterlimit:10;stroke-dasharray:none;stroke-opacity:1"
         id="path20629" /></g><g
       id="g20631"
       transform="matrix(0.26458333,0,0,0.26458333,25.184839,71.416846)"><path
         d="M 0,0 V -3.84 H -17.120001 V 4.64 L 0,-3.84 Z M 0,4.64 V 0.96 H -9.6 V 5.6 L 0,0.96 Z"
         style="fill:#ffffff;fill-opacity:1;fill-rule:evenodd;stroke:none"
         id="path20633" /></g><g
       id="g20635"
       transform="matrix(0.26458333,0,0,0.26458333,-7.496494,-142.40881)"><path
         d="m 123.52,808.15997 v -3.83996 H 106.4 v 8.47998 l 17.12,-8.47998"
         style="fill:none;stroke:#000000;stroke-width:0.48;stroke-linecap:round;stroke-linejoin:round;stroke-miterlimit:10;stroke-dasharray:none;stroke-opacity:1"
         id="path20637" /></g><g
       id="g20639"
       transform="matrix(0.26458333,0,0,0.26458333,-7.496494,-142.40881)"><path
         d="M 123.52,812.79999 V 809.12 h -9.6 v 4.64001 l 9.6,-4.64001"
         style="fill:none;stroke:#000000;stroke-width:0.48;stroke-linecap:round;stroke-linejoin:round;stroke-miterlimit:10;stroke-dasharray:none;stroke-opacity:1"
         id="path20641" /></g><g
       id="g20643"
       transform="matrix(0.26458333,0,0,0.26458333,-7.496494,-142.40881)"><path
         d="m 125.28,804.32001 v 8.47998"
         style="fill:none;stroke:#000000;stroke-width:0.48;stroke-linecap:round;stroke-linejoin:round;stroke-miterlimit:10;stroke-dasharray:none;stroke-opacity:1"
         id="path20645" /></g></g></svg>
