<?xml version="1.0" standalone="no"?>
<!DOCTYPE svg PUBLIC "-//W3C//DTD SVG 1.2//EN" "http://www.w3.org/Graphics/SVG/1.2/DTD/svg12.dtd">
<svg xmlns="http://www.w3.org/2000/svg" version="1.2" baseProfile="tiny" id="selectedFigureSvg" width="100px" height="100px" viewBox="-227.5 -79.76 246.1 132.67"><g id="sequence"><g id="figure-2"><path d="M 0,0 m -4,0 a4,4 0 1 1 0,0.01" style="stroke: black; stroke-width: 1px; fill: black;"/><path d="M -3.46,-2 l -87.3,-50.4" style="stroke-dasharray: 5, 3; stroke: red; stroke-width: 3px; fill: none;" class="line" id="figure-2-entry"/><path d="M -90.76,-52.4 a 72,50.4 0 0 0 -54.74,-11.13" style="stroke-dasharray: 5, 3; stroke: red; stroke-width: 3px; fill: none;"/><path d="M -145.5,-63.53 m 8.86,14.92 l -8.6,-2.9 l 6.55,-4.59 z" style="stroke: black; stroke-width: 1px; fill: black;"/><path d="M -145.5,-63.53 m 8.86,14.92 a 20,20 0 0 1 -7.07,-25.12 " style="stroke: black; stroke-width: 3px; fill: none;"/><path d="M -145.5,-63.53 a 72,50.4 0 0 0 -46.36,17.73" style="stroke-dasharray: 5, 3; stroke: red; stroke-width: 3px; fill: none;"/><path d="M -191.86,-45.8 a 72,50.4 0 0 0 -15.48,22.99" style="stroke-dasharray: 5, 3; stroke: red; stroke-width: 3px; fill: none;"/><path d="M -207.34,-22.81 m 17.05,-3.23 l -5.66,7.09 l -2.07,-7.73 z" style="stroke: black; stroke-width: 1px; fill: black;"/><path d="M -207.34,-22.81 m 17.05,-3.23 a 20,20 0 0 1 -26.02,-1.95 " style="stroke: black; stroke-width: 3px; fill: none;"/><path d="M -207.34,-22.81 a 72,50.4 0 0 0 0.99,21.73" style="stroke-dasharray: 5, 3; stroke: red; stroke-width: 3px; fill: none;"/><path d="M -206.35,-1.08 a 72,50.4 0 0 0 18.85,23.19" style="stroke-dasharray: 5, 3; stroke: red; stroke-width: 3px; fill: none;"/><path d="M -187.5,22.11 m 2.8,-17.13 l 4.73,7.75 l -7.97,-0.7 z" style="stroke: black; stroke-width: 1px; fill: black;"/><path d="M -187.5,22.11 m 2.8,-17.13 a 20,20 0 0 1 -10.73,23.78 " style="stroke: black; stroke-width: 3px; fill: none;"/><path d="M -187.5,22.11 a 72,50.4 0 0 0 50.92,14.77" style="stroke-dasharray: 5, 3; stroke: red; stroke-width: 3px; fill: none;"/><path d="M -136.58,36.88 a 72,50.4 0 0 0 45.81,-89.28" style="stroke-dasharray: 1, 3; stroke: black; stroke-width: 1px; fill: none;"/><path d="M -136.58,36.88 l 144,0" style="stroke-dasharray: 5, 3; stroke: red; stroke-width: 3px; fill: none;" class="line" id="figure-2-exit"/><path d="M 7.42,36.88 m 0,10 l 0,-20" style="stroke: black; stroke-width: 3px; fill: none;"/></g></g></svg>