<?xml version="1.0" standalone="no"?>
<!DOCTYPE svg PUBLIC "-//W3C//DTD SVG 1.2//EN" "http://www.w3.org/Graphics/SVG/1.2/DTD/svg12.dtd">
<svg xmlns="http://www.w3.org/2000/svg" version="1.2" baseProfile="tiny" id="selectedFigureSvg" width="100px" height="100px" viewBox="-231.7 -155.6 249.96 167.21"><g id="sequence"><g id="figure-2"><text style="font-family: Verdana, Helvetica, Sans; font-size: 16px; font-weight: bold; fill: black;" text-anchor="middle" x="0" y="-8" class="figNr">3</text><path d="M 0,0 m -4,0 a4,4 0 1 1 0,0.01" style="stroke: black; stroke-width: 1px; fill: black;"/><path d="M -4,0 l -160,0" style="stroke: black; stroke-width: 3.0px; fill: none; vector-effect: non-scaling-stroke;" class="line" id="figure-2-entry"/><path d="M -164,0 l 0,-40" style="stroke: black; stroke-width: 3.0px; fill: none; vector-effect: non-scaling-stroke;" class="line" id="figure-2-roll0-gap0"/><path d="M -164,-40 m -15.64,7.53 l 3.64,-8.31 l 4,6.93 z" style="stroke: black; stroke-width: 1px; fill: black;"/><path d="M -164,-40 m -15.64,7.53 a 20,20 0 0 1 15.64,-7.53 " style="stroke: black; stroke-width: 3.0px; fill: none; vector-effect: non-scaling-stroke;"/><text style="font-family: Arial, Sans; font-size: 20px; font-weight: bold; fill: red;" text-anchor="middle" x="-201.14" y="-33">4x8</text><path d="M -164,-40 l 0,-20" style="stroke: black; stroke-width: 3.0px; fill: none; vector-effect: non-scaling-stroke;" class="line" id="figure-2-roll0-gap1"/><path d="M -164,-60 m 15.64,7.53 l -3.64,-8.31 l -4,6.93 z" style="stroke: black; stroke-width: 1px; fill: black;"/><path d="M -164,-60 m 15.64,7.53 a 20,20 0 0 0 -15.64,-7.53 " style="stroke: black; stroke-width: 3.0px; fill: none; vector-effect: non-scaling-stroke;"/><path d="M -164,-60 l 0,-40" style="stroke: black; stroke-width: 3.0px; fill: none; vector-effect: non-scaling-stroke;" class="line" id="figure-2-roll0-gap2"/><path d="M -164,-100 a40,40 0 0 1 11.72,-28.28" style="stroke: black; stroke-width: 3.0px; fill: none; vector-effect: non-scaling-stroke;"/><path d="M -152.28,-128.28 l 5.3,5.3 l -10.6,-10.6" style="stroke: black; stroke-width: 3.0px; fill: none; vector-effect: non-scaling-stroke;"/><path d="M -152.28,-128.28 a40,40 0 0 1 28.28,-11.72" style="stroke: black; stroke-width: 3.0px; fill: none; vector-effect: non-scaling-stroke;"/><path d="M -124,-140 a40,40 0 0 1 28.28,11.72" style="stroke: black; stroke-width: 3.0px; fill: none; vector-effect: non-scaling-stroke;"/><path d="M -95.72,-128.28 l -5.3,5.3 l 10.6,-10.6" style="stroke: black; stroke-width: 3.0px; fill: none; vector-effect: non-scaling-stroke;"/><path d="M -95.72,-128.28 a40,40 0 0 1 11.72,28.28" style="stroke: black; stroke-width: 3.0px; fill: none; vector-effect: non-scaling-stroke;"/><path d="M -127,-140 m 0,16.75 l 8,0 " style="stroke: black; stroke-width: 3.0px; fill: none; vector-effect: non-scaling-stroke;"/><path d="M -127,-140 m 0,16 l 9.6,-24 l -19.2,0 z" style="stroke: black; stroke-width: 1.5px; fill: white;"/><path d="M -84,-100 l 0,0.2" style="stroke: black; stroke-width: 3.0px; fill: none; vector-effect: non-scaling-stroke;" class="line" id="figure-2-roll1-gap0"/><path d="M -84,-99.8 a40,40 0 0 0 40,40" style="stroke-dasharray: 10, 5; stroke: red; stroke-width: 3.0px; fill: none; vector-effect: non-scaling-stroke;"/><path d="M -44,-59.8 l 0.2,0" style="stroke-dasharray: 10, 5; stroke: red; stroke-width: 3.0px; fill: none; vector-effect: non-scaling-stroke;" class="line" id="figure-2-roll2-gap0"/><path d="M -43.8,-59.8 m -7.53,-15.64 l 8.31,3.64 l -6.93,4 z" style="stroke: black; stroke-width: 1px; fill: black;"/><path d="M -43.8,-59.8 m -7.53,-15.64 a 20,20 0 0 1 7.53,15.64 " style="stroke: black; stroke-width: 3.0px; fill: none; vector-effect: non-scaling-stroke;"/><path d="M -43.8,-59.8 l 40,0" style="stroke: black; stroke-width: 3.0px; fill: none; vector-effect: non-scaling-stroke;" class="line" id="figure-2-exit"/><path d="M -3.8,-59.8 m 0,-10 l 0,20" style="stroke: black; stroke-width: 3.0px; fill: none; vector-effect: non-scaling-stroke;"/></g></g></svg>