<?xml version="1.0" standalone="no"?>
<!DOCTYPE svg PUBLIC "-//W3C//DTD SVG 1.2//EN" "http://www.w3.org/Graphics/SVG/1.2/DTD/svg12.dtd">
<svg xmlns="http://www.w3.org/2000/svg" version="1.2" baseProfile="tiny" id="selectedFigureSvg" width="100px" height="100px" viewBox="-139.53 -157.48 153.18 256.33"><g id="sequence"><g id="figure-2"><text style="font-family: Verdana, Helvetica, Sans; font-size: 16px; font-weight: bold; fill: black;" text-anchor="middle" x="0" y="-8" class="figNr">4</text><path d="M 0,0 m -4,0 a4,4 0 1 1 0,0.01" style="stroke: black; stroke-width: 1px; fill: black;"/><path d="M -4,0 l -78,0" style="stroke: black; stroke-width: 3.0px; fill: none; vector-effect: non-scaling-stroke;" class="line" id="figure-2-entry"/><path d="M -82,0 l 0,-78" style="stroke: black; stroke-width: 3.0px; fill: none; vector-effect: non-scaling-stroke;" class="line" id="figure-2-roll0-gap0"/><path d="M -82,-78 m 16.75,0 l 0,-8 " style="stroke: black; stroke-width: 3.0px; fill: none; vector-effect: non-scaling-stroke;"/><path d="M -82,-78 m 16,0 l -16,-8 l 0,16 z" style="stroke: black; stroke-width: 1.5px; fill: white;"/><text style="font-family: Arial, Sans; font-size: 20px; font-weight: bold; fill: red;" text-anchor="middle" x="-44.86" y="-77">3/4</text><path d="M -82,-84 l 0,-26" style="stroke: black; stroke-width: 3.0px; fill: none; vector-effect: non-scaling-stroke;" class="line" id="figure-2-roll0-gap1"/><path d="M -82,-110 a14.53,28.21 -14.67 0 0 -31.52,-18.2" style="stroke: black; stroke-width: 3.0px; fill: none; vector-effect: non-scaling-stroke;"/><path d="M -113.52,-128.2 l 0,91" style="stroke: black; stroke-width: 3.0px; fill: none; vector-effect: non-scaling-stroke;" class="line" id="figure-2-roll1-gap0"/><path d="M -113.52,-37.2 m -15.64,-7.53 l 3.64,8.31 l 4,-6.93 z" style="stroke: black; stroke-width: 1px; fill: black;"/><path d="M -113.52,-37.2 m -15.64,-7.53 a 20,20 0 0 0 25.64,4.85 " style="stroke: black; stroke-width: 3.0px; fill: none; vector-effect: non-scaling-stroke;"/><path d="M -113.52,-37.2 l 0,10" style="stroke: black; stroke-width: 3.0px; fill: none; vector-effect: non-scaling-stroke;" class="line"/><path d="M -113.52,-27.2 m -19.05,-9 l 0,-10" style="stroke: black; stroke-width: 3.0px; fill: none; vector-effect: non-scaling-stroke;"/><path d="M -113.52,-27.2 m -15.64,-7.53 l 3.64,8.31 l 4,-6.93 z" style="stroke: black; stroke-width: 1px; fill: black;"/><path d="M -113.52,-27.2 m -15.64,-7.53 a 20,20 0 0 0 15.64,7.53 " style="stroke: black; stroke-width: 3.0px; fill: none; vector-effect: non-scaling-stroke;"/><path d="M -113.52,-27.2 l 0,78" style="stroke: black; stroke-width: 3.0px; fill: none; vector-effect: non-scaling-stroke;" class="line" id="figure-2-roll1-gap1"/><path d="M -113.52,50.8 l 63.05,36.4" style="stroke-dasharray: 10, 5; stroke: red; stroke-width: 3.0px; fill: none; vector-effect: non-scaling-stroke;" class="line" id="figure-2-exit"/><path d="M -50.47,87.2 m -10,0 l 20,0" style="stroke: black; stroke-width: 3.0px; fill: none; vector-effect: non-scaling-stroke;"/></g></g></svg>