<?xml version="1.0" standalone="no"?>
<!DOCTYPE svg PUBLIC "-//W3C//DTD SVG 1.2//EN" "http://www.w3.org/Graphics/SVG/1.2/DTD/svg12.dtd">
<svg xmlns="http://www.w3.org/2000/svg" version="1.2" baseProfile="tiny" id="selectedFigureSvg" width="100px" height="100px" viewBox="-25.42 -30.11 138.22 123.85"><g id="sequence"><g id="figure-2"><text style="font-family: Verdana, Helvetica, Sans; font-size: 16px; font-weight: bold; fill: black;" text-anchor="middle" x="0" y="-8" class="figNr">5</text><path d="M 0,0 m -4,0 a4,4 0 1 1 0,0.01" style="stroke: black; stroke-width: 1px; fill: black;"/><path d="M 3.46,2 l 48.5,28" style="stroke-dasharray: 10, 5; stroke: red; stroke-width: 3.0px; fill: none; vector-effect: non-scaling-stroke;" class="line" id="figure-2-entry"/><path d="M 51.96,30 a 40,28 0 0 1 14.47,19.89" style="stroke-dasharray: 10, 5; stroke: red; stroke-width: 3.0px; fill: none; vector-effect: non-scaling-stroke;"/><path d="M 66.43,49.89 m -16.23,-6.14 l 4.35,7.97 l 3.38,-7.25 z" style="stroke: black; stroke-width: 1px; fill: black;"/><path d="M 66.43,49.89 m -16.23,-6.14 a 20,20 0 0 0 25.96,2.6 " style="stroke: black; stroke-width: 3.0px; fill: none; vector-effect: non-scaling-stroke;"/><path d="M 66.43,49.89 a 40,28 0 0 1 -9.21,19.65" style="stroke-dasharray: 10, 5; stroke: red; stroke-width: 3.0px; fill: none; vector-effect: non-scaling-stroke;"/><path d="M 57.22,69.54 a 40,28 0 0 1 -45.01,8.21" style="stroke-dasharray: 10, 5; stroke: red; stroke-width: 3.0px; fill: none; vector-effect: non-scaling-stroke;"/><path d="M 12.21,77.75 m 11.32,-13.15 l -8.97,1.36 l 5.66,5.66 z" style="stroke: black; stroke-width: 1px; fill: black;"/><path d="M 12.21,77.75 m 11.32,-13.15 a 20,20 0 0 0 -11.32,23.51 " style="stroke: black; stroke-width: 3.0px; fill: none; vector-effect: non-scaling-stroke;"/><path d="M 12.21,77.75 a 40,28 0 0 1 -24.46,-19.24" style="stroke-dasharray: 10, 5; stroke: red; stroke-width: 3.0px; fill: none; vector-effect: non-scaling-stroke;"/><path d="M -12.25,58.51 a 40,28 0 0 1 2.84,-19.24" style="stroke-dasharray: 10, 5; stroke: red; stroke-width: 3.0px; fill: none; vector-effect: non-scaling-stroke;"/><path d="M -9.41,39.27 m 8.49,15.14 l 1.79,-8.9 l -7.25,3.38 z" style="stroke: black; stroke-width: 1px; fill: black;"/><path d="M -9.41,39.27 m 8.49,15.14 a 20,20 0 0 0 -18.22,-18.68 " style="stroke: black; stroke-width: 3.0px; fill: none; vector-effect: non-scaling-stroke;"/><path d="M -9.41,39.27 a 40,28 0 0 1 35.92,-15.68" style="stroke-dasharray: 10, 5; stroke: red; stroke-width: 3.0px; fill: none; vector-effect: non-scaling-stroke;"/><path d="M 26.51,23.59 a 40,28 0 0 1 25.45,6.4" style="stroke-dasharray: 1, 3; stroke: black; stroke-width: 1px; fill: none; vector-effect: non-scaling-stroke;"/><path d="M 26.51,23.59 l 80,0" style="stroke-dasharray: 10, 5; stroke: red; stroke-width: 3.0px; fill: none; vector-effect: non-scaling-stroke;" class="line" id="figure-2-exit"/><path d="M 106.51,23.59 m 0,10 l 0,-20" style="stroke: black; stroke-width: 3.0px; fill: none; vector-effect: non-scaling-stroke;"/></g></g></svg>