<?xml version="1.0" standalone="no"?>
<!DOCTYPE svg PUBLIC "-//W3C//DTD SVG 1.2//EN" "http://www.w3.org/Graphics/SVG/1.2/DTD/svg12.dtd">
<svg xmlns="http://www.w3.org/2000/svg" version="1.2" baseProfile="tiny" id="selectedFigureSvg" width="100px" height="100px" viewBox="-139.8 -35.36 236.55 258.09"><g id="sequence"><g id="figure-2"><path d="M 0,0 m -4,0 a4,4 0 1 1 0,0.01" style="stroke: black; stroke-width: 1px; fill: black;"/><path d="M -4,0 l -70,0" style="stroke-dasharray: 5, 3; stroke: red; stroke-width: 3px; fill: none;" class="line" id="figure-2-entry"/><path d="M -74,0 l 0,10" style="stroke: black; stroke-width: 3px; fill: none;" class="line" id="figure-2-roll0-gap0"/><path d="M -74,10 m -15.25,0 l 0,8 " style="stroke: black; stroke-width: 3px; fill: none;"/><path d="M -74,10 m -16,0 l 24,12 l 0,-12 z" style="stroke: black; stroke-width: 3px; fill: red;"/><text style="font-family: Arial, Sans; font-size: 20px; font-weight: bold; fill: red;" text-anchor="middle" x="-115.14" y="25">3/4</text><path d="M -74,18 l 0,5" style="stroke: black; stroke-width: 3px; fill: none;" class="line"/><path d="M -74,23 m -19.2,8 l 0,-21" style="stroke: black; stroke-width: 3px; fill: none;"/><path d="M -74,23 m -15.25,0 l 0,8 " style="stroke: black; stroke-width: 3px; fill: none;"/><path d="M -74,23 m -16,0 l 16,8 l 0,-8 z" style="stroke: black; stroke-width: 3px; fill: red;"/><path d="M -74,31 l 0,20" style="stroke: black; stroke-width: 3px; fill: none;" class="line" id="figure-2-roll0-gap1"/><path d="M -74,51 m 15.64,-7.53 l -3.64,8.31 l -4,-6.93 z" style="stroke: black; stroke-width: 1px; fill: black;"/><path d="M -74,51 m 15.64,-7.53 a 20,20 0 0 1 -15.64,7.53 " style="stroke: black; stroke-width: 3px; fill: none;"/><text style="font-family: Arial, Sans; font-size: 20px; font-weight: bold; fill: red;" text-anchor="middle" x="-36.86" y="58">2x8</text><path d="M -74,51 l 0,120" style="stroke: black; stroke-width: 3px; fill: none;" class="line" id="figure-2-roll0-gap2"/><path d="M -74,171 a40,40 0 0 0 80,0" style="stroke-dasharray: 5, 3; stroke: red; stroke-width: 3px; fill: none;"/><path d="M 6,171 a40,40 0 0 1 40,-40" style="stroke: black; stroke-width: 3px; fill: none;"/><path d="M 46,131 l 40,0" style="stroke-dasharray: 5, 3; stroke: red; stroke-width: 3px; fill: none;" class="line" id="figure-2-exit"/><path d="M 86,131 m 0,10 l 0,-20" style="stroke: black; stroke-width: 3px; fill: none;"/></g></g></svg>