<?xml version="1.0" standalone="no"?>
<!DOCTYPE svg PUBLIC "-//W3C//DTD SVG 1.2//EN" "http://www.w3.org/Graphics/SVG/1.2/DTD/svg12.dtd">
<svg xmlns="http://www.w3.org/2000/svg" version="1.2" baseProfile="tiny" id="selectedFigureSvg" width="100px" height="100px" viewBox="-379.02 -39.07 404.6 319.16"><g id="sequence"><g id="figure-2"><path d="M 0,0 m -4,0 a4,4 0 1 1 0,0.01" style="stroke: black; stroke-width: 1px; fill: black;"/><path d="M -4,0 l -40,0" style="stroke: black; stroke-width: 3px; fill: none;" class="line" id="figure-2-entry"/><path d="M -44,0 l -98.99,98.99" style="stroke: black; stroke-width: 3px; fill: none;" class="line" id="figure-2-roll0-gap0"/><path d="M -142.99,98.99 m -11.84,-11.84 l -5.66,5.66 " style="stroke: black; stroke-width: 3px; fill: none;"/><path d="M -142.99,98.99 m -11.31,-11.31 l 10.18,23.76 l 13.58,-13.58 z" style="stroke: black; stroke-width: 3px; fill: white;"/><path d="M -147.23,103.23 l -9.62,9.62" style="stroke: black; stroke-width: 3px; fill: none;" class="line"/><path d="M -156.85,112.85 m -19.23,-7.92 l 20.93,-20.93" style="stroke: black; stroke-width: 3px; fill: none;"/><path d="M -156.85,112.85 m -11.84,-11.84 l -5.66,5.66 " style="stroke: black; stroke-width: 3px; fill: none;"/><path d="M -156.85,112.85 m -11.31,-11.31 l 5.66,16.97 l 11.31,-11.31 z" style="stroke: black; stroke-width: 3px; fill: white;"/><path d="M -161.09,117.09 l -148.49,148.49" style="stroke-dasharray: 5, 3; stroke: red; stroke-width: 3px; fill: none;" class="line" id="figure-2-roll0-gap1"/><path d="M -309.58,265.58 l 0,-70" style="stroke-dasharray: 5, 3; stroke: red; stroke-width: 3px; fill: none;" class="line" id="figure-2-roll1-gap0"/><path d="M -309.58,195.58 m 15.64,7.53 l -3.64,-8.31 l -4,6.93 z" style="stroke: black; stroke-width: 1px; fill: black;"/><path d="M -309.58,195.58 m 15.64,7.53 a 20,20 0 0 0 -15.64,-7.53 " style="stroke: black; stroke-width: 3px; fill: none;"/><text style="font-family: Arial, Sans; font-size: 20px; font-weight: bold; fill: red;" text-anchor="middle" x="-272.44" y="202.58">3/4</text><path d="M -309.58,195.58 l 0,-40" style="stroke-dasharray: 5, 3; stroke: red; stroke-width: 3px; fill: none;" class="line" id="figure-2-roll1-gap1"/><path d="M -309.58,155.58 m -16.75,0 l 0,-8 " style="stroke: black; stroke-width: 3px; fill: none;"/><path d="M -309.58,155.58 m -16,0 l 16,-8 l 0,16 z" style="stroke: black; stroke-width: 3px; fill: white;"/><text style="font-family: Arial, Sans; font-size: 20px; font-weight: bold; fill: red;" text-anchor="middle" x="-346.72" y="156.58">3/4</text><path d="M -309.58,149.58 l 0,-40" style="stroke-dasharray: 5, 3; stroke: red; stroke-width: 3px; fill: none;" class="line" id="figure-2-roll1-gap2"/><path d="M -309.58,109.58 l 50,0" style="stroke: black; stroke-width: 3px; fill: none;" class="line" id="figure-2-exit"/><path d="M -259.58,109.58 m 0,-10 l 0,20" style="stroke: black; stroke-width: 3px; fill: none;"/></g></g></svg>