<?xml version="1.0" standalone="no"?>
<!DOCTYPE svg PUBLIC "-//W3C//DTD SVG 1.2//EN" "http://www.w3.org/Graphics/SVG/1.2/DTD/svg12.dtd">
<svg xmlns="http://www.w3.org/2000/svg" version="1.2" baseProfile="tiny" id="selectedFigureSvg" width="100px" height="100px" viewBox="-17.64 -153.12 138.12 164.61"><g id="sequence"><g id="figure-2"><path d="M 0,0 m -4,0 a4,4 0 1 1 0,0.01" style="stroke: black; stroke-width: 1px; fill: black;"/><path d="M 4,0 l 80,0" style="stroke: black; stroke-width: 2.5px; fill: none;" class="line" id="figure-2-entry"/><path d="M 84,0 l 0,-90" style="stroke: black; stroke-width: 2.5px; fill: none;" class="line" id="figure-2-roll0-gap0"/><path d="M 84,-90 a40,40 0 0 0 -11.72,-28.28" style="stroke: black; stroke-width: 2.5px; fill: none;"/><path d="M 72.28,-118.28 l -5.3,5.3 l 10.6,-10.6" style="stroke: black; stroke-width: 2.5px; fill: none;"/><path d="M 72.28,-118.28 a40,40 0 0 0 -28.28,-11.72" style="stroke: black; stroke-width: 2.5px; fill: none;"/><path d="M 44,-130 a40,40 0 0 0 -28.28,11.72" style="stroke: black; stroke-width: 2.5px; fill: none;"/><path d="M 15.72,-118.28 l 5.3,5.3 l -10.6,-10.6" style="stroke: black; stroke-width: 2.5px; fill: none;"/><path d="M 15.72,-118.28 a40,40 0 0 0 28.28,68.28" style="stroke: black; stroke-width: 2.5px; fill: none;"/><path d="M 44,-130 m 7.53,-15.64 l -8.31,3.64 l 6.93,4 z" style="stroke: black; stroke-width: 1px; fill: black;"/><path d="M 44,-130 m 7.53,-15.64 a 20,20 0 0 0 -4.85,25.64 " style="stroke: black; stroke-width: 2.5px; fill: none;"/><path d="M 44,-50 l 0.2,0" style="stroke: black; stroke-width: 2.5px; fill: none;" class="line" id="figure-2-roll2-gap0"/><path d="M 44.2,-50 m -7.53,15.64 l 8.31,-3.64 l -6.93,-4 z" style="stroke: black; stroke-width: 1px; fill: black;"/><path d="M 44.2,-50 m -7.53,15.64 a 20,20 0 0 0 7.53,-15.64 " style="stroke: black; stroke-width: 2.5px; fill: none;"/><text style="font-family: Arial, Sans; font-size: 20px; font-weight: bold; fill: red;" text-anchor="middle" x="44.2" y="-13">2x4</text><path d="M 44.2,-50 l 60,0" style="stroke-dasharray: 5, 3; stroke: red; stroke-width: 2.5px; fill: none;" class="line" id="figure-2-exit"/><path d="M 104.2,-50 m 0,10 l 0,-20" style="stroke: black; stroke-width: 2.5px; fill: none;"/><path d="M 104.2,-50 m 10,20 l 0,-40" style="stroke: black; stroke-width: 2.5px; fill: none;"/></g></g></svg>