<?xml version="1.0" standalone="no"?>
<!DOCTYPE svg PUBLIC "-//W3C//DTD SVG 1.2//EN" "http://www.w3.org/Graphics/SVG/1.2/DTD/svg12.dtd">
<svg xmlns="http://www.w3.org/2000/svg" version="1.2" baseProfile="tiny" id="selectedFigureSvg" width="100px" height="100px" viewBox="-16.13 -163.83 229.65 368.5"><g id="sequence"><g id="figure-2"><path d="M 0,0 m -4,0 a4,4 0 1 1 0,0.01" style="stroke: black; stroke-width: 1px; fill: black;"/><path d="M 4,0 l 52,0" style="stroke: black; stroke-width: 2.5px; fill: none;" class="line" id="figure-2-entry"/><path d="M 56,0 l 73.54,-73.54" style="stroke: black; stroke-width: 2.5px; fill: none;" class="line" id="figure-2-roll0-gap0"/><path d="M 129.54,-73.54 m 5.73,16.38 l 3.31,-8.45 l -7.73,2.07 z" style="stroke: black; stroke-width: 1px; fill: black;"/><path d="M 129.54,-73.54 m 5.73,16.38 a 20,20 0 0 0 -5.73,-16.38 " style="stroke: black; stroke-width: 2.5px; fill: none;"/><text style="font-family: Arial, Sans; font-size: 20px; font-weight: bold; fill: red;" text-anchor="middle" x="112.57" y="-80.8">2x4</text><path d="M 129.54,-73.54 l 73.54,-73.54" style="stroke-dasharray: 5, 3; stroke: red; stroke-width: 2.5px; fill: none;" class="line" id="figure-2-roll0-gap1"/><path d="M 203.08,-147.08 l 0,325" style="stroke: black; stroke-width: 2.5px; fill: none;" class="line" id="figure-2-roll1-gap0"/><path d="M 203.08,177.92 l -39,0" style="stroke: black; stroke-width: 2.5px; fill: none;" class="line" id="figure-2-exit"/><path d="M 164.08,177.92 m 0,10 l 0,-20" style="stroke: black; stroke-width: 2.5px; fill: none;"/></g></g></svg>