<?xml version="1.0" encoding="UTF-8" standalone="no"?>
<!-- Created with Inkscape (http://www.inkscape.org/) -->

<svg
   width="176.38895mm"
   height="151.04712mm"
   viewBox="0 0 176.38894 151.0471"
   version="1.1"
   id="svg15577"
   inkscape:version="1.2.2 (732a01da63, 2022-12-09)"
   sodipodi:docname="0.svg"
   xml:space="preserve"
   xmlns:inkscape="http://www.inkscape.org/namespaces/inkscape"
   xmlns:sodipodi="http://sodipodi.sourceforge.net/DTD/sodipodi-0.dtd"
   xmlns="http://www.w3.org/2000/svg"
   xmlns:svg="http://www.w3.org/2000/svg"><sodipodi:namedview
     id="namedview15579"
     pagecolor="#ffffff"
     bordercolor="#000000"
     borderopacity="0.25"
     inkscape:showpageshadow="2"
     inkscape:pageopacity="0.0"
     inkscape:pagecheckerboard="true"
     inkscape:deskcolor="#d1d1d1"
     inkscape:document-units="mm"
     showgrid="false"
     showborder="false"
     inkscape:zoom="1.0544998"
     inkscape:cx="350.87727"
     inkscape:cy="346.13568"
     inkscape:window-width="1920"
     inkscape:window-height="1017"
     inkscape:window-x="1912"
     inkscape:window-y="-8"
     inkscape:window-maximized="1"
     inkscape:current-layer="layer1" /><defs
     id="defs15574" /><g
     inkscape:label="Layer 1"
     inkscape:groupmode="layer"
     id="layer1"
     transform="translate(38.499393,21.178658)"><g
       id="g15014"
       transform="matrix(0.26458333,0,0,0.26458333,49.253236,55.298379)" /><g
       id="g13720"
       transform="matrix(0.26458333,0,0,0.26458333,18.006939,-99.253542)" /><g
       id="g18168"
       transform="matrix(0.26458333,0,0,0.26458333,27.213146,49.421226)" /><path
       id="path0"
       d="m 4.7034777,12.173996 -3.145102,3.145102 6.411383,6.425671 6.4113843,6.425671 -3.595952,3.281892 c -6.1102883,5.576887 -13.7644193,17.153731 -13.7644193,20.819004 0,1.591204 3.56684796,8.625946 6.373019,12.569298 14.4907003,20.3626 42.3505313,29.28223 65.7137683,21.03914 l 2.207419,-0.77867 7.837751,7.82637 c 4.31086,4.30451 8.06926,7.826376 8.35184,7.826376 0.69903,0 6.27803,-5.681926 6.27803,-6.393916 0,-0.51753 -84.7656193,-84.9074421 -85.5829173,-85.2037751 -0.193145,-0.06985 -1.766358,1.2882561 -3.496204,3.0178371 m 37.1705193,4.482571 c -3.122083,0.508794 -11.218863,2.45454 -11.565996,2.779448 -0.124619,0.116681 2.22885,2.675731 5.230283,5.686425 l 5.457296,5.474229 1.8161,-0.758825 C 59.424339,22.8965 79.741959,42.802427 72.858822,59.275915 l -0.78105,1.869546 7.188997,7.201693 7.18926,7.20196 3.44778,-3.39857 c 4.57121,-4.50612 7.92533,-8.999542 10.684671,-14.314227 2.74717,-5.291402 2.74717,-5.287698 0.30797,-10.27774 C 90.378209,26.039486 65.197547,12.856092 41.873997,16.656567 m 7.401454,20.949179 c -0.160073,0.259027 3.237706,3.971131 7.550944,8.248915 l 7.841985,7.777956 -0.327554,-3.023658 C 63.578297,43.573423 58.634557,38.3778 51.813334,37.443028 c -1.235868,-0.169334 -2.37781,-0.09604 -2.537883,0.162718 M 35.469757,52.717423 c 0.677334,8.956411 6.233848,14.270571 14.921971,14.270571 h 3.298296 l 3.163358,3.13504 c 3.757348,3.72401 3.726657,3.58431 1.021557,4.67307 C 40.126953,81.940654 21.648453,63.87305 27.551307,45.14743 l 0.909638,-2.886075 3.361267,3.335337 3.361266,3.335338 0.286279,3.785393"
       stroke="none"
       fill="#000000"
       fill-rule="evenodd"
       style="stroke-width:0.264583" /></g></svg>
