<?xml version="1.0" encoding="UTF-8" standalone="no"?>
<!-- Created with Inkscape (http://www.inkscape.org/) -->

<svg
   width="16.253887mm"
   height="8.1914997mm"
   viewBox="0 0 16.253887 8.1914997"
   version="1.1"
   id="svg44575"
   inkscape:version="1.2.2 (732a01da63, 2022-12-09)"
   sodipodi:docname="0.svg"
   xmlns:inkscape="http://www.inkscape.org/namespaces/inkscape"
   xmlns:sodipodi="http://sodipodi.sourceforge.net/DTD/sodipodi-0.dtd"
   xmlns="http://www.w3.org/2000/svg"
   xmlns:svg="http://www.w3.org/2000/svg">
  <sodipodi:namedview
     id="namedview44577"
     pagecolor="#ffffff"
     bordercolor="#000000"
     borderopacity="0.25"
     inkscape:showpageshadow="2"
     inkscape:pageopacity="0.0"
     inkscape:pagecheckerboard="0"
     inkscape:deskcolor="#d1d1d1"
     inkscape:document-units="mm"
     showgrid="false"
     inkscape:zoom="0.76880612"
     inkscape:cx="59.833031"
     inkscape:cy="22.112207"
     inkscape:window-width="1920"
     inkscape:window-height="1017"
     inkscape:window-x="-8"
     inkscape:window-y="-8"
     inkscape:window-maximized="1"
     inkscape:current-layer="layer1" />
  <defs
     id="defs44572" />
  <g
     inkscape:label="Layer 1"
     inkscape:groupmode="layer"
     id="layer1"
     transform="translate(-89.267033,-142.51143)">
    <g
       id="g35240"
       transform="matrix(0.35277777,0,0,-0.35277777,67.731361,378.85137)">
      <path
         d="m 71.327,657 c 0,-3.91 6.345,-7.09 14.173,-7.09 7.828,0 14.173,3.18 14.173,7.09 0,3.91 -6.345,7.09 -14.173,7.09 -7.828,0 -14.173,-3.18 -14.173,-7.09 z m -7.087,-7.09 h 42.52"
         style="fill:none;stroke:#ff0000;stroke-width:0.72;stroke-linecap:round;stroke-linejoin:round;stroke-miterlimit:10;stroke-dasharray:2.16, 2.16;stroke-dashoffset:0;stroke-opacity:1"
         id="path35242" />
    </g>
    <path
       d="m 98.893985,142.57493 c -0.788811,0.82903 -1.053747,2.02495 -0.688975,3.10797"
       style="fill:none;stroke:#000000;stroke-width:0.127;stroke-linecap:round;stroke-linejoin:round;stroke-miterlimit:10;stroke-dasharray:none;stroke-opacity:1"
       id="path35244" />
    <path
       d="m 97.453946,145.91574 1.440039,0.91016 -0.135114,-1.69686 z"
       style="fill:#000000;fill-opacity:1;fill-rule:evenodd;stroke:none;stroke-width:0.352778"
       id="path35246" />
    <path
       d="m 90.393805,149.57757 c 0,0.27517 -0.223661,0.49742 -0.499886,0.49742 -0.276225,0 -0.499886,-0.22225 -0.499886,-0.49742 0,-0.27869 0.223661,-0.50094 0.499886,-0.50094 0.276225,0 0.499886,0.22225 0.499886,0.50094 z"
       style="fill:#000000;fill-opacity:1;fill-rule:evenodd;stroke:none;stroke-width:0.352778"
       id="path35248" />
    <path
       d="m 90.393805,149.57757 c 0,0.27517 -0.223661,0.49742 -0.499886,0.49742 -0.276225,0 -0.499886,-0.22225 -0.499886,-0.49742 0,-0.27869 0.223661,-0.50094 0.499886,-0.50094 0.276225,0 0.499886,0.22225 0.499886,0.50094 z m 15.000115,-1.00189 v 2.00025"
       style="fill:none;stroke:#000000;stroke-width:0.254;stroke-linecap:round;stroke-linejoin:round;stroke-miterlimit:10;stroke-dasharray:none;stroke-opacity:1"
       id="path35250" />
    <g
       id="g35252"
       transform="matrix(0.35277777,0,0,-0.35277777,67.731361,378.85137)">
      <path
         d="m 71.327,657 c 0,-3.91 6.345,-7.09 14.173,-7.09 7.828,0 14.173,3.18 14.173,7.09 0,3.91 -6.345,7.09 -14.173,7.09 -7.828,0 -14.173,-3.18 -14.173,-7.09 z m -7.087,-7.09 h 42.52"
         style="fill:none;stroke:#ff0000;stroke-width:0.72;stroke-linecap:round;stroke-linejoin:round;stroke-miterlimit:10;stroke-dasharray:2.16, 2.16;stroke-dashoffset:0;stroke-opacity:1"
         id="path35254" />
    </g>
    <path
       d="m 98.893985,142.57493 c -0.788811,0.82903 -1.053747,2.02495 -0.688975,3.10797"
       style="fill:none;stroke:#000000;stroke-width:0.127;stroke-linecap:round;stroke-linejoin:round;stroke-miterlimit:10;stroke-dasharray:none;stroke-opacity:1"
       id="path35256" />
    <path
       d="m 97.453946,145.91574 1.440039,0.91016 -0.135114,-1.69686 z"
       style="fill:#000000;fill-opacity:1;fill-rule:evenodd;stroke:none;stroke-width:0.352778"
       id="path35258" />
    <path
       d="m 90.393805,149.57757 c 0,0.27517 -0.223661,0.49742 -0.499886,0.49742 -0.276225,0 -0.499886,-0.22225 -0.499886,-0.49742 0,-0.27869 0.223661,-0.50094 0.499886,-0.50094 0.276225,0 0.499886,0.22225 0.499886,0.50094 z"
       style="fill:#000000;fill-opacity:1;fill-rule:evenodd;stroke:none;stroke-width:0.352778"
       id="path35260" />
    <path
       d="m 90.393805,149.57757 c 0,0.27517 -0.223661,0.49742 -0.499886,0.49742 -0.276225,0 -0.499886,-0.22225 -0.499886,-0.49742 0,-0.27869 0.223661,-0.50094 0.499886,-0.50094 0.276225,0 0.499886,0.22225 0.499886,0.50094 z m 15.000115,-1.00189 v 2.00025"
       style="fill:none;stroke:#000000;stroke-width:0.254;stroke-linecap:round;stroke-linejoin:round;stroke-miterlimit:10;stroke-dasharray:none;stroke-opacity:1"
       id="path35262" />
  </g>
</svg>
