<?xml version="1.0" encoding="UTF-8" standalone="no"?>
<!-- Created with Inkscape (http://www.inkscape.org/) -->

<svg
   width="13.6725mm"
   height="14.20464mm"
   viewBox="0 0 13.6725 14.20464"
   version="1.1"
   id="svg45245"
   inkscape:version="1.2.2 (732a01da63, 2022-12-09)"
   sodipodi:docname="3.svg"
   xmlns:inkscape="http://www.inkscape.org/namespaces/inkscape"
   xmlns:sodipodi="http://sodipodi.sourceforge.net/DTD/sodipodi-0.dtd"
   xmlns="http://www.w3.org/2000/svg"
   xmlns:svg="http://www.w3.org/2000/svg">
  <sodipodi:namedview
     id="namedview45247"
     pagecolor="#ffffff"
     bordercolor="#000000"
     borderopacity="0.25"
     inkscape:showpageshadow="2"
     inkscape:pageopacity="0.0"
     inkscape:pagecheckerboard="0"
     inkscape:deskcolor="#d1d1d1"
     inkscape:document-units="mm"
     showgrid="false"
     inkscape:zoom="0.76880612"
     inkscape:cx="5.2028722"
     inkscape:cy="18.210053"
     inkscape:window-width="1920"
     inkscape:window-height="1017"
     inkscape:window-x="-8"
     inkscape:window-y="-8"
     inkscape:window-maximized="1"
     inkscape:current-layer="layer1" />
  <defs
     id="defs45242">
    <clipPath
       clipPathUnits="userSpaceOnUse"
       id="clipPath35464">
      <path
         d="M 9.12e-6,0 H 612.00001 V 792 H 9.12e-6 Z"
         clip-rule="evenodd"
         id="path35462" />
    </clipPath>
    <clipPath
       clipPathUnits="userSpaceOnUse"
       id="clipPath35482">
      <path
         d="M 9.12e-6,0 H 612.00001 V 792 H 9.12e-6 Z"
         clip-rule="evenodd"
         id="path35480" />
    </clipPath>
    <clipPath
       clipPathUnits="userSpaceOnUse"
       id="clipPath35498">
      <path
         d="M 9.12e-6,0 H 612.00001 V 792 H 9.12e-6 Z"
         clip-rule="evenodd"
         id="path35496" />
    </clipPath>
  </defs>
  <g
     inkscape:label="Layer 1"
     inkscape:groupmode="layer"
     id="layer1"
     transform="translate(-103.63536,-143.63464)">
    <g
       id="g35436"
       transform="matrix(0.35277777,0,0,-0.35277777,80.573112,325.481)">
      <path
         d="m 98.37,486.36 h -16.2 m 0,0 v 18.58 m 0,0 c 0,2.98 2.418,5.4 5.4,5.4 2.982,0 5.4,-2.42 5.4,-5.4 m 0,0 v -18.58 m 0,0 c 0,-5.96 -4.835,-10.8 -10.8,-10.8 -5.965,0 -10.8,4.84 -10.8,10.8 m 0,0 v 25.92"
         style="fill:none;stroke:#ff0000;stroke-width:0.72;stroke-linecap:round;stroke-linejoin:round;stroke-miterlimit:2;stroke-dasharray:2.16, 2.16;stroke-dashoffset:0;stroke-opacity:1"
         id="path35438" />
    </g>
    <path
       d="m 115.27586,153.904 c 0,-0.27516 0.22402,-0.50094 0.49989,-0.50094 0.27622,0 0.49847,0.22578 0.49847,0.50094 0,0.27517 -0.22225,0.50095 -0.49847,0.50095 -0.27587,0 -0.49989,-0.22578 -0.49989,-0.50095 z"
       style="fill:#000000;fill-opacity:1;fill-rule:evenodd;stroke:none;stroke-width:0.352778"
       id="path35440" />
    <path
       d="m 115.27586,153.904 c 0,-0.27516 0.22402,-0.50094 0.49989,-0.50094 0.27622,0 0.49847,0.22578 0.49847,0.50094 0,0.27517 -0.22225,0.50095 -0.49847,0.50095 -0.27587,0 -0.49989,-0.22578 -0.49989,-0.50095 z m 1.905,-8.14563 v -1.99673 m -11.43,0.99836 h 11.43"
       style="fill:none;stroke:#000000;stroke-width:0.254;stroke-linecap:round;stroke-linejoin:round;stroke-miterlimit:2;stroke-dasharray:none;stroke-opacity:1"
       id="path35442" />
    <g
       id="g35444"
       transform="matrix(0.35277777,0,0,-0.35277777,80.573112,325.481)">
      <path
         d="m 98.37,486.36 h -16.2 m 0,0 v 18.58 m 0,0 c 0,2.98 2.418,5.4 5.4,5.4 2.982,0 5.4,-2.42 5.4,-5.4 m 0,0 v -18.58 m 0,0 c 0,-5.96 -4.835,-10.8 -10.8,-10.8 -5.965,0 -10.8,4.84 -10.8,10.8 m 0,0 v 25.92"
         style="fill:none;stroke:#ff0000;stroke-width:0.72;stroke-linecap:round;stroke-linejoin:round;stroke-miterlimit:2;stroke-dasharray:2.16, 2.16;stroke-dashoffset:0;stroke-opacity:1"
         id="path35446" />
    </g>
    <path
       d="m 115.27586,153.904 c 0,-0.27516 0.22402,-0.50094 0.49989,-0.50094 0.27622,0 0.49847,0.22578 0.49847,0.50094 0,0.27517 -0.22225,0.50095 -0.49847,0.50095 -0.27587,0 -0.49989,-0.22578 -0.49989,-0.50095 z"
       style="fill:#000000;fill-opacity:1;fill-rule:evenodd;stroke:none;stroke-width:0.352778"
       id="path35448" />
    <path
       d="m 115.27586,153.904 c 0,-0.27516 0.22402,-0.50094 0.49989,-0.50094 0.27622,0 0.49847,0.22578 0.49847,0.50094 0,0.27517 -0.22225,0.50095 -0.49847,0.50095 -0.27587,0 -0.49989,-0.22578 -0.49989,-0.50095 z m 1.905,-8.14563 v -1.99673 m -11.43,0.99836 h 11.43"
       style="fill:none;stroke:#000000;stroke-width:0.254;stroke-linecap:round;stroke-linejoin:round;stroke-miterlimit:2;stroke-dasharray:none;stroke-opacity:1"
       id="path35450" />
    <path
       d="M 111.21327,151.15939 V 150.094"
       style="fill:none;stroke:#000000;stroke-width:0.127;stroke-linecap:round;stroke-linejoin:round;stroke-miterlimit:2;stroke-dasharray:none;stroke-opacity:1"
       id="path35452" />
    <path
       d="m 111.06087,151.0077 -0.381,-0.61031 -0.3048,0.49742 z m 0,-0.762 -0.381,-0.61031 -0.3048,0.49742 z"
       style="fill:#000000;fill-opacity:1;fill-rule:evenodd;stroke:none;stroke-width:0.352778"
       id="path35454" />
    <path
       d="m 108.31767,150.856 c 0.34714,-0.27869 0.77435,-0.43744 1.2192,-0.45861 0.55986,0.0353 1.09397,0.25047 1.524,0.61031 m -1.524,-1.37231 c 0.55986,0.0353 1.09397,0.25047 1.524,0.61031 m 0,0.762 -0.381,-0.61031 -0.3048,0.49742 z m 0,-0.762 -0.381,-0.61031 -0.3048,0.49742 z"
       style="fill:none;stroke:#000000;stroke-width:0.127;stroke-linecap:butt;stroke-linejoin:miter;stroke-miterlimit:2;stroke-dasharray:none;stroke-opacity:1"
       id="path35456" />
    <g
       id="g35458"
       transform="matrix(0.35277777,0,0,-0.35277777,80.573112,325.481)">
      <g
         id="g35460"
         clip-path="url(#clipPath35464)">
        <text
           xml:space="preserve"
           transform="matrix(1,0,0,-1,76.992,499.66)"
           style="font-variant:normal;font-weight:bold;font-size:3px;font-family:Arial;-inkscape-font-specification:Arial-BoldMT;writing-mode:lr-tb;fill:#ff0000;fill-opacity:1;fill-rule:nonzero;stroke:none"
           id="text35468"><tspan
             x="0 1.6799999 3.3599999"
             y="0"
             sodipodi:role="line"
             id="tspan35466">5x4</tspan></text>
      </g>
    </g>
    <path
       d="M 111.21327,151.15939 V 150.094"
       style="fill:none;stroke:#000000;stroke-width:0.127;stroke-linecap:round;stroke-linejoin:round;stroke-miterlimit:2;stroke-dasharray:none;stroke-opacity:1"
       id="path35470" />
    <path
       d="m 111.06087,151.0077 -0.381,-0.61031 -0.3048,0.49742 z m 0,-0.762 -0.381,-0.61031 -0.3048,0.49742 z"
       style="fill:#000000;fill-opacity:1;fill-rule:evenodd;stroke:none;stroke-width:0.352778"
       id="path35472" />
    <path
       d="m 108.31767,150.856 c 0.34714,-0.27869 0.77435,-0.43744 1.2192,-0.45861 0.55986,0.0353 1.09397,0.25047 1.524,0.61031 m -1.524,-1.37231 c 0.55986,0.0353 1.09397,0.25047 1.524,0.61031 m 0,0.762 -0.381,-0.61031 -0.3048,0.49742 z m 0,-0.762 -0.381,-0.61031 -0.3048,0.49742 z"
       style="fill:none;stroke:#000000;stroke-width:0.127;stroke-linecap:butt;stroke-linejoin:miter;stroke-miterlimit:2;stroke-dasharray:none;stroke-opacity:1"
       id="path35474" />
    <g
       id="g35476"
       transform="matrix(0.35277777,0,0,-0.35277777,80.573112,325.481)">
      <g
         id="g35478"
         clip-path="url(#clipPath35482)">
        <text
           xml:space="preserve"
           transform="matrix(1,0,0,-1,76.992,499.66)"
           style="font-variant:normal;font-weight:bold;font-size:3px;font-family:Arial;-inkscape-font-specification:Arial-BoldMT;writing-mode:lr-tb;fill:#ff0000;fill-opacity:1;fill-rule:nonzero;stroke:none"
           id="text35486"><tspan
             x="0 1.6799999 3.3599999"
             y="0"
             sodipodi:role="line"
             id="tspan35484">5x4</tspan></text>
      </g>
    </g>
    <path
       d="m 104.59516,150.2845 v 0.56798 l 2.1336,0.99483 v -1.98967 l -2.1336,0.99484 z m 0,-1.13594 v 0.56797 l 1.2192,0.56797 v -1.13594 l -1.2192,0.56797 z"
       style="fill:#ff0000;fill-opacity:1;fill-rule:evenodd;stroke:none;stroke-width:0.352778"
       id="path35488" />
    <path
       d="m 104.59516,150.2845 v 0.56798 l 2.1336,0.99483 v -1.98967 l -2.1336,0.99484 m 0,-1.70392 v 0.56797 l 1.2192,0.56797 v -1.13594 l -1.2192,0.56797 m -0.3048,1.13595 v -1.70392"
       style="fill:none;stroke:#000000;stroke-width:0.127;stroke-linecap:round;stroke-linejoin:round;stroke-miterlimit:2;stroke-dasharray:none;stroke-opacity:1"
       id="path35490" />
    <g
       id="g35492"
       transform="matrix(0.35277777,0,0,-0.35277777,80.573112,325.481)">
      <g
         id="g35494"
         clip-path="url(#clipPath35498)">
        <text
           xml:space="preserve"
           transform="matrix(1,0,0,-1,65.136,491.35)"
           style="font-variant:normal;font-weight:bold;font-size:3px;font-family:Arial;-inkscape-font-specification:Arial-BoldMT;writing-mode:lr-tb;fill:#ff0000;fill-opacity:1;fill-rule:nonzero;stroke:none"
           id="text35502"><tspan
             x="0 1.6799999 2.526"
             y="0"
             sodipodi:role="line"
             id="tspan35500">1/4</tspan></text>
      </g>
    </g>
    <path
       d="m 114.89486,150.2457 -0.381,0.6103 -0.3048,-0.49389 z m 0,0.762 -0.381,0.6103 -0.3048,-0.49389 z"
       style="fill:#000000;fill-opacity:1;fill-rule:evenodd;stroke:none;stroke-width:0.352778"
       id="path35504" />
    <path
       d="m 112.15166,150.39739 c 0.34713,0.2787 0.77435,0.44097 1.2192,0.45861 0.55986,-0.0353 1.09397,-0.25047 1.524,-0.6103 m -2.7432,0.91369 c 0.34713,0.2787 0.77435,0.44097 1.2192,0.45861 0.55986,-0.0353 1.09397,-0.25047 1.524,-0.6103 m 0,-0.762 -0.381,0.6103 -0.3048,-0.49389 z m 0,0.762 -0.381,0.6103 -0.3048,-0.49389 z"
       style="fill:none;stroke:#000000;stroke-width:0.127;stroke-linecap:butt;stroke-linejoin:miter;stroke-miterlimit:2;stroke-dasharray:none;stroke-opacity:1"
       id="path35506" />
    <path
       d="m 115.04726,150.094 v 1.06539"
       style="fill:none;stroke:#000000;stroke-width:0.127;stroke-linecap:round;stroke-linejoin:round;stroke-miterlimit:2;stroke-dasharray:none;stroke-opacity:1"
       id="path35508" />
    <path
       d="m 114.89486,150.2457 -0.381,0.6103 -0.3048,-0.49389 z m 0,0.762 -0.381,0.6103 -0.3048,-0.49389 z"
       style="fill:#000000;fill-opacity:1;fill-rule:evenodd;stroke:none;stroke-width:0.352778"
       id="path35510" />
    <path
       d="m 112.15166,150.39739 c 0.34713,0.2787 0.77435,0.44097 1.2192,0.45861 0.55986,-0.0353 1.09397,-0.25047 1.524,-0.6103 m -2.7432,0.91369 c 0.34713,0.2787 0.77435,0.44097 1.2192,0.45861 0.55986,-0.0353 1.09397,-0.25047 1.524,-0.6103 m 0,-0.762 -0.381,0.6103 -0.3048,-0.49389 z m 0,0.762 -0.381,0.6103 -0.3048,-0.49389 z"
       style="fill:none;stroke:#000000;stroke-width:0.127;stroke-linecap:butt;stroke-linejoin:miter;stroke-miterlimit:2;stroke-dasharray:none;stroke-opacity:1"
       id="path35512" />
    <path
       d="m 115.04726,150.094 v 1.06539"
       style="fill:none;stroke:#000000;stroke-width:0.127;stroke-linecap:round;stroke-linejoin:round;stroke-miterlimit:2;stroke-dasharray:none;stroke-opacity:1"
       id="path35514" />
  </g>
</svg>
