<?xml version="1.0" encoding="UTF-8" standalone="no"?>
<!-- Created with Inkscape (http://www.inkscape.org/) -->

<svg
   width="15.971774mm"
   height="16.122261mm"
   viewBox="0 0 15.971774 16.122261"
   version="1.1"
   id="svg45541"
   inkscape:version="1.2.2 (732a01da63, 2022-12-09)"
   sodipodi:docname="4.svg"
   xmlns:inkscape="http://www.inkscape.org/namespaces/inkscape"
   xmlns:sodipodi="http://sodipodi.sourceforge.net/DTD/sodipodi-0.dtd"
   xmlns="http://www.w3.org/2000/svg"
   xmlns:svg="http://www.w3.org/2000/svg">
  <sodipodi:namedview
     id="namedview45543"
     pagecolor="#ffffff"
     bordercolor="#000000"
     borderopacity="0.25"
     inkscape:showpageshadow="2"
     inkscape:pageopacity="0.0"
     inkscape:pagecheckerboard="0"
     inkscape:deskcolor="#d1d1d1"
     inkscape:document-units="mm"
     showgrid="false"
     inkscape:zoom="0.76880612"
     inkscape:cx="-10.405744"
     inkscape:cy="6.5035903"
     inkscape:window-width="1920"
     inkscape:window-height="1017"
     inkscape:window-x="-8"
     inkscape:window-y="-8"
     inkscape:window-maximized="1"
     inkscape:current-layer="layer1" />
  <defs
     id="defs45538">
    <clipPath
       clipPathUnits="userSpaceOnUse"
       id="clipPath35542">
      <path
         d="M 9.12e-6,0 H 612.00001 V 792 H 9.12e-6 Z"
         clip-rule="evenodd"
         id="path35540" />
    </clipPath>
    <clipPath
       clipPathUnits="userSpaceOnUse"
       id="clipPath35558">
      <path
         d="M 9.12e-6,0 H 612.00001 V 792 H 9.12e-6 Z"
         clip-rule="evenodd"
         id="path35556" />
    </clipPath>
    <clipPath
       clipPathUnits="userSpaceOnUse"
       id="clipPath35574">
      <path
         d="M 9.12e-6,0 H 612.00001 V 792 H 9.12e-6 Z"
         clip-rule="evenodd"
         id="path35572" />
    </clipPath>
    <clipPath
       clipPathUnits="userSpaceOnUse"
       id="clipPath35586">
      <path
         d="M -4.5776e-5,792 H 612 V 6.1035e-5 L -1.3733e-4,0"
         clip-rule="evenodd"
         id="path35584" />
    </clipPath>
    <clipPath
       clipPathUnits="userSpaceOnUse"
       id="clipPath35596">
      <path
         d="M -4.5776e-5,792 H 612 V 6.1035e-5 L -1.3733e-4,0"
         clip-rule="evenodd"
         id="path35594" />
    </clipPath>
    <clipPath
       clipPathUnits="userSpaceOnUse"
       id="clipPath35606">
      <path
         d="M -4.5776e-5,792 H 612 V 6.1035e-5 L -1.3733e-4,0"
         clip-rule="evenodd"
         id="path35604" />
    </clipPath>
    <clipPath
       clipPathUnits="userSpaceOnUse"
       id="clipPath35616">
      <path
         d="M -4.5776e-5,792 H 612 V 6.1035e-5 L -1.3733e-4,0"
         clip-rule="evenodd"
         id="path35614" />
    </clipPath>
    <clipPath
       clipPathUnits="userSpaceOnUse"
       id="clipPath35626">
      <path
         d="M -1.5259e-5,792 H 612 V 1.2207e-4 H -4.5776e-5"
         clip-rule="evenodd"
         id="path35624" />
    </clipPath>
    <clipPath
       clipPathUnits="userSpaceOnUse"
       id="clipPath35636">
      <path
         d="M -1.5259e-5,792 H 612 V 1.2207e-4 H -4.5776e-5"
         clip-rule="evenodd"
         id="path35634" />
    </clipPath>
    <clipPath
       clipPathUnits="userSpaceOnUse"
       id="clipPath35648">
      <path
         d="M -1.5259e-5,792 H 612 V 1.2207e-4 H -4.5776e-5"
         clip-rule="evenodd"
         id="path35646" />
    </clipPath>
    <clipPath
       clipPathUnits="userSpaceOnUse"
       id="clipPath35658">
      <path
         d="M -1.5259e-5,792 H 612 V 1.2207e-4 H -4.5776e-5"
         clip-rule="evenodd"
         id="path35656" />
    </clipPath>
  </defs>
  <g
     inkscape:label="Layer 1"
     inkscape:groupmode="layer"
     id="layer1"
     transform="translate(-107.64795,-146.46146)">
    <g
       id="g35516"
       transform="matrix(0.35277777,0,0,-0.35277777,85.60498,310.41172)">
      <path
         d="m 100.24,462.6 v -43.2 m 0,0 -25.413,25.41"
         style="fill:none;stroke:#ff0000;stroke-width:0.72;stroke-linecap:round;stroke-linejoin:round;stroke-miterlimit:2;stroke-dasharray:2.16, 2.16;stroke-dashoffset:0;stroke-opacity:1"
         id="path35518" />
    </g>
    <path
       d="m 108.77507,147.21672 c 0,0.27517 -0.22401,0.50095 -0.49988,0.50095 -0.27623,0 -0.50024,-0.22578 -0.50024,-0.50095 0,-0.27516 0.22401,-0.50094 0.50024,-0.50094 0.27587,0 0.49988,0.22578 0.49988,0.50094 z"
       style="fill:#000000;fill-opacity:1;fill-rule:evenodd;stroke:none;stroke-width:0.352778"
       id="path35520" />
    <path
       d="m 108.77507,147.21672 c 0,0.27517 -0.22401,0.50095 -0.49988,0.50095 -0.27623,0 -0.50024,-0.22578 -0.50024,-0.50095 0,-0.27516 0.22401,-0.50094 0.50024,-0.50094 0.27587,0 0.49988,0.22578 0.49988,0.50094 z m 10.93682,5.27403 v 2.00025 m -10.93682,-7.27428 h 12.19235 m -8.96514,6.27592 h 7.70961"
       style="fill:none;stroke:#000000;stroke-width:0.254;stroke-linecap:round;stroke-linejoin:round;stroke-miterlimit:2;stroke-dasharray:none;stroke-opacity:1"
       id="path35522" />
    <g
       id="g35524"
       transform="matrix(0.35277777,0,0,-0.35277777,85.60498,310.41172)">
      <path
         d="m 100.24,462.6 v -43.2 m 0,0 -25.413,25.41"
         style="fill:none;stroke:#ff0000;stroke-width:0.72;stroke-linecap:round;stroke-linejoin:round;stroke-miterlimit:2;stroke-dasharray:2.16, 2.16;stroke-dashoffset:0;stroke-opacity:1"
         id="path35526" />
    </g>
    <path
       d="m 108.77507,147.21672 c 0,0.27517 -0.22401,0.50095 -0.49988,0.50095 -0.27623,0 -0.50024,-0.22578 -0.50024,-0.50095 0,-0.27516 0.22401,-0.50094 0.50024,-0.50094 0.27587,0 0.49988,0.22578 0.49988,0.50094 z"
       style="fill:#000000;fill-opacity:1;fill-rule:evenodd;stroke:none;stroke-width:0.352778"
       id="path35528" />
    <path
       d="m 108.77507,147.21672 c 0,0.27517 -0.22401,0.50095 -0.49988,0.50095 -0.27623,0 -0.50024,-0.22578 -0.50024,-0.50095 0,-0.27516 0.22401,-0.50094 0.50024,-0.50094 0.27587,0 0.49988,0.22578 0.49988,0.50094 z m 10.93682,5.27403 v 2.00025 m -10.93682,-7.27428 h 12.19235 m -8.96514,6.27592 h 7.70961"
       style="fill:none;stroke:#000000;stroke-width:0.254;stroke-linecap:round;stroke-linejoin:round;stroke-miterlimit:2;stroke-dasharray:none;stroke-opacity:1"
       id="path35530" />
    <path
       d="m 122.75953,148.60667 v -0.71614 h -3.22685 v 1.61219 l 3.22685,-1.61219 z m 0,0.89605 v -0.71614 h -1.79211 v 0.89606 l 1.79211,-0.89606 z"
       style="fill:#ffffff;fill-opacity:1;fill-rule:evenodd;stroke:none;stroke-width:0.352778"
       id="path35532" />
    <path
       d="m 122.75953,148.60667 v -0.71614 h -3.22685 v 1.61219 l 3.22685,-1.61219 m 0,1.61219 v -0.71614 h -1.79211 v 0.89606 l 1.79211,-0.89606 m 0.35984,-0.89605 v 1.61219"
       style="fill:none;stroke:#000000;stroke-width:0.127;stroke-linecap:round;stroke-linejoin:round;stroke-miterlimit:2;stroke-dasharray:none;stroke-opacity:1"
       id="path35534" />
    <g
       id="g35536"
       transform="matrix(0.35277777,0,0,-0.35277777,85.60498,310.41172)">
      <g
         id="g35538"
         clip-path="url(#clipPath35542)">
        <text
           xml:space="preserve"
           transform="matrix(1,0,0,-1,102.84,462.12)"
           style="font-variant:normal;font-weight:bold;font-size:3.6px;font-family:Arial;-inkscape-font-specification:Arial-BoldMT;writing-mode:lr-tb;fill:#ff0000;fill-opacity:1;fill-rule:nonzero;stroke:none"
           id="text35546"><tspan
             x="0 2.0376 2.9988"
             y="0"
             sodipodi:role="line"
             id="tspan35544">3/4</tspan></text>
      </g>
    </g>
    <path
       d="m 119.1739,150.53283 0.44838,0.71967 0.35878,-0.58561 z"
       style="fill:#000000;fill-opacity:1;fill-rule:evenodd;stroke:none;stroke-width:0.352778"
       id="path35548" />
    <path
       d="m 120.96742,151.2525 c -0.65934,-0.0423 -1.28764,-0.29633 -1.79352,-0.71967 m 0,0 0.44838,0.71967 0.35878,-0.58561 z"
       style="fill:none;stroke:#000000;stroke-width:0.127;stroke-linecap:butt;stroke-linejoin:miter;stroke-miterlimit:2;stroke-dasharray:none;stroke-opacity:1"
       id="path35550" />
    <g
       id="g35552"
       transform="matrix(0.35277777,0,0,-0.35277777,85.60498,310.41172)">
      <g
         id="g35554"
         clip-path="url(#clipPath35558)">
        <text
           xml:space="preserve"
           transform="matrix(1,0,0,-1,89.112,449.28)"
           style="font-variant:normal;font-weight:bold;font-size:3.6px;font-family:Arial;-inkscape-font-specification:Arial-BoldMT;writing-mode:lr-tb;fill:#ff0000;fill-opacity:1;fill-rule:nonzero;stroke:none"
           id="text35562"><tspan
             x="0 2.0376 2.9988"
             y="0"
             sodipodi:role="line"
             id="tspan35560">3/4</tspan></text>
      </g>
    </g>
    <path
       d="m 119.1739,150.53283 0.44838,0.71967 0.35878,-0.58561 z"
       style="fill:#000000;fill-opacity:1;fill-rule:evenodd;stroke:none;stroke-width:0.352778"
       id="path35564" />
    <path
       d="m 120.96742,151.2525 c -0.65934,-0.0423 -1.28764,-0.29633 -1.79352,-0.71967 m 0,0 0.44838,0.71967 0.35878,-0.58561 z"
       style="fill:none;stroke:#000000;stroke-width:0.127;stroke-linecap:butt;stroke-linejoin:miter;stroke-miterlimit:2;stroke-dasharray:none;stroke-opacity:1"
       id="path35566" />
    <g
       id="g35568"
       transform="matrix(0.35277777,0,0,-0.35277777,85.60498,310.41172)">
      <g
         id="g35570"
         clip-path="url(#clipPath35574)">
        <text
           xml:space="preserve"
           transform="matrix(1,0,0,-1,89.112,449.28)"
           style="font-variant:normal;font-weight:bold;font-size:3.6px;font-family:Arial;-inkscape-font-specification:Arial-BoldMT;writing-mode:lr-tb;fill:#ff0000;fill-opacity:1;fill-rule:nonzero;stroke:none"
           id="text35578"><tspan
             x="0 2.0376 2.9988"
             y="0"
             sodipodi:role="line"
             id="tspan35576">3/4</tspan></text>
      </g>
    </g>
    <g
       id="g35580"
       transform="matrix(0.35277777,0,0,-0.35277777,85.60498,310.41172)">
      <g
         id="g35582"
         clip-path="url(#clipPath35586)">
        <path
           d="m 93.768,432.98 -2.336,0.54 0.449,-1.89 z"
           style="fill:#000000;fill-opacity:1;fill-rule:evenodd;stroke:none"
           id="path35588" />
      </g>
    </g>
    <g
       id="g35590"
       transform="matrix(0.35277777,0,0,-0.35277777,85.60498,310.41172)">
      <g
         id="g35592"
         clip-path="url(#clipPath35596)">
        <path
           d="m 88.737,430.82 c 1.404,1.24 3.167,1.99 5.031,2.16 m 0,0 -2.336,0.54 0.449,-1.89 z"
           style="fill:none;stroke:#000000;stroke-width:0.36;stroke-linecap:butt;stroke-linejoin:miter;stroke-miterlimit:2;stroke-dasharray:none;stroke-opacity:1"
           id="path35598" />
      </g>
    </g>
    <g
       id="g35600"
       transform="matrix(0.35277777,0,0,-0.35277777,85.60498,310.41172)">
      <g
         id="g35602"
         clip-path="url(#clipPath35606)">
        <path
           d="m 93.768,432.98 -2.336,0.54 0.449,-1.89 z"
           style="fill:#000000;fill-opacity:1;fill-rule:evenodd;stroke:none"
           id="path35608" />
      </g>
    </g>
    <g
       id="g35610"
       transform="matrix(0.35277777,0,0,-0.35277777,85.60498,310.41172)">
      <g
         id="g35612"
         clip-path="url(#clipPath35616)">
        <path
           d="m 88.737,430.82 c 1.404,1.24 3.167,1.99 5.031,2.16 m 0,0 -2.336,0.54 0.449,-1.89 z"
           style="fill:none;stroke:#000000;stroke-width:0.36;stroke-linecap:butt;stroke-linejoin:miter;stroke-miterlimit:2;stroke-dasharray:none;stroke-opacity:1"
           id="path35618" />
      </g>
    </g>
    <g
       id="g35620"
       transform="matrix(0.35277777,0,0,-0.35277777,85.60498,310.41172)">
      <g
         id="g35622"
         clip-path="url(#clipPath35626)">
        <path
           d="m 84.289,428.16 -0.539,2.34 1.887,-0.45 z"
           style="fill:#000000;fill-opacity:1;fill-rule:evenodd;stroke:none"
           id="path35628" />
      </g>
    </g>
    <g
       id="g35630"
       transform="matrix(0.35277777,0,0,-0.35277777,85.60498,310.41172)">
      <g
         id="g35632"
         clip-path="url(#clipPath35636)">
        <path
           d="m 86.446,433.19 c -1.237,-1.4 -1.993,-3.16 -2.157,-5.03 m 0,0 -0.539,2.34 1.887,-0.45 z"
           style="fill:none;stroke:#000000;stroke-width:0.36;stroke-linecap:butt;stroke-linejoin:miter;stroke-miterlimit:2;stroke-dasharray:none;stroke-opacity:1"
           id="path35638" />
      </g>
    </g>
    <path
       d="m 113.65716,158.31511 v 0.16228 h -0.60854 c 0.007,-0.06 0.0265,-0.11994 0.0596,-0.17286 0.0328,-0.0565 0.0977,-0.127 0.19509,-0.21872 0.0783,-0.0706 0.12629,-0.11995 0.14393,-0.14817 0.0236,-0.0353 0.0356,-0.0706 0.0356,-0.10583 0,-0.0388 -0.0102,-0.067 -0.031,-0.0882 -0.0208,-0.0212 -0.0494,-0.0317 -0.0861,-0.0317 -0.0363,0 -0.0653,0.0106 -0.0864,0.0317 -0.0215,0.0212 -0.0339,0.06 -0.0374,0.10936 l -0.17286,-0.0176 c 0.0102,-0.0952 0.0427,-0.16227 0.097,-0.20461 0.0543,-0.0423 0.12241,-0.0635 0.2039,-0.0635 0.0892,0 0.15946,0.0247 0.21061,0.0741 0.0512,0.0459 0.0766,0.10583 0.0766,0.17991 0,0.0388 -0.007,0.0776 -0.0219,0.11642 -0.0148,0.0353 -0.0378,0.0741 -0.0695,0.11289 -0.0212,0.0282 -0.0589,0.067 -0.11359,0.11642 -0.0547,0.0494 -0.0896,0.0847 -0.10407,0.1023 -0.0148,0.0141 -0.0265,0.0317 -0.0356,0.0459 z m 0.0871,0.16228 0.23671,-0.33867 -0.22683,-0.3175 h 0.21202 l 0.11606,0.17992 0.12241,-0.17992 h 0.20356 l -0.22225,0.31045 0.24271,0.34572 h -0.21308 l -0.13335,-0.20461 -0.13476,0.20461 z m 1.06398,0 v -0.18344 h -0.37042 v -0.1517 l 0.39264,-0.57503 h 0.1457 v 0.57503 h 0.11253 v 0.1517 h -0.11253 v 0.18344 z m 0,-0.33514 v -0.31044 l -0.20814,0.31044 z"
       style="fill:#ff0000;fill-opacity:1;fill-rule:nonzero;stroke:none;stroke-width:0.352778"
       id="path35640" />
    <g
       id="g35642"
       transform="matrix(0.35277777,0,0,-0.35277777,85.60498,310.41172)">
      <g
         id="g35644"
         clip-path="url(#clipPath35648)">
        <path
           d="m 84.289,428.16 -0.539,2.34 1.887,-0.45 z"
           style="fill:#000000;fill-opacity:1;fill-rule:evenodd;stroke:none"
           id="path35650" />
      </g>
    </g>
    <g
       id="g35652"
       transform="matrix(0.35277777,0,0,-0.35277777,85.60498,310.41172)">
      <g
         id="g35654"
         clip-path="url(#clipPath35658)">
        <path
           d="m 86.446,433.19 c -1.237,-1.4 -1.993,-3.16 -2.157,-5.03 m 0,0 -0.539,2.34 1.887,-0.45 z"
           style="fill:none;stroke:#000000;stroke-width:0.36;stroke-linecap:butt;stroke-linejoin:miter;stroke-miterlimit:2;stroke-dasharray:none;stroke-opacity:1"
           id="path35660" />
      </g>
    </g>
    <path
       d="m 113.65716,158.31511 v 0.16228 h -0.60854 c 0.007,-0.06 0.0265,-0.11994 0.0596,-0.17286 0.0328,-0.0565 0.0977,-0.127 0.19509,-0.21872 0.0783,-0.0706 0.12629,-0.11995 0.14393,-0.14817 0.0236,-0.0353 0.0356,-0.0706 0.0356,-0.10583 0,-0.0388 -0.0102,-0.067 -0.031,-0.0882 -0.0208,-0.0212 -0.0494,-0.0317 -0.0861,-0.0317 -0.0363,0 -0.0653,0.0106 -0.0864,0.0317 -0.0215,0.0212 -0.0339,0.06 -0.0374,0.10936 l -0.17286,-0.0176 c 0.0102,-0.0952 0.0427,-0.16227 0.097,-0.20461 0.0543,-0.0423 0.12241,-0.0635 0.2039,-0.0635 0.0892,0 0.15946,0.0247 0.21061,0.0741 0.0512,0.0459 0.0766,0.10583 0.0766,0.17991 0,0.0388 -0.007,0.0776 -0.0219,0.11642 -0.0148,0.0353 -0.0378,0.0741 -0.0695,0.11289 -0.0212,0.0282 -0.0589,0.067 -0.11359,0.11642 -0.0547,0.0494 -0.0896,0.0847 -0.10407,0.1023 -0.0148,0.0141 -0.0265,0.0317 -0.0356,0.0459 z m 0.0871,0.16228 0.23671,-0.33867 -0.22683,-0.3175 h 0.21202 l 0.11606,0.17992 0.12241,-0.17992 h 0.20356 l -0.22225,0.31045 0.24271,0.34572 h -0.21308 l -0.13335,-0.20461 -0.13476,0.20461 z m 1.06398,0 v -0.18344 h -0.37042 v -0.1517 l 0.39264,-0.57503 h 0.1457 v 0.57503 h 0.11253 v 0.1517 h -0.11253 v 0.18344 z m 0,-0.33514 v -0.31044 l -0.20814,0.31044 z"
       style="fill:#ff0000;fill-opacity:1;fill-rule:nonzero;stroke:none;stroke-width:0.352778"
       id="path35662" />
  </g>
</svg>
