<?xml version="1.0" encoding="UTF-8" standalone="no"?>
<!-- Created with Inkscape (http://www.inkscape.org/) -->

<svg
   width="8.0329027mm"
   height="16.40064mm"
   viewBox="0 0 8.0329027 16.40064"
   version="1.1"
   id="svg47100"
   inkscape:version="1.2.2 (732a01da63, 2022-12-09)"
   sodipodi:docname="8.svg"
   xmlns:inkscape="http://www.inkscape.org/namespaces/inkscape"
   xmlns:sodipodi="http://sodipodi.sourceforge.net/DTD/sodipodi-0.dtd"
   xmlns="http://www.w3.org/2000/svg"
   xmlns:svg="http://www.w3.org/2000/svg">
  <sodipodi:namedview
     id="namedview47102"
     pagecolor="#ffffff"
     bordercolor="#000000"
     borderopacity="0.25"
     inkscape:showpageshadow="2"
     inkscape:pageopacity="0.0"
     inkscape:pagecheckerboard="0"
     inkscape:deskcolor="#d1d1d1"
     inkscape:document-units="mm"
     showgrid="false"
     inkscape:zoom="0.76880612"
     inkscape:cx="196.40843"
     inkscape:cy="6.5035903"
     inkscape:window-width="1920"
     inkscape:window-height="1017"
     inkscape:window-x="-8"
     inkscape:window-y="-8"
     inkscape:window-maximized="1"
     inkscape:current-layer="layer1" />
  <defs
     id="defs47097">
    <clipPath
       clipPathUnits="userSpaceOnUse"
       id="clipPath36062">
      <path
         d="M 9.12e-6,0 H 612.00001 V 792 H 9.12e-6 Z"
         clip-rule="evenodd"
         id="path36060" />
    </clipPath>
    <clipPath
       clipPathUnits="userSpaceOnUse"
       id="clipPath36078">
      <path
         d="M 9.12e-6,0 H 612.00001 V 792 H 9.12e-6 Z"
         clip-rule="evenodd"
         id="path36076" />
    </clipPath>
    <clipPath
       clipPathUnits="userSpaceOnUse"
       id="clipPath36094">
      <path
         d="M 9.12e-6,0 H 612.00001 V 792 H 9.12e-6 Z"
         clip-rule="evenodd"
         id="path36092" />
    </clipPath>
  </defs>
  <g
     inkscape:label="Layer 1"
     inkscape:groupmode="layer"
     id="layer1"
     transform="translate(-53.11217,-146.66642)">
    <g
       id="g36036"
       transform="matrix(0.35277777,0,0,-0.35277777,28.284023,234.50103)">
      <path
         d="m 73.574,222.35 h 13.137 v 26.27 m 0,-42.94 H 72.386"
         style="fill:none;stroke:#ff0000;stroke-width:0.72;stroke-linecap:round;stroke-linejoin:round;stroke-miterlimit:2;stroke-dasharray:2.16, 2.16;stroke-dashoffset:0;stroke-opacity:1"
         id="path36038" />
    </g>
    <path
       d="m 54.239295,156.06089 c 0,-0.27516 -0.224014,-0.50094 -0.500239,-0.50094 -0.275872,0 -0.499886,0.22578 -0.499886,0.50094 0,0.27517 0.224014,0.50095 0.499886,0.50095 0.276225,0 0.500239,-0.22578 0.500239,-0.50095 z"
       style="fill:#000000;fill-opacity:1;fill-rule:evenodd;stroke:none;stroke-width:0.352778"
       id="path36040" />
    <path
       d="m 54.239295,156.06089 c 0,-0.27516 -0.224014,-0.50094 -0.500239,-0.50094 -0.275872,0 -0.499886,0.22578 -0.499886,0.50094 0,0.27517 0.224014,0.50095 0.499886,0.50095 0.276225,0 0.500239,-0.22578 0.500239,-0.50095 z m -0.4191,6.87917 v -2.00025 m 5.053541,-4.87892 v 5.88081 m 0,-15.14828 0.618067,1.23472"
       style="fill:none;stroke:#000000;stroke-width:0.254;stroke-linecap:round;stroke-linejoin:round;stroke-miterlimit:2;stroke-dasharray:none;stroke-opacity:1"
       id="path36042" />
    <g
       id="g36044"
       transform="matrix(0.35277777,0,0,-0.35277777,28.284023,234.50103)">
      <path
         d="m 73.574,222.35 h 13.137 v 26.27 m 0,-42.94 H 72.386"
         style="fill:none;stroke:#ff0000;stroke-width:0.72;stroke-linecap:round;stroke-linejoin:round;stroke-miterlimit:2;stroke-dasharray:2.16, 2.16;stroke-dashoffset:0;stroke-opacity:1"
         id="path36046" />
    </g>
    <path
       d="m 54.239295,156.06089 c 0,-0.27516 -0.224014,-0.50094 -0.500239,-0.50094 -0.275872,0 -0.499886,0.22578 -0.499886,0.50094 0,0.27517 0.224014,0.50095 0.499886,0.50095 0.276225,0 0.500239,-0.22578 0.500239,-0.50095 z"
       style="fill:#000000;fill-opacity:1;fill-rule:evenodd;stroke:none;stroke-width:0.352778"
       id="path36048" />
    <path
       d="m 54.239295,156.06089 c 0,-0.27516 -0.224014,-0.50094 -0.500239,-0.50094 -0.275872,0 -0.499886,0.22578 -0.499886,0.50094 0,0.27517 0.224014,0.50095 0.499886,0.50095 0.276225,0 0.500239,-0.22578 0.500239,-0.50095 z m -0.4191,6.87917 v -2.00025 m 5.053541,-4.87892 v 5.88081 m 0,-15.14828 0.618067,1.23472"
       style="fill:none;stroke:#000000;stroke-width:0.254;stroke-linecap:round;stroke-linejoin:round;stroke-miterlimit:2;stroke-dasharray:none;stroke-opacity:1"
       id="path36050" />
    <path
       d="m 60.41855,151.40775 v 0.51506 l -1.544814,0.71967 v -1.43934 l 1.544814,0.71967 z"
       style="fill:#ff0000;fill-opacity:1;fill-rule:evenodd;stroke:none;stroke-width:0.352778"
       id="path36052" />
    <path
       d="m 60.41855,151.40775 v 0.51506 l -1.544814,0.71967 v -1.43934 l 1.544814,0.71967"
       style="fill:none;stroke:#000000;stroke-width:0.127;stroke-linecap:round;stroke-linejoin:round;stroke-miterlimit:2;stroke-dasharray:none;stroke-opacity:1"
       id="path36054" />
    <g
       id="g36056"
       transform="matrix(0.35277777,0,0,-0.35277777,28.284023,234.50103)">
      <g
         id="g36058"
         clip-path="url(#clipPath36062)">
        <text
           xml:space="preserve"
           transform="matrix(1,0,0,-1,88.968,237.46)"
           style="font-variant:normal;font-weight:bold;font-size:3.12px;font-family:Arial;-inkscape-font-specification:Arial-BoldMT;writing-mode:lr-tb;fill:#ff0000;fill-opacity:1;fill-rule:nonzero;stroke:none"
           id="text36066"><tspan
             x="0 1.67856 2.5178399"
             y="0"
             sodipodi:role="line"
             id="tspan36064">3/4</tspan></text>
      </g>
    </g>
    <path
       d="m 57.328922,150.37059 0.386292,-0.61736 0.308681,0.50094 z"
       style="fill:#000000;fill-opacity:1;fill-rule:evenodd;stroke:none;stroke-width:0.352778"
       id="path36068" />
    <path
       d="m 58.873736,149.75323 c -0.567619,0.0353 -1.109133,0.25047 -1.544814,0.61736 m 0,0 0.386292,-0.61736 0.308681,0.50094 z"
       style="fill:none;stroke:#000000;stroke-width:0.127;stroke-linecap:butt;stroke-linejoin:miter;stroke-miterlimit:2;stroke-dasharray:none;stroke-opacity:1"
       id="path36070" />
    <g
       id="g36072"
       transform="matrix(0.35277777,0,0,-0.35277777,28.284023,234.50103)">
      <g
         id="g36074"
         clip-path="url(#clipPath36078)">
        <text
           xml:space="preserve"
           transform="matrix(1,0,0,-1,79.776,241.85)"
           style="font-variant:normal;font-weight:bold;font-size:3.12px;font-family:Arial;-inkscape-font-specification:Arial-BoldMT;writing-mode:lr-tb;fill:#ff0000;fill-opacity:1;fill-rule:nonzero;stroke:none"
           id="text36082"><tspan
             x="0 1.67856 3.4756801"
             y="0"
             sodipodi:role="line"
             id="tspan36080">2x8</tspan></text>
      </g>
    </g>
    <path
       d="m 57.328922,150.37059 0.386292,-0.61736 0.308681,0.50094 z"
       style="fill:#000000;fill-opacity:1;fill-rule:evenodd;stroke:none;stroke-width:0.352778"
       id="path36084" />
    <path
       d="m 58.873736,149.75323 c -0.567619,0.0353 -1.109133,0.25047 -1.544814,0.61736 m 0,0 0.386292,-0.61736 0.308681,0.50094 z"
       style="fill:none;stroke:#000000;stroke-width:0.127;stroke-linecap:butt;stroke-linejoin:miter;stroke-miterlimit:2;stroke-dasharray:none;stroke-opacity:1"
       id="path36086" />
    <g
       id="g36088"
       transform="matrix(0.35277777,0,0,-0.35277777,28.284023,234.50103)">
      <g
         id="g36090"
         clip-path="url(#clipPath36094)">
        <text
           xml:space="preserve"
           transform="matrix(1,0,0,-1,79.776,241.85)"
           style="font-variant:normal;font-weight:bold;font-size:3.12px;font-family:Arial;-inkscape-font-specification:Arial-BoldMT;writing-mode:lr-tb;fill:#ff0000;fill-opacity:1;fill-rule:nonzero;stroke:none"
           id="text36098"><tspan
             x="0 1.67856 3.4756801"
             y="0"
             sodipodi:role="line"
             id="tspan36096">2x8</tspan></text>
      </g>
    </g>
    <path
       d="m 57.346561,157.69425 0.386292,0.61737 0.30868,-0.50095 z m 0,0.77259 0.386292,0.61736 0.30868,-0.50095 z"
       style="fill:#000000;fill-opacity:1;fill-rule:evenodd;stroke:none;stroke-width:0.352778"
       id="path36100" />
    <path
       d="m 60.127156,157.84948 c -0.35172,0.28222 -0.784931,0.4445 -1.235781,0.46214 -0.567619,-0.0353 -1.109133,-0.25048 -1.544814,-0.61737 m 1.544814,1.38995 c -0.567619,-0.0353 -1.109133,-0.254 -1.544814,-0.61736 m 0,-0.77259 0.386292,0.61737 0.30868,-0.50095 z m 0,0.77259 0.386292,0.61736 0.30868,-0.50095 z"
       style="fill:none;stroke:#000000;stroke-width:0.127;stroke-linecap:butt;stroke-linejoin:miter;stroke-miterlimit:2;stroke-dasharray:none;stroke-opacity:1"
       id="path36102" />
    <path
       d="m 57.192045,157.53903 v 1.08303"
       style="fill:none;stroke:#000000;stroke-width:0.127;stroke-linecap:round;stroke-linejoin:round;stroke-miterlimit:2;stroke-dasharray:none;stroke-opacity:1"
       id="path36104" />
    <path
       d="m 57.346561,157.69425 0.386292,0.61737 0.30868,-0.50095 z m 0,0.77259 0.386292,0.61736 0.30868,-0.50095 z"
       style="fill:#000000;fill-opacity:1;fill-rule:evenodd;stroke:none;stroke-width:0.352778"
       id="path36106" />
    <path
       d="m 60.127156,157.84948 c -0.35172,0.28222 -0.784931,0.4445 -1.235781,0.46214 -0.567619,-0.0353 -1.109133,-0.25048 -1.544814,-0.61737 m 1.544814,1.38995 c -0.567619,-0.0353 -1.109133,-0.254 -1.544814,-0.61736 m 0,-0.77259 0.386292,0.61737 0.30868,-0.50095 z m 0,0.77259 0.386292,0.61736 0.30868,-0.50095 z"
       style="fill:none;stroke:#000000;stroke-width:0.127;stroke-linecap:butt;stroke-linejoin:miter;stroke-miterlimit:2;stroke-dasharray:none;stroke-opacity:1"
       id="path36108" />
    <path
       d="m 57.192045,157.53903 v 1.08303"
       style="fill:none;stroke:#000000;stroke-width:0.127;stroke-linecap:round;stroke-linejoin:round;stroke-miterlimit:2;stroke-dasharray:none;stroke-opacity:1"
       id="path36110" />
  </g>
</svg>
