<?xml version="1.0" standalone="no"?>
<!DOCTYPE svg PUBLIC "-//W3C//DTD SVG 1.2//EN" "http://www.w3.org/Graphics/SVG/1.2/DTD/svg12.dtd">
<svg xmlns="http://www.w3.org/2000/svg" version="1.2" baseProfile="tiny" id="selectedFigureSvg" width="200px" height="200px" viewBox="-194.22 -55.83 219.84 119.26"><g id="sequence"><g id="figure-2"><text style="font-family: Verdana, Helvetica, Sans; font-size: 16px; font-weight: bold; fill: black;" text-anchor="middle" x="0" y="-8" class="figNr">10</text><path d="M 0,0 m -4,0 a4,4 0 1 1 0,0.01" style="stroke: black; stroke-width: 2px; fill: black;"/><path d="M -3.46,2 l -72.74,42" style="stroke-dasharray: 10, 5; stroke: red; stroke-width: 3.0px; fill: none; vector-effect: non-scaling-stroke;" class="line" id="figure-2-entry"/><path d="M -76.2,44 a 60,42 0 0 1 -68.73,3.74" style="stroke-dasharray: 10, 5; stroke: red; stroke-width: 3.0px; fill: none; vector-effect: non-scaling-stroke;"/><path d="M -144.93,47.74 m 12.94,-11.56 l -9.07,0.18 l 4.87,6.35 z" style="stroke: black; stroke-width: 2px; fill: black;"/><path d="M -144.93,47.74 m 12.94,-11.56 a 20,20 0 0 0 -14.29,21.83 " style="stroke: black; stroke-width: 3.0px; fill: none; vector-effect: non-scaling-stroke;"/><path d="M -144.93,47.74 a 60,42 0 0 1 -28.42,-28.4" style="stroke-dasharray: 10, 5; stroke: red; stroke-width: 3.0px; fill: none; vector-effect: non-scaling-stroke;"/><path d="M -173.35,19.34 a 60,42 0 0 1 6.11,-27.62" style="stroke-dasharray: 10, 5; stroke: red; stroke-width: 3.0px; fill: none; vector-effect: non-scaling-stroke;"/><path d="M -167.24,-8.28 m -16.99,-3.54 l 7.95,-4.38 l -1.04,7.93 z" style="stroke: black; stroke-width: 2px; fill: black;"/><path d="M -167.24,-8.28 m -16.99,-3.54 a 20,20 0 0 1 16.99,3.54 " style="stroke: black; stroke-width: 3.0px; fill: none; vector-effect: non-scaling-stroke;"/><path d="M -167.24,-8.28 a 60,42 0 0 1 52.86,-22.13" style="stroke: black; stroke-width: 3.0px; fill: none; vector-effect: non-scaling-stroke;"/><path d="M -114.38,-30.41 a 60,42 0 0 1 38.18,74.4" style="stroke-dasharray: 2, 6; stroke: black; stroke-width: 2px; fill: none; vector-effect: non-scaling-stroke;"/><path d="M -114.38,-30.41 l 120,0" style="stroke: black; stroke-width: 3.0px; fill: none; vector-effect: non-scaling-stroke;" class="line" id="figure-2-exit"/><path d="M 5.62,-30.41 m 0,-10 l 0,20" style="stroke: black; stroke-width: 3.0px; fill: none; vector-effect: non-scaling-stroke;"/><path d="M 5.62,-30.41 m 10,-20 l 0,40" style="stroke: black; stroke-width: 3.0px; fill: none; vector-effect: non-scaling-stroke;"/></g></g></svg>