<?xml version="1.0" standalone="no"?>
<!DOCTYPE svg PUBLIC "-//W3C//DTD SVG 1.2//EN" "http://www.w3.org/Graphics/SVG/1.2/DTD/svg12.dtd">
<svg xmlns="http://www.w3.org/2000/svg" version="1.2" baseProfile="tiny" id="selectedFigureSvg" width="200px" height="200px" viewBox="-206.43 -148.75 229.52 175.5"><g id="sequence"><g id="figure-2"><text style="font-family: Verdana, Helvetica, Sans; font-size: 16px; font-weight: bold; fill: black;" text-anchor="middle" x="0" y="-8" class="figNr">3</text><path d="M 0,0 m -4,0 a4,4 0 1 1 0,0.01" style="stroke: black; stroke-width: 2px; fill: black;"/><path d="M -4,0 l -192,0" style="stroke-dasharray: 10, 5; stroke: red; stroke-width: 3.0px; fill: none; vector-effect: non-scaling-stroke;" class="line" id="figure-2-entry"/><path d="M -196,0 l 50.91,-50.91" style="stroke: black; stroke-width: 3.0px; fill: none; vector-effect: non-scaling-stroke;" class="line" id="figure-2-roll0-gap0"/><path d="M -145.09,-50.91 m -11.84,-11.84 l 5.66,-5.66 " style="stroke: black; stroke-width: 3.0px; fill: none; vector-effect: non-scaling-stroke;"/><path d="M -145.09,-50.91 m -11.31,-11.31 l 23.76,10.18 l -13.58,13.58 z" style="stroke: black; stroke-width: 1.5px; fill: white;"/><path d="M -140.85,-55.15 l 9.62,-9.62" style="stroke: black; stroke-width: 3.0px; fill: none; vector-effect: non-scaling-stroke;" class="line"/><path d="M -131.23,-64.77 m -7.92,-19.23 l -20.93,20.93" style="stroke: black; stroke-width: 3.0px; fill: none; vector-effect: non-scaling-stroke;"/><path d="M -131.23,-64.77 m -11.84,-11.84 l 5.66,-5.66 " style="stroke: black; stroke-width: 3.0px; fill: none; vector-effect: non-scaling-stroke;"/><path d="M -131.23,-64.77 m -11.31,-11.31 l 16.97,5.66 l -11.31,11.31 z" style="stroke: black; stroke-width: 1.5px; fill: white;"/><path d="M -126.99,-69.01 l 16.97,-16.97" style="stroke-dasharray: 10, 5; stroke: red; stroke-width: 3.0px; fill: none; vector-effect: non-scaling-stroke;" class="line" id="figure-2-roll0-gap1"/><path d="M -110.02,-85.98 m 5.73,16.38 l 3.31,-8.45 l -7.73,2.07 z" style="stroke: black; stroke-width: 2px; fill: black;"/><path d="M -110.02,-85.98 m 5.73,16.38 a 20,20 0 0 0 -14.7,-21.56 " style="stroke: black; stroke-width: 3.0px; fill: none; vector-effect: non-scaling-stroke;"/><path d="M -110.02,-85.98 l 7.07,-7.07" style="stroke-dasharray: 10, 5; stroke: red; stroke-width: 3.0px; fill: none; vector-effect: non-scaling-stroke;" class="line"/><path d="M -102.95,-93.05 m 7.11,19.84 l -7.07,7.07" style="stroke: black; stroke-width: 3.0px; fill: none; vector-effect: non-scaling-stroke;"/><path d="M -102.95,-93.05 m 5.73,16.38 l 3.31,-8.45 l -7.73,2.07 z" style="stroke: black; stroke-width: 2px; fill: black;"/><path d="M -102.95,-93.05 m 5.73,16.38 a 20,20 0 0 0 -5.73,-16.38 " style="stroke: black; stroke-width: 3.0px; fill: none; vector-effect: non-scaling-stroke;"/><path d="M -102.95,-93.05 l 33.94,-33.94" style="stroke: black; stroke-width: 3.0px; fill: none; vector-effect: non-scaling-stroke;" class="line" id="figure-2-roll0-gap2"/><path d="M -69.01,-126.99 a48,48 0 0 1 67.88,67.88" style="stroke-dasharray: 10, 5; stroke: red; stroke-width: 3.0px; fill: none; vector-effect: non-scaling-stroke;"/><path d="M -1.13,-59.11 l -16.97,16.97" style="stroke-dasharray: 10, 5; stroke: red; stroke-width: 3.0px; fill: none; vector-effect: non-scaling-stroke;" class="line" id="figure-2-roll1-gap0"/><path d="M -18.1,-42.14 m -5.73,-16.38 l -3.31,8.45 l 7.73,-2.07 z" style="stroke: black; stroke-width: 2px; fill: black;"/><path d="M -18.1,-42.14 m -5.73,-16.38 a 20,20 0 0 0 14.7,21.56 " style="stroke: black; stroke-width: 3.0px; fill: none; vector-effect: non-scaling-stroke;"/><text style="font-family: Arial, Sans; font-size: 20px; font-weight: bold; fill: red;" text-anchor="middle" x="-36.28" y="-56.35">2</text><path d="M -18.1,-42.14 l -50.91,50.91" style="stroke-dasharray: 10, 5; stroke: red; stroke-width: 3.0px; fill: none; vector-effect: non-scaling-stroke;" class="line" id="figure-2-roll1-gap1"/><path d="M -69.01,8.77 l -72,0" style="stroke-dasharray: 10, 5; stroke: red; stroke-width: 3.0px; fill: none; vector-effect: non-scaling-stroke;" class="line" id="figure-2-exit"/><path d="M -141.01,8.77 m 0,-10 l 0,20" style="stroke: black; stroke-width: 3.0px; fill: none; vector-effect: non-scaling-stroke;"/></g></g></svg>