<?xml version="1.0" standalone="no"?>
<!DOCTYPE svg PUBLIC "-//W3C//DTD SVG 1.2//EN" "http://www.w3.org/Graphics/SVG/1.2/DTD/svg12.dtd">
<svg xmlns="http://www.w3.org/2000/svg" version="1.2" baseProfile="tiny" id="selectedFigureSvg" width="100px" height="100px" viewBox="-229.6 -129.68 247.46 261.59"><g id="sequence"><g id="figure-2"><path d="M 0,0 m -4,0 a4,4 0 1 1 0,0.01" style="stroke: black; stroke-width: 1px; fill: black;"/><path d="M -4,0 l -40,0" style="stroke-dasharray: 5, 3; stroke: red; stroke-width: 3px; fill: none;" class="line" id="figure-2-entry"/><path d="M -44,0 l -63.64,-63.64" style="stroke-dasharray: 5, 3; stroke: red; stroke-width: 3px; fill: none;" class="line" id="figure-2-roll0-gap0"/><path d="M -107.64,-63.64 m 16.38,-5.73 l -8.45,-3.31 l 2.07,7.73 z" style="stroke: black; stroke-width: 1px; fill: black;"/><path d="M -107.64,-63.64 m 16.38,-5.73 a 20,20 0 0 0 -16.38,5.73 " style="stroke: black; stroke-width: 3px; fill: none;"/><text style="font-family: Arial, Sans; font-size: 20px; font-weight: bold; fill: red;" text-anchor="middle" x="-81.38" y="-77.85">4x8</text><path d="M -107.64,-63.64 l -42.43,-42.43" style="stroke: black; stroke-width: 3px; fill: none;" class="line" id="figure-2-roll0-gap1"/><path d="M -150.07,-106.07 a40,40 0 0 0 -56.57,56.57" style="stroke-dasharray: 5, 3; stroke: red; stroke-width: 3px; fill: none;"/><path d="M -206.64,-49.5 l 63.64,63.64" style="stroke-dasharray: 5, 3; stroke: red; stroke-width: 3px; fill: none;" class="line" id="figure-2-roll1-gap0"/><path d="M -143,14.14 m 11.84,-11.84 l 5.66,5.66 " style="stroke: black; stroke-width: 3px; fill: none;"/><path d="M -143,14.14 m 11.31,-11.31 l -10.18,23.76 l -13.58,-13.58 z" style="stroke: black; stroke-width: 3px; fill: red;"/><path d="M -138.76,18.38 l 9.62,9.62" style="stroke-dasharray: 5, 3; stroke: red; stroke-width: 3px; fill: none;" class="line"/><path d="M -129.14,28 m 19.23,-7.92 l -20.93,-20.93" style="stroke: black; stroke-width: 3px; fill: none;"/><path d="M -129.14,28 m 11.84,-11.84 l 5.66,5.66 " style="stroke: black; stroke-width: 3px; fill: none;"/><path d="M -129.14,28 m 11.31,-11.31 l -5.66,16.97 l -11.31,-11.31 z" style="stroke: black; stroke-width: 3px; fill: red;"/><path d="M -124.9,32.24 l 77.78,77.78" style="stroke: black; stroke-width: 3px; fill: none;" class="line" id="figure-2-roll1-gap1"/><path d="M -47.12,110.02 l 30,0" style="stroke: black; stroke-width: 3px; fill: none;" class="line" id="figure-2-exit"/><path d="M -17.12,110.02 m 0,-10 l 0,20" style="stroke: black; stroke-width: 3px; fill: none;"/></g></g></svg>