<?xml version="1.0" standalone="no"?>
<!DOCTYPE svg PUBLIC "-//W3C//DTD SVG 1.2//EN" "http://www.w3.org/Graphics/SVG/1.2/DTD/svg12.dtd">
<svg xmlns="http://www.w3.org/2000/svg" version="1.2" baseProfile="tiny" id="selectedFigureSvg" width="100px" height="100px" viewBox="-22.43 -86.54 243.3 143.78"><g id="sequence"><g id="figure-2"><path d="M 0,0 m -4,0 a4,4 0 1 1 0,0.01" style="stroke: black; stroke-width: 1px; fill: black;"/><path d="M 4,0 l 140,0" style="stroke: black; stroke-width: 3px; fill: none;" class="line" id="figure-2-roll0-gap0"/><path d="M 144,0 m 0,-16.75 l 8,0 " style="stroke: black; stroke-width: 3px; fill: none;"/><path d="M 144,0 m 0,-16 l 9.6,24 l -19.2,0 z" style="stroke: black; stroke-width: 3px; fill: white;"/><path d="M 150,0 l 13.6,0" style="stroke: black; stroke-width: 3px; fill: none;" class="line"/><path d="M 163.6,0 m 8,-19.2 l -29.6,0" style="stroke: black; stroke-width: 3px; fill: none;"/><path d="M 163.6,0 m 0,-16.75 l 8,0 " style="stroke: black; stroke-width: 3px; fill: none;"/><path d="M 163.6,0 m 0,-16 l 8,16 l -16,0 z" style="stroke: black; stroke-width: 3px; fill: white;"/><path d="M 169.6,0 l 0.2,0" style="stroke-dasharray: 5, 3; stroke: red; stroke-width: 3px; fill: none;" class="line" id="figure-2-roll0-gap1"/><path d="M 169.8,0 a40,40 0 1 0 -28.28,-68.28" style="stroke-dasharray: 5, 3; stroke: red; stroke-width: 3px; fill: none;"/><path d="M 141.52,-68.28 l -21.21,21.21" style="stroke: black; stroke-width: 3px; fill: none;" class="line" id="figure-2-roll1-gap0"/><path d="M 120.31,-47.07 m -5.73,-16.38 l -3.31,8.45 l 7.73,-2.07 z" style="stroke: black; stroke-width: 1px; fill: black;"/><path d="M 120.31,-47.07 m -5.73,-16.38 a 20,20 0 0 0 5.73,16.38 " style="stroke: black; stroke-width: 3px; fill: none;"/><text style="font-family: Arial, Sans; font-size: 20px; font-weight: bold; fill: red;" text-anchor="middle" x="94.05" y="-61.28">2x4</text><path d="M 120.31,-47.07 l -14.14,14.14" style="stroke-dasharray: 5, 3; stroke: red; stroke-width: 3px; fill: none;" class="line" id="figure-2-roll1-gap1"/><path d="M 106.17,-32.93 m 16.38,5.73 l -8.45,3.31 l 2.07,-7.73 z" style="stroke: black; stroke-width: 1px; fill: black;"/><path d="M 106.17,-32.93 m 16.38,5.73 a 20,20 0 0 1 -21.56,-14.7 " style="stroke: black; stroke-width: 3px; fill: none;"/><path d="M 106.17,-32.93 l -63.64,63.64" style="stroke-dasharray: 5, 3; stroke: red; stroke-width: 3px; fill: none;" class="line" id="figure-2-roll1-gap2"/><path d="M 42.53,30.71 l -40,0" style="stroke-dasharray: 5, 3; stroke: red; stroke-width: 3px; fill: none;" class="line" id="figure-2-exit"/><path d="M 2.53,30.71 m 0,-10 l 0,20" style="stroke: black; stroke-width: 3px; fill: none;"/><path d="M 2.53,30.71 m -10,-20 l 0,40" style="stroke: black; stroke-width: 3px; fill: none;"/></g></g></svg>