<?xml version="1.0" standalone="no"?>
<!DOCTYPE svg PUBLIC "-//W3C//DTD SVG 1.2//EN" "http://www.w3.org/Graphics/SVG/1.2/DTD/svg12.dtd">
<svg xmlns="http://www.w3.org/2000/svg" version="1.2" baseProfile="tiny" id="selectedFigureSvg" width="100px" height="100px" viewBox="-42.77 -159.4 148.96 303.6"><g id="sequence"><g id="figure-2"><path d="M 0,0 m -4,0 a4,4 0 1 1 0,0.01" style="stroke: black; stroke-width: 1px; fill: black;"/><path d="M 4,0 l 40,0" style="stroke-dasharray: 5, 3; stroke: red; stroke-width: 3px; fill: none;" class="line" id="figure-2-entry"/><path d="M 44,0 l 0,-50" style="stroke-dasharray: 5, 3; stroke: red; stroke-width: 3px; fill: none;" class="line" id="figure-2-roll0-gap0"/><path d="M 44,-50 m -15.64,7.53 l 3.64,-8.31 l 4,6.93 z" style="stroke: black; stroke-width: 1px; fill: black;"/><path d="M 44,-50 m -15.64,7.53 a 20,20 0 0 1 15.64,-7.53 " style="stroke: black; stroke-width: 3px; fill: none;"/><text style="font-family: Arial, Sans; font-size: 20px; font-weight: bold; fill: red;" text-anchor="middle" x="6.86" y="-43">1/4</text><path d="M 44,-50 l 0,-20" style="stroke-dasharray: 5, 3; stroke: red; stroke-width: 3px; fill: none;" class="line" id="figure-2-roll0-gap1"/><path d="M 44,-70 m 16.75,0 l 0,-8 " style="stroke: black; stroke-width: 3px; fill: none;"/><path d="M 44,-70 m 16,0 l -24,-9.6 l 0,19.2 z" style="stroke: black; stroke-width: 3px; fill: red;"/><text style="font-family: Arial, Sans; font-size: 20px; font-weight: bold; fill: red;" text-anchor="middle" x="85.14" y="-69">1/4</text><path d="M 44,-76 l 0,-13.6" style="stroke-dasharray: 5, 3; stroke: red; stroke-width: 3px; fill: none;" class="line"/><path d="M 44,-89.6 m 19.2,-8 l 0,29.6" style="stroke: black; stroke-width: 3px; fill: none;"/><path d="M 44,-89.6 m 16.75,0 l 0,-8 " style="stroke: black; stroke-width: 3px; fill: none;"/><path d="M 44,-89.6 m 16,0 l -16,-8 l 0,16 z" style="stroke: black; stroke-width: 3px; fill: red;"/><path d="M 44,-95.6 l 0,-50" style="stroke-dasharray: 5, 3; stroke: red; stroke-width: 3px; fill: none;" class="line" id="figure-2-roll0-gap2"/><path d="M 44,-145.6 l 10,10" style="stroke: black; stroke-width: 3px; fill: none;" class="hammerTip"/><path d="M 44,-19.6 l 0,80" style="stroke: black; stroke-width: 3px; fill: none;" class="line" id="figure-2-roll1-gap0"/><path d="M 44,60.4 m -15.64,-7.53 l 3.64,8.31 l 4,-6.93 z" style="stroke: black; stroke-width: 1px; fill: black;"/><path d="M 44,60.4 m -15.64,-7.53 a 20,20 0 0 0 15.64,7.53 " style="stroke: black; stroke-width: 3px; fill: none;"/><text style="font-family: Arial, Sans; font-size: 20px; font-weight: bold; fill: red;" text-anchor="middle" x="6.86" y="67.4">2x4</text><path d="M 44,60.4 l 0,60" style="stroke: black; stroke-width: 3px; fill: none;" class="line" id="figure-2-roll1-gap1"/><path d="M 44,120.4 l -80,0" style="stroke: black; stroke-width: 3px; fill: none;" class="line" id="figure-2-exit"/><path d="M -36,120.4 m 0,10 l 0,-20" style="stroke: black; stroke-width: 3px; fill: none;"/></g></g></svg>