<?xml version="1.0" standalone="no"?>
<!DOCTYPE svg PUBLIC "-//W3C//DTD SVG 1.2//EN" "http://www.w3.org/Graphics/SVG/1.2/DTD/svg12.dtd">
<svg xmlns="http://www.w3.org/2000/svg" version="1.2" baseProfile="tiny" id="selectedFigureSvg" width="100px" height="100px" viewBox="-175.04 -44.25 242.81 218.35"><g id="sequence"><g id="figure-2"><path d="M 0,0 m -4,0 a4,4 0 1 1 0,0.01" style="stroke: black; stroke-width: 1px; fill: black;"/><path d="M -4,0 l -160,0" style="stroke: black; stroke-width: 3px; fill: none;" class="line" id="figure-2-entry"/><path d="M -164,0 l 63.64,63.64" style="stroke-dasharray: 5, 3; stroke: red; stroke-width: 3px; fill: none;" class="line" id="figure-2-roll0-gap0"/><path d="M -100.36,63.64 m 11.84,-11.84 l 5.66,5.66 " style="stroke: black; stroke-width: 3px; fill: none;"/><path d="M -100.36,63.64 m 11.31,-11.31 l -10.18,23.76 l -13.58,-13.58 z" style="stroke: black; stroke-width: 3px; fill: red;"/><text style="font-family: Arial, Sans; font-size: 20px; font-weight: bold; fill: red;" text-anchor="middle" x="-67.03" y="50.84">3/4</text><path d="M -96.12,67.88 l 9.62,9.62" style="stroke-dasharray: 5, 3; stroke: red; stroke-width: 3px; fill: none;" class="line"/><path d="M -86.5,77.5 m 19.23,-7.92 l -20.93,-20.93" style="stroke: black; stroke-width: 3px; fill: none;"/><path d="M -86.5,77.5 m 11.84,-11.84 l 5.66,5.66 " style="stroke: black; stroke-width: 3px; fill: none;"/><path d="M -86.5,77.5 m 11.31,-11.31 l -5.66,16.97 l -11.31,-11.31 z" style="stroke: black; stroke-width: 3px; fill: red;"/><path d="M -82.26,81.74 l 14.14,14.14" style="stroke-dasharray: 5, 3; stroke: red; stroke-width: 3px; fill: none;" class="line" id="figure-2-roll0-gap1"/><path d="M -68.12,95.88 m -16.38,5.73 l 8.45,3.31 l -2.07,-7.73 z" style="stroke: black; stroke-width: 1px; fill: black;"/><path d="M -68.12,95.88 m -16.38,5.73 a 20,20 0 0 0 16.38,-5.73 " style="stroke: black; stroke-width: 3px; fill: none;"/><text style="font-family: Arial, Sans; font-size: 20px; font-weight: bold; fill: red;" text-anchor="middle" x="-94.38" y="124.09">1/4</text><path d="M -68.12,95.88 l 56.57,56.57" style="stroke: black; stroke-width: 3px; fill: none;" class="line" id="figure-2-roll0-gap2"/><path d="M -11.55,152.45 a40,40 0 0 0 56.57,-56.57" style="stroke: black; stroke-width: 3px; fill: none;"/><path d="M 45.02,95.88 l -49.5,-49.5" style="stroke-dasharray: 5, 3; stroke: red; stroke-width: 3px; fill: none;" class="line" id="figure-2-roll1-gap0"/><path d="M -4.48,46.38 m -5.73,16.38 l -3.31,-8.45 l 7.73,2.07 z" style="stroke: black; stroke-width: 1px; fill: black;"/><path d="M -4.48,46.38 m -5.73,16.38 a 20,20 0 0 1 14.7,-21.56 " style="stroke: black; stroke-width: 3px; fill: none;"/><text style="font-family: Arial, Sans; font-size: 20px; font-weight: bold; fill: red;" text-anchor="middle" x="-22.66" y="74.59">4</text><path d="M -4.48,46.38 l -70.71,-70.71" style="stroke-dasharray: 5, 3; stroke: red; stroke-width: 3px; fill: none;" class="line" id="figure-2-roll1-gap1"/><path d="M -75.19,-24.33 l -80,0" style="stroke-dasharray: 5, 3; stroke: red; stroke-width: 3px; fill: none;" class="line" id="figure-2-exit"/><path d="M -155.19,-24.33 m 0,-10 l 0,20" style="stroke: black; stroke-width: 3px; fill: none;"/></g></g></svg>