<?xml version="1.0" standalone="no"?>
<!DOCTYPE svg PUBLIC "-//W3C//DTD SVG 1.2//EN" "http://www.w3.org/Graphics/SVG/1.2/DTD/svg12.dtd">
<svg xmlns="http://www.w3.org/2000/svg" version="1.2" baseProfile="tiny" id="selectedFigureSvg" width="100px" height="100px" viewBox="-14.49 -109.32 193.54 187.23"><g id="sequence"><g id="figure-2"><path d="M 0,0 m -4,0 a4,4 0 1 1 0,0.01" style="stroke: black; stroke-width: 1px; fill: black;"/><path d="M 4,0 l 160,0" style="stroke: black; stroke-width: 3px; fill: none;" class="line" id="figure-2-entry"/><path d="M 164,0 l -42.43,-42.43" style="stroke-dasharray: 5, 3; stroke: red; stroke-width: 3px; fill: none;" class="line" id="figure-2-roll0-gap0"/><path d="M 121.57,-42.43 m 11.84,-11.84 l -5.66,-5.66 " style="stroke: black; stroke-width: 3px; fill: none;"/><path d="M 121.57,-42.43 m 11.31,-11.31 l -23.76,10.18 l 13.58,13.58 z" style="stroke: black; stroke-width: 3px; fill: red;"/><path d="M 117.33,-46.67 l -42.43,-42.43" style="stroke-dasharray: 5, 3; stroke: red; stroke-width: 3px; fill: none;" class="line" id="figure-2-roll0-gap1"/><path d="M 74.9,-89.1 a40,40 0 0 0 -56.57,56.57" style="stroke: black; stroke-width: 3px; fill: none;"/><path d="M 18.33,-32.53 l 49.5,49.5" style="stroke: black; stroke-width: 3px; fill: none;" class="line" id="figure-2-roll1-gap0"/><path d="M 67.83,16.97 m -16.38,5.73 l 8.45,3.31 l -2.07,-7.73 z" style="stroke: black; stroke-width: 1px; fill: black;"/><path d="M 67.83,16.97 m -16.38,5.73 a 20,20 0 0 0 21.56,-14.7 " style="stroke: black; stroke-width: 3px; fill: none;"/><text style="font-family: Arial, Sans; font-size: 20px; font-weight: bold; fill: red;" text-anchor="middle" x="49.65" y="45.18">2</text><path d="M 67.83,16.97 l 42.43,42.43" style="stroke: black; stroke-width: 3px; fill: none;" class="line" id="figure-2-roll1-gap1"/><path d="M 110.26,59.4 l 60,0" style="stroke: black; stroke-width: 3px; fill: none;" class="line" id="figure-2-exit"/><path d="M 170.26,59.4 m 0,-10 l 0,20" style="stroke: black; stroke-width: 3px; fill: none;"/></g></g></svg>