<?xml version="1.0" standalone="no"?>
<!DOCTYPE svg PUBLIC "-//W3C//DTD SVG 1.2//EN" "http://www.w3.org/Graphics/SVG/1.2/DTD/svg12.dtd">
<svg xmlns="http://www.w3.org/2000/svg" version="1.2" baseProfile="tiny" id="selectedFigureSvg" width="100px" height="100px" viewBox="-14.03 -157.35 154.55 248.17"><g id="sequence"><g id="figure-2"><path d="M 0,0 m 3,-6 a7,7 0 1 1 -6,0" style="stroke: black; stroke-width: 3px; fill: none;"/><path d="M 0,0 m -4,0 a4,4 0 1 1 0,0.01" style="stroke: black; stroke-width: 1px; fill: black;"/><path d="M 4,0 l 40,0" style="stroke: black; stroke-width: 3px; fill: none;" class="line" id="figure-2-entry"/><path d="M 44,0 l 63.64,-63.64" style="stroke: black; stroke-width: 3px; fill: none;" class="line" id="figure-2-roll0-gap0"/><path d="M 107.64,-63.64 m -16.38,-5.73 l 8.45,-3.31 l -2.07,7.73 z" style="stroke: black; stroke-width: 1px; fill: black;"/><path d="M 107.64,-63.64 m -16.38,-5.73 a 20,20 0 0 1 21.56,14.7 " style="stroke: black; stroke-width: 3px; fill: none;"/><text style="font-family: Arial, Sans; font-size: 20px; font-weight: bold; fill: red;" text-anchor="middle" x="89.46" y="-77.85">2</text><path d="M 107.64,-63.64 l 14.14,-14.14" style="stroke: black; stroke-width: 3px; fill: none;" class="line" id="figure-2-roll0-gap1"/><path d="M 121.78,-77.78 a40,40 0 1 0 -68.28,-28.28" style="stroke: black; stroke-width: 3px; fill: none;"/><path d="M 53.5,-106.06 l 0,40" style="stroke: black; stroke-width: 3px; fill: none;" class="line" id="figure-2-roll1-gap0"/><path d="M 53.5,-66.06 m -16.75,0 l 0,8 " style="stroke: black; stroke-width: 3px; fill: none;"/><path d="M 53.5,-66.06 m -16,0 l 24,9.6 l 0,-19.2 z" style="stroke: black; stroke-width: 3px; fill: white;"/><text style="font-family: Arial, Sans; font-size: 20px; font-weight: bold; fill: red;" text-anchor="middle" x="12.36" y="-53.06">1/4</text><path d="M 53.5,-60.06 l 0,13.6" style="stroke: black; stroke-width: 3px; fill: none;" class="line"/><path d="M 53.5,-46.46 m -19.2,8 l 0,-29.6" style="stroke: black; stroke-width: 3px; fill: none;"/><path d="M 53.5,-46.46 m -16.75,0 l 0,8 " style="stroke: black; stroke-width: 3px; fill: none;"/><path d="M 53.5,-46.46 m -16,0 l 16,8 l 0,-16 z" style="stroke: black; stroke-width: 3px; fill: white;"/><path d="M 53.5,-40.46 l 0,120" style="stroke: black; stroke-width: 3px; fill: none;" class="line" id="figure-2-roll1-gap1"/><path d="M 53.5,79.54 l -24.25,-14" style="stroke-dasharray: 5, 3; stroke: red; stroke-width: 3px; fill: none;" class="line" id="figure-2-exit"/><path d="M 29.25,65.54 m 10,0 l -20,0" style="stroke: black; stroke-width: 3px; fill: none;"/></g></g></svg>