<?xml version="1.0" standalone="no"?>
<!DOCTYPE svg PUBLIC "-//W3C//DTD SVG 1.2//EN" "http://www.w3.org/Graphics/SVG/1.2/DTD/svg12.dtd">
<svg xmlns="http://www.w3.org/2000/svg" version="1.2" baseProfile="tiny" id="selectedFigureSvg" width="100px" height="100px" viewBox="-54.96 -32.62 257.68 176.65"><g id="sequence"><g id="figure-2"><path d="M 0,0 m -4,0 a4,4 0 1 1 0,0.01" style="stroke: black; stroke-width: 1px; fill: black;"/><path d="M 4,0 l 119,0" style="stroke-dasharray: 5, 3; stroke: red; stroke-width: 3px; fill: none;" class="line" id="figure-2-roll0-gap0"/><path d="M 123,0 a68,68 0 1 1 -48.08,116.08" style="stroke: black; stroke-width: 3px; fill: none;"/><path d="M 74.92,116.08 l -12.02,-12.02" style="stroke: black; stroke-width: 3px; fill: none;" class="line" id="figure-2-roll1-gap0"/><path d="M 62.9,104.06 m 16.38,-5.73 l -8.45,-3.31 l 2.07,7.73 z" style="stroke: black; stroke-width: 1px; fill: black;"/><path d="M 62.9,104.06 m 16.38,-5.73 a 20,20 0 0 0 -21.56,14.7 " style="stroke: black; stroke-width: 3px; fill: none;"/><text style="font-family: Arial, Sans; font-size: 20px; font-weight: bold; fill: red;" text-anchor="middle" x="91.99" y="87.02">1/4</text><path d="M 62.9,104.06 l -7.07,-7.07" style="stroke: black; stroke-width: 3px; fill: none;" class="line"/><path d="M 55.83,96.99 m 19.84,-7.11 l 7.07,7.07" style="stroke: black; stroke-width: 3px; fill: none;"/><path d="M 55.83,96.99 m 16.38,-5.73 l -8.45,-3.31 l 2.07,7.73 z" style="stroke: black; stroke-width: 1px; fill: black;"/><path d="M 55.83,96.99 m 16.38,-5.73 a 20,20 0 0 0 -16.38,5.73 " style="stroke: black; stroke-width: 3px; fill: none;"/><path d="M 55.83,96.99 l -24.04,-24.04" style="stroke: black; stroke-width: 3px; fill: none;" class="line" id="figure-2-roll1-gap1"/><path d="M 31.79,72.95 m -5.73,16.38 l -3.31,-8.45 l 7.73,2.07 z" style="stroke: black; stroke-width: 1px; fill: black;"/><path d="M 31.79,72.95 m -5.73,16.38 a 20,20 0 0 1 5.73,-16.38 " style="stroke: black; stroke-width: 3px; fill: none;"/><text style="font-family: Arial, Sans; font-size: 20px; font-weight: bold; fill: red;" text-anchor="middle" x="5.53" y="101.16">1/4</text><path d="M 31.79,72.95 l -24.04,-24.04" style="stroke: black; stroke-width: 3px; fill: none;" class="line" id="figure-2-roll1-gap2"/><path d="M 7.75,48.91 l -51,0" style="stroke: black; stroke-width: 3px; fill: none;" class="line" id="figure-2-exit"/><path d="M -43.25,48.91 m 0,10 l 0,-20" style="stroke: black; stroke-width: 3px; fill: none;"/></g></g></svg>