<?xml version="1.0" standalone="no"?>
<!DOCTYPE svg PUBLIC "-//W3C//DTD SVG 1.2//EN" "http://www.w3.org/Graphics/SVG/1.2/DTD/svg12.dtd">
<svg xmlns="http://www.w3.org/2000/svg" version="1.2" baseProfile="tiny" id="selectedFigureSvg" width="100px" height="100px" viewBox="-179.36 -35.12 197.08 214.89"><g id="sequence"><g id="figure-2"><path d="M 0,0 m -4,0 a4,4 0 1 1 0,0.01" style="stroke: black; stroke-width: 1px; fill: black;"/><path d="M -4,0 l -80,0" style="stroke: black; stroke-width: 3px; fill: none;" class="line" id="figure-2-roll0-gap0"/><path d="M -84,0 m 0,-16.75 l -8,0 " style="stroke: black; stroke-width: 3px; fill: none;"/><path d="M -84,0 m 0,-16 l -9.6,24 l 19.2,0 z" style="stroke: black; stroke-width: 3px; fill: white;"/><path d="M -90,0 l -0.4,0" style="stroke: black; stroke-width: 3px; fill: none;" class="line" id="figure-2-roll0-gap1"/><path d="M -90.4,0 a80,80 0 0 0 0,160" style="stroke-dasharray: 5, 3; stroke: red; stroke-width: 3px; fill: none;"/><path d="M -90.4,160 l 0.4,0" style="stroke-dasharray: 5, 3; stroke: red; stroke-width: 3px; fill: none;" class="line" id="figure-2-roll1-gap0"/><path d="M -90,160 m -7.53,-15.64 l 8.31,3.64 l -6.93,4 z" style="stroke: black; stroke-width: 1px; fill: black;"/><path d="M -90,160 m -7.53,-15.64 a 20,20 0 0 1 4.85,25.64 " style="stroke: black; stroke-width: 3px; fill: none;"/><text style="font-family: Arial, Sans; font-size: 20px; font-weight: bold; fill: red;" text-anchor="middle" x="-90" y="137">8</text><path d="M -90,160 l 80,0" style="stroke-dasharray: 5, 3; stroke: red; stroke-width: 3px; fill: none;" class="line" id="figure-2-exit"/><path d="M -10,160 m 0,10 l 0,-20" style="stroke: black; stroke-width: 3px; fill: none;"/></g></g></svg>