<?xml version="1.0" standalone="no"?>
<!DOCTYPE svg PUBLIC "-//W3C//DTD SVG 1.2//EN" "http://www.w3.org/Graphics/SVG/1.2/DTD/svg12.dtd">
<svg xmlns="http://www.w3.org/2000/svg" version="1.2" baseProfile="tiny" id="selectedFigureSvg" width="100px" height="100px" viewBox="-249.15 -113.99 268.34 219.88"><g id="sequence"><g id="figure-2"><path d="M 0,0 m 3,-6 a7,7 0 1 1 -6,0" style="stroke: black; stroke-width: 3px; fill: none;"/><path d="M 0,0 m -4,0 a4,4 0 1 1 0,0.01" style="stroke: black; stroke-width: 1px; fill: black;"/><path d="M -4,0 l -26,0" style="stroke: black; stroke-width: 3px; fill: none;" class="line" id="figure-2-roll0-gap0"/><path d="M -30,0 m 7.53,-15.64 l -8.31,3.64 l 6.93,4 z" style="stroke: black; stroke-width: 1px; fill: black;"/><path d="M -30,0 m 7.53,-15.64 a 20,20 0 0 0 -7.53,15.64 " style="stroke: black; stroke-width: 3px; fill: none;"/><text style="font-family: Arial, Sans; font-size: 20px; font-weight: bold; fill: red;" text-anchor="middle" x="-30" y="-23">2x8</text><path d="M -30,0 l -26,0" style="stroke: black; stroke-width: 3px; fill: none;" class="line" id="figure-2-roll0-gap1"/><path d="M -56,0 m 0,16.75 l -8,0 " style="stroke: black; stroke-width: 3px; fill: none;"/><path d="M -56,0 m 0,16 l -9.6,-24 l 19.2,0 z" style="stroke: black; stroke-width: 3px; fill: white;"/><text style="font-family: Arial, Sans; font-size: 20px; font-weight: bold; fill: red;" text-anchor="middle" x="-62" y="41">3/4</text><path d="M -62,0 l -13.6,0" style="stroke: black; stroke-width: 3px; fill: none;" class="line"/><path d="M -75.6,0 m -8,19.2 l 29.6,0" style="stroke: black; stroke-width: 3px; fill: none;"/><path d="M -75.6,0 m 0,16.75 l -8,0 " style="stroke: black; stroke-width: 3px; fill: none;"/><path d="M -75.6,0 m 0,16 l -8,-16 l 16,0 z" style="stroke: black; stroke-width: 3px; fill: white;"/><path d="M -81.6,0 l -39,0" style="stroke-dasharray: 5, 3; stroke: red; stroke-width: 3px; fill: none;" class="line" id="figure-2-roll0-gap2"/><path d="M -120.6,0 a52,52 0 0 1 -36.77,-88.77" style="stroke-dasharray: 5, 3; stroke: red; stroke-width: 3px; fill: none;"/><path d="M -157.37,-88.77 a52,52 0 0 1 36.77,-15.23" style="stroke-dasharray: 5, 3; stroke: red; stroke-width: 3px; fill: none;"/><path d="M -120.6,-104 a52,52 0 0 1 36.77,15.23" style="stroke-dasharray: 5, 3; stroke: red; stroke-width: 3px; fill: none;"/><path d="M -83.83,-88.77 a52,52 0 0 1 0,73.54" style="stroke-dasharray: 5, 3; stroke: red; stroke-width: 3px; fill: none;"/><path d="M -83.83,-15.23 l -64.35,64.35" style="stroke-dasharray: 5, 3; stroke: red; stroke-width: 3px; fill: none;" class="line" id="figure-2-roll2-gap0"/><path d="M -148.18,49.12 m -5.73,-16.38 l -3.31,8.45 l 7.73,-2.07 z" style="stroke: black; stroke-width: 1px; fill: black;"/><path d="M -148.18,49.12 m -5.73,-16.38 a 20,20 0 0 0 14.7,21.56 " style="stroke: black; stroke-width: 3px; fill: none;"/><text style="font-family: Arial, Sans; font-size: 20px; font-weight: bold; fill: red;" text-anchor="middle" x="-166.36" y="34.91">2</text><path d="M -148.18,49.12 l -36.77,36.77" style="stroke-dasharray: 5, 3; stroke: red; stroke-width: 3px; fill: none;" class="line" id="figure-2-roll2-gap1"/><path d="M -184.95,85.89 l -52,0" style="stroke-dasharray: 5, 3; stroke: red; stroke-width: 3px; fill: none;" class="line" id="figure-2-exit"/><path d="M -236.95,85.89 m 0,-10 l 0,20" style="stroke: black; stroke-width: 3px; fill: none;"/></g></g></svg>