<?xml version="1.0" standalone="no"?>
<!DOCTYPE svg PUBLIC "-//W3C//DTD SVG 1.2//EN" "http://www.w3.org/Graphics/SVG/1.2/DTD/svg12.dtd">
<svg xmlns="http://www.w3.org/2000/svg" version="1.2" baseProfile="tiny" id="selectedFigureSvg" width="100px" height="100px" viewBox="-54.51 -184 143.29 196.96"><g id="sequence"><g id="figure-2"><path d="M 0,0 m -4,0 a4,4 0 1 1 0,0.01" style="stroke: black; stroke-width: 1px; fill: black;"/><path d="M 4,0 l 52,0" style="stroke: black; stroke-width: 3px; fill: none;" class="line" id="figure-2-entry"/><path d="M 56,0 l 0,-104" style="stroke: black; stroke-width: 3px; fill: none;" class="line" id="figure-2-roll0-gap0"/><path d="M 56,-104 a52,52 0 0 0 -15.23,-36.77" style="stroke: black; stroke-width: 3px; fill: none;"/><path d="M 40.77,-140.77 l -5.3,5.3 l 10.6,-10.6" style="stroke: black; stroke-width: 3px; fill: none;"/><path d="M 40.77,-140.77 a52,52 0 0 0 -36.77,-15.23" style="stroke: black; stroke-width: 3px; fill: none;"/><path d="M 4,-156 a52,52 0 0 0 -36.77,15.23" style="stroke: black; stroke-width: 3px; fill: none;"/><path d="M -32.77,-140.77 l 5.3,5.3 l -10.6,-10.6" style="stroke: black; stroke-width: 3px; fill: none;"/><path d="M -32.77,-140.77 a52,52 0 0 0 36.77,88.77" style="stroke: black; stroke-width: 3px; fill: none;"/><path d="M 27.8,-156 m 7.53,-15.64 l -8.31,3.64 l 6.93,4 z" style="stroke: black; stroke-width: 1px; fill: black;"/><path d="M 27.8,-156 m 7.53,-15.64 a 20,20 0 0 0 -4.85,25.64 " style="stroke: black; stroke-width: 3px; fill: none;"/><path d="M 17.8,-156 m 9,-19.05 l 10,0" style="stroke: black; stroke-width: 3px; fill: none;"/><path d="M 17.8,-156 m 7.53,-15.64 l -8.31,3.64 l 6.93,4 z" style="stroke: black; stroke-width: 1px; fill: black;"/><path d="M 17.8,-156 m 7.53,-15.64 a 20,20 0 0 0 -7.53,15.64 " style="stroke: black; stroke-width: 3px; fill: none;"/><path d="M 5.8,-156 m 0,16.75 l -8,0 " style="stroke: black; stroke-width: 3px; fill: none;"/><path d="M 5.8,-156 m 0,16 l -9.6,-24 l 19.2,0 z" style="stroke: black; stroke-width: 3px; fill: red;"/><path d="M -13.8,-156 m -8,19.2 l 29.6,0" style="stroke: black; stroke-width: 3px; fill: none;"/><path d="M -13.8,-156 m 0,16.75 l -8,0 " style="stroke: black; stroke-width: 3px; fill: none;"/><path d="M -13.8,-156 m 0,16 l -8,-16 l 16,0 z" style="stroke: black; stroke-width: 3px; fill: red;"/><path d="M 4,-52 l 0.26,0" style="stroke: black; stroke-width: 3px; fill: none;" class="line" id="figure-2-roll2-gap0"/><path d="M 4.26,-52 m -7.53,-15.64 l 8.31,3.64 l -6.93,4 z" style="stroke: black; stroke-width: 1px; fill: black;"/><path d="M 4.26,-52 m -7.53,-15.64 a 20,20 0 0 1 4.85,25.64 " style="stroke: black; stroke-width: 3px; fill: none;"/><path d="M 4.26,-52 l 78,0" style="stroke: black; stroke-width: 3px; fill: none;" class="line" id="figure-2-exit"/><path d="M 82.26,-52 m 0,-10 l 0,20" style="stroke: black; stroke-width: 3px; fill: none;"/></g></g></svg>