<?xml version="1.0" standalone="no"?>
<!DOCTYPE svg PUBLIC "-//W3C//DTD SVG 1.2//EN" "http://www.w3.org/Graphics/SVG/1.2/DTD/svg12.dtd">
<svg xmlns="http://www.w3.org/2000/svg" version="1.2" baseProfile="tiny" id="selectedFigureSvg" width="100px" height="100px" viewBox="-142.05 -131.41 171.45 180.52"><g id="sequence"><g id="figure-2"><path d="M 0,0 m -4,0 a4,4 0 1 1 0,0.01" style="stroke: black; stroke-width: 1px; fill: black;"/><path d="M -4,0 l -52,0" style="stroke: black; stroke-width: 3px; fill: none;" class="line" id="figure-2-roll0-gap0"/><path d="M -56,0 m 7.53,15.64 l -8.31,-3.64 l 6.93,-4 z" style="stroke: black; stroke-width: 1px; fill: black;"/><path d="M -56,0 m 7.53,15.64 a 20,20 0 0 1 -7.53,-15.64 " style="stroke: black; stroke-width: 3px; fill: none;"/><text style="font-family: Arial, Sans; font-size: 20px; font-weight: bold; fill: red;" text-anchor="middle" x="-56" y="37">3/4</text><path d="M -56,0 l -26,0" style="stroke: black; stroke-width: 3px; fill: none;" class="line" id="figure-2-roll0-gap1"/><path d="M -82,0 m 7.53,-15.64 l -8.31,3.64 l 6.93,4 z" style="stroke: black; stroke-width: 1px; fill: black;"/><path d="M -82,0 m 7.53,-15.64 a 20,20 0 0 0 -7.53,15.64 " style="stroke: black; stroke-width: 3px; fill: none;"/><text style="font-family: Arial, Sans; font-size: 20px; font-weight: bold; fill: red;" text-anchor="middle" x="-82" y="-23">3x4</text><path d="M -82,0 l -0.26,0" style="stroke: black; stroke-width: 3px; fill: none;" class="line" id="figure-2-roll0-gap2"/><path d="M -82.26,0 a52,52 0 0 1 0,-104" style="stroke: black; stroke-width: 3px; fill: none;"/><path d="M -82.26,-104 l 0.26,0" style="stroke: black; stroke-width: 3px; fill: none;" class="line" id="figure-2-roll1-gap0"/><path d="M -82,-104 m 0,-16.75 l 8,0 " style="stroke: black; stroke-width: 3px; fill: none;"/><path d="M -82,-104 m 0,-16 l 9.6,24 l -19.2,0 z" style="stroke: black; stroke-width: 3px; fill: red;"/><path d="M -76,-104 l 13.6,0" style="stroke: black; stroke-width: 3px; fill: none;" class="line"/><path d="M -62.4,-104 m 8,-19.2 l -29.6,0" style="stroke: black; stroke-width: 3px; fill: none;"/><path d="M -62.4,-104 m 0,-16.75 l 8,0 " style="stroke: black; stroke-width: 3px; fill: none;"/><path d="M -62.4,-104 m 0,-16 l 8,16 l -16,0 z" style="stroke: black; stroke-width: 3px; fill: red;"/><path d="M -56.4,-104 l 78,0" style="stroke: black; stroke-width: 3px; fill: none;" class="line" id="figure-2-exit"/><path d="M 21.6,-104 m 0,-10 l 0,20" style="stroke: black; stroke-width: 3px; fill: none;"/></g></g></svg>