<?xml version="1.0" standalone="no"?>
<!DOCTYPE svg PUBLIC "-//W3C//DTD SVG 1.2//EN" "http://www.w3.org/Graphics/SVG/1.2/DTD/svg12.dtd">
<svg xmlns="http://www.w3.org/2000/svg" version="1.2" baseProfile="tiny" id="selectedFigureSvg" width="100px" height="100px" viewBox="-130.95 -193.37 152.82 326.75"><g id="sequence"><g id="figure-2"><text style="font-family: Verdana, Helvetica, Sans; font-size: 16px; font-weight: bold; fill: black;" text-anchor="middle" x="0" y="-8" class="figNr">7</text><path d="M 0,0 m -4,0 a4,4 0 1 1 0,0.01" style="stroke: black; stroke-width: 1px; fill: black;"/><path d="M -4,0 l -60,0" style="stroke: black; stroke-width: 3.0px; fill: none; vector-effect: non-scaling-stroke;" class="line" id="figure-2-entry"/><path d="M -64,0 l 0,10" style="stroke-dasharray: 10, 5; stroke: red; stroke-width: 3.0px; fill: none; vector-effect: non-scaling-stroke;" class="line" id="figure-2-roll0-gap0"/><path d="M -64,10 m -15.25,0 l 0,8 " style="stroke: black; stroke-width: 3.0px; fill: none; vector-effect: non-scaling-stroke;"/><path d="M -64,10 m -16,0 l 24,12 l 0,-12 z" style="stroke: black; stroke-width: 1.5px; fill: white;"/><text style="font-family: Arial, Sans; font-size: 20px; font-weight: bold; fill: red;" text-anchor="middle" x="-105.14" y="25">3/4</text><path d="M -64,18 l 0,5" style="stroke-dasharray: 10, 5; stroke: red; stroke-width: 3.0px; fill: none; vector-effect: non-scaling-stroke;" class="line"/><path d="M -64,23 m -19.2,8 l 0,-21" style="stroke: black; stroke-width: 3.0px; fill: none; vector-effect: non-scaling-stroke;"/><path d="M -64,23 m -15.25,0 l 0,8 " style="stroke: black; stroke-width: 3.0px; fill: none; vector-effect: non-scaling-stroke;"/><path d="M -64,23 m -16,0 l 16,8 l 0,-8 z" style="stroke: black; stroke-width: 1.5px; fill: white;"/><path d="M -64,31 l 0,30" style="stroke-dasharray: 10, 5; stroke: red; stroke-width: 3.0px; fill: none; vector-effect: non-scaling-stroke;" class="line" id="figure-2-roll0-gap1"/><path d="M -64,61 m 15.64,-7.53 l -3.64,8.31 l -4,-6.93 z" style="stroke: black; stroke-width: 1px; fill: black;"/><path d="M -64,61 m 15.64,-7.53 a 20,20 0 0 1 -15.64,7.53 " style="stroke: black; stroke-width: 3.0px; fill: none; vector-effect: non-scaling-stroke;"/><path d="M -64,61 l 0,30" style="stroke-dasharray: 10, 5; stroke: red; stroke-width: 3.0px; fill: none; vector-effect: non-scaling-stroke;" class="line" id="figure-2-roll0-gap2"/><path d="M -64,91 a11.18,21.7 -14.67 0 0 24.25,14" style="stroke: black; stroke-width: 3.0px; fill: none; vector-effect: non-scaling-stroke;"/><path d="M -39.75,105 l 0,-140" style="stroke: black; stroke-width: 3.0px; fill: none; vector-effect: non-scaling-stroke;" class="line" id="figure-2-roll1-gap0"/><path d="M -39.75,-35 m 15.64,7.53 l -3.64,-8.31 l -4,6.93 z" style="stroke: black; stroke-width: 1px; fill: black;"/><path d="M -39.75,-35 m 15.64,7.53 a 20,20 0 0 0 -15.64,-7.53 " style="stroke: black; stroke-width: 3.0px; fill: none; vector-effect: non-scaling-stroke;"/><text style="font-family: Arial, Sans; font-size: 20px; font-weight: bold; fill: red;" text-anchor="middle" x="-2.61" y="-28">3x4</text><path d="M -39.75,-35 l 0,-20" style="stroke: black; stroke-width: 3.0px; fill: none; vector-effect: non-scaling-stroke;" class="line" id="figure-2-roll1-gap1"/><path d="M -39.75,-55 m -16.75,0 l 0,-8 " style="stroke: black; stroke-width: 3.0px; fill: none; vector-effect: non-scaling-stroke;"/><path d="M -39.75,-55 m -16,0 l 16,-8 l 0,16 z" style="stroke: black; stroke-width: 1.5px; fill: red;"/><text style="font-family: Arial, Sans; font-size: 20px; font-weight: bold; fill: red;" text-anchor="middle" x="-76.89" y="-54">3/4</text><path d="M -39.75,-61 l 0,-90" style="stroke: black; stroke-width: 3.0px; fill: none; vector-effect: non-scaling-stroke;" class="line" id="figure-2-roll1-gap2"/><path d="M -39.75,-151 a11.18,21.7 -14.67 0 0 -24.25,-14" style="stroke: black; stroke-width: 3.0px; fill: none; vector-effect: non-scaling-stroke;"/><path d="M -64,-165 l 0,20" style="stroke: black; stroke-width: 3.0px; fill: none; vector-effect: non-scaling-stroke;" class="line" id="figure-2-roll2-gap0"/><path d="M -64,-145 m -15.64,-7.53 l 3.64,8.31 l 4,-6.93 z" style="stroke: black; stroke-width: 1px; fill: black;"/><path d="M -64,-145 m -15.64,-7.53 a 20,20 0 0 0 15.64,7.53 " style="stroke: black; stroke-width: 3.0px; fill: none; vector-effect: non-scaling-stroke;"/><text style="font-family: Arial, Sans; font-size: 20px; font-weight: bold; fill: red;" text-anchor="middle" x="-101.14" y="-138">2x8</text><path d="M -64,-145 l 0,20" style="stroke: black; stroke-width: 3.0px; fill: none; vector-effect: non-scaling-stroke;" class="line" id="figure-2-roll2-gap1"/><path d="M -64,-125 m 15.64,-7.53 l -3.64,8.31 l -4,-6.93 z" style="stroke: black; stroke-width: 1px; fill: black;"/><path d="M -64,-125 m 15.64,-7.53 a 20,20 0 0 1 -15.64,7.53 " style="stroke: black; stroke-width: 3.0px; fill: none; vector-effect: non-scaling-stroke;"/><path d="M -64,-125 l 0,40" style="stroke: black; stroke-width: 3.0px; fill: none; vector-effect: non-scaling-stroke;" class="line" id="figure-2-roll2-gap2"/><path d="M -64,-85 l -60,0" style="stroke: black; stroke-width: 3.0px; fill: none; vector-effect: non-scaling-stroke;" class="line" id="figure-2-exit"/><path d="M -124,-85 m 0,10 l 0,-20" style="stroke: black; stroke-width: 3.0px; fill: none; vector-effect: non-scaling-stroke;"/></g></g></svg>