<?xml version="1.0" encoding="UTF-8" standalone="no"?>
<!-- Created with Inkscape (http://www.inkscape.org/) -->

<svg
   width="18.018124mm"
   height="17.257889mm"
   viewBox="0 0 18.018124 17.257889"
   version="1.1"
   id="svg30718"
   inkscape:version="1.2.2 (732a01da63, 2022-12-09)"
   sodipodi:docname="0.svg"
   xmlns:inkscape="http://www.inkscape.org/namespaces/inkscape"
   xmlns:sodipodi="http://sodipodi.sourceforge.net/DTD/sodipodi-0.dtd"
   xmlns="http://www.w3.org/2000/svg"
   xmlns:svg="http://www.w3.org/2000/svg">
  <sodipodi:namedview
     id="namedview30720"
     pagecolor="#ffffff"
     bordercolor="#000000"
     borderopacity="0.25"
     inkscape:showpageshadow="2"
     inkscape:pageopacity="0.0"
     inkscape:pagecheckerboard="0"
     inkscape:deskcolor="#d1d1d1"
     inkscape:document-units="mm"
     showgrid="false"
     inkscape:zoom="0.76880612"
     inkscape:cx="49.427286"
     inkscape:cy="20.811489"
     inkscape:window-width="1920"
     inkscape:window-height="1017"
     inkscape:window-x="-8"
     inkscape:window-y="-8"
     inkscape:window-maximized="1"
     inkscape:current-layer="layer1" />
  <defs
     id="defs30715">
    <clipPath
       clipPathUnits="userSpaceOnUse"
       id="clipPath23113">
      <path
         d="M -1.5259e-5,792 H 612 V 1.8311e-4 H -4.5776e-5"
         clip-rule="evenodd"
         id="path23111" />
    </clipPath>
    <clipPath
       clipPathUnits="userSpaceOnUse"
       id="clipPath23123">
      <path
         d="M -1.5259e-5,792 H 612 V 1.8311e-4 H -4.5776e-5"
         clip-rule="evenodd"
         id="path23121" />
    </clipPath>
    <clipPath
       clipPathUnits="userSpaceOnUse"
       id="clipPath23135">
      <path
         d="M -1.5259e-5,792 H 612 V 1.8311e-4 H -4.5776e-5"
         clip-rule="evenodd"
         id="path23133" />
    </clipPath>
    <clipPath
       clipPathUnits="userSpaceOnUse"
       id="clipPath23145">
      <path
         d="M -1.5259e-5,792 H 612 V 1.8311e-4 H -4.5776e-5"
         clip-rule="evenodd"
         id="path23143" />
    </clipPath>
    <clipPath
       clipPathUnits="userSpaceOnUse"
       id="clipPath23157">
      <path
         d="M -1.5259e-5,792 H 612 V 0 H -1.5259e-5"
         clip-rule="evenodd"
         id="path23155" />
    </clipPath>
    <clipPath
       clipPathUnits="userSpaceOnUse"
       id="clipPath23167">
      <path
         d="M -1.5259e-5,792 H 612 V 0 H -1.5259e-5"
         clip-rule="evenodd"
         id="path23165" />
    </clipPath>
  </defs>
  <g
     inkscape:label="Layer 1"
     inkscape:groupmode="layer"
     id="layer1"
     transform="translate(-91.826396,-142.79632)">
    <g
       id="g23091"
       transform="matrix(0.35277777,0,0,-0.35277777,71.173021,383.58126)">
      <path
         d="M 89.45,650.15 96.3,657 m 0,0 c 5.76,5.76 5.76,15.1 0,20.86 -5.76,5.76 -15.099,5.76 -20.859,0 C 69.68,672.1 69.68,662.76 75.44,657 c 2.767,-2.77 6.518,-4.32 10.43,-4.32 m 0,0 H 85.5"
         style="fill:none;stroke:#ff0000;stroke-width:0.72;stroke-linecap:round;stroke-linejoin:round;stroke-miterlimit:10;stroke-dasharray:5.04, 3.6;stroke-dashoffset:0;stroke-opacity:1"
         id="path23093" />
    </g>
    <path
       d="m 92.953521,159.42626 c 0,-0.27516 -0.224014,-0.50094 -0.499887,-0.50094 -0.276225,0 -0.500238,0.22578 -0.500238,0.50094 0,0.27517 0.224013,0.50095 0.500238,0.50095 0.275873,0 0.499887,-0.22578 0.499887,-0.50095 z"
       style="fill:#000000;fill-opacity:1;fill-rule:evenodd;stroke:none;stroke-width:0.352778"
       id="path23095" />
    <path
       d="m 92.953521,159.42626 c 0,-0.27516 -0.224014,-0.50094 -0.499887,-0.50094 -0.276225,0 -0.500238,0.22578 -0.500238,0.50094 0,0.27517 0.224013,0.50095 0.500238,0.50095 0.275873,0 0.499887,-0.22578 0.499887,-0.50095 z m 16.763999,-4.09574 v -4.0005 m -16.763999,8.09624 h 4.571999 m 0,0 5.20347,-5.20347 m -1.39347,-0.89252 h 8.382"
       style="fill:none;stroke:#000000;stroke-width:0.254;stroke-linecap:round;stroke-linejoin:round;stroke-miterlimit:10;stroke-dasharray:none;stroke-opacity:1"
       id="path23097" />
    <g
       id="g23099"
       transform="matrix(0.35277777,0,0,-0.35277777,71.173021,383.58126)">
      <path
         d="M 89.45,650.15 96.3,657 m 0,0 c 5.76,5.76 5.76,15.1 0,20.86 -5.76,5.76 -15.099,5.76 -20.859,0 C 69.68,672.1 69.68,662.76 75.44,657 c 2.767,-2.77 6.518,-4.32 10.43,-4.32 m 0,0 H 85.5"
         style="fill:none;stroke:#ff0000;stroke-width:0.72;stroke-linecap:round;stroke-linejoin:round;stroke-miterlimit:10;stroke-dasharray:5.04, 3.6;stroke-dashoffset:0;stroke-opacity:1"
         id="path23101" />
    </g>
    <path
       d="m 92.953521,159.42626 c 0,-0.27516 -0.224014,-0.50094 -0.499887,-0.50094 -0.276225,0 -0.500238,0.22578 -0.500238,0.50094 0,0.27517 0.224013,0.50095 0.500238,0.50095 0.275873,0 0.499887,-0.22578 0.499887,-0.50095 z"
       style="fill:#000000;fill-opacity:1;fill-rule:evenodd;stroke:none;stroke-width:0.352778"
       id="path23103" />
    <path
       d="m 92.953521,159.42626 c 0,-0.27516 -0.224014,-0.50094 -0.499887,-0.50094 -0.276225,0 -0.500238,0.22578 -0.500238,0.50094 0,0.27517 0.224013,0.50095 0.500238,0.50095 0.275873,0 0.499887,-0.22578 0.499887,-0.50095 z m 16.763999,-4.09574 v -4.0005 m -16.763999,8.09624 h 4.571999 m 0,0 5.20347,-5.20347 m -1.39347,-0.89252 h 8.382"
       style="fill:none;stroke:#000000;stroke-width:0.254;stroke-linecap:round;stroke-linejoin:round;stroke-miterlimit:10;stroke-dasharray:none;stroke-opacity:1"
       id="path23105" />
    <g
       id="g23107"
       transform="matrix(0.35277777,0,0,-0.35277777,71.173021,383.58126)">
      <g
         id="g23109"
         clip-path="url(#clipPath23113)">
        <path
           d="m 92.285,643.72 0.689,2.98 -2.412,-0.57 z"
           style="fill:#000000;fill-opacity:1;fill-rule:evenodd;stroke:none"
           id="path23115" />
      </g>
    </g>
    <g
       id="g23117"
       transform="matrix(0.35277777,0,0,-0.35277777,71.173021,383.58126)">
      <g
         id="g23119"
         clip-path="url(#clipPath23123)">
        <path
           d="m 89.529,650.15 c 1.581,-1.8 2.547,-4.05 2.756,-6.43 m 0,0 0.689,2.98 -2.412,-0.57 z"
           style="fill:none;stroke:#000000;stroke-width:0.36;stroke-linecap:butt;stroke-linejoin:miter;stroke-miterlimit:2;stroke-dasharray:none;stroke-opacity:1"
           id="path23125" />
      </g>
    </g>
    <path
       d="m 104.94514,155.0624 c 0,0.0282 -0.003,0.0459 -0.008,0.06 -0.006,0.0141 -0.013,0.0212 -0.0226,0.0212 h -0.0907 v 0.18698 c 0,0.004 -0.002,0.0106 -0.005,0.0141 -0.003,0.004 -0.009,0.007 -0.0166,0.007 -0.008,0.004 -0.018,0.007 -0.0307,0.007 -0.0127,0.004 -0.0289,0.004 -0.049,0.004 -0.019,0 -0.0349,0 -0.0476,-0.004 -0.013,0 -0.0233,-0.004 -0.031,-0.007 -0.007,0 -0.0127,-0.004 -0.0155,-0.007 -0.003,-0.004 -0.005,-0.0106 -0.005,-0.0141 v -0.18698 h -0.39088 c -0.007,0 -0.0137,0 -0.0197,0 -0.006,-0.004 -0.0106,-0.007 -0.0145,-0.0141 -0.004,-0.007 -0.007,-0.0176 -0.009,-0.0282 -0.002,-0.0141 -0.003,-0.0282 -0.003,-0.0494 0,-0.0176 7.1e-4,-0.0317 0.001,-0.0423 7.1e-4,-0.0141 0.002,-0.0247 0.004,-0.0353 0.002,-0.0106 0.005,-0.0212 0.008,-0.0282 0.004,-0.0106 0.008,-0.0176 0.0131,-0.0282 l 0.3175,-0.56092 c 0.003,-0.004 0.007,-0.007 0.0134,-0.0106 0.006,-0.004 0.0152,-0.007 0.0265,-0.0106 0.0113,0 0.0258,-0.004 0.043,-0.004 0.0173,0 0.0384,-0.004 0.0632,-0.004 0.0268,0 0.0497,0.004 0.0688,0.004 0.0191,0 0.0342,0.004 0.0455,0.007 0.0113,0.004 0.0194,0.007 0.0247,0.0106 0.005,0.004 0.008,0.007 0.008,0.0141 v 0.61384 h 0.0907 c 0.008,0 0.0155,0.007 0.0215,0.0212 0.006,0.0106 0.009,0.0353 0.009,0.0635 z m -0.32138,-0.55386 h -0.001 l -0.26952,0.4692 h 0.27093 z m 1.05093,0.80786 c 0.004,0.007 0.006,0.0141 0.006,0.0212 0,0.007 -0.004,0.0106 -0.0113,0.0141 -0.007,0.004 -0.0187,0.007 -0.0339,0.007 -0.0155,0.004 -0.0356,0.004 -0.061,0.004 -0.0236,0 -0.0427,0 -0.0572,-0.004 -0.0145,0 -0.0258,0 -0.0339,-0.004 -0.008,-0.004 -0.0145,-0.004 -0.0183,-0.007 -0.004,-0.004 -0.007,-0.0106 -0.009,-0.0141 l -0.13052,-0.25047 -0.13018,0.25047 c -0.002,0.004 -0.005,0.0106 -0.009,0.0141 -0.004,0.004 -0.009,0.004 -0.0169,0.007 -0.007,0.004 -0.0183,0.004 -0.0318,0.004 -0.0138,0.004 -0.0318,0.004 -0.054,0.004 -0.0229,0 -0.0416,0 -0.055,-0.004 -0.0138,0 -0.024,-0.004 -0.03,-0.007 -0.006,-0.004 -0.01,-0.007 -0.01,-0.0141 -3.6e-4,-0.007 0.002,-0.0141 0.007,-0.0212 l 0.19473,-0.34925 -0.17991,-0.32455 c -0.005,-0.007 -0.007,-0.0176 -0.007,-0.0247 -3.5e-4,-0.004 0.003,-0.0106 0.01,-0.0141 0.007,-0.004 0.0176,-0.007 0.0328,-0.007 0.0148,-0.004 0.0353,-0.004 0.061,-0.004 0.0233,0 0.0416,0 0.0557,0 0.0141,0.004 0.025,0.004 0.0328,0.004 0.008,0.004 0.0138,0.007 0.0173,0.0106 0.004,0.004 0.007,0.007 0.01,0.0106 l 0.12559,0.23637 0.12489,-0.23637 c 0.001,-0.004 0.004,-0.007 0.007,-0.0106 0.003,-0.004 0.008,-0.004 0.0148,-0.007 0.007,-0.004 0.0162,-0.004 0.0282,-0.004 0.0116,-0.004 0.0279,-0.004 0.0483,-0.004 0.0233,0 0.042,0 0.0557,0.004 0.0141,0 0.024,0.004 0.03,0.007 0.006,0.004 0.009,0.007 0.009,0.0141 -3.5e-4,0.007 -0.004,0.0141 -0.009,0.0247 l -0.17533,0.32103 z m 0.82197,-0.23283 c 0,0.0459 -0.0106,0.0882 -0.0247,0.12347 -0.0176,0.0353 -0.0399,0.067 -0.0713,0.0917 -0.0314,0.0247 -0.0702,0.0423 -0.11641,0.0564 -0.0466,0.0141 -0.0998,0.0176 -0.16052,0.0176 -0.0578,0 -0.10865,-0.004 -0.1524,-0.0141 -0.0437,-0.0141 -0.0801,-0.0318 -0.10971,-0.0529 -0.0293,-0.0212 -0.0515,-0.0494 -0.0663,-0.0811 -0.0148,-0.0353 -0.0222,-0.0705 -0.0222,-0.11289 0,-0.0318 0.005,-0.0564 0.013,-0.0847 0.009,-0.0247 0.0219,-0.0494 0.0388,-0.0706 0.0173,-0.0212 0.0385,-0.0423 0.0639,-0.06 0.0258,-0.0212 0.055,-0.0388 0.0882,-0.0565 -0.0268,-0.0141 -0.0512,-0.0317 -0.0727,-0.0459 -0.0215,-0.0176 -0.0399,-0.0388 -0.0554,-0.0564 -0.0152,-0.0212 -0.0268,-0.0423 -0.0346,-0.067 -0.008,-0.0247 -0.012,-0.0494 -0.012,-0.0811 0,-0.0388 0.007,-0.0776 0.0219,-0.10936 0.0145,-0.0353 0.036,-0.0635 0.0646,-0.0882 0.0289,-0.0247 0.0646,-0.0423 0.10795,-0.0565 0.043,-0.0141 0.0931,-0.0176 0.14993,-0.0176 0.0564,0 0.10478,0.004 0.145,0.0176 0.0402,0.0106 0.0734,0.0282 0.0991,0.0494 0.0258,0.0247 0.0448,0.0494 0.0572,0.0811 0.0134,0.0282 0.0169,0.0635 0.0169,0.10231 0,0.0247 -0.004,0.0494 -0.0106,0.0705 -0.008,0.0247 -0.0198,0.0459 -0.0342,0.067 -0.0148,0.0212 -0.0332,0.0423 -0.0547,0.06 -0.0215,0.0176 -0.0459,0.0353 -0.0734,0.0494 0.0321,0.0176 0.0607,0.0353 0.0861,0.0564 0.0254,0.0176 0.0466,0.0388 0.0639,0.06 0.0159,0.0212 0.03,0.0459 0.0406,0.0705 0.007,0.0247 0.0141,0.0494 0.0141,0.0811 z m -0.23001,-0.49742 c 0,-0.0176 -0.002,-0.0353 -0.008,-0.0494 -0.005,-0.0141 -0.0134,-0.0282 -0.025,-0.0388 -0.0113,-0.0106 -0.0251,-0.0176 -0.0416,-0.0212 -0.0166,-0.007 -0.0363,-0.007 -0.0589,-0.007 -0.0441,0 -0.0773,0.007 -0.0988,0.0282 -0.0215,0.0212 -0.0321,0.0494 -0.0321,0.0847 0,0.0176 0.002,0.0318 0.008,0.0459 0.006,0.0141 0.0141,0.0282 0.0258,0.0423 0.0116,0.0106 0.0265,0.0247 0.0448,0.0353 0.0187,0.0141 0.0402,0.0247 0.0656,0.0388 0.0385,-0.0212 0.0681,-0.0459 0.0889,-0.0705 0.0208,-0.0282 0.031,-0.0565 0.031,-0.0882 z m 0.0236,0.51153 c 0,-0.0212 -0.003,-0.0388 -0.01,-0.0529 -0.007,-0.0176 -0.0169,-0.0317 -0.0311,-0.0459 -0.0137,-0.0141 -0.0314,-0.0282 -0.0526,-0.0423 -0.0208,-0.0141 -0.0455,-0.0247 -0.0734,-0.0388 -0.024,0.0106 -0.0455,0.0247 -0.0638,0.0388 -0.0183,0.0141 -0.0339,0.0282 -0.0459,0.0423 -0.012,0.0141 -0.0212,0.0282 -0.0272,0.0459 -0.006,0.0141 -0.009,0.0317 -0.009,0.0494 0,0.0423 0.0134,0.0741 0.0399,0.0952 0.0268,0.0212 0.0663,0.0317 0.11888,0.0317 0.0515,0 0.0903,-0.0106 0.11571,-0.0317 0.0254,-0.0247 0.0381,-0.0529 0.0381,-0.0917 z"
       style="fill:#ff0000;fill-opacity:1;fill-rule:nonzero;stroke:none;stroke-width:0.352778"
       id="path23127" />
    <g
       id="g23129"
       transform="matrix(0.35277777,0,0,-0.35277777,71.173021,383.58126)">
      <g
         id="g23131"
         clip-path="url(#clipPath23135)">
        <path
           d="m 92.285,643.72 0.689,2.98 -2.412,-0.57 z"
           style="fill:#000000;fill-opacity:1;fill-rule:evenodd;stroke:none"
           id="path23137" />
      </g>
    </g>
    <g
       id="g23139"
       transform="matrix(0.35277777,0,0,-0.35277777,71.173021,383.58126)">
      <g
         id="g23141"
         clip-path="url(#clipPath23145)">
        <path
           d="m 89.529,650.15 c 1.581,-1.8 2.547,-4.05 2.756,-6.43 m 0,0 0.689,2.98 -2.412,-0.57 z"
           style="fill:none;stroke:#000000;stroke-width:0.36;stroke-linecap:butt;stroke-linejoin:miter;stroke-miterlimit:2;stroke-dasharray:none;stroke-opacity:1"
           id="path23147" />
      </g>
    </g>
    <path
       d="m 104.94514,155.0624 c 0,0.0282 -0.003,0.0459 -0.008,0.06 -0.006,0.0141 -0.013,0.0212 -0.0226,0.0212 h -0.0907 v 0.18698 c 0,0.004 -0.002,0.0106 -0.005,0.0141 -0.003,0.004 -0.009,0.007 -0.0166,0.007 -0.008,0.004 -0.018,0.007 -0.0307,0.007 -0.0127,0.004 -0.0289,0.004 -0.049,0.004 -0.019,0 -0.0349,0 -0.0476,-0.004 -0.013,0 -0.0233,-0.004 -0.031,-0.007 -0.007,0 -0.0127,-0.004 -0.0155,-0.007 -0.003,-0.004 -0.005,-0.0106 -0.005,-0.0141 v -0.18698 h -0.39088 c -0.007,0 -0.0137,0 -0.0197,0 -0.006,-0.004 -0.0106,-0.007 -0.0145,-0.0141 -0.004,-0.007 -0.007,-0.0176 -0.009,-0.0282 -0.002,-0.0141 -0.003,-0.0282 -0.003,-0.0494 0,-0.0176 7.1e-4,-0.0317 0.001,-0.0423 7.1e-4,-0.0141 0.002,-0.0247 0.004,-0.0353 0.002,-0.0106 0.005,-0.0212 0.008,-0.0282 0.004,-0.0106 0.008,-0.0176 0.0131,-0.0282 l 0.3175,-0.56092 c 0.003,-0.004 0.007,-0.007 0.0134,-0.0106 0.006,-0.004 0.0152,-0.007 0.0265,-0.0106 0.0113,0 0.0258,-0.004 0.043,-0.004 0.0173,0 0.0384,-0.004 0.0632,-0.004 0.0268,0 0.0497,0.004 0.0688,0.004 0.0191,0 0.0342,0.004 0.0455,0.007 0.0113,0.004 0.0194,0.007 0.0247,0.0106 0.005,0.004 0.008,0.007 0.008,0.0141 v 0.61384 h 0.0907 c 0.008,0 0.0155,0.007 0.0215,0.0212 0.006,0.0106 0.009,0.0353 0.009,0.0635 z m -0.32138,-0.55386 h -0.001 l -0.26952,0.4692 h 0.27093 z m 1.05093,0.80786 c 0.004,0.007 0.006,0.0141 0.006,0.0212 0,0.007 -0.004,0.0106 -0.0113,0.0141 -0.007,0.004 -0.0187,0.007 -0.0339,0.007 -0.0155,0.004 -0.0356,0.004 -0.061,0.004 -0.0236,0 -0.0427,0 -0.0572,-0.004 -0.0145,0 -0.0258,0 -0.0339,-0.004 -0.008,-0.004 -0.0145,-0.004 -0.0183,-0.007 -0.004,-0.004 -0.007,-0.0106 -0.009,-0.0141 l -0.13052,-0.25047 -0.13018,0.25047 c -0.002,0.004 -0.005,0.0106 -0.009,0.0141 -0.004,0.004 -0.009,0.004 -0.0169,0.007 -0.007,0.004 -0.0183,0.004 -0.0318,0.004 -0.0138,0.004 -0.0318,0.004 -0.054,0.004 -0.0229,0 -0.0416,0 -0.055,-0.004 -0.0138,0 -0.024,-0.004 -0.03,-0.007 -0.006,-0.004 -0.01,-0.007 -0.01,-0.0141 -3.6e-4,-0.007 0.002,-0.0141 0.007,-0.0212 l 0.19473,-0.34925 -0.17991,-0.32455 c -0.005,-0.007 -0.007,-0.0176 -0.007,-0.0247 -3.5e-4,-0.004 0.003,-0.0106 0.01,-0.0141 0.007,-0.004 0.0176,-0.007 0.0328,-0.007 0.0148,-0.004 0.0353,-0.004 0.061,-0.004 0.0233,0 0.0416,0 0.0557,0 0.0141,0.004 0.025,0.004 0.0328,0.004 0.008,0.004 0.0138,0.007 0.0173,0.0106 0.004,0.004 0.007,0.007 0.01,0.0106 l 0.12559,0.23637 0.12489,-0.23637 c 0.001,-0.004 0.004,-0.007 0.007,-0.0106 0.003,-0.004 0.008,-0.004 0.0148,-0.007 0.007,-0.004 0.0162,-0.004 0.0282,-0.004 0.0116,-0.004 0.0279,-0.004 0.0483,-0.004 0.0233,0 0.042,0 0.0557,0.004 0.0141,0 0.024,0.004 0.03,0.007 0.006,0.004 0.009,0.007 0.009,0.0141 -3.5e-4,0.007 -0.004,0.0141 -0.009,0.0247 l -0.17533,0.32103 z m 0.82197,-0.23283 c 0,0.0459 -0.0106,0.0882 -0.0247,0.12347 -0.0176,0.0353 -0.0399,0.067 -0.0713,0.0917 -0.0314,0.0247 -0.0702,0.0423 -0.11641,0.0564 -0.0466,0.0141 -0.0998,0.0176 -0.16052,0.0176 -0.0578,0 -0.10865,-0.004 -0.1524,-0.0141 -0.0437,-0.0141 -0.0801,-0.0318 -0.10971,-0.0529 -0.0293,-0.0212 -0.0515,-0.0494 -0.0663,-0.0811 -0.0148,-0.0353 -0.0222,-0.0705 -0.0222,-0.11289 0,-0.0318 0.005,-0.0564 0.013,-0.0847 0.009,-0.0247 0.0219,-0.0494 0.0388,-0.0706 0.0173,-0.0212 0.0385,-0.0423 0.0639,-0.06 0.0258,-0.0212 0.055,-0.0388 0.0882,-0.0565 -0.0268,-0.0141 -0.0512,-0.0317 -0.0727,-0.0459 -0.0215,-0.0176 -0.0399,-0.0388 -0.0554,-0.0564 -0.0152,-0.0212 -0.0268,-0.0423 -0.0346,-0.067 -0.008,-0.0247 -0.012,-0.0494 -0.012,-0.0811 0,-0.0388 0.007,-0.0776 0.0219,-0.10936 0.0145,-0.0353 0.036,-0.0635 0.0646,-0.0882 0.0289,-0.0247 0.0646,-0.0423 0.10795,-0.0565 0.043,-0.0141 0.0931,-0.0176 0.14993,-0.0176 0.0564,0 0.10478,0.004 0.145,0.0176 0.0402,0.0106 0.0734,0.0282 0.0991,0.0494 0.0258,0.0247 0.0448,0.0494 0.0572,0.0811 0.0134,0.0282 0.0169,0.0635 0.0169,0.10231 0,0.0247 -0.004,0.0494 -0.0106,0.0705 -0.008,0.0247 -0.0198,0.0459 -0.0342,0.067 -0.0148,0.0212 -0.0332,0.0423 -0.0547,0.06 -0.0215,0.0176 -0.0459,0.0353 -0.0734,0.0494 0.0321,0.0176 0.0607,0.0353 0.0861,0.0564 0.0254,0.0176 0.0466,0.0388 0.0639,0.06 0.0159,0.0212 0.03,0.0459 0.0406,0.0705 0.007,0.0247 0.0141,0.0494 0.0141,0.0811 z m -0.23001,-0.49742 c 0,-0.0176 -0.002,-0.0353 -0.008,-0.0494 -0.005,-0.0141 -0.0134,-0.0282 -0.025,-0.0388 -0.0113,-0.0106 -0.0251,-0.0176 -0.0416,-0.0212 -0.0166,-0.007 -0.0363,-0.007 -0.0589,-0.007 -0.0441,0 -0.0773,0.007 -0.0988,0.0282 -0.0215,0.0212 -0.0321,0.0494 -0.0321,0.0847 0,0.0176 0.002,0.0318 0.008,0.0459 0.006,0.0141 0.0141,0.0282 0.0258,0.0423 0.0116,0.0106 0.0265,0.0247 0.0448,0.0353 0.0187,0.0141 0.0402,0.0247 0.0656,0.0388 0.0385,-0.0212 0.0681,-0.0459 0.0889,-0.0705 0.0208,-0.0282 0.031,-0.0565 0.031,-0.0882 z m 0.0236,0.51153 c 0,-0.0212 -0.003,-0.0388 -0.01,-0.0529 -0.007,-0.0176 -0.0169,-0.0317 -0.0311,-0.0459 -0.0137,-0.0141 -0.0314,-0.0282 -0.0526,-0.0423 -0.0208,-0.0141 -0.0455,-0.0247 -0.0734,-0.0388 -0.024,0.0106 -0.0455,0.0247 -0.0638,0.0388 -0.0183,0.0141 -0.0339,0.0282 -0.0459,0.0423 -0.012,0.0141 -0.0212,0.0282 -0.0272,0.0459 -0.006,0.0141 -0.009,0.0317 -0.009,0.0494 0,0.0423 0.0134,0.0741 0.0399,0.0952 0.0268,0.0212 0.0663,0.0317 0.11888,0.0317 0.0515,0 0.0903,-0.0106 0.11571,-0.0317 0.0254,-0.0247 0.0381,-0.0529 0.0381,-0.0917 z"
       style="fill:#ff0000;fill-opacity:1;fill-rule:nonzero;stroke:none;stroke-width:0.352778"
       id="path23149" />
    <g
       id="g23151"
       transform="matrix(0.35277777,0,0,-0.35277777,71.173021,383.58126)">
      <g
         id="g23153"
         clip-path="url(#clipPath23157)">
        <path
           d="m 85.027,657.95 h -2.424 l -4.241,-9.1 h 8.483 l -4.242,9.1 z m 4.847,0 h -2.423 l -2.424,-5.2 h 4.847 l -2.423,5.2 z"
           style="fill:#ff0000;fill-opacity:1;fill-rule:evenodd;stroke:none"
           id="path23159" />
      </g>
    </g>
    <g
       id="g23161"
       transform="matrix(0.35277777,0,0,-0.35277777,71.173021,383.58126)">
      <g
         id="g23163"
         clip-path="url(#clipPath23167)">
        <path
           d="m 85.027,657.95 h -2.424 l -4.241,-9.1 h 8.483 l -4.242,9.1 m 7.271,0 h -2.423 l -2.424,-5.2 h 4.847 l -2.423,5.2 m -4.848,1.3 h 7.271"
           style="fill:none;stroke:#000000;stroke-width:0.36;stroke-linecap:round;stroke-linejoin:round;stroke-miterlimit:10;stroke-dasharray:none;stroke-opacity:1"
           id="path23169" />
      </g>
    </g>
  </g>
</svg>
