<?xml version="1.0" encoding="UTF-8" standalone="no"?>
<!-- Created with Inkscape (http://www.inkscape.org/) -->

<svg
   width="13.156494mm"
   height="14.91897mm"
   viewBox="0 0 13.156494 14.91897"
   version="1.1"
   id="svg30972"
   inkscape:version="1.2.2 (732a01da63, 2022-12-09)"
   sodipodi:docname="1.svg"
   xmlns:inkscape="http://www.inkscape.org/namespaces/inkscape"
   xmlns:sodipodi="http://sodipodi.sourceforge.net/DTD/sodipodi-0.dtd"
   xmlns="http://www.w3.org/2000/svg"
   xmlns:svg="http://www.w3.org/2000/svg">
  <sodipodi:namedview
     id="namedview30974"
     pagecolor="#ffffff"
     bordercolor="#000000"
     borderopacity="0.25"
     inkscape:showpageshadow="2"
     inkscape:pageopacity="0.0"
     inkscape:pagecheckerboard="0"
     inkscape:deskcolor="#d1d1d1"
     inkscape:document-units="mm"
     showgrid="false"
     inkscape:zoom="0.76880612"
     inkscape:cx="101.45601"
     inkscape:cy="20.811489"
     inkscape:window-width="1920"
     inkscape:window-height="1017"
     inkscape:window-x="-8"
     inkscape:window-y="-8"
     inkscape:window-maximized="1"
     inkscape:current-layer="layer1" />
  <defs
     id="defs30969">
    <clipPath
       clipPathUnits="userSpaceOnUse"
       id="clipPath23185">
      <path
         d="M -7.629e-6,792 H 612 V 0 H -7.629e-6"
         clip-rule="evenodd"
         id="path23183" />
    </clipPath>
    <clipPath
       clipPathUnits="userSpaceOnUse"
       id="clipPath23195">
      <path
         d="M -7.629e-6,792 H 612 V 0 H -7.629e-6"
         clip-rule="evenodd"
         id="path23193" />
    </clipPath>
    <clipPath
       clipPathUnits="userSpaceOnUse"
       id="clipPath23205">
      <path
         d="M 9.12e-6,0 H 612.00001 V 792 H 9.12e-6 Z"
         clip-rule="evenodd"
         id="path23203" />
    </clipPath>
    <clipPath
       clipPathUnits="userSpaceOnUse"
       id="clipPath23223">
      <path
         d="M 9.12e-6,0 H 612.00001 V 792 H 9.12e-6 Z"
         clip-rule="evenodd"
         id="path23221" />
    </clipPath>
    <clipPath
       clipPathUnits="userSpaceOnUse"
       id="clipPath23241">
      <path
         d="M 9.12e-6,0 H 612.00001 V 792 H 9.12e-6 Z"
         clip-rule="evenodd"
         id="path23239" />
    </clipPath>
  </defs>
  <g
     inkscape:label="Layer 1"
     inkscape:groupmode="layer"
     id="layer1"
     transform="translate(-78.082239,-142.93333)">
    <path
       d="m 80.104714,151.31533 c 0,0.27869 -0.223661,0.50094 -0.499886,0.50094 -0.276225,0 -0.499886,-0.22225 -0.499886,-0.50094 0,-0.27517 0.223661,-0.49742 0.499886,-0.49742 0.276225,0 0.499886,0.22225 0.499886,0.49742 z"
       style="fill:#000000;fill-opacity:1;fill-rule:evenodd;stroke:none;stroke-width:0.352778"
       id="path23171" />
    <path
       d="m 80.104714,151.31533 c 0,0.27869 -0.223661,0.50094 -0.499886,0.50094 -0.276225,0 -0.499886,-0.22225 -0.499886,-0.50094 0,-0.27517 0.223661,-0.49742 0.499886,-0.49742 0.276225,0 0.499886,0.22225 0.499886,0.49742 z m -1.895475,6.40997 h 4.000147 m -1.999897,0 2.646892,-2.23309 m 0,0 v -8.30438 m 0,0 c 0,-2.27895 1.848203,-4.1275 4.1275,-4.1275 2.27965,0 4.127852,1.84855 4.127852,4.1275 0,2.27894 -1.848202,4.1275 -4.127852,4.1275 m 0,0 h -6.879167"
       style="fill:none;stroke:#000000;stroke-width:0.254;stroke-linecap:round;stroke-linejoin:round;stroke-miterlimit:10;stroke-dasharray:none;stroke-opacity:1"
       id="path23173" />
    <path
       d="m 80.104714,151.31533 c 0,0.27869 -0.223661,0.50094 -0.499886,0.50094 -0.276225,0 -0.499886,-0.22225 -0.499886,-0.50094 0,-0.27517 0.223661,-0.49742 0.499886,-0.49742 0.276225,0 0.499886,0.22225 0.499886,0.49742 z"
       style="fill:#000000;fill-opacity:1;fill-rule:evenodd;stroke:none;stroke-width:0.352778"
       id="path23175" />
    <path
       d="m 80.104714,151.31533 c 0,0.27869 -0.223661,0.50094 -0.499886,0.50094 -0.276225,0 -0.499886,-0.22225 -0.499886,-0.50094 0,-0.27517 0.223661,-0.49742 0.499886,-0.49742 0.276225,0 0.499886,0.22225 0.499886,0.49742 z m -1.895475,6.40997 h 4.000147 m -1.999897,0 2.646892,-2.23309 m 0,0 v -8.30438 m 0,0 c 0,-2.27895 1.848203,-4.1275 4.1275,-4.1275 2.27965,0 4.127852,1.84855 4.127852,4.1275 0,2.27894 -1.848202,4.1275 -4.127852,4.1275 m 0,0 h -6.879167"
       style="fill:none;stroke:#000000;stroke-width:0.254;stroke-linecap:round;stroke-linejoin:round;stroke-miterlimit:10;stroke-dasharray:none;stroke-opacity:1"
       id="path23177" />
    <g
       id="g23179"
       transform="matrix(0.35277777,0,0,-0.35277777,55.952137,362.81971)">
      <g
         id="g23181"
         clip-path="url(#clipPath23185)">
        <path
           d="m 85.624,605.39 2.34,-1.47 -1.901,-1.17 z"
           style="fill:#000000;fill-opacity:1;fill-rule:evenodd;stroke:none"
           id="path23187" />
      </g>
    </g>
    <g
       id="g23189"
       transform="matrix(0.35277777,0,0,-0.35277777,55.952137,362.81971)">
      <g
         id="g23191"
         clip-path="url(#clipPath23195)">
        <path
           d="m 86.209,594.86 c 1.07,1.33 1.685,2.97 1.755,4.68 -0.136,2.15 -0.956,4.2 -2.34,5.85 m 0,0 2.34,-1.47 -1.901,-1.17 z"
           style="fill:none;stroke:#000000;stroke-width:0.36;stroke-linecap:butt;stroke-linejoin:miter;stroke-miterlimit:2;stroke-dasharray:none;stroke-opacity:1"
           id="path23197" />
      </g>
    </g>
    <g
       id="g23199"
       transform="matrix(0.35277777,0,0,-0.35277777,55.952137,362.81971)">
      <g
         id="g23201"
         clip-path="url(#clipPath23205)">
        <text
           xml:space="preserve"
           transform="matrix(1,0,0,-1,90.12,603.34)"
           style="font-variant:normal;font-weight:bold;font-size:4.08px;font-family:Calibri;-inkscape-font-specification:Calibri-Bold;writing-mode:lr-tb;fill:#ff0000;fill-opacity:1;fill-rule:nonzero;stroke:none"
           id="text23209"><tspan
             x="0"
             y="0"
             id="tspan23207">2</tspan></text>
      </g>
    </g>
    <path
       d="m 80.586256,148.50016 v 1.44639"
       style="fill:none;stroke:#000000;stroke-width:0.127;stroke-linecap:round;stroke-linejoin:round;stroke-miterlimit:10;stroke-dasharray:none;stroke-opacity:1"
       id="path23211" />
    <path
       d="m 80.792631,148.7083 0.516114,0.8255 0.41275,-0.67028 z m 0,1.03011 0.516114,0.8255 0.41275,-0.67028 z"
       style="fill:#000000;fill-opacity:1;fill-rule:evenodd;stroke:none;stroke-width:0.352778"
       id="path23213" />
    <path
       d="m 84.507381,148.91291 c -0.470253,0.37747 -1.048456,0.59619 -1.651,0.62089 -0.75812,-0.0494 -1.481314,-0.33867 -2.06375,-0.8255 m 2.06375,1.85561 c -0.75812,-0.0459 -1.481314,-0.33514 -2.06375,-0.8255 m 0,-1.03011 0.516114,0.8255 0.41275,-0.67028 z m 0,1.03011 0.516114,0.8255 0.41275,-0.67028 z"
       style="fill:none;stroke:#000000;stroke-width:0.127;stroke-linecap:butt;stroke-linejoin:miter;stroke-miterlimit:2;stroke-dasharray:none;stroke-opacity:1"
       id="path23215" />
    <g
       id="g23217"
       transform="matrix(0.35277777,0,0,-0.35277777,55.952137,362.81971)">
      <g
         id="g23219"
         clip-path="url(#clipPath23223)">
        <text
           xml:space="preserve"
           transform="matrix(1,0,0,-1,67.56,609.17)"
           style="font-variant:normal;font-weight:bold;font-size:4.08px;font-family:Arial;-inkscape-font-specification:Arial-BoldMT;writing-mode:lr-tb;fill:#ff0000;fill-opacity:1;fill-rule:nonzero;stroke:none"
           id="text23227"><tspan
             x="0 2.2684801 3.47616"
             y="0"
             sodipodi:role="line"
             id="tspan23225">1/4</tspan></text>
      </g>
    </g>
    <path
       d="m 80.586256,148.50016 v 1.44639"
       style="fill:none;stroke:#000000;stroke-width:0.127;stroke-linecap:round;stroke-linejoin:round;stroke-miterlimit:2;stroke-dasharray:none;stroke-opacity:1"
       id="path23229" />
    <path
       d="m 80.792631,148.7083 0.516114,0.8255 0.41275,-0.67028 z m 0,1.03011 0.516114,0.8255 0.41275,-0.67028 z"
       style="fill:#000000;fill-opacity:1;fill-rule:evenodd;stroke:none;stroke-width:0.352778"
       id="path23231" />
    <path
       d="m 84.507381,148.91291 c -0.470253,0.37747 -1.048456,0.59619 -1.651,0.62089 -0.75812,-0.0494 -1.481314,-0.33867 -2.06375,-0.8255 m 2.06375,1.85561 c -0.75812,-0.0459 -1.481314,-0.33514 -2.06375,-0.8255 m 0,-1.03011 0.516114,0.8255 0.41275,-0.67028 z m 0,1.03011 0.516114,0.8255 0.41275,-0.67028 z"
       style="fill:none;stroke:#000000;stroke-width:0.127;stroke-linecap:butt;stroke-linejoin:miter;stroke-miterlimit:2;stroke-dasharray:none;stroke-opacity:1"
       id="path23233" />
    <g
       id="g23235"
       transform="matrix(0.35277777,0,0,-0.35277777,55.952137,362.81971)">
      <g
         id="g23237"
         clip-path="url(#clipPath23241)">
        <text
           xml:space="preserve"
           transform="matrix(1,0,0,-1,67.56,609.17)"
           style="font-variant:normal;font-weight:bold;font-size:4.08px;font-family:Arial;-inkscape-font-specification:Arial-BoldMT;writing-mode:lr-tb;fill:#ff0000;fill-opacity:1;fill-rule:nonzero;stroke:none"
           id="text23245"><tspan
             x="0 2.2684801 3.47616"
             y="0"
             sodipodi:role="line"
             id="tspan23243">1/4</tspan></text>
      </g>
    </g>
  </g>
</svg>
