<?xml version="1.0" encoding="UTF-8" standalone="no"?>
<!-- Created with Inkscape (http://www.inkscape.org/) -->

<svg
   width="18.034mm"
   height="7.9939399mm"
   viewBox="0 0 18.034 7.9939399"
   version="1.1"
   id="svg31196"
   inkscape:version="1.2.2 (732a01da63, 2022-12-09)"
   sodipodi:docname="2.svg"
   xmlns:inkscape="http://www.inkscape.org/namespaces/inkscape"
   xmlns:sodipodi="http://sodipodi.sourceforge.net/DTD/sodipodi-0.dtd"
   xmlns="http://www.w3.org/2000/svg"
   xmlns:svg="http://www.w3.org/2000/svg">
  <sodipodi:namedview
     id="namedview31198"
     pagecolor="#ffffff"
     bordercolor="#000000"
     borderopacity="0.25"
     inkscape:showpageshadow="2"
     inkscape:pageopacity="0.0"
     inkscape:pagecheckerboard="0"
     inkscape:deskcolor="#d1d1d1"
     inkscape:document-units="mm"
     showgrid="false"
     inkscape:zoom="0.76880612"
     inkscape:cx="14.307899"
     inkscape:cy="28.615797"
     inkscape:window-width="1920"
     inkscape:window-height="1017"
     inkscape:window-x="-8"
     inkscape:window-y="-8"
     inkscape:window-maximized="1"
     inkscape:current-layer="layer1" />
  <defs
     id="defs31193" />
  <g
     inkscape:label="Layer 1"
     inkscape:groupmode="layer"
     id="layer1"
     transform="translate(-101.11046,-140.88947)">
    <g
       id="g23059"
       transform="matrix(0.35277777,0,0,-0.35277777,79.964963,338.14163)">
      <path
         d="m 81.646,543.37 c 4.65,2.26 4.756,5.97 0.237,8.3 -2.239,1.15 -5.325,1.79 -8.538,1.78"
         style="fill:none;stroke:#000000;stroke-width:0.24;stroke-linecap:round;stroke-linejoin:round;stroke-miterlimit:10;stroke-dasharray:0, 0.72;stroke-dashoffset:0;stroke-opacity:1"
         id="path23061" />
    </g>
    <path
       d="m 107.09428,141.01647 c 0.65934,0.69144 0.93239,1.66511 0.72919,2.59997 m -1.90041,5.13997 c -0.61631,-0.55386 -0.90311,-1.38641 -0.75777,-2.1978 m -3.92783,-4.9142 c 1.14194,0.0952 2.17417,0.71967 2.79612,1.68275"
       style="fill:none;stroke:#000000;stroke-width:0.254;stroke-linecap:round;stroke-linejoin:round;stroke-miterlimit:10;stroke-dasharray:none;stroke-opacity:1"
       id="path23063" />
    <path
       d="m 107.14226,143.00261 -0.048,1.98614 1.61854,-1.15359 z"
       style="fill:#000000;fill-opacity:1;fill-rule:evenodd;stroke:none;stroke-width:0.352778"
       id="path23065" />
    <path
       d="m 105.83345,147.18302 0.0896,-1.98261 -1.64254,1.11831 z"
       style="fill:#000000;fill-opacity:1;fill-rule:evenodd;stroke:none;stroke-width:0.352778"
       id="path23067" />
    <path
       d="m 103.12341,143.433 1.46086,1.34761 0.20178,-1.97909 z"
       style="fill:#000000;fill-opacity:1;fill-rule:evenodd;stroke:none;stroke-width:0.352778"
       id="path23069" />
    <path
       d="m 117.97324,141.85255 c -0.14111,-0.23989 -0.0564,-0.5468 0.17992,-0.68439 0.23989,-0.13758 0.5468,-0.0564 0.68439,0.18345 0.13758,0.23989 0.0564,0.5468 -0.18345,0.68439 -0.23989,0.13758 -0.54328,0.0564 -0.68086,-0.18345 z"
       style="fill:#000000;fill-opacity:1;fill-rule:evenodd;stroke:none;stroke-width:0.352778"
       id="path23071" />
    <path
       d="m 117.97324,141.85255 -9.20538,4.60022 c -0.76976,0.39864 -1.82422,0.62442 -2.92841,0.62795 -2.29623,-0.0176 -4.14902,-0.94192 -4.18359,-2.09197 0.0346,-1.14653 1.88736,-2.07434 4.18359,-2.09198 h 13.17801 m -1.04422,-1.04422 c -0.14111,-0.23989 -0.0564,-0.5468 0.17992,-0.68439 0.23989,-0.13758 0.5468,-0.0564 0.68439,0.18345 0.13758,0.23989 0.0564,0.5468 -0.18345,0.68439 -0.23989,0.13758 -0.54328,0.0564 -0.68086,-0.18345 z m 1.04422,2.04611 v -2.00025"
       style="fill:none;stroke:#000000;stroke-width:0.254;stroke-linecap:round;stroke-linejoin:round;stroke-miterlimit:10;stroke-dasharray:none;stroke-opacity:1"
       id="path23073" />
    <g
       id="g23075"
       transform="matrix(0.35277777,0,0,-0.35277777,79.964963,338.14163)">
      <path
         d="m 81.646,543.37 c 4.65,2.26 4.756,5.97 0.237,8.3 -2.239,1.15 -5.325,1.79 -8.538,1.78"
         style="fill:none;stroke:#000000;stroke-width:0.24;stroke-linecap:round;stroke-linejoin:round;stroke-miterlimit:10;stroke-dasharray:0, 0.72;stroke-dashoffset:0;stroke-opacity:1"
         id="path23077" />
    </g>
    <path
       d="m 107.09428,141.01647 c 0.65934,0.69144 0.93239,1.66511 0.72919,2.59997 m -1.90041,5.13997 c -0.61631,-0.55386 -0.90311,-1.38641 -0.75777,-2.1978 m -3.92783,-4.9142 c 1.14194,0.0952 2.17417,0.71967 2.79612,1.68275"
       style="fill:none;stroke:#000000;stroke-width:0.254;stroke-linecap:round;stroke-linejoin:round;stroke-miterlimit:10;stroke-dasharray:none;stroke-opacity:1"
       id="path23079" />
    <path
       d="m 107.14226,143.00261 -0.048,1.98614 1.61854,-1.15359 z"
       style="fill:#000000;fill-opacity:1;fill-rule:evenodd;stroke:none;stroke-width:0.352778"
       id="path23081" />
    <path
       d="m 105.83345,147.18302 0.0896,-1.98261 -1.64254,1.11831 z"
       style="fill:#000000;fill-opacity:1;fill-rule:evenodd;stroke:none;stroke-width:0.352778"
       id="path23083" />
    <path
       d="m 103.12341,143.433 1.46086,1.34761 0.20178,-1.97909 z"
       style="fill:#000000;fill-opacity:1;fill-rule:evenodd;stroke:none;stroke-width:0.352778"
       id="path23085" />
    <path
       d="m 117.97324,141.85255 c -0.14111,-0.23989 -0.0564,-0.5468 0.17992,-0.68439 0.23989,-0.13758 0.5468,-0.0564 0.68439,0.18345 0.13758,0.23989 0.0564,0.5468 -0.18345,0.68439 -0.23989,0.13758 -0.54328,0.0564 -0.68086,-0.18345 z"
       style="fill:#000000;fill-opacity:1;fill-rule:evenodd;stroke:none;stroke-width:0.352778"
       id="path23087" />
    <path
       d="m 117.97324,141.85255 -9.20538,4.60022 c -0.76976,0.39864 -1.82422,0.62442 -2.92841,0.62795 -2.29623,-0.0176 -4.14902,-0.94192 -4.18359,-2.09197 0.0346,-1.14653 1.88736,-2.07434 4.18359,-2.09198 h 13.17801 m -1.04422,-1.04422 c -0.14111,-0.23989 -0.0564,-0.5468 0.17992,-0.68439 0.23989,-0.13758 0.5468,-0.0564 0.68439,0.18345 0.13758,0.23989 0.0564,0.5468 -0.18345,0.68439 -0.23989,0.13758 -0.54328,0.0564 -0.68086,-0.18345 z m 1.04422,2.04611 v -2.00025"
       style="fill:none;stroke:#000000;stroke-width:0.254;stroke-linecap:round;stroke-linejoin:round;stroke-miterlimit:10;stroke-dasharray:none;stroke-opacity:1"
       id="path23089" />
  </g>
</svg>
