<?xml version="1.0" encoding="UTF-8" standalone="no"?>
<!-- Created with Inkscape (http://www.inkscape.org/) -->

<svg
   width="8.8214655mm"
   height="16.238359mm"
   viewBox="0 0 8.8214655 16.238359"
   version="1.1"
   id="svg31338"
   inkscape:version="1.2.2 (732a01da63, 2022-12-09)"
   sodipodi:docname="3.svg"
   xmlns:inkscape="http://www.inkscape.org/namespaces/inkscape"
   xmlns:sodipodi="http://sodipodi.sourceforge.net/DTD/sodipodi-0.dtd"
   xmlns="http://www.w3.org/2000/svg"
   xmlns:svg="http://www.w3.org/2000/svg">
  <sodipodi:namedview
     id="namedview31340"
     pagecolor="#ffffff"
     bordercolor="#000000"
     borderopacity="0.25"
     inkscape:showpageshadow="2"
     inkscape:pageopacity="0.0"
     inkscape:pagecheckerboard="0"
     inkscape:deskcolor="#d1d1d1"
     inkscape:document-units="mm"
     showgrid="false"
     inkscape:zoom="0.76880612"
     inkscape:cx="-19.510771"
     inkscape:cy="5.2028722"
     inkscape:window-width="1920"
     inkscape:window-height="1017"
     inkscape:window-x="-8"
     inkscape:window-y="-8"
     inkscape:window-maximized="1"
     inkscape:current-layer="layer1" />
  <defs
     id="defs31335">
    <clipPath
       clipPathUnits="userSpaceOnUse"
       id="clipPath23273">
      <path
         d="M 9.12e-6,0 H 612.00001 V 792 H 9.12e-6 Z"
         clip-rule="evenodd"
         id="path23271" />
    </clipPath>
    <clipPath
       clipPathUnits="userSpaceOnUse"
       id="clipPath23289">
      <path
         d="M 9.12e-6,0 H 612.00001 V 792 H 9.12e-6 Z"
         clip-rule="evenodd"
         id="path23287" />
    </clipPath>
    <clipPath
       clipPathUnits="userSpaceOnUse"
       id="clipPath23305">
      <path
         d="M 9.12e-6,0 H 612.00001 V 792 H 9.12e-6 Z"
         clip-rule="evenodd"
         id="path23303" />
    </clipPath>
  </defs>
  <g
     inkscape:label="Layer 1"
     inkscape:groupmode="layer"
     id="layer1"
     transform="translate(-110.19066,-147.09172)">
    <g
       id="g23247"
       transform="matrix(0.35277777,0,0,-0.35277777,86.619456,329.86235)">
      <path
         d="M 84.482,475.25 H 72.961"
         style="fill:none;stroke:#ff0000;stroke-width:0.72;stroke-linecap:round;stroke-linejoin:round;stroke-miterlimit:2;stroke-dasharray:2.16, 2.16;stroke-dashoffset:0;stroke-opacity:1"
         id="path23249" />
    </g>
    <path
       d="m 111.31778,155.06802 c 0,-0.27517 -0.22401,-0.50094 -0.50024,-0.50094 -0.27587,0 -0.49988,0.22577 -0.49988,0.50094 0,0.27517 0.22401,0.50094 0.49988,0.50094 0.27623,0 0.50024,-0.22577 0.50024,-0.50094 z"
       style="fill:#000000;fill-opacity:1;fill-rule:evenodd;stroke:none;stroke-width:0.352778"
       id="path23251" />
    <path
       d="m 111.31778,155.06802 c 0,-0.27517 -0.22401,-0.50094 -0.50024,-0.50094 -0.27587,0 -0.49988,0.22577 -0.49988,0.50094 0,0.27517 0.22401,0.50094 0.49988,0.50094 0.27623,0 0.50024,-0.22577 0.50024,-0.50094 z m 1.04069,8.13506 v -2.00025 m -1.04069,-6.13481 h 5.10505 v -7.8493 m 0,7.8493 v 7.13669 m 0,-14.98599 0.68086,1.36172"
       style="fill:none;stroke:#000000;stroke-width:0.254;stroke-linecap:round;stroke-linejoin:round;stroke-miterlimit:2;stroke-dasharray:none;stroke-opacity:1"
       id="path23253" />
    <g
       id="g23255"
       transform="matrix(0.35277777,0,0,-0.35277777,86.619456,329.86235)">
      <path
         d="M 84.482,475.25 H 72.961"
         style="fill:none;stroke:#ff0000;stroke-width:0.72;stroke-linecap:round;stroke-linejoin:round;stroke-miterlimit:2;stroke-dasharray:2.16, 2.16;stroke-dashoffset:0;stroke-opacity:1"
         id="path23257" />
    </g>
    <path
       d="m 111.31778,155.06802 c 0,-0.27517 -0.22401,-0.50094 -0.50024,-0.50094 -0.27587,0 -0.49988,0.22577 -0.49988,0.50094 0,0.27517 0.22401,0.50094 0.49988,0.50094 0.27623,0 0.50024,-0.22577 0.50024,-0.50094 z"
       style="fill:#000000;fill-opacity:1;fill-rule:evenodd;stroke:none;stroke-width:0.352778"
       id="path23259" />
    <path
       d="m 111.31778,155.06802 c 0,-0.27517 -0.22401,-0.50094 -0.50024,-0.50094 -0.27587,0 -0.49988,0.22577 -0.49988,0.50094 0,0.27517 0.22401,0.50094 0.49988,0.50094 0.27623,0 0.50024,-0.22577 0.50024,-0.50094 z m 1.04069,8.13506 v -2.00025 m -1.04069,-6.13481 h 5.10505 v -7.8493 m 0,7.8493 v 7.13669 m 0,-14.98599 0.68086,1.36172"
       style="fill:none;stroke:#000000;stroke-width:0.254;stroke-linecap:round;stroke-linejoin:round;stroke-miterlimit:2;stroke-dasharray:none;stroke-opacity:1"
       id="path23261" />
    <path
       d="m 118.15885,151.57905 v 0.56797 l -1.7018,0.79375 v -1.5875 l 1.7018,0.79375 z"
       style="fill:#ffffff;fill-opacity:1;fill-rule:evenodd;stroke:none;stroke-width:0.352778"
       id="path23263" />
    <path
       d="m 118.15885,151.57905 v 0.56797 l -1.7018,0.79375 v -1.5875 l 1.7018,0.79375"
       style="fill:none;stroke:#000000;stroke-width:0.127;stroke-linecap:round;stroke-linejoin:round;stroke-miterlimit:2;stroke-dasharray:none;stroke-opacity:1"
       id="path23265" />
    <g
       id="g23267"
       transform="matrix(0.35277777,0,0,-0.35277777,86.619456,329.86235)">
      <g
         id="g23269"
         clip-path="url(#clipPath23273)">
        <text
           xml:space="preserve"
           transform="matrix(1,0,0,-1,86.952,507.53)"
           style="font-variant:normal;font-weight:bold;font-size:3.36px;font-family:Calibri;-inkscape-font-specification:Calibri-Bold;writing-mode:lr-tb;fill:#ff0000;fill-opacity:1;fill-rule:nonzero;stroke:none"
           id="text23277"><tspan
             x="0 1.6799999 3.2356801"
             y="0"
             sodipodi:role="line"
             id="tspan23275">3/4</tspan></text>
      </g>
    </g>
    <path
       d="m 114.72138,150.24202 0.42545,-0.68086 0.34008,0.55033 z"
       style="fill:#000000;fill-opacity:1;fill-rule:evenodd;stroke:none;stroke-width:0.352778"
       id="path23279" />
    <path
       d="m 116.42283,149.56116 c -0.62512,0.0388 -1.22132,0.27517 -1.70145,0.68086 m 0,0 0.42545,-0.68086 0.34008,0.55033 z"
       style="fill:none;stroke:#000000;stroke-width:0.127;stroke-linecap:butt;stroke-linejoin:miter;stroke-miterlimit:2;stroke-dasharray:none;stroke-opacity:1"
       id="path23281" />
    <g
       id="g23283"
       transform="matrix(0.35277777,0,0,-0.35277777,86.619456,329.86235)">
      <g
         id="g23285"
         clip-path="url(#clipPath23289)">
        <text
           xml:space="preserve"
           transform="matrix(1,0,0,-1,77.16,512.93)"
           style="font-variant:normal;font-weight:bold;font-size:3.36px;font-family:Calibri;-inkscape-font-specification:Calibri-Bold;writing-mode:lr-tb;fill:#ff0000;fill-opacity:1;fill-rule:nonzero;stroke:none"
           id="text23293"><tspan
             x="0 1.6799999 3.2356801"
             y="0"
             sodipodi:role="line"
             id="tspan23291">2x8</tspan></text>
      </g>
    </g>
    <path
       d="m 114.72138,150.24202 0.42545,-0.68086 0.34008,0.55033 z"
       style="fill:#000000;fill-opacity:1;fill-rule:evenodd;stroke:none;stroke-width:0.352778"
       id="path23295" />
    <path
       d="m 116.42283,149.56116 c -0.62512,0.0388 -1.22132,0.27517 -1.70145,0.68086 m 0,0 0.42545,-0.68086 0.34008,0.55033 z"
       style="fill:none;stroke:#000000;stroke-width:0.127;stroke-linecap:butt;stroke-linejoin:miter;stroke-miterlimit:2;stroke-dasharray:none;stroke-opacity:1"
       id="path23297" />
    <g
       id="g23299"
       transform="matrix(0.35277777,0,0,-0.35277777,86.619456,329.86235)">
      <g
         id="g23301"
         clip-path="url(#clipPath23305)">
        <text
           xml:space="preserve"
           transform="matrix(1,0,0,-1,77.16,512.93)"
           style="font-variant:normal;font-weight:bold;font-size:3.36px;font-family:Calibri;-inkscape-font-specification:Calibri-Bold;writing-mode:lr-tb;fill:#ff0000;fill-opacity:1;fill-rule:nonzero;stroke:none"
           id="text23309"><tspan
             x="0 1.6799999 3.2356801"
             y="0"
             sodipodi:role="line"
             id="tspan23307">2x8</tspan></text>
      </g>
    </g>
    <path
       d="m 114.76583,157.50924 0.42545,0.68086 0.34043,-0.55033 z"
       style="fill:#000000;fill-opacity:1;fill-rule:evenodd;stroke:none;stroke-width:0.352778"
       id="path23311" />
    <path
       d="m 117.829,157.6821 c -0.91158,0.74084 -2.23908,0.66675 -3.06317,-0.17286 m 0,0 0.42545,0.68086 0.34043,-0.55033 z"
       style="fill:none;stroke:#000000;stroke-width:0.127;stroke-linecap:butt;stroke-linejoin:miter;stroke-miterlimit:2;stroke-dasharray:none;stroke-opacity:1"
       id="path23313" />
  </g>
</svg>
