<?xml version="1.0" encoding="UTF-8" standalone="no"?>
<!-- Created with Inkscape (http://www.inkscape.org/) -->

<svg
   width="15.613239mm"
   height="16.3195mm"
   viewBox="0 0 15.613239 16.3195"
   version="1.1"
   id="svg31756"
   inkscape:version="1.2.2 (732a01da63, 2022-12-09)"
   sodipodi:docname="5.svg"
   xmlns:inkscape="http://www.inkscape.org/namespaces/inkscape"
   xmlns:sodipodi="http://sodipodi.sourceforge.net/DTD/sodipodi-0.dtd"
   xmlns="http://www.w3.org/2000/svg"
   xmlns:svg="http://www.w3.org/2000/svg">
  <sodipodi:namedview
     id="namedview31758"
     pagecolor="#ffffff"
     bordercolor="#000000"
     borderopacity="0.25"
     inkscape:showpageshadow="2"
     inkscape:pageopacity="0.0"
     inkscape:pagecheckerboard="0"
     inkscape:deskcolor="#d1d1d1"
     inkscape:document-units="mm"
     showgrid="false"
     inkscape:zoom="0.76880612"
     inkscape:cx="135.27468"
     inkscape:cy="27.315079"
     inkscape:window-width="1920"
     inkscape:window-height="1017"
     inkscape:window-x="-8"
     inkscape:window-y="-8"
     inkscape:window-maximized="1"
     inkscape:current-layer="layer1" />
  <defs
     id="defs31753">
    <clipPath
       clipPathUnits="userSpaceOnUse"
       id="clipPath23393">
      <path
         d="M 9.12e-6,0 H 612.00001 V 792 H 9.12e-6 Z"
         clip-rule="evenodd"
         id="path23391" />
    </clipPath>
    <clipPath
       clipPathUnits="userSpaceOnUse"
       id="clipPath23405">
      <path
         d="M -1.5259e-5,792 H 612 V 0 L 6.1035e-5,6.1035e-5"
         clip-rule="evenodd"
         id="path23403" />
    </clipPath>
    <clipPath
       clipPathUnits="userSpaceOnUse"
       id="clipPath23415">
      <path
         d="M -1.5259e-5,792 H 612 V 0 L 6.1035e-5,6.1035e-5"
         clip-rule="evenodd"
         id="path23413" />
    </clipPath>
    <clipPath
       clipPathUnits="userSpaceOnUse"
       id="clipPath23425">
      <path
         d="M -3.0518e-5,792 H 612 V 1.8311e-4 L -3.0518e-5,1.2207e-4"
         clip-rule="evenodd"
         id="path23423" />
    </clipPath>
    <clipPath
       clipPathUnits="userSpaceOnUse"
       id="clipPath23435">
      <path
         d="M -3.0518e-5,792 H 612 V 1.8311e-4 L -3.0518e-5,1.2207e-4"
         clip-rule="evenodd"
         id="path23433" />
    </clipPath>
    <clipPath
       clipPathUnits="userSpaceOnUse"
       id="clipPath23447">
      <path
         d="M -3.0518e-5,792 H 612 V 1.8311e-4 L -3.0518e-5,1.2207e-4"
         clip-rule="evenodd"
         id="path23445" />
    </clipPath>
    <clipPath
       clipPathUnits="userSpaceOnUse"
       id="clipPath23457">
      <path
         d="M -3.0518e-5,792 H 612 V 1.8311e-4 L -3.0518e-5,1.2207e-4"
         clip-rule="evenodd"
         id="path23455" />
    </clipPath>
  </defs>
  <g
     inkscape:label="Layer 1"
     inkscape:groupmode="layer"
     id="layer1"
     transform="translate(-69.282604,-141.20062)">
    <g
       id="g23367"
       transform="matrix(0.35277777,0,0,-0.35277777,47.409677,285.47262)">
      <path
         d="M 101.3,377.45 H 62.362 m 31.154,31.15 v -41.64 m 0,0 6.714,-3.9"
         style="fill:none;stroke:#ff0000;stroke-width:0.72;stroke-linecap:round;stroke-linejoin:round;stroke-miterlimit:2;stroke-dasharray:5.04, 3.6;stroke-dashoffset:0;stroke-opacity:1"
         id="path23369" />
    </g>
    <path
       d="m 83.146065,152.31665 c 0,0.2787 0.225778,0.50095 0.500945,0.50095 0.275166,0 0.500944,-0.22225 0.500944,-0.50095 0,-0.27517 -0.225778,-0.49742 -0.500944,-0.49742 -0.275167,0 -0.500945,0.22225 -0.500945,0.49742 z"
       style="fill:#000000;fill-opacity:1;fill-rule:evenodd;stroke:none;stroke-width:0.352778"
       id="path23371" />
    <path
       d="m 83.146065,152.31665 c 0,0.2787 0.225778,0.50095 0.500945,0.50095 0.275166,0 0.500944,-0.22225 0.500944,-0.50095 0,-0.27517 -0.225778,-0.49742 -0.500944,-0.49742 -0.275167,0 -0.500945,0.22225 -0.500945,0.49742 z m 1.622778,5.07647 h -4.000147 m -11.359092,-5.07647 10.990439,-10.98903"
       style="fill:none;stroke:#000000;stroke-width:0.254;stroke-linecap:round;stroke-linejoin:round;stroke-miterlimit:2;stroke-dasharray:none;stroke-opacity:1"
       id="path23373" />
    <g
       id="g23375"
       transform="matrix(0.35277777,0,0,-0.35277777,47.409677,285.47262)">
      <path
         d="M 101.3,377.45 H 62.362 m 31.154,31.15 v -41.64 m 0,0 6.714,-3.9"
         style="fill:none;stroke:#ff0000;stroke-width:0.72;stroke-linecap:round;stroke-linejoin:round;stroke-miterlimit:2;stroke-dasharray:5.04, 3.6;stroke-dashoffset:0;stroke-opacity:1"
         id="path23377" />
    </g>
    <path
       d="m 83.146065,152.31665 c 0,0.2787 0.225778,0.50095 0.500945,0.50095 0.275166,0 0.500944,-0.22225 0.500944,-0.50095 0,-0.27517 -0.225778,-0.49742 -0.500944,-0.49742 -0.275167,0 -0.500945,0.22225 -0.500945,0.49742 z"
       style="fill:#000000;fill-opacity:1;fill-rule:evenodd;stroke:none;stroke-width:0.352778"
       id="path23379" />
    <path
       d="m 83.146065,152.31665 c 0,0.2787 0.225778,0.50095 0.500945,0.50095 0.275166,0 0.500944,-0.22225 0.500944,-0.50095 0,-0.27517 -0.225778,-0.49742 -0.500944,-0.49742 -0.275167,0 -0.500945,0.22225 -0.500945,0.49742 z m 1.622778,5.07647 h -4.000147 m -11.359092,-5.07647 10.990439,-10.98903"
       style="fill:none;stroke:#000000;stroke-width:0.254;stroke-linecap:round;stroke-linejoin:round;stroke-miterlimit:2;stroke-dasharray:none;stroke-opacity:1"
       id="path23381" />
    <path
       d="m 82.409818,149.97421 v -0.67028 l -2.009775,-0.93839 v 1.87325 l 2.009775,-0.93486 z"
       style="fill:#ff0000;fill-opacity:1;fill-rule:evenodd;stroke:none;stroke-width:0.352778"
       id="path23383" />
    <path
       d="m 82.409818,149.97421 v -0.67028 l -2.009775,-0.93839 v 1.87325 l 2.009775,-0.93486"
       style="fill:none;stroke:#000000;stroke-width:0.127;stroke-linecap:round;stroke-linejoin:round;stroke-miterlimit:2;stroke-dasharray:none;stroke-opacity:1"
       id="path23385" />
    <g
       id="g23387"
       transform="matrix(0.35277777,0,0,-0.35277777,47.409677,285.47262)">
      <g
         id="g23389"
         clip-path="url(#clipPath23393)">
        <text
           xml:space="preserve"
           transform="matrix(1,0,0,-1,97.08,389.86)"
           style="font-variant:normal;font-weight:bold;font-size:3.96px;font-family:Calibri;-inkscape-font-specification:Calibri-Bold;writing-mode:lr-tb;fill:#ff0000;fill-opacity:1;fill-rule:nonzero;stroke:none"
           id="text23397"><tspan
             x="0 2.03544 3.7144799"
             y="0"
             sodipodi:role="line"
             id="tspan23395">3/4</tspan></text>
      </g>
    </g>
    <g
       id="g23399"
       transform="matrix(0.35277777,0,0,-0.35277777,47.409677,285.47262)">
      <g
         id="g23401"
         clip-path="url(#clipPath23405)">
        <path
           d="m 71.878,394.99 -1.343,-1.34 2.15,-5.91 3.757,3.76 -5.907,2.15 z"
           style="fill:#ffffff;fill-opacity:1;fill-rule:evenodd;stroke:none"
           id="path23407" />
      </g>
    </g>
    <g
       id="g23409"
       transform="matrix(0.35277777,0,0,-0.35277777,47.409677,285.47262)">
      <g
         id="g23411"
         clip-path="url(#clipPath23415)">
        <path
           d="m 71.878,394.99 -1.343,-1.34 2.15,-5.91 3.757,3.76 -5.907,2.15"
           style="fill:none;stroke:#000000;stroke-width:0.36;stroke-linecap:round;stroke-linejoin:round;stroke-miterlimit:2;stroke-dasharray:none;stroke-opacity:1"
           id="path23417" />
      </g>
    </g>
    <g
       id="g23419"
       transform="matrix(0.35277777,0,0,-0.35277777,47.409677,285.47262)">
      <g
         id="g23421"
         clip-path="url(#clipPath23425)">
        <path
           d="m 81.478,388.19 0.604,2.62 -2.115,-0.5 z"
           style="fill:#000000;fill-opacity:1;fill-rule:evenodd;stroke:none"
           id="path23427" />
      </g>
    </g>
    <g
       id="g23429"
       transform="matrix(0.35277777,0,0,-0.35277777,47.409677,285.47262)">
      <g
         id="g23431"
         clip-path="url(#clipPath23435)">
        <path
           d="m 79.061,393.83 c 1.386,-1.57 2.233,-3.55 2.417,-5.64 m 0,0 0.604,2.62 -2.115,-0.5 z"
           style="fill:none;stroke:#000000;stroke-width:0.36;stroke-linecap:butt;stroke-linejoin:miter;stroke-miterlimit:2;stroke-dasharray:none;stroke-opacity:1"
           id="path23437" />
      </g>
    </g>
    <path
       d="m 77.191882,147.45537 c 0,0.0141 -7.06e-4,0.0247 -0.0018,0.0353 -0.0011,0.0106 -0.0028,0.0176 -0.0053,0.0247 -0.0021,0.004 -0.0053,0.0106 -0.0088,0.0106 -0.0039,0.004 -0.0081,0.004 -0.0127,0.004 h -0.515056 c -0.01023,0 -0.01905,0 -0.02646,0 -0.0074,-0.004 -0.01341,-0.007 -0.01799,-0.0106 -0.0046,-0.007 -0.0078,-0.0141 -0.0099,-0.0247 -0.0021,-0.0106 -0.0032,-0.0247 -0.0032,-0.0388 0,-0.0176 7.05e-4,-0.0282 0.0021,-0.0388 0.0014,-0.0106 0.0039,-0.0212 0.0078,-0.0318 0.0035,-0.007 0.0081,-0.0141 0.01411,-0.0247 0.0056,-0.007 0.01305,-0.0141 0.02258,-0.0247 l 0.15487,-0.16581 c 0.03104,-0.0318 0.05609,-0.0635 0.07479,-0.0882 0.01905,-0.0282 0.03387,-0.0529 0.04445,-0.0741 0.01058,-0.0212 0.01799,-0.0423 0.02187,-0.06 0.0039,-0.0176 0.0056,-0.0353 0.0056,-0.0529 0,-0.0141 -0.0025,-0.0282 -0.0071,-0.0423 -0.0049,-0.0141 -0.01199,-0.0282 -0.02152,-0.0353 -0.0095,-0.0106 -0.02152,-0.0212 -0.03563,-0.0247 -0.01446,-0.007 -0.0314,-0.0106 -0.05045,-0.0106 -0.02752,0 -0.0515,0.004 -0.07267,0.0106 -0.02081,0.007 -0.03916,0.0141 -0.05539,0.0247 -0.01588,0.007 -0.02893,0.0176 -0.03951,0.0247 -0.01094,0.007 -0.01905,0.0106 -0.02505,0.0106 -0.0042,0 -0.0078,-0.004 -0.01094,-0.007 -0.0028,0 -0.0053,-0.007 -0.0071,-0.0106 -0.0018,-0.007 -0.0035,-0.0176 -0.0046,-0.0282 -0.0011,-0.0106 -0.0018,-0.0247 -0.0018,-0.0388 0,-0.0106 3.53e-4,-0.0212 0.0011,-0.0282 7.06e-4,-0.007 0.0018,-0.0106 0.0032,-0.0176 0.0014,-0.007 0.0032,-0.0106 0.0056,-0.0141 0.0021,-0.004 0.0064,-0.007 0.01199,-0.0141 0.0056,-0.007 0.01623,-0.0141 0.03175,-0.0212 0.01552,-0.007 0.03457,-0.0176 0.05715,-0.0247 0.02258,-0.007 0.04762,-0.0141 0.07479,-0.0212 0.02716,-0.004 0.05574,-0.007 0.08537,-0.007 0.04657,0 0.08714,0.007 0.122062,0.0176 0.03492,0.0106 0.06385,0.0282 0.08678,0.0494 0.02328,0.0212 0.04057,0.0459 0.05186,0.0741 0.01129,0.0282 0.01693,0.06 0.01693,0.0917 0,0.0317 -0.0028,0.06 -0.0085,0.0882 -0.0056,0.0282 -0.01693,0.0564 -0.03457,0.0917 -0.01764,0.0318 -0.04233,0.067 -0.07408,0.10583 -0.03175,0.0388 -0.07408,0.0847 -0.126647,0.13759 l -0.104775,0.10936 h 0.353131 c 0.0046,0 0.0092,0 0.01305,0.004 0.0039,0.004 0.0071,0.007 0.0099,0.0106 0.0028,0.007 0.0049,0.0141 0.0063,0.0247 0.0014,0.0106 0.0021,0.0212 0.0021,0.0317 z m 0.681567,0.0388 c 0.0035,0.007 0.0053,0.0141 0.0049,0.0212 0,0.004 -0.0035,0.007 -0.0099,0.0106 -0.0063,0.004 -0.01623,0.007 -0.02963,0.007 -0.01341,0 -0.0314,0.004 -0.05327,0.004 -0.02081,0 -0.03775,-0.004 -0.05045,-0.004 -0.0127,0 -0.02258,0 -0.02963,-0.004 -0.0071,-0.004 -0.0127,-0.004 -0.01588,-0.007 -0.0035,-0.004 -0.0063,-0.007 -0.0081,-0.0106 l -0.1143,-0.22225 -0.1143,0.22225 c -0.0018,0.004 -0.0042,0.007 -0.0074,0.0106 -0.0032,0.004 -0.0081,0.004 -0.01482,0.007 -0.0067,0.004 -0.01623,0.004 -0.02822,0.004 -0.01199,0 -0.02752,0.004 -0.04692,0.004 -0.02046,0 -0.03669,-0.004 -0.04868,-0.004 -0.01199,0 -0.02081,-0.004 -0.02611,-0.007 -0.0056,-0.004 -0.0085,-0.007 -0.0088,-0.0106 0,-0.007 0.0018,-0.0141 0.006,-0.0212 l 0.171097,-0.30339 -0.158045,-0.28575 c -0.0042,-0.007 -0.0063,-0.0141 -0.0067,-0.0212 0,-0.007 0.0028,-0.0106 0.0088,-0.0141 0.006,-0.004 0.01552,-0.004 0.02858,-0.007 0.01341,0 0.03105,0 0.05398,0 0.02011,0 0.03634,0 0.04868,0 0.01235,0 0.02187,0.004 0.02858,0.004 0.0071,0 0.01199,0.004 0.01552,0.007 0.0032,0.004 0.006,0.007 0.0081,0.0106 l 0.110066,0.20814 0.109361,-0.20814 c 0.0014,-0.004 0.0035,-0.007 0.0063,-0.0106 0.0028,-0.004 0.0071,-0.004 0.01305,-0.007 0.006,0 0.01446,-0.004 0.02469,-0.004 0.01023,0 0.02469,0 0.04269,0 0.02011,0 0.03634,0 0.04868,0 0.01235,0 0.02117,0.004 0.02646,0.007 0.0053,0.004 0.0078,0.007 0.0074,0.0141 0,0.004 -0.0028,0.0106 -0.0078,0.0212 l -0.153812,0.28222 z m 0.700616,-0.22225 c 0,0.0247 -0.0025,0.0423 -0.0071,0.0564 -0.0049,0.0106 -0.01164,0.0176 -0.01976,0.0176 h -0.07973 v 0.16228 c 0,0.004 -0.0014,0.007 -0.0042,0.0106 -0.0028,0.004 -0.0074,0.007 -0.01446,0.0106 -0.0071,0 -0.01588,0.004 -0.02716,0.004 -0.01094,0 -0.0254,0.004 -0.04269,0.004 -0.01658,0 -0.03069,-0.004 -0.04198,-0.004 -0.01129,0 -0.02046,-0.004 -0.02716,-0.004 -0.0067,-0.004 -0.01129,-0.007 -0.01376,-0.0106 -0.0025,-0.004 -0.0039,-0.007 -0.0039,-0.0106 v -0.16228 h -0.342547 c -0.0063,0 -0.01235,0 -0.01729,-0.004 -0.0053,0 -0.0095,-0.004 -0.01305,-0.0106 -0.0032,-0.007 -0.006,-0.0141 -0.0074,-0.0247 -0.0018,-0.0106 -0.0025,-0.0247 -0.0025,-0.0423 0,-0.0176 3.53e-4,-0.0282 0.0011,-0.0388 7.06e-4,-0.0106 0.0018,-0.0212 0.0035,-0.0317 0.0014,-0.007 0.0039,-0.0141 0.0067,-0.0247 0.0032,-0.007 0.0071,-0.0141 0.01164,-0.0247 l 0.278342,-0.49036 c 0.0021,-0.004 0.006,-0.007 0.01164,-0.0106 0.0056,-0.004 0.0134,-0.007 0.02328,-0.007 0.0099,-0.004 0.02258,-0.004 0.03775,-0.004 0.01517,-0.004 0.03351,-0.004 0.05539,-0.004 0.02364,0 0.04375,0 0.06032,0.004 0.01658,0 0.02963,0.004 0.03986,0.004 0.0099,0.004 0.01693,0.007 0.02152,0.0106 0.0046,0.004 0.0071,0.007 0.0071,0.0141 v 0.53975 h 0.07973 c 0.0074,0 0.01376,0.004 0.01905,0.0141 0.0053,0.0141 0.0078,0.0317 0.0078,0.0564 z m -0.281869,-0.48331 h -0.0014 l -0.236009,0.41275 h 0.23742 z"
       style="fill:#ff0000;fill-opacity:1;fill-rule:nonzero;stroke:none;stroke-width:0.352778"
       id="path23439" />
    <g
       id="g23441"
       transform="matrix(0.35277777,0,0,-0.35277777,47.409677,285.47262)">
      <g
         id="g23443"
         clip-path="url(#clipPath23447)">
        <path
           d="m 81.478,388.19 0.604,2.62 -2.115,-0.5 z"
           style="fill:#000000;fill-opacity:1;fill-rule:evenodd;stroke:none"
           id="path23449" />
      </g>
    </g>
    <g
       id="g23451"
       transform="matrix(0.35277777,0,0,-0.35277777,47.409677,285.47262)">
      <g
         id="g23453"
         clip-path="url(#clipPath23457)">
        <path
           d="m 79.061,393.83 c 1.386,-1.57 2.233,-3.55 2.417,-5.64 m 0,0 0.604,2.62 -2.115,-0.5 z"
           style="fill:none;stroke:#000000;stroke-width:0.36;stroke-linecap:butt;stroke-linejoin:miter;stroke-miterlimit:2;stroke-dasharray:none;stroke-opacity:1"
           id="path23459" />
      </g>
    </g>
    <path
       d="m 77.191882,147.45537 c 0,0.0141 -7.06e-4,0.0247 -0.0018,0.0353 -0.0011,0.0106 -0.0028,0.0176 -0.0053,0.0247 -0.0021,0.004 -0.0053,0.0106 -0.0088,0.0106 -0.0039,0.004 -0.0081,0.004 -0.0127,0.004 h -0.515056 c -0.01023,0 -0.01905,0 -0.02646,0 -0.0074,-0.004 -0.01341,-0.007 -0.01799,-0.0106 -0.0046,-0.007 -0.0078,-0.0141 -0.0099,-0.0247 -0.0021,-0.0106 -0.0032,-0.0247 -0.0032,-0.0388 0,-0.0176 7.05e-4,-0.0282 0.0021,-0.0388 0.0014,-0.0106 0.0039,-0.0212 0.0078,-0.0318 0.0035,-0.007 0.0081,-0.0141 0.01411,-0.0247 0.0056,-0.007 0.01305,-0.0141 0.02258,-0.0247 l 0.15487,-0.16581 c 0.03104,-0.0318 0.05609,-0.0635 0.07479,-0.0882 0.01905,-0.0282 0.03387,-0.0529 0.04445,-0.0741 0.01058,-0.0212 0.01799,-0.0423 0.02187,-0.06 0.0039,-0.0176 0.0056,-0.0353 0.0056,-0.0529 0,-0.0141 -0.0025,-0.0282 -0.0071,-0.0423 -0.0049,-0.0141 -0.01199,-0.0282 -0.02152,-0.0353 -0.0095,-0.0106 -0.02152,-0.0212 -0.03563,-0.0247 -0.01446,-0.007 -0.0314,-0.0106 -0.05045,-0.0106 -0.02752,0 -0.0515,0.004 -0.07267,0.0106 -0.02081,0.007 -0.03916,0.0141 -0.05539,0.0247 -0.01588,0.007 -0.02893,0.0176 -0.03951,0.0247 -0.01094,0.007 -0.01905,0.0106 -0.02505,0.0106 -0.0042,0 -0.0078,-0.004 -0.01094,-0.007 -0.0028,0 -0.0053,-0.007 -0.0071,-0.0106 -0.0018,-0.007 -0.0035,-0.0176 -0.0046,-0.0282 -0.0011,-0.0106 -0.0018,-0.0247 -0.0018,-0.0388 0,-0.0106 3.53e-4,-0.0212 0.0011,-0.0282 7.06e-4,-0.007 0.0018,-0.0106 0.0032,-0.0176 0.0014,-0.007 0.0032,-0.0106 0.0056,-0.0141 0.0021,-0.004 0.0064,-0.007 0.01199,-0.0141 0.0056,-0.007 0.01623,-0.0141 0.03175,-0.0212 0.01552,-0.007 0.03457,-0.0176 0.05715,-0.0247 0.02258,-0.007 0.04762,-0.0141 0.07479,-0.0212 0.02716,-0.004 0.05574,-0.007 0.08537,-0.007 0.04657,0 0.08714,0.007 0.122062,0.0176 0.03492,0.0106 0.06385,0.0282 0.08678,0.0494 0.02328,0.0212 0.04057,0.0459 0.05186,0.0741 0.01129,0.0282 0.01693,0.06 0.01693,0.0917 0,0.0317 -0.0028,0.06 -0.0085,0.0882 -0.0056,0.0282 -0.01693,0.0564 -0.03457,0.0917 -0.01764,0.0318 -0.04233,0.067 -0.07408,0.10583 -0.03175,0.0388 -0.07408,0.0847 -0.126647,0.13759 l -0.104775,0.10936 h 0.353131 c 0.0046,0 0.0092,0 0.01305,0.004 0.0039,0.004 0.0071,0.007 0.0099,0.0106 0.0028,0.007 0.0049,0.0141 0.0063,0.0247 0.0014,0.0106 0.0021,0.0212 0.0021,0.0317 z m 0.681567,0.0388 c 0.0035,0.007 0.0053,0.0141 0.0049,0.0212 0,0.004 -0.0035,0.007 -0.0099,0.0106 -0.0063,0.004 -0.01623,0.007 -0.02963,0.007 -0.01341,0 -0.0314,0.004 -0.05327,0.004 -0.02081,0 -0.03775,-0.004 -0.05045,-0.004 -0.0127,0 -0.02258,0 -0.02963,-0.004 -0.0071,-0.004 -0.0127,-0.004 -0.01588,-0.007 -0.0035,-0.004 -0.0063,-0.007 -0.0081,-0.0106 l -0.1143,-0.22225 -0.1143,0.22225 c -0.0018,0.004 -0.0042,0.007 -0.0074,0.0106 -0.0032,0.004 -0.0081,0.004 -0.01482,0.007 -0.0067,0.004 -0.01623,0.004 -0.02822,0.004 -0.01199,0 -0.02752,0.004 -0.04692,0.004 -0.02046,0 -0.03669,-0.004 -0.04868,-0.004 -0.01199,0 -0.02081,-0.004 -0.02611,-0.007 -0.0056,-0.004 -0.0085,-0.007 -0.0088,-0.0106 0,-0.007 0.0018,-0.0141 0.006,-0.0212 l 0.171097,-0.30339 -0.158045,-0.28575 c -0.0042,-0.007 -0.0063,-0.0141 -0.0067,-0.0212 0,-0.007 0.0028,-0.0106 0.0088,-0.0141 0.006,-0.004 0.01552,-0.004 0.02858,-0.007 0.01341,0 0.03105,0 0.05398,0 0.02011,0 0.03634,0 0.04868,0 0.01235,0 0.02187,0.004 0.02858,0.004 0.0071,0 0.01199,0.004 0.01552,0.007 0.0032,0.004 0.006,0.007 0.0081,0.0106 l 0.110066,0.20814 0.109361,-0.20814 c 0.0014,-0.004 0.0035,-0.007 0.0063,-0.0106 0.0028,-0.004 0.0071,-0.004 0.01305,-0.007 0.006,0 0.01446,-0.004 0.02469,-0.004 0.01023,0 0.02469,0 0.04269,0 0.02011,0 0.03634,0 0.04868,0 0.01235,0 0.02117,0.004 0.02646,0.007 0.0053,0.004 0.0078,0.007 0.0074,0.0141 0,0.004 -0.0028,0.0106 -0.0078,0.0212 l -0.153812,0.28222 z m 0.700616,-0.22225 c 0,0.0247 -0.0025,0.0423 -0.0071,0.0564 -0.0049,0.0106 -0.01164,0.0176 -0.01976,0.0176 h -0.07973 v 0.16228 c 0,0.004 -0.0014,0.007 -0.0042,0.0106 -0.0028,0.004 -0.0074,0.007 -0.01446,0.0106 -0.0071,0 -0.01588,0.004 -0.02716,0.004 -0.01094,0 -0.0254,0.004 -0.04269,0.004 -0.01658,0 -0.03069,-0.004 -0.04198,-0.004 -0.01129,0 -0.02046,-0.004 -0.02716,-0.004 -0.0067,-0.004 -0.01129,-0.007 -0.01376,-0.0106 -0.0025,-0.004 -0.0039,-0.007 -0.0039,-0.0106 v -0.16228 h -0.342547 c -0.0063,0 -0.01235,0 -0.01729,-0.004 -0.0053,0 -0.0095,-0.004 -0.01305,-0.0106 -0.0032,-0.007 -0.006,-0.0141 -0.0074,-0.0247 -0.0018,-0.0106 -0.0025,-0.0247 -0.0025,-0.0423 0,-0.0176 3.53e-4,-0.0282 0.0011,-0.0388 7.06e-4,-0.0106 0.0018,-0.0212 0.0035,-0.0317 0.0014,-0.007 0.0039,-0.0141 0.0067,-0.0247 0.0032,-0.007 0.0071,-0.0141 0.01164,-0.0247 l 0.278342,-0.49036 c 0.0021,-0.004 0.006,-0.007 0.01164,-0.0106 0.0056,-0.004 0.0134,-0.007 0.02328,-0.007 0.0099,-0.004 0.02258,-0.004 0.03775,-0.004 0.01517,-0.004 0.03351,-0.004 0.05539,-0.004 0.02364,0 0.04375,0 0.06032,0.004 0.01658,0 0.02963,0.004 0.03986,0.004 0.0099,0.004 0.01693,0.007 0.02152,0.0106 0.0046,0.004 0.0071,0.007 0.0071,0.0141 v 0.53975 h 0.07973 c 0.0074,0 0.01376,0.004 0.01905,0.0141 0.0053,0.0141 0.0078,0.0317 0.0078,0.0564 z m -0.281869,-0.48331 h -0.0014 l -0.236009,0.41275 h 0.23742 z"
       style="fill:#ff0000;fill-opacity:1;fill-rule:nonzero;stroke:none;stroke-width:0.352778"
       id="path23461" />
  </g>
</svg>
