<?xml version="1.0" encoding="UTF-8" standalone="no"?>
<!-- Created with Inkscape (http://www.inkscape.org/) -->

<svg
   width="11.902906mm"
   height="14.93308mm"
   viewBox="0 0 11.902906 14.93308"
   version="1.1"
   id="svg32044"
   inkscape:version="1.2.2 (732a01da63, 2022-12-09)"
   sodipodi:docname="6.svg"
   xmlns:inkscape="http://www.inkscape.org/namespaces/inkscape"
   xmlns:sodipodi="http://sodipodi.sourceforge.net/DTD/sodipodi-0.dtd"
   xmlns="http://www.w3.org/2000/svg"
   xmlns:svg="http://www.w3.org/2000/svg">
  <sodipodi:namedview
     id="namedview32046"
     pagecolor="#ffffff"
     bordercolor="#000000"
     borderopacity="0.25"
     inkscape:showpageshadow="2"
     inkscape:pageopacity="0.0"
     inkscape:pagecheckerboard="0"
     inkscape:deskcolor="#d1d1d1"
     inkscape:document-units="mm"
     showgrid="false"
     inkscape:zoom="2.1745121"
     inkscape:cx="-343.98521"
     inkscape:cy="81.857444"
     inkscape:window-width="1920"
     inkscape:window-height="1017"
     inkscape:window-x="-8"
     inkscape:window-y="-8"
     inkscape:window-maximized="1"
     inkscape:current-layer="layer1" />
  <defs
     id="defs32041">
    <clipPath
       clipPathUnits="userSpaceOnUse"
       id="clipPath23493">
      <path
         d="M 9.12e-6,0 H 612.00001 V 792 H 9.12e-6 Z"
         clip-rule="evenodd"
         id="path23491" />
    </clipPath>
    <clipPath
       clipPathUnits="userSpaceOnUse"
       id="clipPath23509">
      <path
         d="M 9.12e-6,0 H 612.00001 V 792 H 9.12e-6 Z"
         clip-rule="evenodd"
         id="path23507" />
    </clipPath>
    <clipPath
       clipPathUnits="userSpaceOnUse"
       id="clipPath23525">
      <path
         d="M 9.12e-6,0 H 612.00001 V 792 H 9.12e-6 Z"
         clip-rule="evenodd"
         id="path23523" />
    </clipPath>
  </defs>
  <g
     inkscape:label="Layer 1"
     inkscape:groupmode="layer"
     id="layer1"
     transform="translate(-80.429776,-140.51724)">
    <g
       id="g23463"
       transform="matrix(0.35277777,0,0,-0.35277777,56.345553,266.52593)">
      <path
         d="M 71.225,335.92 85.5,326.4 m 0,0 v 19.56 M 77.411,354 h 22.364"
         style="fill:none;stroke:#ff0000;stroke-width:0.72;stroke-linecap:round;stroke-linejoin:round;stroke-miterlimit:2;stroke-dasharray:2.16, 2.16;stroke-dashoffset:0;stroke-opacity:1"
         id="path23465" />
    </g>
    <path
       d="m 81.47215,148.02082 c -0.153106,0.22931 -0.46355,0.29281 -0.693209,0.14111 -0.230011,-0.15522 -0.2921,-0.46566 -0.138641,-0.69497 0.153105,-0.22931 0.46355,-0.29281 0.693208,-0.13758 0.229658,0.15169 0.291747,0.46214 0.138642,0.69144 z"
       style="fill:#000000;fill-opacity:1;fill-rule:evenodd;stroke:none;stroke-width:0.352778"
       id="path23467" />
    <path
       d="m 81.47215,148.02082 c -0.153106,0.22931 -0.46355,0.29281 -0.693209,0.14111 -0.230011,-0.15522 -0.2921,-0.46566 -0.138641,-0.69497 0.153105,-0.22931 0.46355,-0.29281 0.693208,-0.13758 0.229658,0.15169 0.291747,0.46214 0.138642,0.69144 z m 10.071805,-5.37633 v -2.00025 m -5.035903,3.83469 c 0,-0.9278 0.751417,-1.67922 1.678517,-1.67922 0.9271,0 1.678869,0.75142 1.678869,1.67922 m 0,0 v 7.73995 m 0,0 c 0,1.7145 -1.39065,3.10444 -3.105502,3.10444 -1.715206,0 -3.105503,-1.38994 -3.105503,-3.10444 m 0,0 V 141.6426"
       style="fill:none;stroke:#000000;stroke-width:0.254;stroke-linecap:round;stroke-linejoin:round;stroke-miterlimit:2;stroke-dasharray:none;stroke-opacity:1"
       id="path23469" />
    <g
       id="g23471"
       transform="matrix(0.35277777,0,0,-0.35277777,56.345553,266.52593)">
      <path
         d="M 71.225,335.92 85.5,326.4 m 0,0 v 19.56 M 77.411,354 h 22.364"
         style="fill:none;stroke:#ff0000;stroke-width:0.72;stroke-linecap:round;stroke-linejoin:round;stroke-miterlimit:2;stroke-dasharray:2.16, 2.16;stroke-dashoffset:0;stroke-opacity:1"
         id="path23473" />
    </g>
    <path
       d="m 81.47215,148.02082 c -0.153106,0.22931 -0.46355,0.29281 -0.693209,0.14111 -0.230011,-0.15522 -0.2921,-0.46566 -0.138641,-0.69497 0.153105,-0.22931 0.46355,-0.29281 0.693208,-0.13758 0.229658,0.15169 0.291747,0.46214 0.138642,0.69144 z"
       style="fill:#000000;fill-opacity:1;fill-rule:evenodd;stroke:none;stroke-width:0.352778"
       id="path23475" />
    <path
       d="m 81.47215,148.02082 c -0.153106,0.22931 -0.46355,0.29281 -0.693209,0.14111 -0.230011,-0.15522 -0.2921,-0.46566 -0.138641,-0.69497 0.153105,-0.22931 0.46355,-0.29281 0.693208,-0.13758 0.229658,0.15169 0.291747,0.46214 0.138642,0.69144 z m 10.071805,-5.37633 v -2.00025 m -5.035903,3.83469 c 0,-0.9278 0.751417,-1.67922 1.678517,-1.67922 0.9271,0 1.678869,0.75142 1.678869,1.67922 m 0,0 v 7.73995 m 0,0 c 0,1.7145 -1.39065,3.10444 -3.105502,3.10444 -1.715206,0 -3.105503,-1.38994 -3.105503,-3.10444 m 0,0 V 141.6426"
       style="fill:none;stroke:#000000;stroke-width:0.254;stroke-linecap:round;stroke-linejoin:round;stroke-miterlimit:2;stroke-dasharray:none;stroke-opacity:1"
       id="path23477" />
    <path
       d="m 82.090569,147.18121 0.419806,-0.67028 0.335491,0.54681 z"
       style="fill:#000000;fill-opacity:1;fill-rule:evenodd;stroke:none;stroke-width:0.352778"
       id="path23479" />
    <path
       d="m 85.112111,147.0154 c -0.899231,-0.73377 -2.208742,-0.65969 -3.021542,0.16581 m 0,0 0.419806,-0.67028 0.335491,0.54681 z"
       style="fill:none;stroke:#000000;stroke-width:0.127;stroke-linecap:butt;stroke-linejoin:miter;stroke-miterlimit:2;stroke-dasharray:none;stroke-opacity:1"
       id="path23481" />
    <path
       d="m 91.208111,149.02977 v -0.62795 l -2.349853,-1.09361 v 2.19075 l 2.349853,-1.09714 z m 0,1.25236 v -0.62795 l -1.342673,-0.62441 v 1.25236 l 1.342673,-0.62795 z"
       style="fill:#ffffff;fill-opacity:1;fill-rule:evenodd;stroke:none;stroke-width:0.352778"
       id="path23483" />
    <path
       d="m 91.208111,149.02977 v -0.62795 l -2.349853,-1.09361 v 2.19075 l 2.349853,-1.09714 m 0,1.88031 v -0.62795 l -1.342673,-0.62441 v 1.25236 l 1.342673,-0.62795 m 0.335844,-1.25236 v 1.88031"
       style="fill:none;stroke:#000000;stroke-width:0.127;stroke-linecap:round;stroke-linejoin:round;stroke-miterlimit:2;stroke-dasharray:none;stroke-opacity:1"
       id="path23485" />
    <g
       id="g23487"
       transform="matrix(0.35277777,0,0,-0.35277777,56.345553,266.52593)">
      <g
         id="g23489"
         clip-path="url(#clipPath23493)">
        <text
           xml:space="preserve"
           transform="matrix(1,0,0,-1,97.464,336.74)"
           style="font-variant:normal;font-weight:bold;font-size:3.36px;font-family:Arial;-inkscape-font-specification:Arial-BoldMT;writing-mode:lr-tb;fill:#ff0000;fill-opacity:1;fill-rule:nonzero;stroke:none"
           id="text23497"><tspan
             x="0 1.9152 2.7551999"
             y="0"
             sodipodi:role="line"
             id="tspan23495">1/4</tspan></text>
      </g>
    </g>
    <path
       d="m 88.256772,148.51118 -0.419806,-0.67028 -0.335844,0.54328 z"
       style="fill:#000000;fill-opacity:1;fill-rule:evenodd;stroke:none;stroke-width:0.352778"
       id="path23499" />
    <path
       d="m 86.577902,147.8409 c 0.617009,0.0388 1.205089,0.27164 1.67887,0.67028 m 0,0 -0.419806,-0.67028 -0.335844,0.54328 z"
       style="fill:none;stroke:#000000;stroke-width:0.127;stroke-linecap:butt;stroke-linejoin:miter;stroke-miterlimit:2;stroke-dasharray:none;stroke-opacity:1"
       id="path23501" />
    <g
       id="g23503"
       transform="matrix(0.35277777,0,0,-0.35277777,56.345553,266.52593)">
      <g
         id="g23505"
         clip-path="url(#clipPath23509)">
        <text
           xml:space="preserve"
           transform="matrix(1,0,0,-1,88.008,338.21)"
           style="font-variant:normal;font-weight:bold;font-size:3.36px;font-family:Calibri;-inkscape-font-specification:Calibri-Bold;writing-mode:lr-tb;fill:#ff0000;fill-opacity:1;fill-rule:nonzero;stroke:none"
           id="text23513"><tspan
             x="0 1.6799999 3.2356801"
             y="0"
             sodipodi:role="line"
             id="tspan23511">4x8</tspan></text>
      </g>
    </g>
    <path
       d="m 88.256772,148.51118 -0.419806,-0.67028 -0.335844,0.54328 z"
       style="fill:#000000;fill-opacity:1;fill-rule:evenodd;stroke:none;stroke-width:0.352778"
       id="path23515" />
    <path
       d="m 86.577902,147.8409 c 0.617009,0.0388 1.205089,0.27164 1.67887,0.67028 m 0,0 -0.419806,-0.67028 -0.335844,0.54328 z"
       style="fill:none;stroke:#000000;stroke-width:0.127;stroke-linecap:butt;stroke-linejoin:miter;stroke-miterlimit:2;stroke-dasharray:none;stroke-opacity:1"
       id="path23517" />
    <g
       id="g23519"
       transform="matrix(0.35277777,0,0,-0.35277777,56.345553,266.52593)">
      <g
         id="g23521"
         clip-path="url(#clipPath23525)">
        <text
           xml:space="preserve"
           transform="matrix(1,0,0,-1,88.008,338.21)"
           style="font-variant:normal;font-weight:bold;font-size:3.36px;font-family:Calibri;-inkscape-font-specification:Calibri-Bold;writing-mode:lr-tb;fill:#ff0000;fill-opacity:1;fill-rule:nonzero;stroke:none"
           id="text23529"><tspan
             x="0 1.6799999 3.2356801"
             y="0"
             sodipodi:role="line"
             id="tspan23527">4x8</tspan></text>
      </g>
    </g>
  </g>
</svg>
