<?xml version="1.0" encoding="UTF-8" standalone="no"?>
<!-- Created with Inkscape (http://www.inkscape.org/) -->

<svg
   width="14.650162mm"
   height="14.788481mm"
   viewBox="0 0 14.650162 14.788481"
   version="1.1"
   id="svg32262"
   inkscape:version="1.2.2 (732a01da63, 2022-12-09)"
   sodipodi:docname="7.svg"
   xmlns:inkscape="http://www.inkscape.org/namespaces/inkscape"
   xmlns:sodipodi="http://sodipodi.sourceforge.net/DTD/sodipodi-0.dtd"
   xmlns="http://www.w3.org/2000/svg"
   xmlns:svg="http://www.w3.org/2000/svg">
  <sodipodi:namedview
     id="namedview32264"
     pagecolor="#ffffff"
     bordercolor="#000000"
     borderopacity="0.25"
     inkscape:showpageshadow="2"
     inkscape:pageopacity="0.0"
     inkscape:pagecheckerboard="0"
     inkscape:deskcolor="#d1d1d1"
     inkscape:document-units="mm"
     showgrid="false"
     inkscape:zoom="0.76880612"
     inkscape:cx="-49.427286"
     inkscape:cy="-15.608617"
     inkscape:window-width="1920"
     inkscape:window-height="1017"
     inkscape:window-x="-8"
     inkscape:window-y="-8"
     inkscape:window-maximized="1"
     inkscape:current-layer="layer1" />
  <defs
     id="defs32259">
    <clipPath
       clipPathUnits="userSpaceOnUse"
       id="clipPath23745">
      <path
         d="M 9.12e-6,0 H 612.00001 V 792 H 9.12e-6 Z"
         clip-rule="evenodd"
         id="path23743" />
    </clipPath>
    <clipPath
       clipPathUnits="userSpaceOnUse"
       id="clipPath23761">
      <path
         d="M 9.12e-6,0 H 612.00001 V 792 H 9.12e-6 Z"
         clip-rule="evenodd"
         id="path23759" />
    </clipPath>
  </defs>
  <g
     inkscape:label="Layer 1"
     inkscape:groupmode="layer"
     id="layer1"
     transform="translate(-117.94491,-152.29058)">
    <g
       id="g23715"
       transform="matrix(0.35277777,0,0,-0.35277777,94.480957,257.95109)">
      <path
         d="m 69.707,297.73 29.506,-0.09"
         style="fill:none;stroke:#ff0000;stroke-width:0.72;stroke-linecap:round;stroke-linejoin:round;stroke-miterlimit:2;stroke-dasharray:2.16, 2.16;stroke-dashoffset:0;stroke-opacity:1"
         id="path23717" />
    </g>
    <path
       d="m 119.07204,152.91856 c -0.001,0.27517 -0.22543,0.49742 -0.50165,0.49742 -0.27623,0 -0.49918,-0.22578 -0.49848,-0.50094 10e-4,-0.27517 0.22543,-0.50095 0.50165,-0.49742 0.27623,0 0.49918,0.22578 0.49848,0.50094 z"
       style="fill:#000000;fill-opacity:1;fill-rule:evenodd;stroke:none;stroke-width:0.352778"
       id="path23719" />
    <path
       d="m 119.07204,152.91856 c -0.001,0.27517 -0.22543,0.49742 -0.50165,0.49742 -0.27623,0 -0.49918,-0.22578 -0.49848,-0.50094 10e-4,-0.27517 0.22543,-0.50095 0.50165,-0.49742 0.27623,0 0.49918,0.22578 0.49848,0.50094 z m 2.40876,12.03325 v 2.00025 m 8.0003,-14.00175 v 12.99987 m 0,0 h -8.0003"
       style="fill:none;stroke:#000000;stroke-width:0.254;stroke-linecap:round;stroke-linejoin:round;stroke-miterlimit:2;stroke-dasharray:none;stroke-opacity:1"
       id="path23721" />
    <g
       id="g23723"
       transform="matrix(0.35277777,0,0,-0.35277777,94.480957,257.95109)">
      <path
         d="m 69.707,297.73 29.506,-0.09"
         style="fill:none;stroke:#ff0000;stroke-width:0.72;stroke-linecap:round;stroke-linejoin:round;stroke-miterlimit:2;stroke-dasharray:2.16, 2.16;stroke-dashoffset:0;stroke-opacity:1"
         id="path23725" />
    </g>
    <path
       d="m 119.07204,152.91856 c -0.001,0.27517 -0.22543,0.49742 -0.50165,0.49742 -0.27623,0 -0.49918,-0.22578 -0.49848,-0.50094 10e-4,-0.27517 0.22543,-0.50095 0.50165,-0.49742 0.27623,0 0.49918,0.22578 0.49848,0.50094 z"
       style="fill:#000000;fill-opacity:1;fill-rule:evenodd;stroke:none;stroke-width:0.352778"
       id="path23727" />
    <path
       d="m 119.07204,152.91856 c -0.001,0.27517 -0.22543,0.49742 -0.50165,0.49742 -0.27623,0 -0.49918,-0.22578 -0.49848,-0.50094 10e-4,-0.27517 0.22543,-0.50095 0.50165,-0.49742 0.27623,0 0.49918,0.22578 0.49848,0.50094 z m 2.40876,12.03325 v 2.00025 m 8.0003,-14.00175 v 12.99987 m 0,0 h -8.0003"
       style="fill:none;stroke:#000000;stroke-width:0.254;stroke-linecap:round;stroke-linejoin:round;stroke-miterlimit:2;stroke-dasharray:none;stroke-opacity:1"
       id="path23729" />
    <path
       d="m 132.03062,154.66834 v -1.00189 h -4.49968 v 2.25073 l 4.49968,-2.25073 z m 0,1.24884 v -0.99837 h -2.49978 v 1.24884 l 2.49978,-1.24884 z"
       style="fill:#ff0000;fill-opacity:1;fill-rule:evenodd;stroke:none;stroke-width:0.352778"
       id="path23731" />
    <path
       d="m 132.03062,154.66834 v -1.00189 h -4.49968 v 2.25073 l 4.49968,-2.25073 m 0,2.25073 v -0.99837 h -2.49978 v 1.24884 l 2.49978,-1.24884 m 0.50095,-1.25236 v 2.25073"
       style="fill:none;stroke:#000000;stroke-width:0.127;stroke-linecap:round;stroke-linejoin:round;stroke-miterlimit:2;stroke-dasharray:none;stroke-opacity:1"
       id="path23733" />
    <path
       d="m 126.98096,158.52773 0.62512,0.99836 0.49989,-0.81139 z"
       style="fill:#000000;fill-opacity:1;fill-rule:evenodd;stroke:none;stroke-width:0.352778"
       id="path23735" />
    <path
       d="m 129.4811,159.52609 c -0.91864,-0.0564 -1.79494,-0.40922 -2.50014,-0.99836 m 0,0 0.62512,0.99836 0.49989,-0.81139 z"
       style="fill:none;stroke:#000000;stroke-width:0.127;stroke-linecap:butt;stroke-linejoin:miter;stroke-miterlimit:2;stroke-dasharray:none;stroke-opacity:1"
       id="path23737" />
    <g
       id="g23739"
       transform="matrix(0.35277777,0,0,-0.35277777,94.480957,257.95109)">
      <g
         id="g23741"
         clip-path="url(#clipPath23745)">
        <text
           xml:space="preserve"
           transform="matrix(1,0,0,-1,88.464,273.17)"
           style="font-variant:normal;font-weight:bold;font-size:5.04px;font-family:Calibri;-inkscape-font-specification:Calibri-Bold;writing-mode:lr-tb;fill:#ff0000;fill-opacity:1;fill-rule:nonzero;stroke:none"
           id="text23749"><tspan
             x="0 2.51998 4.7980399"
             y="0"
             sodipodi:role="line"
             id="tspan23747">2x4</tspan></text>
      </g>
    </g>
    <path
       d="m 126.98096,158.52773 0.62512,0.99836 0.49989,-0.81139 z"
       style="fill:#000000;fill-opacity:1;fill-rule:evenodd;stroke:none;stroke-width:0.352778"
       id="path23751" />
    <path
       d="m 129.4811,159.52609 c -0.91864,-0.0564 -1.79494,-0.40922 -2.50014,-0.99836 m 0,0 0.62512,0.99836 0.49989,-0.81139 z"
       style="fill:none;stroke:#000000;stroke-width:0.127;stroke-linecap:butt;stroke-linejoin:miter;stroke-miterlimit:2;stroke-dasharray:none;stroke-opacity:1"
       id="path23753" />
    <g
       id="g23755"
       transform="matrix(0.35277777,0,0,-0.35277777,94.480957,257.95109)">
      <g
         id="g23757"
         clip-path="url(#clipPath23761)">
        <text
           xml:space="preserve"
           transform="matrix(1,0,0,-1,88.464,273.17)"
           style="font-variant:normal;font-weight:bold;font-size:5.04px;font-family:Calibri;-inkscape-font-specification:Calibri-Bold;writing-mode:lr-tb;fill:#ff0000;fill-opacity:1;fill-rule:nonzero;stroke:none"
           id="text23765"><tspan
             x="0 2.51998 4.7980399"
             y="0"
             sodipodi:role="line"
             id="tspan23763">2x4</tspan></text>
      </g>
    </g>
  </g>
</svg>
