<?xml version="1.0" standalone="no"?>
<!DOCTYPE svg PUBLIC "-//W3C//DTD SVG 1.2//EN" "http://www.w3.org/Graphics/SVG/1.2/DTD/svg12.dtd">
<svg xmlns="http://www.w3.org/2000/svg" version="1.2" baseProfile="tiny" id="selectedFigureSvg" width="600px" height="600px" viewBox="-253.83 -30.16 273.25 146.6"><g id="sequence"><g id="figure-2"><path d="M 0,0 m 3,-6 a7,7 0 1 1 -6,0" style="stroke: black; stroke-width: 1.5px; fill: none; vector-effect: non-scaling-stroke;"/><text style="font-family: Verdana, Helvetica, Sans; font-size: 16px; font-weight: bold; fill: black;" text-anchor="middle" x="0" y="-8" class="figNr">1</text><path d="M 0,0 m -4,0 a4,4 0 1 1 0,0.01" style="stroke: black; stroke-width: 1px; fill: black;"/><path d="M -4,0 l -160,0" style="stroke-dasharray: 5, 3; stroke: red; stroke-width: 5px; fill: none; vector-effect: non-scaling-stroke;" class="line" id="figure-2-roll0-gap0"/><path d="M -164,0 m 0,-16.75 l -8,0 " style="stroke: black; stroke-width: 5px; fill: none; vector-effect: non-scaling-stroke;"/><path d="M -164,0 m 0,-16 l -9.6,24 l 19.2,0 z" style="stroke: black; stroke-width: 1.5px; fill: red;"/><path d="M -170,0 l -0.2,0" style="stroke-dasharray: 5, 3; stroke: red; stroke-width: 5px; fill: none; vector-effect: non-scaling-stroke;" class="line" id="figure-2-roll0-gap1"/><path d="M -170.2,0 a40,40 0 1 0 28.28,68.28" style="stroke: black; stroke-width: 5px; fill: none; vector-effect: non-scaling-stroke;"/><path d="M -141.92,68.28 l 42.43,-42.43" style="stroke: black; stroke-width: 5px; fill: none; vector-effect: non-scaling-stroke;" class="line" id="figure-2-roll1-gap0"/><path d="M -99.49,25.85 a40,40 0 1 1 28.28,68.28" style="stroke-dasharray: 5, 3; stroke: red; stroke-width: 5px; fill: none; vector-effect: non-scaling-stroke;"/><path d="M -71.21,94.13 l -0.2,0" style="stroke-dasharray: 5, 3; stroke: red; stroke-width: 5px; fill: none; vector-effect: non-scaling-stroke;" class="line" id="figure-2-roll2-gap0"/><path d="M -71.41,94.13 m 7.53,-15.64 l -8.31,3.64 l 6.93,4 z" style="stroke: black; stroke-width: 1px; fill: black;"/><path d="M -71.41,94.13 m 7.53,-15.64 a 20,20 0 0 0 -7.53,15.64 " style="stroke: black; stroke-width: 5px; fill: none; vector-effect: non-scaling-stroke;"/><text style="font-family: Arial, Sans; font-size: 20px; font-weight: bold; fill: red;" text-anchor="middle" x="-71.41" y="71.13">2x4</text><path d="M -71.41,94.13 l -10,0" style="stroke: black; stroke-width: 5px; fill: none; vector-effect: non-scaling-stroke;" class="line" id="figure-2-roll2-gap0"/><path d="M -81.41,94.13 m 7.53,15.64 l -8.31,-3.64 l 6.93,-4 z" style="stroke: black; stroke-width: 1px; fill: black;"/><path d="M -81.41,94.13 m 7.53,15.64 a 20,20 0 0 1 -7.53,-15.64 " style="stroke: black; stroke-width: 5px; fill: none; vector-effect: non-scaling-stroke;"/><path d="M -81.41,94.13 l -160,0" style="stroke-dasharray: 5, 3; stroke: red; stroke-width: 5px; fill: none; vector-effect: non-scaling-stroke;" class="line" id="figure-2-exit"/><path d="M -241.41,94.13 l 0,-10 l 0,20" style="stroke: black; stroke-width: 5px; fill: none; vector-effect: non-scaling-stroke;"/></g></g></svg>