<?xml version="1.0" encoding="UTF-8" standalone="no"?>
<!-- Created with Inkscape (http://www.inkscape.org/) -->

<svg
   width="7.6290317mm"
   height="18.540325mm"
   viewBox="0 0 7.629032 18.540322"
   version="1.1"
   id="svg15577"
   inkscape:version="1.2.2 (732a01da63, 2022-12-09)"
   sodipodi:docname="1.svg"
   xml:space="preserve"
   xmlns:inkscape="http://www.inkscape.org/namespaces/inkscape"
   xmlns:sodipodi="http://sodipodi.sourceforge.net/DTD/sodipodi-0.dtd"
   xmlns="http://www.w3.org/2000/svg"
   xmlns:svg="http://www.w3.org/2000/svg"><sodipodi:namedview
     id="namedview15579"
     pagecolor="#ffffff"
     bordercolor="#000000"
     borderopacity="0.25"
     inkscape:showpageshadow="2"
     inkscape:pageopacity="0.0"
     inkscape:pagecheckerboard="true"
     inkscape:deskcolor="#d1d1d1"
     inkscape:document-units="mm"
     showgrid="false"
     showborder="false"
     inkscape:zoom="2.9825758"
     inkscape:cx="207.20345"
     inkscape:cy="85.831852"
     inkscape:window-width="1920"
     inkscape:window-height="1017"
     inkscape:window-x="1912"
     inkscape:window-y="-8"
     inkscape:window-maximized="1"
     inkscape:current-layer="layer1" /><defs
     id="defs15574" /><g
     inkscape:label="Layer 1"
     inkscape:groupmode="layer"
     id="layer1"
     transform="translate(-32.503956,-73.790833)"><g
       id="g15014"
       transform="matrix(0.26458333,0,0,0.26458333,49.253236,55.298379)" /><g
       id="g13720"
       transform="matrix(0.26458333,0,0,0.26458333,18.006939,-99.253542)" /><g
       id="g18168"
       transform="matrix(0.26458333,0,0,0.26458333,27.213146,49.421226)" /><g
       id="g27486"
       transform="matrix(0.26458333,0,0,0.26458333,34.770936,81.505493)"><path
         d="M 0,0 H 2.88 L 3.2,-0.16 3.36,-0.48 3.2,-0.8 2.88,-0.96 H 0 l -0.32,0.16 -0.16,0.32 0.16,0.32 z m 5.76,0 h 2.08 l 0.32,-0.16 0.16,-0.32 v -0.8 L 8.16,-1.6 7.84,-1.76 7.52,-1.6 7.36,-1.28 v 0.8 L 7.84,-0.96 H 5.76 L 5.44,-0.8 5.28,-0.48 5.44,-0.16 Z M 8.32,-4.16 V -7.04 L 8.16,-7.36 7.84,-7.52 7.52,-7.36 7.36,-7.04 v 2.88 l 0.16,0.48 h 0.32 0.32 z m 0,-5.76 v -2.88 l -0.16,-0.32 -0.32,-0.16 -0.32,0.16 -0.16,0.32 v 2.88 l 0.16,0.48 h 0.32 0.32 z m 0,-5.76 v -2.879999 l -0.16,-0.32 -0.32,-0.160002 -0.32,0.160002 -0.16,0.32 V -15.68 l 0.16,0.48 h 0.32 0.32 z m 0,-5.760001 V -24.16 L 8.16,-24.48 7.84,-24.639999 7.52,-24.48 7.36,-24.16 v 2.719999 l 0.16,0.480002 h 0.32 0.32 z m -0.48,54.4 H 4.96 l -0.32,0.16 -0.16,0.32 0.16,0.479999 h 0.32 2.88 0.32 l 0.16,-0.479999 -0.16,-0.32 z m -5.76,0 H 0 l -0.32,0.16 -0.16,0.32 0.16,0.479999 H 0 2.08 2.4 l 0.16,-0.479999 -0.16,-0.32 z"
         style="fill:#ff0000;fill-opacity:1;fill-rule:nonzero;stroke:none"
         id="path27488" /></g><g
       id="g27490"
       transform="matrix(0.26458333,0,0,0.26458333,34.770936,81.378493)"><path
         d="m 0,0 c 0,1.12 -0.96,1.92 -1.92,1.92 -1.12,0 -1.92,-0.8 -1.92,-1.92 0,-0.96 0.8,-1.92 1.92,-1.92 C -0.96,-1.92 0,-0.96 0,0 Z"
         style="fill:#000000;fill-opacity:1;fill-rule:evenodd;stroke:none"
         id="path27492" /></g><g
       id="g27494"
       transform="matrix(0.26458333,0,0,0.26458333,34.770936,81.378493)"><path
         d="m 0,0 c 0,1.12 -0.96,1.92 -1.92,1.92 -1.12,0 -1.92,-0.8 -1.92,-1.92 0,-0.96 0.8,-1.92 1.92,-1.92 C -0.96,-1.92 0,-0.96 0,0 Z"
         style="fill:none;stroke:#000000;stroke-width:0.96;stroke-linecap:round;stroke-linejoin:round;stroke-miterlimit:10;stroke-dasharray:none;stroke-opacity:1"
         id="path27496" /></g><g
       id="g27498"
       transform="matrix(0.26458333,0,0,0.26458333,6.6616026,16.05816)"><path
         d="M 106.24,284.64001 V 277.12"
         style="fill:none;stroke:#000000;stroke-width:0.96;stroke-linecap:round;stroke-linejoin:round;stroke-miterlimit:10;stroke-dasharray:none;stroke-opacity:1"
         id="path27500" /></g><g
       id="g27502"
       transform="matrix(0.26458333,0,0,0.26458333,6.6616026,16.05816)"><path
         d="m 114.08,246.88 v 33.91999"
         style="fill:none;stroke:#000000;stroke-width:0.96;stroke-linecap:round;stroke-linejoin:round;stroke-miterlimit:10;stroke-dasharray:none;stroke-opacity:1"
         id="path27504" /></g><g
       id="g27506"
       transform="matrix(0.26458333,0,0,0.26458333,6.6616026,16.05816)"><path
         d="m 114.08,223.2 -1.6,3.19999"
         style="fill:none;stroke:#000000;stroke-width:0.96;stroke-linecap:round;stroke-linejoin:round;stroke-miterlimit:10;stroke-dasharray:none;stroke-opacity:1"
         id="path27508" /></g><g
       id="g27510"
       transform="matrix(0.26458333,0,0,0.26458333,6.6616026,16.05816)"><path
         d="m 118.08,236 -1.12,-1.60001 -0.64,1.28 z"
         style="fill:#000000;fill-opacity:1;fill-rule:evenodd;stroke:none"
         id="path27512" /></g><g
       id="g27514"
       transform="matrix(0.26458333,0,0,0.26458333,6.6616026,16.05816)"><path
         d="m 110.88,235.52 c 0.96,-0.64 2.08,-1.12001 3.2,-1.12001 1.44,0.16001 2.88,0.64 4,1.60001"
         style="fill:none;stroke:#000000;stroke-width:0.48;stroke-linecap:butt;stroke-linejoin:miter;stroke-miterlimit:2;stroke-dasharray:none;stroke-opacity:1"
         id="path27516" /></g><g
       id="g27518"
       transform="matrix(0.26458333,0,0,0.26458333,6.6616026,16.05816)"><path
         d="m 118.08,236 -1.12,-1.60001 -0.64,1.28 z"
         style="fill:none;stroke:#000000;stroke-width:0.48;stroke-linecap:butt;stroke-linejoin:miter;stroke-miterlimit:2;stroke-dasharray:none;stroke-opacity:1"
         id="path27520" /></g><g
       id="g27522"
       transform="matrix(0.26458333,0,0,0.26458333,38.157602,79.261826)"><path
         d="m 0,0 c 0,0 0,0 -0.16,0 h -0.16 v -1.6 c 0,-0.16 0,-0.16 0,-0.16 0,0 0,0 0,0 -0.16,0 -0.16,0 -0.16,0 0,0 -0.16,0 -0.16,0 -0.16,0 -0.16,0 -0.16,0 0,0 -0.16,0 -0.16,0 0,0 0,0 0,0 0,0 0,0 -0.16,0 l -0.8,1.6 c 0,0 0,0 0,0 0,0.16 0,0.16 0,0.16 0,0 0,0 0,0 0,0 0,0.16 0,0.16 0,0 0,0 0,0 0,0.16 0,0.16 0,0.16 0,0 0,0 0,0 0.16,0 0.16,0 0.16,0 H -0.8 V 0.8 c 0,0 0,0 0,0 0,0 0,0 0,0 0,0 0.16,0 0.16,0 0,0 0,0 0,0 0.16,0 0.16,0 0.16,0 0,0 0.16,0 0.16,0 0,0 0,0 0,0 0,0 0,0 0,0 V 0.32 h 0.16 C 0,0.32 0,0.32 0,0.32 0,0.32 0,0.16 0,0.16 0,0.16 0,0 0,0 Z m -0.8,0 h -0.64 l 0.64,-1.44 v 0 z"
         style="fill:#ff0000;fill-opacity:1;fill-rule:nonzero;stroke:none"
         id="path27524" /></g></g></svg>
