<?xml version="1.0" standalone="no"?>
<!DOCTYPE svg PUBLIC "-//W3C//DTD SVG 1.2//EN" "http://www.w3.org/Graphics/SVG/1.2/DTD/svg12.dtd">
<svg xmlns="http://www.w3.org/2000/svg" version="1.2" baseProfile="tiny" id="selectedFigureSvg" width="100px" height="100px" viewBox="-94.71 -85.01 187.22 110.22"><g id="sequence"><g id="figure-2"><path d="M 0,0 m -4,0 a4,4 0 1 1 0,0.01" style="stroke: black; stroke-width: 1px; fill: black;"/><path d="M 4,0 l 40,0" style="stroke: black; stroke-width: 3px; fill: none;" class="line" id="figure-2-roll0-gap0"/><path d="M 44,0 a40,40 0 0 0 40,-40" style="stroke: black; stroke-width: 3px; fill: none;"/><path d="M 84,-40 a40,40 0 0 0 -11.72,-28.28" style="stroke: black; stroke-width: 3px; fill: none;"/><path d="M 72.28,-68.28 a40,40 0 0 0 -28.28,-11.72" style="stroke: black; stroke-width: 3px; fill: none;"/><path d="M 44,-80 a40,40 0 0 0 -28.28,11.72" style="stroke: black; stroke-width: 3px; fill: none;"/><path d="M 15.72,-68.28 a40,40 0 0 0 -11.72,28.28" style="stroke: black; stroke-width: 3px; fill: none;"/><path d="M 4,-40 l 0,0.2" style="stroke: black; stroke-width: 3px; fill: none;" class="line" id="figure-2-roll1-gap0"/><path d="M 4,-39.8 a40,40 0 0 1 -40,40" style="stroke-dasharray: 10, 8; stroke: red; stroke-width: 3px; fill: none; "/><path d="M -36,0.2 l -0.2,0" style="stroke-dasharray: 10, 8; stroke: red; stroke-width: 3px; fill: none; " class="line" id="figure-2-roll2-gap0"/><path d="M -36.2,0.2 m 7.53,15.64 l -8.31,-3.64 l 6.93,-4 z" style="stroke: black; stroke-width: 2px; fill: black;"/><path d="M -36.2,0.2 m 7.53,15.64 a 20,20 0 0 1 -7.53,-15.64 " style="stroke: black; stroke-width: 3px; fill: none;"/><path d="M -36.2,0.2 l -40,0" style="stroke: black; stroke-width: 3px; fill: none;" class="line" id="figure-2-exit"/><path d="M -76.2,0.2 l 0,10 l 0,-20" style="stroke: black; stroke-width: 3px; fill: none;"/><path d="M -76.2,0.2 m -10,20 l 0,-40" style="stroke: black; stroke-width: 3px; fill: none;"/></g></g></svg>