<?xml version="1.0" standalone="no"?>
<!DOCTYPE svg PUBLIC "-//W3C//DTD SVG 1.2//EN" "http://www.w3.org/Graphics/SVG/1.2/DTD/svg12.dtd">
<svg xmlns="http://www.w3.org/2000/svg" version="1.2" baseProfile="tiny" id="selectedFigureSvg" width="100px" height="100px" viewBox="-123.17 -28.49 140.95 109.05"><g id="sequence"><g id="figure-2"><path d="M 0,0 m -4,0 a4,4 0 1 1 0,0.01" style="stroke: black; stroke-width: 1px; fill: black;"/><path d="M -4,0 l -60,0" style="stroke: black; stroke-width: 3px; fill: none;" class="line" id="figure-2-entry"/><path d="M -64,0 a 40,28 0 0 0 -39.31,22.84" style="stroke: black; stroke-width: 3px; fill: none;"/><path d="M -103.31,22.84 m 25.58,-4.84 l -9.01,8.7 l -2.07,-7.73 z" style="stroke: black; stroke-width: 2px; fill: black;"/><path d="M -103.31,22.84 m 25.58,-4.84 a 30,30 0 0 1 -39.03,-2.92 " style="stroke: black; stroke-width: 3px; fill: none;"/><path d="M -103.31,22.84 a 40,28 0 0 0 13.86,26.76" style="stroke: black; stroke-width: 3px; fill: none;"/><path d="M -89.45,49.6 a 40,28 0 1 0 25.45,-49.6" style="stroke-dasharray: 10, 5; stroke: black; stroke-width: 1px; fill: none;"/><path d="M -89.45,49.6 l 36.37,21" style="stroke: black; stroke-width: 3px; fill: none;" class="line" id="figure-2-exit"/><path d="M -53.08,70.6 l 10,0 l -20,0" style="stroke: black; stroke-width: 3px; fill: none;"/><path d="M -53.08,70.6 m 28.66,5 l -40,0" style="stroke: black; stroke-width: 3px; fill: none;"/></g></g></svg>