<?xml version="1.0" standalone="no"?>
<!DOCTYPE svg PUBLIC "-//W3C//DTD SVG 1.2//EN" "http://www.w3.org/Graphics/SVG/1.2/DTD/svg12.dtd">
<svg xmlns="http://www.w3.org/2000/svg" version="1.2" baseProfile="tiny" id="selectedFigureSvg" width="100px" height="100px" viewBox="-18.41 -31.4 251.09 146.23"><g id="sequence"><g id="figure-2"><path d="M 0,0 m 3,-6 a7,7 0 1 1 -6,0" style="stroke: black; stroke-width: 0px; fill: none;"/><path d="M 0,0 m -4,0 a4,4 0 1 1 0,0.01" style="stroke: black; stroke-width: 1px; fill: black;"/><path d="M 4,0 l 144,0" style="stroke-dasharray: 10, 8; stroke: red; stroke-width: 3px; fill: none; " class="line" id="figure-2-roll0-gap0"/><path d="M 148,0 m 0,-24.75 l 12,0 " style="stroke: black; stroke-width: 3px; fill: none;"/><path d="M 148,0 m 0,-24 l 14.4,36 l -28.8,0 z" style="stroke: black; stroke-width: 1.5px; fill: red;"/><path d="M 157,0 l 0.18,0" style="stroke-dasharray: 10, 8; stroke: red; stroke-width: 3px; fill: none; " class="line" id="figure-2-roll0-gap1"/><path d="M 157.18,0 a36,36 0 1 1 -25.46,61.46" style="stroke: black; stroke-width: 3px; fill: none;"/><path d="M 131.72,61.46 l -38.18,-38.18" style="stroke: black; stroke-width: 3px; fill: none;" class="line" id="figure-2-roll1-gap0"/><path d="M 93.54,23.28 a36,36 0 1 0 -25.46,61.46" style="stroke-dasharray: 10, 8; stroke: red; stroke-width: 3px; fill: none; "/><path d="M 68.08,84.74 l 0.18,0" style="stroke-dasharray: 10, 8; stroke: red; stroke-width: 3px; fill: none; " class="line" id="figure-2-roll2-gap0"/><path d="M 68.26,84.74 m -11.3,-23.45 l 10.74,6.45 l -6.93,4 z" style="stroke: black; stroke-width: 2px; fill: black;"/><path d="M 68.26,84.74 m -11.3,-23.45 a 30,30 0 0 1 11.3,23.45 " style="stroke: black; stroke-width: 3px; fill: none;"/><text style="font-family: Arial, Sans; font-size: 20px; font-weight: bold; fill: red;" text-anchor="middle" x="68.26" y="51.74">2x4</text><path d="M 68.26,84.74 l 9,0" style="stroke: black; stroke-width: 3px; fill: none;" class="line" id="figure-2-roll2-gap0"/><path d="M 77.26,84.74 m -11.3,23.45 l 10.74,-6.45 l -6.93,-4 z" style="stroke: black; stroke-width: 2px; fill: black;"/><path d="M 77.26,84.74 m -11.3,23.45 a 30,30 0 0 0 11.3,-23.45 " style="stroke: black; stroke-width: 3px; fill: none;"/><path d="M 77.26,84.74 l 144,0" style="stroke-dasharray: 10, 8; stroke: red; stroke-width: 3px; fill: none; " class="line" id="figure-2-exit"/><path d="M 221.26,84.74 l 0,10 l 0,-20" style="stroke: black; stroke-width: 3px; fill: none;"/></g></g></svg>