<?xml version="1.0" standalone="no"?>
<!DOCTYPE svg PUBLIC "-//W3C//DTD SVG 1.2//EN" "http://www.w3.org/Graphics/SVG/1.2/DTD/svg12.dtd">
<svg xmlns="http://www.w3.org/2000/svg" version="1.2" baseProfile="tiny" id="selectedFigureSvg" width="600px" height="600px" viewBox="-81.39 -176 91.58 352"><g id="sequence"><g id="figure-2"><text style="font-family: Verdana, Helvetica, Sans; font-size: 16px; font-weight: bold; fill: black;" text-anchor="middle" x="0" y="-8" class="figNr">2</text><path d="M 0,0 m -4,0 a4,4 0 1 1 0,0.01" style="stroke: black; stroke-width: 1px; fill: black;"/><path d="M -4,0 l -40,0" style="stroke-dasharray: 5, 3; stroke: red; stroke-width: 5px; fill: none; vector-effect: non-scaling-stroke;" class="line" id="figure-2-entry"/><path d="M -44,0 l 0,-70" style="stroke-dasharray: 5, 3; stroke: red; stroke-width: 5px; fill: none; vector-effect: non-scaling-stroke;" class="line" id="figure-2-roll0-gap0"/><path d="M -44,-70 m -15.64,7.53 l 3.64,-8.31 l 4,6.93 z" style="stroke: black; stroke-width: 1px; fill: black;"/><path d="M -44,-70 m -15.64,7.53 a 20,20 0 0 1 25.64,-4.85 " style="stroke: black; stroke-width: 5px; fill: none; vector-effect: non-scaling-stroke;"/><text style="font-family: Arial, Sans; font-size: 20px; font-weight: bold; fill: red;" text-anchor="middle" x="-69.71" y="-63">4</text><path d="M -44,-70 l 0,-90" style="stroke-dasharray: 5, 3; stroke: red; stroke-width: 5px; fill: none; vector-effect: non-scaling-stroke;" class="line" id="figure-2-roll0-gap1"/><path d="M -44,-160 l 10,10" style="stroke: black; stroke-width: 5px; fill: none; vector-effect: non-scaling-stroke;" class="hammerTip"/><path d="M -44,0 l 0,150" style="stroke: black; stroke-width: 5px; fill: none; vector-effect: non-scaling-stroke;" class="line" id="figure-2-roll1-gap0"/><path d="M -44,150 l 40,0" style="stroke-dasharray: 5, 3; stroke: red; stroke-width: 5px; fill: none; vector-effect: non-scaling-stroke;" class="line" id="figure-2-exit"/><path d="M -4,150 l 0,10 l 0,-20" style="stroke: black; stroke-width: 5px; fill: none; vector-effect: non-scaling-stroke;"/></g></g></svg>