<?xml version="1.0" standalone="no"?>
<!DOCTYPE svg PUBLIC "-//W3C//DTD SVG 1.2//EN" "http://www.w3.org/Graphics/SVG/1.2/DTD/svg12.dtd">
<svg xmlns="http://www.w3.org/2000/svg" version="1.2" baseProfile="tiny" id="selectedFigureSvg" width="100px" height="100px" viewBox="-9.31 -88.25 79.63 181.5"><g id="sequence"><g id="figure-2"><path d="M 0,0 m -4,0 a4,4 0 1 1 0,0.01" style="stroke: black; stroke-width: 1px; fill: black;"/><path d="M 4,0 l 20,0" style="stroke-dasharray: 10, 8; stroke: red; stroke-width: 3px; fill: none; " class="line" id="figure-2-entry"/><path d="M 24,0 l 0,-35" style="stroke-dasharray: 10, 8; stroke: red; stroke-width: 3px; fill: none; " class="line" id="figure-2-roll0-gap0"/><path d="M 24,-35 m 23.45,11.3 l -6.45,-10.74 l -4,6.93 z" style="stroke: black; stroke-width: 2px; fill: black;"/><path d="M 24,-35 m 23.45,11.3 a 30,30 0 0 0 -38.45,-7.28 " style="stroke: black; stroke-width: 3px; fill: none;"/><text style="font-family: Arial, Sans; font-size: 20px; font-weight: bold; fill: red;" text-anchor="middle" x="59.71" y="-28">4</text><path d="M 24,-35 l 0,-45" style="stroke-dasharray: 10, 8; stroke: red; stroke-width: 3px; fill: none; " class="line" id="figure-2-roll0-gap1"/><path d="M 24,-80 l 5,5" style="stroke: black; stroke-width: 3px; fill: none;" class="hammerTip"/><path d="M 24,0 l 0,75" style="stroke: black; stroke-width: 3px; fill: none;" class="line" id="figure-2-roll1-gap0"/><path d="M 24,75 l -20,0" style="stroke-dasharray: 10, 8; stroke: red; stroke-width: 3px; fill: none; " class="line" id="figure-2-exit"/><path d="M 4,75 l 0,-10 l 0,20" style="stroke: black; stroke-width: 3px; fill: none;"/></g></g></svg>