<?xml version="1.0" standalone="no"?>
<!DOCTYPE svg PUBLIC "-//W3C//DTD SVG 1.2//EN" "http://www.w3.org/Graphics/SVG/1.2/DTD/svg12.dtd">
<svg xmlns="http://www.w3.org/2000/svg" version="1.2" baseProfile="tiny" id="selectedFigureSvg" width="100px" height="100px" viewBox="-11.59 -53.65 129.78 187.01"><g id="sequence"><g id="figure-2"><path d="M 0,0 m -4,0 a4,4 0 1 1 0,0.01" style="stroke: black; stroke-width: 1px; fill: black;"/><path d="M 4,0 l 40,0" style="stroke: black; stroke-width: 3px; fill: none;" class="line" id="figure-2-entry"/><path d="M 44,0 l 42.43,42.43" style="stroke: black; stroke-width: 3px; fill: none;" class="line" id="figure-2-roll0-gap0"/><path d="M 86.43,42.43 m -16.38,5.73 l 8.45,3.31 l -2.07,-7.73 z" style="stroke: black; stroke-width: 1px; fill: black;"/><path d="M 86.43,42.43 m -16.38,5.73 a 20,20 0 0 0 16.38,-5.73 " style="stroke: black; stroke-width: 3px; fill: none;"/><path d="M 86.43,42.43 l 14.14,14.14" style="stroke-dasharray: 5, 3; stroke: red; stroke-width: 3px; fill: none;" class="line" id="figure-2-roll0-gap1"/><path d="M 100.57,56.57 a40,40 0 1 1 -68.28,28.28" style="stroke: black; stroke-width: 3px; fill: none;"/><path d="M 32.29,84.85 l 0,-60" style="stroke: black; stroke-width: 3px; fill: none;" class="line" id="figure-2-roll1-gap0"/><path d="M 32.29,24.85 m 15.64,7.53 l -3.64,-8.31 l -4,6.93 z" style="stroke: black; stroke-width: 1px; fill: black;"/><path d="M 32.29,24.85 m 15.64,7.53 a 20,20 0 0 0 -25.64,-4.85 " style="stroke: black; stroke-width: 3px; fill: none;"/><path d="M 32.29,24.85 l 0,-60" style="stroke: black; stroke-width: 3px; fill: none;" class="line" id="figure-2-roll1-gap1"/><path d="M 32.29,-35.15 l 40,0" style="stroke-dasharray: 5, 3; stroke: red; stroke-width: 3px; fill: none;" class="line" id="figure-2-exit"/><path d="M 72.29,-35.15 m 0,10 l 0,-20" style="stroke: black; stroke-width: 3px; fill: none;"/></g></g></svg>