<?xml version="1.0" encoding="UTF-8" standalone="no"?>
<!-- Created with Inkscape (http://www.inkscape.org/) -->

<svg
   width="14.104835mm"
   height="18.451622mm"
   viewBox="0 0 14.104835 18.451619"
   version="1.1"
   id="svg15577"
   inkscape:version="1.2.2 (732a01da63, 2022-12-09)"
   sodipodi:docname="3.svg"
   xml:space="preserve"
   xmlns:inkscape="http://www.inkscape.org/namespaces/inkscape"
   xmlns:sodipodi="http://sodipodi.sourceforge.net/DTD/sodipodi-0.dtd"
   xmlns="http://www.w3.org/2000/svg"
   xmlns:svg="http://www.w3.org/2000/svg"><sodipodi:namedview
     id="namedview15579"
     pagecolor="#ffffff"
     bordercolor="#000000"
     borderopacity="0.25"
     inkscape:showpageshadow="2"
     inkscape:pageopacity="0.0"
     inkscape:pagecheckerboard="true"
     inkscape:deskcolor="#d1d1d1"
     inkscape:document-units="mm"
     showgrid="false"
     showborder="false"
     inkscape:zoom="2.9825758"
     inkscape:cx="207.20345"
     inkscape:cy="60.685801"
     inkscape:window-width="1920"
     inkscape:window-height="1017"
     inkscape:window-x="1912"
     inkscape:window-y="-8"
     inkscape:window-maximized="1"
     inkscape:current-layer="layer1" /><defs
     id="defs15574" /><g
     inkscape:label="Layer 1"
     inkscape:groupmode="layer"
     id="layer1"
     transform="translate(-32.557213,-80.478767)"><g
       id="g15014"
       transform="matrix(0.26458333,0,0,0.26458333,49.253236,55.298379)" /><g
       id="g13720"
       transform="matrix(0.26458333,0,0,0.26458333,18.006939,-99.253542)" /><g
       id="g18168"
       transform="matrix(0.26458333,0,0,0.26458333,27.213146,49.421226)" /><g
       id="g27566"
       transform="matrix(0.26458333,0,0,0.26458333,9.2874395,-15.176486)"><path
         d="M 131.67999,404.16 H 128.8 l -0.32,0.16001 -0.15999,0.32 0.15999,0.47999 h 0.32 2.87999 H 132 l 0.16,-0.47999 -0.16,-0.32 z m -5.75999,0 h -2.88 l -0.32,0.16001 -0.16,0.32 0.16,0.47999 h 0.32 2.88 0.32 l 0.16,-0.47999 -0.16,-0.32 z m -5.76,0 h -2.88 l -0.32,0.16001 -0.16,0.32 0.16,0.47999 h 0.32 2.88 0.32 l 0.16,-0.47999 -0.16,-0.32 z m -5.76,0 h -2.88 l -0.32,0.16001 -0.16,0.32 0.16,0.47999 h 0.32 2.88 0.32 l 0.16,-0.47999 -0.16,-0.32 z m -5.76,0 h -2.88 l -0.32,0.16001 -0.16,0.32 0.16,0.47999 h 0.32 2.88 0.32 l 0.16,-0.47999 -0.16,-0.32 z m -4.48,0.48001 v -2.88 L 104,401.44 l -0.32,-0.16 -0.48,0.16 v 0.32001 2.88 0.47999 h 0.48 0.32 z m 0,-5.76001 V 396 l -0.16,-0.32001 -0.32,-0.16 -0.48,0.16 V 396 v 2.88 0.47999 h 0.48 0.32 z m 0,-5.76 v -2.88001 l -0.16,-0.31998 -0.32,-0.16 -0.48,0.16 v 0.31998 2.88001 0.48001 h 0.48 0.32 z m 0,-5.76001 v -2.87998 L 104,384.16 103.68,384 l -0.48,0.16 v 0.32001 2.87998 0.48001 h 0.48 0.32 z m 0,-5.75998 V 378.72 l -0.16,-0.32001 -0.32,-0.16 -0.48,0.16 v 0.32001 2.88001 0.47998 h 0.48 0.32 z m 0,-4.96 v -0.96002 l 0.16,-0.79999 0.16,-0.95999 v -0.32 l -0.32,-0.32001 -0.32,0.16 -0.32,0.16001 v 0.16 l -0.16,0.95999 -0.16,0.95999 v 0.96002 0.31998 l 0.32,0.16001 0.48,-0.16001 z m 1.6,-5.12002 0.32,-0.47998 0.64,-0.64002 0.64,-0.63998 0.32,-0.16 0.16,-0.32001 -0.16,-0.32001 -0.32,-0.31998 -0.32,0.15998 -0.32,0.32001 -0.8,0.64001 -0.48,0.63998 -0.48,0.48001 -0.16,0.47999 0.32,0.32 h 0.32 z m 4.32,-3.19998 0.32,-0.16001 0.8,-0.16 0.96,-0.16 h 0.48 l 0.48,-0.16001 v -0.47998 L 112.96,366.88 H 112.64 112 l -1.12,0.16001 -0.8,0.16 -0.32,0.15998 -0.32,0.32 V 368 l 0.16,0.32001 z m 5.28,-0.16001 h 0.32 l 0.8,0.32001 0.8,0.31998 0.64,0.48001 h 0.32 l 0.32,-0.16 v -0.32001 L 118.4,368.48001 117.6,368 l -0.8,-0.48001 -0.96,-0.31998 h -0.16 -0.32 l -0.32,0.31998 V 367.84 Z m 4.48,2.88001 0.48,0.63998 0.48,0.80002 0.32,0.79999 0.16,0.16 0.16,0.32001 h 0.48 l 0.16,-0.32001 v -0.32 -0.32001 L 121.6,372 l -0.48,-0.79999 -0.48,-0.80002 -0.32,-0.16 -0.32,0.16 -0.16,0.32001 z m 1.92,4.95999 0.16,0.64001 0.16,0.31998 0.32,0.16001 0.32,-0.16001 0.16,-0.31998 -0.16,-0.64001 -0.16,-0.32001 -0.32,-0.16 -0.32,0.16 z m 0.16,0.64001 v 2.87998 0.32001 l 0.48,0.16 0.32,-0.16 0.16,-0.32001 v -2.87998 l -0.16,-0.32 -0.32,-0.16001 -0.48,0.16001 z m 0,5.75998 v 2.88001 0.32001 l 0.48,0.16 0.32,-0.16 0.16,-0.32001 v -2.88001 l -0.16,-0.32 -0.32,-0.15998 -0.48,0.15998 z m 0,5.76001 v 2.88001 0.31998 l 0.48,0.16 0.32,-0.16 0.16,-0.31998 V 388.16 l -0.16,-0.32 -0.32,-0.16001 -0.48,0.16001 z m 0,5.76001 v 2.87998 0.32001 l 0.48,0.16 0.32,-0.16 0.16,-0.32001 v -2.87998 l -0.16,-0.32 -0.32,-0.16001 -0.48,0.16001 z m 0,5.75998 v 2.88001 0.32 l 0.48,0.16001 0.32,-0.16001 0.16,-0.32 v -2.88001 l -0.16,-0.32 -0.32,-0.15998 -0.48,0.15998 z m 0,5.76001 v 2.88001 0.32 l 0.48,0.15998 0.32,-0.15998 0.16,-0.32 V 405.44 l -0.16,-0.32 -0.32,-0.16001 -0.48,0.16001 z m 0,5.76001 v 2.87998 0.32 l 0.48,0.16001 0.32,-0.16001 0.16,-0.32 v -2.87998 l -0.16,-0.32001 -0.32,-0.16 -0.48,0.16 z"
         style="fill:#ff0000;fill-opacity:1;fill-rule:nonzero;stroke:none"
         id="path27568" /></g><g
       id="g27570"
       transform="matrix(0.26458333,0,0,0.26458333,44.12777,91.884515)"><path
         d="m 0,0 c 0,-0.96 0.8,-1.76 1.92,-1.76 0.96,0 1.92,0.8 1.92,1.76 0,1.12 -0.96,1.92 -1.92,1.92 C 0.8,1.92 0,1.12 0,0 Z"
         style="fill:#000000;fill-opacity:1;fill-rule:evenodd;stroke:none"
         id="path27572" /></g><g
       id="g27574"
       transform="matrix(0.26458333,0,0,0.26458333,44.12777,91.884515)"><path
         d="m 0,0 c 0,-0.96 0.8,-1.76 1.92,-1.76 0.96,0 1.92,0.8 1.92,1.76 0,1.12 -0.96,1.92 -1.92,1.92 C 0.8,1.92 0,1.12 0,0 Z"
         style="fill:none;stroke:#000000;stroke-width:0.96;stroke-linecap:round;stroke-linejoin:round;stroke-miterlimit:10;stroke-dasharray:none;stroke-opacity:1"
         id="path27576" /></g><g
       id="g27578"
       transform="matrix(0.26458333,0,0,0.26458333,9.2874395,-15.176486)"><path
         d="m 107.04,424.79999 h 7.52"
         style="fill:none;stroke:#000000;stroke-width:0.96;stroke-linecap:round;stroke-linejoin:round;stroke-miterlimit:10;stroke-dasharray:none;stroke-opacity:1"
         id="path27580" /></g><g
       id="g27582"
       transform="matrix(0.26458333,0,0,0.26458333,9.2874395,-15.176486)"><path
         d="m 122.24,414.07999 -11.52,10.72"
         style="fill:none;stroke:#000000;stroke-width:0.96;stroke-linecap:round;stroke-linejoin:round;stroke-miterlimit:10;stroke-dasharray:none;stroke-opacity:1"
         id="path27584" /></g><g
       id="g27586"
       transform="matrix(0.26458333,0,0,0.26458333,9.2874395,-15.176486)"><path
         d="m 129.44,387.35999 -1.76,2.88 L 126.24,388 Z"
         style="fill:#000000;fill-opacity:1;fill-rule:evenodd;stroke:none"
         id="path27588" /></g><g
       id="g27590"
       transform="matrix(0.26458333,0,0,0.26458333,9.2874395,-15.176486)"><path
         d="m 122.24,390.23999 c 2.72,-0.16 5.28,-1.11999 7.2,-2.88"
         style="fill:none;stroke:#000000;stroke-width:0.48;stroke-linecap:butt;stroke-linejoin:miter;stroke-miterlimit:2;stroke-dasharray:none;stroke-opacity:1"
         id="path27592" /></g><g
       id="g27594"
       transform="matrix(0.26458333,0,0,0.26458333,9.2874395,-15.176486)"><path
         d="m 129.44,387.35999 -1.76,2.88 L 126.24,388 Z"
         style="fill:none;stroke:#000000;stroke-width:0.48;stroke-linecap:butt;stroke-linejoin:miter;stroke-miterlimit:2;stroke-dasharray:none;stroke-opacity:1"
         id="path27596" /></g><g
       id="g27598"
       transform="matrix(0.26458333,0,0,0.26458333,43.238775,89.556179)"><path
         d="m 0,0 c 0,0 0,-0.16 0,-0.16 0,0 0,0 0,0 -0.16,0 -0.16,0 -0.16,0 H -1.6 l 0.48,-0.32 c 0.16,-0.32 0.32,-0.48 0.48,-0.48 0.16,-0.16 0.16,-0.32 0.32,-0.48 0,-0.16 0.16,-0.16 0.16,-0.32 0,-0.16 0,-0.16 0,-0.32 0,-0.16 0,-0.16 0,-0.32 -0.16,-0.16 -0.16,-0.16 -0.32,-0.32 0,0 -0.16,0 -0.32,-0.16 -0.16,0 -0.16,0 -0.48,0 0,0 -0.16,0 -0.32,0 0,0 -0.16,0.16 -0.16,0.16 -0.16,0 -0.16,0 -0.32,0.16 0,0 0,0 0,0 -0.16,0 -0.16,0 -0.16,0 0,0 0,0.16 0,0.16 0,0 0,0 0,0 0,0 0,0 0,0 0,0.16 0,0.16 0,0.16 0,0 0,0.16 0,0.16 0,0 0,0 0,0 0,0 0.16,0 0.16,0 0,0 0,0 0,0 0.16,-0.16 0.16,-0.16 0.16,-0.16 0.16,0 0.16,0 0.32,-0.16 0,0 0.16,0 0.32,0 0,0 0.16,0 0.16,0 0.16,0 0.16,0.16 0.16,0.16 0,0 0.16,0 0.16,0.16 0,0 0,0.16 0,0.16 0,0 0,0.16 0,0.16 0,0.16 0,0.16 -0.16,0.32 0,0 0,0.16 -0.16,0.16 0,0.16 -0.16,0.16 -0.32,0.32 l -0.64,0.64 c 0,0 0,0 0,0 -0.16,0.16 -0.16,0.16 -0.16,0.16 0,0 0,0 0,0.16 0,0 0,0 0,0 0,0.16 0,0.16 0,0.16 0,0 0,0.16 0,0.16 0,0 0.16,0 0.16,0 0,0 0,0 0,0 h 1.92 c 0,0 0.16,0 0.16,0 0,0 0,0 0,0 0,0 0,-0.16 0,-0.16 0,0 0,0 0,-0.16 0,0 0,0 0,0 z"
         style="fill:#ff0000;fill-opacity:1;fill-rule:nonzero;stroke:none"
         id="path27600" /></g><g
       id="g27602"
       transform="matrix(0.26458333,0,0,0.26458333,43.704439,89.302179)"><path
         d="m 0,0 0.64,-0.96 c 0,0 0,0 0,-0.16 0,0 0,0 0,0 0,0 0,0 -0.16,0 0,0 0,0 -0.16,0 0,0 -0.16,0 -0.16,0 0,0 0,0 -0.16,0 0,0 0,0 0,0 0,0 0,0 0,0 l -0.48,0.8 -0.32,-0.8 c 0,0 0,0 0,0 0,0 0,0 -0.16,0 0,0 0,0 0,0 0,0 -0.16,0 -0.16,0 -0.16,0 -0.16,0 -0.16,0 -0.16,0 -0.16,0 -0.16,0 0,0 0,0 0,0 0,0.16 0,0.16 0,0.16 L -0.8,0 -1.6,1.12 c 0,0 0,0 0,0.16 0,0 0,0 0.16,0 0,0 0,0 0,0 0,0 0.16,0 0.16,0 0.16,0 0.16,0 0.16,0 0.16,0 0.16,0 0.16,0 0,0 0,0 0,0 0,0 0,0 0,-0.16 L -0.48,0.48 0,1.12 c 0.16,0.16 0.16,0.16 0.16,0.16 0,0 0,0 0,0 0,0 0,0 0.16,0 0,0 0,0 0.16,0 0,0 0,0 0.16,0 0,0 0,0 0,0 0.16,0 0.16,0 0.16,0 0,-0.16 0,-0.16 -0.16,-0.16 z"
         style="fill:#ff0000;fill-opacity:1;fill-rule:nonzero;stroke:none"
         id="path27604" /></g><g
       id="g27606"
       transform="matrix(0.26458333,0,0,0.26458333,44.551106,89.344515)"><path
         d="m 0,0 c 0,0 0,0 0,0 h -0.32 v -1.92 c 0,0 0,-0.16 0,-0.16 0,0 0,0 -0.16,0 0,0 0,0 0,0 -0.16,0 -0.16,0 -0.32,0 0,0 -0.16,0 -0.16,0 -0.16,0 -0.16,0 -0.16,0 0,0 0,0 -0.16,0 0,0 0,0 0,0.16 l -0.96,1.76 c 0,0 -0.16,0 -0.16,0 0,0 0,0.16 0,0.16 0,0 0,0 0,0 0,0.16 0,0.16 0,0.16 0,0.16 0,0.16 0,0.16 0,0 0,0.16 0,0.16 0,0 0,0 0.16,0 0,0 0,0 0,0 h 1.28 v 0.48 c 0,0.16 0,0.16 0,0.16 0,0 0,0 0,0 0.16,0 0.16,0 0.16,0 0,0 0.16,0 0.16,0 0,0 0.16,0 0.16,0 0,0 0.16,0 0.16,0 0,0 0,0 0,0 0,0 0,0 0,-0.16 V 0.48 H 0 c 0,0 0,0 0,0 C 0,0.32 0,0.32 0,0.32 0,0.16 0,0.16 0,0 Z m -0.96,0 h -0.8 l 0.8,-1.6 v 0 z"
         style="fill:#ff0000;fill-opacity:1;fill-rule:nonzero;stroke:none"
         id="path27608" /></g><g
       id="g27610"
       transform="matrix(0.26458333,0,0,0.26458333,9.2874395,-15.176486)"><path
         d="m 96.480003,389.28 1.759995,-2.88001 1.440002,2.4 z"
         style="fill:#000000;fill-opacity:1;fill-rule:evenodd;stroke:none"
         id="path27612" /></g><g
       id="g27614"
       transform="matrix(0.26458333,0,0,0.26458333,9.2874395,-15.176486)"><path
         d="m 103.68,386.39999 c -2.72,0.16001 -5.120002,1.28 -7.199997,2.88001"
         style="fill:none;stroke:#000000;stroke-width:0.48;stroke-linecap:butt;stroke-linejoin:miter;stroke-miterlimit:2;stroke-dasharray:none;stroke-opacity:1"
         id="path27616" /></g><g
       id="g27618"
       transform="matrix(0.26458333,0,0,0.26458333,9.2874395,-15.176486)"><path
         d="m 96.480003,389.28 1.759995,-2.88001 1.440002,2.4 z"
         style="fill:none;stroke:#000000;stroke-width:0.48;stroke-linecap:butt;stroke-linejoin:miter;stroke-miterlimit:2;stroke-dasharray:none;stroke-opacity:1"
         id="path27620" /></g><g
       id="g27622"
       transform="matrix(0.26458333,0,0,0.26458333,34.518106,89.048182)"><path
         d="m 0,0 c -0.16,0 -0.16,-0.16 -0.16,-0.16 -0.16,-0.16 -0.16,-0.16 -0.32,-0.16 0,-0.16 -0.16,-0.16 -0.32,-0.16 v 0 c 0.16,0 0.16,0 0.32,0 0,-0.16 0.16,-0.16 0.16,-0.16 0,-0.16 0.16,-0.16 0.16,-0.32 0,0 0,-0.16 0,-0.16 0,-0.16 0,-0.32 0,-0.32 -0.16,-0.16 -0.16,-0.16 -0.32,-0.32 0,0 -0.16,0 -0.32,-0.16 -0.16,0 -0.16,0 -0.48,0 0,0 -0.16,0 -0.32,0 0,0 -0.16,0.16 -0.32,0.16 0,0 -0.16,0 -0.16,0.16 0,0 0,0 -0.16,0 0,0 0,0 0,0 0,0 0,0.16 0,0.16 0,0 0,0 0,0 0,0 0,0 0,0.16 0,0 0,0 0,0 0,0.16 0,0.16 0,0.16 0,0 0,0 0,0 0,0 0,0 0.16,0 0,0 0,0 0,0 0.16,-0.16 0.16,-0.16 0.16,-0.16 0.16,0 0.16,0 0.32,-0.16 0,0 0.16,0 0.32,0 0,0 0.16,0 0.16,0 0.16,0 0.16,0 0.16,0.16 0,0 0.16,0 0.16,0 0,0.16 0,0.16 0,0.16 0,0.16 0,0.16 0,0.16 0,0.16 -0.16,0.16 -0.16,0.16 0,0 -0.16,0.16 -0.16,0.16 -0.16,0 -0.32,0 -0.32,0 h -0.32 c 0,0 0,0 -0.16,0 0,0 0,0 0,0 0,0 0,0.16 0,0.16 0,0 0,0 0,0 0,0.16 0,0.16 0,0.16 0,0 0,0.16 0,0.16 0,0 0,0 0,0 0.16,0 0.16,0 0.16,0 h 0.32 c 0.16,0 0.32,0 0.32,0 0.16,0 0.16,0.16 0.32,0.16 0,0 0,0 0.16,0.16 0,0 0,0.16 0,0.16 0,0.16 0,0.16 0,0.16 0,0.16 -0.16,0.16 -0.16,0.16 0,0 -0.16,0.16 -0.16,0.16 -0.16,0 -0.16,0 -0.32,0 -0.16,0 -0.32,0 -0.32,0 -0.16,0 -0.16,0 -0.32,-0.16 0,0 -0.16,0 -0.16,0 0,0 0,0 0,0 -0.16,0 -0.16,0 -0.16,0 0,0 0,0.16 0,0.16 0,0 0,0.16 0,0.16 0,0 0,0 0,0 0,0 0,0.16 0,0.16 0,0 0,0 0,0 0.16,0 0.16,0 0.16,0 0,0 0.16,0 0.16,0.16 0.16,0 0.16,0 0.32,0 0.16,0 0.16,0 0.32,0 0.16,0 0.32,0 0.48,0 0.16,-0.16 0.32,-0.16 0.48,-0.32 0,0 0.16,-0.16 0.16,-0.32 C 0,0.64 0,0.48 0,0.32 0,0.16 0,0.16 0,0 Z"
         style="fill:#ff0000;fill-opacity:1;fill-rule:nonzero;stroke:none"
         id="path27624" /></g><g
       id="g27626"
       transform="matrix(0.26458333,0,0,0.26458333,35.110772,88.45551)"><path
         d="m 0,0 c 0,0 0,0 0,0 0,-0.16 0,-0.16 0,-0.16 0,0 -0.16,0 -0.16,0 0,0 0,0 -0.16,0 0,0 -0.16,0 -0.16,0 0,0 0,0 0,0 -0.16,0 -0.16,0 -0.16,0 0,0 0,0.16 0,0.16 l -1.44,4.16 c 0,0 0,0 0,0 0,0.16 0,0.16 0,0.16 0,0 0.16,0 0.16,0 0,0 0,0 0.16,0 0,0 0.16,0 0.16,0 0,0 0,0 0,0 0.16,0 0.16,0 0.16,0 0,0 0,-0.16 0,-0.16 z"
         style="fill:#ff0000;fill-opacity:1;fill-rule:nonzero;stroke:none"
         id="path27628" /></g><g
       id="g27630"
       transform="matrix(0.26458333,0,0,0.26458333,35.788106,89.09051)"><path
         d="m 0,0 c 0,0 0,0 0,0 h -0.32 v -1.92 c 0,0 0,-0.16 0,-0.16 0,0 0,0 -0.16,0 0,0 0,0 0,0 -0.16,0 -0.16,0 -0.32,0 0,0 -0.16,0 -0.16,0 0,0 -0.16,0 -0.16,0 0,0 0,0 -0.16,0 0,0 0,0 0,0.16 l -0.96,1.76 c 0,0 -0.16,0 -0.16,0 0,0 0,0.16 0,0.16 0,0 0,0 0,0 0,0.16 0,0.16 0,0.16 0,0.16 0,0.16 0,0.16 0,0 0,0.16 0,0.16 0,0 0.16,0 0.16,0 0,0 0,0 0,0 h 1.28 v 0.48 c 0,0.16 0,0.16 0,0.16 0,0 0,0 0.16,0 0,0 0,0 0,0 0,0 0.16,0 0.16,0 0,0 0.16,0 0.16,0 0,0 0.16,0 0.16,0 0,0 0,0 0,0 0,0 0,0 0,-0.16 V 0.48 H 0 c 0,0 0,0 0,0 C 0,0.32 0,0.32 0,0.32 0,0.16 0,0.16 0,0 Z m -0.96,0 h -0.8 l 0.8,-1.6 v 0 z"
         style="fill:#ff0000;fill-opacity:1;fill-rule:nonzero;stroke:none"
         id="path27632" /></g></g></svg>
