<?xml version="1.0" standalone="no"?>
<!DOCTYPE svg PUBLIC "-//W3C//DTD SVG 1.2//EN" "http://www.w3.org/Graphics/SVG/1.2/DTD/svg12.dtd">
<svg xmlns="http://www.w3.org/2000/svg" version="1.2" baseProfile="tiny" id="selectedFigureSvg" width="100px" height="100px" viewBox="-151.5 -138.21 164.97 155.26"><g id="sequence"><g id="figure-2"><path d="M 0,0 m -4,0 a4,4 0 1 1 0,0.01" style="stroke: black; stroke-width: 1px; fill: black;"/><path d="M -4,0 l -80,0" style="stroke-dasharray: 10, 8; stroke: red; stroke-width: 3px; fill: none; " class="line" id="figure-2-entry"/><path d="M -84,0 a40,40 0 0 1 -28.28,-68.28" style="stroke-dasharray: 10, 8; stroke: red; stroke-width: 3px; fill: none; "/><path d="M -112.28,-68.28 l -5.3,-5.3 l 10.6,10.6" style="stroke: black; stroke-width: 3px; fill: none;"/><path d="M -112.28,-68.28 a40,40 0 0 1 28.28,-11.72" style="stroke-dasharray: 10, 8; stroke: red; stroke-width: 3px; fill: none; "/><path d="M -84,-80 a40,40 0 0 1 28.28,11.72" style="stroke-dasharray: 10, 8; stroke: red; stroke-width: 3px; fill: none; "/><path d="M -55.72,-68.28 l 5.3,-5.3 l -10.6,10.6" style="stroke: black; stroke-width: 3px; fill: none;"/><path d="M -55.72,-68.28 a40,40 0 0 1 -28.28,68.28" style="stroke-dasharray: 10, 8; stroke: red; stroke-width: 3px; fill: none; "/><path d="M -84,-80 m -11.3,-23.45 l 10.74,6.45 l -6.93,4 z" style="stroke: black; stroke-width: 2px; fill: black;"/><path d="M -84,-80 m -11.3,-23.45 a 30,30 0 0 1 7.28,38.45 " style="stroke: black; stroke-width: 3px; fill: none;"/><text style="font-family: Arial, Sans; font-size: 20px; font-weight: bold; fill: red;" text-anchor="middle" x="-84" y="-113">2</text><path d="M -84,0 l -60,0" style="stroke-dasharray: 10, 8; stroke: red; stroke-width: 3px; fill: none; " class="line" id="figure-2-exit"/><path d="M -144,0 l 0,-10 l 0,20" style="stroke: black; stroke-width: 3px; fill: none;"/></g></g></svg>