<?xml version="1.0" encoding="UTF-8" standalone="no"?>
<!-- Created with Inkscape (http://www.inkscape.org/) -->

<svg
   width="21.290321mm"
   height="15.790333mm"
   viewBox="0 0 21.290322 15.79033"
   version="1.1"
   id="svg15577"
   inkscape:version="1.2.2 (732a01da63, 2022-12-09)"
   sodipodi:docname="4.svg"
   xml:space="preserve"
   xmlns:inkscape="http://www.inkscape.org/namespaces/inkscape"
   xmlns:sodipodi="http://sodipodi.sourceforge.net/DTD/sodipodi-0.dtd"
   xmlns="http://www.w3.org/2000/svg"
   xmlns:svg="http://www.w3.org/2000/svg"><sodipodi:namedview
     id="namedview15579"
     pagecolor="#ffffff"
     bordercolor="#000000"
     borderopacity="0.25"
     inkscape:showpageshadow="2"
     inkscape:pageopacity="0.0"
     inkscape:pagecheckerboard="true"
     inkscape:deskcolor="#d1d1d1"
     inkscape:document-units="mm"
     showgrid="false"
     showborder="false"
     inkscape:zoom="2.9825758"
     inkscape:cx="162.27584"
     inkscape:cy="16.764034"
     inkscape:window-width="1920"
     inkscape:window-height="1017"
     inkscape:window-x="1912"
     inkscape:window-y="-8"
     inkscape:window-maximized="1"
     inkscape:current-layer="layer1" /><defs
     id="defs15574" /><g
     inkscape:label="Layer 1"
     inkscape:groupmode="layer"
     id="layer1"
     transform="translate(-44.47094,-92.117096)"><g
       id="g15014"
       transform="matrix(0.26458333,0,0,0.26458333,49.253236,55.298379)" /><g
       id="g13720"
       transform="matrix(0.26458333,0,0,0.26458333,18.006939,-99.253542)" /><g
       id="g18168"
       transform="matrix(0.26458333,0,0,0.26458333,27.213146,49.421226)" /><g
       id="g27634"
       transform="matrix(0.26458333,0,0,0.26458333,48.391767,93.705303)"><path
         d="M 0,0 1.92,1.92 2.4,2.08 2.72,1.92 2.88,1.6 2.72,1.28 0.64,-0.8 H 0 l -0.16,0.48 z M 4,4 6.08,6.08 6.4,6.24 6.72,6.08 V 5.44 L 4.64,3.36 4.32,3.2 4,3.36 3.84,3.68 Z m 4.16,4.16 1.92,1.92 0.32,0.16 0.48,-0.16 V 9.44 L 8.8,7.36 8.48,7.2 8.16,7.36 8,7.84 Z m 4,4 2.08,2.08 h 0.64 L 15.04,13.92 14.88,13.6 12.8,11.52 12.48,11.36 12.16,11.52 12,11.84 Z m 4,4.16 2.08,1.92 h 0.639999 l 0.160002,-0.32 -0.160002,-0.32 -1.92,-2.08 -0.32,-0.16 L 16.16,15.52 Z m 4.16,4 2.08,2.08 0.319999,0.159999 0.320002,-0.159999 0.16,-0.32 -0.16,-0.48 -2.080002,-1.92 H 20.32 L 20.16,20 Z m 4,4 1.44,1.44 0.32,0.16 0.32,-0.16 V 24.959999 L 25.120001,23.68 H 24.32 L 24.16,24 Z"
         style="fill:#ff0000;fill-opacity:1;fill-rule:nonzero;stroke:none"
         id="path27636" /></g><g
       id="g27638"
       transform="matrix(0.26458333,0,0,0.26458333,51.312768,100.73264)"><path
         d="m 0,0 c -0.8,-0.64 -0.8,-1.92 -0.16,-2.72 0.8,-0.8 1.92,-0.8 2.72,-0.16 0.8,0.8 0.8,1.92 0.16,2.72 C 1.92,0.64 0.8,0.64 0,0 Z"
         style="fill:#000000;fill-opacity:1;fill-rule:evenodd;stroke:none"
         id="path27640" /></g><g
       id="g27642"
       transform="matrix(0.26458333,0,0,0.26458333,51.312768,100.73264)"><path
         d="m 0,0 c -0.8,-0.64 -0.8,-1.92 -0.16,-2.72 0.8,-0.8 1.92,-0.8 2.72,-0.16 0.8,0.8 0.8,1.92 0.16,2.72 C 1.92,0.64 0.8,0.64 0,0 Z"
         style="fill:none;stroke:#000000;stroke-width:0.96;stroke-linecap:round;stroke-linejoin:round;stroke-miterlimit:10;stroke-dasharray:none;stroke-opacity:1"
         id="path27644" /></g><g
       id="g27646"
       transform="matrix(0.26458333,0,0,0.26458333,25.193101,-24.36236)"><path
         d="m 147.67999,493.92001 v -7.52002"
         style="fill:none;stroke:#000000;stroke-width:0.96;stroke-linecap:round;stroke-linejoin:round;stroke-miterlimit:10;stroke-dasharray:none;stroke-opacity:1"
         id="path27648" /></g><g
       id="g27650"
       transform="matrix(0.26458333,0,0,0.26458333,25.193101,-24.36236)"><path
         d="M 98.720001,472.79999 88,484.79999"
         style="fill:none;stroke:#000000;stroke-width:0.96;stroke-linecap:round;stroke-linejoin:round;stroke-miterlimit:10;stroke-dasharray:none;stroke-opacity:1"
         id="path27652" /></g><g
       id="g27654"
       transform="matrix(0.26458333,0,0,0.26458333,25.193101,-24.36236)"><path
         d="M 88,484.79999 V 445.92001"
         style="fill:none;stroke:#000000;stroke-width:0.96;stroke-linecap:round;stroke-linejoin:round;stroke-miterlimit:10;stroke-dasharray:none;stroke-opacity:1"
         id="path27656" /></g><g
       id="g27658"
       transform="matrix(0.26458333,0,0,0.26458333,25.193101,-24.36236)"><path
         d="m 113.76,471.51999 18.72,18.72"
         style="fill:none;stroke:#000000;stroke-width:0.96;stroke-linecap:round;stroke-linejoin:round;stroke-miterlimit:10;stroke-dasharray:none;stroke-opacity:1"
         id="path27660" /></g><g
       id="g27662"
       transform="matrix(0.26458333,0,0,0.26458333,25.193101,-24.36236)"><path
         d="m 132.48,490.23999 15.19999,-0.16"
         style="fill:none;stroke:#000000;stroke-width:0.96;stroke-linecap:round;stroke-linejoin:round;stroke-miterlimit:10;stroke-dasharray:none;stroke-opacity:1"
         id="path27664" /></g><g
       id="g27666"
       transform="matrix(0.26458333,0,0,0.26458333,25.193101,-24.36236)"><path
         d="m 80.480003,468.32001 1.919999,-3.04001 1.439994,2.39999 z"
         style="fill:#000000;fill-opacity:1;fill-rule:evenodd;stroke:none"
         id="path27668" /></g><g
       id="g27670"
       transform="matrix(0.26458333,0,0,0.26458333,25.193101,-24.36236)"><path
         d="m 88,465.28 c -2.720001,0.16 -5.440002,1.28 -7.519997,3.04001"
         style="fill:none;stroke:#000000;stroke-width:0.48;stroke-linecap:butt;stroke-linejoin:miter;stroke-miterlimit:2;stroke-dasharray:none;stroke-opacity:1"
         id="path27672" /></g><g
       id="g27674"
       transform="matrix(0.26458333,0,0,0.26458333,25.193101,-24.36236)"><path
         d="m 80.480003,468.32001 1.919999,-3.04001 1.439994,2.39999 z"
         style="fill:none;stroke:#000000;stroke-width:0.48;stroke-linecap:butt;stroke-linejoin:miter;stroke-miterlimit:2;stroke-dasharray:none;stroke-opacity:1"
         id="path27676" /></g><g
       id="g27678"
       transform="matrix(0.26458333,0,0,0.26458333,46.1481,101.0713)"><path
         d="m 0,0 c 0,0 0,-0.16 0,-0.16 0,0 0,0 0,0 0,0 -0.16,0 -0.16,0 h -0.48 v -2.88 c 0,0 0,0 0,0 0,0 0,0 0,0 0,0 -0.16,0 -0.16,0 0,0 0,0 -0.16,0 0,0 0,0 -0.16,0 0,0 0,0 0,0 0,0 0,0 0,0 0,0 0,0 -0.16,0 l -0.64,0.48 c -0.16,0 -0.16,0 -0.16,0 0,0 0,0 0,0.16 0,0 0,0 0,0 0,0 0,0 0,0.16 0,0 0,0 0,0.16 0,0 0,0 0,0 0,0 0,0 0.16,0 0,0 0,0 0,0 l 0.64,-0.32 v 2.24 h -0.64 c 0,0 -0.16,0 -0.16,0 0,0 0,0 0,0 0,0 0,0.16 0,0.16 0,0 0,0 0,0 0,0.16 0,0.16 0,0.16 0,0 0,0.16 0,0.16 0,0 0,0 0,0 0,0 0.16,0 0.16,0 h 1.76 c 0,0 0.16,0 0.16,0 0,0 0,0 0,0 0,0 0,-0.16 0,-0.16 0,0 0,0 0,-0.16 0,0 0,0 0,0 z"
         style="fill:#ff0000;fill-opacity:1;fill-rule:nonzero;stroke:none"
         id="path27680" /></g><g
       id="g27682"
       transform="matrix(0.26458333,0,0,0.26458333,46.7831,100.18231)"><path
         d="m 0,0 c 0,0 0,0 0,0 0,-0.16 0,-0.16 0,-0.16 -0.16,0 -0.16,0 -0.16,0 0,0 -0.16,0 -0.16,0 0,0 -0.16,0 -0.16,0 0,0 0,0 -0.16,0 0,0 0,0 0,0 0,0 0,0.16 0,0.16 l -1.6,4.32 c 0,0 0,0 0,0 0,0 0,0.16 0,0.16 0,0 0,0 0.16,0 0,0 0,0 0.16,0 0,0 0,0 0.16,0 0,0 0,0 0,0 0,0 0.16,0 0.16,0 0,-0.16 0,-0.16 0,-0.16 z"
         style="fill:#ff0000;fill-opacity:1;fill-rule:nonzero;stroke:none"
         id="path27684" /></g><g
       id="g27686"
       transform="matrix(0.26458333,0,0,0.26458333,47.502767,100.85964)"><path
         d="m 0,0 c 0,0 0,0 0,0 h -0.32 v -2.08 c 0,0 0,-0.16 0,-0.16 0,0 0,0 -0.16,0 0,0 0,0 -0.16,0 0,0 0,0 -0.16,0 0,0 -0.16,0 -0.16,0 -0.16,0 -0.16,0 -0.16,0 0,0 -0.16,0 -0.16,0 0,0 0,0 0,0.16 l -0.96,1.92 c -0.16,0 -0.16,0 -0.16,0 0,0 0,0.16 0,0.16 0,0 0,0 0,0 0,0.16 0,0.16 0,0.16 0,0.16 0,0.16 0,0.16 0,0 0,0.16 0,0.16 0,0 0,0 0.16,0 0,0 0,0 0,0 h 1.28 v 0.48 c 0,0 0,0.16 0,0.16 0,0 0,0 0,0 0.16,0 0.16,0 0.16,0 0,0 0.16,0 0.16,0 0,0 0.16,0 0.16,0 0,0 0,0 0.16,0 0,0 0,0 0,0 0,0 0,-0.16 0,-0.16 V 0.48 H 0 c 0,0 0,0 0,0 0,-0.16 0,-0.16 0,-0.32 0,0 0,0 0,-0.16 z m -0.96,0 h -0.8 l 0.8,-1.76 v 0 z"
         style="fill:#ff0000;fill-opacity:1;fill-rule:nonzero;stroke:none"
         id="path27688" /></g><g
       id="g27690"
       transform="matrix(0.26458333,0,0,0.26458333,55.419101,97.853974)"><path
         d="M 0,0 0.8,3.52 -1.92,2.88 Z M 2.72,2.72 3.52,6.08 0.64,5.44 Z"
         style="fill:#000000;fill-opacity:1;fill-rule:evenodd;stroke:none"
         id="path27692" /></g><g
       id="g27694"
       transform="matrix(0.26458333,0,0,0.26458333,25.193101,-24.36236)"><path
         d="m 105.28,472 c 2.24,-0.16 4.16,-1.12 5.76,-2.72 1.92,-1.92001 3.04,-4.63999 3.2,-7.35999"
         style="fill:none;stroke:#000000;stroke-width:0.48;stroke-linecap:butt;stroke-linejoin:miter;stroke-miterlimit:2;stroke-dasharray:none;stroke-opacity:1"
         id="path27696" /></g><g
       id="g27698"
       transform="matrix(0.26458333,0,0,0.26458333,25.193101,-24.36236)"><path
         d="m 113.76,472 c 1.76,-2.07999 2.88,-4.64001 3.2,-7.35999"
         style="fill:none;stroke:#000000;stroke-width:0.48;stroke-linecap:butt;stroke-linejoin:miter;stroke-miterlimit:2;stroke-dasharray:none;stroke-opacity:1"
         id="path27700" /></g><g
       id="g27702"
       transform="matrix(0.26458333,0,0,0.26458333,25.193101,-24.36236)"><path
         d="m 114.24,461.92001 0.8,3.51999 -2.72,-0.64001 z"
         style="fill:none;stroke:#000000;stroke-width:0.48;stroke-linecap:butt;stroke-linejoin:miter;stroke-miterlimit:2;stroke-dasharray:none;stroke-opacity:1"
         id="path27704" /></g><g
       id="g27706"
       transform="matrix(0.26458333,0,0,0.26458333,25.193101,-24.36236)"><path
         d="m 116.96,464.64001 0.8,3.35999 -2.88,-0.64001 z"
         style="fill:none;stroke:#000000;stroke-width:0.48;stroke-linecap:butt;stroke-linejoin:miter;stroke-miterlimit:2;stroke-dasharray:none;stroke-opacity:1"
         id="path27708" /></g><g
       id="g27710"
       transform="matrix(0.26458333,0,0,0.26458333,25.193101,-24.36236)"><path
         d="m 114.24,460.95999 3.68,3.68002"
         style="fill:none;stroke:#000000;stroke-width:0.48;stroke-linecap:round;stroke-linejoin:round;stroke-miterlimit:10;stroke-dasharray:none;stroke-opacity:1"
         id="path27712" /></g></g></svg>
