<?xml version="1.0" encoding="UTF-8" standalone="no"?>
<!-- Created with Inkscape (http://www.inkscape.org/) -->

<svg
   width="15.169355mm"
   height="14.282257mm"
   viewBox="0 0 15.169356 14.282255"
   version="1.1"
   id="svg15577"
   inkscape:version="1.2.2 (732a01da63, 2022-12-09)"
   sodipodi:docname="5.svg"
   xml:space="preserve"
   xmlns:inkscape="http://www.inkscape.org/namespaces/inkscape"
   xmlns:sodipodi="http://sodipodi.sourceforge.net/DTD/sodipodi-0.dtd"
   xmlns="http://www.w3.org/2000/svg"
   xmlns:svg="http://www.w3.org/2000/svg"><sodipodi:namedview
     id="namedview15579"
     pagecolor="#ffffff"
     bordercolor="#000000"
     borderopacity="0.25"
     inkscape:showpageshadow="2"
     inkscape:pageopacity="0.0"
     inkscape:pagecheckerboard="true"
     inkscape:deskcolor="#d1d1d1"
     inkscape:document-units="mm"
     showgrid="false"
     showborder="false"
     inkscape:zoom="2.9825758"
     inkscape:cx="284.65329"
     inkscape:cy="112.65431"
     inkscape:window-width="1920"
     inkscape:window-height="1017"
     inkscape:window-x="1912"
     inkscape:window-y="-8"
     inkscape:window-maximized="1"
     inkscape:current-layer="layer1" /><defs
     id="defs15574" /><g
     inkscape:label="Layer 1"
     inkscape:groupmode="layer"
     id="layer1"
     transform="translate(-12.091909,-66.746124)"><g
       id="g15014"
       transform="matrix(0.26458333,0,0,0.26458333,49.253236,55.298379)" /><g
       id="g13720"
       transform="matrix(0.26458333,0,0,0.26458333,18.006939,-99.253542)" /><g
       id="g18168"
       transform="matrix(0.26458333,0,0,0.26458333,27.213146,49.421226)" /><g
       id="g27714"
       transform="matrix(0.26458333,0,0,0.26458333,24.652773,79.14265)"><path
         d="m 0,0 -2.08,-2.08 -0.16,-0.32 0.16,-0.32 0.32,-0.16 0.32,0.16 L 0.64,-0.8 0.8,-0.32 0.64,0 0.32,0.16 Z m -4,-4.16 -2.08,-1.92 -0.16,-0.48 0.16,-0.32 0.32,-0.16 0.32,0.16 2.08,2.08 v 0.64 z m -4.16,-4 -2.08,-2.08 -0.16,-0.32 0.16,-0.32 0.48,-0.16 0.32,0.16 1.92,2.08 v 0.64 z m -4,-4.16 -2.08,-1.92 -0.16,-0.32 0.16,-0.48 0.32,-0.16 0.32,0.16 2.08,2.08 0.16,0.32 -0.16,0.32 -0.32,0.16 z m -4.16,-4 -2.08,-2.08 v -0.640001 h 0.8 l 1.92,2.080002 0.16,0.32 -0.16,0.319999 -0.32,0.16 z m -4,-4.16 -2.08,-1.92 v -0.800001 h 0.64 l 2.08,2.08 0.16,0.320002 -0.16,0.319999 -0.32,0.16 z m -4.16,-4 -1.92,-2.079999 -0.159999,-0.32 0.159999,-0.320002 0.32,-0.16 0.32,0.16 1.92,2.08 0.16,0.320002 -0.16,0.319999 -0.32,0.16 z m -4,-4 -2.079999,-2.079999 -0.16,-0.32 0.16,-0.320002 0.319999,-0.16 0.32,0.16 2.08,1.92 V -28.48 Z m -4.159999,-4.159999 -1.920002,-2.080002 -0.16,-0.32 0.16,-0.32 0.319999,-0.159999 0.320004,0.159999 2.079998,2.080002 v 0.64 z m -4,-4 -1.119999,-1.119999 -0.16,-0.480004 0.16,-0.319999 0.319999,-0.16 0.32,0.16 1.119999,1.120002 0.16,0.48 -0.16,0.32 -0.32,0.159999 z"
         style="fill:#ff0000;fill-opacity:1;fill-rule:nonzero;stroke:none"
         id="path27716" /></g><g
       id="g27718"
       transform="matrix(0.26458333,0,0,0.26458333,14.746772,79.057984)"><path
         d="m 0,0 c 0,-1.12 -0.8,-1.92 -1.92,-1.92 -0.96,0 -1.92,0.8 -1.92,1.92 0,0.96 0.96,1.76 1.92,1.76 C -0.8,1.76 0,0.96 0,0 Z"
         style="fill:#000000;fill-opacity:1;fill-rule:evenodd;stroke:none"
         id="path27720" /></g><g
       id="g27722"
       transform="matrix(0.26458333,0,0,0.26458333,14.746772,79.057984)"><path
         d="m 0,0 c 0,-1.12 -0.8,-1.92 -1.92,-1.92 -0.96,0 -1.92,0.8 -1.92,1.92 0,0.96 0.96,1.76 1.92,1.76 C -0.8,1.76 0,0.96 0,0 Z"
         style="fill:none;stroke:#000000;stroke-width:0.96;stroke-linecap:round;stroke-linejoin:round;stroke-miterlimit:10;stroke-dasharray:none;stroke-opacity:1"
         id="path27724" /></g><g
       id="g27726"
       transform="matrix(0.26458333,0,0,0.26458333,-10.44156,-68.854676)"><path
         d="M 132.96001,524.96002 V 517.44"
         style="fill:none;stroke:#000000;stroke-width:0.96;stroke-linecap:round;stroke-linejoin:round;stroke-miterlimit:10;stroke-dasharray:none;stroke-opacity:1"
         id="path27728" /></g><g
       id="g27730"
       transform="matrix(0.26458333,0,0,0.26458333,-10.44156,-68.854676)"><path
         d="M 95.199997,559.03998 H 132.96001"
         style="fill:none;stroke:#000000;stroke-width:0.96;stroke-linecap:round;stroke-linejoin:round;stroke-miterlimit:10;stroke-dasharray:none;stroke-opacity:1"
         id="path27732" /></g><g
       id="g27734"
       transform="matrix(0.26458333,0,0,0.26458333,-10.44156,-68.854676)"><path
         d="M 95.199997,521.12 H 132.96001"
         style="fill:none;stroke:#000000;stroke-width:0.96;stroke-linecap:round;stroke-linejoin:round;stroke-miterlimit:10;stroke-dasharray:none;stroke-opacity:1"
         id="path27736" /></g><g
       id="g27738"
       transform="matrix(0.26458333,0,0,0.26458333,-10.44156,-68.854676)"><path
         d="m 125.12,537.91998 -4.32,-0.95996 0.8,3.51996 z"
         style="fill:#000000;fill-opacity:1;fill-rule:evenodd;stroke:none"
         id="path27740" /></g><g
       id="g27742"
       transform="matrix(0.26458333,0,0,0.26458333,-10.44156,-68.854676)"><path
         d="m 115.84,541.91998 c 2.56,-2.23999 5.92,-3.67999 9.28,-4"
         style="fill:none;stroke:#000000;stroke-width:0.48;stroke-linecap:butt;stroke-linejoin:miter;stroke-miterlimit:2;stroke-dasharray:none;stroke-opacity:1"
         id="path27744" /></g><g
       id="g27746"
       transform="matrix(0.26458333,0,0,0.26458333,-10.44156,-68.854676)"><path
         d="m 125.12,537.91998 -4.32,-0.95996 0.8,3.51996 z"
         style="fill:none;stroke:#000000;stroke-width:0.48;stroke-linecap:butt;stroke-linejoin:miter;stroke-miterlimit:2;stroke-dasharray:none;stroke-opacity:1"
         id="path27748" /></g><g
       id="g27750"
       transform="matrix(0.26458333,0,0,0.26458333,23.298106,74.993986)"><path
         d="m 0,0 c 0,0 -0.16,0 -0.16,0.16 v 0.16 h -2.4 V 0.16 h -0.16 c 0,-0.16 0,-0.16 0,-0.16 0,-0.16 0,-0.16 0,-0.16 0,-0.16 0.16,-0.16 0.16,-0.16 h 0.8 V -3.2 l -0.64,0.48 h -0.16 c -0.16,0 -0.16,0 -0.16,-0.16 0,0 0,0 0,-0.16 0,0 0,0 0,-0.16 0,0 0.16,0 0.16,-0.16 L -1.6,-4 c 0.16,0 0.16,0 0.16,0 h 0.16 c 0.16,0 0.16,0 0.16,0 0.16,0 0.16,0 0.16,0 0,0 0,0 0,0.16 v 3.52 h 0.8 c 0,0 0,0 0,0.16 0,0 0.16,0 0.16,0.16 z"
         style="fill:#ff0000;fill-opacity:1;fill-rule:nonzero;stroke:none"
         id="path27752" /></g><g
       id="g27754"
       transform="matrix(0.26458333,0,0,0.26458333,23.59444,75.29032)"><path
         d="m 0,0 c -0.16,0 -0.16,0 -0.16,0 0,0.16 0,0.16 0,0.16 h -0.16 -0.16 c -0.16,0 -0.16,0 -0.16,0 -0.16,0 -0.16,0 -0.16,0 C -0.8,0 -0.8,0 -0.96,0 c 0,0 0,0 0.16,0 l 1.92,-5.6 c 0.16,0 0.16,0 0.16,0 0,-0.16 0.16,-0.16 0.16,-0.16 0.16,0 0.16,0 0.32,0.16 0.16,0 0.16,0 0.16,0 v 0.16 z"
         style="fill:#ff0000;fill-opacity:1;fill-rule:nonzero;stroke:none"
         id="path27756" /></g><g
       id="g27758"
       transform="matrix(0.26458333,0,0,0.26458333,24.99144,74.739981)"><path
         d="m 0,0 c 0,0.16 0,0.16 -0.16,0.32 h -0.48 v 0.8 0.16 H -0.8 -0.96 c -0.16,0 -0.16,0 -0.16,0 -0.16,0 -0.16,0 -0.16,0 L -1.44,1.12 V 0.32 H -3.04 -3.2 V 0.16 0 c 0,-0.16 0,-0.16 0,-0.16 0,-0.16 0,-0.16 0,-0.16 v -0.16 c 0,0 0.16,0 0.16,-0.16 l 1.28,-2.24 c 0,0 0.16,0 0.16,-0.16 h 0.16 c 0,0 0.16,0 0.32,0 h 0.16 c 0.16,0 0.16,0 0.32,0 0,0.16 0,0.16 0,0.16 v 2.56 h 0.48 C 0,-0.16 0,-0.16 0,0 Z m -1.44,-2.24 v 0 l -1.12,1.92 h 1.12 z"
         style="fill:#ff0000;fill-opacity:1;fill-rule:nonzero;stroke:none"
         id="path27760" /></g><g
       id="g27762"
       transform="matrix(0.26458333,0,0,0.26458333,-10.44156,-68.854676)"><path
         d="m 108.32,547.20001 -0.96,-4.32001 3.36,0.79999 z"
         style="fill:#000000;fill-opacity:1;fill-rule:evenodd;stroke:none"
         id="path27764" /></g><g
       id="g27766"
       transform="matrix(0.26458333,0,0,0.26458333,-10.44156,-68.854676)"><path
         d="m 112.32,537.76001 c -2.24,2.71997 -3.68,5.91998 -4,9.44"
         style="fill:none;stroke:#000000;stroke-width:0.48;stroke-linecap:butt;stroke-linejoin:miter;stroke-miterlimit:2;stroke-dasharray:none;stroke-opacity:1"
         id="path27768" /></g><g
       id="g27770"
       transform="matrix(0.26458333,0,0,0.26458333,-10.44156,-68.854676)"><path
         d="m 108.32,547.20001 -0.96,-4.32001 3.36,0.79999 z"
         style="fill:none;stroke:#000000;stroke-width:0.48;stroke-linecap:butt;stroke-linejoin:miter;stroke-miterlimit:2;stroke-dasharray:none;stroke-opacity:1"
         id="path27772" /></g><g
       id="g27774"
       transform="matrix(0.26458333,0,0,0.26458333,15.84744,74.44365)"><path
         d="m 0,0 v 0.8 h -3.2 c 0.16,-0.32 0.16,-0.48 0.32,-0.8 0.16,-0.32 0.64,-0.64 1.12,-1.12 0.32,-0.48 0.64,-0.64 0.64,-0.8 0.16,-0.32 0.32,-0.48 0.32,-0.64 0,-0.16 -0.16,-0.32 -0.16,-0.48 -0.16,0 -0.32,-0.16 -0.48,-0.16 -0.16,0 -0.32,0.16 -0.48,0.16 -0.16,0.16 -0.16,0.32 -0.16,0.64 l -0.96,-0.16 c 0,-0.48 0.16,-0.8 0.48,-0.96 0.32,-0.32 0.64,-0.48 1.12,-0.48 0.48,0 0.8,0.16 1.12,0.48 C 0,-3.36 0,-3.04 0,-2.56 c 0,0.16 0,0.32 0,0.64 -0.16,0.16 -0.32,0.32 -0.48,0.48 0,0.16 -0.32,0.48 -0.48,0.64 -0.32,0.32 -0.48,0.48 -0.64,0.64 L -1.76,0 Z"
         style="fill:#ff0000;fill-opacity:1;fill-rule:nonzero;stroke:none"
         id="path27776" /></g><g
       id="g27778"
       transform="matrix(0.26458333,0,0,0.26458333,15.974439,74.655327)"><path
         d="M 0,0 1.28,-1.76 0,-3.36 H 1.12 L 1.76,-2.4 2.4,-3.36 H 3.52 L 2.24,-1.76 3.52,0 H 2.4 L 1.76,-0.96 0.96,0 Z"
         style="fill:#ff0000;fill-opacity:1;fill-rule:nonzero;stroke:none"
         id="path27780" /></g><g
       id="g27782"
       transform="matrix(0.26458333,0,0,0.26458333,17.202106,73.977997)"><path
         d="m 0,0 c -0.16,0 -0.32,-0.16 -0.48,-0.32 -0.16,-0.16 -0.16,-0.48 -0.16,-0.64 0,-0.32 0.16,-0.64 0.32,-0.8 0.32,-0.32 0.64,-0.48 1.12,-0.48 0.48,0 0.8,0.16 1.12,0.48 0.16,0.16 0.32,0.48 0.32,0.8 0,0.32 0,0.48 -0.16,0.64 C 1.92,-0.16 1.76,0 1.6,0 1.92,0.16 2.08,0.32 2.24,0.48 2.4,0.8 2.4,0.96 2.4,1.28 2.4,1.6 2.24,2.08 1.92,2.24 1.76,2.56 1.28,2.72 0.8,2.72 0.48,2.72 0,2.56 -0.16,2.4 -0.64,2.08 -0.8,1.76 -0.8,1.28 -0.8,0.96 -0.64,0.8 -0.48,0.48 -0.48,0.32 -0.16,0.16 0,0 Z m 0.32,-0.8 c 0,0.16 0,0.32 0,0.32 0.16,0.16 0.32,0.16 0.48,0.16 0.16,0 0.32,0 0.48,-0.16 0,0 0.16,-0.16 0.16,-0.32 0,-0.32 -0.16,-0.32 -0.16,-0.48 -0.16,-0.16 -0.32,-0.16 -0.48,-0.16 -0.16,0 -0.32,0 -0.48,0.16 0,0.16 0,0.16 0,0.48 z M 0.16,1.12 c 0,0.32 0,0.48 0.16,0.64 0.16,0.16 0.32,0.16 0.48,0.16 0.16,0 0.32,0 0.48,-0.16 C 1.44,1.6 1.44,1.44 1.44,1.12 1.44,0.96 1.44,0.8 1.28,0.64 1.12,0.48 0.96,0.48 0.8,0.48 0.64,0.48 0.48,0.48 0.32,0.64 0.16,0.8 0.16,0.96 0.16,1.12 Z"
         style="fill:#ff0000;fill-opacity:1;fill-rule:nonzero;stroke:none"
         id="path27784" /></g></g></svg>
