<?xml version="1.0" standalone="no"?>
<!DOCTYPE svg PUBLIC "-//W3C//DTD SVG 1.2//EN" "http://www.w3.org/Graphics/SVG/1.2/DTD/svg12.dtd">
<svg xmlns="http://www.w3.org/2000/svg" version="1.2" baseProfile="tiny" id="selectedFigureSvg" width="100px" height="100px" viewBox="-91.35 -57.6 190.27 112.12"><g id="sequence"><g id="figure-2"><path d="M 0,0 m -4,0 a4,4 0 1 1 0,0.01" style="stroke: black; stroke-width: 1px; fill: black;"/><path d="M -3.46,2 l -18.19,10.5" style="stroke: black; stroke-width: 3px; fill: none;" class="line" id="figure-2-entry"/><path d="M -21.65,12.5 l 0,-30" style="stroke: black; stroke-width: 3px; fill: none;" class="line" id="figure-2-roll0-gap0"/><path d="M -21.65,-17.5 m -23.45,11.3 l 6.45,-10.74 l 4,6.93 z" style="stroke: black; stroke-width: 2px; fill: black;"/><path d="M -21.65,-17.5 m -23.45,11.3 a 30,30 0 0 1 23.45,-11.3 " style="stroke: black; stroke-width: 3px; fill: none;"/><text style="font-family: Arial, Sans; font-size: 20px; font-weight: bold; fill: red;" text-anchor="middle" x="-68.79" y="-10.5">1/4</text><path d="M -21.65,-17.5 l 0,-35" style="stroke: black; stroke-width: 3px; fill: none;" class="line" id="figure-2-roll0-gap1"/><path d="M -21.65,-52.5 l 49.5,49.5" style="stroke-dasharray: 10, 8; stroke: red; stroke-width: 3px; fill: none; " class="line" id="figure-2-roll1-gap0"/><path d="M 27.85,-3 m 8.6,-24.57 l 3.03,12.16 l -7.73,-2.07 z" style="stroke: black; stroke-width: 2px; fill: black;"/><path d="M 27.85,-3 m 8.6,-24.57 a 30,30 0 0 1 -22.05,32.34 " style="stroke: black; stroke-width: 3px; fill: none;"/><path d="M 27.85,-3 l 7.07,7.07" style="stroke-dasharray: 10, 8; stroke: red; stroke-width: 3px; fill: none; " class="line"/><path d="M 34.92,4.07 m 9.7,-29.5 l -7.07,-7.07" style="stroke: black; stroke-width: 3px; fill: none;"/><path d="M 34.92,4.07 m 8.6,-24.57 l 3.03,12.16 l -7.73,-2.07 z" style="stroke: black; stroke-width: 2px; fill: black;"/><path d="M 34.92,4.07 m 8.6,-24.57 a 30,30 0 0 1 -8.6,24.57 " style="stroke: black; stroke-width: 3px; fill: none;"/><path d="M 34.92,4.07 l 35.36,35.36" style="stroke: black; stroke-width: 3px; fill: none;" class="line" id="figure-2-roll1-gap1"/><path d="M 70.28,39.43 l 20,0" style="stroke: black; stroke-width: 3px; fill: none;" class="line" id="figure-2-exit"/><path d="M 90.28,39.43 l 0,-10 l 0,20" style="stroke: black; stroke-width: 3px; fill: none;"/></g></g></svg>