<?xml version="1.0" standalone="no"?>
<!DOCTYPE svg PUBLIC "-//W3C//DTD SVG 1.2//EN" "http://www.w3.org/Graphics/SVG/1.2/DTD/svg12.dtd">
<svg xmlns="http://www.w3.org/2000/svg" version="1.2" baseProfile="tiny" id="selectedFigureSvg" width="600px" height="600px" viewBox="-73.99 -114.65 114.18 124.31"><g id="sequence"><g id="figure-2"><text style="font-family: Verdana, Helvetica, Sans; font-size: 16px; font-weight: bold; fill: black;" text-anchor="middle" x="0" y="-8" class="figNr">6</text><path d="M 0,0 m -4,0 a4,4 0 1 1 0,0.01" style="stroke: black; stroke-width: 1px; fill: black;"/><path d="M -4,0 l -60,0" style="stroke: black; stroke-width: 5px; fill: none; vector-effect: non-scaling-stroke;" class="line" id="figure-2-entry"/><path d="M -64,0 l 35.36,-35.36" style="stroke-dasharray: 5, 3; stroke: red; stroke-width: 5px; fill: none; vector-effect: non-scaling-stroke;" class="line" id="figure-2-roll1-gap0"/><path d="M -28.64,-35.36 m -16.38,-5.73 l 8.45,-3.31 l -2.07,7.73 z" style="stroke: black; stroke-width: 1px; fill: black;"/><path d="M -28.64,-35.36 m -16.38,-5.73 a 20,20 0 0 1 16.38,5.73 " style="stroke: black; stroke-width: 5px; fill: none; vector-effect: non-scaling-stroke;"/><text style="font-family: Arial, Sans; font-size: 20px; font-weight: bold; fill: red;" text-anchor="middle" x="-54.9" y="-49.57">1/4</text><path d="M -28.64,-35.36 l 14.14,-14.14" style="stroke-dasharray: 5, 3; stroke: red; stroke-width: 5px; fill: none; vector-effect: non-scaling-stroke;" class="line" id="figure-2-roll1-gap1"/><path d="M -14.5,-49.5 m 5.73,16.38 l 3.31,-8.45 l -7.73,2.07 z" style="stroke: black; stroke-width: 1px; fill: black;"/><path d="M -14.5,-49.5 m 5.73,16.38 a 20,20 0 0 0 -5.73,-16.38 " style="stroke: black; stroke-width: 5px; fill: none; vector-effect: non-scaling-stroke;"/><text style="font-family: Arial, Sans; font-size: 20px; font-weight: bold; fill: red;" text-anchor="middle" x="11.76" y="-21.29">2x8</text><path d="M -14.5,-49.5 l 49.5,-49.5" style="stroke-dasharray: 5, 3; stroke: red; stroke-width: 5px; fill: none; vector-effect: non-scaling-stroke;" class="line" id="figure-2-roll1-gap2"/><path d="M 35,-99 l -60,0" style="stroke: black; stroke-width: 5px; fill: none; vector-effect: non-scaling-stroke;" class="line" id="figure-2-exit"/><path d="M -25,-99 l 0,10 l 0,-20" style="stroke: black; stroke-width: 5px; fill: none; vector-effect: non-scaling-stroke;"/></g></g></svg>