<?xml version="1.0" encoding="UTF-8" standalone="no"?>
<!-- Created with Inkscape (http://www.inkscape.org/) -->

<svg
   width="10.91129mm"
   height="19.959675mm"
   viewBox="0 0 10.911291 19.959672"
   version="1.1"
   id="svg15577"
   inkscape:version="1.2.2 (732a01da63, 2022-12-09)"
   sodipodi:docname="6.svg"
   xml:space="preserve"
   xmlns:inkscape="http://www.inkscape.org/namespaces/inkscape"
   xmlns:sodipodi="http://sodipodi.sourceforge.net/DTD/sodipodi-0.dtd"
   xmlns="http://www.w3.org/2000/svg"
   xmlns:svg="http://www.w3.org/2000/svg"><sodipodi:namedview
     id="namedview15579"
     pagecolor="#ffffff"
     bordercolor="#000000"
     borderopacity="0.25"
     inkscape:showpageshadow="2"
     inkscape:pageopacity="0.0"
     inkscape:pagecheckerboard="true"
     inkscape:deskcolor="#d1d1d1"
     inkscape:document-units="mm"
     showgrid="false"
     showborder="false"
     inkscape:zoom="2.9825758"
     inkscape:cx="234.02591"
     inkscape:cy="81.808484"
     inkscape:window-width="1920"
     inkscape:window-height="1017"
     inkscape:window-x="1912"
     inkscape:window-y="-8"
     inkscape:window-maximized="1"
     inkscape:current-layer="layer1" /><defs
     id="defs15574" /><g
     inkscape:label="Layer 1"
     inkscape:groupmode="layer"
     id="layer1"
     transform="translate(-25.48707,-74.907417)"><g
       id="g15014"
       transform="matrix(0.26458333,0,0,0.26458333,49.253236,55.298379)" /><g
       id="g13720"
       transform="matrix(0.26458333,0,0,0.26458333,18.006939,-99.253542)" /><g
       id="g18168"
       transform="matrix(0.26458333,0,0,0.26458333,27.213146,49.421226)" /><g
       id="g27786"
       transform="matrix(0.26458333,0,0,0.26458333,31.778323,77.48903)"><path
         d="M 0,0 V 2.88 L 0.16,3.36 H 0.48 0.96 V 2.88 0 -0.32 L 0.48,-0.48 0.16,-0.32 Z M 0,5.76 V 8.64 L 0.16,9.12 H 0.48 0.96 V 8.64 5.76 5.44 L 0.48,5.28 0.16,5.44 Z m 0,5.76 v 2.88 l 0.16,0.48 H 0.48 0.96 V 14.4 11.52 11.2 L 0.48,11.04 0.16,11.2 Z m 0,5.760001 V 20.16 l 0.16,0.479999 H 0.48 0.96 V 20.16 17.280001 16.959999 l -0.48,-0.16 -0.32,0.16 z m 0,5.76 V 25.92 l 0.16,0.48 h 0.32 0.48 v -0.48 -2.879999 -0.320002 l -0.48,-0.16 -0.32,0.16 z m 0,5.759998 V 31.68 l 0.16,0.48 H 0.48 0.96 V 31.68 28.799999 28.48 L 0.48,28.32 0.16,28.48 Z m 0,5.760002 v 2.879998 l 0.16,0.479999 h 0.32 0.48 v -0.479999 -2.879998 -0.319999 l -0.48,-0.16 -0.32,0.16 z M 0,40.32 v 2.880001 L 0.16,43.68 H 0.48 0.96 V 43.200001 40.32 40 L 0.48,39.84 0.16,40 Z m 0,5.760002 v 2.879997 l 0.16,0.48 h 0.32 0.48 v -0.48 -2.879997 -0.320004 l -0.48,-0.16 -0.32,0.16 z M 0,51.84 v 2.880001 l 0.16,0.48 h 0.32 0.48 v -0.48 V 51.84 51.52 L 0.48,51.360001 0.16,51.52 Z m 0.48,5.279999 H -2.4 l -0.32,0.16 -0.16,0.319999 0.16,0.480004 h 0.32 2.88 0.48 v -0.480004 -0.319999 z m -5.76,0 h -2.88 l -0.32,0.16 -0.16,0.319999 0.16,0.480004 h 0.32 2.88 0.48 v -0.480004 -0.319999 z m -5.76,0 h -2.88 l -0.32,0.16 -0.16,0.319999 0.16,0.480004 h 0.32 2.88 0.48 v -0.480004 -0.319999 z"
         style="fill:#ff0000;fill-opacity:1;fill-rule:nonzero;stroke:none"
         id="path27788" /></g><g
       id="g27790"
       transform="matrix(0.26458333,0,0,0.26458333,28.984323,77.48903)"><path
         d="m 0,0 c 0,1.12 -0.8,1.92 -1.92,1.92 -0.96,0 -1.92,-0.8 -1.92,-1.92 0,-0.96 0.96,-1.76 1.92,-1.76 C -0.8,-1.76 0,-0.96 0,0 Z"
         style="fill:#000000;fill-opacity:1;fill-rule:evenodd;stroke:none"
         id="path27792" /></g><g
       id="g27794"
       transform="matrix(0.26458333,0,0,0.26458333,28.984323,77.48903)"><path
         d="m 0,0 c 0,1.12 -0.8,1.92 -1.92,1.92 -0.96,0 -1.92,-0.8 -1.92,-1.92 0,-0.96 0.96,-1.76 1.92,-1.76 C -0.8,-1.76 0,-0.96 0,0 Z"
         style="fill:none;stroke:#000000;stroke-width:0.96;stroke-linecap:round;stroke-linejoin:round;stroke-miterlimit:10;stroke-dasharray:none;stroke-opacity:1"
         id="path27796" /></g><g
       id="g27798"
       transform="matrix(0.26458333,0,0,0.26458333,1.00199,-76.815971)"><path
         d="m 100.16,637.12 v 7.52001"
         style="fill:none;stroke:#000000;stroke-width:0.96;stroke-linecap:round;stroke-linejoin:round;stroke-miterlimit:10;stroke-dasharray:none;stroke-opacity:1"
         id="path27800" /></g><g
       id="g27802"
       transform="matrix(0.26458333,0,0,0.26458333,1.00199,-76.815971)"><path
         d="M 105.76,583.20001 H 116.8"
         style="fill:none;stroke:#000000;stroke-width:0.96;stroke-linecap:round;stroke-linejoin:round;stroke-miterlimit:10;stroke-dasharray:none;stroke-opacity:1"
         id="path27804" /></g><g
       id="g27806"
       transform="matrix(0.26458333,0,0,0.26458333,33.38699,78.632032)"><path
         d="M 0,0 V -2.24 H -9.92 V 2.72 L 0,-2.24 Z M 0,2.72 V 0.48 H -5.6 V 3.36 L 0,0.48 Z"
         style="fill:#ffffff;fill-opacity:1;fill-rule:evenodd;stroke:none"
         id="path27808" /></g><g
       id="g27810"
       transform="matrix(0.26458333,0,0,0.26458333,1.00199,-76.815971)"><path
         d="m 122.4,587.52002 v -2.23999 h -9.92 v 4.95996 l 9.92,-4.95996"
         style="fill:none;stroke:#000000;stroke-width:0.48;stroke-linecap:round;stroke-linejoin:round;stroke-miterlimit:10;stroke-dasharray:none;stroke-opacity:1"
         id="path27812" /></g><g
       id="g27814"
       transform="matrix(0.26458333,0,0,0.26458333,1.00199,-76.815971)"><path
         d="M 122.4,590.23999 V 588 h -5.6 v 2.88 l 5.6,-2.88"
         style="fill:none;stroke:#000000;stroke-width:0.48;stroke-linecap:round;stroke-linejoin:round;stroke-miterlimit:10;stroke-dasharray:none;stroke-opacity:1"
         id="path27816" /></g><g
       id="g27818"
       transform="matrix(0.26458333,0,0,0.26458333,1.00199,-76.815971)"><path
         d="m 123.52,585.28003 v 4.95996"
         style="fill:none;stroke:#000000;stroke-width:0.48;stroke-linecap:round;stroke-linejoin:round;stroke-miterlimit:10;stroke-dasharray:none;stroke-opacity:1"
         id="path27820" /></g><g
       id="g27822"
       transform="matrix(0.26458333,0,0,0.26458333,33.13299,77.40436)"><path
         d="m 0,0 c 0,0 -0.16,-0.16 -0.16,-0.16 0,0 -0.16,-0.16 -0.16,-0.16 -0.16,0 -0.16,0 -0.32,0 v 0 c 0.16,0 0.16,-0.16 0.16,-0.16 0.16,0 0.16,0 0.16,-0.16 0.16,0 0.16,0 0.16,-0.16 0,0 0,-0.16 0,-0.16 0,-0.16 0,-0.16 0,-0.32 -0.16,0 -0.16,-0.16 -0.16,-0.16 -0.16,0 -0.16,-0.16 -0.32,-0.16 -0.16,0 -0.16,0 -0.32,0 -0.16,0 -0.16,0 -0.32,0 0,0 -0.16,0 -0.16,0 -0.16,0.16 -0.16,0.16 -0.16,0.16 0,0 -0.16,0 -0.16,0 0,0 0,0 0,0 0,0 0,0 0,0 0,0.16 0,0.16 0,0.16 0,0 0,0 0,0 0,0 0,0 0,0.16 0,0 0,0 0,0 0,0 0,0 0,0 0,0 0,0 0,0 0.16,0 0.16,0 0.16,0 0,0 0.16,0 0.16,-0.16 0,0 0.16,0 0.16,0 0,0 0.16,0 0.16,0 0.16,0 0.16,0 0.32,0 0,0 0,0 0,0.16 0.16,0 0.16,0 0.16,0 0,0.16 0,0.16 0,0.16 0,0.16 0,0.16 0,0.16 0,0.16 -0.16,0.16 -0.16,0.16 0,0 0,0.16 -0.16,0.16 0,0 -0.16,0 -0.16,0 h -0.16 c -0.16,0 -0.16,0 -0.16,0 0,0 0,0 0,0 0,0 0,0 0,0 0,0.16 0,0.16 0,0.16 0,0 0,0 0,0 0,0.16 0,0.16 0,0.16 0,0 0,0 0,0 0,0 0.16,0 0.16,0 h 0.16 c 0.16,0 0.16,0 0.32,0 0,0 0.16,0 0.16,0.16 0,0 0.16,0 0.16,0.16 0,0 0,0 0,0.16 0,0 0,0 0,0.16 0,0 -0.16,0 -0.16,0 0,0.16 0,0.16 -0.16,0.16 0,0 -0.16,0 -0.16,0 -0.16,0 -0.16,0 -0.32,0 0,0 -0.16,0 -0.16,-0.16 -0.16,0 -0.16,0 -0.16,0 0,0 0,0 -0.16,0 0,0 0,0 0,0 0,0 0,0 0,0.16 0,0 0,0 0,0 0,0 0,0 0,0.16 0,0 0,0 0,0 0,0 0,0 0,0 0,0 0.16,0 0.16,0 0,0 0,0 0.16,0.16 0,0 0.16,0 0.16,0 0.16,0 0.16,0 0.32,0 0.16,0 0.16,0 0.32,0 C -0.48,0.8 -0.32,0.8 -0.32,0.8 -0.16,0.64 -0.16,0.64 0,0.48 0,0.48 0,0.32 0,0.16 0,0.16 0,0 0,0 Z"
         style="fill:#ff0000;fill-opacity:1;fill-rule:nonzero;stroke:none"
         id="path27824" /></g><g
       id="g27826"
       transform="matrix(0.26458333,0,0,0.26458333,33.598656,76.938694)"><path
         d="m 0,0 c 0,0 0,0 0,-0.16 0,0 0,0 0,0 0,0 0,0 -0.16,0 0,0 0,0 0,0 -0.16,0 -0.16,0 -0.16,0 0,0 0,0 -0.16,0 0,0 0,0 0,0 0,0 0,0 0,0.16 L -1.6,3.2 c 0,0 0,0 0,0.16 0,0 0,0 0,0 0,0 0,0 0.16,0 0,0 0,0 0,0 0.16,0 0.16,0 0.16,0 0,0 0,0 0.16,0 0,0 0,0 0,0 0,0 0,0 0,-0.16 z"
         style="fill:#ff0000;fill-opacity:1;fill-rule:nonzero;stroke:none"
         id="path27828" /></g><g
       id="g27830"
       transform="matrix(0.26458333,0,0,0.26458333,34.14899,77.446688)"><path
         d="m 0,0 c 0,0 0,0 -0.16,0 h -0.16 v -1.6 c 0,-0.16 0,-0.16 0,-0.16 0,0 0,0 0,0 -0.16,0 -0.16,0 -0.16,0 0,0 -0.16,0 -0.16,0 -0.16,0 -0.16,0 -0.16,0 0,0 -0.16,0 -0.16,0 0,0 0,0 0,0 0,0 0,0 -0.16,0 l -0.8,1.6 c 0,0 0,0 0,0 0,0.16 0,0.16 0,0.16 0,0 0,0 0,0 0,0 0,0.16 0,0.16 0,0 0,0 0,0 0,0.16 0,0.16 0,0.16 0,0 0,0 0,0 0.16,0 0.16,0 0.16,0 H -0.8 V 0.8 c 0,0 0,0 0,0 0,0 0,0 0,0 0,0 0.16,0 0.16,0 0,0 0,0 0,0 0.16,0 0.16,0 0.16,0 0,0 0.16,0 0.16,0 0,0 0,0 0,0 0,0 0,0 0,0 V 0.32 h 0.16 C 0,0.32 0,0.32 0,0.32 0,0.32 0,0.16 0,0.16 0,0.16 0,0 0,0 Z m -0.8,0 h -0.64 l 0.64,-1.44 v 0 z"
         style="fill:#ff0000;fill-opacity:1;fill-rule:nonzero;stroke:none"
         id="path27832" /></g><g
       id="g27834"
       transform="matrix(0.26458333,0,0,0.26458333,1.00199,-76.815971)"><path
         d="m 111.36,594.23999 1.28,2.23999 1.12,-1.91998 z"
         style="fill:#000000;fill-opacity:1;fill-rule:evenodd;stroke:none"
         id="path27836" /></g><g
       id="g27838"
       transform="matrix(0.26458333,0,0,0.26458333,1.00199,-76.815971)"><path
         d="m 116.8,596.47998 c -1.92,-0.15997 -4,-0.95996 -5.44,-2.23999"
         style="fill:none;stroke:#000000;stroke-width:0.48;stroke-linecap:butt;stroke-linejoin:miter;stroke-miterlimit:2;stroke-dasharray:none;stroke-opacity:1"
         id="path27840" /></g><g
       id="g27842"
       transform="matrix(0.26458333,0,0,0.26458333,1.00199,-76.815971)"><path
         d="m 111.36,594.23999 1.28,2.23999 1.12,-1.91998 z"
         style="fill:none;stroke:#000000;stroke-width:0.48;stroke-linecap:butt;stroke-linejoin:miter;stroke-miterlimit:2;stroke-dasharray:none;stroke-opacity:1"
         id="path27844" /></g><g
       id="g27846"
       transform="matrix(0.26458333,0,0,0.26458333,29.788656,81.891702)"><path
         d="m 0,0 c 0,0 -0.16,-0.16 -0.16,-0.16 0,0 -0.16,-0.16 -0.16,-0.16 -0.16,0 -0.16,0 -0.32,0 v 0 c 0.16,0 0.16,-0.16 0.16,-0.16 0.16,0 0.16,0 0.16,-0.16 0.16,0 0.16,0 0.16,-0.16 0,0 0,-0.16 0,-0.16 0,-0.16 0,-0.16 0,-0.32 -0.16,0 -0.16,-0.16 -0.16,-0.16 -0.16,0 -0.16,-0.16 -0.32,-0.16 0,0 -0.16,0 -0.32,0 -0.16,0 -0.16,0 -0.32,0 0,0 -0.16,0 -0.16,0 -0.16,0.16 -0.16,0.16 -0.16,0.16 0,0 -0.16,0 -0.16,0 0,0 0,0 0,0 0,0 0,0 0,0 0,0.16 0,0.16 0,0.16 0,0 0,0 0,0 0,0 0,0 0,0.16 0,0 0,0 0,0 0,0 0,0 0,0 0,0 0,0 0,0 0.16,0 0.16,0 0.16,0 0,0 0.16,0 0.16,-0.16 0,0 0.16,0 0.16,0 0,0 0.16,0 0.16,0 0.16,0 0.16,0 0.32,0 0,0 0,0 0,0.16 0.16,0 0.16,0 0.16,0 0,0.16 0,0.16 0,0.16 0,0.16 0,0.16 0,0.16 0,0.16 -0.16,0.16 -0.16,0.16 0,0 0,0.16 -0.16,0.16 0,0 -0.16,0 -0.16,0 h -0.16 c -0.16,0 -0.16,0 -0.16,0 0,0 0,0 0,0 0,0 0,0 0,0 0,0.16 0,0.16 0,0.16 0,0 0,0 0,0 0,0.16 0,0.16 0,0.16 0,0 0,0 0,0 0,0 0.16,0 0.16,0 h 0.16 c 0.16,0 0.16,0 0.32,0 0,0 0.16,0 0.16,0.16 0,0 0.16,0 0.16,0.16 0,0 0,0 0,0.16 0,0 0,0 0,0.16 0,0 -0.16,0 -0.16,0 0,0.16 0,0.16 -0.16,0.16 0,0 -0.16,0 -0.16,0 -0.16,0 -0.16,0 -0.32,0 0,0 -0.16,0 -0.16,-0.16 -0.16,0 -0.16,0 -0.16,0 0,0 0,0 -0.16,0 0,0 0,0 0,0 0,0 0,0 0,0.16 0,0 0,0 0,0 0,0 0,0 0,0.16 0,0 0,0 0,0 0,0 0,0 0,0 0,0 0.16,0 0.16,0 0,0 0,0 0.16,0.16 0,0 0.16,0 0.16,0 0.16,0 0.16,0 0.32,0 0.16,0 0.16,0 0.32,0 C -0.48,0.8 -0.32,0.8 -0.32,0.8 -0.16,0.64 -0.16,0.64 0,0.48 0,0.48 0,0.32 0,0.16 0,0.16 0,0 0,0 Z"
         style="fill:#ff0000;fill-opacity:1;fill-rule:nonzero;stroke:none"
         id="path27848" /></g><g
       id="g27850"
       transform="matrix(0.26458333,0,0,0.26458333,30.21199,81.426032)"><path
         d="m 0,0 c 0,0 0,0 0,-0.16 0,0 0,0 0,0 0,0 0,0 -0.16,0 0,0 0,0 0,0 -0.16,0 -0.16,0 -0.16,0 0,0 0,0 -0.16,0 0,0 0,0 0,0 0,0 0,0 0,0.16 L -1.6,3.2 c 0,0 0,0 0,0.16 0,0 0,0 0,0 0,0 0,0 0.16,0 0,0 0,0 0,0 0.16,0 0.16,0 0.16,0 0,0 0,0 0.16,0 0,0 0,0 0,0 0,0 0,0 0,-0.16 z"
         style="fill:#ff0000;fill-opacity:1;fill-rule:nonzero;stroke:none"
         id="path27852" /></g><g
       id="g27854"
       transform="matrix(0.26458333,0,0,0.26458333,30.762323,81.934027)"><path
         d="m 0,0 c 0,0 0,0 0,0 h -0.32 v -1.6 c 0,-0.16 0,-0.16 0,-0.16 0,0 0,0 0,0 -0.16,0 -0.16,0 -0.16,0 0,0 -0.16,0 -0.16,0 -0.16,0 -0.16,0 -0.16,0 0,0 -0.16,0 -0.16,0 0,0 0,0 0,0 0,0 0,0 0,0 l -0.96,1.6 c 0,0 0,0 0,0 0,0.16 0,0.16 0,0.16 0,0 0,0 0,0 0,0 0,0.16 0,0.16 0,0 0,0 0,0 0,0.16 0,0.16 0,0.16 0,0 0,0 0,0 0.16,0 0.16,0 0.16,0 H -0.8 V 0.8 c 0,0 0,0 0,0 0,0 0,0 0,0 0,0 0.16,0 0.16,0 0,0 0,0 0,0 0.16,0 0.16,0 0.16,0 0,0 0.16,0 0.16,0 0,0 0,0 0,0 0,0 0,0 0,0 V 0.32 H 0 c 0,0 0,0 0,0 0,0 0,-0.16 0,-0.16 C 0,0.16 0,0 0,0 Z m -0.8,0 h -0.64 l 0.64,-1.44 v 0 z"
         style="fill:#ff0000;fill-opacity:1;fill-rule:nonzero;stroke:none"
         id="path27856" /></g></g></svg>
