<?xml version="1.0" encoding="UTF-8" standalone="no"?>
<!-- Created with Inkscape (http://www.inkscape.org/) -->

<svg
   width="6.7591643mm"
   height="16.975666mm"
   viewBox="0 0 6.7591643 16.975666"
   version="1.1"
   id="svg20541"
   inkscape:version="1.2.2 (732a01da63, 2022-12-09)"
   sodipodi:docname="6.svg"
   xmlns:inkscape="http://www.inkscape.org/namespaces/inkscape"
   xmlns:sodipodi="http://sodipodi.sourceforge.net/DTD/sodipodi-0.dtd"
   xmlns="http://www.w3.org/2000/svg"
   xmlns:svg="http://www.w3.org/2000/svg">
  <sodipodi:namedview
     id="namedview20543"
     pagecolor="#ffffff"
     bordercolor="#000000"
     borderopacity="0.25"
     inkscape:showpageshadow="2"
     inkscape:pageopacity="0.0"
     inkscape:pagecheckerboard="0"
     inkscape:deskcolor="#d1d1d1"
     inkscape:document-units="mm"
     showgrid="false"
     inkscape:zoom="0.76880612"
     inkscape:cx="31.217233"
     inkscape:cy="32.517951"
     inkscape:window-width="1920"
     inkscape:window-height="1017"
     inkscape:window-x="-8"
     inkscape:window-y="-8"
     inkscape:window-maximized="1"
     inkscape:current-layer="layer1" />
  <defs
     id="defs20538" />
  <g
     inkscape:label="Layer 1"
     inkscape:groupmode="layer"
     id="layer1"
     transform="translate(-96.767585,-139.84009)">
    <g
       id="g16706"
       transform="matrix(0.26458333,0,0,0.26458333,101.17025,140.43276)">
      <path
         d="M 0,0 V 2.88 L 0.16,3.36 H 0.48 0.96 V 2.88 0 -0.32 L 0.48,-0.48 0.16,-0.32 Z M 0,5.76 V 8.64 L 0.16,9.12 H 0.48 0.96 V 8.64 5.76 5.44 L 0.48,5.28 0.16,5.44 Z m 0,5.76 v 2.88 l 0.16,0.48 H 0.48 0.96 V 14.4 11.52 11.2 L 0.48,11.04 0.16,11.2 Z m 0,5.760001 V 20.16 l 0.16,0.479999 H 0.48 0.96 V 20.16 17.280001 16.959999 l -0.48,-0.16 -0.32,0.16 z m 0,5.76 V 25.92 l 0.16,0.48 h 0.32 0.48 v -0.48 -2.879999 -0.320002 l -0.48,-0.16 -0.32,0.16 z m 0,5.759998 V 31.68 l 0.16,0.48 H 0.48 0.96 V 31.68 28.799999 28.48 L 0.48,28.32 0.16,28.48 Z m 0,5.760002 v 2.879998 l 0.16,0.479999 h 0.32 0.48 v -0.479999 -2.879998 -0.319999 l -0.48,-0.16 -0.32,0.16 z M 0,40.32 v 2.880001 L 0.16,43.68 H 0.48 0.96 V 43.200001 40.32 40 L 0.48,39.84 0.16,40 Z m 0,5.760002 v 2.879997 l 0.16,0.48 h 0.32 0.48 v -0.48 -2.879997 -0.320004 l -0.48,-0.16 -0.32,0.16 z M 0,51.84 v 2.880001 l 0.16,0.48 h 0.32 0.48 v -0.48 V 51.84 51.52 L 0.48,51.360001 0.16,51.52 Z m 0.48,5.279999 H -2.4 l -0.32,0.16 -0.16,0.319999 0.16,0.480004 h 0.32 2.88 0.48 v -0.480004 -0.319999 z m -5.76,0 h -2.88 l -0.32,0.16 -0.16,0.319999 0.16,0.480004 h 0.32 2.88 0.48 v -0.480004 -0.319999 z m -5.76,0 h -2.88 l -0.32,0.16 -0.16,0.319999 0.16,0.480004 h 0.32 2.88 0.48 v -0.480004 -0.319999 z"
         style="fill:#ff0000;fill-opacity:1;fill-rule:nonzero;stroke:none"
         id="path16708" />
    </g>
    <g
       id="g16710"
       transform="matrix(0.26458333,0,0,0.26458333,98.376252,140.43276)">
      <path
         d="m 0,0 c 0,1.12 -0.8,1.92 -1.92,1.92 -0.96,0 -1.92,-0.8 -1.92,-1.92 0,-0.96 0.96,-1.76 1.92,-1.76 C -0.8,-1.76 0,-0.96 0,0 Z"
         style="fill:#000000;fill-opacity:1;fill-rule:evenodd;stroke:none"
         id="path16712" />
    </g>
    <g
       id="g16714"
       transform="matrix(0.26458333,0,0,0.26458333,98.376252,140.43276)">
      <path
         d="m 0,0 c 0,1.12 -0.8,1.92 -1.92,1.92 -0.96,0 -1.92,-0.8 -1.92,-1.92 0,-0.96 0.96,-1.76 1.92,-1.76 C -0.8,-1.76 0,-0.96 0,0 Z m -5.6,53.919998 v 7.520001 M 0,0 h 11.04"
         style="fill:none;stroke:#000000;stroke-width:0.96;stroke-linecap:round;stroke-linejoin:round;stroke-miterlimit:10;stroke-dasharray:none;stroke-opacity:1"
         id="path16716" />
    </g>
    <g
       id="g16718"
       transform="matrix(0.26458333,0,0,0.26458333,102.77892,141.57576)">
      <path
         d="M 0,0 V -2.24 H -9.92 V 2.72 L 0,-2.24 Z M 0,2.72 V 0.48 H -5.6 V 3.36 L 0,0.48 Z"
         style="fill:#ffffff;fill-opacity:1;fill-rule:evenodd;stroke:none"
         id="path16720" />
    </g>
    <g
       id="g16722"
       transform="matrix(0.26458333,0,0,0.26458333,102.77892,141.57576)">
      <path
         d="M 0,0 V -2.24 H -9.92 V 2.72 L 0,-2.24 M 0,2.72 V 0.48 H -5.6 V 3.36 L 0,0.48 m 1.12,-2.72 v 4.96"
         style="fill:none;stroke:#000000;stroke-width:0.48;stroke-linecap:round;stroke-linejoin:round;stroke-miterlimit:10;stroke-dasharray:none;stroke-opacity:1"
         id="path16724" />
    </g>
    <g
       id="g16726"
       transform="matrix(0.00322977,0,0,0.00322977,70.393919,-13.872241)">
      <text
         xml:space="preserve"
         transform="translate(9791.04,47828.199)"
         style="font-variant:normal;font-weight:normal;font-size:327.68px;font-family:F4;-inkscape-font-specification:F4;writing-mode:lr-tb;fill:#ff0000;fill-opacity:1;fill-rule:nonzero;stroke:none"
         id="text16730"><tspan
           x="0 170.3936 314.57278"
           y="0"
           sodipodi:role="line"
           id="tspan16728">3/4</tspan></text>
    </g>
    <g
       id="g16732"
       transform="matrix(0.26458333,0,0,0.26458333,70.393919,-13.872241)">
      <path
         d="m 111.36,594.23999 1.28,2.23999 1.12,-1.91998 z"
         style="fill:#000000;fill-opacity:1;fill-rule:evenodd;stroke:none"
         id="path16734" />
    </g>
    <g
       id="g16736"
       transform="matrix(0.26458333,0,0,0.26458333,101.29725,143.94642)">
      <path
         d="m 0,0 c -1.92,-0.16 -4,-0.96 -5.44,-2.24 m 0,0 1.28,2.24 1.12,-1.92 z"
         style="fill:none;stroke:#000000;stroke-width:0.48;stroke-linecap:butt;stroke-linejoin:miter;stroke-miterlimit:2;stroke-dasharray:none;stroke-opacity:1"
         id="path16738" />
    </g>
    <g
       id="g16740"
       transform="matrix(0.00322977,0,0,0.00322977,70.393919,-13.872241)">
      <text
         xml:space="preserve"
         transform="translate(8755.6797,49217.602)"
         style="font-variant:normal;font-weight:normal;font-size:327.68px;font-family:F4;-inkscape-font-specification:F4;writing-mode:lr-tb;fill:#ff0000;fill-opacity:1;fill-rule:nonzero;stroke:none"
         id="text16744"><tspan
           x="0 157.28639 301.46561"
           y="0"
           sodipodi:role="line"
           id="tspan16742">3/4</tspan></text>
    </g>
  </g>
</svg>
