<?xml version="1.0" standalone="no"?>
<!DOCTYPE svg PUBLIC "-//W3C//DTD SVG 1.2//EN" "http://www.w3.org/Graphics/SVG/1.2/DTD/svg12.dtd">
<svg xmlns="http://www.w3.org/2000/svg" version="1.2" baseProfile="tiny" id="selectedFigureSvg" width="100px" height="100px" viewBox="-42.13 -104.26 122.21 113.42"><g id="sequence"><g id="figure-2"><path d="M 0,0 m -4,0 a4,4 0 1 1 0,0.01" style="stroke: black; stroke-width: 1px; fill: black;"/><path d="M 4,0 l 54,0" style="stroke: black; stroke-width: 3px; fill: none;" class="line" id="figure-2-entry"/><path d="M 58,0 l -31.82,-31.82" style="stroke-dasharray: 10, 8; stroke: red; stroke-width: 3px; fill: none; " class="line" id="figure-2-roll1-gap0"/><path d="M 26.18,-31.82 m 24.57,-8.6 l -12.16,-3.03 l 2.07,7.73 z" style="stroke: black; stroke-width: 2px; fill: black;"/><path d="M 26.18,-31.82 m 24.57,-8.6 a 30,30 0 0 0 -24.57,8.6 " style="stroke: black; stroke-width: 3px; fill: none;"/><text style="font-family: Arial, Sans; font-size: 20px; font-weight: bold; fill: red;" text-anchor="middle" x="59.52" y="-53.1">1/4</text><path d="M 26.18,-31.82 l -12.73,-12.73" style="stroke-dasharray: 10, 8; stroke: red; stroke-width: 3px; fill: none; " class="line" id="figure-2-roll1-gap1"/><path d="M 13.45,-44.55 m -8.6,24.57 l -3.03,-12.16 l 7.73,2.07 z" style="stroke: black; stroke-width: 2px; fill: black;"/><path d="M 13.45,-44.55 m -8.6,24.57 a 30,30 0 0 1 8.6,-24.57 " style="stroke: black; stroke-width: 3px; fill: none;"/><text style="font-family: Arial, Sans; font-size: 20px; font-weight: bold; fill: red;" text-anchor="middle" x="-19.89" y="-9.27">2x8</text><path d="M 13.45,-44.55 l -44.55,-44.55" style="stroke-dasharray: 10, 8; stroke: red; stroke-width: 3px; fill: none; " class="line" id="figure-2-roll1-gap2"/><path d="M -31.1,-89.1 l 54,0" style="stroke: black; stroke-width: 3px; fill: none;" class="line" id="figure-2-exit"/><path d="M 22.9,-89.1 l 0,-10 l 0,20" style="stroke: black; stroke-width: 3px; fill: none;"/></g></g></svg>