<?xml version="1.0" encoding="UTF-8" standalone="no"?>
<!-- Created with Inkscape (http://www.inkscape.org/) -->

<svg
   width="15.967742mm"
   height="19.693546mm"
   viewBox="0 0 15.967743 19.693543"
   version="1.1"
   id="svg15577"
   inkscape:version="1.2.2 (732a01da63, 2022-12-09)"
   sodipodi:docname="7.svg"
   xml:space="preserve"
   xmlns:inkscape="http://www.inkscape.org/namespaces/inkscape"
   xmlns:sodipodi="http://sodipodi.sourceforge.net/DTD/sodipodi-0.dtd"
   xmlns="http://www.w3.org/2000/svg"
   xmlns:svg="http://www.w3.org/2000/svg"><sodipodi:namedview
     id="namedview15579"
     pagecolor="#ffffff"
     bordercolor="#000000"
     borderopacity="0.25"
     inkscape:showpageshadow="2"
     inkscape:pageopacity="0.0"
     inkscape:pagecheckerboard="true"
     inkscape:deskcolor="#d1d1d1"
     inkscape:document-units="mm"
     showgrid="false"
     showborder="false"
     inkscape:zoom="2.9825758"
     inkscape:cx="253.47219"
     inkscape:cy="90.1905"
     inkscape:window-width="1920"
     inkscape:window-height="1017"
     inkscape:window-x="1912"
     inkscape:window-y="-8"
     inkscape:window-maximized="1"
     inkscape:current-layer="layer1" /><defs
     id="defs15574" /><g
     inkscape:label="Layer 1"
     inkscape:groupmode="layer"
     id="layer1"
     transform="translate(-20.341909,-72.689682)"><g
       id="g15014"
       transform="matrix(0.26458333,0,0,0.26458333,49.253236,55.298379)" /><g
       id="g13720"
       transform="matrix(0.26458333,0,0,0.26458333,18.006939,-99.253542)" /><g
       id="g18168"
       transform="matrix(0.26458333,0,0,0.26458333,27.213146,49.421226)" /><g
       id="g27858"
       transform="matrix(0.26458333,0,0,0.26458333,33.922817,83.435444)"><path
         d="M 0,0 H -2.88 L -3.2,-0.16 -3.36,-0.48 -3.2,-0.8 -2.88,-0.96 H 0 l 0.32,0.16 0.16,0.32 -0.16,0.32 z m -5.76,0 h -2.88 l -0.32,-0.16 -0.16,-0.32 0.16,-0.32 0.32,-0.16 h 2.88 l 0.32,0.16 0.16,0.32 -0.16,0.32 z m -5.76,0 h -2.88 l -0.32,-0.16 -0.16,-0.32 0.16,-0.32 0.32,-0.16 h 2.88 l 0.32,0.16 0.16,0.32 -0.16,0.32 z m -5.760001,0 H -20.16 l -0.32,-0.16 -0.159999,-0.32 0.159999,-0.32 0.32,-0.16 h 2.879999 l 0.320002,0.16 0.16,0.32 -0.16,0.32 z m -5.76,0 H -25.92 l -0.32,-0.16 -0.16,-0.32 0.16,-0.32 0.32,-0.16 h 2.879999 l 0.320002,0.16 0.16,0.32 -0.16,0.32 z m -5.759998,0 H -31.68 L -32,-0.16 -32.16,-0.48 -32,-0.8 l 0.32,-0.16 h 2.880001 l 0.319999,0.16 0.16,0.32 -0.16,0.32 z m -5.760002,0 h -2.879998 l -0.319999,-0.16 -0.16,-0.32 0.16,-0.32 0.319999,-0.16 h 2.879998 l 0.319999,0.16 0.16,0.32 -0.16,0.32 z M -40.32,0 h -2.560001 l -0.32,-0.16 -0.16,-0.32 0.16,-0.32 0.32,-0.16 H -40.32 l 0.32,0.16 0.16,0.32 -0.16,0.32 z m 15.039999,-18.719999 2.08,-2.08 0.320002,-0.16 0.32,0.16 V -20.16 l -2.08,2.08 h -0.640002 l -0.16,-0.32 z m 4,-4.16 2.08,-1.92 0.320002,-0.16 0.32,0.16 L -18.4,-24.48 l -0.159999,0.32 -1.920001,2.08 -0.479999,0.16 -0.320002,-0.16 -0.16,-0.32 z m 4.16,-4 1.920001,-2.08 0.48,-0.160002 0.32,0.160002 0.16,0.32 -0.16,0.319999 -2.08,2.08 -0.319999,0.16 -0.320002,-0.16 z m 4.000001,-4.160002 2.08,-1.919998 h 0.64 l 0.16,0.32 -0.16,0.319999 -2.08,2.08 -0.32,0.16 -0.32,-0.16 z m 4.16,-4 v -0.16 l 0.32,-0.16 0.48,0.16 v 0.799999 h -0.16 l -0.32,0.16 -0.32,-0.16 -0.16,-0.319999 z"
         style="fill:#ff0000;fill-opacity:1;fill-rule:nonzero;stroke:none"
         id="path27860" /></g><g
       id="g27862"
       transform="matrix(0.26458333,0,0,0.26458333,33.922817,83.308433)"><path
         d="M 0,0 C 0,1.12 0.8,1.92 1.92,1.92 2.88,1.92 3.84,1.12 3.84,0 3.84,-0.96 2.88,-1.92 1.92,-1.92 0.8,-1.92 0,-0.96 0,0 Z"
         style="fill:#000000;fill-opacity:1;fill-rule:evenodd;stroke:none"
         id="path27864" /></g><g
       id="g27866"
       transform="matrix(0.26458333,0,0,0.26458333,33.922817,83.308433)"><path
         d="M 0,0 C 0,1.12 0.8,1.92 1.92,1.92 2.88,1.92 3.84,1.12 3.84,0 3.84,-0.96 2.88,-1.92 1.92,-1.92 0.8,-1.92 0,-0.96 0,0 Z"
         style="fill:none;stroke:#000000;stroke-width:0.96;stroke-linecap:round;stroke-linejoin:round;stroke-miterlimit:10;stroke-dasharray:none;stroke-opacity:1"
         id="path27868" /></g><g
       id="g27870"
       transform="matrix(0.26458333,0,0,0.26458333,-2.102849,-99.148226)"><path
         d="M 92,716.64001 V 709.12"
         style="fill:none;stroke:#000000;stroke-width:0.96;stroke-linecap:round;stroke-linejoin:round;stroke-miterlimit:10;stroke-dasharray:none;stroke-opacity:1"
         id="path27872" /></g><g
       id="g27874"
       transform="matrix(0.26458333,0,0,0.26458333,-2.102849,-99.148226)"><path
         d="M 93.279999,689.59998 111.2,671.67999"
         style="fill:none;stroke:#000000;stroke-width:0.96;stroke-linecap:round;stroke-linejoin:round;stroke-miterlimit:10;stroke-dasharray:none;stroke-opacity:1"
         id="path27876" /></g><g
       id="g27878"
       transform="matrix(0.26458333,0,0,0.26458333,-2.102849,-99.148226)"><path
         d="m 127.52,655.20001 v 57.44"
         style="fill:none;stroke:#000000;stroke-width:0.96;stroke-linecap:round;stroke-linejoin:round;stroke-miterlimit:10;stroke-dasharray:none;stroke-opacity:1"
         id="path27880" /></g><g
       id="g27882"
       transform="matrix(0.26458333,0,0,0.26458333,-2.102849,-99.148226)"><path
         d="M 127.52,712.64001 92,712.79999"
         style="fill:none;stroke:#000000;stroke-width:0.96;stroke-linecap:round;stroke-linejoin:round;stroke-miterlimit:10;stroke-dasharray:none;stroke-opacity:1"
         id="path27884" /></g><g
       id="g27886"
       transform="matrix(0.26458333,0,0,0.26458333,-2.102849,-99.148226)"><path
         d="M 99.839996,671.20001 103.68,667.35998"
         style="fill:none;stroke:#000000;stroke-width:0.48;stroke-linecap:round;stroke-linejoin:round;stroke-miterlimit:10;stroke-dasharray:none;stroke-opacity:1"
         id="path27888" /></g><g
       id="g27890"
       transform="matrix(0.26458333,0,0,0.26458333,24.609484,78.440108)"><path
         d="M 0,0 3.52,-0.96 2.88,2.08 Z M 2.72,-2.88 6.24,-3.68 5.6,-0.8 Z"
         style="fill:#000000;fill-opacity:1;fill-rule:evenodd;stroke:none"
         id="path27892" /></g><g
       id="g27894"
       transform="matrix(0.26458333,0,0,0.26458333,-2.102849,-99.148226)"><path
         d="m 111.36,680.47998 c -0.16,-2.23999 -1.12,-4.32001 -2.72,-6.07996 -2.08,-1.92004 -4.8,-3.04004 -7.68,-3.20001"
         style="fill:none;stroke:#000000;stroke-width:0.48;stroke-linecap:butt;stroke-linejoin:miter;stroke-miterlimit:2;stroke-dasharray:none;stroke-opacity:1"
         id="path27896" /></g><g
       id="g27898"
       transform="matrix(0.26458333,0,0,0.26458333,-2.102849,-99.148226)"><path
         d="m 111.36,671.67999 c -2.08,-1.91998 -4.8,-3.03998 -7.68,-3.35998"
         style="fill:none;stroke:#000000;stroke-width:0.48;stroke-linecap:butt;stroke-linejoin:miter;stroke-miterlimit:2;stroke-dasharray:none;stroke-opacity:1"
         id="path27900" /></g><g
       id="g27902"
       transform="matrix(0.26458333,0,0,0.26458333,-2.102849,-99.148226)"><path
         d="m 100.96,671.20001 3.52,-0.96002 -0.64,3.04004 z"
         style="fill:none;stroke:#000000;stroke-width:0.48;stroke-linecap:butt;stroke-linejoin:miter;stroke-miterlimit:2;stroke-dasharray:none;stroke-opacity:1"
         id="path27904" /></g><g
       id="g27906"
       transform="matrix(0.26458333,0,0,0.26458333,-2.102849,-99.148226)"><path
         d="m 103.68,668.32001 3.52,-0.79999 -0.64,2.88 z"
         style="fill:none;stroke:#000000;stroke-width:0.48;stroke-linecap:butt;stroke-linejoin:miter;stroke-miterlimit:2;stroke-dasharray:none;stroke-opacity:1"
         id="path27908" /></g><g
       id="g27910"
       transform="matrix(0.26458333,0,0,0.26458333,23.17015,79.921769)"><path
         d="m 0,0 c 0,0.16 0,0.32 0,0.48 -0.16,0 -0.16,0.16 -0.32,0.32 -0.16,0 -0.32,0.16 -0.48,0.16 -0.16,0 -0.32,0 -0.48,0 -0.16,0 -0.32,0 -0.32,0 -0.16,0 -0.32,0 -0.32,0 -0.16,0 -0.16,0 -0.16,-0.16 -0.16,0 -0.16,0 -0.16,0 V 0.64 c 0,-0.16 0,-0.16 0,-0.16 0,-0.16 0,-0.16 0,-0.16 V 0.16 c 0,0 0,0.16 0.16,0.16 0,0 0,0 0.16,0 l 0.16,0.16 c 0.16,0 0.32,0 0.32,0 0.16,0 0.16,0 0.32,0 L -0.96,0.32 -0.8,0.16 V 0 c 0,-0.16 0,-0.16 0,-0.32 0,0 -0.16,0 -0.16,-0.16 0,0 -0.16,0 -0.32,0 0,0 -0.16,0 -0.32,0 h -0.32 c 0,0 0,0 0,-0.16 V -0.8 -0.96 -1.12 h 0.32 c 0.16,0 0.32,0 0.32,0 0.16,0 0.16,0 0.16,-0.16 0.16,0 0.16,0 0.16,-0.16 0,0 0,0 0,-0.16 v -0.16 -0.16 c -0.16,0 -0.16,0 -0.16,0 -0.16,-0.16 -0.16,-0.16 -0.32,-0.16 l -0.16,0.16 c -0.16,0 -0.16,0 -0.32,0 0,0 0,0.16 -0.16,0.16 0,0 0,0 -0.16,0 0,0 0,0 0,-0.16 0,-0.16 0,-0.16 0,-0.16 v -0.16 c 0,0 0,0 0.16,0 V -2.4 c 0.16,0 0.16,0 0.32,0 0,-0.16 0.16,-0.16 0.16,-0.16 0.16,0 0.32,0 0.48,0 0.16,0 0.32,0 0.32,0 0.16,0.16 0.32,0.16 0.48,0.16 0,0.16 0,0.16 0.16,0.32 0,0.16 0,0.16 0,0.32 0,0.16 0,0.32 0,0.32 0,0.16 0,0.16 -0.16,0.32 l -0.16,0.16 c -0.16,0 -0.16,0 -0.32,0.16 0.16,0 0.32,0 0.32,0 0.16,0.16 0.16,0.16 0.32,0.16 0,0.16 0.16,0.16 0.16,0.32 0,0 0,0.16 0,0.32 z"
         style="fill:#ff0000;fill-opacity:1;fill-rule:nonzero;stroke:none"
         id="path27912" /></g><g
       id="g27914"
       transform="matrix(0.26458333,0,0,0.26458333,23.889817,80.133433)"><path
         d="m 0,0 v 0.16 h -0.16 -0.16 c -0.16,0 -0.16,0 -0.32,0 H -0.8 L -1.28,-0.8 -1.6,0.16 h -0.16 c 0,0 0,0 -0.16,0 0,0 0,0 -0.16,0 h -0.16 c 0,0 0,0 -0.16,0 V 0 l 0.64,-1.12 -0.48,-1.12 V -2.4 c 0.16,0 0.16,0 0.32,0 h 0.16 c 0,0 0,0 0.16,0 l 0.48,0.8 0.32,-0.8 c 0.16,0 0.16,0 0.16,0 0,0 0,0 0.16,0 0,0 0,0 0.16,0 0,0 0,0 0.16,0 0.16,0 0.16,0 0.16,0 0,0 0,0.16 -0.16,0.16 l -0.48,1.12 z"
         style="fill:#ff0000;fill-opacity:1;fill-rule:nonzero;stroke:none"
         id="path27916" /></g><g
       id="g27918"
       transform="matrix(0.26458333,0,0,0.26458333,24.609484,80.091105)"><path
         d="m 0,0 c 0,0.16 0,0.16 -0.16,0.16 0,0 0,0 0,0.16 H -2.24 -2.4 V 0.16 c 0,0 0,0 0,-0.16 0,0 0,0 0,-0.16 0,-0.16 0,-0.16 0.16,-0.16 0,0 0,0 0,-0.16 l 0.64,-0.64 c 0.16,-0.16 0.16,-0.16 0.32,-0.32 0,-0.16 0,-0.16 0.16,-0.32 v -0.16 c 0,-0.16 0,-0.16 0,-0.16 0,-0.16 0,-0.16 0,-0.16 0,-0.16 0,-0.16 0,-0.16 -0.16,-0.16 -0.16,-0.16 -0.16,-0.16 -0.16,0 -0.16,0 -0.16,0 -0.16,0 -0.32,0 -0.32,0 -0.16,0 -0.16,0 -0.16,0.16 -0.16,0 -0.16,0 -0.16,0 -0.16,0 -0.16,0.16 -0.16,0.16 V -2.4 c -0.16,0 -0.16,0 -0.16,-0.16 0,-0.16 0,-0.16 0,-0.16 0,0 0,0 0,-0.16 h 0.16 c 0,0 0,-0.16 0.16,-0.16 0,0 0,0 0.16,0 0.16,-0.16 0.16,-0.16 0.32,-0.16 0.16,0 0.16,0 0.32,0 0.16,0 0.32,0 0.48,0 0.16,0.16 0.16,0.16 0.32,0.32 0.16,0 0.16,0.16 0.16,0.16 0.16,0.16 0.16,0.32 0.16,0.48 0,0 0,0.16 -0.16,0.32 0,0 0,0.16 0,0.32 -0.16,0.16 -0.16,0.32 -0.32,0.48 -0.16,0 -0.32,0.32 -0.48,0.48 l -0.48,0.32 h 1.44 c 0,0 0,0 0,0.16 C 0,0 0,0 0,0 Z"
         style="fill:#ff0000;fill-opacity:1;fill-rule:nonzero;stroke:none"
         id="path27920" /></g></g></svg>
