<?xml version="1.0" standalone="no"?>
<!DOCTYPE svg PUBLIC "-//W3C//DTD SVG 1.2//EN" "http://www.w3.org/Graphics/SVG/1.2/DTD/svg12.dtd">
<svg xmlns="http://www.w3.org/2000/svg" version="1.2" baseProfile="tiny" id="selectedFigureSvg" width="100px" height="100px" viewBox="-108.78 -33.84 152.88 207.27"><g id="sequence"><g id="figure-2"><path d="M 0,0 m -4,0 a4,4 0 1 1 0,0.01" style="stroke: black; stroke-width: 1px; fill: black;"/><path d="M -4,0 l -20,0" style="stroke: black; stroke-width: 3px; fill: none;" class="line" id="figure-2-entry"/><path d="M -24,0 l 0,20" style="stroke-dasharray: 10, 8; stroke: red; stroke-width: 3px; fill: none; " class="line" id="figure-2-roll1-gap0"/><path d="M -24,20 m -23.25,0 l 0,12 " style="stroke: black; stroke-width: 3px; fill: none;"/><path d="M -24,20 m -24,0 l 36,18 l 0,-18 z" style="stroke: black; stroke-width: 1.5px; fill: white;"/><text style="font-family: Arial, Sans; font-size: 20px; font-weight: bold; fill: red;" text-anchor="middle" x="-87.93" y="39">3/4</text><path d="M -24,32 l 0,5" style="stroke-dasharray: 10, 8; stroke: red; stroke-width: 3px; fill: none; " class="line"/><path d="M -24,37 m -28.8,12 l 0,-29" style="stroke: black; stroke-width: 3px; fill: none;"/><path d="M -24,37 m -23.25,0 l 0,12 " style="stroke: black; stroke-width: 3px; fill: none;"/><path d="M -24,37 m -24,0 l 24,12 l 0,-12 z" style="stroke: black; stroke-width: 1.5px; fill: white;"/><path d="M -24,49 l 0,10" style="stroke-dasharray: 10, 8; stroke: red; stroke-width: 3px; fill: none; " class="line" id="figure-2-roll1-gap1"/><path d="M -24,59 m 23.45,-11.3 l -6.45,10.74 l -4,-6.93 z" style="stroke: black; stroke-width: 2px; fill: black;"/><path d="M -24,59 m 23.45,-11.3 a 30,30 0 0 1 -23.45,11.3 " style="stroke: black; stroke-width: 3px; fill: none;"/><text style="font-family: Arial, Sans; font-size: 20px; font-weight: bold; fill: red;" text-anchor="middle" x="23.14" y="66">3/4</text><path d="M -24,59 l 0,95" style="stroke-dasharray: 10, 8; stroke: red; stroke-width: 3px; fill: none; " class="line" id="figure-2-roll1-gap2"/><path d="M -24,154 l 20,0" style="stroke-dasharray: 10, 8; stroke: red; stroke-width: 3px; fill: none; " class="line" id="figure-2-exit"/><path d="M -4,154 l 0,10 l 0,-20" style="stroke: black; stroke-width: 3px; fill: none;"/></g></g></svg>