<?xml version="1.0" encoding="UTF-8" standalone="no"?>
<!-- Created with Inkscape (http://www.inkscape.org/) -->

<svg
   width="18.04435mm"
   height="12.96314mm"
   viewBox="0 0 18.04435 12.96314"
   version="1.1"
   id="svg20825"
   inkscape:version="1.2.2 (732a01da63, 2022-12-09)"
   sodipodi:docname="8.svg"
   xmlns:inkscape="http://www.inkscape.org/namespaces/inkscape"
   xmlns:sodipodi="http://sodipodi.sourceforge.net/DTD/sodipodi-0.dtd"
   xmlns="http://www.w3.org/2000/svg"
   xmlns:svg="http://www.w3.org/2000/svg">
  <sodipodi:namedview
     id="namedview20827"
     pagecolor="#ffffff"
     bordercolor="#000000"
     borderopacity="0.25"
     inkscape:showpageshadow="2"
     inkscape:pageopacity="0.0"
     inkscape:pagecheckerboard="0"
     inkscape:deskcolor="#d1d1d1"
     inkscape:document-units="mm"
     showgrid="false"
     inkscape:zoom="0.76880612"
     inkscape:cx="-13.007181"
     inkscape:cy="-13.007181"
     inkscape:window-width="1920"
     inkscape:window-height="1017"
     inkscape:window-x="-8"
     inkscape:window-y="-8"
     inkscape:window-maximized="1"
     inkscape:current-layer="layer1" />
  <defs
     id="defs20822" />
  <g
     inkscape:label="Layer 1"
     inkscape:groupmode="layer"
     id="layer1"
     transform="translate(-108.33241,-151.82666)">
    <g
       id="g16782"
       transform="matrix(0.26458333,0,0,0.26458333,117.52909,157.08513)">
      <path
         d="m 0,0 -2.08,-2.08 v -0.64 l 0.32,-0.16 0.32,0.16 2.08,2.08 L 0.8,-0.32 0.64,0 0.32,0.16 Z m -4.16,-4 -1.92,-2.08 -0.16,-0.32 0.16,-0.32 h 0.64 l 1.92,1.92 0.16,0.48 -0.16,0.32 -0.32,0.16 z m -4,-4.16 -2.08,-2.08 -0.16,-0.32 0.16,-0.32 h 0.64 l 2.08,2.08 v 0.64 L -7.84,-8 Z m -4.16,-4 -1.92,-2.08 -0.16,-0.32 0.16,-0.32 0.32,-0.16 0.32,0.16 2.08,2.08 0.16,0.32 -0.16,0.32 -0.32,0.16 z M -23.360001,1.92 h 0.32 l 0.320002,0.16 0.16,0.32 -0.16,0.48 h -0.320002 -0.32 H -23.68 l -0.16,-0.48 0.16,-0.32 z"
         style="fill:#ff0000;fill-opacity:1;fill-rule:nonzero;stroke:none"
         id="path16784" />
    </g>
    <g
       id="g16786"
       transform="matrix(0.26458333,0,0,0.26458333,120.32309,157.72013)">
      <path
         d="M 0,0 C 0,1.12 0.8,1.92 1.92,1.92 2.88,1.92 3.84,1.12 3.84,0 3.84,-0.96 2.88,-1.76 1.92,-1.76 0.8,-1.76 0,-0.96 0,0 Z"
         style="fill:#000000;fill-opacity:1;fill-rule:evenodd;stroke:none"
         id="path16788" />
    </g>
    <g
       id="g16790"
       transform="matrix(0.26458333,0,0,0.26458333,120.32309,157.72013)">
      <path
         d="M 0,0 C 0,1.12 0.8,1.92 1.92,1.92 2.88,1.92 3.84,1.12 3.84,0 3.84,-0.96 2.88,-1.76 1.92,-1.76 0.8,-1.76 0,-0.96 0,0 Z M 22.4,26.24 V 18.719999 M 22.4,22.4 h -7.52 m 0,0 -25.12,-25.12 m -15.84,-15.839999 c -4.32,-4.32 -11.199999,-4.32 -15.519998,0 -4.32,4.159999 -4.32,11.199999 0,15.359999 2.079998,2.08 4.799999,3.2 7.68,3.2 m 0.32,0 L 0,0"
         style="fill:none;stroke:#000000;stroke-width:0.96;stroke-linecap:round;stroke-linejoin:round;stroke-miterlimit:10;stroke-dasharray:none;stroke-opacity:1"
         id="path16792" />
    </g>
    <g
       id="g16794"
       transform="matrix(0.26458333,0,0,0.26458333,87.176086,-42.304867)">
      <path
         d="m 91.68,751.52002 h 2.239998 l 3.68,7.83996 h -7.36 l 3.68,-7.83996 z"
         style="fill:#ffffff;fill-opacity:1;fill-rule:evenodd;stroke:none"
         id="path16796" />
    </g>
    <g
       id="g16798"
       transform="matrix(0.26458333,0,0,0.26458333,87.176086,-42.304867)">
      <path
         d="m 91.68,751.52002 h 2.239998 l 3.68,7.83996 h -7.36 l 3.68,-7.83996"
         style="fill:none;stroke:#000000;stroke-width:0.48;stroke-linecap:round;stroke-linejoin:round;stroke-miterlimit:10;stroke-dasharray:none;stroke-opacity:1"
         id="path16800" />
    </g>
    <g
       id="g16802"
       transform="matrix(0.26458333,0,0,0.26458333,87.176086,-42.304867)">
      <path
         d="m 117.6,747.67999 0.64,2.56 -2.08,-0.47998 z"
         style="fill:#000000;fill-opacity:1;fill-rule:evenodd;stroke:none"
         id="path16804" />
    </g>
    <g
       id="g16806"
       transform="matrix(0.26458333,0,0,0.26458333,117.65609,157.00047)">
      <path
         d="m 0,0 c 1.44,-1.6 2.24,-3.52 2.4,-5.6 m 0,0 0.64,2.56 -2.08,-0.48 z"
         style="fill:none;stroke:#000000;stroke-width:0.48;stroke-linecap:butt;stroke-linejoin:miter;stroke-miterlimit:2;stroke-dasharray:none;stroke-opacity:1"
         id="path16808" />
    </g>
    <g
       id="g16810"
       transform="matrix(0.26458333,0,0,0.26458333,119.09542,156.70412)">
      <path
         d="m 0,0 c 0,0 0,0.16 -0.16,0.16 0,0 0,0 0,0 h -0.16 v 0.48 c 0,0 0,0 0,0 0,0 -0.16,0 -0.16,0.16 0,0 0,0 0,0 0,0 -0.16,0 -0.16,0 0,0 0,0 -0.16,0 0,0 0,0 0,0 0,-0.16 0,-0.16 0,-0.16 0,0 0,0 0,0 V 0.16 h -0.96 c -0.16,0 -0.16,0 -0.16,0 0,0 0,0 0,0 0,0 0,0 0,0 0,-0.16 0,-0.16 0,-0.16 0,0 0,-0.16 0,-0.16 0,0 0,0 0,0 0,0 0,-0.16 0,-0.16 0,0 0,0 0,0 l 0.8,-1.44 c 0,0 0,0 0,0 0,0 0.16,0 0.16,0 0,0 0,0 0,0 0.16,0 0.16,0 0.16,0 0.16,0 0.16,0 0.16,0 0.16,0 0.16,0 0.16,0 0,0 0,0 0.16,0 0,0 0,0 0,0 v 1.6 h 0.16 c 0,0 0,0 0,0 C 0,-0.16 0,0 0,0 Z m -0.8,-1.44 v 0 l -0.8,1.28 h 0.8 z"
         style="fill:#ff0000;fill-opacity:1;fill-rule:nonzero;stroke:none"
         id="path16812" />
    </g>
    <g
       id="g16814"
       transform="matrix(0.26458333,0,0,0.26458333,119.56109,156.87346)">
      <path
         d="m 0,0 c 0,0 0,0 0,0 0,0 0,0 0,0 0,0.16 0,0.16 -0.16,0.16 0,0 0,0 0,0 -0.16,0 -0.16,0 -0.16,0 -0.16,0 -0.16,0 -0.16,0 0,0 0,-0.16 0,-0.16 0,0 0,0 0,0 L -0.8,-0.64 -1.12,0 c 0,0 0,0 0,0 -0.16,0 -0.16,0.16 -0.16,0.16 0,0 0,0 0,0 0,0 -0.16,0 -0.16,0 0,0 -0.16,0 -0.16,0 0,0 0,0 0,-0.16 0,0 -0.16,0 -0.16,0 0,0 0,0 0.16,0 l 0.48,-0.8 -0.48,-0.8 c 0,-0.16 0,-0.16 0,-0.16 0,0 0,0 0,0 0,0 0,0 0,0 0.16,0 0.16,0 0.16,0 0.16,0 0.16,0 0.16,0 0,0 0.16,0 0.16,0 0,0 0,0 0,0 0,0 0,0 0,0 l 0.32,0.64 0.32,-0.64 c 0,0 0,0 0,0 0,0 0,0 0,0 0,0 0.16,0 0.16,0 0,0 0,0 0,0 0.16,0 0.16,0 0.16,0 0.16,0 0.16,0 0.16,0 0,0 0,0 0,0 0,0 0,0 0,0.16 l -0.48,0.64 z"
         style="fill:#ff0000;fill-opacity:1;fill-rule:nonzero;stroke:none"
         id="path16816" />
    </g>
    <g
       id="g16818"
       transform="matrix(0.26458333,0,0,0.26458333,120.06909,156.70412)">
      <path
         d="m 0,0 c 0,0.16 0,0.32 0,0.32 0,0.16 -0.16,0.16 -0.16,0.32 0,0 -0.16,0 -0.32,0.16 -0.16,0 -0.16,0 -0.32,0 -0.16,0 -0.32,0 -0.48,0 0,-0.16 -0.16,-0.16 -0.16,-0.16 C -1.6,0.48 -1.6,0.48 -1.6,0.48 -1.76,0.32 -1.76,0.16 -1.76,0.16 c 0,-0.16 0,-0.16 0.16,-0.32 0,0 0,0 0,-0.16 0,0 0.16,0 0.16,-0.16 0,0 0.16,0 0.16,0 0,-0.16 0,-0.16 -0.16,-0.16 0,0 0,-0.16 -0.16,-0.16 0,0 0,-0.16 0,-0.16 0,0 0,-0.16 0,-0.16 0,-0.16 0,-0.16 0,-0.32 0,-0.16 0.16,-0.16 0.16,-0.16 0.16,-0.16 0.16,-0.16 0.32,-0.16 0,0 0.16,-0.16 0.32,-0.16 0.16,0 0.32,0.16 0.32,0.16 0.16,0 0.16,0 0.32,0.16 0,0 0.16,0 0.16,0.16 0,0 0,0.16 0,0.16 0,0.16 0,0.16 0,0.16 0,0.16 0,0.16 -0.16,0.32 0,0 0,0 -0.16,0 0,0.16 0,0.16 -0.16,0.16 0.16,0 0.16,0.16 0.32,0.16 0,0 0,0.16 0.16,0.16 0,0 0,0.16 0,0.16 0,0 0,0.16 0,0.16 z m -0.48,-1.12 c 0,-0.16 0,-0.16 0,-0.16 0,0 0,-0.16 -0.16,-0.16 0,0 0,0 0,0 0,0 -0.16,0 -0.16,0 -0.16,0 -0.16,0 -0.32,0 0,0.16 0,0.16 0,0.32 0,0 0,0 0,0 0,0.16 0,0.16 0,0.16 0.16,0 0.16,0 0.16,0.16 0,0 0.16,0 0.16,0 0.16,0 0.16,-0.16 0.16,-0.16 0.16,0 0.16,-0.16 0.16,-0.16 z m 0,1.28 c 0,-0.16 0,-0.16 0,-0.16 0,-0.16 0,-0.16 0,-0.16 -0.16,0 -0.16,0 -0.16,-0.16 0,0 -0.16,0 -0.16,0 -0.16,0 -0.16,0 -0.16,0 -0.16,0.16 -0.16,0.16 -0.16,0.16 0,0 0,0 0,0.16 0,0 -0.16,0 -0.16,0.16 0,0 0.16,0.16 0.16,0.16 0,0 0.16,0 0.32,0 0.16,0 0.16,0 0.32,0 0,0 0,-0.16 0,-0.16 z"
         style="fill:#ff0000;fill-opacity:1;fill-rule:nonzero;stroke:none"
         id="path16820" />
    </g>
  </g>
</svg>
