<?xml version="1.0" encoding="UTF-8" standalone="no"?>
<!-- Created with Inkscape (http://www.inkscape.org/) -->

<svg
   width="20.846775mm"
   height="15.87903mm"
   viewBox="0 0 20.846776 15.879028"
   version="1.1"
   id="svg15577"
   inkscape:version="1.2.2 (732a01da63, 2022-12-09)"
   sodipodi:docname="8.svg"
   xml:space="preserve"
   xmlns:inkscape="http://www.inkscape.org/namespaces/inkscape"
   xmlns:sodipodi="http://sodipodi.sourceforge.net/DTD/sodipodi-0.dtd"
   xmlns="http://www.w3.org/2000/svg"
   xmlns:svg="http://www.w3.org/2000/svg"><sodipodi:namedview
     id="namedview15579"
     pagecolor="#ffffff"
     bordercolor="#000000"
     borderopacity="0.25"
     inkscape:showpageshadow="2"
     inkscape:pageopacity="0.0"
     inkscape:pagecheckerboard="true"
     inkscape:deskcolor="#d1d1d1"
     inkscape:document-units="mm"
     showgrid="false"
     showborder="false"
     inkscape:zoom="2.9825758"
     inkscape:cx="272.91847"
     inkscape:cy="66.050292"
     inkscape:window-width="1920"
     inkscape:window-height="1017"
     inkscape:window-x="1912"
     inkscape:window-y="-8"
     inkscape:window-maximized="1"
     inkscape:current-layer="layer1" /><defs
     id="defs15574" /><g
     inkscape:label="Layer 1"
     inkscape:groupmode="layer"
     id="layer1"
     transform="translate(-15.196748,-79.076782)"><g
       id="g15014"
       transform="matrix(0.26458333,0,0,0.26458333,49.253236,55.298379)" /><g
       id="g13720"
       transform="matrix(0.26458333,0,0,0.26458333,18.006939,-99.253542)" /><g
       id="g18168"
       transform="matrix(0.26458333,0,0,0.26458333,27.213146,49.421226)" /><g
       id="g27922"
       transform="matrix(0.26458333,0,0,0.26458333,25.76628,85.893382)"><path
         d="m 0,0 -2.08,-2.08 v -0.64 l 0.32,-0.16 0.32,0.16 2.08,2.08 L 0.8,-0.32 0.64,0 0.32,0.16 Z m -4.16,-4 -1.92,-2.08 -0.16,-0.32 0.16,-0.32 h 0.64 l 1.92,1.92 0.16,0.48 -0.16,0.32 -0.32,0.16 z m -4,-4.16 -2.08,-2.08 -0.16,-0.32 0.16,-0.32 h 0.64 l 2.08,2.08 v 0.64 L -7.84,-8 Z m -4.16,-4 -1.92,-2.08 -0.16,-0.32 0.16,-0.32 0.32,-0.16 0.32,0.16 2.08,2.08 0.16,0.32 -0.16,0.32 -0.32,0.16 z M -23.360001,1.92 h 0.32 l 0.320002,0.16 0.16,0.32 -0.16,0.48 h -0.320002 -0.32 H -23.68 l -0.16,-0.48 0.16,-0.32 z"
         style="fill:#ff0000;fill-opacity:1;fill-rule:nonzero;stroke:none"
         id="path27924" /></g><g
       id="g27926"
       transform="matrix(0.26458333,0,0,0.26458333,28.56028,86.528387)"><path
         d="M 0,0 C 0,1.12 0.8,1.92 1.92,1.92 2.88,1.92 3.84,1.12 3.84,0 3.84,-0.96 2.88,-1.76 1.92,-1.76 0.8,-1.76 0,-0.96 0,0 Z"
         style="fill:#000000;fill-opacity:1;fill-rule:evenodd;stroke:none"
         id="path27928" /></g><g
       id="g27930"
       transform="matrix(0.26458333,0,0,0.26458333,28.56028,86.528387)"><path
         d="M 0,0 C 0,1.12 0.8,1.92 1.92,1.92 2.88,1.92 3.84,1.12 3.84,0 3.84,-0.96 2.88,-1.76 1.92,-1.76 0.8,-1.76 0,-0.96 0,0 Z"
         style="fill:none;stroke:#000000;stroke-width:0.96;stroke-linecap:round;stroke-linejoin:round;stroke-miterlimit:10;stroke-dasharray:none;stroke-opacity:1"
         id="path27932" /></g><g
       id="g27934"
       transform="matrix(0.26458333,0,0,0.26458333,-4.5867196,-113.49661)"><path
         d="m 147.67999,782.23999 v -7.52002"
         style="fill:none;stroke:#000000;stroke-width:0.96;stroke-linecap:round;stroke-linejoin:round;stroke-miterlimit:10;stroke-dasharray:none;stroke-opacity:1"
         id="path27936" /></g><g
       id="g27938"
       transform="matrix(0.26458333,0,0,0.26458333,-4.5867196,-113.49661)"><path
         d="M 147.67999,778.40002 H 140.16"
         style="fill:none;stroke:#000000;stroke-width:0.96;stroke-linecap:round;stroke-linejoin:round;stroke-miterlimit:10;stroke-dasharray:none;stroke-opacity:1"
         id="path27940" /></g><g
       id="g27942"
       transform="matrix(0.26458333,0,0,0.26458333,-4.5867196,-113.49661)"><path
         d="M 140.16,778.40002 115.04,753.28003"
         style="fill:none;stroke:#000000;stroke-width:0.96;stroke-linecap:round;stroke-linejoin:round;stroke-miterlimit:10;stroke-dasharray:none;stroke-opacity:1"
         id="path27944" /></g><g
       id="g27946"
       transform="matrix(0.26458333,0,0,0.26458333,21.659946,81.617721)"><path
         d="m 0,0 c -4.32,-4.32 -11.2,-4.32 -15.52,0 -4.32,4.16 -4.32,11.2 0,15.36 2.08,2.080001 4.8,3.199999 7.68,3.199999"
         style="fill:none;stroke:#000000;stroke-width:0.96;stroke-linecap:round;stroke-linejoin:round;stroke-miterlimit:10;stroke-dasharray:none;stroke-opacity:1"
         id="path27948" /></g><g
       id="g27950"
       transform="matrix(0.26458333,0,0,0.26458333,-4.5867196,-113.49661)"><path
         d="m 91.68,756 h 33.6"
         style="fill:none;stroke:#000000;stroke-width:0.96;stroke-linecap:round;stroke-linejoin:round;stroke-miterlimit:10;stroke-dasharray:none;stroke-opacity:1"
         id="path27952" /></g><g
       id="g27954"
       transform="matrix(0.26458333,0,0,0.26458333,-4.5867196,-113.49661)"><path
         d="m 91.68,751.52002 h 2.239998 l 3.68,7.83996 h -7.36 l 3.68,-7.83996 z"
         style="fill:#ffffff;fill-opacity:1;fill-rule:evenodd;stroke:none"
         id="path27956" /></g><g
       id="g27958"
       transform="matrix(0.26458333,0,0,0.26458333,-4.5867196,-113.49661)"><path
         d="m 91.68,751.52002 h 2.239998 l 3.68,7.83996 h -7.36 l 3.68,-7.83996"
         style="fill:none;stroke:#000000;stroke-width:0.48;stroke-linecap:round;stroke-linejoin:round;stroke-miterlimit:10;stroke-dasharray:none;stroke-opacity:1"
         id="path27960" /></g><g
       id="g27962"
       transform="matrix(0.26458333,0,0,0.26458333,-4.5867196,-113.49661)"><path
         d="m 117.6,747.67999 0.64,2.56 -2.08,-0.47998 z"
         style="fill:#000000;fill-opacity:1;fill-rule:evenodd;stroke:none"
         id="path27964" /></g><g
       id="g27966"
       transform="matrix(0.26458333,0,0,0.26458333,-4.5867196,-113.49661)"><path
         d="m 115.2,753.28003 c 1.44,-1.60004 2.24,-3.52002 2.4,-5.60004"
         style="fill:none;stroke:#000000;stroke-width:0.48;stroke-linecap:butt;stroke-linejoin:miter;stroke-miterlimit:2;stroke-dasharray:none;stroke-opacity:1"
         id="path27968" /></g><g
       id="g27970"
       transform="matrix(0.26458333,0,0,0.26458333,-4.5867196,-113.49661)"><path
         d="m 117.6,747.67999 0.64,2.56 -2.08,-0.47998 z"
         style="fill:none;stroke:#000000;stroke-width:0.48;stroke-linecap:butt;stroke-linejoin:miter;stroke-miterlimit:2;stroke-dasharray:none;stroke-opacity:1"
         id="path27972" /></g><g
       id="g27974"
       transform="matrix(0.26458333,0,0,0.26458333,27.332613,85.51238)"><path
         d="m 0,0 c 0,0 0,0.16 -0.16,0.16 h -0.16 v 0.48 c 0,0 -0.16,0 -0.16,0.16 h -0.16 c 0,0 0,0 -0.16,0 0,-0.16 0,-0.16 0,-0.16 V 0.16 h -0.96 c -0.16,0 -0.16,0 -0.16,0 0,-0.16 0,-0.16 0,-0.16 v -0.16 -0.16 l 0.8,-1.44 h 0.16 c 0.16,0 0.16,0 0.16,0 0.16,0 0.16,0 0.16,0 0.16,0 0.16,0 0.16,0 0,0 0,0 0.16,0 v 1.6 h 0.16 C 0,-0.16 0,0 0,0 Z m -0.8,-1.44 v 0 l -0.8,1.28 h 0.8 z"
         style="fill:#ff0000;fill-opacity:1;fill-rule:nonzero;stroke:none"
         id="path27976" /></g><g
       id="g27978"
       transform="matrix(0.26458333,0,0,0.26458333,27.79828,85.681718)"><path
         d="m 0,0 v 0 c 0,0.16 0,0.16 -0.16,0.16 -0.16,0 -0.16,0 -0.16,0 -0.16,0 -0.16,0 -0.16,0 V 0 L -0.8,-0.64 -1.12,0 C -1.28,0 -1.28,0.16 -1.28,0.16 H -1.44 -1.6 c 0,0 0,0 0,-0.16 h -0.16 c 0,0 0,0 0.16,0 l 0.48,-0.8 -0.48,-0.8 c 0,-0.16 0,-0.16 0,-0.16 0.16,0 0.16,0 0.16,0 0.16,0 0.16,0 0.16,0 h 0.16 l 0.32,0.64 0.32,-0.64 h 0.16 c 0.16,0 0.16,0 0.16,0 0.16,0 0.16,0 0.16,0 0,0 0,0 0,0.16 l -0.48,0.64 z"
         style="fill:#ff0000;fill-opacity:1;fill-rule:nonzero;stroke:none"
         id="path27980" /></g><g
       id="g27982"
       transform="matrix(0.26458333,0,0,0.26458333,28.30628,85.51238)"><path
         d="m 0,0 c 0,0.16 0,0.32 0,0.32 0,0.16 -0.16,0.16 -0.16,0.32 0,0 -0.16,0 -0.32,0.16 -0.16,0 -0.16,0 -0.32,0 -0.16,0 -0.32,0 -0.48,0 0,-0.16 -0.16,-0.16 -0.16,-0.16 C -1.6,0.48 -1.6,0.48 -1.6,0.48 -1.76,0.32 -1.76,0.16 -1.76,0.16 c 0,-0.16 0,-0.16 0.16,-0.32 0,0 0,0 0,-0.16 0,0 0.16,0 0.16,-0.16 h 0.16 c 0,-0.16 0,-0.16 -0.16,-0.16 0,0 0,-0.16 -0.16,-0.16 v -0.16 -0.16 c 0,-0.16 0,-0.16 0,-0.32 0,-0.16 0.16,-0.16 0.16,-0.16 0.16,-0.16 0.16,-0.16 0.32,-0.16 0,0 0.16,-0.16 0.32,-0.16 0.16,0 0.32,0.16 0.32,0.16 0.16,0 0.16,0 0.32,0.16 0,0 0.16,0 0.16,0.16 v 0.16 c 0,0.16 0,0.16 0,0.16 0,0.16 0,0.16 -0.16,0.32 0,0 0,0 -0.16,0 0,0.16 0,0.16 -0.16,0.16 0.16,0 0.16,0.16 0.32,0.16 0,0 0,0.16 0.16,0.16 v 0.16 z m -0.48,-1.12 c 0,-0.16 0,-0.16 0,-0.16 0,0 0,-0.16 -0.16,-0.16 H -0.8 c -0.16,0 -0.16,0 -0.32,0 0,0.16 0,0.16 0,0.32 0,0.16 0,0.16 0,0.16 0.16,0 0.16,0 0.16,0.16 h 0.16 c 0.16,0 0.16,-0.16 0.16,-0.16 0.16,0 0.16,-0.16 0.16,-0.16 z m 0,1.28 c 0,-0.16 0,-0.16 0,-0.16 0,-0.16 0,-0.16 0,-0.16 -0.16,0 -0.16,0 -0.16,-0.16 H -0.8 c -0.16,0 -0.16,0 -0.16,0 -0.16,0.16 -0.16,0.16 -0.16,0.16 0,0 0,0 0,0.16 0,0 -0.16,0 -0.16,0.16 l 0.16,0.16 c 0,0 0.16,0 0.32,0 0.16,0 0.16,0 0.32,0 z"
         style="fill:#ff0000;fill-opacity:1;fill-rule:nonzero;stroke:none"
         id="path27984" /></g></g></svg>
