<?xml version="1.0" standalone="no"?>
<!DOCTYPE svg PUBLIC "-//W3C//DTD SVG 1.2//EN" "http://www.w3.org/Graphics/SVG/1.2/DTD/svg12.dtd">
<svg xmlns="http://www.w3.org/2000/svg" version="1.2" baseProfile="tiny" id="selectedFigureSvg" width="100px" height="100px" viewBox="-138.84 -111.13 151.85 189.2"><g id="sequence"><g id="figure-2"><path d="M 0,0 m -4,0 a4,4 0 1 1 0,0.01" style="stroke: black; stroke-width: 1px; fill: black;"/><path d="M -4,0 l -126,0" style="stroke-dasharray: 10, 8; stroke: red; stroke-width: 3px; fill: none; " class="line" id="figure-2-entry"/><path d="M -130,0 l 50.91,-50.91" style="stroke: black; stroke-width: 3px; fill: none;" class="line" id="figure-2-roll0-gap0"/><path d="M -79.09,-50.91 m -24.57,-8.6 l 12.16,-3.03 l -2.07,7.73 z" style="stroke: black; stroke-width: 2px; fill: black;"/><path d="M -79.09,-50.91 m -24.57,-8.6 a 30,30 0 0 1 32.34,22.05 " style="stroke: black; stroke-width: 3px; fill: none;"/><text style="font-family: Arial, Sans; font-size: 20px; font-weight: bold; fill: red;" text-anchor="middle" x="-115.25" y="-75.02">3x2</text><path d="M -79.09,-50.91 l 7.07,-7.07" style="stroke: black; stroke-width: 3px; fill: none;" class="line"/><path d="M -72.02,-57.98 m -29.5,-9.7 l -7.07,7.07" style="stroke: black; stroke-width: 3px; fill: none;"/><path d="M -72.02,-57.98 m -24.57,-8.6 l 12.16,-3.03 l -2.07,7.73 z" style="stroke: black; stroke-width: 2px; fill: black;"/><path d="M -72.02,-57.98 m -24.57,-8.6 a 30,30 0 0 1 24.57,8.6 " style="stroke: black; stroke-width: 3px; fill: none;"/><path d="M -72.02,-57.98 l 44.55,-44.55" style="stroke-dasharray: 10, 8; stroke: red; stroke-width: 3px; fill: none; " class="line" id="figure-2-roll0-gap1"/><path d="M -27.47,-102.53 l 0,162" style="stroke: black; stroke-width: 3px; fill: none;" class="line" id="figure-2-roll1-gap0"/><path d="M -27.47,59.47 l -99,0" style="stroke: black; stroke-width: 3px; fill: none;" class="line" id="figure-2-exit"/><path d="M -126.47,59.47 l 0,10 l 0,-20" style="stroke: black; stroke-width: 3px; fill: none;"/></g></g></svg>