<?xml version="1.0" encoding="UTF-8" standalone="no"?>
<!-- Created with Inkscape (http://www.inkscape.org/) -->

<svg
   width="17.919353mm"
   height="14.548386mm"
   viewBox="0 0 17.919354 14.548384"
   version="1.1"
   id="svg15577"
   inkscape:version="1.2.2 (732a01da63, 2022-12-09)"
   sodipodi:docname="9.svg"
   xml:space="preserve"
   xmlns:inkscape="http://www.inkscape.org/namespaces/inkscape"
   xmlns:sodipodi="http://sodipodi.sourceforge.net/DTD/sodipodi-0.dtd"
   xmlns="http://www.w3.org/2000/svg"
   xmlns:svg="http://www.w3.org/2000/svg"><sodipodi:namedview
     id="namedview15579"
     pagecolor="#ffffff"
     bordercolor="#000000"
     borderopacity="0.25"
     inkscape:showpageshadow="2"
     inkscape:pageopacity="0.0"
     inkscape:pagecheckerboard="true"
     inkscape:deskcolor="#d1d1d1"
     inkscape:document-units="mm"
     showgrid="false"
     showborder="false"
     inkscape:zoom="2.9825758"
     inkscape:cx="246.09601"
     inkscape:cy="69.067818"
     inkscape:window-width="1920"
     inkscape:window-height="1017"
     inkscape:window-x="1912"
     inkscape:window-y="-8"
     inkscape:window-maximized="1"
     inkscape:current-layer="layer1" /><defs
     id="defs15574" /><g
     inkscape:label="Layer 1"
     inkscape:groupmode="layer"
     id="layer1"
     transform="translate(-22.293522,-78.278397)"><g
       id="g15014"
       transform="matrix(0.26458333,0,0,0.26458333,49.253236,55.298379)" /><g
       id="g13720"
       transform="matrix(0.26458333,0,0,0.26458333,18.006939,-99.253542)" /><g
       id="g18168"
       transform="matrix(0.26458333,0,0,0.26458333,27.213146,49.421226)" /><g
       id="g27350"
       transform="matrix(0.26458333,0,0,0.26458333,31.274366,82.135723)"><path
         d="M 0,0 V 0 L -0.16,-0.16 0,-0.32 0.16,-0.16 Z m -0.96,0 v 0 l -0.16,-0.16 0.16,-0.16 0.16,0.16 z m -0.96,0 v 0 l -0.16,-0.16 0.16,-0.16 0.16,0.16 z m -0.96,0 v 0 l -0.16,-0.16 0.16,-0.16 0.16,0.16 z m -0.96,0.16 v 0 L -4,0 -3.84,-0.16 -3.68,0 Z M -4.8,0.32 v 0 L -4.96,0.16 -4.8,0 h 0.16 z m -0.96,0 v 0 H -5.92 L -5.76,0 -5.6,0.16 Z"
         style="fill:#000000;fill-opacity:1;fill-rule:nonzero;stroke:none"
         id="path27352" /></g><g
       id="g27354"
       transform="matrix(0.26458333,0,0,0.26458333,29.496366,82.262717)"><path
         d="M 0,0 V 0 H -0.16 L 0,-0.32 0.16,-0.16 Z m -0.8,0.32 v 0 L -1.12,0.16 -0.96,0 h 0.16 z m -0.96,0.16 v 0 L -1.92,0.32 V 0.16 l 0.16,0.16 z M -2.72,0.8 v 0 L -2.88,0.64 V 0.48 h 0.32 z m -0.96,0.16 v 0 h -0.16 l 0.16,-0.32 0.16,0.16 z m -0.8,0.32 v 0 H -4.8 l 0.16,-0.32 0.16,0.16 z M -5.44,1.6 v 0 H -5.6 V 1.44 h 0.32 z"
         style="fill:#000000;fill-opacity:1;fill-rule:nonzero;stroke:none"
         id="path27356" /></g><g
       id="g27358"
       transform="matrix(0.26458333,0,0,0.26458333,27.845366,82.813053)"><path
         d="M 0,0 V 0 L -0.32,-0.16 -0.16,-0.32 0,-0.16 Z m -0.96,0.48 v 0 L -1.12,0.32 V 0.16 h 0.32 z m -0.8,0.48 v 0 L -1.92,0.8 V 0.64 h 0.32 z m -0.8,0.48 v 0 H -2.72 V 1.12 L -2.4,1.28 Z M -3.2,2.08 v 0 L -3.52,1.92 V 1.76 H -3.2 Z M -4,2.72 v 0 H -4.16 V 2.4 H -4 Z m -0.48,0.64 v 0 H -4.8 V 3.2 h 0.16 z"
         style="fill:#000000;fill-opacity:1;fill-rule:nonzero;stroke:none"
         id="path27360" /></g><g
       id="g27362"
       transform="matrix(0.26458333,0,0,0.26458333,26.4907,83.913715)"><path
         d="M 0,0 V 0 H -0.16 V -0.16 H 0 Z m -0.32,0.8 v 0 L -0.48,0.96 -0.64,0.8 -0.48,0.64 Z m -0.32,0.96 v 0 L -0.8,1.92 -0.96,1.76 -0.64,1.6 Z m 0,0.96 v 0 L -0.8,2.88 -0.96,2.72 -0.8,2.56 Z m 0.16,0.8 v 0 L -0.64,3.84 -0.8,3.68 -0.64,3.52 Z m 0.32,0.96 v 0 L -0.32,4.64 H -0.48 V 4.32 Z m 0.32,0.8 v 0 0.16 H 0 V 5.28 Z"
         style="fill:#000000;fill-opacity:1;fill-rule:nonzero;stroke:none"
         id="path27364" /></g><g
       id="g27366"
       transform="matrix(0.26458333,0,0,0.26458333,26.702367,85.522384)"><path
         d="M 0,0 V 0 0.16 H -0.32 V 0 Z m 0.64,0.64 v 0 0.32 L 0.32,0.8 0.48,0.64 Z m 0.64,0.64 v 0 0.16 H 1.12 V 1.28 Z m 0.8,0.48 v 0 0.32 H 1.92 V 1.92 Z m 0.8,0.64 v 0 0.16 H 2.72 V 2.4 Z m 0.8,0.48 v 0 L 3.84,3.04 H 3.52 V 2.88 Z M 4.64,3.2 v 0 0.16 L 4.48,3.52 4.32,3.36 Z"
         style="fill:#000000;fill-opacity:1;fill-rule:nonzero;stroke:none"
         id="path27368" /></g><g
       id="g27370"
       transform="matrix(0.26458333,0,0,0.26458333,28.1417,86.496051)"><path
         d="M 0,0 V 0 L 0.16,0.16 H -0.16 V 0 Z m 0.96,0.32 v 0 0.16 L 0.8,0.64 0.64,0.32 Z m 0.8,0.32 v 0 L 1.92,0.8 H 1.76 L 1.6,0.64 Z M 2.72,0.8 v 0 L 2.88,1.12 H 2.56 V 0.96 Z m 0.96,0.32 v 0 L 3.84,1.28 3.52,1.44 V 1.12 Z m 0.96,0.16 v 0 0.16 L 4.48,1.6 4.32,1.44 Z M 5.6,1.44 v 0 0.16 L 5.44,1.76 5.28,1.6 Z"
         style="fill:#000000;fill-opacity:1;fill-rule:nonzero;stroke:none"
         id="path27372" /></g><g
       id="g27374"
       transform="matrix(0.26458333,0,0,0.26458333,29.835033,86.919376)"><path
         d="M 0,0 V 0 L 0.16,0.16 0,0.32 -0.16,0.16 Z m 0.96,0.16 v 0 L 1.12,0.32 0.96,0.48 0.8,0.32 Z m 0.96,0.16 v 0 L 2.08,0.48 1.92,0.64 1.76,0.48 Z m 0.96,0 v 0 L 3.04,0.48 2.88,0.64 2.72,0.48 Z m 0.96,0 v 0 L 4,0.48 3.84,0.64 3.68,0.48 Z M 4.8,0.48 v 0 L 4.96,0.64 4.8,0.8 4.64,0.64 Z m 0.96,0 v 0 L 5.92,0.64 5.76,0.8 5.6,0.64 Z"
         style="fill:#000000;fill-opacity:1;fill-rule:nonzero;stroke:none"
         id="path27376" /></g><g
       id="g27378"
       transform="matrix(0.26458333,0,0,0.26458333,31.613033,87.046387)"><path
         d="M 0,0 V 0 L 0.16,0.16 0,0.32 -0.16,0.16 Z m 0.96,-0.16 v 0 L 1.12,0 0.96,0.16 0.8,0 Z m 0.96,0 v 0 L 2.08,0 1.92,0.16 1.76,0 Z m 0.96,-0.16 v 0 L 3.04,-0.16 2.88,0 2.72,-0.16 Z m 0.96,0 v 0 H 4 L 3.84,0 3.68,-0.16 Z M 4.8,-0.48 v 0 L 4.96,-0.32 4.8,-0.16 4.64,-0.32 Z m 0.96,-0.16 v 0 H 5.92 L 5.76,-0.32 5.6,-0.48 Z M 6.72,-0.8 v 0 H 6.88 L 6.72,-0.64 H 6.56 Z m 0.8,-0.32 v 0 L 7.84,-0.96 7.68,-0.8 7.52,-0.96 Z m 0.96,-0.16 v 0 h 0.16 v 0.16 H 8.32 Z M 9.44,-1.6 v 0 H 9.6 L 9.44,-1.28 9.28,-1.44 Z m 0.8,-0.32 v 0 h 0.32 L 10.4,-1.6 10.24,-1.76 Z"
         style="fill:#000000;fill-opacity:1;fill-rule:nonzero;stroke:none"
         id="path27380" /></g><g
       id="g27382"
       transform="matrix(0.26458333,0,0,0.26458333,1.0907,-133.25628)"><path
         d="m 136.8,811.03998 c -1.6,5.92004 -6.08,10.72003 -12,12.48004"
         style="fill:none;stroke:#000000;stroke-width:0.48;stroke-linecap:round;stroke-linejoin:round;stroke-miterlimit:10;stroke-dasharray:none;stroke-opacity:1"
         id="path27384" /></g><g
       id="g27386"
       transform="matrix(0.26458333,0,0,0.26458333,1.0907,-133.25628)"><path
         d="m 125.92,826.23999 -6.24,-2.08002 5.28,-3.67999 z"
         style="fill:#000000;fill-opacity:1;fill-rule:evenodd;stroke:none"
         id="path27388" /></g><g
       id="g27390"
       transform="matrix(0.26458333,0,0,0.26458333,26.279032,82.093379)"><path
         d="m 0,0 c 0,-1.12 -0.8,-1.92 -1.92,-1.92 -0.96,0 -1.92,0.8 -1.92,1.92 0,0.96 0.96,1.76 1.92,1.76 C -0.8,1.76 0,0.96 0,0 Z"
         style="fill:#000000;fill-opacity:1;fill-rule:evenodd;stroke:none"
         id="path27392" /></g><g
       id="g27394"
       transform="matrix(0.26458333,0,0,0.26458333,26.279032,82.093379)"><path
         d="m 0,0 c 0,-1.12 -0.8,-1.92 -1.92,-1.92 -0.96,0 -1.92,0.8 -1.92,1.92 0,0.96 0.96,1.76 1.92,1.76 C -0.8,1.76 0,0.96 0,0 Z"
         style="fill:none;stroke:#000000;stroke-width:0.96;stroke-linecap:round;stroke-linejoin:round;stroke-miterlimit:10;stroke-dasharray:none;stroke-opacity:1"
         id="path27396" /></g><g
       id="g27398"
       transform="matrix(0.26458333,0,0,0.26458333,1.0907,-133.25628)"><path
         d="m 108.16,842.23999 h -7.52"
         style="fill:none;stroke:#000000;stroke-width:0.96;stroke-linecap:round;stroke-linejoin:round;stroke-miterlimit:10;stroke-dasharray:none;stroke-opacity:1"
         id="path27400" /></g><g
       id="g27402"
       transform="matrix(0.26458333,0,0,0.26458333,1.0907,-133.25628)"><path
         d="M 95.199997,813.91998 H 114.08 c 5.76,-0.15997 11.2,1.28003 14.24001,3.36005"
         style="fill:none;stroke:#000000;stroke-width:0.96;stroke-linecap:round;stroke-linejoin:round;stroke-miterlimit:10;stroke-dasharray:none;stroke-opacity:1"
         id="path27404" /></g><g
       id="g27406"
       transform="matrix(0.26458333,0,0,0.26458333,35.042036,82.982392)"><path
         d="M 0,0 C 3.04,1.6 4.64,3.84 4.64,6.08 4.48,8.8 2.72,11.2 0,12.64 l -24,12.319999"
         style="fill:none;stroke:#000000;stroke-width:0.96;stroke-linecap:round;stroke-linejoin:round;stroke-miterlimit:10;stroke-dasharray:none;stroke-opacity:1"
         id="path27408" /></g></g></svg>
