<?xml version="1.0" standalone="no"?>
<!DOCTYPE svg PUBLIC "-//W3C//DTD SVG 1.2//EN" "http://www.w3.org/Graphics/SVG/1.2/DTD/svg12.dtd">
<svg xmlns="http://www.w3.org/2000/svg" version="1.2" baseProfile="tiny" id="selectedFigureSvg" width="100px" height="100px" viewBox="-148.13 -62.11 197.72 134.37"><g id="sequence"><g id="figure-2"><path d="M 0,0 m -4,0 a4,4 0 1 1 0,0.01" style="stroke: black; stroke-width: 1px; fill: black;"/><path d="M -4,0 l -98,0" style="stroke: black; stroke-width: 3px; fill: none;" class="line" id="figure-2-roll0-gap0"/><path d="M -102,0 m 0,24.75 l -12,0 " style="stroke: black; stroke-width: 3px; fill: none;"/><path d="M -102,0 m 0,24 l -14.4,-36 l 28.8,0 z" style="stroke: black; stroke-width: 1.5px; fill: white;"/><path d="M -111,0 l -0.14,0" style="stroke: black; stroke-width: 3px; fill: none;" class="line" id="figure-2-roll0-gap1"/><path d="M -111.14,0 a28,28 0 1 1 19.8,-47.8" style="stroke: black; stroke-width: 3px; fill: none;"/><path d="M -91.34,-47.8 l 34.65,34.65" style="stroke-dasharray: 10, 8; stroke: red; stroke-width: 3px; fill: none; " class="line" id="figure-2-roll1-gap0"/><path d="M -56.69,-13.15 m 8.6,-24.57 l 3.03,12.16 l -7.73,-2.07 z" style="stroke: black; stroke-width: 2px; fill: black;"/><path d="M -56.69,-13.15 m 8.6,-24.57 a 30,30 0 0 1 -8.6,24.57 " style="stroke: black; stroke-width: 3px; fill: none;"/><text style="font-family: Arial, Sans; font-size: 20px; font-weight: bold; fill: red;" text-anchor="middle" x="-23.35" y="-34.43">4x8</text><path d="M -56.69,-13.15 l 69.3,69.3" style="stroke: black; stroke-width: 3px; fill: none;" class="line" id="figure-2-roll1-gap1"/><path d="M 12.61,56.15 l 28,0" style="stroke: black; stroke-width: 3px; fill: none;" class="line" id="figure-2-exit"/><path d="M 40.61,56.15 l 0,-10 l 0,20" style="stroke: black; stroke-width: 3px; fill: none;"/></g></g></svg>