<?xml version="1.0" standalone="no"?>
<!DOCTYPE svg PUBLIC "-//W3C//DTD SVG 1.2//EN" "http://www.w3.org/Graphics/SVG/1.2/DTD/svg12.dtd">
<svg xmlns="http://www.w3.org/2000/svg" version="1.2" baseProfile="tiny" id="selectedFigureSvg" width="600px" height="600px" viewBox="-118.5 -29.13 136.82 109.71"><g id="sequence"><g id="figure-2"><text style="font-family: Verdana, Helvetica, Sans; font-size: 16px; font-weight: bold; fill: black;" text-anchor="middle" x="0" y="-8" class="figNr">10</text><path d="M 0,0 m -4,0 a4,4 0 1 1 0,0.01" style="stroke: black; stroke-width: 1px; fill: black;"/><path d="M -4,0 l -60,0" style="stroke: black; stroke-width: 5px; fill: none; vector-effect: non-scaling-stroke;" class="line" id="figure-2-entry"/><path d="M -64,0 a 40,28 0 0 0 -39.31,22.84" style="stroke: black; stroke-width: 5px; fill: none; vector-effect: non-scaling-stroke;"/><path d="M -103.31,22.84 m 17.05,-3.23 l -5.66,7.09 l -2.07,-7.73 z" style="stroke: black; stroke-width: 1px; fill: black;"/><path d="M -103.31,22.84 m 17.05,-3.23 a 20,20 0 0 1 -26.02,-1.95 " style="stroke: black; stroke-width: 5px; fill: none; vector-effect: non-scaling-stroke;"/><path d="M -103.31,22.84 a 40,28 0 0 0 13.86,26.76" style="stroke: black; stroke-width: 5px; fill: none; vector-effect: non-scaling-stroke;"/><path d="M -89.45,49.6 a 40,28 0 1 0 25.45,-49.6" style="stroke-dasharray: 1, 3; stroke: black; stroke-width: 1px; fill: none; vector-effect: non-scaling-stroke;"/><path d="M -89.45,49.6 l 36.37,21" style="stroke: black; stroke-width: 5px; fill: none; vector-effect: non-scaling-stroke;" class="line" id="figure-2-exit"/><path d="M -53.08,70.6 l 10,0 l -20,0" style="stroke: black; stroke-width: 5px; fill: none; vector-effect: non-scaling-stroke;"/><path d="M -53.08,70.6 m 28.66,5 l -40,0" style="stroke: black; stroke-width: 5px; fill: none; vector-effect: non-scaling-stroke;"/></g></g></svg>