<?xml version="1.0" encoding="UTF-8" standalone="no"?>
<!-- Created with Inkscape (http://www.inkscape.org/) -->

<svg
   width="15.169351mm"
   height="18.229839mm"
   viewBox="0 0 15.169351 18.229839"
   version="1.1"
   id="svg15577"
   inkscape:version="1.2.2 (732a01da63, 2022-12-09)"
   sodipodi:docname="0.svg"
   xmlns:inkscape="http://www.inkscape.org/namespaces/inkscape"
   xmlns:sodipodi="http://sodipodi.sourceforge.net/DTD/sodipodi-0.dtd"
   xmlns="http://www.w3.org/2000/svg"
   xmlns:svg="http://www.w3.org/2000/svg">
  <sodipodi:namedview
     id="namedview15579"
     pagecolor="#ffffff"
     bordercolor="#000000"
     borderopacity="0.25"
     inkscape:showpageshadow="2"
     inkscape:pageopacity="0.0"
     inkscape:pagecheckerboard="true"
     inkscape:deskcolor="#d1d1d1"
     inkscape:document-units="mm"
     showgrid="false"
     showborder="false"
     inkscape:zoom="5.9651515"
     inkscape:cx="90.358141"
     inkscape:cy="22.631445"
     inkscape:window-width="1920"
     inkscape:window-height="1017"
     inkscape:window-x="1912"
     inkscape:window-y="-8"
     inkscape:window-maximized="1"
     inkscape:current-layer="layer1" />
  <defs
     id="defs15574" />
  <g
     inkscape:label="Layer 1"
     inkscape:groupmode="layer"
     id="layer1"
     transform="translate(-36.069389,-48.958103)">
    <g
       id="g14986"
       transform="matrix(0.26458333,0,0,0.26458333,37.950237,64.696381)">
      <path
         d="m 0,0 c 0,0.96 -0.96,1.92 -1.92,1.92 -1.12,0 -1.92,-0.96 -1.92,-1.92 0,-1.12 0.8,-1.92 1.92,-1.92 0.96,0 1.92,0.8 1.92,1.92 z"
         style="fill:#000000;fill-opacity:1;fill-rule:evenodd;stroke:none"
         id="path14988" />
    </g>
    <g
       id="g14990"
       transform="matrix(0.26458333,0,0,0.26458333,37.950237,64.696381)">
      <path
         d="m 0,0 c 0,0.96 -0.96,1.92 -1.92,1.92 -1.12,0 -1.92,-0.96 -1.92,-1.92 0,-1.12 0.8,-1.92 1.92,-1.92 0.96,0 1.92,0.8 1.92,1.92 z"
         style="fill:none;stroke:#000000;stroke-width:0.96;stroke-linecap:round;stroke-linejoin:round;stroke-miterlimit:10;stroke-dasharray:none;stroke-opacity:1"
         id="path14992" />
    </g>
    <g
       id="g14994"
       transform="matrix(0.26458333,0,0,0.26458333,13.777904,9.4937143)">
      <path
         d="m 136.8,216.48 v -15.2"
         style="fill:none;stroke:#000000;stroke-width:0.96;stroke-linecap:round;stroke-linejoin:round;stroke-miterlimit:10;stroke-dasharray:none;stroke-opacity:1"
         id="path14996" />
    </g>
    <g
       id="g14998"
       transform="matrix(0.26458333,0,0,0.26458333,13.777904,9.4937143)">
      <path
         d="m 91.360001,208.64 h 7.36"
         style="fill:none;stroke:#000000;stroke-width:0.96;stroke-linecap:round;stroke-linejoin:round;stroke-miterlimit:10;stroke-dasharray:none;stroke-opacity:1"
         id="path15000" />
    </g>
    <g
       id="g15002"
       transform="matrix(0.26458333,0,0,0.26458333,13.777904,9.4937143)">
      <path
         d="M 98.720001,208.64 134.08,173.11999"
         style="fill:none;stroke:#000000;stroke-width:0.96;stroke-linecap:round;stroke-linejoin:round;stroke-miterlimit:10;stroke-dasharray:none;stroke-opacity:1"
         id="path15004" />
    </g>
    <g
       id="g15006"
       transform="matrix(0.26458333,0,0,0.26458333,13.777904,9.4937143)">
      <path
         d="M 112.8,164.32001 V 208.8"
         style="fill:none;stroke:#000000;stroke-width:0.96;stroke-linecap:round;stroke-linejoin:round;stroke-miterlimit:10;stroke-dasharray:none;stroke-opacity:1"
         id="path15008" />
    </g>
    <g
       id="g15010"
       transform="matrix(0.26458333,0,0,0.26458333,13.777904,9.4937143)">
      <path
         d="m 112.8,208.8 h 24"
         style="fill:none;stroke:#000000;stroke-width:0.96;stroke-linecap:round;stroke-linejoin:round;stroke-miterlimit:10;stroke-dasharray:none;stroke-opacity:1"
         id="path15012" />
    </g>
    <g
       id="g15014"
       transform="matrix(0.26458333,0,0,0.26458333,49.253236,55.298379)">
      <path
         d="m 0,0 c 4.96,-4.8 4.96,-12.8 0,-17.6 -4.8,-4.8 -12.8,-4.8 -17.6,0 -2.4,2.4 -3.680001,5.44 -3.680001,8.8"
         style="fill:none;stroke:#000000;stroke-width:0.96;stroke-linecap:round;stroke-linejoin:round;stroke-miterlimit:10;stroke-dasharray:none;stroke-opacity:1"
         id="path15016" />
    </g>
    <g
       id="g15018"
       transform="matrix(0.26458333,0,0,0.26458333,13.777904,9.4937143)">
      <path
         d="m 128.48,189.92 0.8,-3.52001 -2.88,0.64 z"
         style="fill:#000000;fill-opacity:1;fill-rule:evenodd;stroke:none"
         id="path15020" />
    </g>
    <g
       id="g15022"
       transform="matrix(0.26458333,0,0,0.26458333,13.777904,9.4937143)">
      <path
         d="m 119.36,179.67999 c 5.12,0.48001 9.12,4.96001 9.12,10.24001"
         style="fill:none;stroke:#000000;stroke-width:0.48;stroke-linecap:butt;stroke-linejoin:miter;stroke-miterlimit:2;stroke-dasharray:none;stroke-opacity:1"
         id="path15024" />
    </g>
    <g
       id="g15026"
       transform="matrix(0.26458333,0,0,0.26458333,13.777904,9.4937143)">
      <path
         d="m 128.48,189.92 0.8,-3.52001 -2.88,0.64 z"
         style="fill:none;stroke:#000000;stroke-width:0.48;stroke-linecap:butt;stroke-linejoin:miter;stroke-miterlimit:2;stroke-dasharray:none;stroke-opacity:1"
         id="path15028" />
    </g>
  </g>
</svg>
