<?xml version="1.0" encoding="UTF-8" standalone="no"?>
<!-- Created with Inkscape (http://www.inkscape.org/) -->

<svg
   width="15.536334mm"
   height="15.043277mm"
   viewBox="0 0 15.536334 15.043277"
   version="1.1"
   id="svg13319"
   inkscape:version="1.2.2 (732a01da63, 2022-12-09)"
   sodipodi:docname="1.svg"
   xmlns:inkscape="http://www.inkscape.org/namespaces/inkscape"
   xmlns:sodipodi="http://sodipodi.sourceforge.net/DTD/sodipodi-0.dtd"
   xmlns="http://www.w3.org/2000/svg"
   xmlns:svg="http://www.w3.org/2000/svg">
  <sodipodi:namedview
     id="namedview13321"
     pagecolor="#ffffff"
     bordercolor="#000000"
     borderopacity="0.25"
     inkscape:showpageshadow="2"
     inkscape:pageopacity="0.0"
     inkscape:pagecheckerboard="0"
     inkscape:deskcolor="#d1d1d1"
     inkscape:document-units="mm"
     showgrid="false"
     inkscape:zoom="0.74564394"
     inkscape:cx="166.29921"
     inkscape:cy="38.892558"
     inkscape:window-width="1920"
     inkscape:window-height="1017"
     inkscape:window-x="-8"
     inkscape:window-y="-8"
     inkscape:window-maximized="1"
     inkscape:current-layer="layer1" />
  <defs
     id="defs13316" />
  <g
     inkscape:label="Layer 1"
     inkscape:groupmode="layer"
     id="layer1"
     transform="translate(-64.264091,-142.92999)">
    <g
       id="g10369"
       transform="matrix(0.26458333,0,0,0.26458333,65.364758,156.76677)">
      <path
         d="m 0,0 c 0,-0.96 -0.8,-1.92 -1.92,-1.92 -0.96,0 -1.76,0.96 -1.76,1.92 0,1.12 0.8,1.92 1.76,1.92 C -0.8,1.92 0,1.12 0,0 Z"
         style="fill:#000000;fill-opacity:1;fill-rule:evenodd;stroke:none"
         id="path10371" />
    </g>
    <g
       id="g10373"
       transform="matrix(0.26458333,0,0,0.26458333,65.364758,156.76677)">
      <path
         d="m 0,0 c 0,-0.96 -0.8,-1.92 -1.92,-1.92 -0.96,0 -1.76,0.96 -1.76,1.92 0,1.12 0.8,1.92 1.76,1.92 C -0.8,1.92 0,1.12 0,0 Z M 0,-35.52 V -50.720001 M 0,0 h 32.48 m 0,0 C 44.32,0 54.080002,-9.6 54.080002,-21.6 54.080002,-33.439999 44.32,-43.200001 32.48,-43.200001 m 0,0 H 0"
         style="fill:none;stroke:#000000;stroke-width:0.96;stroke-linecap:round;stroke-linejoin:round;stroke-miterlimit:10;stroke-dasharray:none;stroke-opacity:1"
         id="path10375" />
    </g>
    <g
       id="g10377"
       transform="matrix(0.26458333,0,0,0.26458333,42.335425,84.334437)">
      <path
         d="m 119.04,268.16 h -2.72 l -4.64,9.91999 h 9.28 L 116.32,268.16 Z"
         style="fill:#ffffff;fill-opacity:1;fill-rule:evenodd;stroke:none"
         id="path10379" />
    </g>
    <g
       id="g10381"
       transform="matrix(0.26458333,0,0,0.26458333,42.335425,84.334437)">
      <path
         d="m 119.04,268.16 h -2.72 l -4.64,9.91999 h 9.28 L 116.32,268.16"
         style="fill:none;stroke:#000000;stroke-width:0.48;stroke-linecap:round;stroke-linejoin:round;stroke-miterlimit:10;stroke-dasharray:none;stroke-opacity:1"
         id="path10383" />
    </g>
    <g
       id="g10385"
       transform="matrix(0.26458333,0,0,0.26458333,42.335425,84.334437)">
      <path
         d="m 123.04,223.2 -2.88,1.91999 2.24,1.28 z"
         style="fill:#000000;fill-opacity:1;fill-rule:evenodd;stroke:none"
         id="path10387" />
    </g>
    <g
       id="g10389"
       transform="matrix(0.26458333,0,0,0.26458333,74.127758,145.29443)">
      <path
         d="m 0,0 c 0.16,-2.72 1.12,-5.12 2.88,-7.2 m 0,0 L 0,-5.28 2.24,-4 Z"
         style="fill:none;stroke:#000000;stroke-width:0.48;stroke-linecap:butt;stroke-linejoin:miter;stroke-miterlimit:2;stroke-dasharray:none;stroke-opacity:1"
         id="path10391" />
    </g>
    <g
       id="g10393"
       transform="matrix(0.004005,0,0,0.004005,42.335425,84.334437)">
      <text
         xml:space="preserve"
         transform="translate(7388.6401,14851.4)"
         style="font-variant:normal;font-weight:normal;font-size:327.68px;font-family:F1;-inkscape-font-specification:F1;writing-mode:lr-tb;fill:#ff0000;fill-opacity:1;fill-rule:nonzero;stroke:none"
         id="text10397"><tspan
           x="0 180.224 370.27838"
           y="0"
           sodipodi:role="line"
           id="tspan10395">2x4</tspan></text>
    </g>
  </g>
</svg>
