<?xml version="1.0" standalone="no"?>
<!DOCTYPE svg PUBLIC "-//W3C//DTD SVG 1.2//EN" "http://www.w3.org/Graphics/SVG/1.2/DTD/svg12.dtd">
<svg xmlns="http://www.w3.org/2000/svg" version="1.2" baseProfile="tiny" id="selectedFigureSvg" width="100px" height="100px" viewBox="-224.3 -112.57 246.9 172.17"><g id="sequence"><g id="figure-2"><path d="M 0,0 m -4,0 a4,4 0 1 1 0,0.01" style="stroke: black; stroke-width: 1px; fill: black;"/><path d="M -4,0 l -144,0" style="stroke: black; stroke-width: 3px; fill: none;" class="line" id="figure-2-roll0-gap0"/><path d="M -148,0 m 11.3,23.45 l -10.74,-6.45 l 6.93,-4 z" style="stroke: black; stroke-width: 2px; fill: black;"/><path d="M -148,0 m 11.3,23.45 a 30,30 0 0 1 -7.28,-38.45 " style="stroke: black; stroke-width: 3px; fill: none;"/><text style="font-family: Arial, Sans; font-size: 20px; font-weight: bold; fill: red;" text-anchor="middle" x="-148" y="47">2</text><path d="M -148,0 l -0.18,0" style="stroke: black; stroke-width: 3px; fill: none;" class="line" id="figure-2-roll0-gap1"/><path d="M -148.18,0 a36,36 0 1 1 25.46,-61.46" style="stroke: black; stroke-width: 3px; fill: none;"/><path d="M -122.72,-61.46 l 19.09,19.09" style="stroke-dasharray: 10, 8; stroke: red; stroke-width: 3px; fill: none; " class="line" id="figure-2-roll1-gap0"/><path d="M -103.63,-42.37 m 8.6,-24.57 l 3.03,12.16 l -7.73,-2.07 z" style="stroke: black; stroke-width: 2px; fill: black;"/><path d="M -103.63,-42.37 m 8.6,-24.57 a 30,30 0 0 1 -8.6,24.57 " style="stroke: black; stroke-width: 3px; fill: none;"/><text style="font-family: Arial, Sans; font-size: 20px; font-weight: bold; fill: red;" text-anchor="middle" x="-70.29" y="-63.65">2x4</text><path d="M -103.63,-42.37 l 19.09,19.09" style="stroke: black; stroke-width: 3px; fill: none;" class="line" id="figure-2-roll1-gap1"/><path d="M -84.54,-23.28 a36,36 0 1 0 25.46,-61.46" style="stroke: black; stroke-width: 3px; fill: none;"/><path d="M -59.08,-84.74 l -144,0" style="stroke-dasharray: 10, 8; stroke: red; stroke-width: 3px; fill: none; " class="line" id="figure-2-exit"/><path d="M -203.08,-84.74 l 0,-10 l 0,20" style="stroke: black; stroke-width: 3px; fill: none;"/><path d="M -203.08,-84.74 m -10,-20 l 0,40" style="stroke: black; stroke-width: 3px; fill: none;"/></g></g></svg>