<?xml version="1.0" encoding="UTF-8" standalone="no"?>
<!-- Created with Inkscape (http://www.inkscape.org/) -->

<svg
   width="10.15726mm"
   height="17.076612mm"
   viewBox="0 0 10.15726 17.076612"
   version="1.1"
   id="svg15577"
   inkscape:version="1.2.2 (732a01da63, 2022-12-09)"
   sodipodi:docname="2.svg"
   xmlns:inkscape="http://www.inkscape.org/namespaces/inkscape"
   xmlns:sodipodi="http://sodipodi.sourceforge.net/DTD/sodipodi-0.dtd"
   xmlns="http://www.w3.org/2000/svg"
   xmlns:svg="http://www.w3.org/2000/svg">
  <sodipodi:namedview
     id="namedview15579"
     pagecolor="#ffffff"
     bordercolor="#000000"
     borderopacity="0.25"
     inkscape:showpageshadow="2"
     inkscape:pageopacity="0.0"
     inkscape:pagecheckerboard="true"
     inkscape:deskcolor="#d1d1d1"
     inkscape:document-units="mm"
     showgrid="false"
     showborder="false"
     inkscape:zoom="5.9651515"
     inkscape:cx="82.981966"
     inkscape:cy="20.452121"
     inkscape:window-width="1920"
     inkscape:window-height="1017"
     inkscape:window-x="1912"
     inkscape:window-y="-8"
     inkscape:window-maximized="1"
     inkscape:current-layer="layer1" />
  <defs
     id="defs15574" />
  <g
     inkscape:label="Layer 1"
     inkscape:groupmode="layer"
     id="layer1"
     transform="translate(-38.021,-49.534714)">
    <g
       id="g15014"
       transform="matrix(0.26458333,0,0,0.26458333,49.253236,55.298379)" />
    <g
       id="g15086"
       transform="matrix(0.26458333,0,0,0.26458333,42.203793,50.612307)">
      <path
         d="M 0,0 V 2.88 L -0.16,3.2 -0.48,3.36 -0.8,3.2 -0.96,2.88 V 0 l 0.16,-0.32 0.32,-0.16 0.32,0.16 z M 0,5.76 V 8.64 L -0.16,8.96 -0.48,9.12 -0.8,8.96 -0.96,8.64 V 5.76 l 0.16,-0.32 0.32,-0.16 0.32,0.16 z m 0,5.76 v 2.88 l -0.16,0.32 -0.32,0.16 -0.32,-0.16 -0.16,-0.32 v -2.88 l 0.16,-0.32 0.32,-0.16 0.32,0.16 z m 0,5.760001 V 20.16 L -0.16,20.48 -0.48,20.639999 -0.8,20.48 -0.96,20.16 v -2.879999 l 0.16,-0.320002 0.32,-0.16 0.32,0.16 z m 0,5.76 V 25.92 l -0.16,0.32 -0.32,0.16 -0.32,-0.16 -0.16,-0.32 v -2.879999 l 0.16,-0.320002 0.32,-0.16 0.32,0.16 z m 0,5.759998 V 31.68 L -0.16,32 -0.48,32.16 -0.8,32 -0.96,31.68 V 28.799999 L -0.8,28.48 l 0.32,-0.16 0.32,0.16 z m 0,5.760002 v 2.879998 l -0.16,0.319999 -0.32,0.16 -0.32,-0.16 -0.16,-0.319999 v -2.879998 l 0.16,-0.319999 0.32,-0.16 0.32,0.16 z M 0,40.32 v 2.880001 L -0.16,43.52 -0.48,43.68 -0.8,43.52 -0.96,43.200001 V 40.32 L -0.8,40 -0.48,39.84 -0.16,40 Z m 0,5.760002 v 2.879997 l -0.16,0.32 -0.32,0.16 -0.32,-0.16 -0.16,-0.32 v -2.879997 l 0.16,-0.320004 0.32,-0.16 0.32,0.16 z M 0,51.84 v 2.880001 l -0.16,0.32 -0.32,0.16 -0.32,-0.16 -0.16,-0.32 V 51.84 L -0.8,51.52 -0.48,51.360001 -0.16,51.52 Z"
         style="fill:#ff0000;fill-opacity:1;fill-rule:nonzero;stroke:none"
         id="path15088" />
    </g>
    <g
       id="g15090"
       transform="matrix(0.26458333,0,0,0.26458333,46.479459,50.612307)">
      <path
         d="M 0,0 C 0,0.96 0.8,1.92 1.92,1.92 2.88,1.92 3.68,0.96 3.68,0 3.68,-1.12 2.88,-1.92 1.92,-1.92 0.8,-1.92 0,-1.12 0,0 Z"
         style="fill:#000000;fill-opacity:1;fill-rule:evenodd;stroke:none"
         id="path15092" />
    </g>
    <g
       id="g15094"
       transform="matrix(0.26458333,0,0,0.26458333,46.479459,50.612307)">
      <path
         d="M 0,0 C 0,0.96 0.8,1.92 1.92,1.92 2.88,1.92 3.68,0.96 3.68,0 3.68,-1.12 2.88,-1.92 1.92,-1.92 0.8,-1.92 0,-1.12 0,0 Z"
         style="fill:none;stroke:#000000;stroke-width:0.96;stroke-linecap:round;stroke-linejoin:round;stroke-miterlimit:10;stroke-dasharray:none;stroke-opacity:1"
         id="path15096" />
    </g>
    <g
       id="g15098"
       transform="matrix(0.26458333,0,0,0.26458333,14.644793,-27.408025)">
      <path
         d="M 121.6,345.76001 V 353.28"
         style="fill:none;stroke:#000000;stroke-width:0.96;stroke-linecap:round;stroke-linejoin:round;stroke-miterlimit:10;stroke-dasharray:none;stroke-opacity:1"
         id="path15100" />
    </g>
    <g
       id="g15102"
       transform="matrix(0.26458333,0,0,0.26458333,14.644793,-27.408025)">
      <path
         d="M 120.32,294.88 H 103.68"
         style="fill:none;stroke:#000000;stroke-width:0.96;stroke-linecap:round;stroke-linejoin:round;stroke-miterlimit:10;stroke-dasharray:none;stroke-opacity:1"
         id="path15104" />
    </g>
    <g
       id="g15106"
       transform="matrix(0.26458333,0,0,0.26458333,14.644793,-27.408025)">
      <path
         d="M 103.68,349.60001 H 121.6"
         style="fill:none;stroke:#000000;stroke-width:0.96;stroke-linecap:round;stroke-linejoin:round;stroke-miterlimit:10;stroke-dasharray:none;stroke-opacity:1"
         id="path15108" />
    </g>
    <g
       id="g15110"
       transform="matrix(0.26458333,0,0,0.26458333,14.644793,-27.408025)">
      <path
         d="m 95.360001,319.84 2.080001,3.36001 1.599999,-2.72 z"
         style="fill:#000000;fill-opacity:1;fill-rule:evenodd;stroke:none"
         id="path15112" />
    </g>
    <g
       id="g15114"
       transform="matrix(0.26458333,0,0,0.26458333,14.644793,-27.408025)">
      <path
         d="m 103.68,323.20001 c -3.04,-0.16 -6.080002,-1.44 -8.319999,-3.36001"
         style="fill:none;stroke:#000000;stroke-width:0.48;stroke-linecap:butt;stroke-linejoin:miter;stroke-miterlimit:2;stroke-dasharray:none;stroke-opacity:1"
         id="path15116" />
    </g>
    <g
       id="g15118"
       transform="matrix(0.26458333,0,0,0.26458333,14.644793,-27.408025)">
      <path
         d="m 95.360001,319.84 2.080001,3.36001 1.599999,-2.72 z"
         style="fill:none;stroke:#000000;stroke-width:0.48;stroke-linecap:butt;stroke-linejoin:miter;stroke-miterlimit:2;stroke-dasharray:none;stroke-opacity:1"
         id="path15120" />
    </g>
    <g
       id="g15122"
       transform="matrix(0.26458333,0,0,0.26458333,38.944125,59.671641)">
      <path
         d="M 0,0 C 0,-0.16 0.16,-0.16 0.16,-0.16 0.32,-0.32 0.48,-0.48 0.8,-0.64 0.96,-0.96 1.28,-1.12 1.28,-1.28 1.44,-1.44 1.6,-1.6 1.6,-1.76 1.76,-1.92 1.76,-2.08 1.76,-2.4 1.76,-2.72 1.6,-3.04 1.44,-3.2 1.12,-3.36 0.8,-3.52 0.48,-3.52 c -0.48,0 -0.8,0.16 -0.96,0.32 -0.32,0.16 -0.48,0.48 -0.48,0.8 l 0.8,0.16 c 0,-0.16 0,-0.48 0.16,-0.48 0.16,-0.16 0.32,-0.16 0.48,-0.16 0.16,0 0.16,0 0.32,0.16 0.16,0.16 0.16,0.16 0.16,0.48 0,0.16 0,0.32 -0.16,0.48 -0.16,0.16 -0.32,0.32 -0.64,0.64 -0.48,0.48 -0.8,0.8 -0.96,1.12 -0.16,0.16 -0.32,0.48 -0.32,0.8 H 1.76 V 0 Z"
         style="fill:#ff0000;fill-opacity:1;fill-rule:nonzero;stroke:none"
         id="path15124" />
    </g>
    <g
       id="g15126"
       transform="matrix(0.26458333,0,0,0.26458333,39.706126,59.88331)">
      <path
         d="M 0,0 0.64,-0.96 1.44,0 h 0.8 L 1.12,-1.76 2.08,-3.2 H 1.28 L 0.64,-2.4 0.16,-3.2 H -0.8 L 0.16,-1.6 -0.96,0 Z"
         style="fill:#ff0000;fill-opacity:1;fill-rule:nonzero;stroke:none"
         id="path15128" />
    </g>
    <g
       id="g15130"
       transform="matrix(0.26458333,0,0,0.26458333,41.018459,59.88331)">
      <path
         d="M 0,0 V -0.8 H 0.48 V -1.44 H 0 v -2.88 h -0.64 l -1.92,2.88 V -0.8 H -0.8 V 0 Z m -1.76,-1.44 0.96,-1.6 v 1.6 z"
         style="fill:#ff0000;fill-opacity:1;fill-rule:nonzero;stroke:none"
         id="path15132" />
    </g>
  </g>
</svg>
