<?xml version="1.0" standalone="no"?>
<!DOCTYPE svg PUBLIC "-//W3C//DTD SVG 1.2//EN" "http://www.w3.org/Graphics/SVG/1.2/DTD/svg12.dtd">
<svg xmlns="http://www.w3.org/2000/svg" version="1.2" baseProfile="tiny" id="selectedFigureSvg" width="100px" height="100px" viewBox="-98.18 -138.89 109.49 158.07"><g id="sequence"><g id="figure-2"><path d="M 0,0 m -4,0 a4,4 0 1 1 0,0.01" style="stroke: black; stroke-width: 1px; fill: black;"/><path d="M -4,0 l -40,0" style="stroke: black; stroke-width: 3px; fill: none;" class="line" id="figure-2-roll0-gap0"/><path d="M -44,0 m 0,-24.75 l -12,0 " style="stroke: black; stroke-width: 3px; fill: none;"/><path d="M -44,0 m 0,-24 l -14.4,36 l 28.8,0 z" style="stroke: black; stroke-width: 1.5px; fill: white;"/><path d="M -53,0 l -0.2,0" style="stroke: black; stroke-width: 3px; fill: none;" class="line" id="figure-2-roll0-gap1"/><path d="M -53.2,0 a40,40 0 0 1 0,-80" style="stroke: black; stroke-width: 3px; fill: none;"/><path d="M -53.2,-80 l 0.2,0" style="stroke: black; stroke-width: 3px; fill: none;" class="line" id="figure-2-roll1-gap0"/><path d="M -53,-80 m -11.3,-23.45 l 10.74,6.45 l -6.93,4 z" style="stroke: black; stroke-width: 2px; fill: black;"/><path d="M -53,-80 m -11.3,-23.45 a 30,30 0 0 1 11.3,23.45 " style="stroke: black; stroke-width: 3px; fill: none;"/><text style="font-family: Arial, Sans; font-size: 20px; font-weight: bold; fill: red;" text-anchor="middle" x="-53" y="-113">2x4</text><path d="M -53,-80 l 40,0" style="stroke: black; stroke-width: 3px; fill: none;" class="line" id="figure-2-exit"/><path d="M -13,-80 l 0,-10 l 0,20" style="stroke: black; stroke-width: 3px; fill: none;"/></g></g></svg>