<?xml version="1.0" encoding="UTF-8" standalone="no"?>
<!-- Created with Inkscape (http://www.inkscape.org/) -->

<svg
   width="18.141129mm"
   height="10.82258mm"
   viewBox="0 0 18.141128 10.82258"
   version="1.1"
   id="svg15577"
   inkscape:version="1.2.2 (732a01da63, 2022-12-09)"
   sodipodi:docname="3.svg"
   xmlns:inkscape="http://www.inkscape.org/namespaces/inkscape"
   xmlns:sodipodi="http://sodipodi.sourceforge.net/DTD/sodipodi-0.dtd"
   xmlns="http://www.w3.org/2000/svg"
   xmlns:svg="http://www.w3.org/2000/svg">
  <sodipodi:namedview
     id="namedview15579"
     pagecolor="#ffffff"
     bordercolor="#000000"
     borderopacity="0.25"
     inkscape:showpageshadow="2"
     inkscape:pageopacity="0.0"
     inkscape:pagecheckerboard="true"
     inkscape:deskcolor="#d1d1d1"
     inkscape:document-units="mm"
     showgrid="false"
     showborder="false"
     inkscape:zoom="5.9651515"
     inkscape:cx="101.08712"
     inkscape:cy="16.261113"
     inkscape:window-width="1920"
     inkscape:window-height="1017"
     inkscape:window-x="1912"
     inkscape:window-y="-8"
     inkscape:window-maximized="1"
     inkscape:current-layer="layer1" />
  <defs
     id="defs15574" />
  <g
     inkscape:label="Layer 1"
     inkscape:groupmode="layer"
     id="layer1"
     transform="translate(-33.212952,-50.660942)">
    <g
       id="g15014"
       transform="matrix(0.26458333,0,0,0.26458333,49.253236,55.298379)" />
    <g
       id="g15134"
       transform="matrix(0.26458333,0,0,0.26458333,41.816489,55.861518)">
      <path
         d="M 0,0 4.8,-4.64 4.96,-4.96 4.8,-5.44 4.48,-5.6 4,-5.44 -0.64,-0.64 V 0 Z m 8.16,-8.16 3.68,-3.68 0.16,-0.32 -0.16,-0.32 -0.32,-0.16 -0.32,0.16 L 7.52,-8.8 7.36,-8.48 7.52,-8.16 7.84,-8 Z M 19.84,8.48 H 20 L 20.32,8.32 20.48,8 20.32,7.52 H 20 19.84 19.52 L 19.360001,8 19.52,8.32 Z"
         style="fill:#ff0000;fill-opacity:1;fill-rule:nonzero;stroke:none"
         id="path15136" />
    </g>
    <g
       id="g15138"
       transform="matrix(0.26458333,0,0,0.26458333,35.08549,59.798521)">
      <path
         d="m 0,0 c 0,1.12 -0.8,1.92 -1.92,1.92 -0.96,0 -1.92,-0.8 -1.92,-1.92 0,-0.96 0.96,-1.92 1.92,-1.92 C -0.8,-1.92 0,-0.96 0,0 Z"
         style="fill:#000000;fill-opacity:1;fill-rule:evenodd;stroke:none"
         id="path15140" />
    </g>
    <g
       id="g15142"
       transform="matrix(0.26458333,0,0,0.26458333,35.08549,59.798521)">
      <path
         d="m 0,0 c 0,1.12 -0.8,1.92 -1.92,1.92 -0.96,0 -1.92,-0.8 -1.92,-1.92 0,-0.96 0.96,-1.92 1.92,-1.92 C -0.8,-1.92 0,-0.96 0,0 Z"
         style="fill:none;stroke:#000000;stroke-width:0.96;stroke-linecap:round;stroke-linejoin:round;stroke-miterlimit:10;stroke-dasharray:none;stroke-opacity:1"
         id="path15144" />
    </g>
    <g
       id="g15146"
       transform="matrix(0.26458333,0,0,0.26458333,12.648823,-47.389478)">
      <path
         d="M 87.199997,405.76001 V 390.56"
         style="fill:none;stroke:#000000;stroke-width:0.96;stroke-linecap:round;stroke-linejoin:round;stroke-miterlimit:10;stroke-dasharray:none;stroke-opacity:1"
         id="path15148" />
    </g>
    <g
       id="g15150"
       transform="matrix(0.26458333,0,0,0.26458333,12.648823,-47.389478)">
      <path
         d="m 84.800003,405.12 h 9.919998"
         style="fill:none;stroke:#000000;stroke-width:0.96;stroke-linecap:round;stroke-linejoin:round;stroke-miterlimit:10;stroke-dasharray:none;stroke-opacity:1"
         id="path15152" />
    </g>
    <g
       id="g15154"
       transform="matrix(0.26458333,0,0,0.26458333,12.648823,-47.389478)">
      <path
         d="M 94.720001,405.12 109.92,389.92001"
         style="fill:none;stroke:#000000;stroke-width:0.96;stroke-linecap:round;stroke-linejoin:round;stroke-miterlimit:10;stroke-dasharray:none;stroke-opacity:1"
         id="path15156" />
    </g>
    <g
       id="g15158"
       transform="matrix(0.26458333,0,0,0.26458333,44.864489,52.644185)">
      <path
         d="m 0,0 c 4.64,-4.64 12,-4.64 16.639999,0 4.640002,4.64 4.640002,12 0,16.639999 C 14.4,18.879999 11.52,20.16 8.32,20.16"
         style="fill:none;stroke:#000000;stroke-width:0.96;stroke-linecap:round;stroke-linejoin:round;stroke-miterlimit:10;stroke-dasharray:none;stroke-opacity:1"
         id="path15160" />
    </g>
    <g
       id="g15162"
       transform="matrix(0.26458333,0,0,0.26458333,12.648823,-47.389478)">
      <path
         d="M 130.24,398.23999 H 87.199997"
         style="fill:none;stroke:#000000;stroke-width:0.96;stroke-linecap:round;stroke-linejoin:round;stroke-miterlimit:10;stroke-dasharray:none;stroke-opacity:1"
         id="path15164" />
    </g>
    <g
       id="g15166"
       transform="matrix(0.26458333,0,0,0.26458333,12.648823,-47.389478)">
      <path
         d="m 103.68,387.20001 2.88,-0.64001 -0.48,2.39999 z"
         style="fill:#000000;fill-opacity:1;fill-rule:evenodd;stroke:none"
         id="path15168" />
    </g>
    <g
       id="g15170"
       transform="matrix(0.26458333,0,0,0.26458333,12.648823,-47.389478)">
      <path
         d="m 109.92,389.92001 c -1.76,-1.6 -3.84,-2.40002 -6.24,-2.72"
         style="fill:none;stroke:#000000;stroke-width:0.48;stroke-linecap:butt;stroke-linejoin:miter;stroke-miterlimit:2;stroke-dasharray:none;stroke-opacity:1"
         id="path15172" />
    </g>
    <g
       id="g15174"
       transform="matrix(0.26458333,0,0,0.26458333,12.648823,-47.389478)">
      <path
         d="m 103.68,387.20001 2.88,-0.64001 -0.48,2.39999 z"
         style="fill:none;stroke:#000000;stroke-width:0.48;stroke-linecap:butt;stroke-linejoin:miter;stroke-miterlimit:2;stroke-dasharray:none;stroke-opacity:1"
         id="path15176" />
    </g>
    <g
       id="g15178"
       transform="matrix(0.26458333,0,0,0.26458333,12.648823,-47.389478)">
      <path
         d="m 132.16,392 -2.55999,1.60001 2.07998,1.27999 z"
         style="fill:#000000;fill-opacity:1;fill-rule:evenodd;stroke:none"
         id="path15180" />
    </g>
    <g
       id="g15182"
       transform="matrix(0.26458333,0,0,0.26458333,12.648823,-47.389478)">
      <path
         d="M 131.52,403.35999 C 128.8,400 128.96001,395.04001 132.16,392"
         style="fill:none;stroke:#000000;stroke-width:0.48;stroke-linecap:butt;stroke-linejoin:miter;stroke-miterlimit:2;stroke-dasharray:none;stroke-opacity:1"
         id="path15184" />
    </g>
    <g
       id="g15186"
       transform="matrix(0.26458333,0,0,0.26458333,12.648823,-47.389478)">
      <path
         d="m 132.16,392 -2.55999,1.60001 2.07998,1.27999 z"
         style="fill:none;stroke:#000000;stroke-width:0.48;stroke-linecap:butt;stroke-linejoin:miter;stroke-miterlimit:2;stroke-dasharray:none;stroke-opacity:1"
         id="path15188" />
    </g>
  </g>
</svg>
