<?xml version="1.0" encoding="UTF-8" standalone="no"?>
<!-- Created with Inkscape (http://www.inkscape.org/) -->

<svg
   width="7.3660002mm"
   height="15.493999mm"
   viewBox="0 0 7.3660002 15.493999"
   version="1.1"
   id="svg13727"
   inkscape:version="1.2.2 (732a01da63, 2022-12-09)"
   sodipodi:docname="5.svg"
   xmlns:inkscape="http://www.inkscape.org/namespaces/inkscape"
   xmlns:sodipodi="http://sodipodi.sourceforge.net/DTD/sodipodi-0.dtd"
   xmlns="http://www.w3.org/2000/svg"
   xmlns:svg="http://www.w3.org/2000/svg">
  <sodipodi:namedview
     id="namedview13729"
     pagecolor="#ffffff"
     bordercolor="#000000"
     borderopacity="0.25"
     inkscape:showpageshadow="2"
     inkscape:pageopacity="0.0"
     inkscape:pagecheckerboard="0"
     inkscape:deskcolor="#d1d1d1"
     inkscape:document-units="mm"
     showgrid="false"
     inkscape:zoom="0.74564394"
     inkscape:cx="16.093472"
     inkscape:cy="24.140208"
     inkscape:window-width="1920"
     inkscape:window-height="1017"
     inkscape:window-x="-8"
     inkscape:window-y="-8"
     inkscape:window-maximized="1"
     inkscape:current-layer="layer1" />
  <defs
     id="defs13724" />
  <g
     inkscape:label="Layer 1"
     inkscape:groupmode="layer"
     id="layer1"
     transform="translate(-100.63958,-142.34978)">
    <g
       id="g10473"
       transform="matrix(0.26458333,0,0,0.26458333,106.90491,149.63111)">
      <path
         d="m 0,0 c 0,-1.12 0.8,-1.92 1.92,-1.92 0.96,0 1.76,0.8 1.76,1.92 0,0.96 -0.8,1.92 -1.76,1.92 C 0.8,1.92 0,0.96 0,0 Z"
         style="fill:#000000;fill-opacity:1;fill-rule:evenodd;stroke:none"
         id="path10475" />
    </g>
    <g
       id="g10477"
       transform="matrix(0.26458333,0,0,0.26458333,106.90491,149.63111)">
      <path
         d="m 0,0 c 0,-1.12 0.8,-1.92 1.92,-1.92 0.96,0 1.76,0.8 1.76,1.92 0,0.96 -0.8,1.92 -1.76,1.92 C 0.8,1.92 0,0.96 0,0 Z M -23.200001,30.559999 H -15.68 M 0,0 H -8.64 V -27.040001 M -8.64,0 v 22.559999 m 0,0 -10.720001,8 m 10.720001,-57.6 -2.08,4.320002"
         style="fill:none;stroke:#000000;stroke-width:0.96;stroke-linecap:round;stroke-linejoin:round;stroke-miterlimit:10;stroke-dasharray:none;stroke-opacity:1"
         id="path10479" />
    </g>
    <g
       id="g10481"
       transform="matrix(0.26458333,0,0,0.26458333,74.435248,7.2217789)">
      <path
         d="m 119.52,546.88 -1.44,2.08002 -1.12,-1.76001 z"
         style="fill:#000000;fill-opacity:1;fill-rule:evenodd;stroke:none"
         id="path10483" />
    </g>
    <g
       id="g10485"
       transform="matrix(0.26458333,0,0,0.26458333,104.61891,152.46745)">
      <path
         d="m 0,0 c 1.92,-0.16 3.84,-0.96 5.44,-2.08 m 0,0 L 4,0 2.88,-1.76 Z"
         style="fill:none;stroke:#000000;stroke-width:0.48;stroke-linecap:butt;stroke-linejoin:miter;stroke-miterlimit:2;stroke-dasharray:none;stroke-opacity:1"
         id="path10487" />
    </g>
    <g
       id="g10489"
       transform="matrix(0.00322977,0,0,0.00322977,74.435248,7.2217789)">
      <text
         xml:space="preserve"
         transform="translate(9515.8398,45337.801)"
         style="font-variant:normal;font-weight:normal;font-size:327.68px;font-family:F1;-inkscape-font-specification:F1;writing-mode:lr-tb;fill:#ff0000;fill-opacity:1;fill-rule:nonzero;stroke:none"
         id="text10493"><tspan
           x="0 183.50079 367.00159"
           y="0"
           sodipodi:role="line"
           id="tspan10491">2x8</tspan></text>
    </g>
  </g>
</svg>
