<?xml version="1.0" encoding="UTF-8" standalone="no"?>
<!-- Created with Inkscape (http://www.inkscape.org/) -->

<svg
   width="9.5806427mm"
   height="17.342741mm"
   viewBox="0 0 9.5806422 17.34274"
   version="1.1"
   id="svg15577"
   inkscape:version="1.2.2 (732a01da63, 2022-12-09)"
   sodipodi:docname="5.svg"
   xmlns:inkscape="http://www.inkscape.org/namespaces/inkscape"
   xmlns:sodipodi="http://sodipodi.sourceforge.net/DTD/sodipodi-0.dtd"
   xmlns="http://www.w3.org/2000/svg"
   xmlns:svg="http://www.w3.org/2000/svg">
  <sodipodi:namedview
     id="namedview15579"
     pagecolor="#ffffff"
     bordercolor="#000000"
     borderopacity="0.25"
     inkscape:showpageshadow="2"
     inkscape:pageopacity="0.0"
     inkscape:pagecheckerboard="true"
     inkscape:deskcolor="#d1d1d1"
     inkscape:document-units="mm"
     showgrid="false"
     showborder="false"
     inkscape:zoom="5.9651515"
     inkscape:cx="53.477267"
     inkscape:cy="32.522225"
     inkscape:window-width="1920"
     inkscape:window-height="1017"
     inkscape:window-x="1912"
     inkscape:window-y="-8"
     inkscape:window-maximized="1"
     inkscape:current-layer="layer1" />
  <defs
     id="defs15574" />
  <g
     inkscape:label="Layer 1"
     inkscape:groupmode="layer"
     id="layer1"
     transform="translate(-45.774277,-57.038391)">
    <g
       id="g15014"
       transform="matrix(0.26458333,0,0,0.26458333,49.253236,55.298379)" />
    <g
       id="g15238"
       transform="matrix(0.26458333,0,0,0.26458333,53.288683,65.248918)">
      <path
         d="m 0,0 c 0,-1.12 0.8,-1.92 1.92,-1.92 0.96,0 1.76,0.8 1.76,1.92 0,0.96 -0.8,1.92 -1.76,1.92 C 0.8,1.92 0,0.96 0,0 Z"
         style="fill:#000000;fill-opacity:1;fill-rule:evenodd;stroke:none"
         id="path15240" />
    </g>
    <g
       id="g15242"
       transform="matrix(0.26458333,0,0,0.26458333,53.288683,65.248918)">
      <path
         d="m 0,0 c 0,-1.12 0.8,-1.92 1.92,-1.92 0.96,0 1.76,0.8 1.76,1.92 0,0.96 -0.8,1.92 -1.76,1.92 C 0.8,1.92 0,0.96 0,0 Z"
         style="fill:none;stroke:#000000;stroke-width:0.96;stroke-linecap:round;stroke-linejoin:round;stroke-miterlimit:10;stroke-dasharray:none;stroke-opacity:1"
         id="path15244" />
    </g>
    <g
       id="g15246"
       transform="matrix(0.26458333,0,0,0.26458333,20.819017,-77.160411)">
      <path
         d="M 99.519997,568.79999 H 107.04"
         style="fill:none;stroke:#000000;stroke-width:0.96;stroke-linecap:round;stroke-linejoin:round;stroke-miterlimit:10;stroke-dasharray:none;stroke-opacity:1"
         id="path15248" />
    </g>
    <g
       id="g15250"
       transform="matrix(0.26458333,0,0,0.26458333,20.819017,-77.160411)">
      <path
         d="m 122.72,538.23999 h -8.64 v -27.03998"
         style="fill:none;stroke:#000000;stroke-width:0.96;stroke-linecap:round;stroke-linejoin:round;stroke-miterlimit:10;stroke-dasharray:none;stroke-opacity:1"
         id="path15252" />
    </g>
    <g
       id="g15254"
       transform="matrix(0.26458333,0,0,0.26458333,20.819017,-77.160411)">
      <path
         d="m 114.08,538.23999 v 22.56"
         style="fill:none;stroke:#000000;stroke-width:0.96;stroke-linecap:round;stroke-linejoin:round;stroke-miterlimit:10;stroke-dasharray:none;stroke-opacity:1"
         id="path15256" />
    </g>
    <g
       id="g15258"
       transform="matrix(0.26458333,0,0,0.26458333,20.819017,-77.160411)">
      <path
         d="m 114.08,560.79999 -10.72,8"
         style="fill:none;stroke:#000000;stroke-width:0.96;stroke-linecap:round;stroke-linejoin:round;stroke-miterlimit:10;stroke-dasharray:none;stroke-opacity:1"
         id="path15260" />
    </g>
    <g
       id="g15262"
       transform="matrix(0.26458333,0,0,0.26458333,20.819017,-77.160411)">
      <path
         d="M 114.08,511.20001 112,515.52002"
         style="fill:none;stroke:#000000;stroke-width:0.96;stroke-linecap:round;stroke-linejoin:round;stroke-miterlimit:10;stroke-dasharray:none;stroke-opacity:1"
         id="path15264" />
    </g>
    <g
       id="g15266"
       transform="matrix(0.26458333,0,0,0.26458333,20.819017,-77.160411)">
      <path
         d="m 119.52,546.88 -1.44,2.08002 -1.12,-1.76001 z"
         style="fill:#000000;fill-opacity:1;fill-rule:evenodd;stroke:none"
         id="path15268" />
    </g>
    <g
       id="g15270"
       transform="matrix(0.26458333,0,0,0.26458333,20.819017,-77.160411)">
      <path
         d="M 114.08,548.96002 C 116,548.79999 117.92,548 119.52,546.88"
         style="fill:none;stroke:#000000;stroke-width:0.48;stroke-linecap:butt;stroke-linejoin:miter;stroke-miterlimit:2;stroke-dasharray:none;stroke-opacity:1"
         id="path15272" />
    </g>
    <g
       id="g15274"
       transform="matrix(0.26458333,0,0,0.26458333,20.819017,-77.160411)">
      <path
         d="m 119.52,546.88 -1.44,2.08002 -1.12,-1.76001 z"
         style="fill:none;stroke:#000000;stroke-width:0.48;stroke-linecap:butt;stroke-linejoin:miter;stroke-miterlimit:2;stroke-dasharray:none;stroke-opacity:1"
         id="path15276" />
    </g>
    <g
       id="g15278"
       transform="matrix(0.26458333,0,0,0.26458333,51.807017,69.143592)">
      <path
         d="m 0,0 c 0,0 0,-0.16 0,-0.16 0.16,0 0.16,-0.16 0.48,-0.32 0.16,-0.16 0.32,-0.32 0.32,-0.32 0.16,-0.16 0.16,-0.32 0.32,-0.48 0,0 0,-0.16 0,-0.32 C 1.12,-1.76 0.96,-2.08 0.8,-2.24 0.64,-2.4 0.48,-2.4 0.16,-2.4 c -0.32,0 -0.48,0 -0.64,0.16 -0.16,0.16 -0.32,0.48 -0.32,0.8 h 0.48 c 0,-0.16 0,-0.32 0.16,-0.32 0,-0.16 0.16,-0.16 0.32,-0.16 0.16,0 0.32,0 0.32,0.16 0.16,0 0.16,0.16 0.16,0.16 0,0.16 0,0.32 -0.16,0.32 0,0.16 -0.16,0.32 -0.48,0.48 -0.32,0.32 -0.48,0.64 -0.64,0.8 0,0.16 -0.16,0.32 -0.16,0.48 H 1.12 V 0 Z"
         style="fill:#ff0000;fill-opacity:1;fill-rule:nonzero;stroke:none"
         id="path15280" />
    </g>
    <g
       id="g15282"
       transform="matrix(0.26458333,0,0,0.26458333,52.272683,69.270587)">
      <path
         d="M 0,0 0.64,-0.8 1.28,0 H 1.6 L 0.96,-1.12 1.6,-2.24 H 1.28 L 0.64,-1.6 0,-2.24 h -0.48 l 0.8,1.12 -0.8,1.12 z"
         style="fill:#ff0000;fill-opacity:1;fill-rule:nonzero;stroke:none"
         id="path15284" />
    </g>
    <g
       id="g15286"
       transform="matrix(0.26458333,0,0,0.26458333,52.823017,68.931913)">
      <path
         d="m 0,0 c -0.16,0.16 -0.16,0.32 -0.16,0.48 0,0.16 0.16,0.48 0.32,0.64 0.16,0.16 0.32,0.16 0.64,0.16 0.32,0 0.48,0 0.64,-0.16 C 1.6,0.96 1.76,0.64 1.76,0.48 1.76,0.32 1.76,0.16 1.6,0 c 0,-0.16 -0.16,-0.16 -0.32,-0.32 0.16,0 0.32,0 0.32,-0.16 C 1.76,-0.64 1.76,-0.64 1.76,-0.8 1.76,-1.12 1.6,-1.28 1.44,-1.44 1.28,-1.6 1.12,-1.6 0.8,-1.6 c -0.32,0 -0.48,0 -0.64,0.16 -0.16,0.16 -0.32,0.32 -0.32,0.64 0,0 0,0.16 0.16,0.32 0,0.16 0.16,0.16 0.32,0.16 C 0.16,-0.16 0,-0.16 0,0 Z m 0.48,-0.96 c 0,-0.16 0.16,-0.16 0.32,-0.16 0.16,0 0.32,0 0.32,0.16 0.16,0 0.16,0 0.16,0.16 0,0.16 0,0.16 -0.16,0.16 0,0.16 -0.16,0.16 -0.32,0.16 -0.16,0 -0.32,0 -0.32,-0.16 -0.16,0 -0.16,0 -0.16,-0.16 0,-0.16 0,-0.16 0.16,-0.16 z m 0,1.12 C 0.48,0 0.64,0 0.8,0 c 0.16,0 0.32,0 0.32,0.16 0.16,0 0.16,0.16 0.16,0.16 0,0.16 0,0.32 -0.16,0.32 C 1.12,0.8 0.96,0.8 0.8,0.8 0.64,0.8 0.48,0.8 0.48,0.64 0.32,0.64 0.32,0.48 0.32,0.32 c 0,0 0,-0.16 0.16,-0.16 z"
         style="fill:#ff0000;fill-opacity:1;fill-rule:nonzero;stroke:none"
         id="path15288" />
    </g>
  </g>
</svg>
