<?xml version="1.0" encoding="UTF-8" standalone="no"?>
<!-- Created with Inkscape (http://www.inkscape.org/) -->

<svg
   width="12.020158mm"
   height="18.274189mm"
   viewBox="0 0 12.020157 18.274188"
   version="1.1"
   id="svg15577"
   inkscape:version="1.2.2 (732a01da63, 2022-12-09)"
   sodipodi:docname="6.svg"
   xmlns:inkscape="http://www.inkscape.org/namespaces/inkscape"
   xmlns:sodipodi="http://sodipodi.sourceforge.net/DTD/sodipodi-0.dtd"
   xmlns="http://www.w3.org/2000/svg"
   xmlns:svg="http://www.w3.org/2000/svg">
  <sodipodi:namedview
     id="namedview15579"
     pagecolor="#ffffff"
     bordercolor="#000000"
     borderopacity="0.25"
     inkscape:showpageshadow="2"
     inkscape:pageopacity="0.0"
     inkscape:pagecheckerboard="true"
     inkscape:deskcolor="#d1d1d1"
     inkscape:document-units="mm"
     showgrid="false"
     showborder="false"
     inkscape:zoom="5.9651515"
     inkscape:cx="69.067818"
     inkscape:cy="46.939294"
     inkscape:window-width="1920"
     inkscape:window-height="1017"
     inkscape:window-x="1912"
     inkscape:window-y="-8"
     inkscape:window-maximized="1"
     inkscape:current-layer="layer1" />
  <defs
     id="defs15574" />
  <g
     inkscape:label="Layer 1"
     inkscape:groupmode="layer"
     id="layer1"
     transform="translate(-41.649277,-53.223873)">
    <g
       id="g15014"
       transform="matrix(0.26458333,0,0,0.26458333,49.253236,55.298379)" />
    <g
       id="g13720"
       transform="matrix(0.26458333,0,0,0.26458333,18.006939,-99.253542)" />
    <g
       id="g15290"
       transform="matrix(0.26458333,0,0,0.26458333,47.259272,66.862464)">
      <path
         d="M 0,0 C -0.64,-0.96 -0.48,-2.08 0.48,-2.72 1.28,-3.2 2.4,-3.04 3.04,-2.24 3.68,-1.28 3.36,-0.16 2.56,0.48 1.76,0.96 0.48,0.8 0,0 Z"
         style="fill:#000000;fill-opacity:1;fill-rule:evenodd;stroke:none"
         id="path15292" />
    </g>
    <g
       id="g15294"
       transform="matrix(0.26458333,0,0,0.26458333,47.259272,66.862464)">
      <path
         d="M 0,0 C -0.64,-0.96 -0.48,-2.08 0.48,-2.72 1.28,-3.2 2.4,-3.04 3.04,-2.24 3.68,-1.28 3.36,-0.16 2.56,0.48 1.76,0.96 0.48,0.8 0,0 Z"
         style="fill:none;stroke:#000000;stroke-width:0.96;stroke-linecap:round;stroke-linejoin:round;stroke-miterlimit:10;stroke-dasharray:none;stroke-opacity:1"
         id="path15296" />
    </g>
    <g
       id="g15298"
       transform="matrix(0.26458333,0,0,0.26458333,18.006939,-99.253542)">
      <path
         d="M 130.56,642.08002 V 626.88"
         style="fill:none;stroke:#000000;stroke-width:0.96;stroke-linecap:round;stroke-linejoin:round;stroke-miterlimit:10;stroke-dasharray:none;stroke-opacity:1"
         id="path15300" />
    </g>
    <g
       id="g15302"
       transform="matrix(0.26458333,0,0,0.26458333,18.006939,-99.253542)">
      <path
         d="m 110.56,627.84003 -10.4,7.19995"
         style="fill:none;stroke:#000000;stroke-width:0.96;stroke-linecap:round;stroke-linejoin:round;stroke-miterlimit:10;stroke-dasharray:none;stroke-opacity:1"
         id="path15304" />
    </g>
    <g
       id="g15306"
       transform="matrix(0.26458333,0,0,0.26458333,18.006939,-99.253542)">
      <path
         d="M 100.16,635.03998 V 589.28003"
         style="fill:none;stroke:#000000;stroke-width:0.96;stroke-linecap:round;stroke-linejoin:round;stroke-miterlimit:10;stroke-dasharray:none;stroke-opacity:1"
         id="path15308" />
    </g>
    <g
       id="g15310"
       transform="matrix(0.26458333,0,0,0.26458333,18.006939,-99.253542)">
      <path
         d="m 100.16,589.28003 c 0,-5.60004 4.48,-10.24005 10.24,-10.24005 5.6,0 10.24,4.64001 10.24,10.24005"
         style="fill:none;stroke:#000000;stroke-width:0.96;stroke-linecap:round;stroke-linejoin:round;stroke-miterlimit:10;stroke-dasharray:none;stroke-opacity:1"
         id="path15312" />
    </g>
    <g
       id="g15314"
       transform="matrix(0.26458333,0,0,0.26458333,18.006939,-99.253542)">
      <path
         d="M 120.64,589.28003 V 634.56"
         style="fill:none;stroke:#000000;stroke-width:0.96;stroke-linecap:round;stroke-linejoin:round;stroke-miterlimit:10;stroke-dasharray:none;stroke-opacity:1"
         id="path15316" />
    </g>
    <g
       id="g15318"
       transform="matrix(0.26458333,0,0,0.26458333,18.006939,-99.253542)">
      <path
         d="m 120.64,634.56 h 9.92"
         style="fill:none;stroke:#000000;stroke-width:0.96;stroke-linecap:round;stroke-linejoin:round;stroke-miterlimit:10;stroke-dasharray:none;stroke-opacity:1"
         id="path15320" />
    </g>
    <g
       id="g15322"
       transform="matrix(0.26458333,0,0,0.26458333,18.006939,-99.253542)">
      <path
         d="m 113.76,606.88 1.76,2.88001 1.44,-2.40003 z"
         style="fill:#000000;fill-opacity:1;fill-rule:evenodd;stroke:none"
         id="path15324" />
    </g>
    <g
       id="g15326"
       transform="matrix(0.26458333,0,0,0.26458333,18.006939,-99.253542)">
      <path
         d="m 120.96,609.76001 c -2.56,-0.16003 -5.12,-1.12 -7.2,-2.88001"
         style="fill:none;stroke:#000000;stroke-width:0.48;stroke-linecap:butt;stroke-linejoin:miter;stroke-miterlimit:2;stroke-dasharray:none;stroke-opacity:1"
         id="path15328" />
    </g>
    <g
       id="g15330"
       transform="matrix(0.26458333,0,0,0.26458333,18.006939,-99.253542)">
      <path
         d="m 113.76,606.88 1.76,2.88001 1.44,-2.40003 z"
         style="fill:none;stroke:#000000;stroke-width:0.48;stroke-linecap:butt;stroke-linejoin:miter;stroke-miterlimit:2;stroke-dasharray:none;stroke-opacity:1"
         id="path15332" />
    </g>
    <g
       id="g15334"
       transform="matrix(0.26458333,0,0,0.26458333,47.301605,60.512464)">
      <path
         d="m 0,0 c 0.32,0.16 0.48,0.32 0.8,0.32 0.48,0 0.64,-0.16 0.96,-0.32 0.16,-0.16 0.32,-0.48 0.32,-0.8 0,-0.32 0,-0.48 -0.16,-0.64 C 1.76,-1.6 1.6,-1.6 1.44,-1.76 1.76,-1.92 1.92,-2.08 1.92,-2.4 1.92,-2.72 1.76,-2.88 1.6,-3.04 1.44,-3.2 1.12,-3.36 0.8,-3.36 c -0.16,0 -0.32,0 -0.48,0.16 -0.16,0 -0.32,0.16 -0.48,0.32 0,0.16 -0.16,0.32 -0.16,0.48 l 0.64,0.16 c 0,-0.16 0,-0.32 0.16,-0.32 0.16,-0.16 0.16,-0.16 0.32,-0.16 0.16,0 0.32,0 0.32,0.16 0.16,0 0.16,0.16 0.16,0.16 0,0.16 0,0.32 -0.16,0.32 -0.16,0.16 -0.32,0.16 -0.48,0.16 l -0.16,0.48 c 0.16,0 0.32,0 0.32,0 0.16,0 0.32,0 0.48,0.16 0.16,0.16 0.16,0.16 0.16,0.32 0,0.16 0,0.32 -0.16,0.48 -0.16,0.16 -0.32,0.16 -0.32,0.16 -0.16,0 -0.32,0 -0.48,-0.16 0,0 -0.16,-0.16 -0.16,-0.32 h -0.64 c 0,0.32 0.16,0.64 0.32,0.8 z"
         style="fill:#ff0000;fill-opacity:1;fill-rule:nonzero;stroke:none"
         id="path15336" />
    </g>
    <g
       id="g15338"
       transform="matrix(0.26458333,0,0,0.26458333,18.006939,-99.253542)">
      <path
         d="m 113.6,604.15997 0.96,-3.67999 h -0.48 l -0.96,3.67999 z"
         style="fill:#ff0000;fill-opacity:1;fill-rule:nonzero;stroke:none"
         id="path15340" />
    </g>
    <g
       id="g15342"
       transform="matrix(0.26458333,0,0,0.26458333,48.910272,60.597115)">
      <path
         d="M 0,0 V -0.8 H 0.48 V -1.44 H 0 v -2.24 h -0.64 l -1.44,2.24 v 0.64 h 1.44 V 0 Z m -1.6,-1.44 0.96,-1.28 v 1.28 z"
         style="fill:#ff0000;fill-opacity:1;fill-rule:nonzero;stroke:none"
         id="path15344" />
    </g>
    <g
       id="g15346"
       transform="matrix(0.26458333,0,0,0.26458333,18.006939,-99.253542)">
      <path
         d="M 92.639999,610.08002 94.559998,607.20001 96,609.59998 Z"
         style="fill:#000000;fill-opacity:1;fill-rule:evenodd;stroke:none"
         id="path15348" />
    </g>
    <g
       id="g15350"
       transform="matrix(0.26458333,0,0,0.26458333,18.006939,-99.253542)">
      <path
         d="m 105.76,609.44 c -3.84,-3.20001 -9.599996,-2.88 -13.120001,0.64002"
         style="fill:none;stroke:#000000;stroke-width:0.48;stroke-linecap:butt;stroke-linejoin:miter;stroke-miterlimit:2;stroke-dasharray:none;stroke-opacity:1"
         id="path15352" />
    </g>
    <g
       id="g15354"
       transform="matrix(0.26458333,0,0,0.26458333,18.006939,-99.253542)">
      <path
         d="M 92.639999,610.08002 94.559998,607.20001 96,609.59998 Z"
         style="fill:none;stroke:#000000;stroke-width:0.48;stroke-linecap:butt;stroke-linejoin:miter;stroke-miterlimit:2;stroke-dasharray:none;stroke-opacity:1"
         id="path15356" />
    </g>
  </g>
</svg>
