<?xml version="1.0" standalone="no"?>
<!DOCTYPE svg PUBLIC "-//W3C//DTD SVG 1.2//EN" "http://www.w3.org/Graphics/SVG/1.2/DTD/svg12.dtd">
<svg xmlns="http://www.w3.org/2000/svg" version="1.2" baseProfile="tiny" id="selectedFigureSvg" width="100px" height="100px" viewBox="-76.62 -78.93 105.3 152.46"><g id="sequence"><g id="figure-2"><path d="M 0,0 m -4,0 a4,4 0 1 1 0,0.01" style="stroke: black; stroke-width: 1px; fill: black;"/><path d="M -4,0 l -36,0" style="stroke: black; stroke-width: 3px; fill: none;" class="line" id="figure-2-entry"/><path d="M -40,0 l 0,-72" style="stroke: black; stroke-width: 3px; fill: none;" class="line" id="figure-2-roll0-gap0"/><path d="M -40,-72 l 9,9" style="stroke: black; stroke-width: 3px; fill: none;" class="hammerTip"/><path d="M -40,0 l 0,36" style="stroke: black; stroke-width: 3px; fill: none;" class="line" id="figure-2-roll1-gap0"/><path d="M -40,36 m 23.45,-11.3 l -6.45,10.74 l -4,-6.93 z" style="stroke: black; stroke-width: 2px; fill: black;"/><path d="M -40,36 m 23.45,-11.3 a 30,30 0 0 1 -23.45,11.3 " style="stroke: black; stroke-width: 3px; fill: none;"/><text style="font-family: Arial, Sans; font-size: 20px; font-weight: bold; fill: red;" text-anchor="middle" x="7.14" y="43">2x8</text><path d="M -40,36 l 0,18" style="stroke: black; stroke-width: 3px; fill: none;" class="line" id="figure-2-roll1-gap1"/><path d="M -40,54 l -21.83,12.6" style="stroke: black; stroke-width: 3px; fill: none;" class="line" id="figure-2-exit"/><path d="M -61.83,66.6 l 10,0 l -20,0" style="stroke: black; stroke-width: 3px; fill: none;"/></g></g></svg>