<?xml version="1.0" encoding="UTF-8" standalone="no"?>
<!-- Created with Inkscape (http://www.inkscape.org/) -->

<svg
   width="21.024191mm"
   height="15.346771mm"
   viewBox="0 0 21.024189 15.34677"
   version="1.1"
   id="svg15577"
   inkscape:version="1.2.2 (732a01da63, 2022-12-09)"
   sodipodi:docname="7.svg"
   xmlns:inkscape="http://www.inkscape.org/namespaces/inkscape"
   xmlns:sodipodi="http://sodipodi.sourceforge.net/DTD/sodipodi-0.dtd"
   xmlns="http://www.w3.org/2000/svg"
   xmlns:svg="http://www.w3.org/2000/svg">
  <sodipodi:namedview
     id="namedview15579"
     pagecolor="#ffffff"
     bordercolor="#000000"
     borderopacity="0.25"
     inkscape:showpageshadow="2"
     inkscape:pageopacity="0.0"
     inkscape:pagecheckerboard="true"
     inkscape:deskcolor="#d1d1d1"
     inkscape:document-units="mm"
     showgrid="false"
     showborder="false"
     inkscape:zoom="5.9651515"
     inkscape:cx="81.976124"
     inkscape:cy="43.754128"
     inkscape:window-width="1920"
     inkscape:window-height="1017"
     inkscape:window-x="1912"
     inkscape:window-y="-8"
     inkscape:window-maximized="1"
     inkscape:current-layer="layer1" />
  <defs
     id="defs15574" />
  <g
     inkscape:label="Layer 1"
     inkscape:groupmode="layer"
     id="layer1"
     transform="translate(-36.149277,-55.219841)">
    <g
       id="g15014"
       transform="matrix(0.26458333,0,0,0.26458333,49.253236,55.298379)" />
    <g
       id="g13720"
       transform="matrix(0.26458333,0,0,0.26458333,18.006939,-99.253542)" />
    <g
       id="g15358"
       transform="matrix(0.26458333,0,0,0.26458333,38.324799,69.021458)">
      <path
         d="m 0,0 c 0,-1.12 -0.8,-1.92 -1.92,-1.92 -0.96,0 -1.92,0.8 -1.92,1.92 0,0.96 0.96,1.92 1.92,1.92 C -0.8,1.92 0,0.96 0,0 Z"
         style="fill:#000000;fill-opacity:1;fill-rule:evenodd;stroke:none"
         id="path15360" />
    </g>
    <g
       id="g15362"
       transform="matrix(0.26458333,0,0,0.26458333,38.324799,69.021458)">
      <path
         d="m 0,0 c 0,-1.12 -0.8,-1.92 -1.92,-1.92 -0.96,0 -1.92,0.8 -1.92,1.92 0,0.96 0.96,1.92 1.92,1.92 C -0.8,1.92 0,0.96 0,0 Z"
         style="fill:none;stroke:#000000;stroke-width:0.96;stroke-linecap:round;stroke-linejoin:round;stroke-miterlimit:10;stroke-dasharray:none;stroke-opacity:1"
         id="path15364" />
    </g>
    <g
       id="g15370"
       transform="matrix(0.26458333,0,0,0.26458333,17.031132,-118.30354)">
      <path
         d="m 80.480003,708 h 8"
         style="fill:none;stroke:#000000;stroke-width:0.96;stroke-linecap:round;stroke-linejoin:round;stroke-miterlimit:10;stroke-dasharray:none;stroke-opacity:1"
         id="path15372" />
    </g>
    <g
       id="g15374"
       transform="matrix(0.26458333,0,0,0.26458333,17.031132,-118.30354)">
      <path
         d="M 88.480003,708 136.32001,660.15997"
         style="fill:none;stroke:#000000;stroke-width:0.96;stroke-linecap:round;stroke-linejoin:round;stroke-miterlimit:10;stroke-dasharray:none;stroke-opacity:1"
         id="path15376" />
    </g>
    <g
       id="g15378"
       transform="matrix(0.26458333,0,0,0.26458333,17.031132,-118.30354)">
      <path
         d="m 136.32001,660.15997 h 11.35998"
         style="fill:none;stroke:#000000;stroke-width:0.96;stroke-linecap:round;stroke-linejoin:round;stroke-miterlimit:10;stroke-dasharray:none;stroke-opacity:1"
         id="path15380" />
    </g>
    <g
       id="g15382"
       transform="matrix(0.26458333,0,0,0.26458333,17.031132,-118.30354)">
      <path
         d="m 111.36,677.28003 -2.24,2.23999 4.16,11.67999 7.36,-7.35998 -11.52,-4.32001 z"
         style="fill:#ffffff;fill-opacity:1;fill-rule:evenodd;stroke:none"
         id="path15384" />
    </g>
    <g
       id="g15386"
       transform="matrix(0.26458333,0,0,0.26458333,17.031132,-118.30354)">
      <path
         d="m 111.36,677.28003 -2.24,2.23999 4.16,11.67999 7.36,-7.35998 -11.52,-4.32001"
         style="fill:none;stroke:#000000;stroke-width:0.48;stroke-linecap:round;stroke-linejoin:round;stroke-miterlimit:10;stroke-dasharray:none;stroke-opacity:1"
         id="path15388" />
    </g>
  </g>
</svg>
