<?xml version="1.0" standalone="no"?>
<!DOCTYPE svg PUBLIC "-//W3C//DTD SVG 1.2//EN" "http://www.w3.org/Graphics/SVG/1.2/DTD/svg12.dtd">
<svg xmlns="http://www.w3.org/2000/svg" version="1.2" baseProfile="tiny" id="selectedFigureSvg" width="100px" height="100px" viewBox="-43.38 -144.08 114.28 225.54"><g id="sequence"><g id="figure-2"><path d="M 0,0 m -4,0 a4,4 0 1 1 0,0.01" style="stroke: black; stroke-width: 1px; fill: black;"/><path d="M 3.46,2 l 38.8,22.4" style="stroke: black; stroke-width: 3px; fill: none;" class="line" id="figure-2-entry"/><path d="M 42.26,24.4 l 0,-64" style="stroke: black; stroke-width: 3px; fill: none;" class="line" id="figure-2-roll0-gap0"/><path d="M 42.26,-39.6 m 23.45,11.3 l -6.45,-10.74 l -4,6.93 z" style="stroke: black; stroke-width: 2px; fill: black;"/><path d="M 42.26,-39.6 m 23.45,11.3 a 30,30 0 0 0 -38.45,-7.28 " style="stroke: black; stroke-width: 3px; fill: none;"/><path d="M 42.26,-39.6 l 0,-72" style="stroke: black; stroke-width: 3px; fill: none;" class="line" id="figure-2-roll0-gap1"/><path d="M 42.26,-111.6 a8.94,17.36 -14.67 0 0 -19.4,-11.2" style="stroke: black; stroke-width: 3px; fill: none;"/><path d="M 22.86,-122.8 l 0,40" style="stroke: black; stroke-width: 3px; fill: none;" class="line" id="figure-2-roll1-gap0"/><path d="M 22.86,-82.8 m -23.45,-11.3 l 6.45,10.74 l 4,-6.93 z" style="stroke: black; stroke-width: 2px; fill: black;"/><path d="M 22.86,-82.8 m -23.45,-11.3 a 30,30 0 0 0 23.45,11.3 " style="stroke: black; stroke-width: 3px; fill: none;"/><text style="font-family: Arial, Sans; font-size: 20px; font-weight: bold; fill: red;" text-anchor="middle" x="-24.28" y="-75.8">3/4</text><path d="M 22.86,-82.8 l 0,144" style="stroke: black; stroke-width: 3px; fill: none;" class="line" id="figure-2-roll1-gap1"/><path d="M 22.86,61.2 l -48,0" style="stroke: black; stroke-width: 3px; fill: none;" class="line" id="figure-2-exit"/><path d="M -25.14,61.2 l 0,10 l 0,-20" style="stroke: black; stroke-width: 3px; fill: none;"/></g></g></svg>