<?xml version="1.0" encoding="UTF-8" standalone="no"?>
<!-- Created with Inkscape (http://www.inkscape.org/) -->

<svg
   width="11.842744mm"
   height="16.943548mm"
   viewBox="0 0 11.842743 16.943547"
   version="1.1"
   id="svg15577"
   inkscape:version="1.2.2 (732a01da63, 2022-12-09)"
   sodipodi:docname="8.svg"
   xmlns:inkscape="http://www.inkscape.org/namespaces/inkscape"
   xmlns:sodipodi="http://sodipodi.sourceforge.net/DTD/sodipodi-0.dtd"
   xmlns="http://www.w3.org/2000/svg"
   xmlns:svg="http://www.w3.org/2000/svg">
  <sodipodi:namedview
     id="namedview15579"
     pagecolor="#ffffff"
     bordercolor="#000000"
     borderopacity="0.25"
     inkscape:showpageshadow="2"
     inkscape:pageopacity="0.0"
     inkscape:pagecheckerboard="true"
     inkscape:deskcolor="#d1d1d1"
     inkscape:document-units="mm"
     showgrid="false"
     showborder="false"
     inkscape:zoom="5.9651515"
     inkscape:cx="81.976124"
     inkscape:cy="43.754128"
     inkscape:window-width="1920"
     inkscape:window-height="1017"
     inkscape:window-x="1912"
     inkscape:window-y="-8"
     inkscape:window-maximized="1"
     inkscape:current-layer="layer1" />
  <defs
     id="defs15574" />
  <g
     inkscape:label="Layer 1"
     inkscape:groupmode="layer"
     id="layer1"
     transform="translate(-38.233955,-54.066616)">
    <g
       id="g15014"
       transform="matrix(0.26458333,0,0,0.26458333,49.253236,55.298379)" />
    <g
       id="g13720"
       transform="matrix(0.26458333,0,0,0.26458333,18.006939,-99.253542)" />
    <g
       id="g15390"
       transform="matrix(0.26458333,0,0,0.26458333,45.561423,55.644003)">
      <path
         d="M 0,0 V 6.72 L 0.16,7.04 0.48,7.2 0.96,7.04 V 6.72 0 -0.32 L 0.48,-0.48 0.16,-0.32 Z m 0,11.52 v 6.72 l 0.16,0.319999 0.32,0.16 0.48,-0.16 V 18.24 11.52 11.2 L 0.48,11.04 0.16,11.2 Z M 0,23.040001 V 29.76 l 0.16,0.32 0.32,0.16 0.48,-0.16 v -0.32 -6.719999 -0.320002 l -0.48,-0.16 -0.32,0.16 z m 0,11.52 v 6.719998 l 0.16,0.319999 0.32,0.16 0.48,-0.16 v -0.319999 -6.719998 -0.319999 l -0.48,-0.16 -0.32,0.16 z m 0,11.520001 v 1.119999 L 0.16,47.52 0.48,47.68 0.96,47.52 v -0.319999 -1.119999 -0.320004 l -0.48,-0.16 -0.32,0.16 z"
         style="fill:#ff0000;fill-opacity:1;fill-rule:nonzero;stroke:none"
         id="path15392" />
    </g>
    <g
       id="g15394"
       transform="matrix(0.26458333,0,0,0.26458333,40.227423,55.644003)">
      <path
         d="m 0,0 c 0,0.96 -0.96,1.92 -1.92,1.92 -1.12,0 -1.92,-0.96 -1.92,-1.92 0,-1.12 0.8,-1.92 1.92,-1.92 0.96,0 1.92,0.8 1.92,1.92 z"
         style="fill:#000000;fill-opacity:1;fill-rule:evenodd;stroke:none"
         id="path15396" />
    </g>
    <g
       id="g15398"
       transform="matrix(0.26458333,0,0,0.26458333,40.227423,55.644003)">
      <path
         d="m 0,0 c 0,0.96 -0.96,1.92 -1.92,1.92 -1.12,0 -1.92,-0.96 -1.92,-1.92 0,-1.12 0.8,-1.92 1.92,-1.92 0.96,0 1.92,0.8 1.92,1.92 z"
         style="fill:none;stroke:#000000;stroke-width:0.96;stroke-linecap:round;stroke-linejoin:round;stroke-miterlimit:10;stroke-dasharray:none;stroke-opacity:1"
         id="path15400" />
    </g>
    <g
       id="g15402"
       transform="matrix(0.26458333,0,0,0.26458333,14.192423,-138.285)">
      <path
         d="m 96.480003,772.64001 v 15.03998"
         style="fill:none;stroke:#000000;stroke-width:0.96;stroke-linecap:round;stroke-linejoin:round;stroke-miterlimit:10;stroke-dasharray:none;stroke-opacity:1"
         id="path15404" />
    </g>
    <g
       id="g15406"
       transform="matrix(0.26458333,0,0,0.26458333,14.192423,-138.285)">
      <path
         d="M 98.400002,732.96002 H 119.04"
         style="fill:none;stroke:#000000;stroke-width:0.96;stroke-linecap:round;stroke-linejoin:round;stroke-miterlimit:10;stroke-dasharray:none;stroke-opacity:1"
         id="path15408" />
    </g>
    <g
       id="g15410"
       transform="matrix(0.26458333,0,0,0.26458333,14.192423,-138.285)">
      <path
         d="M 119.04,780.15997 H 96.480003"
         style="fill:none;stroke:#000000;stroke-width:0.96;stroke-linecap:round;stroke-linejoin:round;stroke-miterlimit:10;stroke-dasharray:none;stroke-opacity:1"
         id="path15412" />
    </g>
    <g
       id="g15414"
       transform="matrix(0.26458333,0,0,0.26458333,48.440089,58.607323)">
      <path
         d="M 0,0 V -4.16 H -18.719999 V 5.28 L 0,-4.16 Z M 0,5.28 V 1.12 H -10.4 V 6.24 L 0,1.12 Z"
         style="fill:#ffffff;fill-opacity:1;fill-rule:evenodd;stroke:none"
         id="path15416" />
    </g>
    <g
       id="g15418"
       transform="matrix(0.26458333,0,0,0.26458333,14.192423,-138.285)">
      <path
         d="M 129.44,744.15997 V 740 h -18.72 v 9.44 L 129.44,740"
         style="fill:none;stroke:#000000;stroke-width:0.48;stroke-linecap:round;stroke-linejoin:round;stroke-miterlimit:10;stroke-dasharray:none;stroke-opacity:1"
         id="path15420" />
    </g>
    <g
       id="g15422"
       transform="matrix(0.26458333,0,0,0.26458333,14.192423,-138.285)">
      <path
         d="m 129.44,749.44 v -4.15997 h -10.4 v 5.11999 l 10.4,-5.11999"
         style="fill:none;stroke:#000000;stroke-width:0.48;stroke-linecap:round;stroke-linejoin:round;stroke-miterlimit:10;stroke-dasharray:none;stroke-opacity:1"
         id="path15424" />
    </g>
    <g
       id="g15426"
       transform="matrix(0.26458333,0,0,0.26458333,14.192423,-138.285)">
      <path
         d="m 131.52,740 v 9.44"
         style="fill:none;stroke:#000000;stroke-width:0.48;stroke-linecap:round;stroke-linejoin:round;stroke-miterlimit:10;stroke-dasharray:none;stroke-opacity:1"
         id="path15428" />
    </g>
  </g>
</svg>
