<svg id="svg" xmlns="http://www.w3.org/2000/svg" xmlns:xlink="http://www.w3.org/1999/xlink" width="400" height="346.6666666666667" viewBox="0, 0, 400,346.6666666666667"><g id="svgg"><path id="path0" d="M29.037 11.877 L 17.150 23.764 41.382 48.050 L 65.614 72.336 52.023 84.740 C 28.929 105.818,-0.000 149.573,0.000 163.426 C 0.000 169.440,13.481 196.028,24.087 210.932 C 78.855 287.893,184.152 321.605,272.454 290.450 L 280.797 287.507 310.420 317.087 C 326.713 333.356,340.918 346.667,341.986 346.667 C 344.628 346.667,365.714 325.192,365.714 322.501 C 365.714 320.545,45.340 1.591,42.251 0.471 C 41.521 0.207,35.575 5.340,29.037 11.877 M169.524 28.819 C 157.724 30.742,127.122 38.096,125.810 39.324 C 125.339 39.765,134.234 49.437,145.578 60.816 L 166.204 81.506 173.068 78.638 C 235.856 52.403,312.647 127.638,286.632 189.900 L 283.680 196.966 310.851 224.185 L 338.023 251.405 351.054 238.560 C 368.331 221.529,381.008 204.546,391.437 184.459 C 401.820 164.460,401.820 164.474,392.601 145.614 C 352.847 64.282,257.676 14.455,169.524 28.819 M197.498 107.997 C 196.893 108.976,209.735 123.006,226.037 139.174 L 255.676 168.571 254.438 157.143 C 251.556 130.552,232.871 110.915,207.090 107.382 C 202.419 106.742,198.103 107.019,197.498 107.997 M145.319 165.112 C 147.879 198.963,168.880 219.048,201.717 219.048 L 214.183 219.048 226.139 230.897 C 240.340 244.972,240.224 244.444,230.000 248.559 C 162.921 275.562,93.081 207.275,115.391 136.501 L 118.829 125.593 131.533 138.199 L 144.237 150.805 145.319 165.112 " stroke="none" fill="#000000" fill-rule="evenodd"></path></g></svg>