<?xml version="1.0" standalone="no"?>
<!DOCTYPE svg PUBLIC "-//W3C//DTD SVG 1.2//EN" "http://www.w3.org/Graphics/SVG/1.2/DTD/svg12.dtd">
<svg xmlns="http://www.w3.org/2000/svg" version="1.2" baseProfile="tiny" id="selectedFigureSvg" width="100px" height="100px" viewBox="-106.42 -135 149.2 330"><g id="sequence"><g id="figure-2"><path d="M 0,0 m -4,0 a4,4 0 1 1 0,0.01" style="stroke: black; stroke-width: 1px; fill: black;"/><path d="M -4,0 l -80,0" style="stroke: black; stroke-width: 2.5px; fill: none;" class="line" id="figure-2-entry"/><path d="M -84,0 l 0,-60" style="stroke: black; stroke-width: 2.5px; fill: none;" class="line" id="figure-2-roll0-gap0"/><path d="M -84,-60 m 15.64,7.53 l -3.64,-8.31 l -4,6.93 z" style="stroke: black; stroke-width: 1px; fill: black;"/><path d="M -84,-60 m 15.64,7.53 a 20,20 0 0 0 -15.64,-7.53 " style="stroke: black; stroke-width: 2.5px; fill: none;"/><text style="font-family: Arial, Sans; font-size: 20px; font-weight: bold; fill: red;" text-anchor="middle" x="-46.86" y="-53">2x4</text><path d="M -84,-60 l 0,-60" style="stroke: black; stroke-width: 2.5px; fill: none;" class="line" id="figure-2-roll0-gap1"/><path d="M -84,-120 l 10,10" style="stroke: black; stroke-width: 2.5px; fill: none;" class="hammerTip"/><path d="M -84,0 l 0,90" style="stroke: black; stroke-width: 2.5px; fill: none;" class="line" id="figure-2-roll1-gap0"/><path d="M -84,90 m -15.64,-7.53 l 3.64,8.31 l 4,-6.93 z" style="stroke: black; stroke-width: 1px; fill: black;"/><path d="M -84,90 m -15.64,-7.53 a 20,20 0 0 0 15.64,7.53 " style="stroke: black; stroke-width: 2.5px; fill: none;"/><path d="M -84,90 l 0,80" style="stroke: black; stroke-width: 2.5px; fill: none;" class="line" id="figure-2-roll1-gap1"/><path d="M -84,170 l 120,0" style="stroke: black; stroke-width: 2.5px; fill: none;" class="line" id="figure-2-exit"/><path d="M 36,170 m 0,-10 l 0,20" style="stroke: black; stroke-width: 2.5px; fill: none;"/></g></g></svg>