<?xml version="1.0" standalone="no"?>
<!DOCTYPE svg PUBLIC "-//W3C//DTD SVG 1.2//EN" "http://www.w3.org/Graphics/SVG/1.2/DTD/svg12.dtd">
<svg xmlns="http://www.w3.org/2000/svg" version="1.2" baseProfile="tiny" id="selectedFigureSvg" width="100px" height="100px" viewBox="-237.53 -150.6 254.79 161.97"><g id="sequence"><g id="figure-2"><text style="font-family: Verdana, Helvetica, Sans; font-size: 16px; font-weight: bold; fill: black;" text-anchor="middle" x="0" y="-8" class="figNr">2</text><path d="M 0,0 m -4,0 a4,4 0 1 1 0,0.01" style="stroke: black; stroke-width: 1px; fill: black;"/><path d="M -4,0 l -120,0" style="stroke: black; stroke-width: 3.0px; fill: none; vector-effect: non-scaling-stroke;" class="line" id="figure-2-entry"/><path d="M -124,0 l -42.43,-42.43" style="stroke: black; stroke-width: 3.0px; fill: none; vector-effect: non-scaling-stroke;" class="line" id="figure-2-roll0-gap0"/><path d="M -166.43,-42.43 m -5.73,16.38 l -3.31,-8.45 l 7.73,2.07 z" style="stroke: black; stroke-width: 1px; fill: black;"/><path d="M -166.43,-42.43 m -5.73,16.38 a 20,20 0 0 1 5.73,-16.38 " style="stroke: black; stroke-width: 3.0px; fill: none; vector-effect: non-scaling-stroke;"/><text style="font-family: Arial, Sans; font-size: 20px; font-weight: bold; fill: red;" text-anchor="middle" x="-191.73" y="-13.23">2x8</text><path d="M -166.43,-42.43 l -14.14,-14.14" style="stroke: black; stroke-width: 3.0px; fill: none; vector-effect: non-scaling-stroke;" class="line" id="figure-2-roll0-gap1"/><path d="M -180.57,-56.57 m -11.84,11.84 l -5.66,-5.66 " style="stroke: black; stroke-width: 3.0px; fill: none; vector-effect: non-scaling-stroke;"/><path d="M -180.57,-56.57 m -11.31,11.31 l 5.66,-16.97 l 11.31,11.31 z" style="stroke: black; stroke-width: 1.5px; fill: red;"/><text style="font-family: Arial, Sans; font-size: 20px; font-weight: bold; fill: red;" text-anchor="middle" x="-212.04" y="-33.59">3/4</text><path d="M -184.81,-60.81 l -14.14,-14.14" style="stroke: black; stroke-width: 3.0px; fill: none; vector-effect: non-scaling-stroke;" class="line" id="figure-2-roll0-gap2"/><path d="M -198.95,-74.95 a40,40 0 0 1 56.57,-56.57" style="stroke: black; stroke-width: 3.0px; fill: none; vector-effect: non-scaling-stroke;"/><path d="M -142.38,-131.52 l 42.43,42.43" style="stroke-dasharray: 10, 5; stroke: red; stroke-width: 3.0px; fill: none; vector-effect: non-scaling-stroke;" class="line" id="figure-2-roll1-gap0"/><path d="M -99.95,-89.09 m 11.84,-11.84 l 5.66,5.66 " style="stroke: black; stroke-width: 3.0px; fill: none; vector-effect: non-scaling-stroke;"/><path d="M -99.95,-89.09 m 11.31,-11.31 l -10.18,23.76 l -13.58,-13.58 z" style="stroke: black; stroke-width: 1.5px; fill: red;"/><path d="M -95.71,-84.85 l 14.14,14.14" style="stroke-dasharray: 10, 5; stroke: red; stroke-width: 3.0px; fill: none; vector-effect: non-scaling-stroke;" class="line" id="figure-2-roll1-gap1"/><path d="M -81.57,-70.71 l 40,0" style="stroke-dasharray: 10, 5; stroke: red; stroke-width: 3.0px; fill: none; vector-effect: non-scaling-stroke;" class="line" id="figure-2-exit"/><path d="M -41.57,-70.71 m 0,10 l 0,-20" style="stroke: black; stroke-width: 3.0px; fill: none; vector-effect: non-scaling-stroke;"/></g></g></svg>