<?xml version="1.0" standalone="no"?>
<!DOCTYPE svg PUBLIC "-//W3C//DTD SVG 1.2//EN" "http://www.w3.org/Graphics/SVG/1.2/DTD/svg12.dtd">
<svg xmlns="http://www.w3.org/2000/svg" version="1.2" baseProfile="tiny" id="selectedFigureSvg" width="100px" height="100px" viewBox="-168.28 -76.94 182.26 91.08"><g id="sequence"><g id="figure-2"><path d="M 0,0 m -4,0 a4,4 0 1 1 0,0.01" style="stroke: black; stroke-width: 1px; fill: black;"/><path d="M -4,0 l -78,0" style="stroke: black; stroke-width: 3px; fill: none;" class="line" id="figure-2-entry"/><path d="M -82,0 a 52,36.4 0 0 1 -52,-36.4" style="stroke: black; stroke-width: 3px; fill: none;"/><path d="M -134,-36.4 m -15.64,7.53 l 3.64,-8.31 l 4,6.93 z" style="stroke: black; stroke-width: 1px; fill: black;"/><path d="M -134,-36.4 m -15.64,7.53 a 20,20 0 0 1 25.64,-4.85 " style="stroke: black; stroke-width: 3px; fill: none;"/><path d="M -134,-36.4 a 52,36.4 0 0 1 52,-36.4" style="stroke: black; stroke-width: 3px; fill: none;"/><path d="M -82,-72.8 a 52,36.4 0 0 1 52,36.4" style="stroke: black; stroke-width: 3px; fill: none;"/><path d="M -30,-36.4 m -15.64,-7.53 l 3.64,8.31 l 4,-6.93 z" style="stroke: black; stroke-width: 1px; fill: black;"/><path d="M -30,-36.4 m -15.64,-7.53 a 20,20 0 0 0 25.64,4.85 " style="stroke: black; stroke-width: 3px; fill: none;"/><path d="M -30,-36.4 a 52,36.4 0 0 1 -52,36.4" style="stroke: black; stroke-width: 3px; fill: none;"/><path d="M -82,0 l -78,0" style="stroke: black; stroke-width: 3px; fill: none;" class="line" id="figure-2-exit"/><path d="M -160,0 m 0,10 l 0,-20" style="stroke: black; stroke-width: 3px; fill: none;"/></g></g></svg>