<?xml version="1.0" standalone="no"?>
<!DOCTYPE svg PUBLIC "-//W3C//DTD SVG 1.2//EN" "http://www.w3.org/Graphics/SVG/1.2/DTD/svg12.dtd">
<svg xmlns="http://www.w3.org/2000/svg" version="1.2" baseProfile="tiny" id="selectedFigureSvg" width="100px" height="100px" viewBox="-248.92 -143.17 268.23 154.18"><g id="sequence"><g id="figure-2"><text style="font-family: Verdana, Helvetica, Sans; font-size: 16px; font-weight: bold; fill: black;" text-anchor="middle" x="0" y="-8" class="figNr">3</text><path d="M 0,0 m -4,0 a4,4 0 1 1 0,0.01" style="stroke: black; stroke-width: 1px; fill: black;"/><path d="M -4,0 l -40,0" style="stroke-dasharray: 10, 5; stroke: red; stroke-width: 3.0px; fill: none; vector-effect: non-scaling-stroke;" class="line" id="figure-2-entry"/><path d="M -44,0 l -70.71,-70.71" style="stroke-dasharray: 10, 5; stroke: red; stroke-width: 3.0px; fill: none; vector-effect: non-scaling-stroke;" class="line" id="figure-2-roll0-gap0"/><path d="M -114.71,-70.71 m 11.84,-11.84 l -5.66,-5.66 " style="stroke: black; stroke-width: 3.0px; fill: none; vector-effect: non-scaling-stroke;"/><path d="M -114.71,-70.71 m 11.31,-11.31 l -16.97,5.66 l 11.31,11.31 z" style="stroke: black; stroke-width: 1.5px; fill: white;"/><text style="font-family: Arial, Sans; font-size: 20px; font-weight: bold; fill: red;" text-anchor="middle" x="-92.69" y="-89.16">3/4</text><path d="M -118.95,-74.95 l -14.14,-14.14" style="stroke-dasharray: 10, 5; stroke: red; stroke-width: 3.0px; fill: none; vector-effect: non-scaling-stroke;" class="line" id="figure-2-roll0-gap1"/><path d="M -133.09,-89.09 m -5.73,16.38 l -3.31,-8.45 l 7.73,2.07 z" style="stroke: black; stroke-width: 1px; fill: black;"/><path d="M -133.09,-89.09 m -5.73,16.38 a 20,20 0 0 1 14.7,-21.56 " style="stroke: black; stroke-width: 3.0px; fill: none; vector-effect: non-scaling-stroke;"/><text style="font-family: Arial, Sans; font-size: 20px; font-weight: bold; fill: red;" text-anchor="middle" x="-162.18" y="-58.05">3/4</text><path d="M -133.09,-89.09 l -7.07,-7.07" style="stroke-dasharray: 10, 5; stroke: red; stroke-width: 3.0px; fill: none; vector-effect: non-scaling-stroke;" class="line"/><path d="M -140.16,-96.16 m -7.11,19.84 l 7.07,7.07" style="stroke: black; stroke-width: 3.0px; fill: none; vector-effect: non-scaling-stroke;"/><path d="M -140.16,-96.16 m -5.73,16.38 l -3.31,-8.45 l 7.73,2.07 z" style="stroke: black; stroke-width: 1px; fill: black;"/><path d="M -140.16,-96.16 m -5.73,16.38 a 20,20 0 0 1 5.73,-16.38 " style="stroke: black; stroke-width: 3.0px; fill: none; vector-effect: non-scaling-stroke;"/><path d="M -140.16,-96.16 l -28.28,-28.28" style="stroke-dasharray: 10, 5; stroke: red; stroke-width: 3.0px; fill: none; vector-effect: non-scaling-stroke;" class="line" id="figure-2-roll0-gap2"/><path d="M -168.44,-124.44 a40,40 0 1 0 -28.28,68.28" style="stroke: black; stroke-width: 3.0px; fill: none; vector-effect: non-scaling-stroke;"/><path d="M -196.72,-56.16 l 0.2,0" style="stroke: black; stroke-width: 3.0px; fill: none; vector-effect: non-scaling-stroke;" class="line" id="figure-2-roll1-gap0"/><path d="M -196.52,-56.16 m -7.53,15.64 l 8.31,-3.64 l -6.93,-4 z" style="stroke: black; stroke-width: 1px; fill: black;"/><path d="M -196.52,-56.16 m -7.53,15.64 a 20,20 0 0 0 4.85,-25.64 " style="stroke: black; stroke-width: 3.0px; fill: none; vector-effect: non-scaling-stroke;"/><text style="font-family: Arial, Sans; font-size: 20px; font-weight: bold; fill: red;" text-anchor="middle" x="-196.52" y="-19.16">4</text><path d="M -196.52,-56.16 l 140,0" style="stroke: black; stroke-width: 3.0px; fill: none; vector-effect: non-scaling-stroke;" class="line" id="figure-2-exit"/><path d="M -56.52,-56.16 m 0,-10 l 0,20" style="stroke: black; stroke-width: 3.0px; fill: none; vector-effect: non-scaling-stroke;"/></g></g></svg>