<?xml version="1.0" standalone="no"?>
<!DOCTYPE svg PUBLIC "-//W3C//DTD SVG 1.2//EN" "http://www.w3.org/Graphics/SVG/1.2/DTD/svg12.dtd">
<svg xmlns="http://www.w3.org/2000/svg" version="1.2" baseProfile="tiny" id="selectedFigureSvg" width="100px" height="100px" viewBox="-17.33 -151.01 256.07 442.1"><g id="sequence"><g id="figure-2"><path d="M 0,0 m -4,0 a4,4 0 1 1 0,0.01" style="stroke: black; stroke-width: 1px; fill: black;"/><path d="M 4,0 l 104,0" style="stroke-dasharray: 5, 3; stroke: red; stroke-width: 3px; fill: none;" class="line" id="figure-2-entry"/><path d="M 108,0 l 0,26" style="stroke: black; stroke-width: 3px; fill: none;" class="line" id="figure-2-roll0-gap0"/><path d="M 108,26 m 15.25,0 l 0,8 " style="stroke: black; stroke-width: 3px; fill: none;"/><path d="M 108,26 m 16,0 l -24,12 l 0,-12 z" style="stroke: black; stroke-width: 3px; fill: red;"/><text style="font-family: Arial, Sans; font-size: 20px; font-weight: bold; fill: red;" text-anchor="middle" x="149.14" y="41">3/4</text><path d="M 108,34 l 0,5" style="stroke: black; stroke-width: 3px; fill: none;" class="line"/><path d="M 108,39 m 19.2,8 l 0,-21" style="stroke: black; stroke-width: 3px; fill: none;"/><path d="M 108,39 m 15.25,0 l 0,8 " style="stroke: black; stroke-width: 3px; fill: none;"/><path d="M 108,39 m 16,0 l -16,8 l 0,-8 z" style="stroke: black; stroke-width: 3px; fill: red;"/><path d="M 108,47 l 0,52" style="stroke: black; stroke-width: 3px; fill: none;" class="line" id="figure-2-roll0-gap1"/><path d="M 108,99 m -16.75,0 l 0,8 " style="stroke: black; stroke-width: 3px; fill: none;"/><path d="M 108,99 m -16,0 l 24,9.6 l 0,-19.2 z" style="stroke: black; stroke-width: 3px; fill: white;"/><path d="M 108,105 l 0,26" style="stroke: black; stroke-width: 3px; fill: none;" class="line" id="figure-2-roll0-gap2"/><path d="M 108,131 a29.07,56.42 14.67 0 1 -63.05,36.4" style="stroke: black; stroke-width: 3px; fill: none;"/><path d="M 44.95,167.4 l 0,-104" style="stroke: black; stroke-width: 3px; fill: none;" class="line" id="figure-2-roll1-gap0"/><path d="M 44.95,63.4 m -16.75,0 l 0,-8 " style="stroke: black; stroke-width: 3px; fill: none;"/><path d="M 44.95,63.4 m -16,0 l 24,-9.6 l 0,19.2 z" style="stroke: black; stroke-width: 3px; fill: white;"/><path d="M 44.95,57.4 l 0,-13.6" style="stroke: black; stroke-width: 3px; fill: none;" class="line"/><path d="M 44.95,43.8 m -19.2,-8 l 0,29.6" style="stroke: black; stroke-width: 3px; fill: none;"/><path d="M 44.95,43.8 m -16.75,0 l 0,-8 " style="stroke: black; stroke-width: 3px; fill: none;"/><path d="M 44.95,43.8 m -16,0 l 24,-9.6 l 0,19.2 z" style="stroke: black; stroke-width: 3px; fill: white;"/><path d="M 44.95,37.8 l 0,-26" style="stroke: black; stroke-width: 3px; fill: none;" class="line" id="figure-2-roll1-gap1"/><path d="M 44.95,11.8 a58.14,112.84 14.67 0 1 126.09,-72.8" style="stroke: black; stroke-width: 3px; fill: none;"/><path d="M 171.04,-61 l 0,208" style="stroke: black; stroke-width: 3px; fill: none;" class="line" id="figure-2-roll2-gap0"/><path d="M 171.04,147 m 15.64,-7.53 l -3.64,8.31 l -4,-6.93 z" style="stroke: black; stroke-width: 1px; fill: black;"/><path d="M 171.04,147 m 15.64,-7.53 a 20,20 0 0 1 -25.64,4.85 " style="stroke: black; stroke-width: 3px; fill: none;"/><text style="font-family: Arial, Sans; font-size: 20px; font-weight: bold; fill: red;" text-anchor="middle" x="212.18" y="154">3/4</text><path d="M 171.04,147 l 0,10" style="stroke: black; stroke-width: 3px; fill: none;" class="line"/><path d="M 171.04,157 m 19.05,-9 l 0,-10" style="stroke: black; stroke-width: 3px; fill: none;"/><path d="M 171.04,157 m 15.64,-7.53 l -3.64,8.31 l -4,-6.93 z" style="stroke: black; stroke-width: 1px; fill: black;"/><path d="M 171.04,157 m 15.64,-7.53 a 20,20 0 0 1 -15.64,7.53 " style="stroke: black; stroke-width: 3px; fill: none;"/><path d="M 171.04,157 l 0,104" style="stroke: black; stroke-width: 3px; fill: none;" class="line" id="figure-2-roll2-gap1"/><path d="M 171.04,261 l -130,0" style="stroke: black; stroke-width: 3px; fill: none;" class="line" id="figure-2-exit"/><path d="M 41.04,261 m 0,10 l 0,-20" style="stroke: black; stroke-width: 3px; fill: none;"/></g></g></svg>