<?xml version="1.0" standalone="no"?>
<!DOCTYPE svg PUBLIC "-//W3C//DTD SVG 1.2//EN" "http://www.w3.org/Graphics/SVG/1.2/DTD/svg12.dtd">
<svg xmlns="http://www.w3.org/2000/svg" version="1.2" baseProfile="tiny" id="selectedFigureSvg" width="100px" height="100px" viewBox="-129.94 -36.5 148.24 259.29"><g id="sequence"><g id="figure-2"><path d="M 0,0 m -4,0 a4,4 0 1 1 0,0.01" style="stroke: black; stroke-width: 1px; fill: black;"/><path d="M -4,0 l -100,0" style="stroke: black; stroke-width: 3px; fill: none; " class="line" id="figure-2-entry"/><path d="M -104,0 l 0,40" style="stroke-dasharray: 5, 3; stroke: red; stroke-width: 3px; fill: none; " class="line" id="figure-2-roll1-gap0"/><path d="M -104,40 m -15.25,0 l 0,8 " style="stroke: black; stroke-width: 3px; fill: none; "/><path d="M -104,40 m -16,0 l 24,12 l 0,-12 z" style="stroke: black; stroke-width: 3px; fill: white;"/><path d="M -104,48 l 0,5" style="stroke-dasharray: 5, 3; stroke: red; stroke-width: 3px; fill: none; " class="line"/><path d="M -104,53 m -19.2,8 l 0,-21" style="stroke: black; stroke-width: 3px; fill: none; "/><path d="M -104,53 m -15.25,0 l 0,8 " style="stroke: black; stroke-width: 3px; fill: none; "/><path d="M -104,53 m -16,0 l 16,8 l 0,-8 z" style="stroke: black; stroke-width: 3px; fill: white;"/><path d="M -104,61 l 0,130" style="stroke-dasharray: 5, 3; stroke: red; stroke-width: 3px; fill: none; " class="line" id="figure-2-roll1-gap1"/><path d="M -104,191 l 40,0" style="stroke: black; stroke-width: 3px; fill: none; " class="line" id="figure-2-exit"/><path d="M -64,191 m 0,-10 l 0,20" style="stroke: black; stroke-width: 3px; fill: none; "/><path d="M -64,191 m 10,-20 l 0,40" style="stroke: black; stroke-width: 3px; fill: none; "/></g></g></svg>