<?xml version="1.0" standalone="no"?>
<!DOCTYPE svg PUBLIC "-//W3C//DTD SVG 1.2//EN" "http://www.w3.org/Graphics/SVG/1.2/DTD/svg12.dtd">
<svg xmlns="http://www.w3.org/2000/svg" version="1.2" baseProfile="tiny" id="selectedFigureSvg" width="200px" height="200px" viewBox="-129.13 -34.06 141.43 249.94"><g id="sequence"><g id="figure-2"><text style="font-family: Verdana, Helvetica, Sans; font-size: 16px; font-weight: bold; fill: black;" text-anchor="middle" x="0" y="-8" class="figNr">7</text><path d="M 0,0 m -4,0 a4,4 0 1 1 0,0.01" style="stroke: black; stroke-width: 2px; fill: black;"/><path d="M -4,0 l -60,0" style="stroke: black; stroke-width: 3.0px; fill: none; vector-effect: non-scaling-stroke;" class="line" id="figure-2-entry"/><path d="M -64,0 l 0,10" style="stroke-dasharray: 10, 5; stroke: red; stroke-width: 3.0px; fill: none; vector-effect: non-scaling-stroke;" class="line" id="figure-2-roll0-gap0"/><path d="M -64,10 m -15.25,0 l 0,8 " style="stroke: black; stroke-width: 3.0px; fill: none; vector-effect: non-scaling-stroke;"/><path d="M -64,10 m -16,0 l 24,12 l 0,-12 z" style="stroke: black; stroke-width: 1.5px; fill: white;"/><text style="font-family: Arial, Sans; font-size: 20px; font-weight: bold; fill: red;" text-anchor="middle" x="-105.14" y="25">3/4</text><path d="M -64,18 l 0,5" style="stroke-dasharray: 10, 5; stroke: red; stroke-width: 3.0px; fill: none; vector-effect: non-scaling-stroke;" class="line"/><path d="M -64,23 m -19.2,8 l 0,-21" style="stroke: black; stroke-width: 3.0px; fill: none; vector-effect: non-scaling-stroke;"/><path d="M -64,23 m -15.25,0 l 0,8 " style="stroke: black; stroke-width: 3.0px; fill: none; vector-effect: non-scaling-stroke;"/><path d="M -64,23 m -16,0 l 16,8 l 0,-8 z" style="stroke: black; stroke-width: 1.5px; fill: white;"/><path d="M -64,31 l 0,160" style="stroke-dasharray: 10, 5; stroke: red; stroke-width: 3.0px; fill: none; vector-effect: non-scaling-stroke;" class="line" id="figure-2-roll0-gap1"/><path d="M -64,191 a11.18,21.7 14.67 0 0 24.25,-14" style="stroke: black; stroke-width: 3.0px; fill: none; vector-effect: non-scaling-stroke;"/><path d="M -39.75,177 l 0,-120" style="stroke: black; stroke-width: 3.0px; fill: none; vector-effect: non-scaling-stroke;" class="line" id="figure-2-roll1-gap0"/><path d="M -39.75,57 l -54.56,31.5" style="stroke-dasharray: 10, 5; stroke: red; stroke-width: 3.0px; fill: none; vector-effect: non-scaling-stroke;" class="line" id="figure-2-exit"/><path d="M -94.31,88.5 m -10,0 l 20,0" style="stroke: black; stroke-width: 3.0px; fill: none; vector-effect: non-scaling-stroke;"/></g></g></svg>