<?xml version="1.0" standalone="no"?>
<!DOCTYPE svg PUBLIC "-//W3C//DTD SVG 1.2//EN" "http://www.w3.org/Graphics/SVG/1.2/DTD/svg12.dtd">
<svg xmlns="http://www.w3.org/2000/svg" version="1.2" baseProfile="tiny" id="selectedFigureSvg" width="200px" height="200px" viewBox="-135.84 -37.7 229.03 339.11"><g id="sequence"><g id="figure-2"><text style="font-family: Verdana, Helvetica, Sans; font-size: 16px; font-weight: bold; fill: black;" text-anchor="middle" x="0" y="-8" class="figNr">8</text><path d="M 0,0 m -4,0 a4,4 0 1 1 0,0.01" style="stroke: black; stroke-width: 2px; fill: black;"/><path d="M 3.46,2 l 24.25,14" style="stroke-dasharray: 10, 5; stroke: red; stroke-width: 3.0px; fill: none; vector-effect: non-scaling-stroke;" class="line" id="figure-2-entry"/><path d="M 27.71,16 l 0,130" style="stroke: black; stroke-width: 3.0px; fill: none; vector-effect: non-scaling-stroke;" class="line" id="figure-2-roll0-gap0"/><path d="M 27.71,146 m 15.64,-7.53 l -3.64,8.31 l -4,-6.93 z" style="stroke: black; stroke-width: 2px; fill: black;"/><path d="M 27.71,146 m 15.64,-7.53 a 20,20 0 0 1 -15.64,7.53 " style="stroke: black; stroke-width: 3.0px; fill: none; vector-effect: non-scaling-stroke;"/><text style="font-family: Arial, Sans; font-size: 20px; font-weight: bold; fill: red;" text-anchor="middle" x="64.85" y="153">3/4</text><path d="M 27.71,146 l 0,140" style="stroke: black; stroke-width: 3.0px; fill: none; vector-effect: non-scaling-stroke;" class="line" id="figure-2-roll0-gap1"/><path d="M 27.71,286 l -56.57,-56.57" style="stroke: black; stroke-width: 3.0px; fill: none; vector-effect: non-scaling-stroke;" class="line" id="figure-2-roll1-gap0"/><path d="M -28.86,229.43 m 16.38,-5.73 l -8.45,-3.31 l 2.07,7.73 z" style="stroke: black; stroke-width: 2px; fill: black;"/><path d="M -28.86,229.43 m 16.38,-5.73 a 20,20 0 0 0 -16.38,5.73 " style="stroke: black; stroke-width: 3.0px; fill: none; vector-effect: non-scaling-stroke;"/><text style="font-family: Arial, Sans; font-size: 20px; font-weight: bold; fill: red;" text-anchor="middle" x="-2.6" y="215.22">2x4</text><path d="M -28.86,229.43 l -56.57,-56.57" style="stroke-dasharray: 10, 5; stroke: red; stroke-width: 3.0px; fill: none; vector-effect: non-scaling-stroke;" class="line" id="figure-2-roll1-gap1"/><path d="M -85.43,172.86 l -40,0" style="stroke-dasharray: 10, 5; stroke: red; stroke-width: 3.0px; fill: none; vector-effect: non-scaling-stroke;" class="line" id="figure-2-exit"/><path d="M -125.43,172.86 m 0,-10 l 0,20" style="stroke: black; stroke-width: 3.0px; fill: none; vector-effect: non-scaling-stroke;"/></g></g></svg>