<?xml version="1.0" standalone="no"?>
<!DOCTYPE svg PUBLIC "-//W3C//DTD SVG 1.2//EN" "http://www.w3.org/Graphics/SVG/1.2/DTD/svg12.dtd">
<svg xmlns="http://www.w3.org/2000/svg" version="1.2" baseProfile="tiny" id="selectedFigureSvg" width="100px" height="100px" viewBox="-14.55 -126.5 166.1 143"><g id="sequence"><g id="figure-2"><path d="M 0,0 m 3,-6 a7,7 0 1 1 -6,0" style="stroke: black; stroke-width: 3px; fill: none;"/><path d="M 0,0 m -4,0 a4,4 0 1 1 0,0.01" style="stroke: black; stroke-width: 1px; fill: black;"/><path d="M 4,0 l 70,0" style="stroke: black; stroke-width: 3px; fill: none;" class="line" id="figure-2-entry"/><path d="M 74,0 a56,56 0 0 0 39.6,-95.6" style="stroke: black; stroke-width: 3px; fill: none;"/><path d="M 113.6,-95.6 l -5.3,5.3 l 10.6,-10.6" style="stroke: black; stroke-width: 3px; fill: none;"/><path d="M 113.6,-95.6 a56,56 0 0 0 -39.6,-16.4" style="stroke: black; stroke-width: 3px; fill: none;"/><path d="M 74,-112 a56,56 0 0 0 -39.6,16.4" style="stroke: black; stroke-width: 3px; fill: none;"/><path d="M 34.4,-95.6 l 5.3,5.3 l -10.6,-10.6" style="stroke: black; stroke-width: 3px; fill: none;"/><path d="M 34.4,-95.6 a56,56 0 0 0 39.6,95.6" style="stroke: black; stroke-width: 3px; fill: none;"/><path d="M 77,-112 m 0,16.75 l -8,0 " style="stroke: black; stroke-width: 3px; fill: none;"/><path d="M 77,-112 m 0,16 l -9.6,-24 l 19.2,0 z" style="stroke: black; stroke-width: 3px; fill: white;"/><path d="M 74,0 l 70,0" style="stroke: black; stroke-width: 3px; fill: none;" class="line" id="figure-2-exit"/><path d="M 144,0 m 0,-10 l 0,20" style="stroke: black; stroke-width: 3px; fill: none;"/></g></g></svg>