<svg id="flightarea" height="200" width="200" enable-background="new 0 0 500 500" viewBox="-167 -167 833 833" xmlns="http://www.w3.org/2000/svg">
<path clip-rule="evenodd" d="m199.153 128.883c-2.409-2.712-2.185-6.853.56-9.256 2.69-2.398 6.836-2.146 9.245.56l22.524 25.455 60.12-52.904c2.746-2.387 6.892-2.123 9.245.594 2.41 2.717 2.129 6.858-.56 9.245l-65.051 57.212c-2.714 2.408-6.831 2.11-9.245-.571zm198.402 208.566-141.027 70.11v-144.232l146.686-72.929v137.929c0 4.006-2.073 7.329-5.659 9.122zm-300.769-9.122v-137.929l146.63 72.929v144.232l-140.971-70.11c-3.586-1.793-5.659-5.116-5.659-9.122zm153.186-115.634c-39.725 0-73.287-26.962-83.316-63.549l-61.689 30.682 145.006 72.111 145.062-72.111-61.689-30.682c-10.087 36.587-43.593 63.549-83.374 63.549zm0-159.742c-40.398 0-73.287 32.884-73.287 73.321 0 40.42 32.889 73.315 73.287 73.315 40.454 0 73.343-32.895 73.343-73.315 0-40.437-32.889-73.321-73.343-73.321zm194.368 82.779c3.642 0 6.555-2.936 6.555-6.55v-64.261c0-3.614-2.913-6.555-6.555-6.555h-64.266c-3.642 0-6.555 2.942-6.555 6.555 0 3.62 2.914 6.55 6.555 6.55h48.466l-73.735 73.713-18.938-9.396c.392-3.132.56-6.303.56-9.514 0-47.665-38.773-86.426-86.454-86.426-51.304 0-91.408 44.585-85.894 95.94l-18.882 9.396-73.736-73.713h48.466c3.586 0 6.555-2.93 6.555-6.55 0-3.614-2.97-6.555-6.555-6.555h-64.267c-3.642 0-6.555 2.942-6.555 6.555v64.261c0 3.614 2.914 6.55 6.555 6.55 3.642 0 6.555-2.936 6.555-6.55v-48.438l70.598 70.592-45.496 22.619c-2.241 1.109-3.642 3.384-3.642 5.872v148.502c0 9.032 4.819 16.831 12.943 20.854l36.195 17.997-70.598 70.603v-48.438c0-3.625-2.913-6.556-6.555-6.556s-6.555 2.93-6.555 6.556v64.261c0 3.614 2.914 6.55 6.555 6.55h64.266c3.586 0 6.555-2.936 6.555-6.55 0-3.631-2.97-6.555-6.555-6.555h-48.465l73.735-73.713 101.862 50.668c1.85.9 4.026.904 5.827 0l101.919-50.668 73.735 73.713h-48.466c-3.642 0-6.555 2.925-6.555 6.555 0 3.614 2.914 6.55 6.555 6.55h64.266c3.642 0 6.555-2.936 6.555-6.55v-64.261c0-3.625-2.913-6.556-6.555-6.556s-6.556 2.93-6.556 6.556v48.438l-70.598-70.603 36.195-17.997c8.124-4.023 12.943-11.822 12.943-20.854v-148.502c0-2.488-1.401-4.763-3.642-5.872l-45.497-22.619 70.598-70.592v48.438c.002 3.614 2.916 6.55 6.558 6.55z" fill-rule="evenodd"/></svg>