<svg id="originality" height="200" width="200" clip-rule="evenodd" fill-rule="evenodd" stroke-linejoin="round" stroke-miterlimit="2"  viewBox="-167 -167 833 833" xmlns="http://www.w3.org/2000/svg">
<path d="m189.046 357.359c29.877 11.1 51.882 38.377 55.388 71.183.241 2.257-.488 4.51-2.005 6.198s-3.68 2.652-5.95 2.652h-154.593c-2.271 0-4.434-.964-5.952-2.653-1.517-1.689-2.245-3.943-2.003-6.201 3.523-32.807 25.534-60.082 55.404-71.181-10.636-8.689-17.444-21.903-17.444-36.653 0-26.052 21.239-47.312 47.291-47.312 26.077 0 47.312 21.261 47.312 47.312 0 14.751-6.808 27.966-17.448 36.655zm-29.864 10.657c-32.873 0-60.437 22.754-67.809 53.376h135.623c-7.356-30.622-34.923-53.376-67.814-53.376zm0-16c17.258 0 31.312-14.071 31.312-31.312s-14.054-31.312-31.312-31.312c-17.24 0-31.291 14.072-31.291 31.312s14.051 31.312 31.291 31.312zm-131.821 49.395-5.433 9.409c-2.207 3.824-7.104 5.136-10.928 2.929-3.824-2.208-5.136-7.105-2.928-10.929l15.791-27.35c2.209-3.827 7.102-5.138 10.928-2.929l27.351 15.791c3.824 2.208 5.136 7.105 2.928 10.929-2.208 3.823-7.104 5.135-10.928 2.928l-11.974-6.913c16.605 48.672 62.75 83.715 117.014 83.715 68.217 0 123.599-55.383 123.599-123.599s-55.382-123.599-123.599-123.599c-58.225 0-107.103 40.346-120.17 94.584-1.034 4.293-5.358 6.938-9.651 5.904-4.292-1.034-6.938-5.359-5.903-9.651 14.758-61.261 69.96-106.837 135.724-106.837 6.18 0 12.267.403 18.235 1.183-.124-2.488-.188-5.071-.188-7.759 0-72.576 58.836-131.412 131.412-131.412s131.412 58.836 131.412 131.412c0 29.246-7.455 46.1-16.831 62.687-12.756 22.565-29.461 44.572-32.895 103.212-.002.049-.006.097-.009.145l-.018 19.446c0 12.665-8.482 23.419-20.018 26.886v13.231c0 12.858-8.778 23.751-20.596 27.042v13.075c0 15.394-12.624 28.059-28.017 28.059h-26.056c-15.388 0-28.058-12.67-28.058-28.059v-13.08c-4.242-1.181-8.086-3.338-11.27-6.212-25.133 24.348-59.381 39.342-97.103 39.342-60.925 0-112.785-39.115-131.821-93.58zm166.292-181.322c60.399 15.363 105.128 70.151 105.128 135.303 0 3.789-.151 7.543-.448 11.256h76.545c3.815-47.319 16.085-71.007 27.615-90.902 11.035-19.037 21.56-34.183 21.56-66.529 0-63.74-51.672-115.412-115.412-115.412-63.739 0-115.412 51.672-115.412 115.412 0 3.857.146 7.469.424 10.872zm102.464 162.559c-1.651 8.329-4.044 16.392-7.107 24.118h73.272c6.61 0 12.018-5.425 12.018-12.063l.011-12.055zm-14.663 40.118c-4.137 7.485-8.94 14.55-14.331 21.116 2.124 1.865 4.901 3.001 7.936 3.001h67.165c6.613 0 12.058-5.42 12.058-12.059v-12.058zm52.232 40.117h-50.131v12.058c0 6.614 5.445 12.059 12.058 12.059h26.056c6.609 0 12.017-5.45 12.017-12.059zm-85.822-231.733-.017-.017c-8.508-8.474-8.505-22.223.009-30.694 8.462-8.453 22.149-8.467 30.659-.008.005.006.011.012.017.017 0 0 15.274 15.275 15.274 15.275l44.974-45.406.01-.01c8.426-8.477 22.143-8.524 30.62-.099 8.523 8.472 8.52 22.181.11 30.642-26.154 26.413-34.03 34.646-60.345 60.928-8.478 8.51-22.231 8.504-30.684-.001zm11.297-11.33 30.644 30.644c.005.005.011.011.017.017 2.214 2.227 5.809 2.227 8.023 0 .007-.007.014-.014.021-.021 26.289-26.257 34.157-34.481 60.285-60.868l.01-.011c2.205-2.218 2.201-5.807-.03-8.025-2.212-2.199-5.792-2.182-7.991.029l-50.623 51.108c-1.498 1.513-3.536 2.366-5.664 2.371-2.129.005-4.171-.838-5.676-2.343 0 0-20.946-20.946-20.957-20.957-2.243-2.213-5.837-2.225-8.059-.002-.006.006-.012.011-.018.017-2.227 2.214-2.227 5.81 0 8.023.006.006.012.012.018.018zm57.48-175.745c0 4.415-3.584 8-8 8-4.415 0-8-3.585-8-8v-29.075c0-4.415 3.585-8 8-8 4.416 0 8 3.585 8 8zm-94.165 20.944c2.205 3.825.889 8.721-2.937 10.926-3.825 2.204-8.721.889-10.926-2.937l-14.516-25.187c-2.205-3.825-.889-8.721 2.936-10.926 3.826-2.205 8.721-.889 10.926 2.937zm-71.045 65.226c3.823 2.21 5.133 7.107 2.923 10.93-2.209 3.822-7.107 5.132-10.929 2.923l-25.187-14.558c-3.823-2.21-5.133-7.107-2.923-10.93 2.209-3.823 7.107-5.132 10.929-2.923zm257.192-57.228c-2.21 3.823-7.107 5.132-10.93 2.923-3.823-2.21-5.132-7.107-2.923-10.93l14.558-25.187c2.21-3.823 7.107-5.132 10.93-2.923 3.823 2.21 5.132 7.107 2.923 10.93zm65.24 71.078c-3.821 2.212-8.72.906-10.932-2.915-2.212-3.822-.906-8.72 2.915-10.932l25.146-14.558c3.821-2.212 8.719-.906 10.931 2.915 2.213 3.821.906 8.719-2.915 10.932z"/></svg>