<svg id="precision" height="200" width="200" enable-background="new 0 0 24 24" viewBox="-8 -8 40 40" xmlns="http://www.w3.org/2000/svg">
<circle cx="12" cy="12" r="10" fill="none" stroke="#000000" stroke-width="1"/>
<path d="m12 5c-.414 0-.75-.336-.75-.75v-3.5c0-.414.336-.75.75-.75s.75.336.75.75v3.5c0 .414-.336.75-.75.75z"/>
<path d="m23.25 12.75h-3.5c-.414 0-.75-.336-.75-.75s.336-.75.75-.75h3.5c.414 0 .75.336.75.75s-.336.75-.75.75z"/>
<path d="m12 24c-.414 0-.75-.336-.75-.75v-3.5c0-.414.336-.75.75-.75s.75.336.75.75v3.5c0 .414-.336.75-.75.75z"/>
<path d="m4.25 12.75h-3.5c-.414 0-.75-.336-.75-.75s.336-.75.75-.75h3.5c.414 0 .75.336.75.75s-.336.75-.75.75z"/>
<circle cx="12" cy="12" r="6" fill="none" stroke="#000000" stroke-width=".5"/>
<circle cx="12" cy="12" r="2" fill="none" stroke="#000000" stroke-width="1"/>
</svg>