<?xml version="1.0" encoding="UTF-8" standalone="no"?>

<svg
   version="1.1"
   id="choreography" height="200" width="200"
   xml:space="preserve"
   viewBox="-227 -227 1137 1137"
   xmlns="http://www.w3.org/2000/svg"
   xmlns:svg="http://www.w3.org/2000/svg"><defs
     id="defs3535"><clipPath
       clipPathUnits="userSpaceOnUse"
       id="clipPath3545"><path
         d="M 0,512 H 512 V 0 H 0 Z"
         id="path3543" /></clipPath></defs><g
     id="g3537"
     transform="matrix(1.3333333,0,0,-1.3333333,0,682.66667)"><g
       id="g3539"><g
         id="g3541"
         clip-path="url(#clipPath3545)"><g
           id="g3547"
           transform="translate(142.1553,347.6738)"><path
             d="m 0,0 -22.61,-2.055 c -9.987,-0.908 -18.973,-6.436 -24.288,-14.939 l -31.644,-50.631 -48.992,-20.997 c -4.32,-1.852 -7.121,-6.099 -7.121,-10.799 0,-8.019 7.856,-13.683 15.464,-11.146 l 46.789,15.596 c 6.429,2.143 12.013,6.267 15.952,11.782 l 34.02,47.628 6.989,-38.703 -23.645,-34.809 c -9.926,-14.611 -14.146,-32.356 -11.862,-49.871 l 20.502,-157.181 h 24.049 v 160.322"
             style="fill:none;stroke:#000000;stroke-width:15;stroke-linecap:round;stroke-linejoin:round;stroke-miterlimit:10;stroke-dasharray:none;stroke-opacity:1"
             id="path3549" /></g><g
           id="g3551"
           transform="translate(159.8066,135.7583)"><path
             d="M 0,0 56.113,-104.21 H 80.161 L 0,88.177 c 32.064,40.081 32.064,80.161 32.064,80.161 l 25.268,-20.213 c 8.687,-6.95 21.006,-7.034 29.787,-0.205 l 46.482,36.153 c 5.676,4.414 6.198,12.805 1.113,17.889 -3.812,3.812 -9.703,4.601 -14.384,1.927 L 72.145,176.354 47.994,200.506 C 37.9,210.6 23.845,215.688 9.629,214.396"
             style="fill:none;stroke:#000000;stroke-width:15;stroke-linecap:round;stroke-linejoin:round;stroke-miterlimit:10;stroke-dasharray:none;stroke-opacity:1"
             id="path3553" /></g><g
           id="g3555"
           transform="translate(179.8467,388.2661)"><path
             d="m 0,0 c 0,-15.495 -12.561,-28.057 -28.056,-28.057 -15.495,0 -28.057,12.562 -28.057,28.057 0,15.495 12.562,28.057 28.057,28.057 C -12.561,28.057 0,15.495 0,0 Z"
             style="fill:none;stroke:#000000;stroke-width:15;stroke-linecap:round;stroke-linejoin:round;stroke-miterlimit:10;stroke-dasharray:none;stroke-opacity:1"
             id="path3557" /></g><g
           id="g3559"
           transform="translate(412.6382,377.5024)"><path
             d="m 0,0 c -2.635,-0.819 -5.436,-1.261 -8.34,-1.261 -15.495,0 -28.056,12.562 -28.056,28.057 0,15.495 12.561,28.057 28.056,28.057 15.495,0 28.057,-12.562 28.057,-28.057 0,-1.275 -0.085,-2.53 -0.25,-3.76"
             style="fill:none;stroke:#000000;stroke-width:15;stroke-linecap:round;stroke-linejoin:round;stroke-miterlimit:10;stroke-dasharray:none;stroke-opacity:1"
             id="path3561" /></g><g
           id="g3563"
           transform="translate(167.8228,364.2178)"><path
             d="m 0,0 v -44.089 c -13.282,0 -24.048,10.767 -24.048,24.048 v 15.699"
             style="fill:none;stroke:#000000;stroke-width:15;stroke-linecap:round;stroke-linejoin:round;stroke-miterlimit:10;stroke-dasharray:none;stroke-opacity:1"
             id="path3565" /></g><g
           id="g3567"
           transform="translate(159.8066,223.9355)"><path
             d="M 0,0 H -64.129"
             style="fill:none;stroke:#000000;stroke-width:15;stroke-linecap:round;stroke-linejoin:round;stroke-miterlimit:10;stroke-dasharray:none;stroke-opacity:1"
             id="path3569" /></g><g
           id="g3571"
           transform="translate(111.7095,31.5483)"><path
             d="M 0,0 V -24.048 H 48.097 L 24.049,0"
             style="fill:none;stroke:#000000;stroke-width:15;stroke-linecap:round;stroke-linejoin:round;stroke-miterlimit:10;stroke-dasharray:none;stroke-opacity:1"
             id="path3573" /></g><g
           id="g3575"
           transform="translate(215.9194,31.5483)"><path
             d="M 0,0 V -24.048 H 48.097 L 24.048,0"
             style="fill:none;stroke:#000000;stroke-width:15;stroke-linecap:round;stroke-linejoin:round;stroke-miterlimit:10;stroke-dasharray:none;stroke-opacity:1"
             id="path3577" /></g><g
           id="g3579"
           transform="translate(36.0576,264.5171)"><path
             d="M 0,0 8.016,-17.034"
             style="fill:none;stroke:#000000;stroke-width:15;stroke-linecap:round;stroke-linejoin:round;stroke-miterlimit:10;stroke-dasharray:none;stroke-opacity:1"
             id="path3581" /></g><g
           id="g3583"
           transform="translate(260.5093,324.1372)"><path
             d="M 0,0 13.026,-16.032"
             style="fill:none;stroke:#000000;stroke-width:15;stroke-linecap:round;stroke-linejoin:round;stroke-miterlimit:10;stroke-dasharray:none;stroke-opacity:1"
             id="path3585" /></g><g
           id="g3587"
           transform="translate(284.4888,343.8198)"><path
             d="m 0,0 c 0.428,1.308 1.096,2.559 2.007,3.684 v 0 c 4.138,5.111 11.696,5.757 16.64,1.421 L 53.008,-25.027 74.21,-1.981 c 6.072,6.599 14.63,10.355 23.598,10.355 6.328,0 12.336,2.784 16.426,7.613 l 41.648,49.168 v 83.243 c 0,6.783 5.499,12.282 12.283,12.282 6.578,0 11.988,-5.183 12.271,-11.755 l 3.623,-84.375 c 0.352,-8.191 -2.447,-16.206 -7.822,-22.396 L 135.759,-4.473 c -2.531,-2.916 -3.925,-6.648 -3.925,-10.51 v -40.772 l 32.99,-14.139 c 14.863,-6.37 26.772,-18.121 33.34,-32.898 l 21.847,-49.157"
             style="fill:none;stroke:#000000;stroke-width:15;stroke-linecap:round;stroke-linejoin:round;stroke-miterlimit:10;stroke-dasharray:none;stroke-opacity:1"
             id="path3589" /></g><g
           id="g3591"
           transform="translate(370.23,308.606)"><path
             d="m 0,0 -22.461,-18.828 c -6.515,-5.461 -16.159,-4.888 -21.981,1.306 l -28.805,30.643"
             style="fill:none;stroke:#000000;stroke-width:15;stroke-linecap:round;stroke-linejoin:round;stroke-miterlimit:10;stroke-dasharray:none;stroke-opacity:1"
             id="path3593" /></g><g
           id="g3595"
           transform="translate(416.3228,288.0645)"><path
             d="M 0,0 -64.129,-80.161"
             style="fill:none;stroke:#000000;stroke-width:15;stroke-linecap:round;stroke-linejoin:round;stroke-miterlimit:10;stroke-dasharray:none;stroke-opacity:1"
             id="path3597" /></g><g
           id="g3599"
           transform="translate(369.729,317.123)"><path
             d="M 0,0 9.018,-28.558"
             style="fill:none;stroke:#000000;stroke-width:15;stroke-linecap:round;stroke-linejoin:round;stroke-miterlimit:10;stroke-dasharray:none;stroke-opacity:1"
             id="path3601" /></g><g
           id="g3603"
           transform="translate(352.1934,207.9033)"><path
             d="m 0,0 c 2.368,-0.875 7.013,-4.145 8.509,-5.72 5.384,-5.666 4.36,-19.698 10.901,-24.013 6.435,-4.246 18.319,2.583 25.692,-0.115 7.142,-2.613 12.089,-15.666 19.945,-16.606 7.854,-0.941 15.743,10.575 23.298,11.428 7.801,0.88 17.736,-8.563 24.99,-5.957 7.375,2.649 9.693,16.525 16.262,20.76 5.777,3.723 16.426,1.111 22.71,4.191"
             style="fill:none;stroke:#000000;stroke-width:15;stroke-linecap:round;stroke-linejoin:round;stroke-miterlimit:10;stroke-dasharray:none;stroke-opacity:1"
             id="path3605" /></g><g
           id="g3607"
           transform="translate(465.5288,166.9204)"><path
             d="m 0,0 20.937,-145.503 c 1.056,-7.343 -4.641,-13.917 -12.059,-13.917 -5.807,0 -10.807,4.099 -11.946,9.793 L -33.174,0.902"
             style="fill:none;stroke:#000000;stroke-width:15;stroke-linecap:round;stroke-linejoin:round;stroke-miterlimit:10;stroke-dasharray:none;stroke-opacity:1"
             id="path3609" /></g><g
           id="g3611"
           transform="translate(376.2417,175.8389)"><path
             d="m 0,0 -80.161,-168.339 h 14.569 c 5.847,0 11.23,3.183 14.048,8.306 L 32.065,-8.016"
             style="fill:none;stroke:#000000;stroke-width:15;stroke-linecap:round;stroke-linejoin:round;stroke-miterlimit:10;stroke-dasharray:none;stroke-opacity:1"
             id="path3613" /></g><g
           id="g3615"
           transform="translate(315.4531,42.2363)"><path
             d="M 0,0 H 22.044"
             style="fill:none;stroke:#000000;stroke-width:15;stroke-linecap:round;stroke-linejoin:round;stroke-miterlimit:10;stroke-dasharray:none;stroke-opacity:1"
             id="path3617" /></g><g
           id="g3619"
           transform="translate(459.2529,41.5034)"><path
             d="M 0,0 H 20.04"
             style="fill:none;stroke:#000000;stroke-width:15;stroke-linecap:round;stroke-linejoin:round;stroke-miterlimit:10;stroke-dasharray:none;stroke-opacity:1"
             id="path3621" /></g><g
           id="g3623"
           transform="translate(457.0713,380.918)"><path
             d="M 0,0 -19.373,19.039"
             style="fill:none;stroke:#000000;stroke-width:15;stroke-linecap:round;stroke-linejoin:round;stroke-miterlimit:10;stroke-dasharray:none;stroke-opacity:1"
             id="path3625" /></g><g
           id="g3627"
           transform="translate(337.4971,314.7852)"><path
             d="M 0,0 V -25.385"
             style="fill:none;stroke:#000000;stroke-width:15;stroke-linecap:round;stroke-linejoin:round;stroke-miterlimit:10;stroke-dasharray:none;stroke-opacity:1"
             id="path3629" /></g></g></g></g></svg>
