<?xml version="1.0" standalone="no"?>
<!DOCTYPE svg PUBLIC "-//W3C//DTD SVG 1.2//EN" "http://www.w3.org/Graphics/SVG/1.2/DTD/svg12.dtd">
<svg xmlns="http://www.w3.org/2000/svg" version="1.2" baseProfile="tiny" id="selectedFigureSvg" width="100px" height="100px" viewBox="-119.46 -131.29 157.99 141.74"><g id="sequence"><g id="figure-2"><path d="M 0,0 m -4,0 a4,4 0 1 1 0,0.01" style="stroke: black; stroke-width: 1px; fill: black;"/><path d="M -4,0 l -40,0" style="stroke: black; stroke-width: 3px; fill: none; " class="line" id="figure-2-entry"/><path d="M -44,0 l -56.57,-56.57" style="stroke: black; stroke-width: 3px; fill: none; " class="line" id="figure-2-roll0-gap0"/><path d="M -100.57,-56.57 a40,40 0 0 1 56.57,-56.57" style="stroke: black; stroke-width: 3px; fill: none; "/><path d="M -44,-113.14 l 21.21,21.21" style="stroke-dasharray: 10, 5; stroke: red; stroke-width: 3px; fill: none; " class="line" id="figure-2-roll1-gap0"/><path d="M -22.79,-91.93 m -16.38,5.73 l 8.45,3.31 l -2.07,-7.73 z" style="stroke: black; stroke-width: 1px; fill: black;"/><path d="M -22.79,-91.93 m -16.38,5.73 a 20,20 0 0 0 16.38,-5.73 " style="stroke: black; stroke-width: 3px; fill: none; "/><path d="M -22.79,-91.93 l 14.14,14.14" style="stroke: black; stroke-width: 3px; fill: none; " class="line" id="figure-2-roll1-gap1"/><path d="M -8.65,-77.79 l 40,0" style="stroke: black; stroke-width: 3px; fill: none; " class="line" id="figure-2-exit"/><path d="M 31.35,-77.79 m 0,-10 l 0,20" style="stroke: black; stroke-width: 3px; fill: none; "/></g></g></svg>