<?xml version="1.0" standalone="no"?>
<!DOCTYPE svg PUBLIC "-//W3C//DTD SVG 1.2//EN" "http://www.w3.org/Graphics/SVG/1.2/DTD/svg12.dtd">
<svg xmlns="http://www.w3.org/2000/svg" version="1.2" baseProfile="tiny" id="selectedFigureSvg" width="100px" height="100px" viewBox="-14.82 -84.5 145.43 99"><g id="sequence"><g id="figure-2"><path d="M 0,0 m -4,0 a4,4 0 1 1 0,0.01" style="stroke: black; stroke-width: 1px; fill: black;"/><path d="M 4,0 l 60,0" style="stroke: black; stroke-width: 3px; fill: none; " class="line" id="figure-2-entry"/><path d="M 64,0 a40,40 0 0 0 28.28,-68.28" style="stroke: black; stroke-width: 3px; fill: none; "/><path d="M 92.28,-68.28 a40,40 0 0 0 -28.28,-11.72" style="stroke: black; stroke-width: 3px; fill: none; "/><path d="M 64,-80 a40,40 0 0 0 -28.28,11.72" style="stroke: black; stroke-width: 3px; fill: none; "/><path d="M 35.72,-68.28 a40,40 0 0 0 28.28,68.28" style="stroke: black; stroke-width: 3px; fill: none; "/><path d="M 64,0 l 60,0" style="stroke: black; stroke-width: 3px; fill: none; " class="line" id="figure-2-exit"/><path d="M 124,0 m 0,-10 l 0,20" style="stroke: black; stroke-width: 3px; fill: none; "/></g></g></svg>