<?xml version="1.0" standalone="no"?>
<!DOCTYPE svg PUBLIC "-//W3C//DTD SVG 1.2//EN" "http://www.w3.org/Graphics/SVG/1.2/DTD/svg12.dtd">
<svg xmlns="http://www.w3.org/2000/svg" version="1.2" baseProfile="tiny" id="selectedFigureSvg" width="100px" height="100px" viewBox="-16.54 -116.45 238.66 126.19"><g id="sequence"><g id="figure-2"><path d="M 0,0 m -4,0 a4,4 0 1 1 0,0.01" style="stroke: black; stroke-width: 1px; fill: black;"/><path d="M 4,0 l 40,0" style="stroke: black; stroke-width: 3px; fill: none; " class="line" id="figure-2-entry"/><path d="M 44,0 l 70.71,-70.71" style="stroke: black; stroke-width: 3px; fill: none; " class="line" id="figure-2-roll0-gap0"/><path d="M 114.71,-70.71 m 5.73,16.38 l 3.31,-8.45 l -7.73,2.07 z" style="stroke: black; stroke-width: 1px; fill: black;"/><path d="M 114.71,-70.71 m 5.73,16.38 a 20,20 0 0 0 -5.73,-16.38 " style="stroke: black; stroke-width: 3px; fill: none; "/><path d="M 114.71,-70.71 l 28.28,-28.28" style="stroke-dasharray: 10, 5; stroke: red; stroke-width: 3px; fill: none; " class="line" id="figure-2-roll0-gap1"/><path d="M 142.99,-98.99 a40,40 0 1 1 28.28,68.28" style="stroke: black; stroke-width: 3px; fill: none; "/><path d="M 171.27,-30.71 l -140,0" style="stroke: black; stroke-width: 3px; fill: none; " class="line" id="figure-2-exit"/><path d="M 31.27,-30.71 m 0,10 l 0,-20" style="stroke: black; stroke-width: 3px; fill: none; "/></g></g></svg>