<?xml version="1.0" encoding="UTF-8" standalone="no"?>
<!-- Created with Inkscape (http://www.inkscape.org/) -->

<svg
   width="16.253883mm"
   height="4.5953164mm"
   viewBox="0 0 16.253883 4.5953164"
   version="1.1"
   id="svg7038"
   inkscape:version="1.2.2 (732a01da63, 2022-12-09)"
   sodipodi:docname="0.svg"
   xmlns:inkscape="http://www.inkscape.org/namespaces/inkscape"
   xmlns:sodipodi="http://sodipodi.sourceforge.net/DTD/sodipodi-0.dtd"
   xmlns="http://www.w3.org/2000/svg"
   xmlns:svg="http://www.w3.org/2000/svg">
  <sodipodi:namedview
     id="namedview7040"
     pagecolor="#ffffff"
     bordercolor="#000000"
     borderopacity="0.25"
     inkscape:showpageshadow="2"
     inkscape:pageopacity="0.0"
     inkscape:pagecheckerboard="0"
     inkscape:deskcolor="#d1d1d1"
     inkscape:document-units="mm"
     showgrid="false"
     inkscape:zoom="5.9651515"
     inkscape:cx="-9.8069596"
     inkscape:cy="-2.011684"
     inkscape:window-width="1920"
     inkscape:window-height="1017"
     inkscape:window-x="-8"
     inkscape:window-y="-8"
     inkscape:window-maximized="1"
     inkscape:current-layer="layer1" />
  <defs
     id="defs7035">
    <clipPath
       clipPathUnits="userSpaceOnUse"
       id="clipPath1745">
      <path
         d="M 0,792 H 612 V 2.4414e-4 H 0"
         clip-rule="evenodd"
         id="path1743" />
    </clipPath>
    <clipPath
       clipPathUnits="userSpaceOnUse"
       id="clipPath1755">
      <path
         d="M 0,792 H 612 V 2.4414e-4 H 0"
         clip-rule="evenodd"
         id="path1753" />
    </clipPath>
  </defs>
  <g
     inkscape:label="Layer 1"
     inkscape:groupmode="layer"
     id="layer1"
     transform="translate(-20.969833,-28.928152)">
    <path
       d="m 22.096605,30.968495 c 0,0.275167 -0.223661,0.500945 -0.499886,0.500945 -0.276225,0 -0.499886,-0.225778 -0.499886,-0.500945 0,-0.275167 0.223661,-0.500944 0.499886,-0.500944 0.276225,0 0.499886,0.225777 0.499886,0.500944 z"
       style="fill:#000000;fill-opacity:1;fill-rule:evenodd;stroke:none;stroke-width:0.352778"
       id="path1731" />
    <path
       d="m 22.096605,30.968495 c 0,0.275167 -0.223661,0.500945 -0.499886,0.500945 -0.276225,0 -0.499886,-0.225778 -0.499886,-0.500945 0,-0.275167 0.223661,-0.500944 0.499886,-0.500944 0.276225,0 0.499886,0.225777 0.499886,0.500944 z m 15.000111,-0.998361 v 1.996722 M 22.096605,30.968495 h 7.500055 m 0,0 h 7.500056"
       style="fill:none;stroke:#000000;stroke-width:0.254;stroke-linecap:round;stroke-linejoin:round;stroke-miterlimit:10;stroke-dasharray:none;stroke-opacity:1"
       id="path1733" />
    <path
       d="m 22.096605,30.968495 c 0,0.275167 -0.223661,0.500945 -0.499886,0.500945 -0.276225,0 -0.499886,-0.225778 -0.499886,-0.500945 0,-0.275167 0.223661,-0.500944 0.499886,-0.500944 0.276225,0 0.499886,0.225777 0.499886,0.500944 z"
       style="fill:#000000;fill-opacity:1;fill-rule:evenodd;stroke:none;stroke-width:0.352778"
       id="path1735" />
    <path
       d="m 22.096605,30.968495 c 0,0.275167 -0.223661,0.500945 -0.499886,0.500945 -0.276225,0 -0.499886,-0.225778 -0.499886,-0.500945 0,-0.275167 0.223661,-0.500944 0.499886,-0.500944 0.276225,0 0.499886,0.225777 0.499886,0.500944 z m 15.000111,-0.998361 v 1.996722 M 22.096605,30.968495 h 7.500055 m 0,0 h 7.500056"
       style="fill:none;stroke:#000000;stroke-width:0.254;stroke-linecap:round;stroke-linejoin:round;stroke-miterlimit:10;stroke-dasharray:none;stroke-opacity:1"
       id="path1737" />
    <g
       id="g1739"
       transform="matrix(0.35277777,0,0,-0.35277777,-0.56583904,262.74349)">
      <g
         id="g1741"
         clip-path="url(#clipPath1745)">
        <path
           d="m 82.169,649.91 2.835,1.78 -2.303,1.41 z"
           style="fill:#000000;fill-opacity:1;fill-rule:evenodd;stroke:none"
           id="path1747" />
      </g>
    </g>
    <g
       id="g1749"
       transform="matrix(0.35277777,0,0,-0.35277777,-0.56583904,262.74349)">
      <g
         id="g1751"
         clip-path="url(#clipPath1755)">
        <path
           d="m 82.878,662.67 c 3.094,-3.8 2.787,-9.33 -0.709,-12.76 m 0,0 2.835,1.78 -2.303,1.41 z"
           style="fill:none;stroke:#000000;stroke-width:0.36;stroke-linecap:butt;stroke-linejoin:miter;stroke-miterlimit:2;stroke-dasharray:none;stroke-opacity:1"
           id="path1757" />
      </g>
    </g>
  </g>
</svg>
