<?xml version="1.0" encoding="UTF-8" standalone="no"?>
<!-- Created with Inkscape (http://www.inkscape.org/) -->

<svg
   width="17.842955mm"
   height="14.372265mm"
   viewBox="0 0 17.842955 14.372265"
   version="1.1"
   id="svg7445"
   inkscape:version="1.2.2 (732a01da63, 2022-12-09)"
   sodipodi:docname="3.svg"
   xmlns:inkscape="http://www.inkscape.org/namespaces/inkscape"
   xmlns:sodipodi="http://sodipodi.sourceforge.net/DTD/sodipodi-0.dtd"
   xmlns="http://www.w3.org/2000/svg"
   xmlns:svg="http://www.w3.org/2000/svg">
  <sodipodi:namedview
     id="namedview7447"
     pagecolor="#ffffff"
     bordercolor="#000000"
     borderopacity="0.25"
     inkscape:showpageshadow="2"
     inkscape:pageopacity="0.0"
     inkscape:pagecheckerboard="0"
     inkscape:deskcolor="#d1d1d1"
     inkscape:document-units="mm"
     showgrid="false"
     inkscape:zoom="0.74564394"
     inkscape:cx="202.50953"
     inkscape:cy="75.10287"
     inkscape:window-width="1920"
     inkscape:window-height="1017"
     inkscape:window-x="-8"
     inkscape:window-y="-8"
     inkscape:window-maximized="1"
     inkscape:current-layer="layer1" />
  <defs
     id="defs7442">
    <clipPath
       clipPathUnits="userSpaceOnUse"
       id="clipPath1837">
      <path
         d="M -7.629e-6,792 H 612 V 1.8311e-4 L -3.8147e-5,1.2207e-4"
         clip-rule="evenodd"
         id="path1835" />
    </clipPath>
    <clipPath
       clipPathUnits="userSpaceOnUse"
       id="clipPath1847">
      <path
         d="M -7.629e-6,792 H 612 V 1.8311e-4 L -3.8147e-5,1.2207e-4"
         clip-rule="evenodd"
         id="path1845" />
    </clipPath>
    <clipPath
       clipPathUnits="userSpaceOnUse"
       id="clipPath1857">
      <path
         d="M -7.629e-6,792 H 612 V 1.8311e-4 L -3.8147e-5,1.2207e-4"
         clip-rule="evenodd"
         id="path1855" />
    </clipPath>
    <clipPath
       clipPathUnits="userSpaceOnUse"
       id="clipPath1867">
      <path
         d="M -7.629e-6,792 H 612 V 1.8311e-4 L -3.8147e-5,1.2207e-4"
         clip-rule="evenodd"
         id="path1865" />
    </clipPath>
  </defs>
  <g
     inkscape:label="Layer 1"
     inkscape:groupmode="layer"
     id="layer1"
     transform="translate(-51.401104,-128.71709)">
    <g
       id="g1815"
       transform="matrix(0.35277777,0,0,-0.35277777,30.064559,309.93208)">
      <path
         d="m 85.45,501.29 -9.431,9.43"
         style="fill:none;stroke:#ff0000;stroke-width:0.72;stroke-linecap:round;stroke-linejoin:round;stroke-miterlimit:10;stroke-dasharray:2.16, 2.16;stroke-dashoffset:0;stroke-opacity:1"
         id="path1817" />
    </g>
    <path
       d="m 66.862808,137.52606 c 0,-0.2787 0.225778,-0.50095 0.500945,-0.50095 0.275166,0 0.500944,0.22225 0.500944,0.50095 0,0.27516 -0.225778,0.49741 -0.500944,0.49741 -0.275167,0 -0.500945,-0.22225 -0.500945,-0.49741 z"
       style="fill:#000000;fill-opacity:1;fill-rule:evenodd;stroke:none;stroke-width:0.352778"
       id="path1819" />
    <path
       d="m 66.862808,137.52606 c 0,-0.2787 0.225778,-0.50095 0.500945,-0.50095 0.275166,0 0.500944,0.22225 0.500944,0.50095 0,0.27516 -0.225778,0.49741 -0.500944,0.49741 -0.275167,0 -0.500945,-0.22225 -0.500945,-0.49741 z m 2.25425,5.4363 v -2.00025 m -2.25425,-3.43605 h -2.216855 m 0,0 -4.436534,-4.43795 m -3.327047,-3.32669 c -1.225197,-1.22414 -3.211336,-1.22414 -4.43618,0 -1.225197,1.22414 -1.225197,3.21028 0,4.43794 m 0,0 7.763227,7.76111 m 0,0 h 8.907639"
       style="fill:none;stroke:#000000;stroke-width:0.254;stroke-linecap:round;stroke-linejoin:round;stroke-miterlimit:10;stroke-dasharray:none;stroke-opacity:1"
       id="path1821" />
    <g
       id="g1823"
       transform="matrix(0.35277777,0,0,-0.35277777,30.064559,309.93208)">
      <path
         d="m 85.45,501.29 -9.431,9.43"
         style="fill:none;stroke:#ff0000;stroke-width:0.72;stroke-linecap:round;stroke-linejoin:round;stroke-miterlimit:10;stroke-dasharray:2.16, 2.16;stroke-dashoffset:0;stroke-opacity:1"
         id="path1825" />
    </g>
    <path
       d="m 66.862808,137.52606 c 0,-0.2787 0.225778,-0.50095 0.500945,-0.50095 0.275166,0 0.500944,0.22225 0.500944,0.50095 0,0.27516 -0.225778,0.49741 -0.500944,0.49741 -0.275167,0 -0.500945,-0.22225 -0.500945,-0.49741 z"
       style="fill:#000000;fill-opacity:1;fill-rule:evenodd;stroke:none;stroke-width:0.352778"
       id="path1827" />
    <path
       d="m 66.862808,137.52606 c 0,-0.2787 0.225778,-0.50095 0.500945,-0.50095 0.275166,0 0.500944,0.22225 0.500944,0.50095 0,0.27516 -0.225778,0.49741 -0.500944,0.49741 -0.275167,0 -0.500945,-0.22225 -0.500945,-0.49741 z m 2.25425,5.4363 v -2.00025 m -2.25425,-3.43605 h -2.216855 m 0,0 -4.436534,-4.43795 m -3.327047,-3.32669 c -1.225197,-1.22414 -3.211336,-1.22414 -4.43618,0 -1.225197,1.22414 -1.225197,3.21028 0,4.43794 m 0,0 7.763227,7.76111 m 0,0 h 8.907639"
       style="fill:none;stroke:#000000;stroke-width:0.254;stroke-linecap:round;stroke-linejoin:round;stroke-miterlimit:10;stroke-dasharray:none;stroke-opacity:1"
       id="path1829" />
    <g
       id="g1831"
       transform="matrix(0.35277777,0,0,-0.35277777,30.064559,309.93208)">
      <g
         id="g1833"
         clip-path="url(#clipPath1837)">
        <path
           d="m 82.783,495.06 -0.667,2.89 2.334,-0.55 z"
           style="fill:#000000;fill-opacity:1;fill-rule:evenodd;stroke:none"
           id="path1839" />
      </g>
    </g>
    <g
       id="g1841"
       transform="matrix(0.35277777,0,0,-0.35277777,30.064559,309.93208)">
      <g
         id="g1843"
         clip-path="url(#clipPath1847)">
        <path
           d="m 85.45,501.29 c -1.53,-1.74 -2.465,-3.92 -2.667,-6.23 m 0,0 -0.667,2.89 2.334,-0.55 z"
           style="fill:none;stroke:#000000;stroke-width:0.36;stroke-linecap:butt;stroke-linejoin:miter;stroke-miterlimit:2;stroke-dasharray:none;stroke-opacity:1"
           id="path1849" />
      </g>
    </g>
    <g
       id="g1851"
       transform="matrix(0.35277777,0,0,-0.35277777,30.064559,309.93208)">
      <g
         id="g1853"
         clip-path="url(#clipPath1857)">
        <path
           d="m 82.783,495.06 -0.667,2.89 2.334,-0.55 z"
           style="fill:#000000;fill-opacity:1;fill-rule:evenodd;stroke:none"
           id="path1859" />
      </g>
    </g>
    <g
       id="g1861"
       transform="matrix(0.35277777,0,0,-0.35277777,30.064559,309.93208)">
      <g
         id="g1863"
         clip-path="url(#clipPath1867)">
        <path
           d="m 85.45,501.29 c -1.53,-1.74 -2.465,-3.92 -2.667,-6.23 m 0,0 -0.667,2.89 2.334,-0.55 z"
           style="fill:none;stroke:#000000;stroke-width:0.36;stroke-linecap:butt;stroke-linejoin:miter;stroke-miterlimit:2;stroke-dasharray:none;stroke-opacity:1"
           id="path1869" />
      </g>
    </g>
  </g>
</svg>
