<?xml version="1.0" encoding="UTF-8" standalone="no"?>
<!-- Created with Inkscape (http://www.inkscape.org/) -->

<svg
   width="19.034124mm"
   height="10.73503mm"
   viewBox="0 0 19.034124 10.73503"
   version="1.1"
   id="svg7609"
   inkscape:version="1.2.2 (732a01da63, 2022-12-09)"
   sodipodi:docname="4.svg"
   xmlns:inkscape="http://www.inkscape.org/namespaces/inkscape"
   xmlns:sodipodi="http://sodipodi.sourceforge.net/DTD/sodipodi-0.dtd"
   xmlns="http://www.w3.org/2000/svg"
   xmlns:svg="http://www.w3.org/2000/svg">
  <sodipodi:namedview
     id="namedview7611"
     pagecolor="#ffffff"
     bordercolor="#000000"
     borderopacity="0.25"
     inkscape:showpageshadow="2"
     inkscape:pageopacity="0.0"
     inkscape:pagecheckerboard="0"
     inkscape:deskcolor="#d1d1d1"
     inkscape:document-units="mm"
     showgrid="false"
     inkscape:zoom="0.74564394"
     inkscape:cx="139.47676"
     inkscape:cy="-122.04216"
     inkscape:window-width="1920"
     inkscape:window-height="1017"
     inkscape:window-x="-8"
     inkscape:window-y="-8"
     inkscape:window-maximized="1"
     inkscape:current-layer="layer1" />
  <defs
     id="defs7606" />
  <g
     inkscape:label="Layer 1"
     inkscape:groupmode="layer"
     id="layer1"
     transform="translate(-68.192616,-180.92281)">
    <path
       d="m 69.319741,190.53248 c 0,-0.27517 -0.224014,-0.50095 -0.499887,-0.50095 -0.276225,0 -0.500238,0.22578 -0.500238,0.50095 0,0.27516 0.224013,0.50094 0.500238,0.50094 0.275873,0 0.499887,-0.22578 0.499887,-0.50094 z"
       style="fill:#000000;fill-opacity:1;fill-rule:evenodd;stroke:none;stroke-width:0.352778"
       id="path1707" />
    <path
       d="m 69.319741,190.53248 c 0,-0.27517 -0.224014,-0.50095 -0.499887,-0.50095 -0.276225,0 -0.500238,0.22578 -0.500238,0.50095 0,0.27516 0.224013,0.50094 0.500238,0.50094 0.275873,0 0.499887,-0.22578 0.499887,-0.50094 z m 17.779999,0.99836 v -1.99672 m -17.779999,0.99836 h 8.297333 m 0,0 c 2.618669,0 4.741333,-2.12373 4.741333,-4.74134 0,-2.61761 -2.122664,-4.74133 -4.741333,-4.74133 m 0,0 c -2.61867,0 -4.741334,2.12372 -4.741334,4.74133 0,2.61761 2.122664,4.74134 4.741334,4.74134 m 0,0 h 9.482666"
       style="fill:none;stroke:#000000;stroke-width:0.254;stroke-linecap:round;stroke-linejoin:round;stroke-miterlimit:10;stroke-dasharray:none;stroke-opacity:1"
       id="path1709" />
    <path
       d="m 69.319741,190.53248 c 0,-0.27517 -0.224014,-0.50095 -0.499887,-0.50095 -0.276225,0 -0.500238,0.22578 -0.500238,0.50095 0,0.27516 0.224013,0.50094 0.500238,0.50094 0.275873,0 0.499887,-0.22578 0.499887,-0.50094 z"
       style="fill:#000000;fill-opacity:1;fill-rule:evenodd;stroke:none;stroke-width:0.352778"
       id="path1711" />
    <path
       d="m 69.319741,190.53248 c 0,-0.27517 -0.224014,-0.50095 -0.499887,-0.50095 -0.276225,0 -0.500238,0.22578 -0.500238,0.50095 0,0.27516 0.224013,0.50094 0.500238,0.50094 0.275873,0 0.499887,-0.22578 0.499887,-0.50094 z m 17.779999,0.99836 v -1.99672 m -17.779999,0.99836 h 8.297333 m 0,0 c 2.618669,0 4.741333,-2.12373 4.741333,-4.74134 0,-2.61761 -2.122664,-4.74133 -4.741333,-4.74133 m 0,0 c -2.61867,0 -4.741334,2.12372 -4.741334,4.74133 0,2.61761 2.122664,4.74134 4.741334,4.74134 m 0,0 h 9.482666"
       style="fill:none;stroke:#000000;stroke-width:0.254;stroke-linecap:round;stroke-linejoin:round;stroke-miterlimit:10;stroke-dasharray:none;stroke-opacity:1"
       id="path1713" />
  </g>
</svg>
