<?xml version="1.0" encoding="UTF-8" standalone="no"?>
<!-- Created with Inkscape (http://www.inkscape.org/) -->

<svg
   width="7.6199999mm"
   height="16.492359mm"
   viewBox="0 0 7.6199999 16.492359"
   version="1.1"
   id="svg7661"
   inkscape:version="1.2.2 (732a01da63, 2022-12-09)"
   sodipodi:docname="5.svg"
   xmlns:inkscape="http://www.inkscape.org/namespaces/inkscape"
   xmlns:sodipodi="http://sodipodi.sourceforge.net/DTD/sodipodi-0.dtd"
   xmlns="http://www.w3.org/2000/svg"
   xmlns:svg="http://www.w3.org/2000/svg">
  <sodipodi:namedview
     id="namedview7663"
     pagecolor="#ffffff"
     bordercolor="#000000"
     borderopacity="0.25"
     inkscape:showpageshadow="2"
     inkscape:pageopacity="0.0"
     inkscape:pagecheckerboard="0"
     inkscape:deskcolor="#d1d1d1"
     inkscape:document-units="mm"
     showgrid="false"
     inkscape:zoom="0.74564394"
     inkscape:cx="311.14046"
     inkscape:cy="163.61697"
     inkscape:window-width="1920"
     inkscape:window-height="1017"
     inkscape:window-x="-8"
     inkscape:window-y="-8"
     inkscape:window-maximized="1"
     inkscape:current-layer="layer1" />
  <defs
     id="defs7658" />
  <g
     inkscape:label="Layer 1"
     inkscape:groupmode="layer"
     id="layer1"
     transform="translate(-22.802903,-105.3022)">
    <path
       d="m 25.977903,110.5092 c 0,-0.27516 -0.224014,-0.50094 -0.499886,-0.50094 -0.276225,0 -0.500239,0.22578 -0.500239,0.50094 0,0.27517 0.224014,0.50095 0.500239,0.50095 0.275872,0 0.499886,-0.22578 0.499886,-0.50095 z"
       style="fill:#000000;fill-opacity:1;fill-rule:evenodd;stroke:none;stroke-width:0.352778"
       id="path1715" />
    <path
       d="m 25.977903,110.5092 c 0,-0.27516 -0.224014,-0.50094 -0.499886,-0.50094 -0.276225,0 -0.500239,0.22578 -0.500239,0.50094 0,0.27517 0.224014,0.50095 0.500239,0.50095 0.275872,0 0.499886,-0.22578 0.499886,-0.50095 z m -3.048,11.15836 v -1.99672 m 3.048,-9.16164 h 3.81 v -5.08 m 0,5.08 v 10.16 m 0,0 h -6.858 m 6.858,-15.24 0.508,1.016"
       style="fill:none;stroke:#000000;stroke-width:0.254;stroke-linecap:round;stroke-linejoin:round;stroke-miterlimit:10;stroke-dasharray:none;stroke-opacity:1"
       id="path1717" />
    <path
       d="m 25.977903,110.5092 c 0,-0.27516 -0.224014,-0.50094 -0.499886,-0.50094 -0.276225,0 -0.500239,0.22578 -0.500239,0.50094 0,0.27517 0.224014,0.50095 0.500239,0.50095 0.275872,0 0.499886,-0.22578 0.499886,-0.50095 z"
       style="fill:#000000;fill-opacity:1;fill-rule:evenodd;stroke:none;stroke-width:0.352778"
       id="path1719" />
    <path
       d="m 25.977903,110.5092 c 0,-0.27516 -0.224014,-0.50094 -0.499886,-0.50094 -0.276225,0 -0.500239,0.22578 -0.500239,0.50094 0,0.27517 0.224014,0.50095 0.500239,0.50095 0.275872,0 0.499886,-0.22578 0.499886,-0.50095 z m -3.048,11.15836 v -1.99672 m 3.048,-9.16164 h 3.81 v -5.08 m 0,5.08 v 10.16 m 0,0 h -6.858 m 6.858,-15.24 0.508,1.016"
       style="fill:none;stroke:#000000;stroke-width:0.254;stroke-linecap:round;stroke-linejoin:round;stroke-miterlimit:10;stroke-dasharray:none;stroke-opacity:1"
       id="path1721" />
  </g>
</svg>
