<?xml version="1.0" encoding="UTF-8" standalone="no"?>
<!-- Created with Inkscape (http://www.inkscape.org/) -->

<svg
   width="18.189676mm"
   height="12.100327mm"
   viewBox="0 0 18.189676 12.100327"
   version="1.1"
   id="svg7813"
   inkscape:version="1.2.2 (732a01da63, 2022-12-09)"
   sodipodi:docname="7.svg"
   xmlns:inkscape="http://www.inkscape.org/namespaces/inkscape"
   xmlns:sodipodi="http://sodipodi.sourceforge.net/DTD/sodipodi-0.dtd"
   xmlns="http://www.w3.org/2000/svg"
   xmlns:svg="http://www.w3.org/2000/svg">
  <sodipodi:namedview
     id="namedview7815"
     pagecolor="#ffffff"
     bordercolor="#000000"
     borderopacity="0.25"
     inkscape:showpageshadow="2"
     inkscape:pageopacity="0.0"
     inkscape:pagecheckerboard="0"
     inkscape:deskcolor="#d1d1d1"
     inkscape:document-units="mm"
     showgrid="false"
     inkscape:zoom="0.74564394"
     inkscape:cx="226.64973"
     inkscape:cy="115.33655"
     inkscape:window-width="1920"
     inkscape:window-height="1017"
     inkscape:window-x="-8"
     inkscape:window-y="-8"
     inkscape:window-maximized="1"
     inkscape:current-layer="layer1" />
  <defs
     id="defs7810">
    <clipPath
       clipPathUnits="userSpaceOnUse"
       id="clipPath1909">
      <path
         d="M -3.8147e-5,792 H 612 V -1.8311e-4 L 1.5259e-5,-1.2207e-4"
         clip-rule="evenodd"
         id="path1907" />
    </clipPath>
    <clipPath
       clipPathUnits="userSpaceOnUse"
       id="clipPath1919">
      <path
         d="M -3.8147e-5,792 H 612 V -1.8311e-4 L 1.5259e-5,-1.2207e-4"
         clip-rule="evenodd"
         id="path1917" />
    </clipPath>
    <clipPath
       clipPathUnits="userSpaceOnUse"
       id="clipPath1929">
      <path
         d="M -3.8147e-5,792 H 612 V -1.8311e-4 L 1.5259e-5,-1.2207e-4"
         clip-rule="evenodd"
         id="path1927" />
    </clipPath>
    <clipPath
       clipPathUnits="userSpaceOnUse"
       id="clipPath1939">
      <path
         d="M -3.8147e-5,792 H 612 V -1.8311e-4 L 1.5259e-5,-1.2207e-4"
         clip-rule="evenodd"
         id="path1937" />
    </clipPath>
  </defs>
  <g
     inkscape:label="Layer 1"
     inkscape:groupmode="layer"
     id="layer1"
     transform="translate(-45.195485,-118.14338)">
    <g
       id="g1887"
       transform="matrix(0.35277777,0,0,-0.35277777,24.20556,223.09129)">
      <path
         d="m 81.17,282.33 11.751,11.75 m 7.369,-17.78 h -0.26"
         style="fill:none;stroke:#ff0000;stroke-width:0.72;stroke-linecap:round;stroke-linejoin:round;stroke-miterlimit:2;stroke-dasharray:5.04, 3.6;stroke-dashoffset:0;stroke-opacity:1"
         id="path1889" />
    </g>
    <path
       d="m 48.205384,125.61879 c 0,0.27517 -0.223661,0.49742 -0.499886,0.49742 -0.276225,0 -0.499886,-0.22225 -0.499886,-0.49742 0,-0.27869 0.223661,-0.50094 0.499886,-0.50094 0.276225,0 0.499886,0.22225 0.499886,0.50094 z"
       style="fill:#000000;fill-opacity:1;fill-rule:evenodd;stroke:none;stroke-width:0.352778"
       id="path1891" />
    <path
       d="m 48.205384,125.61879 c 0,0.27517 -0.223661,0.49742 -0.499886,0.49742 -0.276225,0 -0.499886,-0.22225 -0.499886,-0.49742 0,-0.27869 0.223661,-0.50094 0.499886,-0.50094 0.276225,0 0.499886,0.22225 0.499886,0.50094 z m -2.882899,4.49792 v -4.0005 m 0,2.00025 h 2.893483 m 0,0 4.624564,-4.62492 m 4.145491,-4.14514 c 1.434747,-1.4358 3.760258,-1.4358 5.196064,0 1.435805,1.43228 1.435805,3.76061 0,5.19642 -0.687917,0.68792 -1.622778,1.07597 -2.596444,1.07597 m -0.09172,0 H 48.205384"
       style="fill:none;stroke:#000000;stroke-width:0.254;stroke-linecap:round;stroke-linejoin:round;stroke-miterlimit:2;stroke-dasharray:none;stroke-opacity:1"
       id="path1893" />
    <g
       id="g1895"
       transform="matrix(0.35277777,0,0,-0.35277777,24.20556,223.09129)">
      <path
         d="m 81.17,282.33 11.751,11.75 m 7.369,-17.78 h -0.26"
         style="fill:none;stroke:#ff0000;stroke-width:0.72;stroke-linecap:round;stroke-linejoin:round;stroke-miterlimit:2;stroke-dasharray:5.04, 3.6;stroke-dashoffset:0;stroke-opacity:1"
         id="path1897" />
    </g>
    <path
       d="m 48.205384,125.61879 c 0,0.27517 -0.223661,0.49742 -0.499886,0.49742 -0.276225,0 -0.499886,-0.22225 -0.499886,-0.49742 0,-0.27869 0.223661,-0.50094 0.499886,-0.50094 0.276225,0 0.499886,0.22225 0.499886,0.50094 z"
       style="fill:#000000;fill-opacity:1;fill-rule:evenodd;stroke:none;stroke-width:0.352778"
       id="path1899" />
    <path
       d="m 48.205384,125.61879 c 0,0.27517 -0.223661,0.49742 -0.499886,0.49742 -0.276225,0 -0.499886,-0.22225 -0.499886,-0.49742 0,-0.27869 0.223661,-0.50094 0.499886,-0.50094 0.276225,0 0.499886,0.22225 0.499886,0.50094 z m -2.882899,4.49792 v -4.0005 m 0,2.00025 h 2.893483 m 0,0 4.624564,-4.62492 m 4.145491,-4.14514 c 1.434747,-1.4358 3.760258,-1.4358 5.196064,0 1.435805,1.43228 1.435805,3.76061 0,5.19642 -0.687917,0.68792 -1.622778,1.07597 -2.596444,1.07597 m -0.09172,0 H 48.205384"
       style="fill:none;stroke:#000000;stroke-width:0.254;stroke-linecap:round;stroke-linejoin:round;stroke-miterlimit:2;stroke-dasharray:none;stroke-opacity:1"
       id="path1901" />
    <g
       id="g1903"
       transform="matrix(0.35277777,0,0,-0.35277777,24.20556,223.09129)">
      <g
         id="g1905"
         clip-path="url(#clipPath1909)">
        <path
           d="m 78.119,288.71 -0.754,-3.26 2.64,0.62 z"
           style="fill:#000000;fill-opacity:1;fill-rule:evenodd;stroke:none"
           id="path1911" />
      </g>
    </g>
    <g
       id="g1913"
       transform="matrix(0.35277777,0,0,-0.35277777,24.20556,223.09129)">
      <g
         id="g1915"
         clip-path="url(#clipPath1919)">
        <path
           d="m 81.136,281.67 c -1.731,1.97 -2.788,4.44 -3.017,7.04 m 0,0 -0.754,-3.26 2.64,0.62 z"
           style="fill:none;stroke:#000000;stroke-width:0.36126;stroke-linecap:butt;stroke-linejoin:miter;stroke-miterlimit:2;stroke-dasharray:none;stroke-opacity:1"
           id="path1921" />
      </g>
    </g>
    <g
       id="g1923"
       transform="matrix(0.35277777,0,0,-0.35277777,24.20556,223.09129)">
      <g
         id="g1925"
         clip-path="url(#clipPath1929)">
        <path
           d="m 78.119,288.71 -0.754,-3.26 2.64,0.62 z"
           style="fill:#000000;fill-opacity:1;fill-rule:evenodd;stroke:none"
           id="path1931" />
      </g>
    </g>
    <g
       id="g1933"
       transform="matrix(0.35277777,0,0,-0.35277777,24.20556,223.09129)">
      <g
         id="g1935"
         clip-path="url(#clipPath1939)">
        <path
           d="m 81.136,281.67 c -1.731,1.97 -2.788,4.44 -3.017,7.04 m 0,0 -0.754,-3.26 2.64,0.62 z"
           style="fill:none;stroke:#000000;stroke-width:0.36126;stroke-linecap:butt;stroke-linejoin:miter;stroke-miterlimit:2;stroke-dasharray:none;stroke-opacity:1"
           id="path1941" />
      </g>
    </g>
  </g>
</svg>
