<?xml version="1.0" encoding="UTF-8" standalone="no"?>
<!-- Created with Inkscape (http://www.inkscape.org/) -->

<svg
   width="9.0635662mm"
   height="15.501057mm"
   viewBox="0 0 9.0635662 15.501057"
   version="1.1"
   id="svg8145"
   inkscape:version="1.2.2 (732a01da63, 2022-12-09)"
   sodipodi:docname="9.svg"
   xmlns:inkscape="http://www.inkscape.org/namespaces/inkscape"
   xmlns:sodipodi="http://sodipodi.sourceforge.net/DTD/sodipodi-0.dtd"
   xmlns="http://www.w3.org/2000/svg"
   xmlns:svg="http://www.w3.org/2000/svg">
  <sodipodi:namedview
     id="namedview8147"
     pagecolor="#ffffff"
     bordercolor="#000000"
     borderopacity="0.25"
     inkscape:showpageshadow="2"
     inkscape:pageopacity="0.0"
     inkscape:pagecheckerboard="0"
     inkscape:deskcolor="#d1d1d1"
     inkscape:document-units="mm"
     showgrid="false"
     inkscape:zoom="0.74564394"
     inkscape:cx="236.03759"
     inkscape:cy="32.186944"
     inkscape:window-width="1920"
     inkscape:window-height="1017"
     inkscape:window-x="-8"
     inkscape:window-y="-8"
     inkscape:window-maximized="1"
     inkscape:current-layer="layer1" />
  <defs
     id="defs8142" />
  <g
     inkscape:label="Layer 1"
     inkscape:groupmode="layer"
     id="layer1"
     transform="translate(-42.661765,-140.21721)">
    <g
       id="g1991"
       transform="matrix(0.35277777,0,0,-0.35277777,18.49931,208.54321)">
      <path
         d="M 85.5,192.26 V 149.74"
         style="fill:none;stroke:#ff0000;stroke-width:0.72;stroke-linecap:round;stroke-linejoin:round;stroke-miterlimit:2;stroke-dasharray:2.16, 2.16;stroke-dashoffset:0;stroke-opacity:1"
         id="path1993" />
    </g>
    <path
       d="m 43.66189,140.71816 c 0,0.27516 -0.224014,0.50094 -0.500239,0.50094 -0.275872,0 -0.499886,-0.22578 -0.499886,-0.50094 0,-0.27517 0.224014,-0.50095 0.499886,-0.50095 0.276225,0 0.500239,0.22578 0.500239,0.50095 z"
       style="fill:#000000;fill-opacity:1;fill-rule:evenodd;stroke:none;stroke-width:0.352778"
       id="path1995" />
    <g
       id="g1999"
       transform="matrix(0.35277777,0,0,-0.35277777,18.49931,208.54321)">
      <path
         d="M 85.5,192.26 V 149.74"
         style="fill:none;stroke:#ff0000;stroke-width:0.72;stroke-linecap:round;stroke-linejoin:round;stroke-miterlimit:2;stroke-dasharray:2.16, 2.16;stroke-dashoffset:0;stroke-opacity:1"
         id="path2001" />
    </g>
    <path
       d="m 43.66189,140.71816 c 0,0.27516 -0.224014,0.50094 -0.500239,0.50094 -0.275872,0 -0.499886,-0.22578 -0.499886,-0.50094 0,-0.27517 0.224014,-0.50095 0.499886,-0.50095 0.276225,0 0.500239,0.22578 0.500239,0.50095 z"
       style="fill:#000000;fill-opacity:1;fill-rule:evenodd;stroke:none;stroke-width:0.352778"
       id="path2003" />
    <path
       d="m 51.161945,142.96888 v -1.00189 h -4.500033 v 2.25072 l 4.500033,-2.25072 z m 0,1.24883 v -0.99836 h -2.500136 v 1.24883 l 2.500136,-1.24883 z"
       style="fill:#ffffff;fill-opacity:1;fill-rule:evenodd;stroke:none;stroke-width:0.352778"
       id="path2007" />
    <path
       d="m 51.161945,142.96888 v -1.00189 h -4.500033 v 2.25072 l 4.500033,-2.25072 m 0,2.25072 v -0.99836 h -2.500136 v 1.24883 l 2.500136,-1.24883 m 0.499886,-1.25236 v 2.25072"
       style="fill:none;stroke:#000000;stroke-width:0.127;stroke-linecap:round;stroke-linejoin:round;stroke-miterlimit:2;stroke-dasharray:none;stroke-opacity:1"
       id="path2009" />
  </g>
</svg>
