<?xml version="1.0" encoding="UTF-8" standalone="no"?>
<!-- Created with Inkscape (http://www.inkscape.org/) -->

<svg
   width="19.049999mm"
   height="9.4309187mm"
   viewBox="0 0 19.049999 9.4309187"
   version="1.1"
   id="svg19690"
   inkscape:version="1.2.2 (732a01da63, 2022-12-09)"
   sodipodi:docname="0.svg"
   xmlns:inkscape="http://www.inkscape.org/namespaces/inkscape"
   xmlns:sodipodi="http://sodipodi.sourceforge.net/DTD/sodipodi-0.dtd"
   xmlns="http://www.w3.org/2000/svg"
   xmlns:svg="http://www.w3.org/2000/svg">
  <sodipodi:namedview
     id="namedview19692"
     pagecolor="#ffffff"
     bordercolor="#000000"
     borderopacity="0.25"
     inkscape:showpageshadow="2"
     inkscape:pageopacity="0.0"
     inkscape:pagecheckerboard="0"
     inkscape:deskcolor="#d1d1d1"
     inkscape:document-units="mm"
     showgrid="false"
     inkscape:zoom="0.74564394"
     inkscape:cx="210.55626"
     inkscape:cy="75.10287"
     inkscape:window-width="1920"
     inkscape:window-height="1017"
     inkscape:window-x="-8"
     inkscape:window-y="-8"
     inkscape:window-maximized="1"
     inkscape:current-layer="layer1" />
  <defs
     id="defs19687" />
  <g
     inkscape:label="Layer 1"
     inkscape:groupmode="layer"
     id="layer1"
     transform="translate(-49.378226,-128.7039)">
    <g
       id="g16478"
       transform="matrix(0.26458333,0,0,0.26458333,29.227559,85.629735)">
      <path
         d="m 80.480003,167.36 h 2.879998 L 83.68,167.2 83.839996,166.88 83.68,166.56 83.360001,166.39999 H 80.480003 L 80.160004,166.56 80,166.88 l 0.160004,0.32 z m 5.759995,0 h 2.880005 l 0.319999,-0.16 0.159996,-0.32 -0.159996,-0.32 -0.319999,-0.16001 h -2.880005 l -0.32,0.16001 -0.159996,0.32 0.159996,0.32 z M 92,167.36 h 2.879997 l 0.32,-0.16 0.160004,-0.32 -0.160004,-0.32 -0.32,-0.16001 H 92 L 91.68,166.56 91.519997,166.88 91.68,167.2 Z m 5.760002,0 H 100.64 l 0.32,-0.16 0.16,-0.32 -0.16,-0.32 -0.32,-0.16001 h -2.879998 l -0.32,0.16001 -0.160003,0.32 0.160003,0.32 z m 5.759998,0 h 2.88 l 0.32,-0.16 0.16,-0.32 -0.16,-0.32 -0.32,-0.16001 h -2.88 l -0.32,0.16001 -0.16,0.32 0.16,0.32 z m 5.76,0 h 2.88 l 0.32,-0.16 0.16,-0.32 -0.16,-0.32 -0.32,-0.16001 h -2.88 l -0.32,0.16001 -0.16,0.32 0.16,0.32 z m 5.76,0 h 2.88 l 0.32,-0.16 0.16,-0.32 -0.16,-0.32 -0.32,-0.16001 h -2.88 l -0.32,0.16001 -0.16,0.32 0.16,0.32 z m 5.76,0 h 2.88 l 0.32,-0.16 0.16,-0.32 -0.16,-0.32 -0.32,-0.16001 h -2.88 l -0.32,0.16001 -0.16,0.32 0.16,0.32 z m 5.76,0 h 2.40001 l 0.31999,-0.16 0.16,-0.32 -0.16,-0.32 -0.31999,-0.16001 H 126.56 l -0.32,0.16001 -0.16,0.32 0.16,0.32 z m -19.84,5.28 -0.96,-0.8 -0.96,-0.80001 -0.48,-0.15999 -0.32,-0.16 -0.32,0.31999 V 171.36 l 0.16,0.31999 0.32,0.16001 0.96,0.64 0.96,0.8 0.32,0.16 0.32,-0.16 0.16,-0.31999 z m -5.12,-3.03999 h -0.16 L 100.32,169.28 99.199997,169.11999 H 98.720001 98.400002 L 98.239998,169.44 v 0.48 l 0.32,0.16 v 0 h 0.480003 l 1.119999,0.16 0.96,0.15999 0.16,0.16001 0.48,-0.16001 0.16,-0.15999 v -0.48001 z M 95.68,169.28 v 0 l -1.120002,0.32001 -1.279999,0.31999 -0.479996,0.16 -0.160004,0.31999 V 170.72 l 0.32,0.31999 h 0.32 v 0 l 0.319999,-0.15999 1.120003,-0.48001 1.119995,-0.15999 v 0 L 96.160004,169.92 96.32,169.60001 96,169.28 Z m -5.440002,2.39999 V 171.84 l -0.959999,0.8 -0.799996,0.96001 -0.319999,0.31999 0.159996,0.64 h 0.319999 l 0.32,-0.16001 0.160004,-0.15999 0.799995,-0.96 0.800003,-0.8 h 0.159996 l 0.160004,-0.32 v -0.32 l -0.32,-0.16001 z m -3.519997,4.80001 -0.160003,0.16 -0.479996,1.11999 -0.160004,1.28 -0.159996,0.32001 0.159996,0.31999 0.32,0.16001 0.32,-0.16001 0.160003,-0.31999 v -0.16 l 0.32,-1.12 0.32,-0.96001 0.159996,-0.31999 v -0.32 l -0.159996,-0.32 h -0.480004 z m -1.120003,5.76 0.160004,0.32 0.159996,1.11999 0.160004,1.12001 0.159996,0.48 0.32,0.16 h 0.319999 l 0.32,-0.16 v -0.31999 L 87.040001,184.64 86.879997,183.52 86.720001,182.39999 86.559998,182.24 v -0.32 l -0.479996,-0.16001 -0.32,0.16001 z m 1.919999,5.6 0.160003,0.32 0.64,0.95999 0.959999,0.96001 0.160003,0.16 0.32,0.15999 0.32,-0.15999 0.159996,-0.32 -0.159996,-0.31999 -0.160004,-0.16001 -0.799995,-0.8 -0.64,-0.96001 L 88.32,187.36 88,187.2 h -0.32 l -0.160003,0.32 z m 4.319999,4.16 0.320008,0.16 1.119995,0.64 1.120003,0.31999 0.159996,0.16001 0.319999,-0.16001 0.32,-0.31999 -0.159996,-0.32 -0.32,-0.15999 v 0 L 93.599998,191.84 92.639999,191.36 92.32,191.2 h -0.480004 l -0.159996,0.16 -0.160003,0.31999 z m 5.600006,1.60001 0.479996,0.15998 0.32,-0.15998 0.160004,-0.32001 v -0.31999 L 97.919998,192.8 l -0.32,-0.16 -0.479995,0.16 -0.160004,0.31999 0.160004,0.32001 z m 0.64,0.15998 H 100.96 l 0.48,-0.15998 V 193.28 192.8 h -0.48 -2.879998 -0.32 l -0.160004,0.48 0.160004,0.32001 z m 5.759998,0 h 2.88 l 0.48,-0.15998 V 193.28 192.8 h -0.48 -2.88 -0.32 l -0.16,0.48 0.16,0.32001 z m 5.76,0 h 2.88 l 0.48,-0.15998 V 193.28 192.8 h -0.48 -2.88 -0.32 l -0.16,0.48 0.16,0.32001 z m 5.76,0 h 2.88 l 0.48,-0.15998 V 193.28 192.8 h -0.48 -2.88 -0.32 l -0.16,0.48 0.16,0.32001 z m 5.76,0 H 124 l 0.48,-0.15998 V 193.28 192.8 H 124 121.12 120.8 l -0.16,0.48 0.16,0.32001 z m 5.76,0 h 2.87999 L 130.24,193.60001 V 193.28 192.8 h -0.48001 -2.87999 -0.32 l -0.16,0.48 0.16,0.32001 z m 5.76,0 h 2.88 L 136,193.60001 V 193.28 192.8 h -0.48 -2.88 -0.31999 l -0.16001,0.48 0.16001,0.32001 z m 5.75999,0 H 141.28 l 0.47999,-0.15998 V 193.28 192.8 H 141.28 138.39999 138.08 l -0.16,0.48 0.16,0.32001 z m 5.76001,0 h 2.87999 L 147.52,193.60001 V 193.28 192.8 h -0.48001 -2.87999 -0.32 l -0.16001,0.48 0.16001,0.32001 z"
         style="fill:#ff0000;fill-opacity:1;fill-rule:nonzero;stroke:none"
         id="path16480" />
    </g>
    <g
       id="g16482"
       transform="matrix(0.26458333,0,0,0.26458333,50.521226,129.7834)">
      <path
         d="m 0,0 c 0,0.96 -0.8,1.92 -1.92,1.92 -0.96,0 -1.92,-0.96 -1.92,-1.92 0,-1.12 0.96,-1.92 1.92,-1.92 C -0.8,-1.92 0,-1.12 0,0 Z"
         style="fill:#000000;fill-opacity:1;fill-rule:evenodd;stroke:none"
         id="path16484" />
    </g>
    <g
       id="g16486"
       transform="matrix(0.26458333,0,0,0.26458333,50.521226,129.7834)">
      <path
         d="m 0,0 c 0,0.96 -0.8,1.92 -1.92,1.92 -0.96,0 -1.92,-0.96 -1.92,-1.92 0,-1.12 0.96,-1.92 1.92,-1.92 C -0.8,-1.92 0,-1.12 0,0 Z M 67.199997,22.559999 V 30.08 M 48.48,0 h -0.16 m 0,0 c 6.560001,0 12,5.28 12,11.84 0,6.56 -5.439999,11.84 -12,11.84 -3.040001,0 -6.079998,-1.28 -8.32,-3.52 m 0,0 L 25.92,6.08 M 17.440001,26.4 H 17.6"
         style="fill:none;stroke:#000000;stroke-width:0.96;stroke-linecap:round;stroke-linejoin:round;stroke-miterlimit:10;stroke-dasharray:none;stroke-opacity:1"
         id="path16488" />
    </g>
    <g
       id="g16490"
       transform="matrix(0.26458333,0,0,0.26458333,29.227559,85.629735)">
      <path
         d="M 128.32001,163.03999 H 126.24 l -3.36,7.04001 h 6.72001 L 126.24,163.03999 Z"
         style="fill:#ff0000;fill-opacity:1;fill-rule:evenodd;stroke:none"
         id="path16492" />
    </g>
    <g
       id="g16494"
       transform="matrix(0.26458333,0,0,0.26458333,29.227559,85.629735)">
      <path
         d="M 128.32001,163.03999 H 126.24 l -3.36,7.04001 h 6.72001 L 126.24,163.03999"
         style="fill:none;stroke:#000000;stroke-width:0.48;stroke-linecap:round;stroke-linejoin:round;stroke-miterlimit:10;stroke-dasharray:none;stroke-opacity:1"
         id="path16496" />
    </g>
    <g
       id="g16498"
       transform="matrix(0.26458333,0,0,0.26458333,29.227559,85.629735)">
      <path
         d="m 96.160004,188.16 2.079994,1.28 -1.599999,1.12 z"
         style="fill:#000000;fill-opacity:1;fill-rule:evenodd;stroke:none"
         id="path16500" />
    </g>
    <g
       id="g16502"
       transform="matrix(0.26458333,0,0,0.26458333,55.220225,136.7684)">
      <path
         d="m 0,0 c -0.16,-1.76 -0.8,-3.68 -2.08,-5.12 m 0,0 2.08,1.28 -1.6,1.12 z"
         style="fill:none;stroke:#000000;stroke-width:0.48;stroke-linecap:butt;stroke-linejoin:miter;stroke-miterlimit:2;stroke-dasharray:none;stroke-opacity:1"
         id="path16504" />
    </g>
    <g
       id="g16506"
       transform="matrix(0.00322977,0,0,0.00322977,29.227559,85.629735)">
      <text
         xml:space="preserve"
         transform="translate(8060.96,15518.9)"
         style="font-variant:normal;font-weight:normal;font-size:327.68px;font-family:F4;-inkscape-font-specification:F4;writing-mode:lr-tb;fill:#ff0000;fill-opacity:1;fill-rule:nonzero;stroke:none"
         id="text16510"><tspan
           x="0 170.3936 314.57278"
           y="0"
           sodipodi:role="line"
           id="tspan16508">2x4</tspan></text>
    </g>
    <g
       id="g16512"
       transform="matrix(0.26458333,0,0,0.26458333,29.227559,85.629735)">
      <path
         d="M 99.839996,198.24 101.92,196.96001 100.16,195.84 Z"
         style="fill:#000000;fill-opacity:1;fill-rule:evenodd;stroke:none"
         id="path16514" />
    </g>
    <g
       id="g16516"
       transform="matrix(0.26458333,0,0,0.26458333,56.193892,136.72607)">
      <path
         d="m 0,0 c -0.16,1.76 -0.8,3.68 -2.08,5.12 m 0,0 L 0,3.84 -1.76,2.72 Z"
         style="fill:none;stroke:#000000;stroke-width:0.48;stroke-linecap:butt;stroke-linejoin:miter;stroke-miterlimit:2;stroke-dasharray:none;stroke-opacity:1"
         id="path16518" />
    </g>
  </g>
</svg>
