<?xml version="1.0" encoding="UTF-8" standalone="no"?>
<!-- Created with Inkscape (http://www.inkscape.org/) -->

<svg
   width="4.515399mm"
   height="16.509998mm"
   viewBox="0 0 4.515399 16.509998"
   version="1.1"
   id="svg19836"
   inkscape:version="1.2.2 (732a01da63, 2022-12-09)"
   sodipodi:docname="1.svg"
   xmlns:inkscape="http://www.inkscape.org/namespaces/inkscape"
   xmlns:sodipodi="http://sodipodi.sourceforge.net/DTD/sodipodi-0.dtd"
   xmlns="http://www.w3.org/2000/svg"
   xmlns:svg="http://www.w3.org/2000/svg">
  <sodipodi:namedview
     id="namedview19838"
     pagecolor="#ffffff"
     bordercolor="#000000"
     borderopacity="0.25"
     inkscape:showpageshadow="2"
     inkscape:pageopacity="0.0"
     inkscape:pagecheckerboard="0"
     inkscape:deskcolor="#d1d1d1"
     inkscape:document-units="mm"
     showgrid="false"
     inkscape:zoom="0.74564394"
     inkscape:cx="124.72441"
     inkscape:cy="-77.785116"
     inkscape:window-width="1920"
     inkscape:window-height="1017"
     inkscape:window-x="-8"
     inkscape:window-y="-8"
     inkscape:window-maximized="1"
     inkscape:current-layer="layer1" />
  <defs
     id="defs19833" />
  <g
     inkscape:label="Layer 1"
     inkscape:groupmode="layer"
     id="layer1"
     transform="translate(-71.903597,-169.16436)">
    <g
       id="g16520"
       transform="matrix(0.26458333,0,0,0.26458333,73.046597,175.68369)">
      <path
         d="M 0,0 H 2.88 L 3.2,-0.16 3.36,-0.48 3.2,-0.8 2.88,-0.96 H 0 l -0.32,0.16 -0.16,0.32 0.16,0.32 z m 5.76,0 h 2.08 l 0.32,-0.16 0.16,-0.32 v -0.8 L 8.16,-1.6 7.84,-1.76 7.52,-1.6 7.36,-1.28 v 0.8 L 7.84,-0.96 H 5.76 L 5.44,-0.8 5.28,-0.48 5.44,-0.16 Z M 8.32,-4.16 V -7.04 L 8.16,-7.36 7.84,-7.52 7.52,-7.36 7.36,-7.04 v 2.88 l 0.16,0.48 h 0.32 0.32 z m 0,-5.76 v -2.88 l -0.16,-0.32 -0.32,-0.16 -0.32,0.16 -0.16,0.32 v 2.88 l 0.16,0.48 h 0.32 0.32 z m 0,-5.76 v -2.879999 l -0.16,-0.32 -0.32,-0.160002 -0.32,0.160002 -0.16,0.32 V -15.68 l 0.16,0.48 h 0.32 0.32 z m 0,-5.760001 V -24.16 L 8.16,-24.48 7.84,-24.639999 7.52,-24.48 7.36,-24.16 v 2.719999 l 0.16,0.480002 h 0.32 0.32 z m -0.48,54.4 H 4.96 l -0.32,0.16 -0.16,0.32 0.16,0.479999 h 0.32 2.88 0.32 l 0.16,-0.479999 -0.16,-0.32 z m -5.76,0 H 0 l -0.32,0.16 -0.16,0.32 0.16,0.479999 H 0 2.08 2.4 l 0.16,-0.479999 -0.16,-0.32 z"
         style="fill:#ff0000;fill-opacity:1;fill-rule:nonzero;stroke:none"
         id="path16522" />
    </g>
    <g
       id="g16524"
       transform="matrix(0.26458333,0,0,0.26458333,73.046597,175.55669)">
      <path
         d="m 0,0 c 0,1.12 -0.96,1.92 -1.92,1.92 -1.12,0 -1.92,-0.8 -1.92,-1.92 0,-0.96 0.8,-1.92 1.92,-1.92 C -0.96,-1.92 0,-0.96 0,0 Z"
         style="fill:#000000;fill-opacity:1;fill-rule:evenodd;stroke:none"
         id="path16526" />
    </g>
    <g
       id="g16528"
       transform="matrix(0.26458333,0,0,0.26458333,73.046597,175.55669)">
      <path
         d="m 0,0 c 0,1.12 -0.96,1.92 -1.92,1.92 -1.12,0 -1.92,-0.8 -1.92,-1.92 0,-0.96 0.8,-1.92 1.92,-1.92 C -0.96,-1.92 0,-0.96 0,0 Z M 0,37.759998 V 30.24 M 7.84,0 v 33.919998 m 0,-57.599998 -1.6,3.2"
         style="fill:none;stroke:#000000;stroke-width:0.96;stroke-linecap:round;stroke-linejoin:round;stroke-miterlimit:10;stroke-dasharray:none;stroke-opacity:1"
         id="path16530" />
    </g>
    <g
       id="g16532"
       transform="matrix(0.26458333,0,0,0.26458333,44.937264,110.23636)">
      <path
         d="m 118.08,236 -1.12,-1.60001 -0.64,1.28 z"
         style="fill:#000000;fill-opacity:1;fill-rule:evenodd;stroke:none"
         id="path16534" />
    </g>
    <g
       id="g16536"
       transform="matrix(0.26458333,0,0,0.26458333,74.274264,172.55103)">
      <path
         d="m 0,0 c 0.96,-0.64 2.08,-1.12 3.2,-1.12 1.44,0.16 2.88,0.64 4,1.6 m 0,0 -1.12,-1.6 -0.64,1.28 z"
         style="fill:none;stroke:#000000;stroke-width:0.48;stroke-linecap:butt;stroke-linejoin:miter;stroke-miterlimit:2;stroke-dasharray:none;stroke-opacity:1"
         id="path16538" />
    </g>
    <g
       id="g16540"
       transform="matrix(0.00322977,0,0,0.00322977,44.937264,110.23636)">
      <text
         xml:space="preserve"
         transform="translate(9594.4004,19634.6)"
         style="font-variant:normal;font-weight:normal;font-size:327.68px;font-family:F4;-inkscape-font-specification:F4;writing-mode:lr-tb;fill:#ff0000;fill-opacity:1;fill-rule:nonzero;stroke:none"
         id="text16544"><tspan
           x="0"
           y="0"
           id="tspan16542">4</tspan></text>
    </g>
  </g>
</svg>
