<?xml version="1.0" encoding="UTF-8" standalone="no"?>
<!-- Created with Inkscape (http://www.inkscape.org/) -->

<svg
   width="19.049999mm"
   height="16.788517mm"
   viewBox="0 0 19.049999 16.788517"
   version="1.1"
   id="svg19944"
   inkscape:version="1.2.2 (732a01da63, 2022-12-09)"
   sodipodi:docname="2.svg"
   xmlns:inkscape="http://www.inkscape.org/namespaces/inkscape"
   xmlns:sodipodi="http://sodipodi.sourceforge.net/DTD/sodipodi-0.dtd"
   xmlns="http://www.w3.org/2000/svg"
   xmlns:svg="http://www.w3.org/2000/svg">
  <sodipodi:namedview
     id="namedview19946"
     pagecolor="#ffffff"
     bordercolor="#000000"
     borderopacity="0.25"
     inkscape:showpageshadow="2"
     inkscape:pageopacity="0.0"
     inkscape:pagecheckerboard="0"
     inkscape:deskcolor="#d1d1d1"
     inkscape:document-units="mm"
     showgrid="false"
     inkscape:zoom="0.74564394"
     inkscape:cx="262.86005"
     inkscape:cy="-53.644907"
     inkscape:window-width="1920"
     inkscape:window-height="1017"
     inkscape:window-x="-8"
     inkscape:window-y="-8"
     inkscape:window-maximized="1"
     inkscape:current-layer="layer1" />
  <defs
     id="defs19941" />
  <g
     inkscape:label="Layer 1"
     inkscape:groupmode="layer"
     id="layer1"
     transform="translate(-35.539517,-162.99281)">
    <g
       id="g16546"
       transform="matrix(0.26458333,0,0,0.26458333,14.372852,84.869992)">
      <path
         d="m 147.67999,350.23999 h -6.71998 l -0.32001,0.16 -0.16,0.32001 0.16,0.32001 0.32001,0.16 h 6.71998 L 148,351.04001 148.16,350.72 148,350.39999 Z m -11.51999,0 h -6.72 l -0.32001,0.16 -0.15998,0.32001 0.15998,0.32001 0.32001,0.16 h 6.72 l 0.32,-0.16 0.16,-0.32001 -0.16,-0.32001 z m -11.52,0 h -6.72 l -0.32,0.16 -0.16,0.32001 0.16,0.32001 0.32,0.16 h 6.72 l 0.32,-0.16 0.16,-0.32001 -0.16,-0.32001 z m -10.56,0 h -2.24 l -2.24,-0.47998 -2.08,-0.48001 h -0.32 l -0.16,0.32001 v 0.47998 l 0.32,0.16 2.08,0.48001 2.4,0.48001 h 2.24 0.32 l 0.16,-0.48001 -0.16,-0.32001 z m -10.72,-2.72 -1.6,-0.95999 -1.6,-1.28 -1.600002,-1.44 -0.479996,-0.48001 -0.32,-0.15998 -0.32,0.15998 -0.160003,0.32 0.160003,0.32001 0.479996,0.64001 1.599999,1.43998 1.760003,1.28 1.6,0.96002 h 0.32 l 0.32,-0.16001 v -0.48001 z m -7.999999,-7.84 -0.64,-0.95999 -0.800003,-1.76001 -0.799995,-2.07999 -0.32,-1.27999 L 92.639999,333.28 H 92.160004 L 92,333.44 l -0.160004,0.48001 0.320008,1.28 0.799995,2.07999 0.959999,2.07999 0.64,0.80001 0.160003,0.16001 h 0.479996 L 95.360001,340 Z m -3.199997,-10.72 v -0.63998 L 92.32,326.07999 92.639999,324 l 0.32,-1.60001 v -0.32 l -0.32,-0.15998 H 92.32 l -0.32,0.31998 -0.32,1.60001 -0.319999,2.23999 -0.160004,2.24002 v 0.63998 l 0.160004,0.32001 0.319999,0.16 0.480004,-0.16 z m 2.559997,-10.88 0.159996,-0.15998 0.959999,-1.76001 1.280007,-1.76001 1.439995,-1.6 v 0 0 l 0.160003,-0.31998 -0.160003,-0.32001 -0.32,-0.16 -0.32,0.16 v 0 l -1.439995,1.60001 -1.440002,1.75998 -1.120003,1.92001 v 0.16001 l -0.159996,0.47998 0.32,0.16 0.32,0.16 z m 7.519999,-8.15998 1.44,-0.80001 1.92,-0.96 1.92,-0.80001 0.8,-0.15998 0.16,-0.16 0.16,-0.32001 -0.32,-0.32001 H 108 l -0.8,0.16001 -2.08,0.79999 -1.92,0.96002 -1.44,0.79999 -0.16,0.32 v 0.32001 l 0.32,0.16 z m 10.56,-3.36001 1.28,-0.16001 0.32,-0.16 0.16,-0.31998 -0.16,-0.32 -0.32,-0.16001 -1.28,0.16001 -0.32,0.16 -0.16,0.31998 0.16,0.32 z m 1.28,-0.16001 2.24,0.16001 2.24,0.32 2.08,0.47999 h 0.32 l 0.16,-0.31998 V 306.72 l -0.32,-0.16 -2.08,-0.63999 -2.4,-0.32 -2.24,-0.16001 -0.32,0.16001 -0.16,0.32 0.16,0.31998 z m 10.72,2.88001 1.6,0.95999 1.6,1.28 1.60001,1.44 0.47999,0.32001 0.31999,0.16 H 130.72 l 0.16,-0.32 -0.16,-0.47999 -0.48,-0.48001 -1.6,-1.44 -1.76,-1.28 -1.6,-0.95999 h -0.32 l -0.32,0.16 v 0.31998 z m 8,7.84 0.64,0.80001 0.8,1.91999 0.79999,2.08001 0.32001,1.28 0.16,0.15998 0.48,0.16 0.16,-0.31998 0.16001,-0.32001 -0.48001,-1.27999 -0.64,-2.08002 -0.96,-2.07999 -0.63999,-0.79999 -0.16001,-0.32 -0.47999,0.16 -0.16001,0.16 z m 3.2,10.72 v 0.48001 l -0.16,2.23999 -0.32,2.23999 -0.32,1.44 V 334.56 l 0.32,0.32 h 0.32 l 0.32,-0.32 0.32,-1.60001 0.32,-2.23999 0.16001,-2.39999 v -0.64002 l -0.16001,-0.32 -0.32,-0.15998 -0.32,0.15998 z m -2.56,10.88 -0.16,0.16 -0.95999,1.76001 -1.28002,1.75998 -1.43998,1.44001 v 0 0 l -0.16001,0.32 0.16001,0.32001 0.31999,0.16 h 0.32 v -0.16 l 1.43999,-1.60001 1.44,-1.76 1.12001,-1.91999 v -0.16 L 134.39999,338.72 134.08,338.39999 h -0.32001 z m -7.52,8.16 -1.44,0.79999 -1.92,0.96002 -1.92,0.63999 -0.8,0.16 -0.16,0.32001 -0.16,0.31998 0.32,0.32 h 0.32 l 0.8,-0.16 2.08,-0.79999 1.92,-0.95999 1.44,-0.80002 0.16,-0.32 v -0.31998 L 126.24,346.72 Z m -10.56,3.35999 h -1.28 l -0.32,0.16 -0.16,0.32001 0.16,0.48001 h 0.32 1.28 l 0.32,-0.16 0.16,-0.32001 -0.16,-0.32001 z m -1.28,0 h -6.72 l -0.32,0.16 -0.16,0.32001 0.16,0.32001 0.32,0.16 h 6.72 l 0.32,-0.16 0.16,-0.32001 -0.16,-0.32001 z m -11.52,0 h -6.720004 l -0.319999,0.16 -0.159996,0.32001 0.159996,0.32001 0.319999,0.16 H 102.56 l 0.32,-0.16 0.16,-0.32001 -0.16,-0.32001 z m -11.519999,0 H 84.32 L 84,350.39999 83.839996,350.72 84,351.04001 l 0.32,0.16 h 6.720001 l 0.32,-0.16 0.159996,-0.32001 -0.159996,-0.32001 z"
         style="fill:#ff0000;fill-opacity:1;fill-rule:nonzero;stroke:none"
         id="path16548" />
    </g>
    <g
       id="g16550"
       transform="matrix(0.26458333,0,0,0.26458333,14.372852,84.869992)">
      <path
         d="M 96.160004,310.39999 100.64,314.88 M 132,310.39999 127.52,314.88"
         style="fill:none;stroke:#000000;stroke-width:0.96;stroke-linecap:round;stroke-linejoin:round;stroke-miterlimit:10;stroke-dasharray:none;stroke-opacity:1"
         id="path16552" />
    </g>
    <g
       id="g16554"
       transform="matrix(0.26458333,0,0,0.26458333,53.446516,177.66466)">
      <path
         d="m 0,0 c 0,-0.96 0.8,-1.92 1.92,-1.92 0.96,0 1.92,0.96 1.92,1.92 0,1.12 -0.96,1.92 -1.92,1.92 C 0.8,1.92 0,1.12 0,0 Z"
         style="fill:#000000;fill-opacity:1;fill-rule:evenodd;stroke:none"
         id="path16556" />
    </g>
    <g
       id="g16558"
       transform="matrix(0.26458333,0,0,0.26458333,53.446516,177.66466)">
      <path
         d="m 0,0 c 0,-0.96 0.8,-1.92 1.92,-1.92 0.96,0 1.92,0.96 1.92,1.92 0,1.12 -0.96,1.92 -1.92,1.92 C 0.8,1.92 0,1.12 0,0 Z M -67.199997,7.52 V -7.52"
         style="fill:none;stroke:#000000;stroke-width:0.96;stroke-linecap:round;stroke-linejoin:round;stroke-miterlimit:10;stroke-dasharray:none;stroke-opacity:1"
         id="path16560" />
    </g>
    <g
       id="g16562"
       transform="matrix(0.26458333,0,0,0.26458333,14.372852,84.869992)">
      <path
         d="m 111.36,297.44 3.36,2.07999 L 112,301.28 Z"
         style="fill:#000000;fill-opacity:1;fill-rule:evenodd;stroke:none"
         id="path16564" />
    </g>
    <g
       id="g16566"
       transform="matrix(0.26458333,0,0,0.26458333,44.048518,167.67399)">
      <path
         d="m 0,0 c 1.6,-2.08 2.56,-4.48 2.56,-6.88 -0.16,-3.2 -1.44,-6.24 -3.36,-8.64 m 0,0 3.36,2.08 -2.72,1.76 z"
         style="fill:none;stroke:#000000;stroke-width:0.48;stroke-linecap:butt;stroke-linejoin:miter;stroke-miterlimit:2;stroke-dasharray:none;stroke-opacity:1"
         id="path16568" />
    </g>
    <g
       id="g16570"
       transform="matrix(0.00490934,0,0,0.00490934,14.372852,84.869992)">
      <text
         xml:space="preserve"
         transform="translate(5639.52,16133.9)"
         style="font-variant:normal;font-weight:normal;font-size:327.68px;font-family:F4;-inkscape-font-specification:F4;writing-mode:lr-tb;fill:#ff0000;fill-opacity:1;fill-rule:nonzero;stroke:none"
         id="text16574"><tspan
           x="0"
           y="0"
           id="tspan16572">2</tspan></text>
    </g>
  </g>
</svg>
