<?xml version="1.0" encoding="UTF-8" standalone="no"?>
<!-- Created with Inkscape (http://www.inkscape.org/) -->

<svg
   width="11.299056mm"
   height="15.451672mm"
   viewBox="0 0 11.299056 15.451672"
   version="1.1"
   id="svg20067"
   inkscape:version="1.2.2 (732a01da63, 2022-12-09)"
   sodipodi:docname="3.svg"
   xmlns:inkscape="http://www.inkscape.org/namespaces/inkscape"
   xmlns:sodipodi="http://sodipodi.sourceforge.net/DTD/sodipodi-0.dtd"
   xmlns="http://www.w3.org/2000/svg"
   xmlns:svg="http://www.w3.org/2000/svg">
  <sodipodi:namedview
     id="namedview20069"
     pagecolor="#ffffff"
     bordercolor="#000000"
     borderopacity="0.25"
     inkscape:showpageshadow="2"
     inkscape:pageopacity="0.0"
     inkscape:pagecheckerboard="0"
     inkscape:deskcolor="#d1d1d1"
     inkscape:document-units="mm"
     showgrid="false"
     inkscape:zoom="0.74564394"
     inkscape:cx="150.20574"
     inkscape:cy="-40.23368"
     inkscape:window-width="1920"
     inkscape:window-height="1017"
     inkscape:window-x="-8"
     inkscape:window-y="-8"
     inkscape:window-maximized="1"
     inkscape:current-layer="layer1" />
  <defs
     id="defs20064" />
  <g
     inkscape:label="Layer 1"
     inkscape:groupmode="layer"
     id="layer1"
     transform="translate(-65.3182,-159.4032)">
    <g
       id="g16576"
       transform="matrix(0.26458333,0,0,0.26458333,40.633926,62.332866)">
      <path
         d="M 131.67999,404.16 H 128.8 l -0.32,0.16001 -0.15999,0.32 0.15999,0.47999 h 0.32 2.87999 H 132 l 0.16,-0.47999 -0.16,-0.32 z m -5.75999,0 h -2.88 l -0.32,0.16001 -0.16,0.32 0.16,0.47999 h 0.32 2.88 0.32 l 0.16,-0.47999 -0.16,-0.32 z m -5.76,0 h -2.88 l -0.32,0.16001 -0.16,0.32 0.16,0.47999 h 0.32 2.88 0.32 l 0.16,-0.47999 -0.16,-0.32 z m -5.76,0 h -2.88 l -0.32,0.16001 -0.16,0.32 0.16,0.47999 h 0.32 2.88 0.32 l 0.16,-0.47999 -0.16,-0.32 z m -5.76,0 h -2.88 l -0.32,0.16001 -0.16,0.32 0.16,0.47999 h 0.32 2.88 0.32 l 0.16,-0.47999 -0.16,-0.32 z m -4.48,0.48001 v -2.88 L 104,401.44 l -0.32,-0.16 -0.48,0.16 v 0.32001 2.88 0.47999 h 0.48 0.32 z m 0,-5.76001 V 396 l -0.16,-0.32001 -0.32,-0.16 -0.48,0.16 V 396 v 2.88 0.47999 h 0.48 0.32 z m 0,-5.76 v -2.88001 l -0.16,-0.31998 -0.32,-0.16 -0.48,0.16 v 0.31998 2.88001 0.48001 h 0.48 0.32 z m 0,-5.76001 v -2.87998 L 104,384.16 103.68,384 l -0.48,0.16 v 0.32001 2.87998 0.48001 h 0.48 0.32 z m 0,-5.75998 V 378.72 l -0.16,-0.32001 -0.32,-0.16 -0.48,0.16 v 0.32001 2.88001 0.47998 h 0.48 0.32 z m 0,-4.96 v -0.96002 l 0.16,-0.79999 0.16,-0.95999 v 0 -0.32 l -0.32,-0.32001 -0.32,0.16 -0.32,0.16001 v 0.16 l -0.16,0.95999 -0.16,0.95999 v 0.96002 0.31998 l 0.32,0.16001 0.48,-0.16001 z m 1.6,-5.12002 0.32,-0.47998 0.64,-0.64002 0.64,-0.63998 0.32,-0.16 0.16,-0.32001 -0.16,-0.32001 -0.32,-0.31998 -0.32,0.15998 -0.32,0.32001 -0.8,0.64001 -0.48,0.63998 -0.48,0.48001 -0.16,0.47999 0.32,0.32 h 0.32 z m 4.32,-3.19998 0.32,-0.16001 0.8,-0.16 0.96,-0.16 h 0.48 l 0.48,-0.16001 v -0.47998 L 112.96,366.88 H 112.64 112 l -1.12,0.16001 -0.8,0.16 -0.32,0.15998 -0.32,0.32 V 368 l 0.16,0.32001 z m 5.28,-0.16001 h 0.32 l 0.8,0.32001 0.8,0.31998 0.64,0.48001 h 0.32 l 0.32,-0.16 v -0.32001 L 118.4,368.48001 117.6,368 l -0.8,-0.48001 -0.96,-0.31998 h -0.16 -0.32 l -0.32,0.31998 V 367.84 Z m 4.48,2.88001 0.48,0.63998 0.48,0.80002 0.32,0.79999 0.16,0.16 0.16,0.32001 h 0.48 l 0.16,-0.32001 v -0.32 -0.32001 L 121.6,372 l -0.48,-0.79999 -0.48,-0.80002 -0.32,-0.16 -0.32,0.16 -0.16,0.32001 z m 1.92,4.95999 0.16,0.64001 0.16,0.31998 0.32,0.16001 0.32,-0.16001 0.16,-0.31998 -0.16,-0.64001 -0.16,-0.32001 -0.32,-0.16 -0.32,0.16 z m 0.16,0.64001 v 2.87998 0.32001 l 0.48,0.16 0.32,-0.16 0.16,-0.32001 v -2.87998 l -0.16,-0.32 -0.32,-0.16001 -0.48,0.16001 z m 0,5.75998 v 2.88001 0.32001 l 0.48,0.16 0.32,-0.16 0.16,-0.32001 v -2.88001 l -0.16,-0.32 -0.32,-0.15998 -0.48,0.15998 z m 0,5.76001 v 2.88001 0.31998 l 0.48,0.16 0.32,-0.16 0.16,-0.31998 V 388.16 l -0.16,-0.32 -0.32,-0.16001 -0.48,0.16001 z m 0,5.76001 v 2.87998 0.32001 l 0.48,0.16 0.32,-0.16 0.16,-0.32001 v -2.87998 l -0.16,-0.32 -0.32,-0.16001 -0.48,0.16001 z m 0,5.75998 v 2.88001 0.32 l 0.48,0.16001 0.32,-0.16001 0.16,-0.32 v -2.88001 l -0.16,-0.32 -0.32,-0.15998 -0.48,0.15998 z m 0,5.76001 v 2.88001 0.32 l 0.48,0.15998 0.32,-0.15998 0.16,-0.32 V 405.44 l -0.16,-0.32 -0.32,-0.16001 -0.48,0.16001 z m 0,5.76001 v 2.87998 0.32 l 0.48,0.16001 0.32,-0.16001 0.16,-0.32 v -2.87998 l -0.16,-0.32001 -0.32,-0.16 -0.48,0.16 z"
         style="fill:#ff0000;fill-opacity:1;fill-rule:nonzero;stroke:none"
         id="path16578" />
    </g>
    <g
       id="g16580"
       transform="matrix(0.26458333,0,0,0.26458333,75.474256,169.39387)">
      <path
         d="m 0,0 c 0,-0.96 0.8,-1.76 1.92,-1.76 0.96,0 1.92,0.8 1.92,1.76 0,1.12 -0.96,1.92 -1.92,1.92 C 0.8,1.92 0,1.12 0,0 Z"
         style="fill:#000000;fill-opacity:1;fill-rule:evenodd;stroke:none"
         id="path16582" />
    </g>
    <g
       id="g16584"
       transform="matrix(0.26458333,0,0,0.26458333,75.474256,169.39387)">
      <path
         d="m 0,0 c 0,-0.96 0.8,-1.76 1.92,-1.76 0.96,0 1.92,0.8 1.92,1.76 0,1.12 -0.96,1.92 -1.92,1.92 C 0.8,1.92 0,1.12 0,0 Z m -24.639999,20.16 h 7.519998 M -9.44,9.44 -20.959999,20.16"
         style="fill:none;stroke:#000000;stroke-width:0.96;stroke-linecap:round;stroke-linejoin:round;stroke-miterlimit:10;stroke-dasharray:none;stroke-opacity:1"
         id="path16586" />
    </g>
    <g
       id="g16588"
       transform="matrix(0.26458333,0,0,0.26458333,40.633926,62.332866)">
      <path
         d="m 129.44,387.35999 -1.76,2.88 L 126.24,388 Z"
         style="fill:#000000;fill-opacity:1;fill-rule:evenodd;stroke:none"
         id="path16590" />
    </g>
    <g
       id="g16592"
       transform="matrix(0.26458333,0,0,0.26458333,72.976592,165.58386)">
      <path
         d="m 0,0 c 2.72,-0.16 5.28,-1.12 7.2,-2.88 m 0,0 L 5.44,0 4,-2.24 Z"
         style="fill:none;stroke:#000000;stroke-width:0.48;stroke-linecap:butt;stroke-linejoin:miter;stroke-miterlimit:2;stroke-dasharray:none;stroke-opacity:1"
         id="path16594" />
    </g>
    <g
       id="g16596"
       transform="matrix(0.00413411,0,0,0.00413411,40.633926,62.332866)">
      <text
         xml:space="preserve"
         transform="translate(8058.8799,25354.199)"
         style="font-variant:normal;font-weight:normal;font-size:327.68px;font-family:F4;-inkscape-font-specification:F4;writing-mode:lr-tb;fill:#ff0000;fill-opacity:1;fill-rule:nonzero;stroke:none"
         id="text16600"><tspan
           x="0 163.84 308.0192"
           y="0"
           sodipodi:role="line"
           id="tspan16598">2x4</tspan></text>
    </g>
    <g
       id="g16602"
       transform="matrix(0.26458333,0,0,0.26458333,40.633926,62.332866)">
      <path
         d="m 96.480003,389.28 1.759995,-2.88001 1.440002,2.4 z"
         style="fill:#000000;fill-opacity:1;fill-rule:evenodd;stroke:none"
         id="path16604" />
    </g>
    <g
       id="g16606"
       transform="matrix(0.26458333,0,0,0.26458333,68.065926,164.56786)">
      <path
         d="m 0,0 c -2.72,0.16 -5.12,1.28 -7.2,2.88 m 0,0 L -5.44,0 -4,2.4 Z"
         style="fill:none;stroke:#000000;stroke-width:0.48;stroke-linecap:butt;stroke-linejoin:miter;stroke-miterlimit:2;stroke-dasharray:none;stroke-opacity:1"
         id="path16608" />
    </g>
    <g
       id="g16610"
       transform="matrix(0.00413411,0,0,0.00413411,40.633926,62.332866)">
      <text
         xml:space="preserve"
         transform="translate(5949.4399,25292.801)"
         style="font-variant:normal;font-weight:normal;font-size:327.68px;font-family:F4;-inkscape-font-specification:F4;writing-mode:lr-tb;fill:#ff0000;fill-opacity:1;fill-rule:nonzero;stroke:none"
         id="text16614"><tspan
           x="0 163.84 298.18878"
           y="0"
           sodipodi:role="line"
           id="tspan16612">3/4</tspan></text>
    </g>
  </g>
</svg>
