<?xml version="1.0" encoding="UTF-8" standalone="no"?>
<!-- Created with Inkscape (http://www.inkscape.org/) -->

<svg
   width="18.725565mm"
   height="12.954mm"
   viewBox="0 0 18.725565 12.954"
   version="1.1"
   id="svg20214"
   inkscape:version="1.2.2 (732a01da63, 2022-12-09)"
   sodipodi:docname="4.svg"
   xmlns:inkscape="http://www.inkscape.org/namespaces/inkscape"
   xmlns:sodipodi="http://sodipodi.sourceforge.net/DTD/sodipodi-0.dtd"
   xmlns="http://www.w3.org/2000/svg"
   xmlns:svg="http://www.w3.org/2000/svg">
  <sodipodi:namedview
     id="namedview20216"
     pagecolor="#ffffff"
     bordercolor="#000000"
     borderopacity="0.25"
     inkscape:showpageshadow="2"
     inkscape:pageopacity="0.0"
     inkscape:pagecheckerboard="0"
     inkscape:deskcolor="#d1d1d1"
     inkscape:document-units="mm"
     showgrid="false"
     inkscape:zoom="0.76880612"
     inkscape:cx="118.36534"
     inkscape:cy="5.2028722"
     inkscape:window-width="1920"
     inkscape:window-height="1017"
     inkscape:window-x="-8"
     inkscape:window-y="-8"
     inkscape:window-maximized="1"
     inkscape:current-layer="layer1" />
  <defs
     id="defs20211" />
  <g
     inkscape:label="Layer 1"
     inkscape:groupmode="layer"
     id="layer1"
     transform="translate(-73.57696,-147.01315)">
    <g
       id="g16616"
       transform="matrix(0.26458333,0,0,0.26458333,76.300525,147.22482)">
      <path
         d="M 0,0 1.92,1.92 2.4,2.08 2.72,1.92 2.88,1.6 2.72,1.28 0.64,-0.8 H 0 l -0.16,0.48 z M 4,4 6.08,6.08 6.4,6.24 6.72,6.08 V 5.44 L 4.64,3.36 4.32,3.2 4,3.36 3.84,3.68 Z m 4.16,4.16 1.92,1.92 0.32,0.16 0.48,-0.16 V 9.44 L 8.8,7.36 8.48,7.2 8.16,7.36 8,7.84 Z m 4,4 2.08,2.08 h 0.64 L 15.04,13.92 14.88,13.6 12.8,11.52 12.48,11.36 12.16,11.52 12,11.84 Z m 4,4.16 2.08,1.92 h 0.639999 l 0.160002,-0.32 -0.160002,-0.32 -1.92,-2.08 -0.32,-0.16 L 16.16,15.52 Z m 4.16,4 2.08,2.08 0.319999,0.159999 0.320002,-0.159999 0.16,-0.32 -0.16,-0.48 -2.080002,-1.92 H 20.32 L 20.16,20 Z m 4,4 1.44,1.44 0.32,0.16 0.32,-0.16 V 24.959999 L 25.120001,23.68 H 24.32 L 24.16,24 Z"
         style="fill:#ff0000;fill-opacity:1;fill-rule:nonzero;stroke:none"
         id="path16618" />
    </g>
    <g
       id="g16620"
       transform="matrix(0.26458333,0,0,0.26458333,79.221526,154.25215)">
      <path
         d="m 0,0 c -0.8,-0.64 -0.8,-1.92 -0.16,-2.72 0.8,-0.8 1.92,-0.8 2.72,-0.16 0.8,0.8 0.8,1.92 0.16,2.72 C 1.92,0.64 0.8,0.64 0,0 Z"
         style="fill:#000000;fill-opacity:1;fill-rule:evenodd;stroke:none"
         id="path16622" />
    </g>
    <g
       id="g16624"
       transform="matrix(0.26458333,0,0,0.26458333,79.221526,154.25215)">
      <path
         d="m 0,0 c -0.8,-0.64 -0.8,-1.92 -0.16,-2.72 0.8,-0.8 1.92,-0.8 2.72,-0.16 0.8,0.8 0.8,1.92 0.16,2.72 C 1.92,0.64 0.8,0.64 0,0 Z M 48.959999,21.120001 V 13.6 M 0,0 -10.72,12 m 0,0 V -26.879999 M 15.04,-1.28 33.759998,17.440001 m 0,0 15.200001,-0.16"
         style="fill:none;stroke:#000000;stroke-width:0.96;stroke-linecap:round;stroke-linejoin:round;stroke-miterlimit:10;stroke-dasharray:none;stroke-opacity:1"
         id="path16626" />
    </g>
    <g
       id="g16628"
       transform="matrix(0.26458333,0,0,0.26458333,53.101859,29.157155)">
      <path
         d="m 80.480003,468.32001 1.919999,-3.04001 1.439994,2.39999 z"
         style="fill:#000000;fill-opacity:1;fill-rule:evenodd;stroke:none"
         id="path16630" />
    </g>
    <g
       id="g16632"
       transform="matrix(0.26458333,0,0,0.26458333,76.385192,152.26249)">
      <path
         d="m 0,0 c -2.72,0.16 -5.44,1.28 -7.52,3.04 m 0,0 L -5.6,0 -4.16,2.4 Z"
         style="fill:none;stroke:#000000;stroke-width:0.48;stroke-linecap:butt;stroke-linejoin:miter;stroke-miterlimit:2;stroke-dasharray:none;stroke-opacity:1"
         id="path16634" />
    </g>
    <g
       id="g16636"
       transform="matrix(0.00426323,0,0,0.00426323,53.101859,29.157155)">
      <text
         xml:space="preserve"
         transform="translate(4766.2402,29441.6)"
         style="font-variant:normal;font-weight:normal;font-size:327.68px;font-family:F4;-inkscape-font-specification:F4;writing-mode:lr-tb;fill:#ff0000;fill-opacity:1;fill-rule:nonzero;stroke:none"
         id="text16640"><tspan
           x="0 157.28639 308.0192"
           y="0"
           sodipodi:role="line"
           id="tspan16638">1/4</tspan></text>
    </g>
    <g
       id="g16642"
       transform="matrix(0.26458333,0,0,0.26458333,83.327859,151.37349)">
      <path
         d="M 0,0 0.8,3.52 -1.92,2.88 Z M 2.72,2.72 3.52,6.08 0.64,5.44 Z"
         style="fill:#000000;fill-opacity:1;fill-rule:evenodd;stroke:none"
         id="path16644" />
    </g>
    <g
       id="g16646"
       transform="matrix(0.26458333,0,0,0.26458333,80.957192,154.04049)">
      <path
         d="m 0,0 c 2.24,-0.16 4.16,-1.12 5.76,-2.72 1.92,-1.92 3.04,-4.64 3.2,-7.36 M 8.48,0 c 1.76,-2.08 2.88,-4.64 3.2,-7.36 m -2.72,-2.72 0.8,3.52 -2.72,-0.64 z m 2.72,2.72 0.8,3.36 -2.88,-0.64 z"
         style="fill:none;stroke:#000000;stroke-width:0.48;stroke-linecap:butt;stroke-linejoin:miter;stroke-miterlimit:2;stroke-dasharray:none;stroke-opacity:1"
         id="path16648" />
    </g>
    <g
       id="g16650"
       transform="matrix(0.26458333,0,0,0.26458333,53.101859,29.157155)">
      <path
         d="m 114.24,460.95999 3.68,3.68002"
         style="fill:none;stroke:#000000;stroke-width:0.48;stroke-linecap:round;stroke-linejoin:round;stroke-miterlimit:10;stroke-dasharray:none;stroke-opacity:1"
         id="path16652" />
    </g>
  </g>
</svg>
