<?xml version="1.0" encoding="UTF-8" standalone="no"?>
<!-- Created with Inkscape (http://www.inkscape.org/) -->

<svg
   width="11.387668mm"
   height="11.726333mm"
   viewBox="0 0 11.387668 11.726333"
   version="1.1"
   id="svg20363"
   inkscape:version="1.2.2 (732a01da63, 2022-12-09)"
   sodipodi:docname="5.svg"
   xmlns:inkscape="http://www.inkscape.org/namespaces/inkscape"
   xmlns:sodipodi="http://sodipodi.sourceforge.net/DTD/sodipodi-0.dtd"
   xmlns="http://www.w3.org/2000/svg"
   xmlns:svg="http://www.w3.org/2000/svg">
  <sodipodi:namedview
     id="namedview20365"
     pagecolor="#ffffff"
     bordercolor="#000000"
     borderopacity="0.25"
     inkscape:showpageshadow="2"
     inkscape:pageopacity="0.0"
     inkscape:pagecheckerboard="0"
     inkscape:deskcolor="#d1d1d1"
     inkscape:document-units="mm"
     showgrid="false"
     inkscape:zoom="0.76880612"
     inkscape:cx="78.043084"
     inkscape:cy="7.8043084"
     inkscape:window-width="1920"
     inkscape:window-height="1017"
     inkscape:window-x="-8"
     inkscape:window-y="-8"
     inkscape:window-maximized="1"
     inkscape:current-layer="layer1" />
  <defs
     id="defs20360" />
  <g
     inkscape:label="Layer 1"
     inkscape:groupmode="layer"
     id="layer1"
     transform="translate(-84.473026,-146.25039)">
    <g
       id="g16654"
       transform="matrix(0.26458333,0,0,0.26458333,95.522027,157.46872)">
      <path
         d="m 0,0 -2.08,-2.08 -0.16,-0.32 0.16,-0.32 0.32,-0.16 0.32,0.16 L 0.64,-0.8 0.8,-0.32 0.64,0 0.32,0.16 Z m -4,-4.16 -2.08,-1.92 -0.16,-0.48 0.16,-0.32 0.32,-0.16 0.32,0.16 2.08,2.08 v 0.64 z m -4.16,-4 -2.08,-2.08 -0.16,-0.32 0.16,-0.32 0.48,-0.16 0.32,0.16 1.92,2.08 v 0.64 z m -4,-4.16 -2.08,-1.92 -0.16,-0.32 0.16,-0.48 0.32,-0.16 0.32,0.16 2.08,2.08 0.16,0.32 -0.16,0.32 -0.32,0.16 z m -4.16,-4 -2.08,-2.08 v -0.640001 h 0.8 l 1.92,2.080002 0.16,0.32 -0.16,0.319999 -0.32,0.16 z m -4,-4.16 -2.08,-1.92 v -0.800001 h 0.64 l 2.08,2.08 0.16,0.320002 -0.16,0.319999 -0.32,0.16 z m -4.16,-4 -1.92,-2.079999 -0.159999,-0.32 0.159999,-0.320002 0.32,-0.16 0.32,0.16 1.92,2.08 0.16,0.320002 -0.16,0.319999 -0.32,0.16 z m -4,-4 -2.079999,-2.079999 -0.16,-0.32 0.16,-0.320002 0.319999,-0.16 0.32,0.16 2.08,1.92 V -28.48 Z m -4.159999,-4.159999 -1.920002,-2.080002 -0.16,-0.32 0.16,-0.32 0.319999,-0.159999 0.320004,0.159999 2.079998,2.080002 v 0.64 z m -4,-4 -1.119999,-1.119999 -0.16,-0.480004 0.16,-0.319999 0.319999,-0.16 0.32,0.16 1.119999,1.120002 0.16,0.48 -0.16,0.32 -0.32,0.159999 z"
         style="fill:#ff0000;fill-opacity:1;fill-rule:nonzero;stroke:none"
         id="path16656" />
    </g>
    <g
       id="g16658"
       transform="matrix(0.26458333,0,0,0.26458333,85.616026,157.38406)">
      <path
         d="m 0,0 c 0,-1.12 -0.8,-1.92 -1.92,-1.92 -0.96,0 -1.92,0.8 -1.92,1.92 0,0.96 0.96,1.76 1.92,1.76 C -0.8,1.76 0,0.96 0,0 Z"
         style="fill:#000000;fill-opacity:1;fill-rule:evenodd;stroke:none"
         id="path16660" />
    </g>
    <g
       id="g16662"
       transform="matrix(0.26458333,0,0,0.26458333,85.616026,157.38406)">
      <path
         d="m 0,0 c 0,-1.12 -0.8,-1.92 -1.92,-1.92 -0.96,0 -1.92,0.8 -1.92,1.92 0,0.96 0.96,1.76 1.92,1.76 C -0.8,1.76 0,0.96 0,0 Z m 37.759998,-34.080002 v -7.519996 M 0,0 H 37.759998 M 0,-37.919998 h 37.759998"
         style="fill:none;stroke:#000000;stroke-width:0.96;stroke-linecap:round;stroke-linejoin:round;stroke-miterlimit:10;stroke-dasharray:none;stroke-opacity:1"
         id="path16664" />
    </g>
    <g
       id="g16666"
       transform="matrix(0.26458333,0,0,0.26458333,60.427694,9.4713975)">
      <path
         d="m 125.12,537.91998 -4.32,-0.95996 0.8,3.51996 z"
         style="fill:#000000;fill-opacity:1;fill-rule:evenodd;stroke:none"
         id="path16668" />
    </g>
    <g
       id="g16670"
       transform="matrix(0.26458333,0,0,0.26458333,91.077027,152.85439)">
      <path
         d="m 0,0 c 2.56,-2.24 5.92,-3.68 9.28,-4 m 0,0 -4.32,-0.96 0.8,3.52 z"
         style="fill:none;stroke:#000000;stroke-width:0.48;stroke-linecap:butt;stroke-linejoin:miter;stroke-miterlimit:2;stroke-dasharray:none;stroke-opacity:1"
         id="path16672" />
    </g>
    <g
       id="g16674"
       transform="matrix(0.26458333,0,0,0.26458333,94.16736,153.32006)">
      <path
         d="m 0,0 c 0,0 -0.16,0 -0.16,0.16 0,0 0,0 0,0 0,0 0,0.16 0,0.16 0,0 0,0 0,0 h -2.4 c 0,0 0,0 0,0 0,0 0,-0.16 0,-0.16 0,0 -0.16,0 -0.16,0 0,-0.16 0,-0.16 0,-0.16 0,-0.16 0,-0.16 0,-0.16 0,-0.16 0.16,-0.16 0.16,-0.16 0,0 0,0 0,0 0,0 0,0 0,0 h 0.8 V -3.2 l -0.64,0.48 c 0,0 -0.16,0 -0.16,0 0,0 0,0 0,0 -0.16,0 -0.16,0 -0.16,-0.16 0,0 0,0 0,-0.16 0,0 0,0 0,-0.16 0,0 0,0 0,0 0,0 0.16,0 0.16,-0.16 0,0 0,0 0,0 L -1.6,-4 c 0,0 0,0 0,0 0,0 0,0 0,0 0.16,0 0.16,0 0.16,0 0,0 0.16,0 0.16,0 0.16,0 0.16,0 0.16,0 0.16,0 0.16,0 0.16,0 0,0 0,0 0,0.16 0,0 0,0 0,0 v 3.52 h 0.8 c 0,0 0,0 0,0 0,0 0,0 0,0 0,0 0,0 0,0.16 0,0 0.16,0 0.16,0.16 z"
         style="fill:#ff0000;fill-opacity:1;fill-rule:nonzero;stroke:none"
         id="path16676" />
    </g>
    <g
       id="g16678"
       transform="matrix(0.26458333,0,0,0.26458333,94.463694,153.61639)">
      <path
         d="m 0,0 c -0.16,0 -0.16,0 -0.16,0 0,0.16 0,0.16 0,0.16 0,0 -0.16,0 -0.16,0 0,0 -0.16,0 -0.16,0 -0.16,0 -0.16,0 -0.16,0 -0.16,0 -0.16,0 -0.16,0 C -0.8,0 -0.8,0 -0.96,0 c 0,0 0,0 0.16,0 l 1.92,-5.6 c 0,0 0,0 0,0 0,0 0,0 0,0 0.16,0 0.16,0 0.16,0 0,-0.16 0.16,-0.16 0.16,-0.16 0.16,0 0.16,0 0.32,0.16 0,0 0,0 0,0 0.16,0 0.16,0 0.16,0 0,0 0,0.16 0,0.16 z"
         style="fill:#ff0000;fill-opacity:1;fill-rule:nonzero;stroke:none"
         id="path16680" />
    </g>
    <g
       id="g16682"
       transform="matrix(0.26458333,0,0,0.26458333,95.860694,153.06605)">
      <path
         d="m 0,0 c 0,0.16 0,0.16 -0.16,0.32 0,0 0,0 0,0 h -0.48 v 0.8 c 0,0 0,0 0,0 0,0 0,0.16 0,0.16 0,0 -0.16,0 -0.16,0 0,0 -0.16,0 -0.16,0 -0.16,0 -0.16,0 -0.16,0 -0.16,0 -0.16,0 -0.16,0 0,0 -0.16,-0.16 -0.16,-0.16 0,0 0,0 0,0 v -0.8 h -1.6 c 0,0 0,0 0,0 0,0 -0.16,0 -0.16,0 0,0 0,-0.16 0,-0.16 0,0 0,-0.16 0,-0.16 0,-0.16 0,-0.16 0,-0.16 0,-0.16 0,-0.16 0,-0.16 0,0 0,-0.16 0,-0.16 0,0 0.16,0 0.16,-0.16 l 1.28,-2.24 c 0,0 0,0 0,0 0,0 0.16,0 0.16,-0.16 0,0 0.16,0 0.16,0 0,0 0.16,0 0.32,0 0,0 0.16,0 0.16,0 0.16,0 0.16,0 0.32,0 0,0.16 0,0.16 0,0.16 0,0 0,0 0,0 v 2.56 h 0.48 c 0,0 0,0 0,0 C 0,-0.16 0,-0.16 0,0 Z m -1.44,-2.24 v 0 l -1.12,1.92 h 1.12 z"
         style="fill:#ff0000;fill-opacity:1;fill-rule:nonzero;stroke:none"
         id="path16684" />
    </g>
    <g
       id="g16686"
       transform="matrix(0.26458333,0,0,0.26458333,60.427694,9.4713975)">
      <path
         d="m 108.32,547.20001 -0.96,-4.32001 3.36,0.79999 z"
         style="fill:#000000;fill-opacity:1;fill-rule:evenodd;stroke:none"
         id="path16688" />
    </g>
    <g
       id="g16690"
       transform="matrix(0.26458333,0,0,0.26458333,90.145694,151.75373)">
      <path
         d="m 0,0 c -2.24,2.72 -3.68,5.92 -4,9.44 m 0,0 -0.96,-4.32 3.36,0.8 z"
         style="fill:none;stroke:#000000;stroke-width:0.48;stroke-linecap:butt;stroke-linejoin:miter;stroke-miterlimit:2;stroke-dasharray:none;stroke-opacity:1"
         id="path16692" />
    </g>
    <g
       id="g16694"
       transform="matrix(0.26458333,0,0,0.26458333,86.716694,152.76972)">
      <path
         d="m 0,0 v 0.8 h -3.2 c 0.16,-0.32 0.16,-0.48 0.32,-0.8 0.16,-0.32 0.64,-0.64 1.12,-1.12 0.32,-0.48 0.64,-0.64 0.64,-0.8 0.16,-0.32 0.32,-0.48 0.32,-0.64 0,-0.16 -0.16,-0.32 -0.16,-0.48 -0.16,0 -0.32,-0.16 -0.48,-0.16 -0.16,0 -0.32,0.16 -0.48,0.16 -0.16,0.16 -0.16,0.32 -0.16,0.64 l -0.96,-0.16 c 0,-0.48 0.16,-0.8 0.48,-0.96 0.32,-0.32 0.64,-0.48 1.12,-0.48 0.48,0 0.8,0.16 1.12,0.48 C 0,-3.36 0,-3.04 0,-2.56 c 0,0.16 0,0.32 0,0.64 -0.16,0.16 -0.32,0.32 -0.48,0.48 0,0.16 -0.32,0.48 -0.48,0.64 -0.32,0.32 -0.48,0.48 -0.64,0.64 0,0 -0.16,0.16 -0.16,0.16 z"
         style="fill:#ff0000;fill-opacity:1;fill-rule:nonzero;stroke:none"
         id="path16696" />
    </g>
    <g
       id="g16698"
       transform="matrix(0.26458333,0,0,0.26458333,86.843693,152.9814)">
      <path
         d="M 0,0 1.28,-1.76 0,-3.36 H 1.12 L 1.76,-2.4 2.4,-3.36 H 3.52 L 2.24,-1.76 3.52,0 H 2.4 L 1.76,-0.96 0.96,0 Z"
         style="fill:#ff0000;fill-opacity:1;fill-rule:nonzero;stroke:none"
         id="path16700" />
    </g>
    <g
       id="g16702"
       transform="matrix(0.26458333,0,0,0.26458333,88.07136,152.30407)">
      <path
         d="m 0,0 c -0.16,0 -0.32,-0.16 -0.48,-0.32 -0.16,-0.16 -0.16,-0.48 -0.16,-0.64 0,-0.32 0.16,-0.64 0.32,-0.8 0.32,-0.32 0.64,-0.48 1.12,-0.48 0.48,0 0.8,0.16 1.12,0.48 0.16,0.16 0.32,0.48 0.32,0.8 0,0.32 0,0.48 -0.16,0.64 C 1.92,-0.16 1.76,0 1.6,0 1.92,0.16 2.08,0.32 2.24,0.48 2.4,0.8 2.4,0.96 2.4,1.28 2.4,1.6 2.24,2.08 1.92,2.24 1.76,2.56 1.28,2.72 0.8,2.72 0.48,2.72 0,2.56 -0.16,2.4 -0.64,2.08 -0.8,1.76 -0.8,1.28 -0.8,0.96 -0.64,0.8 -0.48,0.48 -0.48,0.32 -0.16,0.16 0,0 Z m 0.32,-0.8 c 0,0.16 0,0.32 0,0.32 0.16,0.16 0.32,0.16 0.48,0.16 0.16,0 0.32,0 0.48,-0.16 0,0 0.16,-0.16 0.16,-0.32 0,-0.32 -0.16,-0.32 -0.16,-0.48 -0.16,-0.16 -0.32,-0.16 -0.48,-0.16 -0.16,0 -0.32,0 -0.48,0.16 0,0.16 0,0.16 0,0.48 z M 0.16,1.12 c 0,0.32 0,0.48 0.16,0.64 0.16,0.16 0.32,0.16 0.48,0.16 0.16,0 0.32,0 0.48,-0.16 C 1.44,1.6 1.44,1.44 1.44,1.12 1.44,0.96 1.44,0.8 1.28,0.64 1.12,0.48 0.96,0.48 0.8,0.48 0.64,0.48 0.48,0.48 0.32,0.64 0.16,0.8 0.16,0.96 0.16,1.12 Z"
         style="fill:#ff0000;fill-opacity:1;fill-rule:nonzero;stroke:none"
         id="path16704" />
    </g>
  </g>
</svg>
