<?xml version="1.0" encoding="UTF-8" standalone="no"?>
<!-- Created with Inkscape (http://www.inkscape.org/) -->

<svg
   width="12.954mm"
   height="16.51mm"
   viewBox="0 0 12.954 16.51"
   version="1.1"
   id="svg20687"
   inkscape:version="1.2.2 (732a01da63, 2022-12-09)"
   sodipodi:docname="7.svg"
   xmlns:inkscape="http://www.inkscape.org/namespaces/inkscape"
   xmlns:sodipodi="http://sodipodi.sourceforge.net/DTD/sodipodi-0.dtd"
   xmlns="http://www.w3.org/2000/svg"
   xmlns:svg="http://www.w3.org/2000/svg">
  <sodipodi:namedview
     id="namedview20689"
     pagecolor="#ffffff"
     bordercolor="#000000"
     borderopacity="0.25"
     inkscape:showpageshadow="2"
     inkscape:pageopacity="0.0"
     inkscape:pagecheckerboard="0"
     inkscape:deskcolor="#d1d1d1"
     inkscape:document-units="mm"
     showgrid="false"
     inkscape:zoom="0.76880612"
     inkscape:cx="11.706463"
     inkscape:cy="-10.405744"
     inkscape:window-width="1920"
     inkscape:window-height="1017"
     inkscape:window-x="-8"
     inkscape:window-y="-8"
     inkscape:window-maximized="1"
     inkscape:current-layer="layer1" />
  <defs
     id="defs20684" />
  <g
     inkscape:label="Layer 1"
     inkscape:groupmode="layer"
     id="layer1"
     transform="translate(-101.92972,-151.08567)">
    <g
       id="g16746"
       transform="matrix(0.26458333,0,0,0.26458333,113.74072,160.44135)">
      <path
         d="M 0,0 H -2.88 L -3.2,-0.16 -3.36,-0.48 -3.2,-0.8 -2.88,-0.96 H 0 l 0.32,0.16 0.16,0.32 -0.16,0.32 z m -5.76,0 h -2.88 l -0.32,-0.16 -0.16,-0.32 0.16,-0.32 0.32,-0.16 h 2.88 l 0.32,0.16 0.16,0.32 -0.16,0.32 z m -5.76,0 h -2.88 l -0.32,-0.16 -0.16,-0.32 0.16,-0.32 0.32,-0.16 h 2.88 l 0.32,0.16 0.16,0.32 -0.16,0.32 z m -5.760001,0 H -20.16 l -0.32,-0.16 -0.159999,-0.32 0.159999,-0.32 0.32,-0.16 h 2.879999 l 0.320002,0.16 0.16,0.32 -0.16,0.32 z m -5.76,0 H -25.92 l -0.32,-0.16 -0.16,-0.32 0.16,-0.32 0.32,-0.16 h 2.879999 l 0.320002,0.16 0.16,0.32 -0.16,0.32 z m -5.759998,0 H -31.68 L -32,-0.16 -32.16,-0.48 -32,-0.8 l 0.32,-0.16 h 2.880001 l 0.319999,0.16 0.16,0.32 -0.16,0.32 z m -5.760002,0 h -2.879998 l -0.319999,-0.16 -0.16,-0.32 0.16,-0.32 0.319999,-0.16 h 2.879998 l 0.319999,0.16 0.16,0.32 -0.16,0.32 z M -40.32,0 h -2.560001 l -0.32,-0.16 -0.16,-0.32 0.16,-0.32 0.32,-0.16 H -40.32 l 0.32,0.16 0.16,0.32 -0.16,0.32 z m 15.039999,-18.719999 2.08,-2.08 0.320002,-0.16 0.32,0.16 V -20.16 l -2.08,2.08 h -0.640002 l -0.16,-0.32 z m 4,-4.16 2.08,-1.92 0.320002,-0.16 0.32,0.16 L -18.4,-24.48 l -0.159999,0.32 -1.920001,2.08 -0.479999,0.16 -0.320002,-0.16 -0.16,-0.32 z m 4.16,-4 1.920001,-2.08 0.48,-0.160002 0.32,0.160002 0.16,0.32 -0.16,0.319999 -2.08,2.08 -0.319999,0.16 -0.320002,-0.16 z m 4.000001,-4.160002 2.08,-1.919998 h 0.64 l 0.16,0.32 -0.16,0.319999 -2.08,2.08 -0.32,0.16 -0.32,-0.16 z m 4.16,-4 v -0.16 l 0.32,-0.16 0.48,0.16 v 0.799999 h -0.16 l -0.32,0.16 -0.32,-0.16 -0.16,-0.319999 z"
         style="fill:#ff0000;fill-opacity:1;fill-rule:nonzero;stroke:none"
         id="path16748" />
    </g>
    <g
       id="g16750"
       transform="matrix(0.26458333,0,0,0.26458333,113.74072,160.31434)">
      <path
         d="M 0,0 C 0,1.12 0.8,1.92 1.92,1.92 2.88,1.92 3.84,1.12 3.84,0 3.84,-0.96 2.88,-1.92 1.92,-1.92 0.8,-1.92 0,-0.96 0,0 Z"
         style="fill:#000000;fill-opacity:1;fill-rule:evenodd;stroke:none"
         id="path16752" />
    </g>
    <g
       id="g16754"
       transform="matrix(0.26458333,0,0,0.26458333,113.74072,160.31434)">
      <path
         d="M 0,0 C 0,1.12 0.8,1.92 1.92,1.92 2.88,1.92 3.84,1.12 3.84,0 3.84,-0.96 2.88,-1.92 1.92,-1.92 0.8,-1.92 0,-0.96 0,0 Z M -44.16,27.040001 V 19.52 M -42.880001,0 -24.959999,-17.92 M -8.64,-34.400002 v 57.440003 m 0,0 -35.52,0.16"
         style="fill:none;stroke:#000000;stroke-width:0.96;stroke-linecap:round;stroke-linejoin:round;stroke-miterlimit:10;stroke-dasharray:none;stroke-opacity:1"
         id="path16756" />
    </g>
    <g
       id="g16758"
       transform="matrix(0.26458333,0,0,0.26458333,77.715054,-22.14232)">
      <path
         d="M 99.839996,671.20001 103.68,667.35998"
         style="fill:none;stroke:#000000;stroke-width:0.48;stroke-linecap:round;stroke-linejoin:round;stroke-miterlimit:10;stroke-dasharray:none;stroke-opacity:1"
         id="path16760" />
    </g>
    <g
       id="g16762"
       transform="matrix(0.26458333,0,0,0.26458333,104.42739,155.44601)">
      <path
         d="M 0,0 3.52,-0.96 2.88,2.08 Z M 2.72,-2.88 6.24,-3.68 5.6,-0.8 Z"
         style="fill:#000000;fill-opacity:1;fill-rule:evenodd;stroke:none"
         id="path16764" />
    </g>
    <g
       id="g16766"
       transform="matrix(0.26458333,0,0,0.26458333,107.17905,157.90134)">
      <path
         d="M 0,0 C -0.16,-2.24 -1.12,-4.32 -2.72,-6.08 -4.8,-8 -7.52,-9.12 -10.4,-9.28 M 0,-8.8 c -2.08,-1.92 -4.8,-3.04 -7.68,-3.36 m -2.72,2.88 3.52,-0.96 -0.64,3.04 z m 2.72,-2.88 3.52,-0.8 -0.64,2.88 z"
         style="fill:none;stroke:#000000;stroke-width:0.48;stroke-linecap:butt;stroke-linejoin:miter;stroke-miterlimit:2;stroke-dasharray:none;stroke-opacity:1"
         id="path16768" />
    </g>
    <g
       id="g16770"
       transform="matrix(0.26458333,0,0,0.26458333,102.98805,156.92768)">
      <path
         d="m 0,0 c 0,0.16 0,0.32 0,0.48 -0.16,0 -0.16,0.16 -0.32,0.32 -0.16,0 -0.32,0.16 -0.48,0.16 -0.16,0 -0.32,0 -0.48,0 -0.16,0 -0.32,0 -0.32,0 -0.16,0 -0.32,0 -0.32,0 -0.16,0 -0.16,0 -0.16,-0.16 -0.16,0 -0.16,0 -0.16,0 0,0 0,0 0,0 0,0 0,-0.16 0,-0.16 0,0 0,0 0,0 0,-0.16 0,-0.16 0,-0.16 0,-0.16 0,-0.16 0,-0.16 0,0 0,-0.16 0,-0.16 0,0 0,0.16 0.16,0.16 0,0 0,0 0.16,0 0,0 0.16,0.16 0.16,0.16 0.16,0 0.32,0 0.32,0 0.16,0 0.16,0 0.32,0 0,0 0.16,-0.16 0.16,-0.16 0,0 0.16,-0.16 0.16,-0.16 0,0 0,-0.16 0,-0.16 0,-0.16 0,-0.16 0,-0.32 0,0 -0.16,0 -0.16,-0.16 0,0 -0.16,0 -0.32,0 0,0 -0.16,0 -0.32,0 h -0.32 c 0,0 0,0 0,-0.16 0,0 0,0 0,0 0,0 0,0 0,0 0,0 0,-0.16 0,-0.16 0,0 0,-0.16 0,-0.16 0,0 0,0 0,0 0,0 0,-0.16 0,-0.16 0,0 0,0 0,0 h 0.32 c 0.16,0 0.32,0 0.32,0 0.16,0 0.16,0 0.16,-0.16 0.16,0 0.16,0 0.16,-0.16 0,0 0,0 0,-0.16 0,0 0,-0.16 0,-0.16 0,0 0,-0.16 0,-0.16 -0.16,0 -0.16,0 -0.16,0 -0.16,-0.16 -0.16,-0.16 -0.32,-0.16 0,0 -0.16,0.16 -0.16,0.16 -0.16,0 -0.16,0 -0.32,0 0,0 0,0.16 -0.16,0.16 0,0 0,0 0,0 0,0 0,0 -0.16,0 0,0 0,0 0,0 0,0 0,0 0,-0.16 0,0 0,0 0,0 0,-0.16 0,-0.16 0,-0.16 0,0 0,-0.16 0,-0.16 0,0 0,0 0,0 0,0 0,0 0.16,0 0,0 0,-0.16 0,-0.16 0.16,0 0.16,0 0.32,0 0,-0.16 0.16,-0.16 0.16,-0.16 0.16,0 0.32,0 0.48,0 0.16,0 0.32,0 0.32,0 0.16,0.16 0.32,0.16 0.48,0.16 0,0.16 0,0.16 0.16,0.32 0,0.16 0,0.16 0,0.32 0,0.16 0,0.32 0,0.32 0,0.16 0,0.16 -0.16,0.32 0,0 -0.16,0.16 -0.16,0.16 -0.16,0 -0.16,0 -0.32,0.16 v 0 c 0.16,0 0.32,0 0.32,0 0.16,0.16 0.16,0.16 0.32,0.16 0,0.16 0.16,0.16 0.16,0.32 0,0 0,0.16 0,0.32 z"
         style="fill:#ff0000;fill-opacity:1;fill-rule:nonzero;stroke:none"
         id="path16772" />
    </g>
    <g
       id="g16774"
       transform="matrix(0.26458333,0,0,0.26458333,103.70772,157.13934)">
      <path
         d="m 0,0 c 0,0 0,0.16 0,0.16 0,0 0,0 0,0 0,0 -0.16,0 -0.16,0 0,0 -0.16,0 -0.16,0 -0.16,0 -0.16,0 -0.32,0 0,0 0,0 0,0 0,0 -0.16,0 -0.16,0 0,0 0,0 0,0 L -1.28,-0.8 -1.6,0.16 c 0,0 -0.16,0 -0.16,0 0,0 0,0 0,0 0,0 0,0 -0.16,0 0,0 0,0 -0.16,0 0,0 -0.16,0 -0.16,0 0,0 0,0 -0.16,0 0,0 0,0 0,0 0,0 0,-0.16 0,-0.16 l 0.64,-1.12 -0.48,-1.12 c 0,0 0,-0.16 0,-0.16 0,0 0,0 0,0 0,0 0,0 0,0 0.16,0 0.16,0 0.32,0 0,0 0.16,0 0.16,0 0,0 0,0 0.16,0 0,0 0,0 0,0 0,0 0,0 0,0 l 0.48,0.8 0.32,-0.8 c 0.16,0 0.16,0 0.16,0 0,0 0,0 0,0 0,0 0,0 0.16,0 0,0 0,0 0.16,0 0,0 0,0 0.16,0 0,0 0,0 0,0 0.16,0 0.16,0 0.16,0 0,0 0,0.16 -0.16,0.16 l -0.48,1.12 z"
         style="fill:#ff0000;fill-opacity:1;fill-rule:nonzero;stroke:none"
         id="path16776" />
    </g>
    <g
       id="g16778"
       transform="matrix(0.26458333,0,0,0.26458333,104.42739,157.09701)">
      <path
         d="m 0,0 c 0,0.16 0,0.16 -0.16,0.16 0,0 0,0 0,0.16 0,0 0,0 0,0 0,0 0,0 0,0 h -2.08 c 0,0 0,0 0,0 0,0 -0.16,0 -0.16,0 0,0 0,-0.16 0,-0.16 0,0 0,0 0,-0.16 0,0 0,0 0,-0.16 0,0 0,0 0,0 0,-0.16 0,-0.16 0.16,-0.16 0,0 0,0 0,-0.16 l 0.64,-0.64 c 0.16,-0.16 0.16,-0.16 0.32,-0.32 0,-0.16 0,-0.16 0.16,-0.32 0,0 0,-0.16 0,-0.16 0,-0.16 0,-0.16 0,-0.16 0,-0.16 0,-0.16 0,-0.16 0,-0.16 0,-0.16 0,-0.16 -0.16,-0.16 -0.16,-0.16 -0.16,-0.16 -0.16,0 -0.16,0 -0.16,0 -0.16,0 -0.32,0 -0.32,0 -0.16,0 -0.16,0 -0.16,0.16 -0.16,0 -0.16,0 -0.16,0 -0.16,0 -0.16,0.16 -0.16,0.16 0,0 0,-0.16 0,-0.16 0,0 0,0 0,0 -0.16,0 -0.16,0 -0.16,-0.16 0,0 0,0 0,0 0,-0.16 0,-0.16 0,-0.16 0,0 0,0 0,-0.16 0,0 0.16,0 0.16,0 0,0 0,0 0,0 0,0 0,-0.16 0.16,-0.16 0,0 0,0 0.16,0 0.16,-0.16 0.16,-0.16 0.32,-0.16 0.16,0 0.16,0 0.32,0 0.16,0 0.32,0 0.48,0 0.16,0.16 0.16,0.16 0.32,0.32 0.16,0 0.16,0.16 0.16,0.16 0.16,0.16 0.16,0.32 0.16,0.48 0,0 0,0.16 -0.16,0.32 0,0 0,0.16 0,0.32 -0.16,0.16 -0.16,0.32 -0.32,0.48 -0.16,0 -0.32,0.32 -0.48,0.48 l -0.48,0.32 h 1.44 c 0,0 0,0 0,0.16 0,0 0,0 0,0 0,0 0,0 0,0 C 0,0 0,0 0,0 Z"
         style="fill:#ff0000;fill-opacity:1;fill-rule:nonzero;stroke:none"
         id="path16780" />
    </g>
  </g>
</svg>
