<?xml version="1.0" encoding="UTF-8" standalone="no"?>
<!-- Created with Inkscape (http://www.inkscape.org/) -->

<svg
   width="12.213162mm"
   height="8.4455042mm"
   viewBox="0 0 12.213162 8.4455042"
   version="1.1"
   id="svg20977"
   inkscape:version="1.2.2 (732a01da63, 2022-12-09)"
   sodipodi:docname="9.svg"
   xmlns:inkscape="http://www.inkscape.org/namespaces/inkscape"
   xmlns:sodipodi="http://sodipodi.sourceforge.net/DTD/sodipodi-0.dtd"
   xmlns="http://www.w3.org/2000/svg"
   xmlns:svg="http://www.w3.org/2000/svg">
  <sodipodi:namedview
     id="namedview20979"
     pagecolor="#ffffff"
     bordercolor="#000000"
     borderopacity="0.25"
     inkscape:showpageshadow="2"
     inkscape:pageopacity="0.0"
     inkscape:pagecheckerboard="0"
     inkscape:deskcolor="#d1d1d1"
     inkscape:document-units="mm"
     showgrid="false"
     inkscape:zoom="0.76880612"
     inkscape:cx="-6.5035903"
     inkscape:cy="-123.56822"
     inkscape:window-width="1920"
     inkscape:window-height="1017"
     inkscape:window-x="-8"
     inkscape:window-y="-8"
     inkscape:window-maximized="1"
     inkscape:current-layer="layer1" />
  <defs
     id="defs20974" />
  <g
     inkscape:label="Layer 1"
     inkscape:groupmode="layer"
     id="layer1"
     transform="translate(-106.77407,-180.92905)">
    <g
       id="g16430"
       transform="matrix(0.26458333,0,0,0.26458333,112.9124,181.79689)">
      <path
         d="M 0,0 V 0 L -0.16,-0.16 0,-0.32 v 0 l 0.16,0.16 z m -0.96,0 v 0 l -0.16,-0.16 0.16,-0.16 v 0 l 0.16,0.16 z m -0.96,0 v 0 l -0.16,-0.16 0.16,-0.16 v 0 l 0.16,0.16 z m -0.96,0 v 0 l -0.16,-0.16 0.16,-0.16 v 0 l 0.16,0.16 z m -0.96,0.16 v 0 L -4,0 -3.84,-0.16 v 0 L -3.68,0 Z M -4.8,0.32 v 0 L -4.96,0.16 -4.8,0 v 0 h 0.16 z m -0.96,0 v 0 H -5.92 L -5.76,0 v 0 l 0.16,0.16 z"
         style="fill:#000000;fill-opacity:1;fill-rule:nonzero;stroke:none"
         id="path16432" />
    </g>
    <g
       id="g16434"
       transform="matrix(0.26458333,0,0,0.26458333,111.1344,181.92388)">
      <path
         d="M 0,0 V 0 H -0.16 L 0,-0.32 v 0 l 0.16,0.16 z m -0.8,0.32 v 0 L -1.12,0.16 -0.96,0 v 0 h 0.16 z m -0.96,0.16 v 0 L -1.92,0.32 v -0.16 0 l 0.16,0.16 z M -2.72,0.8 v 0 L -2.88,0.64 v -0.16 0 h 0.32 z m -0.96,0.16 v 0 h -0.16 l 0.16,-0.32 v 0 l 0.16,0.16 z m -0.8,0.32 v 0 H -4.8 l 0.16,-0.32 v 0 l 0.16,0.16 z M -5.44,1.6 v 0 H -5.6 v -0.16 0 h 0.32 z"
         style="fill:#000000;fill-opacity:1;fill-rule:nonzero;stroke:none"
         id="path16436" />
    </g>
    <g
       id="g16438"
       transform="matrix(0.26458333,0,0,0.26458333,109.4834,182.47422)">
      <path
         d="m 0,0 v 0 l -0.32,-0.16 0.16,-0.16 v 0 L 0,-0.16 Z m -0.96,0.48 v 0 L -1.12,0.32 v -0.16 0 h 0.32 z m -0.8,0.48 v 0 L -1.92,0.8 v -0.16 0 h 0.32 z m -0.8,0.48 v 0 h -0.16 v -0.32 0 L -2.4,1.28 Z M -3.2,2.08 v 0 L -3.52,1.92 v -0.16 0 H -3.2 Z M -4,2.72 v 0 H -4.16 V 2.4 2.4 H -4 Z m -0.48,0.64 v 0 H -4.8 v -0.16 0 0 h 0.16 z"
         style="fill:#000000;fill-opacity:1;fill-rule:nonzero;stroke:none"
         id="path16440" />
    </g>
    <g
       id="g16442"
       transform="matrix(0.26458333,0,0,0.26458333,108.12873,183.57488)">
      <path
         d="m 0,0 v 0 h -0.16 v -0.16 0 H 0 Z m -0.32,0.8 v 0 L -0.48,0.96 -0.64,0.8 v 0 l 0.16,-0.16 z m -0.32,0.96 v 0 L -0.8,1.92 -0.96,1.76 v 0 L -0.64,1.6 Z m 0,0.96 v 0 L -0.8,2.88 -0.96,2.72 v 0 L -0.8,2.56 Z m 0.16,0.8 v 0 L -0.64,3.84 -0.8,3.68 v 0 l 0.16,-0.16 z m 0.32,0.96 v 0 l -0.16,0.16 h -0.16 v 0 -0.32 z m 0.32,0.8 v 0 0.16 H 0 v 0 -0.16 z"
         style="fill:#000000;fill-opacity:1;fill-rule:nonzero;stroke:none"
         id="path16444" />
    </g>
    <g
       id="g16446"
       transform="matrix(0.26458333,0,0,0.26458333,108.3404,185.18355)">
      <path
         d="m 0,0 v 0 0.16 h -0.32 v 0 V 0 Z m 0.64,0.64 v 0 0.32 L 0.32,0.8 v 0 L 0.48,0.64 Z m 0.64,0.64 v 0 0.16 H 1.12 v 0 -0.16 z m 0.8,0.48 v 0 0.32 H 1.92 v 0 -0.16 z m 0.8,0.64 v 0 0.16 H 2.72 v 0 -0.16 z m 0.8,0.48 v 0 L 3.84,3.04 H 3.52 v 0 -0.16 z M 4.64,3.2 v 0 0.16 L 4.48,3.52 v 0 0 L 4.32,3.36 Z"
         style="fill:#000000;fill-opacity:1;fill-rule:nonzero;stroke:none"
         id="path16448" />
    </g>
    <g
       id="g16450"
       transform="matrix(0.26458333,0,0,0.26458333,109.77973,186.15722)">
      <path
         d="m 0,0 v 0 l 0.16,0.16 h -0.32 v 0 V 0 Z m 0.96,0.32 v 0 0.16 L 0.8,0.64 v 0 L 0.64,0.32 Z m 0.8,0.32 v 0 L 1.92,0.8 H 1.76 v 0 L 1.6,0.64 Z M 2.72,0.8 v 0 L 2.88,1.12 H 2.56 v 0 -0.16 z m 0.96,0.32 v 0 L 3.84,1.28 3.52,1.44 v 0 -0.32 z m 0.96,0.16 v 0 0.16 L 4.48,1.6 v 0 L 4.32,1.44 Z M 5.6,1.44 v 0 0.16 L 5.44,1.76 v 0 L 5.28,1.6 Z"
         style="fill:#000000;fill-opacity:1;fill-rule:nonzero;stroke:none"
         id="path16452" />
    </g>
    <g
       id="g16454"
       transform="matrix(0.26458333,0,0,0.26458333,111.47307,186.58054)">
      <path
         d="M 0,0 V 0 L 0.16,0.16 0,0.32 v 0 L -0.16,0.16 Z m 0.96,0.16 v 0 L 1.12,0.32 0.96,0.48 v 0 L 0.8,0.32 Z m 0.96,0.16 v 0 L 2.08,0.48 1.92,0.64 v 0 L 1.76,0.48 Z m 0.96,0 v 0 L 3.04,0.48 2.88,0.64 v 0 L 2.72,0.48 Z m 0.96,0 v 0 L 4,0.48 3.84,0.64 v 0 L 3.68,0.48 Z M 4.8,0.48 v 0 L 4.96,0.64 4.8,0.8 v 0 L 4.64,0.64 Z m 0.96,0 v 0 L 5.92,0.64 5.76,0.8 v 0 L 5.6,0.64 Z"
         style="fill:#000000;fill-opacity:1;fill-rule:nonzero;stroke:none"
         id="path16456" />
    </g>
    <g
       id="g16458"
       transform="matrix(0.26458333,0,0,0.26458333,113.25107,186.70755)">
      <path
         d="M 0,0 V 0 L 0.16,0.16 0,0.32 v 0 L -0.16,0.16 Z m 0.96,-0.16 v 0 L 1.12,0 0.96,0.16 v 0 L 0.8,0 Z m 0.96,0 v 0 L 2.08,0 1.92,0.16 v 0 L 1.76,0 Z m 0.96,-0.16 v 0 L 3.04,-0.16 2.88,0 V 0 L 2.72,-0.16 Z m 0.96,0 v 0 H 4 L 3.84,0 V 0 L 3.68,-0.16 Z M 4.8,-0.48 v 0 l 0.16,0.16 -0.16,0.16 v 0 L 4.64,-0.32 Z m 0.96,-0.16 v 0 h 0.16 l -0.16,0.32 v 0 L 5.6,-0.48 Z M 6.72,-0.8 v 0 h 0.16 l -0.16,0.16 v 0 H 6.56 Z m 0.8,-0.32 v 0 l 0.32,0.16 -0.16,0.16 v 0 L 7.52,-0.96 Z m 0.96,-0.16 v 0 h 0.16 v 0.16 0 H 8.32 Z M 9.44,-1.6 v 0 H 9.6 l -0.16,0.32 v 0 L 9.28,-1.44 Z m 0.8,-0.32 v 0 h 0.32 L 10.4,-1.6 v 0 l -0.16,-0.16 z"
         style="fill:#000000;fill-opacity:1;fill-rule:nonzero;stroke:none"
         id="path16460" />
    </g>
    <g
       id="g16462"
       transform="matrix(0.26458333,0,0,0.26458333,82.728733,-33.595113)">
      <path
         d="m 136.8,811.03998 c -1.6,5.92004 -6.08,10.72003 -12,12.48004"
         style="fill:none;stroke:#000000;stroke-width:0.48;stroke-linecap:round;stroke-linejoin:round;stroke-miterlimit:10;stroke-dasharray:none;stroke-opacity:1"
         id="path16464" />
    </g>
    <g
       id="g16466"
       transform="matrix(0.26458333,0,0,0.26458333,82.728733,-33.595113)">
      <path
         d="m 125.92,826.23999 -6.24,-2.08002 5.28,-3.67999 z"
         style="fill:#000000;fill-opacity:1;fill-rule:evenodd;stroke:none"
         id="path16468" />
    </g>
    <g
       id="g16470"
       transform="matrix(0.26458333,0,0,0.26458333,107.91707,181.75455)">
      <path
         d="m 0,0 c 0,-1.12 -0.8,-1.92 -1.92,-1.92 -0.96,0 -1.92,0.8 -1.92,1.92 0,0.96 0.96,1.76 1.92,1.76 C -0.8,1.76 0,0.96 0,0 Z"
         style="fill:#000000;fill-opacity:1;fill-rule:evenodd;stroke:none"
         id="path16472" />
    </g>
    <g
       id="g16474"
       transform="matrix(0.26458333,0,0,0.26458333,107.91707,181.75455)">
      <path
         d="m 0,0 c 0,-1.12 -0.8,-1.92 -1.92,-1.92 -0.96,0 -1.92,0.8 -1.92,1.92 0,0.96 0.96,1.76 1.92,1.76 C -0.8,1.76 0,0.96 0,0 Z M 12.96,28.32 H 5.44 M 0,0 h 18.879999 c 5.76,-0.16 11.200001,1.28 14.24,3.36 m 0,0 C 36.16,4.96 37.759998,7.2 37.759998,9.44 37.599998,12.16 35.84,14.56 33.119999,16 L 9.12,28.32"
         style="fill:none;stroke:#000000;stroke-width:0.96;stroke-linecap:round;stroke-linejoin:round;stroke-miterlimit:10;stroke-dasharray:none;stroke-opacity:1"
         id="path16476" />
    </g>
  </g>
</svg>
